<svg width="398" height="236" viewBox="0 0 398 236" fill="none" xmlns="http://www.w3.org/2000/svg">
<path fill-rule="evenodd" clip-rule="evenodd" d="M119.232 3.0624C123.619 4.31202 130.291 6.77099 134.059 8.52668C137.826 10.2824 143.683 13.5076 147.074 15.6938C150.464 17.88 156.671 23.1135 160.866 27.3239C165.062 31.5344 170.082 37.3394 172.022 40.2247C173.964 43.1092 177.25 48.8806 179.326 53.0499C181.402 57.2184 184.021 64.1111 185.147 68.366C186.272 72.621 187.299 77.8016 187.429 79.8787L187.665 83.6553L182.662 83.9121C179.91 84.0531 176.793 83.9515 175.735 83.6863C174.442 83.3624 173.81 82.5836 173.81 81.3146C173.81 80.2757 173.028 76.6006 172.071 73.148C171.115 69.6954 168.885 63.7838 167.118 60.0114C165.35 56.2382 162.651 51.332 161.119 49.1072C159.589 46.8832 156.262 42.7944 153.728 40.0216C151.194 37.2488 146.646 33.0626 143.623 30.7195C140.599 28.3763 136.045 25.2863 133.502 23.852C130.96 22.4177 126.237 20.3037 123.006 19.154C119.776 18.0034 115.433 16.6136 113.354 16.0639C111.276 15.515 106.237 14.7857 102.156 14.445C98.0742 14.1034 91.1873 14.1496 86.8513 14.5482C82.5153 14.946 75.8417 16.2485 72.0204 17.4427C68.1999 18.6361 62.8521 20.7284 60.1375 22.093C57.422 23.4576 52.8878 26.1389 50.0615 28.0524C47.2344 29.965 42.8816 33.4395 40.3878 35.7726C37.8948 38.1056 33.8779 42.6719 31.4613 45.9206C29.0448 49.1685 25.5047 54.934 23.5937 58.7324C21.6415 62.6131 19.2308 69.306 18.0922 74.0082C16.9763 78.6115 15.8285 82.7598 15.5396 83.2264C15.2508 83.693 12.38 84.0749 9.16072 84.0749C4.577 84.0749 3.19409 83.7845 2.79189 82.7363C2.50976 82.0003 2.75073 78.6962 3.32926 75.393C3.90695 72.0906 5.70719 65.8005 7.33026 61.4155C8.95333 57.0304 11.1516 51.875 12.2146 49.9599C13.2776 48.0439 15.1761 44.8338 16.433 42.8263C17.6892 40.8181 20.2611 37.2874 22.1469 34.9795C24.0337 32.6716 27.4729 28.8941 29.7912 26.5854C32.1095 24.2767 36.6513 20.4053 39.884 17.9824C43.1167 15.5587 49.1622 11.9155 53.3186 9.88708C57.4749 7.85781 63.5205 5.39716 66.7532 4.41945C69.9859 3.4409 75.0868 2.08973 78.0886 1.41582C82.0451 0.527907 87.3576 0.272781 97.4008 0.490144C109.369 0.749468 112.341 1.09942 119.232 3.0624ZM105.215 23.7463C108.534 24.2616 114.464 25.8141 118.39 27.1964C122.317 28.5794 128.174 31.2516 131.407 33.1357C134.834 35.133 140.301 39.5777 144.518 43.794C149.069 48.3443 153.201 53.4956 155.663 57.6892C157.815 61.3542 160.718 67.9078 162.115 72.2525C163.512 76.5964 164.542 80.9395 164.404 81.9038C164.188 83.4211 163.485 83.6897 159.151 83.9121C156.4 84.0531 153.344 83.9675 152.362 83.7207C151.004 83.38 150.337 82.2076 149.582 78.8347C149.035 76.3934 147.24 71.7675 145.593 68.554C143.947 65.3414 140.706 60.3798 138.391 57.529C136.078 54.6789 132.049 50.7488 129.437 48.795C126.826 46.8421 122.025 43.966 118.767 42.4042C115.509 40.8424 109.652 38.9591 105.752 38.2189C100.792 37.2781 96.515 37.0297 91.5232 37.3923C87.5978 37.6785 82.4607 38.4296 80.1088 39.0632C77.7561 39.696 72.7912 41.7941 69.0765 43.726C65.361 45.6579 60.0199 49.3204 57.2054 51.8658C54.3917 54.4112 50.3462 59.0899 48.2159 62.2639C46.0337 65.5151 43.162 71.4444 41.6389 75.8445L38.936 83.6553L32.4823 83.9305L26.0295 84.205V82.0045C26.0295 80.7943 26.6517 77.3283 27.4125 74.3011C28.1732 71.2748 30.379 65.6964 32.3152 61.9039C34.2515 58.1122 37.7495 52.5741 40.0897 49.5982C42.4298 46.6222 46.1747 42.6585 48.4116 40.7903C50.6484 38.9222 54.1792 36.2408 56.2574 34.8326C58.3355 33.4244 61.5473 31.521 63.3945 30.6028C65.2418 29.6856 69.6349 27.9265 73.1564 26.6945C76.678 25.4625 81.7789 24.1306 84.4919 23.7345C87.2048 23.3392 91.6189 22.9691 94.3008 22.9129C96.9835 22.8567 101.895 23.2318 105.215 23.7463ZM105.881 47.5127C109.079 48.1899 114.187 50.2259 117.954 52.3232C122.305 54.7469 126.141 57.7631 129.446 61.3609C132.175 64.331 135.726 69.4293 137.339 72.6906C138.952 75.9519 140.355 79.7528 140.457 81.1376L140.643 83.6553L134.203 83.8995L127.764 84.1429L125.143 79.2837C123.702 76.6107 121.683 73.4795 120.656 72.3256C119.63 71.1716 117.137 68.8243 115.116 67.1097C113.019 65.3305 109.111 63.2173 106.011 62.1859C101.629 60.729 99.1776 60.4478 93.3226 60.7323C87.8539 60.9984 84.9277 61.6118 81.4473 63.2207C78.9073 64.3948 74.8568 67.1366 72.4469 69.3144C69.666 71.8271 67.0916 75.2478 65.4038 78.6744L62.7438 84.0749H57.0509C53.9189 84.0749 50.7895 83.8575 50.0959 83.5915C48.9926 83.1677 49.0245 82.5567 50.3546 78.6929C51.1909 76.2641 52.5226 73.0246 53.3152 71.4939C54.107 69.9623 55.8678 67.1634 57.2272 65.2726C58.5874 63.3818 61.8185 60.0165 64.408 57.7942C66.9975 55.5718 71.3352 52.6337 74.049 51.2649C76.7619 49.8961 81.1425 48.252 83.7832 47.6125C86.4239 46.9722 91.2293 46.4242 94.462 46.3939C97.6947 46.3629 102.833 46.8664 105.881 47.5127ZM54.1582 97.0831V102.119H48.2806H42.403L42.1427 98.0289C41.9999 95.7798 42.0889 93.4022 42.3408 92.7451C42.6893 91.8387 44.1704 91.6104 48.4787 91.7992L54.1582 92.0477V97.0831ZM110.667 96.8473C110.899 101.29 110.77 101.683 108.932 102.145C107.84 102.418 105.081 102.525 102.803 102.38L98.6603 102.119L98.4 98.0289C98.2573 95.7798 98.3463 93.4022 98.5982 92.7451C98.9467 91.8387 100.428 91.6104 104.736 91.7992L110.416 92.0477L110.667 96.8473ZM188.504 114.287V136.527L182.417 136.774L176.329 137.021V114.883C176.329 102.708 176.596 92.4799 176.924 92.1534C177.25 91.8269 179.989 91.6692 183.011 91.8034L188.504 92.0477V114.287ZM283.637 96.8473C283.868 101.265 283.735 101.681 281.958 102.082C280.896 102.322 278.138 102.428 275.829 102.318L271.631 102.119L271.371 98.0289C271.228 95.7798 271.317 93.4022 271.569 92.7451C271.917 91.8387 273.398 91.6104 277.707 91.7992L283.386 92.0477L283.637 96.8473ZM322.219 107.993C322.338 117.172 322.805 124.667 323.318 125.655C323.808 126.599 324.093 129.432 323.949 131.949L323.69 136.527L319.68 136.784C316.305 137 315.381 136.716 313.846 134.994C312.028 132.955 312.014 132.953 309.851 134.55C308.657 135.432 306.297 136.379 304.607 136.652C302.916 136.927 300.2 136.902 298.571 136.596C296.943 136.291 294.449 135.064 293.03 133.87C291.611 132.677 289.679 130.191 288.737 128.346C287.688 126.29 287.009 123.294 286.986 120.612C286.964 118.203 287.38 114.919 287.911 113.311C288.442 111.704 290.097 109.213 291.589 107.774C293.081 106.336 295.366 104.758 296.665 104.268C297.965 103.779 300.049 103.377 301.296 103.377C302.543 103.377 304.974 104.134 306.699 105.058L309.835 106.738V99.7426C309.835 95.8947 310.102 92.4799 310.43 92.1534C310.757 91.8269 313.496 91.6692 316.517 91.8034L322.011 92.0477L322.219 107.993ZM25.5375 94.6703C27.7399 95.4205 30.824 97.3147 32.39 98.8799C33.9551 100.445 35.8931 102.947 36.6958 104.44C37.7689 106.435 38.1618 109.173 38.1803 114.773C38.203 121.81 38.0107 122.705 35.6638 126.5C34.0895 129.045 31.5587 131.575 29.0145 133.148C25.1823 135.517 24.2243 135.717 14.7621 136.108C9.18338 136.338 3.57864 136.408 2.30907 136.262L0 135.996V115.211C0 103.779 0.251892 94.1734 0.560048 93.8663C0.867365 93.5583 5.71223 93.3065 11.3262 93.3065C18.5456 93.3065 22.7045 93.706 25.5375 94.6703ZM236.705 95.4667C238.117 96.6542 239.718 99.109 240.261 100.922C241.022 103.46 241.018 104.988 240.243 107.572C239.69 109.417 238.483 111.63 237.559 112.49C235.887 114.047 235.889 114.057 238.082 115.494C239.293 116.287 240.819 118.216 241.473 119.781C242.128 121.345 242.662 123.79 242.662 125.213C242.662 126.635 242.069 128.946 241.343 130.348C240.534 131.913 238.669 133.489 236.515 134.428C233.926 135.558 230.044 136.073 221.7 136.395C215.482 136.636 209.341 136.622 208.056 136.365L205.717 135.898V114.602V93.3065H219.927C233.968 93.3065 234.168 93.3325 236.705 95.4667ZM129.978 99.3406C130.224 104.04 130.272 104.12 132.917 104.376C135.53 104.629 135.613 104.76 135.859 109.042L136.113 113.448H133.13H130.148V119.852V126.257L133.071 125.782C134.679 125.521 136.168 125.588 136.38 125.93C136.591 126.273 137.02 128.484 137.334 130.844L137.904 135.135L134.655 136.036C132.869 136.532 129.782 136.939 127.797 136.942C125.812 136.944 123.113 136.392 121.801 135.713C120.466 135.023 119.004 133.305 118.483 131.812C117.972 130.344 117.553 125.638 117.553 121.354C117.553 113.916 117.468 113.553 115.663 113.297C113.992 113.06 113.774 112.545 113.774 108.832C113.774 105.12 113.992 104.605 115.663 104.368C117.35 104.128 117.553 103.625 117.553 99.6822C117.553 97.2526 117.82 94.9976 118.147 94.6711C118.474 94.3447 121.213 94.1869 124.235 94.3212L129.728 94.5654L129.978 99.3406ZM351.086 103.783C352.644 104.468 354.513 105.507 355.24 106.091C355.967 106.676 357.237 108.189 358.06 109.453C359.258 111.293 359.329 111.826 358.417 112.121C357.789 112.324 355.229 113.06 352.728 113.758C348.761 114.863 347.958 114.871 346.453 113.817C345.504 113.153 344.084 112.609 343.296 112.609C342.508 112.609 341.081 113.604 340.125 114.82C339.167 116.036 338.384 118.03 338.384 119.249C338.384 120.469 338.939 122.259 339.617 123.228C340.297 124.196 341.577 125.178 342.464 125.41C343.351 125.642 344.59 125.506 345.218 125.108C346.121 124.535 346.131 124.381 345.265 124.371C344.483 124.362 344.243 123.217 344.425 120.372L344.681 116.386L352.028 116.143L359.376 115.9V125.941V135.982L349.976 135.939C344.807 135.916 339.46 135.577 338.096 135.186C336.732 134.795 334.385 133.632 332.882 132.602C331.377 131.572 329.48 129.602 328.666 128.223C327.851 126.845 326.897 124.184 326.546 122.31C326.195 120.437 326.279 117.212 326.734 115.145C327.189 113.078 328.468 110.2 329.575 108.748C330.683 107.297 333.212 105.306 335.197 104.324C337.584 103.143 340.402 102.539 343.529 102.539C346.128 102.538 349.529 103.099 351.086 103.783ZM78.8552 105.13C81.4128 106.688 81.8008 106.733 82.4658 105.546C83.0149 104.565 84.5196 104.217 88.2065 104.217H93.2025L93.1975 119.952C93.195 128.607 92.8045 137.085 92.3301 138.794C91.7986 140.707 90.1747 143.005 88.1016 144.779C86.2501 146.363 83.046 148.131 80.9821 148.709C78.7595 149.331 74.8349 149.588 71.3621 149.34C66.8909 149.02 64.6968 148.392 62.1359 146.698C60.2878 145.476 58.7764 143.989 58.7764 143.394C58.7764 142.799 60.0485 141.079 61.6027 139.574L64.4298 136.835L67.2704 138.567C68.833 139.518 71.4981 140.299 73.1917 140.3C74.8861 140.302 76.8837 140.069 77.631 139.783C78.3791 139.496 79.5429 138.193 80.2188 136.886C80.8947 135.581 81.4473 134.122 81.4473 133.644C81.4473 133.166 80.2197 133.524 78.7184 134.438C76.9425 135.521 74.494 136.103 71.7055 136.104C68.6567 136.107 66.5987 135.561 64.5684 134.213C62.999 133.17 60.8655 130.636 59.8259 128.58C58.5849 126.124 57.9493 123.392 57.9737 120.614C57.9938 118.288 58.5245 114.945 59.1534 113.183C59.7815 111.421 60.9402 109.269 61.727 108.399C62.5146 107.53 64.7229 106.044 66.6348 105.099C68.5475 104.153 71.4343 103.38 73.0506 103.382C74.667 103.382 77.2792 104.17 78.8552 105.13ZM164.628 105.569C166.118 106.441 168.121 108.205 169.079 109.489C170.373 111.225 170.892 113.376 171.102 117.881C171.258 121.213 171.711 124.694 172.11 125.617C172.509 126.54 173.023 128.429 173.253 129.813C173.483 131.198 173.469 133.37 173.222 134.639C172.806 136.784 172.483 136.947 168.634 136.947C165.338 136.947 164.111 136.535 162.62 134.926L160.746 132.904L157.412 134.922C155.43 136.12 152.767 136.94 150.846 136.943C149.069 136.945 146.407 136.375 144.932 135.675C143.456 134.975 141.604 133.311 140.816 131.979C140.029 130.645 139.384 128.021 139.384 126.147C139.384 123.534 139.99 122.049 141.979 119.784C143.597 117.942 145.887 116.475 148.059 115.891C149.974 115.376 153.151 115.135 155.119 115.357C157.82 115.661 158.696 115.472 158.696 114.583C158.696 113.936 157.752 113.048 156.597 112.609C155.443 112.17 153.27 112.045 151.769 112.33C150.269 112.616 147.966 113.389 146.653 114.05C145.34 114.71 144.158 115.128 144.027 114.979C143.896 114.83 142.998 113.139 142.031 111.223L140.275 107.741L143.348 106.283C145.039 105.481 147.389 104.509 148.571 104.123C149.752 103.737 153.239 103.548 156.319 103.702C159.858 103.879 162.916 104.567 164.628 105.569ZM268.52 108.968L268.768 114.137L266.001 114.684C264.479 114.986 262.195 115.632 260.925 116.12L258.616 117.009V126.468C258.616 133.289 258.323 136.026 257.566 136.28C256.99 136.474 254.469 136.608 251.966 136.579C247.8 136.531 247.365 136.343 246.827 134.354C246.503 133.159 246.284 125.983 246.339 118.409L246.441 104.636L252.109 104.388C257.742 104.141 257.776 104.154 257.776 106.363V108.587L260.799 105.935C262.894 104.096 264.504 103.361 266.047 103.539C268.154 103.784 268.286 104.071 268.52 108.968ZM389.474 105.923C391.31 106.955 393.537 108.787 394.422 109.994C395.307 111.202 396.474 113.473 397.016 115.042C397.557 116.611 398 118.896 398 120.119C398 121.343 397.547 122.797 396.992 123.351C396.318 124.025 392.57 124.358 385.657 124.358C379.977 124.358 375.329 124.66 375.329 125.03C375.329 125.399 375.783 126.154 376.337 126.708C376.891 127.262 378.656 127.715 380.259 127.715C381.862 127.715 383.807 127.142 384.581 126.442C385.78 125.357 386.645 125.319 390.405 126.187C392.834 126.748 395.018 127.72 395.26 128.35C395.501 128.979 394.641 130.598 393.348 131.947C392.055 133.295 389.36 135.024 387.36 135.788C384.734 136.79 382.197 137.054 378.24 136.736C374.208 136.413 371.86 135.702 369.36 134.049C367.278 132.672 365.343 130.44 364.366 128.289C363.489 126.358 362.763 123.122 362.753 121.099C362.743 119.075 363.181 115.93 363.726 114.11C364.344 112.051 365.996 109.707 368.101 107.907C369.962 106.315 372.632 104.656 374.036 104.221C375.44 103.785 378.736 103.568 381.362 103.738C384.254 103.925 387.45 104.786 389.474 105.923ZM12.5949 114.6V125.198H16.6362C20.0494 125.198 21.0604 124.798 23.1436 122.624C25.3477 120.325 25.6097 119.481 25.6097 114.671C25.6097 109.964 25.3301 109.01 23.3754 107.057C21.7229 105.405 20.0285 104.717 16.868 104.414L12.5949 104.003V114.6ZM54.3866 120.372L54.615 136.108L52.7073 136.182C51.6577 136.222 49.666 136.272 48.2806 136.293C46.8951 136.314 44.9119 136.281 43.8724 136.219C41.9856 136.108 41.9831 136.085 41.9831 120.722C41.9831 112.259 42.2501 105.068 42.5776 104.742C42.9042 104.416 45.6432 104.258 48.6652 104.392L54.1582 104.636L54.3866 120.372ZM110.646 119.633C110.775 128.115 110.533 135.042 110.087 135.578C109.643 136.113 106.976 136.505 103.98 136.475L98.6603 136.424L98.4319 120.283L98.2044 104.143L104.31 104.389L110.416 104.636L110.646 119.633ZM218.312 106.734V109.336L223.14 109.084C227.664 108.848 227.968 108.7 227.968 106.734C227.968 104.769 227.664 104.62 223.14 104.384L218.312 104.133V106.734ZM283.616 119.633C283.746 128.127 283.504 135.041 283.057 135.578C282.623 136.1 280.819 136.475 279.048 136.411C277.278 136.347 274.79 136.253 273.52 136.201L271.211 136.108V120.125V104.143L277.299 104.389L283.386 104.636L283.616 119.633ZM376.648 113.927C375.923 114.653 375.329 115.598 375.329 116.026C375.329 116.454 377.155 116.805 379.387 116.805C381.62 116.805 383.675 116.575 383.956 116.295C384.237 116.015 384.02 115.07 383.475 114.197C382.9 113.279 381.53 112.609 380.225 112.609C378.983 112.609 377.375 113.202 376.648 113.927ZM301.912 115.234C300.255 116.537 299.759 117.685 299.759 120.223C299.759 122.4 300.33 124.089 301.439 125.198C302.362 126.121 303.79 126.876 304.61 126.876C305.431 126.876 306.943 126.288 307.969 125.569C309.405 124.565 309.835 123.432 309.835 120.664C309.835 118.276 309.341 116.641 308.366 115.804C307.558 115.11 306.259 114.318 305.481 114.042C304.679 113.759 303.132 114.276 301.912 115.234ZM71.839 116.153C71.1203 117.179 70.5434 119.161 70.5585 120.559C70.5728 121.956 71.1421 123.835 71.823 124.736C72.635 125.809 74.07 126.372 75.9894 126.372C77.9089 126.372 79.3439 125.809 80.1559 124.736C80.8368 123.835 81.4061 122.112 81.4204 120.905C81.4355 119.698 80.6638 117.715 79.7066 116.499C78.5487 115.028 77.16 114.287 75.5562 114.287C74.0171 114.287 72.6736 114.961 71.839 116.153ZM218.312 122.68V126.117L223.473 125.867C227.288 125.683 228.874 125.234 229.556 124.148C230.226 123.081 230.226 122.279 229.556 121.211C228.874 120.125 227.288 119.677 223.473 119.492L218.312 119.243V122.68ZM151.282 124.148C150.866 124.956 150.696 126.09 150.902 126.666C151.11 127.244 152.35 127.715 153.66 127.715C154.969 127.715 156.637 127.486 157.368 127.206C158.098 126.926 158.696 125.793 158.696 124.688C158.696 122.907 158.318 122.68 155.367 122.68C153.044 122.68 151.809 123.124 151.282 124.148ZM193.598 154.151C195.159 158.767 197.96 165.627 199.822 169.396C201.684 173.164 205.494 179.272 208.286 182.969C211.079 186.666 216.096 192.285 219.437 195.457C222.778 198.628 228.709 203.347 232.618 205.942C236.526 208.537 243.124 212.15 247.281 213.971C251.437 215.792 257.294 217.883 260.295 218.619C263.297 219.354 268.365 220.4 271.556 220.943C275.18 221.559 281.959 221.762 289.609 221.483C298.904 221.144 303.824 220.524 310.008 218.913C314.491 217.745 321.439 215.254 325.449 213.375C329.458 211.497 335.993 207.803 339.97 205.166C343.947 202.529 350.054 197.526 353.543 194.046C357.031 190.567 361.884 184.888 364.326 181.426C366.768 177.965 370.207 172.285 371.969 168.804C373.73 165.323 376.369 158.62 377.834 153.908L380.497 145.339H387.257H394.017L393.447 148.906C393.133 150.867 391.743 155.872 390.357 160.026C388.971 164.18 386.448 170.411 384.75 173.873C383.052 177.335 379.41 183.545 376.655 187.673C373.901 191.8 368.014 198.809 363.574 203.247C359.134 207.685 351.997 213.658 347.714 216.521C343.432 219.384 336.841 223.192 333.069 224.983C329.295 226.774 322.619 229.373 318.232 230.758C313.845 232.143 307.421 233.766 303.958 234.364C300.494 234.963 291.993 235.437 285.065 235.416C276.491 235.391 270.192 234.912 265.333 233.913C261.408 233.107 254.876 231.35 250.819 230.01C246.761 228.67 240.337 226.014 236.545 224.108C232.751 222.203 227.381 219.122 224.61 217.26C221.839 215.399 218.438 212.959 217.053 211.84C215.667 210.72 212.119 207.479 209.167 204.637C206.216 201.796 201.821 197.015 199.401 194.015C196.981 191.015 193.407 185.944 191.46 182.747C189.514 179.548 186.43 173.548 184.608 169.41C182.787 165.274 180.405 158.448 179.314 154.244C178.224 150.038 177.516 146.299 177.741 145.934C177.966 145.57 180.987 145.381 184.455 145.515L190.76 145.759L193.598 154.151ZM220.039 147.018C220.392 147.71 222.166 151.487 223.982 155.41C225.798 159.334 229.238 164.998 231.627 167.999C234.016 170.999 238.492 175.625 241.573 178.278C244.665 180.941 250.585 184.789 254.785 186.868C258.97 188.939 265.383 191.395 269.036 192.325C273.895 193.561 278.412 194.015 285.863 194.015C292.223 194.015 297.927 193.536 301.053 192.739C303.805 192.038 308.135 190.653 310.675 189.664C313.215 188.673 317.822 186.385 320.912 184.578C324.003 182.771 329.023 179.01 332.069 176.222C335.114 173.433 339.27 168.82 341.303 165.973C343.336 163.124 346.296 158.091 347.881 154.785C349.466 151.48 350.965 148.003 351.211 147.057C351.618 145.505 352.315 145.339 358.457 145.339C364.667 145.339 365.253 145.482 365.253 146.998C365.253 147.912 364.291 151.216 363.114 154.342C361.937 157.468 359.64 162.454 358.009 165.422C356.378 168.39 353.406 172.922 351.405 175.493C349.405 178.064 345.372 182.465 342.446 185.274C339.519 188.081 335.065 191.817 332.548 193.575C330.031 195.333 324.93 198.228 321.213 200.008C317.495 201.788 310.675 204.256 306.057 205.492C298.885 207.411 295.947 207.742 285.905 207.765C276.508 207.786 272.659 207.419 266.72 205.935C262.634 204.913 256.29 202.76 252.623 201.148C248.956 199.536 243.205 196.363 239.843 194.095C236.48 191.827 231.607 188.033 229.012 185.663C226.418 183.294 222.429 178.822 220.147 175.726C217.866 172.63 214.841 168.02 213.426 165.481C212.011 162.942 209.671 157.903 208.226 154.282C206.78 150.662 205.808 147.152 206.065 146.484C206.428 145.537 207.958 145.322 212.964 145.514C217.65 145.693 219.57 146.1 220.039 147.018ZM252.97 150.308C255.094 153.04 258.913 156.848 261.46 158.769C264.015 160.697 268.777 163.171 272.089 164.291C276.636 165.829 279.878 166.32 285.477 166.32C290.474 166.32 294.612 165.781 298.262 164.654C301.23 163.738 305.983 161.427 308.825 159.52C311.668 157.612 315.266 154.491 316.822 152.584C318.377 150.677 320.1 148.267 320.65 147.228C321.566 145.499 322.244 145.339 328.708 145.339C332.589 145.339 335.966 145.662 336.21 146.058C336.454 146.453 335.641 148.743 334.401 151.147C333.162 153.55 330.169 157.916 327.75 160.848C325.33 163.779 320.916 167.915 317.939 170.038C314.962 172.16 309.791 175.025 306.447 176.404C303.102 177.782 298.057 179.284 295.235 179.742C292.412 180.2 287.836 180.57 285.065 180.566C282.295 180.562 277.431 180.008 274.257 179.336C271.084 178.665 265.228 176.546 261.242 174.629C255.267 171.754 252.748 169.874 246.861 163.894C242.657 159.625 238.769 154.752 237.401 152.041C236.124 149.509 235.085 146.966 235.092 146.388C235.102 145.634 237.073 145.339 242.108 145.339H249.11L252.97 150.308Z" fill="#02459C"/>
</svg>
