<svg width="19" height="19" viewBox="0 0 19 19" fill="none" xmlns="http://www.w3.org/2000/svg">
<path fill-rule="evenodd" clip-rule="evenodd" d="M9.5 18.5C14.4706 18.5 18.5 14.4706 18.5 9.5C18.5 4.52944 14.4706 0.5 9.5 0.5C4.52944 0.5 0.5 4.52944 0.5 9.5C0.5 14.4706 4.52944 18.5 9.5 18.5ZM9.09888 4.41252C9.13496 3.94433 8.9879 3.29013 8.67609 2.53196C8.64867 2.46524 8.70295 2.49277 9.0326 2.71273C9.81902 3.23751 10.4344 3.86899 11.0519 4.78491C11.6645 5.69362 11.9599 6.51329 12.0659 7.599L12.0855 7.80068L12.1715 7.71824C12.2811 7.61313 12.5203 7.2663 12.621 7.06657C12.7511 6.80824 12.7905 6.60532 12.8111 6.08711L12.8305 5.60131L13.1788 6.19016C13.5773 6.864 14.1348 7.97427 14.4206 8.66331C14.6421 9.19724 14.953 10.1093 15.0631 10.5476C15.3281 11.6028 15.3711 12.5302 15.195 13.394C14.8634 15.0212 13.7354 16.2296 11.9884 16.8291C11.6799 16.935 11.1093 17.0796 11.1093 17.0519C11.1093 17.0458 11.1656 17.0124 11.2343 16.9776C11.4421 16.8725 11.8137 16.4706 11.9528 16.2005C12.1915 15.7373 12.2959 15.2669 12.296 14.6548C12.296 13.8109 11.9681 12.8535 11.3049 11.7618L11.0946 11.4156L11.0767 11.7031C11.0573 12.0141 10.9985 12.1728 10.8192 12.3976C10.7771 12.4505 10.7523 12.4819 10.7354 12.4781C10.7109 12.4726 10.7031 12.3931 10.6836 12.1979C10.6611 11.973 10.5167 11.5414 10.385 11.3054C10.1459 10.8767 9.61501 10.2926 9.21004 10.0127L9.03254 9.88996L9.0446 10.2526C9.07149 11.0614 8.91744 11.6644 8.54051 12.2258C8.47529 12.323 8.16853 12.6608 7.85881 12.9766C7.22285 13.625 6.9742 13.9236 6.84554 14.1933C6.53543 14.8435 6.5893 15.5986 6.99495 16.2872C7.14612 16.5438 7.48226 16.8801 7.69543 16.9881C7.77182 17.0268 7.81793 17.0496 7.81535 17.059C7.8116 17.0727 7.70537 17.0583 7.44039 17.0238C5.63547 16.7885 4.32766 16.0595 3.78751 14.9874C3.51344 14.4435 3.42467 13.5967 3.56746 12.8883C3.69977 12.2319 3.99525 11.6864 4.69167 10.8126C5.05565 10.3559 5.20412 10.0909 5.2689 9.78212C5.34893 9.40057 5.30918 8.85339 5.17102 8.43513C5.14027 8.34201 5.12456 8.26584 5.13609 8.26584C5.14763 8.26584 5.27473 8.33977 5.41851 8.4301C6.30259 8.98553 6.60213 9.32129 6.8742 10.0618L6.95534 10.2826L6.93972 9.92933C6.905 9.14387 7.06788 8.19432 7.34766 7.55092C7.48209 7.24181 7.61905 7.0222 7.97599 6.54347C8.82241 5.40826 9.05637 4.96427 9.09888 4.41252Z" fill="#E13D0B"/>
</svg>
