<svg width="40" height="40" viewBox="0 0 40 40" fill="none" xmlns="http://www.w3.org/2000/svg">
<path fill-rule="evenodd" clip-rule="evenodd" d="M17.8063 0.0519577C14.405 0.492969 11.6507 1.48803 9.00573 3.23132C4.60032 6.13495 1.50013 10.6333 0.422528 15.6854C0.0633517 17.3693 0.00199236 17.9904 2.8881e-05 19.963C-0.00207484 22.017 0.110195 23.0436 0.519089 24.7085C2.37114 32.251 8.33464 38.0107 15.9384 39.6007C18.1041 40.0537 20.8933 40.1191 23.1358 39.7696C26.4126 39.259 29.664 37.8412 32.3571 35.7488C33.0817 35.1859 34.6514 33.6677 35.3016 32.9012C36.8678 31.0546 38.1718 28.7468 38.9587 26.4287C39.6862 24.2858 40.0011 22.3306 40 19.9634C39.9985 16.741 39.3693 14.0184 37.966 11.1624C35.0423 5.21149 29.6279 1.24807 22.9122 0.142699C22.1099 0.010655 18.6052 -0.0516858 17.8063 0.0519577ZM11.2497 13.6962V17.1064L11.8017 16.5791C12.7879 15.6368 13.9128 15.2185 15.2818 15.2847C16.8859 15.3623 18.2109 16.1617 18.7481 17.3759C19.1385 18.2587 19.1309 18.1477 19.1568 23.3114L19.1809 28.0974H17.5328H15.8847L15.8604 23.6971C15.8342 18.9789 15.8379 19.027 15.4628 18.5093C15.1335 18.0547 14.7205 17.8943 13.8794 17.8943C13.2693 17.8943 13.1272 17.9181 12.7864 18.078C12.0743 18.4119 11.6317 19.0149 11.4092 19.9538C11.3184 20.3374 11.2937 21.0906 11.2687 24.2581L11.2383 28.0974H9.59611H7.95387V19.1916V10.2858H9.60179H11.2497V13.6962ZM24.0824 13.658V17.0301L24.5558 16.5961C25.5022 15.7284 26.388 15.346 27.5886 15.287C29.787 15.179 31.3824 16.2881 31.8434 18.2449C31.9432 18.6681 31.9631 19.3811 31.9877 23.4166L32.0161 28.0974H30.3634H28.7106V24.151C28.7106 20.0597 28.6676 19.2363 28.4292 18.769C28.2472 18.4122 27.79 18.0348 27.4114 17.9288C27.2241 17.8763 26.8684 17.8542 26.5202 17.8732C25.3167 17.9389 24.5815 18.5738 24.2451 19.8381C24.144 20.218 24.1242 20.8155 24.1009 24.1879L24.0739 28.0974H22.4302H20.7866V19.1916V10.2858H22.4345H24.0824V13.658Z" fill="#D20A11"/>
</svg>
