<svg width="40" height="40" viewBox="0 0 40 40" fill="none" xmlns="http://www.w3.org/2000/svg">
<rect width="40" height="40" rx="20" fill="#127CBA"/>
<path fill-rule="evenodd" clip-rule="evenodd" d="M12.2634 9.06373C12.8985 9.22559 13.512 9.66398 13.8831 10.2211C14.2955 10.84 14.4114 11.7404 14.1698 12.4465C14.0078 12.92 13.8096 13.2304 13.4554 13.5654C12.95 14.0433 12.3288 14.2907 11.6341 14.2907C10.6092 14.2907 9.752 13.7581 9.29488 12.8374C8.89968 12.0414 8.90172 11.2476 9.30098 10.4356C9.61542 9.79616 10.1991 9.3065 10.8919 9.10091C11.292 8.98217 11.8806 8.96621 12.2634 9.06373ZM26.6508 15.9878C28.7948 16.2845 30.0654 17.3882 30.6329 19.4469C30.703 19.7009 30.7885 20.0747 30.8231 20.2775C30.9868 21.238 30.9946 21.507 30.9974 26.2637L31 30.9267L30.8918 30.9707C30.8211 30.9995 30.034 31.0073 28.6198 30.9931L26.4561 30.9714L26.4324 26.6982C26.4115 22.9143 26.4004 22.3817 26.3351 22.0472C26.0488 20.5787 25.3783 19.9754 24.0326 19.9754C22.677 19.9754 21.8701 20.6159 21.5142 21.9748L21.3963 22.425L21.3729 26.6635C21.3566 29.6232 21.3354 30.9162 21.3026 30.9491C21.2473 31.0045 16.8728 31.0128 16.8177 30.9575C16.799 30.9388 16.7886 27.635 16.7946 23.6157L16.8056 16.308H18.9694H21.1331L21.1448 17.295C21.1512 17.8378 21.1707 18.2817 21.1881 18.2814C21.2055 18.2811 21.2879 18.1688 21.3712 18.0319C21.5786 17.6911 22.28 16.9914 22.6639 16.7425C23.7536 16.0358 25.1237 15.7764 26.6508 15.9878ZM13.9171 23.6157C13.9231 27.635 13.9129 30.9386 13.8943 30.9572C13.8758 30.9758 12.86 30.9924 11.637 30.9943C9.85543 30.9969 9.40623 30.9863 9.37758 30.9411C9.35793 30.9101 9.34157 27.6234 9.34118 23.6375C9.34066 18.0284 9.35235 16.3786 9.39285 16.338C9.43271 16.298 9.97681 16.2882 11.6756 16.2968L13.9061 16.308L13.9171 23.6157Z" fill="white"/>
</svg>
