<svg width="109" height="25" viewBox="0 0 109 25" fill="none" xmlns="http://www.w3.org/2000/svg">
<g clip-path="url(#clip0_837_1063)">
<path d="M3.75651 28.2678V29.6312H3.13707V28.836H0.069122V25.2207H0.729958V28.2678H2.55295V25.2211H3.21949V28.2678H3.75651ZM7.79483 28.2731V28.836H5.08388V25.2207H7.72267V25.784H5.75535V26.7236H7.50049V27.2765H5.75497V28.2735H7.79483V28.2731ZM12.4685 25.2211V28.836H11.7971V27.2864H9.92736V28.836H9.25627V25.2207H9.92736V26.7133H11.7971V25.2207H12.4682L12.4685 25.2211ZM16.8187 25.7889H15.6204V28.836H14.9543V25.7889H13.7613V25.2211H16.8187V25.7889ZM19.5972 25.2211C19.9109 25.2211 20.1829 25.2724 20.4138 25.3757C20.6477 25.479 20.8266 25.6271 20.9504 25.82C21.0746 26.0126 21.1365 26.2416 21.1365 26.5067C21.1365 26.7688 21.0746 26.9974 20.9504 27.1937C20.8266 27.3867 20.6477 27.5344 20.4134 27.6381C20.1829 27.741 19.9109 27.7927 19.5976 27.7927H18.7814V28.836H18.1103V25.2207H19.5972V25.2211ZM19.5668 27.2245C19.8593 27.2245 20.0811 27.1626 20.2326 27.0384C20.3845 26.915 20.4601 26.7376 20.4601 26.5067C20.4601 26.2762 20.3841 26.0988 20.2326 25.975C20.0811 25.8508 19.8593 25.7889 19.5665 25.7889H18.7814V27.2245H19.5665H19.5668ZM28.2587 28.2678V29.6054H27.6389V28.836H24.8657V29.6054H24.2409L24.2462 28.2678H24.4008C24.6283 28.2575 24.7867 28.0904 24.8759 27.7668C24.969 27.4398 25.0259 26.9731 25.0468 26.3673L25.0879 25.2207H27.7373V28.2678H28.2587ZM25.6351 26.4296C25.618 26.8975 25.5801 27.2883 25.5216 27.6016C25.4631 27.9115 25.37 28.1333 25.2428 28.2678H27.0761V25.7889H25.661L25.6351 26.4292V26.4296ZM32.3149 28.2731V28.836H29.6032V25.2207H32.2427V25.784H30.275V26.7236H32.0206V27.2765H30.275V28.2735H32.3145L32.3149 28.2731ZM36.864 25.2211V28.836H36.2032V25.7889H34.7775L34.7463 26.6928C34.7292 27.1987 34.6878 27.6104 34.6225 27.9271C34.5572 28.2404 34.452 28.4797 34.3073 28.6449C34.163 28.8067 33.9632 28.8876 33.7083 28.8876C33.6187 28.8876 33.4968 28.8705 33.3419 28.836L33.3882 28.2522C33.433 28.2663 33.4846 28.2731 33.5431 28.2731C33.7532 28.2731 33.9013 28.1489 33.9875 27.9009C34.0767 27.6499 34.1318 27.2556 34.1523 26.7186L34.204 25.2207H36.8637L36.864 25.2211ZM40.267 28.8876C39.8986 28.8876 39.5666 28.8082 39.2704 28.6499C38.9817 28.4953 38.7406 28.265 38.5731 27.9837C38.4045 27.6981 38.3201 27.3798 38.3201 27.0285C38.3201 26.6772 38.4045 26.3605 38.5731 26.0783C38.7387 25.7954 38.9803 25.5647 39.2704 25.4121C39.5666 25.25 39.8986 25.1691 40.267 25.1691C40.6354 25.1691 40.9677 25.25 41.2639 25.4121C41.5528 25.5638 41.794 25.7925 41.9608 26.073C42.1298 26.3552 42.2141 26.6738 42.2141 27.0285C42.2141 27.3829 42.1298 27.7015 41.9608 27.9837C41.7933 28.2649 41.5524 28.4952 41.2639 28.6499C40.9677 28.8082 40.6354 28.8876 40.267 28.8876ZM40.267 28.2989C40.4941 28.3023 40.7183 28.2471 40.9179 28.1387C41.1105 28.0285 41.262 27.877 41.3721 27.6844C41.4833 27.4839 41.5403 27.2578 41.5374 27.0285C41.5374 26.7874 41.4823 26.5705 41.3721 26.3776C41.2668 26.1862 41.1092 26.0287 40.9179 25.9233C40.7193 25.8117 40.4947 25.7547 40.267 25.7581C40.0262 25.7581 39.8093 25.8132 39.6164 25.9233C39.4234 26.0297 39.2719 26.1816 39.1618 26.3776C39.0501 26.5761 38.9931 26.8008 38.9966 27.0285C38.9966 27.2693 39.0516 27.4881 39.1618 27.6844C39.2719 27.877 39.4234 28.0285 39.6164 28.1387C39.8159 28.2471 40.0399 28.3023 40.267 28.2989ZM46.0497 26.956C46.2802 27.0179 46.456 27.1246 46.5764 27.2762C46.6968 27.4243 46.7572 27.6104 46.7572 27.8341C46.7572 28.1508 46.6402 28.3969 46.4059 28.5728C46.1719 28.7482 45.8328 28.836 45.3888 28.836H43.6741V25.2207H45.2905C45.6968 25.2207 46.0136 25.3016 46.2407 25.4638C46.4682 25.6256 46.5817 25.8542 46.5817 26.1505C46.5817 26.34 46.535 26.5037 46.4424 26.6411C46.3527 26.779 46.2217 26.8838 46.0497 26.9564V26.956ZM44.3353 26.765H45.2339C45.4507 26.765 45.6159 26.722 45.7295 26.6358C45.843 26.55 45.9 26.4224 45.9 26.2538C45.9 26.0851 45.843 25.9575 45.7295 25.8717C45.6159 25.7821 45.4507 25.7372 45.2339 25.7372H44.3353V26.765ZM45.3679 28.3194C45.843 28.3194 46.0808 28.1406 46.0808 27.7824C46.0808 27.4311 45.843 27.2556 45.3679 27.2556H44.3353V28.3194H45.3679ZM49.9079 28.8876C49.5396 28.8876 49.2072 28.8082 48.9114 28.6499C48.6227 28.4953 48.3816 28.265 48.2141 27.9837C48.0455 27.6981 47.9611 27.3798 47.9611 27.0285C47.9611 26.6772 48.0455 26.3605 48.2141 26.0783C48.3797 25.7954 48.6213 25.5647 48.9114 25.4121C49.2072 25.25 49.5396 25.1691 49.9079 25.1691C50.2763 25.1691 50.6087 25.25 50.9045 25.4121C51.2008 25.5705 51.4332 25.7908 51.6018 26.073C51.7704 26.3552 51.8548 26.6738 51.8548 27.0285C51.8548 27.3829 51.7704 27.7015 51.6018 27.9837C51.4343 28.265 51.1932 28.4953 50.9045 28.6499C50.6087 28.8082 50.2763 28.8876 49.9079 28.8876ZM49.9079 28.2989C50.1491 28.2989 50.366 28.2458 50.5585 28.1387C50.7485 28.0314 50.9057 27.8743 51.0131 27.6844C51.1243 27.4839 51.1813 27.2578 51.1783 27.0285C51.1783 26.7874 51.1233 26.5705 51.0131 26.3776C50.9077 26.1861 50.75 26.0286 50.5585 25.9233C50.3601 25.8117 50.1356 25.7547 49.9079 25.7581C49.6668 25.7581 49.4499 25.8132 49.2574 25.9233C49.0644 26.0297 48.9129 26.1816 48.8028 26.3776C48.6911 26.5761 48.6341 26.8008 48.6375 27.0285C48.6375 27.2693 48.6926 27.4881 48.8028 27.6844C48.9129 27.877 49.0644 28.0285 49.2574 28.1387C49.4568 28.2472 49.6809 28.3024 49.9079 28.2989ZM53.3151 25.2211H53.9759V27.7877L55.9178 25.2211H56.5425V28.836H55.8817V26.2743L53.9398 28.836H53.3151V25.2207V25.2211ZM54.9212 24.978C54.6113 24.978 54.377 24.9146 54.2186 24.787C54.0636 24.6598 53.9846 24.4737 53.9812 24.2295H54.451C54.4544 24.3567 54.4958 24.4547 54.5752 24.5238C54.6542 24.5926 54.7697 24.6271 54.9212 24.6271C55.0693 24.6271 55.1844 24.5929 55.2672 24.5238C55.353 24.4551 55.3978 24.3567 55.4012 24.2295H55.8661C55.8627 24.4703 55.7799 24.6564 55.6181 24.787C55.4597 24.9146 55.2273 24.978 54.9212 24.978ZM60.4141 25.2211H61.0749V27.7877L63.0168 25.2211H63.6416V28.836H62.9807V26.2743L61.0389 28.836H60.4141V25.2207V25.2211ZM68.5804 25.2211V28.836H67.9089V27.2864H66.0392V28.836H65.3681V25.2207H66.0392V26.7133H67.9089V25.2207H68.5804V25.2211ZM74.4383 27.0232C74.4383 27.4983 74.2731 27.8739 73.9426 28.1489C73.6122 28.4246 73.142 28.5743 72.5329 28.5986V28.9807H71.913V28.5982C71.3035 28.5674 70.8322 28.4159 70.4979 28.144C70.1675 27.872 70.0023 27.4983 70.0023 27.0236C70.0023 26.5481 70.1675 26.1744 70.4979 25.9024C70.8322 25.6271 71.3035 25.474 71.913 25.4429V25.0764H72.5329V25.4429C73.142 25.474 73.6122 25.6271 73.9426 25.9024C74.2731 26.1744 74.4383 26.5481 74.4383 27.0232ZM72.5329 28.0714C72.9461 28.0407 73.2594 27.9374 73.4728 27.7619C73.6863 27.5826 73.793 27.335 73.793 27.0179C73.793 26.7012 73.6844 26.455 73.4675 26.2796C73.2541 26.1041 72.9426 26.0023 72.5329 25.975V28.0714ZM70.6582 27.0232C70.6582 27.3365 70.7649 27.5811 70.9784 27.7566C71.1952 27.9321 71.5067 28.0373 71.913 28.0718V25.975C71.0764 26.0369 70.6582 26.3863 70.6582 27.0232ZM77.5294 28.8876C77.161 28.8876 76.8287 28.8082 76.5328 28.6499C76.2441 28.4953 76.0031 28.265 75.8355 27.9837C75.6669 27.6981 75.5826 27.3798 75.5826 27.0285C75.5826 26.6772 75.6669 26.3605 75.8355 26.0783C76.0011 25.7954 76.2427 25.5647 76.5328 25.4121C76.8287 25.25 77.161 25.1691 77.5294 25.1691C77.8978 25.1691 78.2301 25.25 78.526 25.4121C78.8222 25.5705 79.0546 25.7908 79.2233 26.073C79.3919 26.3552 79.4762 26.6738 79.4762 27.0285C79.4762 27.3829 79.3919 27.7015 79.2233 27.9837C79.0557 28.265 78.8146 28.4953 78.526 28.6499C78.2301 28.8082 77.8978 28.8876 77.5294 28.8876ZM77.5294 28.2989C77.7702 28.2989 77.9874 28.2458 78.18 28.1387C78.37 28.0314 78.5272 27.8743 78.6346 27.6844C78.7458 27.4839 78.8027 27.2578 78.7998 27.0285C78.7998 26.7874 78.7447 26.5705 78.6346 26.3776C78.5292 26.1861 78.3715 26.0286 78.18 25.9233C77.9815 25.8117 77.757 25.7547 77.5294 25.7581C77.2882 25.7581 77.0714 25.8132 76.8788 25.9233C76.6859 26.0297 76.5343 26.1816 76.4242 26.3776C76.3125 26.5761 76.2555 26.8008 76.259 27.0285C76.259 27.2693 76.3141 27.4881 76.4242 27.6844C76.5343 27.877 76.6859 28.0285 76.8788 28.1387C77.0782 28.2472 77.3023 28.3024 77.5294 28.2989ZM82.4184 25.2211C82.7318 25.2211 83.0037 25.2724 83.2346 25.3757C83.4686 25.479 83.6478 25.6271 83.7716 25.82C83.8954 26.0126 83.9574 26.2416 83.9574 26.5067C83.9574 26.7688 83.8954 26.9974 83.7716 27.1937C83.6478 27.3867 83.4686 27.5344 83.2346 27.6381C83.0037 27.741 82.7318 27.7927 82.4184 27.7927H81.6026V28.836H80.9312V25.2207H82.4184V25.2211ZM82.3877 27.2245C82.6801 27.2245 82.9023 27.1626 83.0538 27.0384C83.2054 26.915 83.2809 26.7376 83.2809 26.5067C83.2809 26.2762 83.2054 26.0988 83.0538 25.975C82.9023 25.8508 82.6801 25.7889 82.3877 25.7889H81.6026V27.2245H82.3877ZM88.6261 28.836L88.6208 26.4395L87.4332 28.4227H87.1335L85.9456 26.4706V28.836H85.3105V25.2207H85.8631L87.2934 27.6119L88.7085 25.2207H89.2562L89.2664 28.836H88.6261ZM93.3868 27.9993H91.5794L91.2231 28.836H90.5312L92.1578 25.2207H92.819L94.451 28.836H93.7484L93.3868 27.9993ZM93.165 27.4725L92.4833 25.8926L91.8065 27.4725H93.165ZM99.4103 28.2678V29.6312H98.7905V28.836H95.7229V25.2207H96.3841V28.2678H98.2071V25.2211H98.8733V28.2678H99.4103ZM100.743 25.2211H101.404V27.7877L103.345 25.2211H103.97V28.836H103.309V26.2743L101.367 28.836H100.743V25.2207V25.2211ZM105.702 25.2211H106.363V27.7877L108.305 25.2211H108.929V28.836H108.269V26.2743L106.327 28.836H105.702V25.2207V25.2211ZM5.92854 16.2687H4.06946V21.8049H0V7.34473H4.06946V12.9634H6.03184L9.48186 7.34473H13.7784L9.25437 14.3268L13.8195 21.8049H9.21373L5.92854 16.2687Z" fill="#404040"/>
<path d="M24.7675 18.9956H18.6528L17.5173 21.8049H13.3438L19.7277 7.34473H23.7557L30.1594 21.8049H25.9038L24.7675 18.9956ZM23.5696 15.9793L21.7102 11.3523L19.8507 15.9793H23.5689H23.5696ZM45.3882 7.34473V21.8049H41.3393V10.5878H35.8445V21.8049H31.8164V7.34473H45.3882ZM48.4794 7.34473H52.5074V15.835L58.4773 7.34473H62.3197V21.8049H58.2916V13.3355L52.3422 21.8049H48.4794V7.34473ZM77.0753 10.5878H72.6549V21.8049H68.6265V10.5878H64.1852V7.34511H77.0753V10.5885V10.5878ZM88.2123 18.9956H82.0977L80.9614 21.8049H76.7886L83.1717 7.34473H87.1998L93.6038 21.8049H89.3483L88.2123 18.9956ZM87.0141 15.9793L85.155 11.3523L83.2959 15.9793H87.0141ZM108.911 7.34473V21.8049H104.883V10.5878H100.731L100.649 12.9428C100.58 15.0089 100.407 16.6887 100.132 17.9834C99.8704 19.2778 99.4162 20.2831 98.7686 20.999C98.1215 21.7016 97.2058 22.0525 96.0212 22.0525C95.4705 22.0525 94.8507 21.9701 94.1621 21.8049L94.3892 18.4582C94.5685 18.4999 94.7542 18.5205 94.9472 18.5205C95.4842 18.5205 95.8974 18.307 96.1864 17.8801C96.4758 17.4529 96.6824 16.8608 96.8062 16.1035C96.93 15.3325 97.0128 14.3336 97.0542 13.1081L97.2608 7.34473H108.911Z" fill="#404040"/>
<path d="M0.015625 0.767578H13.7755V4.01441H0.015625V0.767578Z" fill="#00B25D"/>
</g>
<defs>
<clipPath id="clip0_837_1063">
<rect width="109" height="23.547" fill="white" transform="translate(0 0.767578)"/>
</clipPath>
</defs>
</svg>
