<svg width="98" height="34" viewBox="0 0 98 34" fill="none" xmlns="http://www.w3.org/2000/svg">
<g clip-path="url(#clip0_837_1105)">
<path d="M41.1995 14.3967C41.1044 14.3967 41.0265 14.3664 40.9659 14.3058C40.9052 14.2452 40.875 14.1674 40.875 14.0722V5.63509C40.875 5.53991 40.9052 5.46203 40.9659 5.40145C41.0265 5.34086 41.1044 5.31059 41.1995 5.31059H44.4575C45.323 5.31059 46.0453 5.44905 46.6252 5.72595C47.2051 5.99422 47.6464 6.39225 47.9492 6.92012C48.2607 7.43933 48.4252 8.08402 48.4424 8.85416C48.4512 9.2349 48.4554 9.56807 48.4554 9.85363C48.4554 10.1392 48.4512 10.468 48.4424 10.8401C48.4165 11.6449 48.2565 12.3112 47.9622 12.8391C47.6678 13.3669 47.2353 13.7607 46.6641 14.0203C46.093 14.2712 45.3791 14.3967 44.5224 14.3967H41.1995ZM42.9388 12.7222H44.4575C44.8901 12.7222 45.2451 12.6573 45.5219 12.5275C45.7987 12.3977 46.0022 12.1944 46.132 11.9175C46.2705 11.6319 46.3439 11.2642 46.3526 10.8142C46.3614 10.5632 46.3656 10.3382 46.3656 10.1392C46.3744 9.94018 46.3744 9.74113 46.3656 9.54211C46.3656 9.34309 46.3614 9.12243 46.3526 8.88012C46.3354 8.23112 46.1667 7.75517 45.8464 7.45231C45.5349 7.14079 45.0504 6.98502 44.3926 6.98502H42.9388V12.7222ZM50.2463 14.3967C50.16 14.3967 50.0864 14.3664 50.0257 14.3058C49.9653 14.2452 49.9348 14.1674 49.9348 14.0722V7.97151C49.9348 7.87634 49.9653 7.79846 50.0257 7.73787C50.0864 7.67729 50.16 7.64701 50.2463 7.64701H51.5443C51.6398 7.64701 51.7176 7.67729 51.778 7.73787C51.8387 7.79846 51.8688 7.87634 51.8688 7.97151V14.0722C51.8688 14.1674 51.8387 14.2452 51.778 14.3058C51.7176 14.3664 51.6398 14.3967 51.5443 14.3967H50.2463ZM50.2074 6.6086C50.1211 6.6086 50.0474 6.57832 49.9867 6.51774C49.9264 6.45715 49.8959 6.37927 49.8959 6.2841V5.24569C49.8959 5.15051 49.9264 5.07263 49.9867 5.01204C50.0474 4.94283 50.1211 4.9082 50.2074 4.9082H51.5703C51.6657 4.9082 51.7436 4.94283 51.804 5.01204C51.8734 5.07263 51.9078 5.15051 51.9078 5.24569V6.2841C51.9078 6.37927 51.8734 6.45715 51.804 6.51774C51.7436 6.57832 51.6657 6.6086 51.5703 6.6086H50.2074ZM56.664 17.2523C56.0238 17.2523 55.4916 17.1658 55.0675 16.9927C54.6434 16.8283 54.3059 16.6249 54.055 16.3826C53.8126 16.149 53.6397 15.9154 53.5358 15.6817C53.432 15.4481 53.3758 15.2663 53.3671 15.1365C53.3583 15.0414 53.3888 14.9635 53.4579 14.9029C53.5271 14.8423 53.6049 14.812 53.6916 14.812H55.0805C55.1583 14.812 55.2232 14.8293 55.2752 14.864C55.3358 14.9072 55.3832 14.9765 55.4179 15.0716C55.4611 15.1755 55.5218 15.2836 55.5997 15.3962C55.6775 15.5173 55.7944 15.6168 55.9501 15.6947C56.1147 15.7726 56.3308 15.8115 56.5991 15.8115C56.9019 15.8115 57.1531 15.7683 57.352 15.6817C57.5509 15.5952 57.6982 15.4481 57.7933 15.2404C57.8971 15.0327 57.9491 14.7515 57.9491 14.3967V13.527C57.7414 13.752 57.4776 13.9381 57.1573 14.0852C56.8458 14.2323 56.4606 14.3058 56.002 14.3058C55.552 14.3058 55.1541 14.2366 54.8079 14.0981C54.4704 13.951 54.189 13.7477 53.9642 13.4881C53.7393 13.2198 53.566 12.8996 53.445 12.5275C53.3239 12.1554 53.2545 11.7358 53.2373 11.2685C53.2285 11.0348 53.2285 10.8055 53.2373 10.5805C53.2545 10.1305 53.3239 9.71952 53.445 9.34741C53.566 8.9753 53.7393 8.65515 53.9642 8.38688C54.189 8.10998 54.4704 7.89795 54.8079 7.75085C55.1541 7.59509 55.552 7.51721 56.002 7.51721C56.4781 7.51721 56.8847 7.60807 57.2222 7.78979C57.5597 7.97151 57.8365 8.19649 58.0529 8.46476V7.97151C58.0529 7.88497 58.0831 7.81144 58.1438 7.75085C58.2045 7.68164 58.2778 7.64701 58.3644 7.64701H59.6365C59.7231 7.64701 59.7965 7.68164 59.8571 7.75085C59.9263 7.81144 59.961 7.88497 59.961 7.97151L59.974 14.215C59.974 14.864 59.8484 15.4134 59.5975 15.8634C59.3467 16.3134 58.9745 16.6552 58.4813 16.8889C57.9968 17.1312 57.3909 17.2523 56.664 17.2523ZM56.5991 12.7871C56.9107 12.7871 57.1615 12.7179 57.352 12.5795C57.5509 12.4324 57.6982 12.2506 57.7933 12.0343C57.8884 11.8093 57.9403 11.5757 57.9491 11.3334C57.9578 11.2382 57.962 11.104 57.962 10.931C57.962 10.7493 57.9578 10.6108 57.9491 10.5156C57.9403 10.2733 57.8884 10.044 57.7933 9.82767C57.6982 9.6027 57.5509 9.42097 57.352 9.28251C57.1615 9.14404 56.9107 9.07483 56.5991 9.07483C56.2704 9.07483 56.0108 9.14839 55.8203 9.29549C55.6298 9.43395 55.4916 9.61999 55.405 9.85363C55.3183 10.0873 55.2664 10.3426 55.2492 10.6195C55.2404 10.8271 55.2404 11.0305 55.2492 11.2295C55.2664 11.5151 55.3183 11.7747 55.405 12.0083C55.4916 12.242 55.6298 12.4324 55.8203 12.5795C56.0108 12.7179 56.2704 12.7871 56.5991 12.7871ZM61.921 14.3967C61.8343 14.3967 61.761 14.3664 61.7003 14.3058C61.6396 14.2452 61.6095 14.1674 61.6095 14.0722V7.97151C61.6095 7.87634 61.6396 7.79846 61.7003 7.73787C61.761 7.67729 61.8343 7.64701 61.921 7.64701H63.219C63.3141 7.64701 63.392 7.67729 63.4526 7.73787C63.5133 7.79846 63.5435 7.87634 63.5435 7.97151V14.0722C63.5435 14.1674 63.5133 14.2452 63.4526 14.3058C63.392 14.3664 63.3141 14.3967 63.219 14.3967H61.921ZM61.882 6.6086C61.7954 6.6086 61.7221 6.57832 61.6614 6.51774C61.6007 6.45715 61.5705 6.37927 61.5705 6.2841V5.24569C61.5705 5.15051 61.6007 5.07263 61.6614 5.01204C61.7221 4.94283 61.7954 4.9082 61.882 4.9082H63.245C63.34 4.9082 63.4179 4.94283 63.4786 5.01204C63.5477 5.07263 63.5824 5.15051 63.5824 5.24569V6.2841C63.5824 6.37927 63.5477 6.45715 63.4786 6.51774C63.4179 6.57832 63.34 6.6086 63.245 6.6086H61.882ZM68.4166 14.3967C67.8798 14.3967 67.4213 14.3101 67.0407 14.1371C66.6597 13.9554 66.3699 13.6785 66.171 13.3063C65.9805 12.9342 65.8854 12.467 65.8854 11.9045V9.17867H64.873C64.7776 9.17867 64.6997 9.14839 64.6394 9.08781C64.5787 9.02722 64.5485 8.94934 64.5485 8.85416V7.97151C64.5485 7.87634 64.5787 7.79846 64.6394 7.73787C64.6997 7.67729 64.7776 7.64701 64.873 7.64701H65.8854V5.50529C65.8854 5.41011 65.9156 5.33223 65.976 5.27165C66.0454 5.21106 66.1233 5.18079 66.21 5.18079H67.482C67.5771 5.18079 67.655 5.21106 67.7156 5.27165C67.776 5.33223 67.8065 5.41011 67.8065 5.50529V7.64701H69.429C69.5153 7.64701 69.589 7.67729 69.6497 7.73787C69.71 7.79846 69.7405 7.87634 69.7405 7.97151V8.85416C69.7405 8.94934 69.71 9.02722 69.6497 9.08781C69.589 9.14839 69.5153 9.17867 69.429 9.17867H67.8065V11.7487C67.8065 12.0776 67.8626 12.3372 67.9753 12.5275C68.0963 12.7093 68.304 12.8001 68.5983 12.8001H69.5458C69.6322 12.8001 69.7058 12.8304 69.7665 12.891C69.8269 12.9516 69.8574 13.0251 69.8574 13.1116V14.0722C69.8574 14.1674 69.8269 14.2452 69.7665 14.3058C69.7058 14.3664 69.6322 14.3967 69.5458 14.3967H68.4166ZM72.9755 14.5265C72.517 14.5265 72.1059 14.4399 71.7424 14.2669C71.379 14.0852 71.0892 13.8429 70.8727 13.54C70.6566 13.2371 70.5482 12.8996 70.5482 12.5275C70.5482 11.9132 70.7949 11.4285 71.2881 11.0738C71.7901 10.719 72.4479 10.4767 73.2611 10.3469L74.9615 10.1003V9.86661C74.9615 9.52913 74.8836 9.26953 74.7278 9.08781C74.5721 8.90608 74.2995 8.81522 73.9101 8.81522C73.6245 8.81522 73.3954 8.87146 73.2221 8.98396C73.0492 9.09647 72.9152 9.24357 72.8198 9.42529C72.7506 9.5378 72.651 9.59403 72.5212 9.59403H71.2881C71.193 9.59403 71.1194 9.56807 71.0674 9.51615C71.0155 9.45557 70.9941 9.38635 71.0025 9.30847C71.0025 9.16137 71.059 8.98828 71.1713 8.78926C71.2839 8.59024 71.4568 8.39554 71.6905 8.20516C71.9241 8.00614 72.2227 7.84171 72.5861 7.71191C72.9496 7.58211 73.3954 7.51721 73.9231 7.51721C74.4682 7.51721 74.9355 7.58211 75.3249 7.71191C75.7143 7.84171 76.0258 8.02344 76.2595 8.25708C76.4931 8.49072 76.6664 8.7633 76.7787 9.07483C76.8913 9.37769 76.9474 9.70654 76.9474 10.0613V14.0722C76.9474 14.1674 76.9173 14.2452 76.8566 14.3058C76.7962 14.3664 76.7183 14.3967 76.6229 14.3967H75.3509C75.2646 14.3967 75.1909 14.3664 75.1302 14.3058C75.0699 14.2452 75.0394 14.1674 75.0394 14.0722V13.5919C74.9271 13.7563 74.7755 13.9121 74.5851 14.0592C74.3949 14.1977 74.1655 14.3101 73.8971 14.3967C73.6375 14.4832 73.3305 14.5265 72.9755 14.5265ZM73.4947 13.1765C73.7803 13.1765 74.0357 13.116 74.2606 12.9948C74.4858 12.8737 74.6629 12.6876 74.7927 12.4367C74.9225 12.1857 74.9874 11.8699 74.9874 11.4891V11.2685L73.7803 11.4632C73.313 11.5411 72.9713 11.6579 72.7549 11.8136C72.5387 11.9694 72.4304 12.1598 72.4304 12.3848C72.4304 12.5492 72.4781 12.692 72.5731 12.8131C72.677 12.9342 72.8113 13.0251 72.9755 13.0857C73.14 13.1463 73.313 13.1765 73.4947 13.1765ZM78.8435 14.3967C78.7484 14.3967 78.6706 14.3664 78.6099 14.3058C78.5495 14.2452 78.519 14.1674 78.519 14.0722V5.50529C78.519 5.41011 78.5495 5.33223 78.6099 5.27165C78.6706 5.21106 78.7484 5.18079 78.8435 5.18079H80.1415C80.2282 5.18079 80.3018 5.21106 80.3622 5.27165C80.4229 5.33223 80.453 5.41011 80.453 5.50529V14.0722C80.453 14.1674 80.4229 14.2452 80.3622 14.3058C80.3018 14.3664 80.2282 14.3967 80.1415 14.3967H78.8435Z" fill="#111111"/>
<path d="M41.1995 28.3498C41.1044 28.3498 41.0265 28.3195 40.9659 28.2589C40.9052 28.1984 40.875 28.1205 40.875 28.0253V19.5882C40.875 19.493 40.9052 19.4152 40.9659 19.3546C41.0265 19.294 41.1044 19.2637 41.1995 19.2637H45.0546C45.7727 19.2637 46.3614 19.3676 46.8199 19.5752C47.2784 19.7829 47.6159 20.0771 47.8323 20.4579C48.0572 20.8386 48.1698 21.2843 48.1698 21.7948C48.1698 22.115 48.1092 22.3962 47.9881 22.6385C47.8755 22.8809 47.7327 23.0799 47.5598 23.2356C47.3952 23.3914 47.2353 23.5082 47.0795 23.5861C47.417 23.7419 47.7113 24.0015 47.9622 24.3649C48.2218 24.7197 48.3516 25.1437 48.3516 25.637C48.3516 26.1821 48.2305 26.6581 47.9881 27.0648C47.7457 27.4715 47.3868 27.7873 46.9108 28.0123C46.4347 28.2373 45.8552 28.3498 45.1714 28.3498H41.1995ZM42.9388 26.8311H44.9248C45.3489 26.8311 45.6689 26.7143 45.8853 26.4807C46.1018 26.2384 46.2098 25.9528 46.2098 25.624C46.2098 25.2865 46.0972 25.0052 45.8724 24.7803C45.6559 24.5466 45.3402 24.4298 44.9248 24.4298H42.9388V26.8311ZM42.9388 22.9371H44.808C45.2146 22.9371 45.5177 22.8376 45.7166 22.6385C45.9243 22.4309 46.0281 22.1669 46.0281 21.8468C46.0281 21.5266 45.9243 21.2713 45.7166 21.0809C45.5177 20.8819 45.2146 20.7824 44.808 20.7824H42.9388V22.9371ZM52.2368 28.4796C51.7348 28.4796 51.2893 28.3671 50.8999 28.1421C50.5189 27.9085 50.2204 27.5753 50.0043 27.1427C49.7966 26.7013 49.6927 26.1691 49.6927 25.5461V21.9246C49.6927 21.8295 49.7229 21.7516 49.7836 21.691C49.8439 21.6304 49.9176 21.6001 50.0043 21.6001H51.3801C51.4752 21.6001 51.5531 21.6304 51.6138 21.691C51.6741 21.7516 51.7046 21.8295 51.7046 21.9246V25.4682C51.7046 26.4374 52.1285 26.922 52.9767 26.922C53.3833 26.922 53.7036 26.7965 53.9372 26.5456C54.1793 26.286 54.3007 25.9268 54.3007 25.4682V21.9246C54.3007 21.8295 54.3309 21.7516 54.3915 21.691C54.4519 21.6304 54.5298 21.6001 54.6252 21.6001H56.0011C56.0874 21.6001 56.1611 21.6304 56.2217 21.691C56.2821 21.7516 56.3126 21.8295 56.3126 21.9246V28.0253C56.3126 28.1205 56.2821 28.1984 56.2217 28.2589C56.1611 28.3195 56.0874 28.3498 56.0011 28.3498H54.729C54.6336 28.3498 54.5557 28.3195 54.4954 28.2589C54.4347 28.1984 54.4045 28.1205 54.4045 28.0253V27.5191C54.1793 27.8306 53.8895 28.0686 53.5349 28.233C53.1798 28.3974 52.7473 28.4796 52.2368 28.4796ZM60.6071 28.4796C60.0707 28.4796 59.6076 28.419 59.2182 28.2979C58.8376 28.1681 58.526 28.0123 58.2836 27.8306C58.05 27.6489 57.8725 27.4672 57.7514 27.2854C57.6388 27.095 57.5785 26.935 57.5697 26.8052C57.561 26.71 57.5915 26.6321 57.6606 26.5715C57.7297 26.5109 57.7991 26.4807 57.8683 26.4807H59.1273C59.1533 26.4807 59.1793 26.485 59.2052 26.4936C59.2312 26.5023 59.2571 26.5239 59.2831 26.5585C59.3957 26.6364 59.5125 26.7273 59.6336 26.8311C59.7546 26.9263 59.8932 27.0085 60.0489 27.0778C60.2134 27.147 60.4166 27.1816 60.659 27.1816C60.9446 27.1816 61.187 27.1254 61.3859 27.0129C61.5848 26.8917 61.6844 26.723 61.6844 26.5066C61.6844 26.3509 61.6367 26.2211 61.5416 26.1172C61.455 26.0134 61.2863 25.9182 61.0354 25.8317C60.7846 25.7451 60.4124 25.6499 59.9191 25.5461C59.4518 25.4423 59.0537 25.3038 58.725 25.1307C58.3962 24.9577 58.1496 24.7413 57.9851 24.4817C57.8206 24.2135 57.7385 23.8933 57.7385 23.5212C57.7385 23.1837 57.8423 22.8592 58.05 22.5477C58.2664 22.2362 58.5822 21.9809 58.9975 21.7819C59.4129 21.5742 59.9321 21.4703 60.5552 21.4703C61.0312 21.4703 61.4466 21.5309 61.8012 21.6521C62.1647 21.7646 62.4674 21.9117 62.7099 22.0934C62.9523 22.2664 63.134 22.4482 63.255 22.6385C63.3848 22.8203 63.4539 22.9803 63.4627 23.1188C63.4715 23.2054 63.4455 23.2789 63.3848 23.3395C63.3241 23.4001 63.255 23.4303 63.1771 23.4303H62.0219C61.9787 23.4303 61.9398 23.426 61.9051 23.4174C61.8704 23.4001 61.8402 23.3784 61.8142 23.3525C61.7104 23.2832 61.6023 23.2054 61.4897 23.1188C61.3859 23.0236 61.2603 22.9414 61.1133 22.8722C60.9663 22.803 60.7758 22.7683 60.5422 22.7683C60.2566 22.7683 60.0359 22.8333 59.8802 22.9631C59.7332 23.0842 59.6595 23.2399 59.6595 23.4303C59.6595 23.5515 59.6985 23.664 59.7763 23.7678C59.8542 23.8717 60.0142 23.9668 60.2566 24.0534C60.499 24.1399 60.8667 24.2308 61.3599 24.326C61.9482 24.4298 62.4155 24.5856 62.7618 24.7933C63.108 25.0009 63.3546 25.2432 63.5016 25.5201C63.6574 25.7884 63.7353 26.0783 63.7353 26.3898C63.7353 26.7965 63.6142 27.1599 63.3718 27.4801C63.1294 27.7917 62.7748 28.0383 62.3075 28.22C61.8489 28.3931 61.282 28.4796 60.6071 28.4796ZM65.2929 28.3498C65.2063 28.3498 65.1326 28.3195 65.0722 28.2589C65.0116 28.1984 64.9814 28.1205 64.9814 28.0253V21.9246C64.9814 21.8295 65.0116 21.7516 65.0722 21.691C65.1326 21.6304 65.2063 21.6001 65.2929 21.6001H66.5909C66.686 21.6001 66.7639 21.6304 66.8246 21.691C66.8849 21.7516 66.9154 21.8295 66.9154 21.9246V28.0253C66.9154 28.1205 66.8849 28.1984 66.8246 28.2589C66.7639 28.3195 66.686 28.3498 66.5909 28.3498H65.2929ZM65.254 20.5617C65.1673 20.5617 65.0937 20.5315 65.0333 20.4709C64.9726 20.4103 64.9424 20.3324 64.9424 20.2372V19.1988C64.9424 19.1036 64.9726 19.0258 65.0333 18.9652C65.0937 18.896 65.1673 18.8613 65.254 18.8613H66.6169C66.712 18.8613 66.7898 18.896 66.8505 18.9652C66.9196 19.0258 66.9544 19.1036 66.9544 19.1988V20.2372C66.9544 20.3324 66.9196 20.4103 66.8505 20.4709C66.7898 20.5315 66.712 20.5617 66.6169 20.5617H65.254ZM69.1843 28.3498C69.0977 28.3498 69.024 28.3195 68.9637 28.2589C68.903 28.1984 68.8728 28.1205 68.8728 28.0253V21.9246C68.8728 21.8295 68.903 21.7516 68.9637 21.691C69.024 21.6304 69.0977 21.6001 69.1843 21.6001H70.4564C70.5515 21.6001 70.6294 21.6304 70.69 21.691C70.7504 21.7516 70.7809 21.8295 70.7809 21.9246V22.4309C71.0058 22.154 71.2956 21.9246 71.6506 21.7429C72.0052 21.5612 72.4378 21.4703 72.9486 21.4703C73.459 21.4703 73.9046 21.5872 74.2855 21.8208C74.6749 22.0458 74.9777 22.3789 75.1941 22.8203C75.419 23.2529 75.5316 23.7808 75.5316 24.4038V28.0253C75.5316 28.1205 75.4969 28.1984 75.4278 28.2589C75.3671 28.3195 75.2934 28.3498 75.2071 28.3498H73.8312C73.7358 28.3498 73.6579 28.3195 73.5976 28.2589C73.5369 28.1984 73.5067 28.1205 73.5067 28.0253V24.4817C73.5067 24.0231 73.3941 23.6683 73.1692 23.4174C72.9528 23.1578 72.6325 23.028 72.2087 23.028C71.8018 23.028 71.4773 23.1578 71.2352 23.4174C70.9928 23.6683 70.8718 24.0231 70.8718 24.4817V28.0253C70.8718 28.1205 70.8413 28.1984 70.7809 28.2589C70.7202 28.3195 70.6466 28.3498 70.5602 28.3498H69.1843ZM80.098 28.4796C79.1031 28.4796 78.3113 28.2027 77.7227 27.6489C77.1431 27.095 76.8358 26.2903 76.8011 25.2346C76.8011 25.1654 76.8011 25.0745 76.8011 24.962C76.8011 24.8409 76.8011 24.7456 76.8011 24.6764C76.8358 24.0101 76.9874 23.439 77.2554 22.9631C77.5238 22.4785 77.9002 22.1107 78.3847 21.8597C78.8695 21.6001 79.4361 21.4703 80.0851 21.4703C80.8119 21.4703 81.4178 21.6218 81.9023 21.9246C82.3955 22.2189 82.7635 22.6256 83.0056 23.1448C83.2568 23.6553 83.382 24.2438 83.382 24.9101V25.2086C83.382 25.2952 83.3476 25.3687 83.2782 25.4293C83.2178 25.4899 83.1441 25.5201 83.0575 25.5201H78.813C78.813 25.5288 78.813 25.5461 78.813 25.5721C78.813 25.5894 78.813 25.6067 78.813 25.624C78.8218 25.9009 78.8737 26.1562 78.9688 26.3898C79.0726 26.6148 79.2154 26.7965 79.3971 26.935C79.5876 27.0734 79.8125 27.1427 80.0721 27.1427C80.2885 27.1427 80.466 27.1124 80.6043 27.0518C80.7428 26.9912 80.8554 26.9177 80.9417 26.8311C81.0372 26.7446 81.1063 26.6711 81.1494 26.6105C81.2273 26.5239 81.288 26.472 81.3312 26.4547C81.3831 26.4287 81.461 26.4158 81.5648 26.4158H82.9147C83.0014 26.4158 83.0705 26.4417 83.1224 26.4936C83.1831 26.5369 83.2091 26.6018 83.2003 26.6883C83.1919 26.8268 83.1182 26.9999 82.9796 27.2076C82.8498 27.4066 82.6551 27.6056 82.3955 27.8046C82.1359 27.995 81.8114 28.1551 81.422 28.2849C81.0414 28.4147 80.6 28.4796 80.098 28.4796ZM78.813 24.3389H81.3571V24.313C81.3571 24.0015 81.3052 23.7332 81.2014 23.5082C81.1063 23.2746 80.9635 23.0929 80.773 22.9631C80.5828 22.8333 80.3534 22.7683 80.0851 22.7683C79.817 22.7683 79.5876 22.8333 79.3971 22.9631C79.207 23.0929 79.0596 23.2746 78.9558 23.5082C78.8607 23.7332 78.813 24.0015 78.813 24.313V24.3389ZM87.3406 28.4796C86.8039 28.4796 86.3412 28.419 85.9518 28.2979C85.5708 28.1681 85.2593 28.0123 85.0172 27.8306C84.7835 27.6489 84.606 27.4672 84.485 27.2854C84.3724 27.095 84.3117 26.935 84.3033 26.8052C84.2945 26.71 84.3247 26.6321 84.3941 26.5715C84.4633 26.5109 84.5324 26.4807 84.6018 26.4807H85.8609C85.8869 26.4807 85.9128 26.485 85.9388 26.4936C85.9647 26.5023 85.9907 26.5239 86.0167 26.5585C86.1289 26.6364 86.2458 26.7273 86.3671 26.8311C86.4882 26.9263 86.6267 27.0085 86.7825 27.0778C86.9467 27.147 87.1501 27.1816 87.3926 27.1816C87.6781 27.1816 87.9202 27.1254 88.1194 27.0129C88.3184 26.8917 88.418 26.723 88.418 26.5066C88.418 26.3509 88.3703 26.2211 88.2752 26.1172C88.1886 26.0134 88.0198 25.9182 87.769 25.8317C87.5178 25.7451 87.1459 25.6499 86.6527 25.5461C86.1854 25.4423 85.7872 25.3038 85.4585 25.1307C85.1295 24.9577 84.8828 24.7413 84.7186 24.4817C84.5541 24.2135 84.472 23.8933 84.472 23.5212C84.472 23.1837 84.5759 22.8592 84.7835 22.5477C84.9997 22.2362 85.3157 21.9809 85.7311 21.7819C86.1465 21.5742 86.6657 21.4703 87.2887 21.4703C87.7644 21.4703 88.1798 21.5309 88.5348 21.6521C88.8982 21.7646 89.201 21.9117 89.4434 22.0934C89.6855 22.2664 89.8672 22.4482 89.9886 22.6385C90.1184 22.8203 90.1875 22.9803 90.1963 23.1188C90.2047 23.2054 90.1787 23.2789 90.1184 23.3395C90.0577 23.4001 89.9886 23.4303 89.9107 23.4303H88.7555C88.712 23.4303 88.673 23.426 88.6386 23.4174C88.6039 23.4001 88.5737 23.3784 88.5478 23.3525C88.4439 23.2832 88.3356 23.2054 88.2233 23.1188C88.1194 23.0236 87.9939 22.9414 87.8469 22.8722C87.6995 22.803 87.5094 22.7683 87.2757 22.7683C86.9902 22.7683 86.7695 22.8333 86.6137 22.9631C86.4664 23.0842 86.3931 23.2399 86.3931 23.4303C86.3931 23.5515 86.432 23.664 86.5099 23.7678C86.5878 23.8717 86.7478 23.9668 86.9902 24.0534C87.2323 24.1399 87.6002 24.2308 88.0935 24.326C88.6818 24.4298 89.1491 24.5856 89.4953 24.7933C89.8413 25.0009 90.0879 25.2432 90.2352 25.5201C90.391 25.7884 90.4688 26.0783 90.4688 26.3898C90.4688 26.7965 90.3475 27.1599 90.1054 27.4801C89.863 27.7917 89.5083 28.0383 89.041 28.22C88.5822 28.3931 88.0156 28.4796 87.3406 28.4796ZM94.3755 28.4796C93.8391 28.4796 93.3761 28.419 92.9867 28.2979C92.606 28.1681 92.2945 28.0123 92.0521 27.8306C91.8185 27.6489 91.6413 27.4672 91.5199 27.2854C91.4076 27.095 91.3469 26.935 91.3382 26.8052C91.3297 26.71 91.3599 26.6321 91.429 26.5715C91.4985 26.5109 91.5676 26.4807 91.6367 26.4807H92.8958C92.9218 26.4807 92.9477 26.485 92.9737 26.4936C92.9996 26.5023 93.0256 26.5239 93.0516 26.5585C93.1642 26.6364 93.281 26.7273 93.402 26.8311C93.5234 26.9263 93.6616 27.0085 93.8174 27.0778C93.9819 27.147 94.1854 27.1816 94.4275 27.1816C94.713 27.1816 94.9554 27.1254 95.1543 27.0129C95.3536 26.8917 95.4529 26.723 95.4529 26.5066C95.4529 26.3509 95.4055 26.2211 95.3101 26.1172C95.2238 26.0134 95.055 25.9182 94.8039 25.8317C94.553 25.7451 94.1808 25.6499 93.6876 25.5461C93.2203 25.4423 92.8225 25.3038 92.4934 25.1307C92.1647 24.9577 91.9181 24.7413 91.7535 24.4817C91.5894 24.2135 91.5069 23.8933 91.5069 23.5212C91.5069 23.1837 91.6108 22.8592 91.8185 22.5477C92.0349 22.2362 92.3506 21.9809 92.766 21.7819C93.1814 21.5742 93.7006 21.4703 94.3236 21.4703C94.7997 21.4703 95.215 21.5309 95.5697 21.6521C95.9332 21.7646 96.2362 21.9117 96.4783 22.0934C96.7207 22.2664 96.9025 22.4482 97.0235 22.6385C97.1533 22.8203 97.2227 22.9803 97.2312 23.1188C97.2399 23.2054 97.214 23.2789 97.1533 23.3395C97.0929 23.4001 97.0235 23.4303 96.9456 23.4303H95.7904C95.7472 23.4303 95.7083 23.426 95.6736 23.4174C95.6392 23.4001 95.6087 23.3784 95.5827 23.3525C95.4789 23.2832 95.3708 23.2054 95.2582 23.1188C95.1544 23.0236 95.0291 22.9414 94.8818 22.8722C94.7348 22.803 94.5443 22.7683 94.3106 22.7683C94.0251 22.7683 93.8044 22.8333 93.6486 22.9631C93.5016 23.0842 93.428 23.2399 93.428 23.4303C93.428 23.5515 93.4669 23.664 93.5448 23.7678C93.6227 23.8717 93.783 23.9668 94.0251 24.0534C94.2675 24.1399 94.6351 24.2308 95.1284 24.326C95.717 24.4298 96.1843 24.5856 96.5302 24.7933C96.8765 25.0009 97.1231 25.2432 97.2701 25.5201C97.4259 25.7884 97.5037 26.0783 97.5037 26.3898C97.5037 26.7965 97.3827 27.1599 97.1403 27.4801C96.8982 27.7917 96.5432 28.0383 96.0759 28.22C95.6174 28.3931 95.0505 28.4796 94.3755 28.4796Z" fill="#111111"/>
<path d="M32.4503 16.9927C32.4503 21.4756 30.6271 25.5235 27.6999 28.4674C24.7559 31.3947 20.708 33.2179 16.2252 33.2179H11.8761C11.4078 33.2179 11.0398 32.8499 11.0398 32.3816V28.5344C11.0398 28.066 11.4078 27.698 11.8761 27.698H16.2252C19.1858 27.698 21.8621 26.4937 23.8025 24.5701C25.7261 22.6297 26.9304 19.9534 26.9304 16.9927C26.9304 11.0881 22.1298 6.28748 16.2252 6.28748H6.35624C5.88789 6.28748 5.5199 6.65546 5.5199 7.12382V21.3418C5.5199 21.8101 5.15191 22.1781 4.68356 22.1781H0.836349C0.367993 22.1781 0 21.8101 0 21.3418V1.60393C0 1.13557 0.367993 0.767578 0.836349 0.767578H16.2252C25.1908 0.767578 32.4503 8.02707 32.4503 16.9927Z" fill="#0035F2"/>
<path d="M11.0394 23.0141V26.8613C11.0394 27.3296 10.6714 27.6976 10.2031 27.6976H6.35587C5.88752 27.6976 5.51953 27.3296 5.51953 26.8613V23.0141C5.51953 22.5457 5.88752 22.1777 6.35587 22.1777H10.2031C10.6714 22.1777 11.0394 22.5457 11.0394 23.0141Z" fill="#0035F2"/>
</g>
<defs>
<clipPath id="clip0_837_1105">
<rect width="98" height="32.4503" fill="white" transform="translate(0 0.767578)"/>
</clipPath>
</defs>
</svg>
