<svg width="39" height="39" viewBox="0 0 39 39" fill="none" xmlns="http://www.w3.org/2000/svg">
<g clip-path="url(#clip0_1486_977)">
<path d="M33.3638 0.0625H5.43656C4.04779 0.0625 2.7159 0.614187 1.73389 1.5962C0.751882 2.5782 0.200195 3.91009 0.200195 5.29886L0.200195 33.2261C0.200195 34.6149 0.751882 35.9468 1.73389 36.9288C2.7159 37.9108 4.04779 38.4625 5.43656 38.4625H33.3638C34.7526 38.4625 36.0845 37.9108 37.0665 36.9288C38.0485 35.9468 38.6002 34.6149 38.6002 33.2261V5.29886C38.6002 3.91009 38.0485 2.5782 37.0665 1.5962C36.0845 0.614187 34.7526 0.0625 33.3638 0.0625V0.0625ZM13.2911 30.4509C13.2914 30.5573 13.2707 30.6628 13.2301 30.7613C13.1896 30.8598 13.13 30.9493 13.0548 31.0246C12.9796 31.1 12.8903 31.1599 12.7919 31.2007C12.6936 31.2415 12.5881 31.2625 12.4817 31.2625H9.0322C8.92553 31.2628 8.81986 31.242 8.72126 31.2013C8.62265 31.1606 8.53306 31.1008 8.45764 31.0254C8.38222 30.95 8.32244 30.8604 8.28176 30.7618C8.24107 30.6632 8.22027 30.5575 8.22056 30.4509V15.9898C8.22056 15.7745 8.30607 15.5681 8.45828 15.4159C8.61049 15.2636 8.81694 15.1781 9.0322 15.1781H12.4817C12.6965 15.1787 12.9024 15.2645 13.0542 15.4166C13.2059 15.5688 13.2911 15.7749 13.2911 15.9898V30.4509ZM10.7558 13.808C10.1085 13.808 9.4758 13.616 8.9376 13.2564C8.39941 12.8968 7.97993 12.3857 7.73223 11.7876C7.48452 11.1896 7.41971 10.5316 7.54599 9.89675C7.67227 9.2619 7.98397 8.67876 8.44166 8.22106C8.89936 7.76336 9.48251 7.45166 10.1174 7.32538C10.7522 7.19911 11.4102 7.26392 12.0083 7.51162C12.6063 7.75933 13.1174 8.1788 13.477 8.717C13.8366 9.2552 14.0286 9.88794 14.0286 10.5352C14.0286 11.4032 13.6838 12.2356 13.07 12.8494C12.4562 13.4632 11.6238 13.808 10.7558 13.808ZM31.3217 30.5076C31.3219 30.6057 31.3028 30.7028 31.2654 30.7935C31.228 30.8841 31.1731 30.9665 31.1037 31.0359C31.0344 31.1052 30.952 31.1602 30.8614 31.1976C30.7707 31.235 30.6735 31.2541 30.5755 31.2538H26.8664C26.7683 31.2541 26.6711 31.235 26.5805 31.1976C26.4898 31.1602 26.4075 31.1052 26.3381 31.0359C26.2688 30.9665 26.2138 30.8841 26.1764 30.7935C26.139 30.7028 26.1199 30.6057 26.1202 30.5076V23.733C26.1202 22.7207 26.4169 19.2996 23.4737 19.2996C21.1937 19.2996 20.7289 21.6407 20.6373 22.6923V30.5163C20.6373 30.7123 20.5602 30.9005 20.4226 31.0401C20.285 31.1798 20.098 31.2596 19.902 31.2625H16.3195C16.2216 31.2625 16.1247 31.2432 16.0342 31.2057C15.9438 31.1681 15.8617 31.1131 15.7926 31.0438C15.7235 30.9745 15.6687 30.8922 15.6315 30.8017C15.5942 30.7112 15.5752 30.6142 15.5755 30.5163V15.9265C15.5752 15.8286 15.5942 15.7316 15.6315 15.6411C15.6687 15.5506 15.7235 15.4683 15.7926 15.399C15.8617 15.3297 15.9438 15.2747 16.0342 15.2372C16.1247 15.1996 16.2216 15.1803 16.3195 15.1803H19.902C20.0999 15.1803 20.2897 15.2589 20.4296 15.3989C20.5696 15.5388 20.6482 15.7286 20.6482 15.9265V17.1876C21.4947 15.9156 22.7493 14.9381 25.4264 14.9381C31.3566 14.9381 31.3173 20.4756 31.3173 23.517L31.3217 30.5076Z" fill="white"/>
</g>
<defs>
<clipPath id="clip0_1486_977">
<rect width="38.4" height="38.4" fill="white" transform="translate(0.200195 0.0625)"/>
</clipPath>
</defs>
</svg>
