<svg width="40" height="39" viewBox="0 0 40 39" fill="none" xmlns="http://www.w3.org/2000/svg">
<path fill-rule="evenodd" clip-rule="evenodd" d="M9.93958 0.139037C8.68179 0.283286 7.20899 0.770565 6.08295 1.41507C3.1723 3.08086 1.25175 5.99419 0.882874 9.30282C0.772115 10.2967 0.772115 28.2168 0.882874 29.2106C1.42055 34.0334 5.22762 37.8416 10.0489 38.3794C11.0425 38.4902 28.9572 38.4902 29.9507 38.3794C34.772 37.8416 38.5791 34.0334 39.1167 29.2106C39.2275 28.2168 39.2275 10.2967 39.1167 9.30282C38.5791 4.48007 34.772 0.671849 29.9507 0.134012C29.0682 0.0355957 10.8017 0.0401714 9.93958 0.139037ZM31.6232 5.17115C32.7485 5.50878 33.6073 6.49602 33.7986 7.67198C34.0246 9.06053 33.178 10.5068 31.8421 11.0146C30.7005 11.4485 29.3436 11.1378 28.5163 10.253C26.7844 8.40095 27.8622 5.40601 30.3859 5.05803C30.6833 5.017 31.296 5.07304 31.6232 5.17115ZM30.5358 7.31012C30.2951 7.36503 29.979 7.71091 29.9298 7.97323C29.8279 8.51677 30.3616 9.05056 30.9049 8.94861C31.267 8.88065 31.5687 8.52817 31.5687 8.17306C31.5687 8.01366 31.5291 7.80933 31.4808 7.71902C31.3251 7.42804 30.8743 7.23294 30.5358 7.31012ZM21.3789 8.86663C23.6987 9.17545 25.7052 10.1747 27.3934 11.8617C31.5203 15.9858 31.5203 22.5244 27.3934 26.6525C23.2663 30.7808 16.7333 30.7808 12.6062 26.6525C8.47931 22.5244 8.47931 15.9858 12.6062 11.8617C14.9662 9.50333 18.1068 8.4311 21.3789 8.86663ZM18.7549 11.1146C17.0098 11.3858 15.4464 12.1824 14.1871 13.4422C10.9597 16.6706 10.9597 21.8428 14.1871 25.0712C14.519 25.4033 15.0775 25.866 15.4281 26.0992C18.7187 28.2894 23.0211 27.8635 25.8125 25.0712C29.0399 21.8428 29.0399 16.6706 25.8125 13.4422C23.9451 11.5742 21.3357 10.7136 18.7549 11.1146Z" fill="white"/>
</svg>
