<svg width="39" height="32" viewBox="0 0 39 32" fill="none" xmlns="http://www.w3.org/2000/svg">
<path d="M38.7999 4.35571C37.3719 4.98211 35.8503 5.39731 34.2639 5.59891C35.8959 4.62451 37.1415 3.09331 37.7271 1.24771C36.2055 2.15491 34.5255 2.79571 32.7351 3.15331C31.2903 1.61491 29.2311 0.662109 26.9847 0.662109C22.6263 0.662109 19.1175 4.19971 19.1175 8.53651C19.1175 9.16051 19.1703 9.76051 19.2999 10.3317C12.7551 10.0125 6.9639 6.87571 3.0735 2.09731C2.3943 3.27571 1.9959 4.62451 1.9959 6.07651C1.9959 8.80291 3.3999 11.2197 5.4927 12.6189C4.2279 12.5949 2.9871 12.2277 1.9359 11.6493C1.9359 11.6733 1.9359 11.7045 1.9359 11.7357C1.9359 15.5613 4.6647 18.7389 8.2431 19.4709C7.6023 19.6461 6.9039 19.7301 6.1791 19.7301C5.6751 19.7301 5.1663 19.7013 4.6887 19.5957C5.7087 22.7133 8.6031 25.0053 12.0447 25.0797C9.3663 27.1749 5.9655 28.4373 2.2839 28.4373C1.6383 28.4373 1.0191 28.4085 0.399902 28.3293C3.8871 30.5781 8.0199 31.8621 12.4767 31.8621C26.9631 31.8621 34.8831 19.8621 34.8831 9.46051C34.8831 9.11251 34.8711 8.77651 34.8543 8.44291C36.4167 7.33411 37.7295 5.94931 38.7999 4.35571Z" fill="white"/>
</svg>
