<svg width="1473" height="868" viewBox="0 0 1473 868" fill="none" xmlns="http://www.w3.org/2000/svg">
<g filter="url(#filter0_ddddii_1664_1606)">
<rect x="15" y="15" width="1440" height="835" rx="35" fill="white"/>
</g>
<path d="M634.381 107.2H643.469V152H634.701V122.944L622.093 143.744H621.069L608.461 123.008V152H599.629V107.2H608.717L621.581 128.384L634.381 107.2ZM682.536 139.392H658.408C659.475 143.403 662.483 145.408 667.432 145.408C670.59 145.408 672.979 144.341 674.6 142.208L681.256 146.048C678.099 150.613 673.448 152.896 667.304 152.896C662.014 152.896 657.768 151.296 654.568 148.096C651.368 144.896 649.768 140.864 649.768 136C649.768 131.221 651.347 127.211 654.504 123.968C657.619 120.725 661.672 119.104 666.664 119.104C671.4 119.104 675.262 120.725 678.248 123.968C681.32 127.211 682.856 131.221 682.856 136C682.856 136.896 682.75 138.027 682.536 139.392ZM658.28 132.992H674.6C674.131 130.901 673.171 129.301 671.72 128.192C670.312 127.083 668.627 126.528 666.664 126.528C664.446 126.528 662.611 127.104 661.16 128.256C659.71 129.365 658.75 130.944 658.28 132.992ZM712.626 123.776V107.2H720.882V152H712.626V148.224C710.194 151.339 706.738 152.896 702.258 152.896C697.948 152.896 694.258 151.275 691.186 148.032C688.156 144.747 686.642 140.736 686.642 136C686.642 131.307 688.156 127.317 691.186 124.032C694.258 120.747 697.948 119.104 702.258 119.104C706.738 119.104 710.194 120.661 712.626 123.776ZM697.394 142.528C699.143 144.192 701.276 145.024 703.794 145.024C706.354 145.024 708.466 144.192 710.13 142.528C711.794 140.821 712.626 138.645 712.626 136C712.626 133.355 711.794 131.2 710.13 129.536C708.466 127.829 706.354 126.976 703.794 126.976C701.234 126.976 699.1 127.829 697.394 129.536C695.73 131.2 694.898 133.355 694.898 136C694.898 138.645 695.73 140.821 697.394 142.528ZM728.816 107.2H746.608C752.752 107.2 757.872 109.355 761.968 113.664C766.107 117.931 768.176 123.243 768.176 129.6C768.176 135.957 766.107 141.269 761.968 145.536C757.872 149.845 752.752 152 746.608 152H728.816V107.2ZM737.648 143.552H746.608C750.491 143.552 753.648 142.272 756.08 139.712C758.512 137.067 759.728 133.696 759.728 129.6C759.728 125.461 758.512 122.112 756.08 119.552C753.648 116.949 750.491 115.648 746.608 115.648H737.648V143.552ZM798.377 123.776V120H806.633V152H798.377V148.224C795.903 151.339 792.425 152.896 787.945 152.896C783.679 152.896 780.009 151.275 776.937 148.032C773.908 144.747 772.393 140.736 772.393 136C772.393 131.307 773.908 127.317 776.937 124.032C780.009 120.747 783.679 119.104 787.945 119.104C792.425 119.104 795.903 120.661 798.377 123.776ZM783.145 142.528C784.809 144.192 786.921 145.024 789.481 145.024C792.041 145.024 794.153 144.192 795.817 142.528C797.524 140.821 798.377 138.645 798.377 136C798.377 133.355 797.524 131.2 795.817 129.536C794.153 127.829 792.041 126.976 789.481 126.976C786.921 126.976 784.809 127.829 783.145 129.536C781.481 131.2 780.649 133.355 780.649 136C780.649 138.645 781.481 140.821 783.145 142.528ZM832.424 120V127.936H825.192V141.248C825.192 142.357 825.469 143.168 826.024 143.68C826.578 144.192 827.389 144.491 828.456 144.576C829.522 144.619 830.845 144.597 832.424 144.512V152C826.834 152.64 822.845 152.128 820.456 150.464C818.109 148.757 816.936 145.685 816.936 141.248V127.936H811.368V120H816.936V113.536L825.192 111.04V120H832.424ZM861.565 123.776V120H869.821V152H861.565V148.224C859.09 151.339 855.613 152.896 851.133 152.896C846.866 152.896 843.197 151.275 840.125 148.032C837.095 144.747 835.581 140.736 835.581 136C835.581 131.307 837.095 127.317 840.125 124.032C843.197 120.747 846.866 119.104 851.133 119.104C855.613 119.104 859.09 120.661 861.565 123.776ZM846.333 142.528C847.997 144.192 850.109 145.024 852.669 145.024C855.229 145.024 857.341 144.192 859.005 142.528C860.711 140.821 861.565 138.645 861.565 136C861.565 133.355 860.711 131.2 859.005 129.536C857.341 127.829 855.229 126.976 852.669 126.976C850.109 126.976 847.997 127.829 846.333 129.536C844.669 131.2 843.837 133.355 843.837 136C843.837 138.645 844.669 140.821 846.333 142.528Z" fill="#239FFB"/>
<path d="M879.855 662.098C878.351 666.9 876.605 671.048 874.616 674.541C872.627 678.033 870.565 680.701 868.431 682.545C866.296 684.388 864.259 685.31 862.318 685.31C857.856 685.31 855.624 680.726 855.624 671.557C855.624 665.93 856.303 660.351 857.662 654.821C859.02 649.243 860.524 644.464 862.173 640.487C862.658 639.225 863.289 638.231 864.065 637.503C864.841 636.727 865.932 636.339 867.339 636.339C868.649 636.339 869.692 636.679 870.468 637.358C871.244 637.988 871.632 638.959 871.632 640.268L871.56 641.141C871.56 641.239 871.269 642.039 870.686 643.543C869.231 647.472 867.921 651.232 866.757 654.821C865.641 658.411 864.938 661.831 864.647 665.081C864.501 666.73 864.429 668.356 864.429 669.956C864.429 671.557 864.598 672.867 864.938 673.886C865.278 674.856 865.763 675.341 866.393 675.341C867.8 675.341 869.498 673.328 871.487 669.301C873.524 665.227 875.465 660.376 877.308 654.749C879.151 649.073 880.51 644.101 881.383 639.832C881.577 638.91 882.135 638.134 883.056 637.503C883.978 636.873 884.779 636.557 885.458 636.557C886.67 636.557 887.544 636.873 888.077 637.503C888.659 638.085 888.95 639.007 888.95 640.268L888.878 641.287C888.878 641.481 888.829 641.748 888.732 642.087C888.635 642.427 888.538 642.864 888.441 643.397C886.113 654.457 884.706 662.704 884.221 668.137C884.172 668.525 884.148 669.107 884.148 669.884C884.148 671.533 884.366 672.867 884.803 673.886C885.288 674.856 885.894 675.341 886.622 675.341C888.999 675.341 891.4 671.654 893.826 664.281C896.251 656.859 898.41 648.636 900.302 639.613C900.496 638.74 900.908 638.11 901.539 637.722C902.218 637.285 903.018 637.067 903.94 637.067C905.104 637.067 906.293 637.309 907.505 637.794C908.718 638.279 909.325 638.813 909.325 639.395L908.16 644.489C906.365 652.444 904.546 659.236 902.703 664.863C900.908 670.49 898.531 675.317 895.572 679.343C892.661 683.321 889.12 685.31 884.948 685.31C880.873 685.31 878.836 681.575 878.836 674.104C878.836 670.66 879.273 666.658 880.146 662.098H879.855ZM920.275 685.528C915.521 685.528 912.052 684.582 909.869 682.69C907.686 680.798 906.595 678.276 906.595 675.123C906.595 670.514 907.735 666.245 910.015 662.316C912.343 658.387 915.424 655.282 919.256 653.002C923.137 650.674 927.308 649.509 931.771 649.509C934.488 649.509 936.768 650.286 938.611 651.838C940.455 653.342 941.376 655.573 941.376 658.532C941.376 660.23 940.818 661.637 939.703 662.753C938.636 663.82 937.083 664.79 935.046 665.663C933.008 666.488 929.71 667.676 925.15 669.229C921.026 670.587 917.679 671.727 915.108 672.649C914.914 673.376 914.817 674.128 914.817 674.904C914.817 676.263 915.375 677.306 916.491 678.033C917.655 678.761 919.28 679.125 921.366 679.125C922.676 679.125 924.18 678.858 925.877 678.324C927.575 677.791 928.642 677.112 929.079 676.287C930.728 673.279 932.232 671.776 933.59 671.776C935.579 671.776 936.913 672.164 937.593 672.94C938.32 673.667 938.708 674.492 938.757 675.414C938.175 676.966 937.035 678.543 935.337 680.143C933.639 681.696 931.48 682.981 928.861 684C926.241 685.019 923.379 685.528 920.275 685.528ZM917.146 665.954C921.948 664.402 925.902 662.971 929.006 661.661C932.111 660.303 933.663 658.969 933.663 657.659C933.663 657.077 933.348 656.616 932.717 656.277C932.087 655.889 931.408 655.694 930.68 655.694C929.225 655.694 927.551 656.252 925.659 657.368C923.816 658.484 922.094 659.842 920.493 661.443C918.892 663.044 917.776 664.548 917.146 665.954ZM959.034 644.416C953.553 667.458 950.327 680.629 949.357 683.927C949.26 684.218 948.75 684.582 947.829 685.019C946.955 685.504 946.349 685.746 946.009 685.746C944.651 685.746 943.341 685.407 942.08 684.728C940.819 684.049 940.14 682.957 940.043 681.453C940.091 681.356 940.334 680.847 940.77 679.925C941.207 679.003 941.644 677.694 942.08 675.996C943.196 671.824 944.457 666.876 945.864 661.152C947.319 655.428 948.289 651.595 948.774 649.655L952.194 635.757C952.146 635.369 952.122 633.356 952.122 629.717C952.267 629.087 952.801 628.577 953.722 628.189C954.693 627.801 955.566 627.607 956.342 627.607C957.555 627.607 958.792 628.02 960.053 628.844C961.363 629.669 962.042 630.663 962.09 631.828L959.034 644.416ZM976.218 647.181C971.173 668.428 968.238 680.435 967.414 683.2C967.317 683.491 966.807 683.854 965.886 684.291C965.012 684.776 964.406 685.019 964.066 685.019C962.805 685.019 961.665 684.703 960.647 684.073C959.628 683.491 959.07 682.448 958.973 680.944C959.021 680.701 959.143 680.022 959.337 678.906C959.531 677.791 959.798 676.578 960.137 675.268C961.981 668.331 964.115 659.842 966.54 649.801L970.033 635.757C969.985 635.466 969.96 635.054 969.96 634.52C969.96 632.628 970.494 631.003 971.561 629.645C972.677 628.286 973.938 627.607 975.345 627.607C976.267 627.607 977.14 627.971 977.965 628.699C978.789 629.378 979.444 630.421 979.929 631.828L976.218 647.181Z" fill="#00A3FF"/>
<path d="M764.479 683.831C761.157 683.831 758.069 683.256 755.215 682.106C752.404 680.914 749.933 679.274 747.804 677.187C745.674 675.1 744.034 672.672 742.884 669.903C741.734 667.092 741.159 664.046 741.159 660.767C741.159 657.529 741.755 654.527 742.948 651.758C744.141 648.989 745.781 646.561 747.868 644.474C749.997 642.387 752.489 640.769 755.343 639.619C758.239 638.469 761.349 637.894 764.671 637.894C766.971 637.894 769.207 638.213 771.38 638.852C773.552 639.491 775.511 640.385 777.258 641.535C779.046 642.685 780.516 643.985 781.666 645.433L776.427 650.863C774.638 649.16 772.764 647.861 770.805 646.966C768.845 646.072 766.779 645.624 764.607 645.624C762.477 645.624 760.497 646.008 758.665 646.774C756.876 647.541 755.279 648.606 753.873 649.969C752.51 651.332 751.446 652.929 750.679 654.761C749.955 656.592 749.593 658.594 749.593 660.767C749.593 662.896 749.976 664.898 750.743 666.772C751.552 668.604 752.659 670.222 754.065 671.628C755.513 673.034 757.153 674.141 758.985 674.95C760.859 675.717 762.839 676.1 764.927 676.1C766.503 676.1 767.972 675.888 769.335 675.462C770.698 674.993 771.912 674.354 772.977 673.545C774.042 672.693 774.851 671.713 775.405 670.606C776.001 669.498 776.299 668.327 776.299 667.092V665.686L777.449 666.964H764.224V659.553H784.477C784.562 660.021 784.626 660.554 784.669 661.15C784.712 661.704 784.733 662.236 784.733 662.747C784.775 663.258 784.797 663.706 784.797 664.089C784.797 667.028 784.264 669.711 783.199 672.139C782.177 674.524 780.75 676.59 778.919 678.337C777.087 680.083 774.936 681.446 772.466 682.426C770.038 683.363 767.376 683.831 764.479 683.831ZM807.892 683.831C804.357 683.831 801.226 683.107 798.5 681.659C795.817 680.168 793.708 678.145 792.175 675.589C790.684 672.991 789.939 670.01 789.939 666.645C789.939 664.004 790.365 661.597 791.217 659.425C792.069 657.253 793.261 655.378 794.795 653.802C796.328 652.184 798.138 650.949 800.225 650.097C802.355 649.202 804.655 648.755 807.126 648.755C809.383 648.755 811.449 649.181 813.323 650.033C815.24 650.885 816.901 652.056 818.307 653.547C819.712 654.995 820.777 656.741 821.501 658.786C822.268 660.788 822.63 662.982 822.587 665.367L822.523 668.178H795.306L793.772 662.747H815.943L814.984 663.833V662.364C814.856 661.086 814.431 659.957 813.706 658.978C812.982 657.955 812.045 657.167 810.895 656.614C809.788 656.017 808.553 655.719 807.19 655.719C805.102 655.719 803.335 656.124 801.887 656.933C800.438 657.7 799.331 658.85 798.564 660.383C797.84 661.917 797.478 663.812 797.478 666.07C797.478 668.242 797.925 670.137 798.82 671.756C799.757 673.374 801.077 674.631 802.781 675.525C804.485 676.42 806.465 676.867 808.723 676.867C810.299 676.867 811.747 676.612 813.067 676.1C814.431 675.589 815.879 674.674 817.412 673.353L821.246 678.72C820.096 679.785 818.775 680.701 817.284 681.467C815.836 682.191 814.303 682.766 812.684 683.192C811.066 683.618 809.468 683.831 807.892 683.831ZM833.253 683.192V640.96H841.048V683.192H833.253ZM826.608 656.805V649.522H848.395V656.805H826.608Z" fill="black"/>
<path d="M1241.7 633.278L1241.05 634.941L1224.64 680.706H1211.4L1199.4 647.015L1187.47 680.706H1174.24L1157.69 634.941L1156.88 633.119C1156.88 633.119 1165.84 631.16 1168.08 636.198C1170.32 641.237 1180.89 668.632 1180.89 668.632L1193.47 633.278H1205.33L1217.91 668.56C1217.91 668.56 1229.1 639.748 1230.78 636.198C1232.46 632.649 1241.7 633.278 1241.7 633.278Z" fill="#2F2F2F"/>
<path d="M1283.36 665.668H1251.11C1251.45 667.934 1252.56 669.669 1254.44 670.874C1256.32 672.079 1258.85 672.681 1262.03 672.681C1264.92 672.681 1267.28 672.296 1269.11 671.524C1270.95 670.753 1272.01 669.693 1272.3 668.343H1283.29C1282.75 672.585 1280.63 675.862 1276.92 678.176C1273.26 680.441 1268.3 681.574 1262.03 681.574C1257.59 681.574 1253.74 680.851 1250.46 679.405C1247.18 677.911 1244.68 675.79 1242.94 673.043C1241.21 670.295 1240.34 667.066 1240.34 663.355V661.981C1240.34 658.221 1241.21 654.968 1242.94 652.221C1244.73 649.425 1247.23 647.304 1250.46 645.858C1253.74 644.364 1257.59 643.617 1262.03 643.617C1268.78 643.617 1274.01 645.232 1277.72 648.461C1281.48 651.642 1283.36 656.125 1283.36 661.909V665.668ZM1261.96 652.365C1259.16 652.365 1256.85 652.871 1255.02 653.883C1253.18 654.896 1251.98 656.318 1251.4 658.149H1272.3C1271.72 656.318 1270.54 654.896 1268.75 653.883C1266.97 652.871 1264.7 652.365 1261.96 652.365Z" fill="#2F2F2F"/>
<path d="M1303.38 680.706C1299.52 680.706 1296.53 679.79 1294.41 677.959C1292.29 676.079 1291.23 673.476 1291.23 670.151V630.386H1301.64V668.271C1301.64 669.379 1301.93 670.199 1302.51 670.729C1303.09 671.259 1304.03 671.524 1305.33 671.524H1308.44V680.706H1303.38Z" fill="#2F2F2F"/>
<path d="M1326.46 680.706C1322.61 680.706 1319.62 679.79 1317.5 677.959C1315.38 676.079 1314.32 673.476 1314.32 670.151V630.386H1324.73V668.271C1324.73 669.379 1325.02 670.199 1325.6 670.729C1326.18 671.259 1327.12 671.524 1328.42 671.524H1331.53V680.706H1326.46Z" fill="#2F2F2F"/>
<path d="M1347.82 644.485V680.706H1337.41V644.485H1347.82ZM1342.61 640.291C1340.68 640.291 1339.12 639.737 1337.91 638.628C1336.71 637.472 1336.1 635.977 1336.1 634.146C1336.1 632.314 1336.71 630.844 1337.91 629.736C1339.12 628.579 1340.68 628 1342.61 628C1344.59 628 1346.15 628.579 1347.31 629.736C1348.52 630.844 1349.12 632.314 1349.12 634.146C1349.12 635.977 1348.52 637.472 1347.31 638.628C1346.11 639.737 1344.54 640.291 1342.61 640.291Z" fill="url(#paint0_linear_1664_1606)"/>
<path d="M1374.94 653.739V667.476C1374.94 668.777 1375.3 669.789 1376.02 670.512C1376.79 671.187 1377.88 671.524 1379.28 671.524H1387.81V680.706H1377.9C1373.76 680.706 1370.48 679.598 1368.07 677.381C1365.66 675.115 1364.46 672.055 1364.46 668.199V653.739H1352.38V644.485H1362.07C1363.08 644.485 1363.78 644.292 1364.17 643.906C1364.55 643.521 1364.74 642.822 1364.74 641.81V634.869H1374.94V644.485H1389.98V653.739H1374.94Z" fill="url(#paint1_linear_1664_1606)"/>
<path d="M1064 635.393V635.393C1073.86 631.31 1085.16 635.992 1089.24 645.85L1103.69 680.74V680.74C1093.83 684.822 1082.53 680.14 1078.45 670.282L1064 635.393Z" fill="url(#paint2_linear_1664_1606)"/>
<path d="M1092.54 635.393V635.393C1102.4 631.31 1113.7 635.992 1117.78 645.85L1132.23 680.74V680.74C1122.37 684.822 1111.07 680.14 1106.99 670.282L1092.54 635.393Z" fill="url(#paint3_linear_1664_1606)"/>
<path d="M1092.54 635.393V635.393C1102.4 631.31 1113.7 635.992 1117.78 645.85L1132.23 680.74V680.74C1122.37 684.822 1111.07 680.14 1106.99 670.282L1092.54 635.393Z" fill="url(#paint4_linear_1664_1606)"/>
<path d="M1121.08 635.393V635.393C1130.94 631.31 1142.24 635.992 1146.32 645.85L1160.77 680.74V680.74C1150.92 684.822 1139.61 680.14 1135.53 670.282L1121.08 635.393Z" fill="url(#paint5_linear_1664_1606)"/>
<path d="M1121.08 635.393V635.393C1130.94 631.31 1142.24 635.992 1146.32 645.85L1160.77 680.74V680.74C1150.92 684.822 1139.61 680.14 1135.53 670.282L1121.08 635.393Z" fill="url(#paint6_linear_1664_1606)"/>
<path d="M311.942 672.752C306.514 667.325 306.514 658.525 311.942 653.098L340.969 624.071C346.396 618.643 355.196 618.643 360.623 624.071L368.485 631.932C373.912 637.359 373.912 646.159 368.485 651.586L339.457 680.614C334.03 686.041 325.231 686.041 319.803 680.614L311.942 672.752Z" fill="url(#paint7_linear_1664_1606)"/>
<path d="M431.983 672.752C437.41 667.325 437.41 658.525 431.983 653.098L402.955 624.07C397.528 618.643 388.728 618.643 383.301 624.07L375.439 631.932C370.012 637.359 370.012 646.159 375.439 651.586L404.467 680.614C409.894 686.041 418.694 686.041 424.121 680.614L431.983 672.752Z" fill="url(#paint8_linear_1664_1606)"/>
<mask id="mask0_1664_1606" style="mask-type:alpha" maskUnits="userSpaceOnUse" x="307" y="620" width="130" height="65">
<path d="M311.942 672.752C306.514 667.325 306.514 658.525 311.942 653.098L340.969 624.071C346.396 618.643 355.196 618.643 360.623 624.071L368.485 631.932C373.912 637.359 373.912 646.159 368.485 651.586L339.457 680.614C334.03 686.041 325.231 686.041 319.803 680.614L311.942 672.752Z" fill="url(#paint9_linear_1664_1606)"/>
<path d="M431.983 672.752C437.41 667.325 437.41 658.525 431.983 653.098L402.955 624.07C397.528 618.643 388.728 618.643 383.301 624.07L375.439 631.932C370.012 637.359 370.012 646.159 375.439 651.586L404.467 680.614C409.894 686.041 418.694 686.041 424.121 680.614L431.983 672.752Z" fill="url(#paint10_linear_1664_1606)"/>
</mask>
<g mask="url(#mask0_1664_1606)">
<g filter="url(#filter1_f_1664_1606)">
<path d="M345.875 620.861L370.834 645.82L345.875 670.779L320.916 645.82L345.875 620.861Z" fill="black" fill-opacity="0.22"/>
<path d="M398.096 620.861L423.056 645.82L398.097 670.779L373.137 645.82L398.096 620.861Z" fill="black" fill-opacity="0.22"/>
</g>
</g>
<path d="M381.738 680.618C381.739 680.616 381.741 680.615 381.742 680.614L389.604 672.752C389.612 672.744 389.62 672.736 389.628 672.728L410.77 651.586C416.188 646.168 424.967 646.159 430.397 651.559L402.908 624.07C397.481 618.643 388.682 618.643 383.254 624.07L371.915 635.409L360.576 624.071C355.149 618.643 346.35 618.643 340.922 624.071L313.434 651.559C318.863 646.159 327.642 646.168 333.061 651.586L354.17 672.695C354.189 672.714 354.207 672.733 354.226 672.752L362.088 680.614C362.766 681.292 363.498 681.886 364.269 682.395C369.661 685.955 376.989 685.363 381.738 680.618Z" fill="url(#paint11_linear_1664_1606)"/>
<path d="M310.339 705.495H314.382V725.423H310.482V712.499L304.873 721.751H304.418L298.81 712.527V725.423H294.881V705.495H298.924L304.646 714.918L310.339 705.495ZM331.76 719.815H321.027C321.502 721.599 322.84 722.491 325.041 722.491C326.446 722.491 327.509 722.017 328.23 721.068L331.191 722.776C329.786 724.807 327.717 725.822 324.984 725.822C322.631 725.822 320.743 725.11 319.319 723.687C317.896 722.263 317.184 720.47 317.184 718.306C317.184 716.181 317.886 714.397 319.291 712.954C320.676 711.512 322.479 710.791 324.7 710.791C326.806 710.791 328.524 711.512 329.853 712.954C331.219 714.397 331.902 716.181 331.902 718.306C331.902 718.705 331.855 719.208 331.76 719.815ZM320.97 716.968H328.23C328.021 716.038 327.594 715.327 326.949 714.833C326.322 714.34 325.573 714.093 324.7 714.093C323.713 714.093 322.897 714.349 322.251 714.862C321.606 715.355 321.179 716.057 320.97 716.968ZM345.144 712.869V705.495H348.817V725.423H345.144V723.744C344.063 725.129 342.525 725.822 340.532 725.822C338.616 725.822 336.974 725.101 335.607 723.658C334.26 722.197 333.586 720.413 333.586 718.306C333.586 716.219 334.26 714.444 335.607 712.983C336.974 711.521 338.616 710.791 340.532 710.791C342.525 710.791 344.063 711.483 345.144 712.869ZM338.369 721.21C339.147 721.95 340.096 722.32 341.216 722.32C342.354 722.32 343.294 721.95 344.034 721.21C344.774 720.451 345.144 719.483 345.144 718.306C345.144 717.13 344.774 716.171 344.034 715.431C343.294 714.672 342.354 714.292 341.216 714.292C340.077 714.292 339.128 714.672 338.369 715.431C337.629 716.171 337.259 717.13 337.259 718.306C337.259 719.483 337.629 720.451 338.369 721.21ZM352.346 705.495H360.26C362.993 705.495 365.271 706.454 367.093 708.371C368.934 710.269 369.854 712.632 369.854 715.459C369.854 718.287 368.934 720.65 367.093 722.548C365.271 724.465 362.993 725.423 360.26 725.423H352.346V705.495ZM356.275 721.666H360.26C361.988 721.666 363.392 721.096 364.474 719.957C365.556 718.781 366.096 717.281 366.096 715.459C366.096 713.618 365.556 712.129 364.474 710.99C363.392 709.832 361.988 709.253 360.26 709.253H356.275V721.666ZM383.288 712.869V711.189H386.961V725.423H383.288V723.744C382.188 725.129 380.641 725.822 378.648 725.822C376.75 725.822 375.118 725.101 373.751 723.658C372.404 722.197 371.73 720.413 371.73 718.306C371.73 716.219 372.404 714.444 373.751 712.983C375.118 711.521 376.75 710.791 378.648 710.791C380.641 710.791 382.188 711.483 383.288 712.869ZM376.513 721.21C377.253 721.95 378.192 722.32 379.331 722.32C380.47 722.32 381.409 721.95 382.15 721.21C382.909 720.451 383.288 719.483 383.288 718.306C383.288 717.13 382.909 716.171 382.15 715.431C381.409 714.672 380.47 714.292 379.331 714.292C378.192 714.292 377.253 714.672 376.513 715.431C375.773 716.171 375.403 717.13 375.403 718.306C375.403 719.483 375.773 720.451 376.513 721.21ZM398.433 711.189V714.719H395.216V720.641C395.216 721.134 395.339 721.495 395.586 721.722C395.833 721.95 396.193 722.083 396.668 722.121C397.142 722.14 397.731 722.13 398.433 722.093V725.423C395.947 725.708 394.172 725.48 393.109 724.74C392.065 723.981 391.543 722.614 391.543 720.641V714.719H389.067V711.189H391.543V708.314L395.216 707.204V711.189H398.433ZM411.395 712.869V711.189H415.068V725.423H411.395V723.744C410.295 725.129 408.748 725.822 406.755 725.822C404.857 725.822 403.225 725.101 401.858 723.658C400.511 722.197 399.837 720.413 399.837 718.306C399.837 716.219 400.511 714.444 401.858 712.983C403.225 711.521 404.857 710.791 406.755 710.791C408.748 710.791 410.295 711.483 411.395 712.869ZM404.62 721.21C405.36 721.95 406.299 722.32 407.438 722.32C408.577 722.32 409.516 721.95 410.257 721.21C411.016 720.451 411.395 719.483 411.395 718.306C411.395 717.13 411.016 716.171 410.257 715.431C409.516 714.672 408.577 714.292 407.438 714.292C406.299 714.292 405.36 714.672 404.62 715.431C403.88 716.171 403.51 717.13 403.51 718.306C403.51 719.483 403.88 720.451 404.62 721.21ZM422.953 723.374C422.953 724.038 422.716 724.607 422.241 725.082C421.767 725.556 421.197 725.793 420.533 725.793C419.869 725.793 419.299 725.556 418.825 725.082C418.35 724.607 418.113 724.038 418.113 723.374C418.113 722.709 418.35 722.14 418.825 721.666C419.299 721.191 419.869 720.954 420.533 720.954C421.197 720.954 421.767 721.191 422.241 721.666C422.716 722.14 422.953 722.709 422.953 723.374ZM443.267 725.423H438.997L437.801 721.836H429.859L428.663 725.423H424.421L431.396 705.495H436.264L443.267 725.423ZM433.844 710.022L431.111 718.164H436.577L433.844 710.022ZM445.202 725.423V705.495H449.131V725.423H445.202Z" fill="#239FFB"/>
<g filter="url(#filter2_ddddii_1664_1606)">
<rect x="99" y="450" width="186" height="70" rx="35" fill="white"/>
<path d="M150.431 475.2V476.784H142.631V482.976H150.071V484.56H142.631V492H140.951V475.2H150.431ZM163.119 490.488C161.887 491.688 160.399 492.288 158.655 492.288C156.879 492.288 155.383 491.688 154.167 490.488C152.951 489.272 152.343 487.776 152.343 486C152.343 484.224 152.951 482.736 154.167 481.536C155.383 480.32 156.879 479.712 158.655 479.712C160.415 479.712 161.903 480.32 163.119 481.536C164.351 482.736 164.967 484.224 164.967 486C164.967 487.76 164.351 489.256 163.119 490.488ZM155.295 489.384C156.207 490.296 157.327 490.752 158.655 490.752C159.983 490.752 161.103 490.296 162.015 489.384C162.927 488.44 163.383 487.312 163.383 486C163.383 484.672 162.927 483.552 162.015 482.64C161.103 481.712 159.983 481.248 158.655 481.248C157.327 481.248 156.207 481.712 155.295 482.64C154.383 483.552 153.927 484.672 153.927 486C153.927 487.312 154.383 488.44 155.295 489.384ZM169.202 480V481.992C169.938 480.536 171.202 479.808 172.993 479.808V481.344C171.842 481.344 170.922 481.68 170.234 482.352C169.546 483.008 169.202 484 169.202 485.328V492H167.618V480H169.202ZM186.756 492.288C184.948 492.288 183.444 491.688 182.244 490.488C181.044 489.256 180.444 487.76 180.444 486C180.444 484.224 181.044 482.736 182.244 481.536C183.444 480.32 184.948 479.712 186.756 479.712C187.94 479.712 189.004 480 189.948 480.576C190.892 481.136 191.58 481.896 192.012 482.856L190.716 483.6C190.396 482.88 189.876 482.312 189.156 481.896C188.452 481.464 187.652 481.248 186.756 481.248C185.428 481.248 184.308 481.712 183.396 482.64C182.484 483.552 182.028 484.672 182.028 486C182.028 487.312 182.484 488.44 183.396 489.384C184.308 490.296 185.428 490.752 186.756 490.752C187.636 490.752 188.428 490.544 189.132 490.128C189.852 489.712 190.412 489.136 190.812 488.4L192.132 489.168C191.636 490.128 190.908 490.888 189.948 491.448C188.988 492.008 187.924 492.288 186.756 492.288ZM195.991 492H194.407V474.48H195.991V492ZM201.296 476.304C201.296 476.624 201.184 476.896 200.96 477.12C200.736 477.344 200.464 477.456 200.144 477.456C199.824 477.456 199.552 477.344 199.328 477.12C199.104 476.896 198.992 476.624 198.992 476.304C198.992 475.984 199.104 475.712 199.328 475.488C199.552 475.264 199.824 475.152 200.144 475.152C200.464 475.152 200.736 475.264 200.96 475.488C201.184 475.712 201.296 475.984 201.296 476.304ZM200.936 492H199.352V480H200.936V492ZM209.913 479.712C211.353 479.712 212.497 480.16 213.345 481.056C214.193 481.936 214.617 483.128 214.617 484.632V492H213.033V484.632C213.033 483.56 212.745 482.728 212.169 482.136C211.609 481.544 210.809 481.248 209.769 481.248C208.569 481.248 207.617 481.624 206.913 482.376C206.225 483.128 205.881 484.24 205.881 485.712V492H204.297V480H205.881V481.872C206.777 480.432 208.121 479.712 209.913 479.712ZM219.624 476.304C219.624 476.624 219.512 476.896 219.288 477.12C219.064 477.344 218.792 477.456 218.472 477.456C218.152 477.456 217.88 477.344 217.656 477.12C217.432 476.896 217.32 476.624 217.32 476.304C217.32 475.984 217.432 475.712 217.656 475.488C217.88 475.264 218.152 475.152 218.472 475.152C218.792 475.152 219.064 475.264 219.288 475.488C219.512 475.712 219.624 475.984 219.624 476.304ZM219.264 492H217.68V480H219.264V492ZM228.217 492.288C226.409 492.288 224.905 491.688 223.705 490.488C222.505 489.256 221.905 487.76 221.905 486C221.905 484.224 222.505 482.736 223.705 481.536C224.905 480.32 226.409 479.712 228.217 479.712C229.401 479.712 230.465 480 231.409 480.576C232.353 481.136 233.041 481.896 233.473 482.856L232.177 483.6C231.857 482.88 231.337 482.312 230.617 481.896C229.913 481.464 229.113 481.248 228.217 481.248C226.889 481.248 225.769 481.712 224.857 482.64C223.945 483.552 223.489 484.672 223.489 486C223.489 487.312 223.945 488.44 224.857 489.384C225.769 490.296 226.889 490.752 228.217 490.752C229.097 490.752 229.889 490.544 230.593 490.128C231.313 489.712 231.873 489.136 232.273 488.4L233.593 489.168C233.097 490.128 232.369 490.888 231.409 491.448C230.449 492.008 229.385 492.288 228.217 492.288ZM236.998 483.144C236.998 484.072 237.822 484.752 239.47 485.184C239.934 485.296 240.238 485.376 240.382 485.424C240.526 485.456 240.806 485.544 241.222 485.688C241.654 485.816 241.95 485.928 242.11 486.024C242.286 486.12 242.526 486.272 242.83 486.48C243.134 486.672 243.35 486.872 243.478 487.08C243.606 487.272 243.726 487.528 243.838 487.848C243.95 488.152 244.006 488.48 244.006 488.832C244.006 489.856 243.598 490.688 242.782 491.328C241.998 491.968 240.958 492.288 239.662 492.288C238.542 492.288 237.574 492.04 236.758 491.544C235.942 491.032 235.366 490.36 235.03 489.528L236.374 488.736C236.598 489.36 236.998 489.856 237.574 490.224C238.166 490.576 238.862 490.752 239.662 490.752C240.478 490.752 241.142 490.592 241.654 490.272C242.166 489.952 242.422 489.472 242.422 488.832C242.422 487.904 241.598 487.224 239.95 486.792C239.486 486.68 239.182 486.608 239.038 486.576C238.894 486.528 238.606 486.44 238.174 486.312C237.758 486.168 237.462 486.048 237.286 485.952C237.126 485.856 236.894 485.712 236.59 485.52C236.286 485.312 236.07 485.112 235.942 484.92C235.814 484.712 235.694 484.456 235.582 484.152C235.47 483.832 235.414 483.496 235.414 483.144C235.414 482.168 235.798 481.352 236.566 480.696C237.366 480.04 238.35 479.712 239.518 479.712C240.478 479.712 241.326 479.928 242.062 480.36C242.814 480.792 243.366 481.392 243.718 482.16L242.398 482.928C241.95 481.808 240.99 481.248 239.518 481.248C238.798 481.248 238.198 481.416 237.718 481.752C237.238 482.088 236.998 482.552 236.998 483.144Z" fill="#323232"/>
</g>
<g filter="url(#filter3_ddddii_1664_1606)">
<rect x="267" y="282" width="186" height="70" rx="35" fill="white"/>
<path d="M318.431 307.2V308.784H310.631V314.976H318.071V316.56H310.631V324H308.951V307.2H318.431ZM331.119 322.488C329.887 323.688 328.399 324.288 326.655 324.288C324.879 324.288 323.383 323.688 322.167 322.488C320.951 321.272 320.343 319.776 320.343 318C320.343 316.224 320.951 314.736 322.167 313.536C323.383 312.32 324.879 311.712 326.655 311.712C328.415 311.712 329.903 312.32 331.119 313.536C332.351 314.736 332.967 316.224 332.967 318C332.967 319.76 332.351 321.256 331.119 322.488ZM323.295 321.384C324.207 322.296 325.327 322.752 326.655 322.752C327.983 322.752 329.103 322.296 330.015 321.384C330.927 320.44 331.383 319.312 331.383 318C331.383 316.672 330.927 315.552 330.015 314.64C329.103 313.712 327.983 313.248 326.655 313.248C325.327 313.248 324.207 313.712 323.295 314.64C322.383 315.552 321.927 316.672 321.927 318C321.927 319.312 322.383 320.44 323.295 321.384ZM337.202 312V313.992C337.938 312.536 339.202 311.808 340.993 311.808V313.344C339.842 313.344 338.922 313.68 338.234 314.352C337.546 315.008 337.202 316 337.202 317.328V324H335.618V312H337.202ZM354.756 324.288C352.948 324.288 351.444 323.688 350.244 322.488C349.044 321.256 348.444 319.76 348.444 318C348.444 316.224 349.044 314.736 350.244 313.536C351.444 312.32 352.948 311.712 354.756 311.712C355.94 311.712 357.004 312 357.948 312.576C358.892 313.136 359.58 313.896 360.012 314.856L358.716 315.6C358.396 314.88 357.876 314.312 357.156 313.896C356.452 313.464 355.652 313.248 354.756 313.248C353.428 313.248 352.308 313.712 351.396 314.64C350.484 315.552 350.028 316.672 350.028 318C350.028 319.312 350.484 320.44 351.396 321.384C352.308 322.296 353.428 322.752 354.756 322.752C355.636 322.752 356.428 322.544 357.132 322.128C357.852 321.712 358.412 321.136 358.812 320.4L360.132 321.168C359.636 322.128 358.908 322.888 357.948 323.448C356.988 324.008 355.924 324.288 354.756 324.288ZM363.991 324H362.407V306.48H363.991V324ZM369.296 308.304C369.296 308.624 369.184 308.896 368.96 309.12C368.736 309.344 368.464 309.456 368.144 309.456C367.824 309.456 367.552 309.344 367.328 309.12C367.104 308.896 366.992 308.624 366.992 308.304C366.992 307.984 367.104 307.712 367.328 307.488C367.552 307.264 367.824 307.152 368.144 307.152C368.464 307.152 368.736 307.264 368.96 307.488C369.184 307.712 369.296 307.984 369.296 308.304ZM368.936 324H367.352V312H368.936V324ZM377.913 311.712C379.353 311.712 380.497 312.16 381.345 313.056C382.193 313.936 382.617 315.128 382.617 316.632V324H381.033V316.632C381.033 315.56 380.745 314.728 380.169 314.136C379.609 313.544 378.809 313.248 377.769 313.248C376.569 313.248 375.617 313.624 374.913 314.376C374.225 315.128 373.881 316.24 373.881 317.712V324H372.297V312H373.881V313.872C374.777 312.432 376.121 311.712 377.913 311.712ZM387.624 308.304C387.624 308.624 387.512 308.896 387.288 309.12C387.064 309.344 386.792 309.456 386.472 309.456C386.152 309.456 385.88 309.344 385.656 309.12C385.432 308.896 385.32 308.624 385.32 308.304C385.32 307.984 385.432 307.712 385.656 307.488C385.88 307.264 386.152 307.152 386.472 307.152C386.792 307.152 387.064 307.264 387.288 307.488C387.512 307.712 387.624 307.984 387.624 308.304ZM387.264 324H385.68V312H387.264V324ZM396.217 324.288C394.409 324.288 392.905 323.688 391.705 322.488C390.505 321.256 389.905 319.76 389.905 318C389.905 316.224 390.505 314.736 391.705 313.536C392.905 312.32 394.409 311.712 396.217 311.712C397.401 311.712 398.465 312 399.409 312.576C400.353 313.136 401.041 313.896 401.473 314.856L400.177 315.6C399.857 314.88 399.337 314.312 398.617 313.896C397.913 313.464 397.113 313.248 396.217 313.248C394.889 313.248 393.769 313.712 392.857 314.64C391.945 315.552 391.489 316.672 391.489 318C391.489 319.312 391.945 320.44 392.857 321.384C393.769 322.296 394.889 322.752 396.217 322.752C397.097 322.752 397.889 322.544 398.593 322.128C399.313 321.712 399.873 321.136 400.273 320.4L401.593 321.168C401.097 322.128 400.369 322.888 399.409 323.448C398.449 324.008 397.385 324.288 396.217 324.288ZM404.998 315.144C404.998 316.072 405.822 316.752 407.47 317.184C407.934 317.296 408.238 317.376 408.382 317.424C408.526 317.456 408.806 317.544 409.222 317.688C409.654 317.816 409.95 317.928 410.11 318.024C410.286 318.12 410.526 318.272 410.83 318.48C411.134 318.672 411.35 318.872 411.478 319.08C411.606 319.272 411.726 319.528 411.838 319.848C411.95 320.152 412.006 320.48 412.006 320.832C412.006 321.856 411.598 322.688 410.782 323.328C409.998 323.968 408.958 324.288 407.662 324.288C406.542 324.288 405.574 324.04 404.758 323.544C403.942 323.032 403.366 322.36 403.03 321.528L404.374 320.736C404.598 321.36 404.998 321.856 405.574 322.224C406.166 322.576 406.862 322.752 407.662 322.752C408.478 322.752 409.142 322.592 409.654 322.272C410.166 321.952 410.422 321.472 410.422 320.832C410.422 319.904 409.598 319.224 407.95 318.792C407.486 318.68 407.182 318.608 407.038 318.576C406.894 318.528 406.606 318.44 406.174 318.312C405.758 318.168 405.462 318.048 405.286 317.952C405.126 317.856 404.894 317.712 404.59 317.52C404.286 317.312 404.07 317.112 403.942 316.92C403.814 316.712 403.694 316.456 403.582 316.152C403.47 315.832 403.414 315.496 403.414 315.144C403.414 314.168 403.798 313.352 404.566 312.696C405.366 312.04 406.35 311.712 407.518 311.712C408.478 311.712 409.326 311.928 410.062 312.36C410.814 312.792 411.366 313.392 411.718 314.16L410.398 314.928C409.95 313.808 408.99 313.248 407.518 313.248C406.798 313.248 406.198 313.416 405.718 313.752C405.238 314.088 404.998 314.552 404.998 315.144Z" fill="#239FFB"/>
</g>
<g filter="url(#filter4_ddddii_1664_1606)">
<rect x="903" y="282" width="288" height="70" rx="35" fill="white"/>
<path d="M954.513 307.2V308.784H946.713V314.976H954.153V316.56H946.713V324H945.033V307.2H954.513ZM967.201 322.488C965.969 323.688 964.481 324.288 962.737 324.288C960.961 324.288 959.465 323.688 958.249 322.488C957.033 321.272 956.425 319.776 956.425 318C956.425 316.224 957.033 314.736 958.249 313.536C959.465 312.32 960.961 311.712 962.737 311.712C964.497 311.712 965.985 312.32 967.201 313.536C968.433 314.736 969.049 316.224 969.049 318C969.049 319.76 968.433 321.256 967.201 322.488ZM959.377 321.384C960.289 322.296 961.409 322.752 962.737 322.752C964.065 322.752 965.185 322.296 966.097 321.384C967.009 320.44 967.465 319.312 967.465 318C967.465 316.672 967.009 315.552 966.097 314.64C965.185 313.712 964.065 313.248 962.737 313.248C961.409 313.248 960.289 313.712 959.377 314.64C958.465 315.552 958.009 316.672 958.009 318C958.009 319.312 958.465 320.44 959.377 321.384ZM973.284 312V313.992C974.02 312.536 975.284 311.808 977.076 311.808V313.344C975.924 313.344 975.004 313.68 974.316 314.352C973.628 315.008 973.284 316 973.284 317.328V324H971.7V312H973.284ZM991.678 311.712C993.39 311.712 994.846 312.32 996.046 313.536C997.262 314.752 997.87 316.24 997.87 318C997.87 319.76 997.262 321.248 996.046 322.464C994.846 323.68 993.39 324.288 991.678 324.288C989.55 324.288 987.934 323.408 986.83 321.648V328.8H985.246V312H986.83V314.352C987.934 312.592 989.55 311.712 991.678 311.712ZM988.198 321.384C989.11 322.296 990.23 322.752 991.558 322.752C992.886 322.752 994.006 322.296 994.918 321.384C995.83 320.44 996.286 319.312 996.286 318C996.286 316.672 995.83 315.552 994.918 314.64C994.006 313.712 992.886 313.248 991.558 313.248C990.23 313.248 989.11 313.712 988.198 314.64C987.286 315.552 986.83 316.672 986.83 318C986.83 319.312 987.286 320.44 988.198 321.384ZM1006.05 311.712C1007.84 311.712 1009.27 312.344 1010.34 313.608C1011.45 314.856 1012 316.336 1012 318.048C1012 318.128 1011.98 318.376 1011.95 318.792H1001.42C1001.58 319.992 1002.09 320.952 1002.95 321.672C1003.82 322.392 1004.9 322.752 1006.19 322.752C1008.02 322.752 1009.3 322.072 1010.06 320.712L1011.45 321.528C1010.92 322.392 1010.19 323.072 1009.26 323.568C1008.35 324.048 1007.32 324.288 1006.17 324.288C1004.28 324.288 1002.74 323.696 1001.56 322.512C1000.38 321.328 999.784 319.824 999.784 318C999.784 316.192 1000.37 314.696 1001.54 313.512C1002.7 312.312 1004.21 311.712 1006.05 311.712ZM1006.05 313.248C1004.8 313.248 1003.75 313.616 1002.9 314.352C1002.07 315.088 1001.58 316.056 1001.42 317.256H1010.37C1010.19 315.976 1009.7 314.992 1008.9 314.304C1008.07 313.6 1007.12 313.248 1006.05 313.248ZM1024.58 322.488C1023.34 323.688 1021.86 324.288 1020.11 324.288C1018.34 324.288 1016.84 323.688 1015.62 322.488C1014.41 321.272 1013.8 319.776 1013.8 318C1013.8 316.224 1014.41 314.736 1015.62 313.536C1016.84 312.32 1018.34 311.712 1020.11 311.712C1021.87 311.712 1023.36 312.32 1024.58 313.536C1025.81 314.736 1026.42 316.224 1026.42 318C1026.42 319.76 1025.81 321.256 1024.58 322.488ZM1016.75 321.384C1017.66 322.296 1018.78 322.752 1020.11 322.752C1021.44 322.752 1022.56 322.296 1023.47 321.384C1024.38 320.44 1024.84 319.312 1024.84 318C1024.84 316.672 1024.38 315.552 1023.47 314.64C1022.56 313.712 1021.44 313.248 1020.11 313.248C1018.78 313.248 1017.66 313.712 1016.75 314.64C1015.84 315.552 1015.38 316.672 1015.38 318C1015.38 319.312 1015.84 320.44 1016.75 321.384ZM1035.51 311.712C1037.22 311.712 1038.67 312.32 1039.87 313.536C1041.09 314.752 1041.7 316.24 1041.7 318C1041.7 319.76 1041.09 321.248 1039.87 322.464C1038.67 323.68 1037.22 324.288 1035.51 324.288C1033.38 324.288 1031.76 323.408 1030.66 321.648V328.8H1029.07V312H1030.66V314.352C1031.76 312.592 1033.38 311.712 1035.51 311.712ZM1032.03 321.384C1032.94 322.296 1034.06 322.752 1035.39 322.752C1036.71 322.752 1037.83 322.296 1038.75 321.384C1039.66 320.44 1040.11 319.312 1040.11 318C1040.11 316.672 1039.66 315.552 1038.75 314.64C1037.83 313.712 1036.71 313.248 1035.39 313.248C1034.06 313.248 1032.94 313.712 1032.03 314.64C1031.11 315.552 1030.66 316.672 1030.66 318C1030.66 319.312 1031.11 320.44 1032.03 321.384ZM1045.92 324H1044.33V306.48H1045.92V324ZM1054.82 311.712C1056.61 311.712 1058.05 312.344 1059.12 313.608C1060.22 314.856 1060.77 316.336 1060.77 318.048C1060.77 318.128 1060.76 318.376 1060.73 318.792H1050.19C1050.35 319.992 1050.86 320.952 1051.73 321.672C1052.59 322.392 1053.67 322.752 1054.97 322.752C1056.79 322.752 1058.08 322.072 1058.83 320.712L1060.22 321.528C1059.69 322.392 1058.97 323.072 1058.04 323.568C1057.13 324.048 1056.09 324.288 1054.94 324.288C1053.05 324.288 1051.52 323.696 1050.33 322.512C1049.15 321.328 1048.56 319.824 1048.56 318C1048.56 316.192 1049.14 314.696 1050.31 313.512C1051.48 312.312 1052.98 311.712 1054.82 311.712ZM1054.82 313.248C1053.57 313.248 1052.53 313.616 1051.68 314.352C1050.85 315.088 1050.35 316.056 1050.19 317.256H1059.14C1058.97 315.976 1058.48 314.992 1057.68 314.304C1056.85 313.6 1055.89 313.248 1054.82 313.248ZM1063.53 312H1062.33L1062.09 307.2H1063.77L1063.53 312ZM1066.93 315.144C1066.93 316.072 1067.76 316.752 1069.4 317.184C1069.87 317.296 1070.17 317.376 1070.32 317.424C1070.46 317.456 1070.74 317.544 1071.16 317.688C1071.59 317.816 1071.88 317.928 1072.04 318.024C1072.22 318.12 1072.46 318.272 1072.76 318.48C1073.07 318.672 1073.28 318.872 1073.41 319.08C1073.54 319.272 1073.66 319.528 1073.77 319.848C1073.88 320.152 1073.94 320.48 1073.94 320.832C1073.94 321.856 1073.53 322.688 1072.72 323.328C1071.93 323.968 1070.89 324.288 1069.6 324.288C1068.48 324.288 1067.51 324.04 1066.69 323.544C1065.88 323.032 1065.3 322.36 1064.96 321.528L1066.31 320.736C1066.53 321.36 1066.93 321.856 1067.51 322.224C1068.1 322.576 1068.8 322.752 1069.6 322.752C1070.41 322.752 1071.08 322.592 1071.59 322.272C1072.1 321.952 1072.36 321.472 1072.36 320.832C1072.36 319.904 1071.53 319.224 1069.88 318.792C1069.42 318.68 1069.12 318.608 1068.97 318.576C1068.83 318.528 1068.54 318.44 1068.11 318.312C1067.69 318.168 1067.4 318.048 1067.22 317.952C1067.06 317.856 1066.83 317.712 1066.52 317.52C1066.22 317.312 1066 317.112 1065.88 316.92C1065.75 316.712 1065.63 316.456 1065.52 316.152C1065.4 315.832 1065.35 315.496 1065.35 315.144C1065.35 314.168 1065.73 313.352 1066.5 312.696C1067.3 312.04 1068.28 311.712 1069.45 311.712C1070.41 311.712 1071.26 311.928 1072 312.36C1072.75 312.792 1073.3 313.392 1073.65 314.16L1072.33 314.928C1071.88 313.808 1070.92 313.248 1069.45 313.248C1068.73 313.248 1068.13 313.416 1067.65 313.752C1067.17 314.088 1066.93 314.552 1066.93 315.144ZM1088.2 311.712C1089.64 311.712 1090.78 312.16 1091.63 313.056C1092.48 313.936 1092.9 315.128 1092.9 316.632V324H1091.32V316.632C1091.32 315.56 1091.03 314.728 1090.45 314.136C1089.89 313.544 1089.09 313.248 1088.05 313.248C1086.85 313.248 1085.9 313.624 1085.2 314.376C1084.51 315.128 1084.17 316.24 1084.17 317.712V324H1082.58V307.2H1084.17V313.872C1085.06 312.432 1086.41 311.712 1088.2 311.712ZM1101.51 311.712C1103.3 311.712 1104.73 312.344 1105.81 313.608C1106.91 314.856 1107.46 316.336 1107.46 318.048C1107.46 318.128 1107.45 318.376 1107.41 318.792H1096.88C1097.04 319.992 1097.55 320.952 1098.41 321.672C1099.28 322.392 1100.36 322.752 1101.65 322.752C1103.48 322.752 1104.77 322.072 1105.52 320.712L1106.91 321.528C1106.38 322.392 1105.65 323.072 1104.73 323.568C1103.81 324.048 1102.78 324.288 1101.63 324.288C1099.74 324.288 1098.21 323.696 1097.02 322.512C1095.84 321.328 1095.25 319.824 1095.25 318C1095.25 316.192 1095.83 314.696 1097 313.512C1098.17 312.312 1099.67 311.712 1101.51 311.712ZM1101.51 313.248C1100.26 313.248 1099.21 313.616 1098.37 314.352C1097.53 315.088 1097.04 316.056 1096.88 317.256H1105.83C1105.65 315.976 1105.17 314.992 1104.37 314.304C1103.53 313.6 1102.58 313.248 1101.51 313.248ZM1120.3 314.352V312H1121.88V324H1120.3V321.648C1119.2 323.408 1117.58 324.288 1115.45 324.288C1113.74 324.288 1112.28 323.68 1111.06 322.464C1109.86 321.248 1109.26 319.76 1109.26 318C1109.26 316.24 1109.86 314.752 1111.06 313.536C1112.28 312.32 1113.74 311.712 1115.45 311.712C1117.58 311.712 1119.2 312.592 1120.3 314.352ZM1112.21 321.384C1113.12 322.296 1114.24 322.752 1115.57 322.752C1116.9 322.752 1118.02 322.296 1118.93 321.384C1119.84 320.44 1120.3 319.312 1120.3 318C1120.3 316.672 1119.84 315.552 1118.93 314.64C1118.02 313.712 1116.9 313.248 1115.57 313.248C1114.24 313.248 1113.12 313.712 1112.21 314.64C1111.3 315.552 1110.84 316.672 1110.84 318C1110.84 319.312 1111.3 320.44 1112.21 321.384ZM1126.82 324H1125.24V306.48H1126.82V324ZM1136.54 312V313.536H1133.09V320.808C1133.09 321.464 1133.22 321.936 1133.47 322.224C1133.73 322.496 1134.11 322.64 1134.62 322.656C1135.14 322.656 1135.78 322.64 1136.54 322.608V324C1134.83 324.256 1133.56 324.136 1132.73 323.64C1131.91 323.128 1131.5 322.184 1131.5 320.808V313.536H1128.98V312H1131.5V309.12L1133.09 308.64V312H1136.54ZM1144.8 311.712C1146.24 311.712 1147.38 312.16 1148.23 313.056C1149.08 313.936 1149.5 315.128 1149.5 316.632V324H1147.92V316.632C1147.92 315.56 1147.63 314.728 1147.06 314.136C1146.5 313.544 1145.7 313.248 1144.66 313.248C1143.46 313.248 1142.5 313.624 1141.8 314.376C1141.11 315.128 1140.77 316.24 1140.77 317.712V324H1139.18V307.2H1140.77V313.872C1141.66 312.432 1143.01 311.712 1144.8 311.712Z" fill="#239FFB"/>
</g>
<g filter="url(#filter5_ddddii_1664_1606)">
<rect x="422" y="450" width="234" height="70" rx="35" fill="white"/>
<path d="M473.4 475.2V476.784H465.6V482.976H473.04V484.56H465.6V492H463.92V475.2H473.4ZM486.088 490.488C484.856 491.688 483.368 492.288 481.624 492.288C479.848 492.288 478.352 491.688 477.136 490.488C475.92 489.272 475.312 487.776 475.312 486C475.312 484.224 475.92 482.736 477.136 481.536C478.352 480.32 479.848 479.712 481.624 479.712C483.384 479.712 484.872 480.32 486.088 481.536C487.32 482.736 487.936 484.224 487.936 486C487.936 487.76 487.32 489.256 486.088 490.488ZM478.264 489.384C479.176 490.296 480.296 490.752 481.624 490.752C482.952 490.752 484.072 490.296 484.984 489.384C485.896 488.44 486.352 487.312 486.352 486C486.352 484.672 485.896 483.552 484.984 482.64C484.072 481.712 482.952 481.248 481.624 481.248C480.296 481.248 479.176 481.712 478.264 482.64C477.352 483.552 476.896 484.672 476.896 486C476.896 487.312 477.352 488.44 478.264 489.384ZM492.17 480V481.992C492.906 480.536 494.17 479.808 495.962 479.808V481.344C494.81 481.344 493.89 481.68 493.202 482.352C492.514 483.008 492.17 484 492.17 485.328V492H490.586V480H492.17ZM510.565 479.712C512.277 479.712 513.733 480.32 514.933 481.536C516.149 482.752 516.757 484.24 516.757 486C516.757 487.76 516.149 489.248 514.933 490.464C513.733 491.68 512.277 492.288 510.565 492.288C508.437 492.288 506.821 491.408 505.717 489.648V496.8H504.133V480H505.717V482.352C506.821 480.592 508.437 479.712 510.565 479.712ZM507.085 489.384C507.997 490.296 509.117 490.752 510.445 490.752C511.773 490.752 512.893 490.296 513.805 489.384C514.717 488.44 515.173 487.312 515.173 486C515.173 484.672 514.717 483.552 513.805 482.64C512.893 481.712 511.773 481.248 510.445 481.248C509.117 481.248 507.997 481.712 507.085 482.64C506.173 483.552 505.717 484.672 505.717 486C505.717 487.312 506.173 488.44 507.085 489.384ZM525.007 479.712C526.447 479.712 527.591 480.16 528.439 481.056C529.287 481.936 529.711 483.128 529.711 484.632V492H528.127V484.632C528.127 483.56 527.839 482.728 527.263 482.136C526.703 481.544 525.903 481.248 524.863 481.248C523.663 481.248 522.711 481.624 522.007 482.376C521.319 483.128 520.975 484.24 520.975 485.712V492H519.391V475.2H520.975V481.872C521.871 480.432 523.215 479.712 525.007 479.712ZM537.291 490.056L541.179 480H542.859L537.723 493.104C537.243 494.32 536.571 495.256 535.707 495.912C534.859 496.584 533.915 496.88 532.875 496.8V495.312C534.315 495.488 535.411 494.656 536.163 492.816L536.475 492.072L531.099 480H532.779L537.291 490.056ZM545.295 483.144C545.295 484.072 546.119 484.752 547.767 485.184C548.231 485.296 548.535 485.376 548.679 485.424C548.823 485.456 549.103 485.544 549.519 485.688C549.951 485.816 550.247 485.928 550.407 486.024C550.583 486.12 550.823 486.272 551.127 486.48C551.431 486.672 551.647 486.872 551.775 487.08C551.903 487.272 552.023 487.528 552.135 487.848C552.247 488.152 552.303 488.48 552.303 488.832C552.303 489.856 551.895 490.688 551.079 491.328C550.295 491.968 549.255 492.288 547.959 492.288C546.839 492.288 545.871 492.04 545.055 491.544C544.239 491.032 543.663 490.36 543.327 489.528L544.671 488.736C544.895 489.36 545.295 489.856 545.871 490.224C546.463 490.576 547.159 490.752 547.959 490.752C548.775 490.752 549.439 490.592 549.951 490.272C550.463 489.952 550.719 489.472 550.719 488.832C550.719 487.904 549.895 487.224 548.247 486.792C547.783 486.68 547.479 486.608 547.335 486.576C547.191 486.528 546.903 486.44 546.471 486.312C546.055 486.168 545.759 486.048 545.583 485.952C545.423 485.856 545.191 485.712 544.887 485.52C544.583 485.312 544.367 485.112 544.239 484.92C544.111 484.712 543.991 484.456 543.879 484.152C543.767 483.832 543.711 483.496 543.711 483.144C543.711 482.168 544.095 481.352 544.863 480.696C545.663 480.04 546.647 479.712 547.815 479.712C548.775 479.712 549.623 479.928 550.359 480.36C551.111 480.792 551.663 481.392 552.015 482.16L550.695 482.928C550.247 481.808 549.287 481.248 547.815 481.248C547.095 481.248 546.495 481.416 546.015 481.752C545.535 482.088 545.295 482.552 545.295 483.144ZM556.772 476.304C556.772 476.624 556.66 476.896 556.436 477.12C556.212 477.344 555.94 477.456 555.62 477.456C555.3 477.456 555.028 477.344 554.804 477.12C554.58 476.896 554.468 476.624 554.468 476.304C554.468 475.984 554.58 475.712 554.804 475.488C555.028 475.264 555.3 475.152 555.62 475.152C555.94 475.152 556.212 475.264 556.436 475.488C556.66 475.712 556.772 475.984 556.772 476.304ZM556.412 492H554.828V480H556.412V492ZM565.366 492.288C563.558 492.288 562.054 491.688 560.854 490.488C559.654 489.256 559.054 487.76 559.054 486C559.054 484.224 559.654 482.736 560.854 481.536C562.054 480.32 563.558 479.712 565.366 479.712C566.55 479.712 567.614 480 568.558 480.576C569.502 481.136 570.19 481.896 570.622 482.856L569.326 483.6C569.006 482.88 568.486 482.312 567.766 481.896C567.062 481.464 566.262 481.248 565.366 481.248C564.038 481.248 562.918 481.712 562.006 482.64C561.094 483.552 560.638 484.672 560.638 486C560.638 487.312 561.094 488.44 562.006 489.384C562.918 490.296 564.038 490.752 565.366 490.752C566.246 490.752 567.038 490.544 567.742 490.128C568.462 489.712 569.022 489.136 569.422 488.4L570.742 489.168C570.246 490.128 569.518 490.888 568.558 491.448C567.598 492.008 566.534 492.288 565.366 492.288ZM574.96 476.304C574.96 476.624 574.848 476.896 574.624 477.12C574.4 477.344 574.128 477.456 573.808 477.456C573.488 477.456 573.216 477.344 572.992 477.12C572.768 476.896 572.656 476.624 572.656 476.304C572.656 475.984 572.768 475.712 572.992 475.488C573.216 475.264 573.488 475.152 573.808 475.152C574.128 475.152 574.4 475.264 574.624 475.488C574.848 475.712 574.96 475.984 574.96 476.304ZM574.6 492H573.016V480H574.6V492ZM588.281 482.352V480H589.865V492H588.281V489.648C587.177 491.408 585.561 492.288 583.433 492.288C581.721 492.288 580.257 491.68 579.041 490.464C577.841 489.248 577.241 487.76 577.241 486C577.241 484.24 577.841 482.752 579.041 481.536C580.257 480.32 581.721 479.712 583.433 479.712C585.561 479.712 587.177 480.592 588.281 482.352ZM580.193 489.384C581.105 490.296 582.225 490.752 583.553 490.752C584.881 490.752 586.001 490.296 586.913 489.384C587.825 488.44 588.281 487.312 588.281 486C588.281 484.672 587.825 483.552 586.913 482.64C586.001 481.712 584.881 481.248 583.553 481.248C582.225 481.248 581.105 481.712 580.193 482.64C579.281 483.552 578.825 484.672 578.825 486C578.825 487.312 579.281 488.44 580.193 489.384ZM598.835 479.712C600.275 479.712 601.419 480.16 602.267 481.056C603.115 481.936 603.539 483.128 603.539 484.632V492H601.955V484.632C601.955 483.56 601.667 482.728 601.091 482.136C600.531 481.544 599.731 481.248 598.691 481.248C597.491 481.248 596.539 481.624 595.835 482.376C595.147 483.128 594.803 484.24 594.803 485.712V492H593.219V480H594.803V481.872C595.699 480.432 597.043 479.712 598.835 479.712ZM607.85 483.144C607.85 484.072 608.674 484.752 610.322 485.184C610.786 485.296 611.09 485.376 611.234 485.424C611.378 485.456 611.658 485.544 612.074 485.688C612.506 485.816 612.802 485.928 612.962 486.024C613.138 486.12 613.378 486.272 613.682 486.48C613.986 486.672 614.202 486.872 614.33 487.08C614.458 487.272 614.578 487.528 614.69 487.848C614.802 488.152 614.858 488.48 614.858 488.832C614.858 489.856 614.45 490.688 613.634 491.328C612.85 491.968 611.81 492.288 610.514 492.288C609.394 492.288 608.426 492.04 607.61 491.544C606.794 491.032 606.218 490.36 605.882 489.528L607.226 488.736C607.45 489.36 607.85 489.856 608.426 490.224C609.018 490.576 609.714 490.752 610.514 490.752C611.33 490.752 611.994 490.592 612.506 490.272C613.018 489.952 613.274 489.472 613.274 488.832C613.274 487.904 612.45 487.224 610.802 486.792C610.338 486.68 610.034 486.608 609.89 486.576C609.746 486.528 609.458 486.44 609.026 486.312C608.61 486.168 608.314 486.048 608.138 485.952C607.978 485.856 607.746 485.712 607.442 485.52C607.138 485.312 606.922 485.112 606.794 484.92C606.666 484.712 606.546 484.456 606.434 484.152C606.322 483.832 606.266 483.496 606.266 483.144C606.266 482.168 606.65 481.352 607.418 480.696C608.218 480.04 609.202 479.712 610.37 479.712C611.33 479.712 612.178 479.928 612.914 480.36C613.666 480.792 614.218 481.392 614.57 482.16L613.25 482.928C612.802 481.808 611.842 481.248 610.37 481.248C609.65 481.248 609.05 481.416 608.57 481.752C608.09 482.088 607.85 482.552 607.85 483.144Z" fill="#323232"/>
</g>
<g filter="url(#filter6_ddddii_1664_1606)">
<rect x="755" y="450" width="205" height="70" rx="35" fill="white"/>
<path d="M807.876 482.568V475.2H809.556V492H807.876V484.152H798.756V492H797.076V475.2H798.756V482.568H807.876ZM818.693 479.712C820.485 479.712 821.917 480.344 822.989 481.608C824.093 482.856 824.645 484.336 824.645 486.048C824.645 486.128 824.629 486.376 824.597 486.792H814.061C814.221 487.992 814.733 488.952 815.597 489.672C816.461 490.392 817.541 490.752 818.837 490.752C820.661 490.752 821.949 490.072 822.701 488.712L824.093 489.528C823.565 490.392 822.837 491.072 821.909 491.568C820.997 492.048 819.965 492.288 818.813 492.288C816.925 492.288 815.389 491.696 814.205 490.512C813.021 489.328 812.429 487.824 812.429 486C812.429 484.192 813.013 482.696 814.181 481.512C815.349 480.312 816.853 479.712 818.693 479.712ZM818.693 481.248C817.445 481.248 816.397 481.616 815.549 482.352C814.717 483.088 814.221 484.056 814.061 485.256H823.013C822.837 483.976 822.349 482.992 821.549 482.304C820.717 481.6 819.765 481.248 818.693 481.248ZM837.484 482.352V480H839.068V492H837.484V489.648C836.38 491.408 834.764 492.288 832.636 492.288C830.924 492.288 829.46 491.68 828.244 490.464C827.044 489.248 826.444 487.76 826.444 486C826.444 484.24 827.044 482.752 828.244 481.536C829.46 480.32 830.924 479.712 832.636 479.712C834.764 479.712 836.38 480.592 837.484 482.352ZM829.396 489.384C830.308 490.296 831.428 490.752 832.756 490.752C834.084 490.752 835.204 490.296 836.116 489.384C837.028 488.44 837.484 487.312 837.484 486C837.484 484.672 837.028 483.552 836.116 482.64C835.204 481.712 834.084 481.248 832.756 481.248C831.428 481.248 830.308 481.712 829.396 482.64C828.484 483.552 828.028 484.672 828.028 486C828.028 487.312 828.484 488.44 829.396 489.384ZM844.006 492H842.422V474.48H844.006V492ZM853.728 480V481.536H850.272V488.808C850.272 489.464 850.4 489.936 850.656 490.224C850.912 490.496 851.296 490.64 851.808 490.656C852.32 490.656 852.96 490.64 853.728 490.608V492C852.016 492.256 850.744 492.136 849.912 491.64C849.096 491.128 848.688 490.184 848.688 488.808V481.536H846.168V480H848.688V477.12L850.272 476.64V480H853.728ZM861.984 479.712C863.424 479.712 864.568 480.16 865.416 481.056C866.264 481.936 866.688 483.128 866.688 484.632V492H865.104V484.632C865.104 483.56 864.816 482.728 864.24 482.136C863.68 481.544 862.88 481.248 861.84 481.248C860.64 481.248 859.688 481.624 858.984 482.376C858.296 483.128 857.952 484.24 857.952 485.712V492H856.368V475.2H857.952V481.872C858.848 480.432 860.192 479.712 861.984 479.712ZM886.07 482.352V480H887.654V492H886.07V489.648C884.966 491.408 883.35 492.288 881.222 492.288C879.51 492.288 878.046 491.68 876.83 490.464C875.63 489.248 875.03 487.76 875.03 486C875.03 484.24 875.63 482.752 876.83 481.536C878.046 480.32 879.51 479.712 881.222 479.712C883.35 479.712 884.966 480.592 886.07 482.352ZM877.982 489.384C878.894 490.296 880.014 490.752 881.342 490.752C882.67 490.752 883.79 490.296 884.702 489.384C885.614 488.44 886.07 487.312 886.07 486C886.07 484.672 885.614 483.552 884.702 482.64C883.79 481.712 882.67 481.248 881.342 481.248C880.014 481.248 878.894 481.712 877.982 482.64C877.07 483.552 876.614 484.672 876.614 486C876.614 487.312 877.07 488.44 877.982 489.384ZM897.44 479.712C899.152 479.712 900.608 480.32 901.808 481.536C903.024 482.752 903.632 484.24 903.632 486C903.632 487.76 903.024 489.248 901.808 490.464C900.608 491.68 899.152 492.288 897.44 492.288C895.312 492.288 893.696 491.408 892.592 489.648V496.8H891.008V480H892.592V482.352C893.696 480.592 895.312 479.712 897.44 479.712ZM893.96 489.384C894.872 490.296 895.992 490.752 897.32 490.752C898.648 490.752 899.768 490.296 900.68 489.384C901.592 488.44 902.048 487.312 902.048 486C902.048 484.672 901.592 483.552 900.68 482.64C899.768 481.712 898.648 481.248 897.32 481.248C895.992 481.248 894.872 481.712 893.96 482.64C893.048 483.552 892.592 484.672 892.592 486C892.592 487.312 893.048 488.44 893.96 489.384ZM912.698 479.712C914.41 479.712 915.866 480.32 917.066 481.536C918.282 482.752 918.89 484.24 918.89 486C918.89 487.76 918.282 489.248 917.066 490.464C915.866 491.68 914.41 492.288 912.698 492.288C910.57 492.288 908.954 491.408 907.85 489.648V496.8H906.266V480H907.85V482.352C908.954 480.592 910.57 479.712 912.698 479.712ZM909.218 489.384C910.13 490.296 911.25 490.752 912.578 490.752C913.906 490.752 915.026 490.296 915.938 489.384C916.85 488.44 917.306 487.312 917.306 486C917.306 484.672 916.85 483.552 915.938 482.64C915.026 481.712 913.906 481.248 912.578 481.248C911.25 481.248 910.13 481.712 909.218 482.64C908.306 483.552 907.85 484.672 907.85 486C907.85 487.312 908.306 488.44 909.218 489.384Z" fill="#323232"/>
</g>
<g filter="url(#filter7_ddddii_1664_1606)">
<rect x="1089" y="450" width="272" height="100" rx="35" fill="white"/>
<path d="M1138.77 492.288C1136.21 492.288 1134.1 491.448 1132.46 489.768C1130.79 488.072 1129.96 486.016 1129.96 483.6C1129.96 481.184 1130.79 479.128 1132.46 477.432C1134.1 475.752 1136.21 474.912 1138.77 474.912C1140.3 474.912 1141.72 475.288 1143.02 476.04C1144.31 476.776 1145.32 477.776 1146.04 479.04L1144.55 479.904C1144.02 478.88 1143.24 478.064 1142.2 477.456C1141.16 476.848 1140.02 476.544 1138.77 476.544C1136.66 476.544 1134.94 477.224 1133.63 478.584C1132.3 479.96 1131.64 481.632 1131.64 483.6C1131.64 485.568 1132.3 487.24 1133.63 488.616C1134.94 489.976 1136.66 490.656 1138.77 490.656C1140.02 490.656 1141.16 490.352 1142.2 489.744C1143.24 489.136 1144.02 488.32 1144.55 487.296L1146.04 488.136C1145.35 489.4 1144.35 490.408 1143.04 491.16C1141.73 491.912 1140.3 492.288 1138.77 492.288ZM1150.15 480V481.992C1150.88 480.536 1152.15 479.808 1153.94 479.808V481.344C1152.79 481.344 1151.87 481.68 1151.18 482.352C1150.49 483.008 1150.15 484 1150.15 485.328V492H1148.56V480H1150.15ZM1161.1 490.056L1164.98 480H1166.66L1161.53 493.104C1161.05 494.32 1160.38 495.256 1159.51 495.912C1158.66 496.584 1157.72 496.88 1156.68 496.8V495.312C1158.12 495.488 1159.22 494.656 1159.97 492.816L1160.28 492.072L1154.9 480H1156.58L1161.1 490.056ZM1175.01 479.712C1176.72 479.712 1178.18 480.32 1179.38 481.536C1180.59 482.752 1181.2 484.24 1181.2 486C1181.2 487.76 1180.59 489.248 1179.38 490.464C1178.18 491.68 1176.72 492.288 1175.01 492.288C1172.88 492.288 1171.27 491.408 1170.16 489.648V496.8H1168.58V480H1170.16V482.352C1171.27 480.592 1172.88 479.712 1175.01 479.712ZM1171.53 489.384C1172.44 490.296 1173.56 490.752 1174.89 490.752C1176.22 490.752 1177.34 490.296 1178.25 489.384C1179.16 488.44 1179.62 487.312 1179.62 486C1179.62 484.672 1179.16 483.552 1178.25 482.64C1177.34 481.712 1176.22 481.248 1174.89 481.248C1173.56 481.248 1172.44 481.712 1171.53 482.64C1170.62 483.552 1170.16 484.672 1170.16 486C1170.16 487.312 1170.62 488.44 1171.53 489.384ZM1189.96 480V481.536H1186.51V488.808C1186.51 489.464 1186.63 489.936 1186.89 490.224C1187.15 490.496 1187.53 490.64 1188.04 490.656C1188.55 490.656 1189.19 490.64 1189.96 490.608V492C1188.25 492.256 1186.98 492.136 1186.15 491.64C1185.33 491.128 1184.92 490.184 1184.92 488.808V481.536H1182.4V480H1184.92V477.12L1186.51 476.64V480H1189.96ZM1201.93 490.488C1200.7 491.688 1199.21 492.288 1197.47 492.288C1195.69 492.288 1194.2 491.688 1192.98 490.488C1191.76 489.272 1191.16 487.776 1191.16 486C1191.16 484.224 1191.76 482.736 1192.98 481.536C1194.2 480.32 1195.69 479.712 1197.47 479.712C1199.23 479.712 1200.72 480.32 1201.93 481.536C1203.16 482.736 1203.78 484.224 1203.78 486C1203.78 487.76 1203.16 489.256 1201.93 490.488ZM1194.11 489.384C1195.02 490.296 1196.14 490.752 1197.47 490.752C1198.8 490.752 1199.92 490.296 1200.83 489.384C1201.74 488.44 1202.2 487.312 1202.2 486C1202.2 484.672 1201.74 483.552 1200.83 482.64C1199.92 481.712 1198.8 481.248 1197.47 481.248C1196.14 481.248 1195.02 481.712 1194.11 482.64C1193.2 483.552 1192.74 484.672 1192.74 486C1192.74 487.312 1193.2 488.44 1194.11 489.384ZM1222.75 482.352V480H1224.33V492H1222.75V489.648C1221.65 491.408 1220.03 492.288 1217.9 492.288C1216.19 492.288 1214.73 491.68 1213.51 490.464C1212.31 489.248 1211.71 487.76 1211.71 486C1211.71 484.24 1212.31 482.752 1213.51 481.536C1214.73 480.32 1216.19 479.712 1217.9 479.712C1220.03 479.712 1221.65 480.592 1222.75 482.352ZM1214.66 489.384C1215.57 490.296 1216.69 490.752 1218.02 490.752C1219.35 490.752 1220.47 490.296 1221.38 489.384C1222.29 488.44 1222.75 487.312 1222.75 486C1222.75 484.672 1222.29 483.552 1221.38 482.64C1220.47 481.712 1219.35 481.248 1218.02 481.248C1216.69 481.248 1215.57 481.712 1214.66 482.64C1213.75 483.552 1213.29 484.672 1213.29 486C1213.29 487.312 1213.75 488.44 1214.66 489.384ZM1234.12 479.712C1235.83 479.712 1237.29 480.32 1238.49 481.536C1239.7 482.752 1240.31 484.24 1240.31 486C1240.31 487.76 1239.7 489.248 1238.49 490.464C1237.29 491.68 1235.83 492.288 1234.12 492.288C1231.99 492.288 1230.38 491.408 1229.27 489.648V496.8H1227.69V480H1229.27V482.352C1230.38 480.592 1231.99 479.712 1234.12 479.712ZM1230.64 489.384C1231.55 490.296 1232.67 490.752 1234 490.752C1235.33 490.752 1236.45 490.296 1237.36 489.384C1238.27 488.44 1238.73 487.312 1238.73 486C1238.73 484.672 1238.27 483.552 1237.36 482.64C1236.45 481.712 1235.33 481.248 1234 481.248C1232.67 481.248 1231.55 481.712 1230.64 482.64C1229.73 483.552 1229.27 484.672 1229.27 486C1229.27 487.312 1229.73 488.44 1230.64 489.384ZM1249.38 479.712C1251.09 479.712 1252.55 480.32 1253.75 481.536C1254.96 482.752 1255.57 484.24 1255.57 486C1255.57 487.76 1254.96 489.248 1253.75 490.464C1252.55 491.68 1251.09 492.288 1249.38 492.288C1247.25 492.288 1245.63 491.408 1244.53 489.648V496.8H1242.95V480H1244.53V482.352C1245.63 480.592 1247.25 479.712 1249.38 479.712ZM1245.9 489.384C1246.81 490.296 1247.93 490.752 1249.26 490.752C1250.59 490.752 1251.71 490.296 1252.62 489.384C1253.53 488.44 1253.99 487.312 1253.99 486C1253.99 484.672 1253.53 483.552 1252.62 482.64C1251.71 481.712 1250.59 481.248 1249.26 481.248C1247.93 481.248 1246.81 481.712 1245.9 482.64C1244.99 483.552 1244.53 484.672 1244.53 486C1244.53 487.312 1244.99 488.44 1245.9 489.384ZM1136.68 504.912V506.448C1135.51 506.352 1134.64 506.552 1134.06 507.048C1133.5 507.544 1133.22 508.368 1133.22 509.52V510H1136.68V511.536H1133.22V522H1131.64V511.536H1129.6V510H1131.64V509.52C1131.64 507.936 1132.07 506.744 1132.94 505.944C1133.82 505.144 1135.06 504.8 1136.68 504.912ZM1147.7 520.488C1146.46 521.688 1144.98 522.288 1143.23 522.288C1141.46 522.288 1139.96 521.688 1138.74 520.488C1137.53 519.272 1136.92 517.776 1136.92 516C1136.92 514.224 1137.53 512.736 1138.74 511.536C1139.96 510.32 1141.46 509.712 1143.23 509.712C1144.99 509.712 1146.48 510.32 1147.7 511.536C1148.93 512.736 1149.54 514.224 1149.54 516C1149.54 517.76 1148.93 519.256 1147.7 520.488ZM1139.87 519.384C1140.78 520.296 1141.9 520.752 1143.23 520.752C1144.56 520.752 1145.68 520.296 1146.59 519.384C1147.5 518.44 1147.96 517.312 1147.96 516C1147.96 514.672 1147.5 513.552 1146.59 512.64C1145.68 511.712 1144.56 511.248 1143.23 511.248C1141.9 511.248 1140.78 511.712 1139.87 512.64C1138.96 513.552 1138.5 514.672 1138.5 516C1138.5 517.312 1138.96 518.44 1139.87 519.384ZM1153.78 510V511.992C1154.52 510.536 1155.78 509.808 1157.57 509.808V511.344C1156.42 511.344 1155.5 511.68 1154.81 512.352C1154.12 513.008 1153.78 514 1153.78 515.328V522H1152.2V510H1153.78ZM1171.36 509.712C1172.8 509.712 1173.94 510.16 1174.79 511.056C1175.64 511.936 1176.06 513.128 1176.06 514.632V522H1174.48V514.632C1174.48 513.56 1174.19 512.728 1173.61 512.136C1173.05 511.544 1172.25 511.248 1171.21 511.248C1170.01 511.248 1169.06 511.624 1168.36 512.376C1167.67 513.128 1167.33 514.24 1167.33 515.712V522H1165.74V505.2H1167.33V511.872C1168.22 510.432 1169.57 509.712 1171.36 509.712ZM1184.67 509.712C1186.46 509.712 1187.89 510.344 1188.97 511.608C1190.07 512.856 1190.62 514.336 1190.62 516.048C1190.62 516.128 1190.61 516.376 1190.57 516.792H1180.04C1180.2 517.992 1180.71 518.952 1181.57 519.672C1182.44 520.392 1183.52 520.752 1184.81 520.752C1186.64 520.752 1187.93 520.072 1188.68 518.712L1190.07 519.528C1189.54 520.392 1188.81 521.072 1187.89 521.568C1186.97 522.048 1185.94 522.288 1184.79 522.288C1182.9 522.288 1181.37 521.696 1180.18 520.512C1179 519.328 1178.41 517.824 1178.41 516C1178.41 514.192 1178.99 512.696 1180.16 511.512C1181.33 510.312 1182.83 509.712 1184.67 509.712ZM1184.67 511.248C1183.42 511.248 1182.37 511.616 1181.53 512.352C1180.69 513.088 1180.2 514.056 1180.04 515.256H1188.99C1188.81 513.976 1188.33 512.992 1187.53 512.304C1186.69 511.6 1185.74 511.248 1184.67 511.248ZM1203.46 512.352V510H1205.04V522H1203.46V519.648C1202.36 521.408 1200.74 522.288 1198.61 522.288C1196.9 522.288 1195.44 521.68 1194.22 520.464C1193.02 519.248 1192.42 517.76 1192.42 516C1192.42 514.24 1193.02 512.752 1194.22 511.536C1195.44 510.32 1196.9 509.712 1198.61 509.712C1200.74 509.712 1202.36 510.592 1203.46 512.352ZM1195.37 519.384C1196.28 520.296 1197.4 520.752 1198.73 520.752C1200.06 520.752 1201.18 520.296 1202.09 519.384C1203 518.44 1203.46 517.312 1203.46 516C1203.46 514.672 1203 513.552 1202.09 512.64C1201.18 511.712 1200.06 511.248 1198.73 511.248C1197.4 511.248 1196.28 511.712 1195.37 512.64C1194.46 513.552 1194 514.672 1194 516C1194 517.312 1194.46 518.44 1195.37 519.384ZM1209.98 522H1208.4V504.48H1209.98V522ZM1219.7 510V511.536H1216.25V518.808C1216.25 519.464 1216.38 519.936 1216.63 520.224C1216.89 520.496 1217.27 520.64 1217.78 520.656C1218.3 520.656 1218.94 520.64 1219.7 520.608V522C1217.99 522.256 1216.72 522.136 1215.89 521.64C1215.07 521.128 1214.66 520.184 1214.66 518.808V511.536H1212.14V510H1214.66V507.12L1216.25 506.64V510H1219.7ZM1227.96 509.712C1229.4 509.712 1230.54 510.16 1231.39 511.056C1232.24 511.936 1232.66 513.128 1232.66 514.632V522H1231.08V514.632C1231.08 513.56 1230.79 512.728 1230.22 512.136C1229.66 511.544 1228.86 511.248 1227.82 511.248C1226.62 511.248 1225.66 511.624 1224.96 512.376C1224.27 513.128 1223.93 514.24 1223.93 515.712V522H1222.34V505.2H1223.93V511.872C1224.82 510.432 1226.17 509.712 1227.96 509.712ZM1240.24 520.056L1244.13 510H1245.81L1240.68 523.104C1240.2 524.32 1239.52 525.256 1238.66 525.912C1237.81 526.584 1236.87 526.88 1235.83 526.8V525.312C1237.27 525.488 1238.36 524.656 1239.12 522.816L1239.43 522.072L1234.05 510H1235.73L1240.24 520.056ZM1259.34 509.712C1260.78 509.712 1261.93 510.16 1262.77 511.056C1263.62 511.936 1264.05 513.128 1264.05 514.632V522H1262.46V514.632C1262.46 513.56 1262.17 512.728 1261.6 512.136C1261.04 511.544 1260.24 511.248 1259.2 511.248C1258 511.248 1257.05 511.624 1256.34 512.376C1255.65 513.128 1255.31 514.24 1255.31 515.712V522H1253.73V505.2H1255.31V511.872C1256.21 510.432 1257.55 509.712 1259.34 509.712ZM1277.43 512.352V510H1279.01V522H1277.43V519.648C1276.33 521.408 1274.71 522.288 1272.58 522.288C1270.87 522.288 1269.41 521.68 1268.19 520.464C1266.99 519.248 1266.39 517.76 1266.39 516C1266.39 514.24 1266.99 512.752 1268.19 511.536C1269.41 510.32 1270.87 509.712 1272.58 509.712C1274.71 509.712 1276.33 510.592 1277.43 512.352ZM1269.34 519.384C1270.25 520.296 1271.37 520.752 1272.7 520.752C1274.03 520.752 1275.15 520.296 1276.06 519.384C1276.97 518.44 1277.43 517.312 1277.43 516C1277.43 514.672 1276.97 513.552 1276.06 512.64C1275.15 511.712 1274.03 511.248 1272.7 511.248C1271.37 511.248 1270.25 511.712 1269.34 512.64C1268.43 513.552 1267.97 514.672 1267.97 516C1267.97 517.312 1268.43 518.44 1269.34 519.384ZM1288.8 509.712C1290.51 509.712 1291.97 510.32 1293.17 511.536C1294.38 512.752 1294.99 514.24 1294.99 516C1294.99 517.76 1294.38 519.248 1293.17 520.464C1291.97 521.68 1290.51 522.288 1288.8 522.288C1286.67 522.288 1285.06 521.408 1283.95 519.648V522H1282.37V505.2H1283.95V512.352C1285.06 510.592 1286.67 509.712 1288.8 509.712ZM1285.32 519.384C1286.23 520.296 1287.35 520.752 1288.68 520.752C1290.01 520.752 1291.13 520.296 1292.04 519.384C1292.95 518.44 1293.41 517.312 1293.41 516C1293.41 514.672 1292.95 513.552 1292.04 512.64C1291.13 511.712 1290.01 511.248 1288.68 511.248C1287.35 511.248 1286.23 511.712 1285.32 512.64C1284.41 513.552 1283.95 514.672 1283.95 516C1283.95 517.312 1284.41 518.44 1285.32 519.384ZM1299.57 506.304C1299.57 506.624 1299.46 506.896 1299.23 507.12C1299.01 507.344 1298.74 507.456 1298.42 507.456C1298.1 507.456 1297.83 507.344 1297.6 507.12C1297.38 506.896 1297.27 506.624 1297.27 506.304C1297.27 505.984 1297.38 505.712 1297.6 505.488C1297.83 505.264 1298.1 505.152 1298.42 505.152C1298.74 505.152 1299.01 505.264 1299.23 505.488C1299.46 505.712 1299.57 505.984 1299.57 506.304ZM1299.21 522H1297.63V510H1299.21V522ZM1308.93 510V511.536H1305.47V518.808C1305.47 519.464 1305.6 519.936 1305.86 520.224C1306.11 520.496 1306.5 520.64 1307.01 520.656C1307.52 520.656 1308.16 520.64 1308.93 520.608V522C1307.22 522.256 1305.95 522.136 1305.11 521.64C1304.3 521.128 1303.89 520.184 1303.89 518.808V511.536H1301.37V510H1303.89V507.12L1305.47 506.64V510H1308.93ZM1312.09 513.144C1312.09 514.072 1312.92 514.752 1314.56 515.184C1315.03 515.296 1315.33 515.376 1315.48 515.424C1315.62 515.456 1315.9 515.544 1316.32 515.688C1316.75 515.816 1317.04 515.928 1317.2 516.024C1317.38 516.12 1317.62 516.272 1317.92 516.48C1318.23 516.672 1318.44 516.872 1318.57 517.08C1318.7 517.272 1318.82 517.528 1318.93 517.848C1319.04 518.152 1319.1 518.48 1319.1 518.832C1319.1 519.856 1318.69 520.688 1317.88 521.328C1317.09 521.968 1316.05 522.288 1314.76 522.288C1313.64 522.288 1312.67 522.04 1311.85 521.544C1311.04 521.032 1310.46 520.36 1310.12 519.528L1311.47 518.736C1311.69 519.36 1312.09 519.856 1312.67 520.224C1313.26 520.576 1313.96 520.752 1314.76 520.752C1315.57 520.752 1316.24 520.592 1316.75 520.272C1317.26 519.952 1317.52 519.472 1317.52 518.832C1317.52 517.904 1316.69 517.224 1315.04 516.792C1314.58 516.68 1314.28 516.608 1314.13 516.576C1313.99 516.528 1313.7 516.44 1313.27 516.312C1312.85 516.168 1312.56 516.048 1312.38 515.952C1312.22 515.856 1311.99 515.712 1311.68 515.52C1311.38 515.312 1311.16 515.112 1311.04 514.92C1310.91 514.712 1310.79 514.456 1310.68 514.152C1310.56 513.832 1310.51 513.496 1310.51 513.144C1310.51 512.168 1310.89 511.352 1311.66 510.696C1312.46 510.04 1313.44 509.712 1314.61 509.712C1315.57 509.712 1316.42 509.928 1317.16 510.36C1317.91 510.792 1318.46 511.392 1318.81 512.16L1317.49 512.928C1317.04 511.808 1316.08 511.248 1314.61 511.248C1313.89 511.248 1313.29 511.416 1312.81 511.752C1312.33 512.088 1312.09 512.552 1312.09 513.144Z" fill="#323232"/>
</g>
<path opacity="0.5" d="M369.5 268L375.274 258H363.726L369.5 268ZM713.5 175V208H715.5V175H713.5ZM706.5 215H377.5V217H706.5V215ZM368.5 224V259H370.5V224H368.5ZM377.5 215C372.529 215 368.5 219.029 368.5 224H370.5C370.5 220.134 373.634 217 377.5 217V215ZM713.5 208C713.5 211.866 710.366 215 706.5 215V217C711.471 217 715.5 212.971 715.5 208H713.5Z" fill="#239FFB"/>
<path opacity="0.5" d="M202 436L207.774 426H196.226L202 436ZM366 371V390H368V371H366ZM359 397H210V399H359V397ZM201 406V427H203V406H201ZM210 397C205.029 397 201 401.029 201 406H203C203 402.134 206.134 399 210 399V397ZM366 390C366 393.866 362.866 397 359 397V399C363.971 399 368 394.971 368 390H366Z" fill="#239FFB"/>
<path opacity="0.5" d="M858 436L863.774 426H852.226L858 436ZM1042 371V390H1044V371H1042ZM1035 397H866V399H1035V397ZM857 406V427H859V406H857ZM866 397C861.029 397 857 401.029 857 406H859C859 402.134 862.134 399 866 399V397ZM1042 390C1042 393.866 1038.87 397 1035 397V399C1039.97 399 1044 394.971 1044 390H1042Z" fill="#239FFB"/>
<path opacity="0.5" d="M858 609L863.774 599L852.226 599L858 609ZM857 542L857 600L859 600L859 542L857 542Z" fill="#239FFB"/>
<path opacity="0.5" d="M1225 609L1230.77 599L1219.23 599L1225 609ZM1224 574L1224 600L1226 600L1226 574L1224 574Z" fill="#239FFB"/>
<path opacity="0.5" d="M539 539V561C539 565.418 535.418 569 531 569H373" stroke="#239FFB" stroke-width="2"/>
<path opacity="0.5" d="M539 436L533.226 426H544.774L539 436ZM375 371V390H373V371H375ZM382 397H531V399H382V397ZM540 406V427H538V406H540ZM531 397C535.971 397 540 401.029 540 406H538C538 402.134 534.866 399 531 399V397ZM375 390C375 393.866 378.134 397 382 397V399C377.029 399 373 394.971 373 390H375Z" fill="#239FFB"/>
<path opacity="0.5" d="M1225 436L1219.23 426H1230.77L1225 436ZM1051 371V390H1049V371H1051ZM1058 397H1217V399H1058V397ZM1226 406V427H1224V406H1226ZM1217 397C1221.97 397 1226 401.029 1226 406H1224C1224 402.134 1220.87 399 1217 399V397ZM1051 390C1051 393.866 1054.13 397 1058 397V399C1053.03 399 1049 394.971 1049 390H1051Z" fill="#239FFB"/>
<path opacity="0.5" d="M372 569V568H373V569H372ZM372 607L366.226 597H377.774L372 607ZM203 539V561H201V539H203ZM210 568H372V570H210V568ZM373 569V598H371V569H373ZM203 561C203 564.866 206.134 568 210 568V570C205.029 570 201 565.971 201 561H203Z" fill="#239FFB"/>
<path opacity="0.5" d="M1047 268L1041.23 258H1052.77L1047 268ZM725 175V208H723V175H725ZM732 215H1039V217H732V215ZM1048 224V259H1046V224H1048ZM1039 215C1043.97 215 1048 219.029 1048 224H1046C1046 220.134 1042.87 217 1039 217V215ZM725 208C725 211.866 728.134 215 732 215V217C727.029 217 723 212.971 723 208H725Z" fill="#239FFB"/>
<defs>
<filter id="filter0_ddddii_1664_1606" x="0" y="0" width="1473" height="868" filterUnits="userSpaceOnUse" color-interpolation-filters="sRGB">
<feFlood flood-opacity="0" result="BackgroundImageFix"/>
<feColorMatrix in="SourceAlpha" type="matrix" values="0 0 0 0 0 0 0 0 0 0 0 0 0 0 0 0 0 0 127 0" result="hardAlpha"/>
<feOffset dx="5" dy="5"/>
<feGaussianBlur stdDeviation="6.5"/>
<feColorMatrix type="matrix" values="0 0 0 0 0.819608 0 0 0 0 0.85098 0 0 0 0 0.901961 0 0 0 0.9 0"/>
<feBlend mode="normal" in2="BackgroundImageFix" result="effect1_dropShadow_1664_1606"/>
<feColorMatrix in="SourceAlpha" type="matrix" values="0 0 0 0 0 0 0 0 0 0 0 0 0 0 0 0 0 0 127 0" result="hardAlpha"/>
<feOffset dx="-5" dy="-5"/>
<feGaussianBlur stdDeviation="5"/>
<feColorMatrix type="matrix" values="0 0 0 0 1 0 0 0 0 1 0 0 0 0 1 0 0 0 0.9 0"/>
<feBlend mode="normal" in2="effect1_dropShadow_1664_1606" result="effect2_dropShadow_1664_1606"/>
<feColorMatrix in="SourceAlpha" type="matrix" values="0 0 0 0 0 0 0 0 0 0 0 0 0 0 0 0 0 0 127 0" result="hardAlpha"/>
<feOffset dx="5" dy="-5"/>
<feGaussianBlur stdDeviation="5"/>
<feColorMatrix type="matrix" values="0 0 0 0 0.819608 0 0 0 0 0.85098 0 0 0 0 0.901961 0 0 0 0.2 0"/>
<feBlend mode="normal" in2="effect2_dropShadow_1664_1606" result="effect3_dropShadow_1664_1606"/>
<feColorMatrix in="SourceAlpha" type="matrix" values="0 0 0 0 0 0 0 0 0 0 0 0 0 0 0 0 0 0 127 0" result="hardAlpha"/>
<feOffset dx="-5" dy="5"/>
<feGaussianBlur stdDeviation="5"/>
<feColorMatrix type="matrix" values="0 0 0 0 0.819608 0 0 0 0 0.85098 0 0 0 0 0.901961 0 0 0 0.2 0"/>
<feBlend mode="normal" in2="effect3_dropShadow_1664_1606" result="effect4_dropShadow_1664_1606"/>
<feBlend mode="normal" in="SourceGraphic" in2="effect4_dropShadow_1664_1606" result="shape"/>
<feColorMatrix in="SourceAlpha" type="matrix" values="0 0 0 0 0 0 0 0 0 0 0 0 0 0 0 0 0 0 127 0" result="hardAlpha"/>
<feOffset dx="-1" dy="-1"/>
<feGaussianBlur stdDeviation="1"/>
<feComposite in2="hardAlpha" operator="arithmetic" k2="-1" k3="1"/>
<feColorMatrix type="matrix" values="0 0 0 0 0.819608 0 0 0 0 0.85098 0 0 0 0 0.901961 0 0 0 0.5 0"/>
<feBlend mode="normal" in2="shape" result="effect5_innerShadow_1664_1606"/>
<feColorMatrix in="SourceAlpha" type="matrix" values="0 0 0 0 0 0 0 0 0 0 0 0 0 0 0 0 0 0 127 0" result="hardAlpha"/>
<feOffset dx="1" dy="1"/>
<feGaussianBlur stdDeviation="1"/>
<feComposite in2="hardAlpha" operator="arithmetic" k2="-1" k3="1"/>
<feColorMatrix type="matrix" values="0 0 0 0 1 0 0 0 0 1 0 0 0 0 1 0 0 0 0.3 0"/>
<feBlend mode="normal" in2="effect5_innerShadow_1664_1606" result="effect6_innerShadow_1664_1606"/>
</filter>
<filter id="filter1_f_1664_1606" x="311.065" y="611.009" width="121.842" height="69.6212" filterUnits="userSpaceOnUse" color-interpolation-filters="sRGB">
<feFlood flood-opacity="0" result="BackgroundImageFix"/>
<feBlend mode="normal" in="SourceGraphic" in2="BackgroundImageFix" result="shape"/>
<feGaussianBlur stdDeviation="4.92568" result="effect1_foregroundBlur_1664_1606"/>
</filter>
<filter id="filter2_ddddii_1664_1606" x="84" y="435" width="219" height="103" filterUnits="userSpaceOnUse" color-interpolation-filters="sRGB">
<feFlood flood-opacity="0" result="BackgroundImageFix"/>
<feColorMatrix in="SourceAlpha" type="matrix" values="0 0 0 0 0 0 0 0 0 0 0 0 0 0 0 0 0 0 127 0" result="hardAlpha"/>
<feOffset dx="5" dy="5"/>
<feGaussianBlur stdDeviation="6.5"/>
<feColorMatrix type="matrix" values="0 0 0 0 0.819608 0 0 0 0 0.85098 0 0 0 0 0.901961 0 0 0 0.9 0"/>
<feBlend mode="normal" in2="BackgroundImageFix" result="effect1_dropShadow_1664_1606"/>
<feColorMatrix in="SourceAlpha" type="matrix" values="0 0 0 0 0 0 0 0 0 0 0 0 0 0 0 0 0 0 127 0" result="hardAlpha"/>
<feOffset dx="-5" dy="-5"/>
<feGaussianBlur stdDeviation="5"/>
<feColorMatrix type="matrix" values="0 0 0 0 1 0 0 0 0 1 0 0 0 0 1 0 0 0 0.9 0"/>
<feBlend mode="normal" in2="effect1_dropShadow_1664_1606" result="effect2_dropShadow_1664_1606"/>
<feColorMatrix in="SourceAlpha" type="matrix" values="0 0 0 0 0 0 0 0 0 0 0 0 0 0 0 0 0 0 127 0" result="hardAlpha"/>
<feOffset dx="5" dy="-5"/>
<feGaussianBlur stdDeviation="5"/>
<feColorMatrix type="matrix" values="0 0 0 0 0.819608 0 0 0 0 0.85098 0 0 0 0 0.901961 0 0 0 0.2 0"/>
<feBlend mode="normal" in2="effect2_dropShadow_1664_1606" result="effect3_dropShadow_1664_1606"/>
<feColorMatrix in="SourceAlpha" type="matrix" values="0 0 0 0 0 0 0 0 0 0 0 0 0 0 0 0 0 0 127 0" result="hardAlpha"/>
<feOffset dx="-5" dy="5"/>
<feGaussianBlur stdDeviation="5"/>
<feColorMatrix type="matrix" values="0 0 0 0 0.819608 0 0 0 0 0.85098 0 0 0 0 0.901961 0 0 0 0.2 0"/>
<feBlend mode="normal" in2="effect3_dropShadow_1664_1606" result="effect4_dropShadow_1664_1606"/>
<feBlend mode="normal" in="SourceGraphic" in2="effect4_dropShadow_1664_1606" result="shape"/>
<feColorMatrix in="SourceAlpha" type="matrix" values="0 0 0 0 0 0 0 0 0 0 0 0 0 0 0 0 0 0 127 0" result="hardAlpha"/>
<feOffset dx="-1" dy="-1"/>
<feGaussianBlur stdDeviation="1"/>
<feComposite in2="hardAlpha" operator="arithmetic" k2="-1" k3="1"/>
<feColorMatrix type="matrix" values="0 0 0 0 0.819608 0 0 0 0 0.85098 0 0 0 0 0.901961 0 0 0 0.5 0"/>
<feBlend mode="normal" in2="shape" result="effect5_innerShadow_1664_1606"/>
<feColorMatrix in="SourceAlpha" type="matrix" values="0 0 0 0 0 0 0 0 0 0 0 0 0 0 0 0 0 0 127 0" result="hardAlpha"/>
<feOffset dx="1" dy="1"/>
<feGaussianBlur stdDeviation="1"/>
<feComposite in2="hardAlpha" operator="arithmetic" k2="-1" k3="1"/>
<feColorMatrix type="matrix" values="0 0 0 0 1 0 0 0 0 1 0 0 0 0 1 0 0 0 0.3 0"/>
<feBlend mode="normal" in2="effect5_innerShadow_1664_1606" result="effect6_innerShadow_1664_1606"/>
</filter>
<filter id="filter3_ddddii_1664_1606" x="252" y="267" width="219" height="103" filterUnits="userSpaceOnUse" color-interpolation-filters="sRGB">
<feFlood flood-opacity="0" result="BackgroundImageFix"/>
<feColorMatrix in="SourceAlpha" type="matrix" values="0 0 0 0 0 0 0 0 0 0 0 0 0 0 0 0 0 0 127 0" result="hardAlpha"/>
<feOffset dx="5" dy="5"/>
<feGaussianBlur stdDeviation="6.5"/>
<feColorMatrix type="matrix" values="0 0 0 0 0.819608 0 0 0 0 0.85098 0 0 0 0 0.901961 0 0 0 0.9 0"/>
<feBlend mode="normal" in2="BackgroundImageFix" result="effect1_dropShadow_1664_1606"/>
<feColorMatrix in="SourceAlpha" type="matrix" values="0 0 0 0 0 0 0 0 0 0 0 0 0 0 0 0 0 0 127 0" result="hardAlpha"/>
<feOffset dx="-5" dy="-5"/>
<feGaussianBlur stdDeviation="5"/>
<feColorMatrix type="matrix" values="0 0 0 0 1 0 0 0 0 1 0 0 0 0 1 0 0 0 0.9 0"/>
<feBlend mode="normal" in2="effect1_dropShadow_1664_1606" result="effect2_dropShadow_1664_1606"/>
<feColorMatrix in="SourceAlpha" type="matrix" values="0 0 0 0 0 0 0 0 0 0 0 0 0 0 0 0 0 0 127 0" result="hardAlpha"/>
<feOffset dx="5" dy="-5"/>
<feGaussianBlur stdDeviation="5"/>
<feColorMatrix type="matrix" values="0 0 0 0 0.819608 0 0 0 0 0.85098 0 0 0 0 0.901961 0 0 0 0.2 0"/>
<feBlend mode="normal" in2="effect2_dropShadow_1664_1606" result="effect3_dropShadow_1664_1606"/>
<feColorMatrix in="SourceAlpha" type="matrix" values="0 0 0 0 0 0 0 0 0 0 0 0 0 0 0 0 0 0 127 0" result="hardAlpha"/>
<feOffset dx="-5" dy="5"/>
<feGaussianBlur stdDeviation="5"/>
<feColorMatrix type="matrix" values="0 0 0 0 0.819608 0 0 0 0 0.85098 0 0 0 0 0.901961 0 0 0 0.2 0"/>
<feBlend mode="normal" in2="effect3_dropShadow_1664_1606" result="effect4_dropShadow_1664_1606"/>
<feBlend mode="normal" in="SourceGraphic" in2="effect4_dropShadow_1664_1606" result="shape"/>
<feColorMatrix in="SourceAlpha" type="matrix" values="0 0 0 0 0 0 0 0 0 0 0 0 0 0 0 0 0 0 127 0" result="hardAlpha"/>
<feOffset dx="-1" dy="-1"/>
<feGaussianBlur stdDeviation="1"/>
<feComposite in2="hardAlpha" operator="arithmetic" k2="-1" k3="1"/>
<feColorMatrix type="matrix" values="0 0 0 0 0.819608 0 0 0 0 0.85098 0 0 0 0 0.901961 0 0 0 0.5 0"/>
<feBlend mode="normal" in2="shape" result="effect5_innerShadow_1664_1606"/>
<feColorMatrix in="SourceAlpha" type="matrix" values="0 0 0 0 0 0 0 0 0 0 0 0 0 0 0 0 0 0 127 0" result="hardAlpha"/>
<feOffset dx="1" dy="1"/>
<feGaussianBlur stdDeviation="1"/>
<feComposite in2="hardAlpha" operator="arithmetic" k2="-1" k3="1"/>
<feColorMatrix type="matrix" values="0 0 0 0 1 0 0 0 0 1 0 0 0 0 1 0 0 0 0.3 0"/>
<feBlend mode="normal" in2="effect5_innerShadow_1664_1606" result="effect6_innerShadow_1664_1606"/>
</filter>
<filter id="filter4_ddddii_1664_1606" x="888" y="267" width="321" height="103" filterUnits="userSpaceOnUse" color-interpolation-filters="sRGB">
<feFlood flood-opacity="0" result="BackgroundImageFix"/>
<feColorMatrix in="SourceAlpha" type="matrix" values="0 0 0 0 0 0 0 0 0 0 0 0 0 0 0 0 0 0 127 0" result="hardAlpha"/>
<feOffset dx="5" dy="5"/>
<feGaussianBlur stdDeviation="6.5"/>
<feColorMatrix type="matrix" values="0 0 0 0 0.819608 0 0 0 0 0.85098 0 0 0 0 0.901961 0 0 0 0.9 0"/>
<feBlend mode="normal" in2="BackgroundImageFix" result="effect1_dropShadow_1664_1606"/>
<feColorMatrix in="SourceAlpha" type="matrix" values="0 0 0 0 0 0 0 0 0 0 0 0 0 0 0 0 0 0 127 0" result="hardAlpha"/>
<feOffset dx="-5" dy="-5"/>
<feGaussianBlur stdDeviation="5"/>
<feColorMatrix type="matrix" values="0 0 0 0 1 0 0 0 0 1 0 0 0 0 1 0 0 0 0.9 0"/>
<feBlend mode="normal" in2="effect1_dropShadow_1664_1606" result="effect2_dropShadow_1664_1606"/>
<feColorMatrix in="SourceAlpha" type="matrix" values="0 0 0 0 0 0 0 0 0 0 0 0 0 0 0 0 0 0 127 0" result="hardAlpha"/>
<feOffset dx="5" dy="-5"/>
<feGaussianBlur stdDeviation="5"/>
<feColorMatrix type="matrix" values="0 0 0 0 0.819608 0 0 0 0 0.85098 0 0 0 0 0.901961 0 0 0 0.2 0"/>
<feBlend mode="normal" in2="effect2_dropShadow_1664_1606" result="effect3_dropShadow_1664_1606"/>
<feColorMatrix in="SourceAlpha" type="matrix" values="0 0 0 0 0 0 0 0 0 0 0 0 0 0 0 0 0 0 127 0" result="hardAlpha"/>
<feOffset dx="-5" dy="5"/>
<feGaussianBlur stdDeviation="5"/>
<feColorMatrix type="matrix" values="0 0 0 0 0.819608 0 0 0 0 0.85098 0 0 0 0 0.901961 0 0 0 0.2 0"/>
<feBlend mode="normal" in2="effect3_dropShadow_1664_1606" result="effect4_dropShadow_1664_1606"/>
<feBlend mode="normal" in="SourceGraphic" in2="effect4_dropShadow_1664_1606" result="shape"/>
<feColorMatrix in="SourceAlpha" type="matrix" values="0 0 0 0 0 0 0 0 0 0 0 0 0 0 0 0 0 0 127 0" result="hardAlpha"/>
<feOffset dx="-1" dy="-1"/>
<feGaussianBlur stdDeviation="1"/>
<feComposite in2="hardAlpha" operator="arithmetic" k2="-1" k3="1"/>
<feColorMatrix type="matrix" values="0 0 0 0 0.819608 0 0 0 0 0.85098 0 0 0 0 0.901961 0 0 0 0.5 0"/>
<feBlend mode="normal" in2="shape" result="effect5_innerShadow_1664_1606"/>
<feColorMatrix in="SourceAlpha" type="matrix" values="0 0 0 0 0 0 0 0 0 0 0 0 0 0 0 0 0 0 127 0" result="hardAlpha"/>
<feOffset dx="1" dy="1"/>
<feGaussianBlur stdDeviation="1"/>
<feComposite in2="hardAlpha" operator="arithmetic" k2="-1" k3="1"/>
<feColorMatrix type="matrix" values="0 0 0 0 1 0 0 0 0 1 0 0 0 0 1 0 0 0 0.3 0"/>
<feBlend mode="normal" in2="effect5_innerShadow_1664_1606" result="effect6_innerShadow_1664_1606"/>
</filter>
<filter id="filter5_ddddii_1664_1606" x="407" y="435" width="267" height="103" filterUnits="userSpaceOnUse" color-interpolation-filters="sRGB">
<feFlood flood-opacity="0" result="BackgroundImageFix"/>
<feColorMatrix in="SourceAlpha" type="matrix" values="0 0 0 0 0 0 0 0 0 0 0 0 0 0 0 0 0 0 127 0" result="hardAlpha"/>
<feOffset dx="5" dy="5"/>
<feGaussianBlur stdDeviation="6.5"/>
<feColorMatrix type="matrix" values="0 0 0 0 0.819608 0 0 0 0 0.85098 0 0 0 0 0.901961 0 0 0 0.9 0"/>
<feBlend mode="normal" in2="BackgroundImageFix" result="effect1_dropShadow_1664_1606"/>
<feColorMatrix in="SourceAlpha" type="matrix" values="0 0 0 0 0 0 0 0 0 0 0 0 0 0 0 0 0 0 127 0" result="hardAlpha"/>
<feOffset dx="-5" dy="-5"/>
<feGaussianBlur stdDeviation="5"/>
<feColorMatrix type="matrix" values="0 0 0 0 1 0 0 0 0 1 0 0 0 0 1 0 0 0 0.9 0"/>
<feBlend mode="normal" in2="effect1_dropShadow_1664_1606" result="effect2_dropShadow_1664_1606"/>
<feColorMatrix in="SourceAlpha" type="matrix" values="0 0 0 0 0 0 0 0 0 0 0 0 0 0 0 0 0 0 127 0" result="hardAlpha"/>
<feOffset dx="5" dy="-5"/>
<feGaussianBlur stdDeviation="5"/>
<feColorMatrix type="matrix" values="0 0 0 0 0.819608 0 0 0 0 0.85098 0 0 0 0 0.901961 0 0 0 0.2 0"/>
<feBlend mode="normal" in2="effect2_dropShadow_1664_1606" result="effect3_dropShadow_1664_1606"/>
<feColorMatrix in="SourceAlpha" type="matrix" values="0 0 0 0 0 0 0 0 0 0 0 0 0 0 0 0 0 0 127 0" result="hardAlpha"/>
<feOffset dx="-5" dy="5"/>
<feGaussianBlur stdDeviation="5"/>
<feColorMatrix type="matrix" values="0 0 0 0 0.819608 0 0 0 0 0.85098 0 0 0 0 0.901961 0 0 0 0.2 0"/>
<feBlend mode="normal" in2="effect3_dropShadow_1664_1606" result="effect4_dropShadow_1664_1606"/>
<feBlend mode="normal" in="SourceGraphic" in2="effect4_dropShadow_1664_1606" result="shape"/>
<feColorMatrix in="SourceAlpha" type="matrix" values="0 0 0 0 0 0 0 0 0 0 0 0 0 0 0 0 0 0 127 0" result="hardAlpha"/>
<feOffset dx="-1" dy="-1"/>
<feGaussianBlur stdDeviation="1"/>
<feComposite in2="hardAlpha" operator="arithmetic" k2="-1" k3="1"/>
<feColorMatrix type="matrix" values="0 0 0 0 0.819608 0 0 0 0 0.85098 0 0 0 0 0.901961 0 0 0 0.5 0"/>
<feBlend mode="normal" in2="shape" result="effect5_innerShadow_1664_1606"/>
<feColorMatrix in="SourceAlpha" type="matrix" values="0 0 0 0 0 0 0 0 0 0 0 0 0 0 0 0 0 0 127 0" result="hardAlpha"/>
<feOffset dx="1" dy="1"/>
<feGaussianBlur stdDeviation="1"/>
<feComposite in2="hardAlpha" operator="arithmetic" k2="-1" k3="1"/>
<feColorMatrix type="matrix" values="0 0 0 0 1 0 0 0 0 1 0 0 0 0 1 0 0 0 0.3 0"/>
<feBlend mode="normal" in2="effect5_innerShadow_1664_1606" result="effect6_innerShadow_1664_1606"/>
</filter>
<filter id="filter6_ddddii_1664_1606" x="740" y="435" width="238" height="103" filterUnits="userSpaceOnUse" color-interpolation-filters="sRGB">
<feFlood flood-opacity="0" result="BackgroundImageFix"/>
<feColorMatrix in="SourceAlpha" type="matrix" values="0 0 0 0 0 0 0 0 0 0 0 0 0 0 0 0 0 0 127 0" result="hardAlpha"/>
<feOffset dx="5" dy="5"/>
<feGaussianBlur stdDeviation="6.5"/>
<feColorMatrix type="matrix" values="0 0 0 0 0.819608 0 0 0 0 0.85098 0 0 0 0 0.901961 0 0 0 0.9 0"/>
<feBlend mode="normal" in2="BackgroundImageFix" result="effect1_dropShadow_1664_1606"/>
<feColorMatrix in="SourceAlpha" type="matrix" values="0 0 0 0 0 0 0 0 0 0 0 0 0 0 0 0 0 0 127 0" result="hardAlpha"/>
<feOffset dx="-5" dy="-5"/>
<feGaussianBlur stdDeviation="5"/>
<feColorMatrix type="matrix" values="0 0 0 0 1 0 0 0 0 1 0 0 0 0 1 0 0 0 0.9 0"/>
<feBlend mode="normal" in2="effect1_dropShadow_1664_1606" result="effect2_dropShadow_1664_1606"/>
<feColorMatrix in="SourceAlpha" type="matrix" values="0 0 0 0 0 0 0 0 0 0 0 0 0 0 0 0 0 0 127 0" result="hardAlpha"/>
<feOffset dx="5" dy="-5"/>
<feGaussianBlur stdDeviation="5"/>
<feColorMatrix type="matrix" values="0 0 0 0 0.819608 0 0 0 0 0.85098 0 0 0 0 0.901961 0 0 0 0.2 0"/>
<feBlend mode="normal" in2="effect2_dropShadow_1664_1606" result="effect3_dropShadow_1664_1606"/>
<feColorMatrix in="SourceAlpha" type="matrix" values="0 0 0 0 0 0 0 0 0 0 0 0 0 0 0 0 0 0 127 0" result="hardAlpha"/>
<feOffset dx="-5" dy="5"/>
<feGaussianBlur stdDeviation="5"/>
<feColorMatrix type="matrix" values="0 0 0 0 0.819608 0 0 0 0 0.85098 0 0 0 0 0.901961 0 0 0 0.2 0"/>
<feBlend mode="normal" in2="effect3_dropShadow_1664_1606" result="effect4_dropShadow_1664_1606"/>
<feBlend mode="normal" in="SourceGraphic" in2="effect4_dropShadow_1664_1606" result="shape"/>
<feColorMatrix in="SourceAlpha" type="matrix" values="0 0 0 0 0 0 0 0 0 0 0 0 0 0 0 0 0 0 127 0" result="hardAlpha"/>
<feOffset dx="-1" dy="-1"/>
<feGaussianBlur stdDeviation="1"/>
<feComposite in2="hardAlpha" operator="arithmetic" k2="-1" k3="1"/>
<feColorMatrix type="matrix" values="0 0 0 0 0.819608 0 0 0 0 0.85098 0 0 0 0 0.901961 0 0 0 0.5 0"/>
<feBlend mode="normal" in2="shape" result="effect5_innerShadow_1664_1606"/>
<feColorMatrix in="SourceAlpha" type="matrix" values="0 0 0 0 0 0 0 0 0 0 0 0 0 0 0 0 0 0 127 0" result="hardAlpha"/>
<feOffset dx="1" dy="1"/>
<feGaussianBlur stdDeviation="1"/>
<feComposite in2="hardAlpha" operator="arithmetic" k2="-1" k3="1"/>
<feColorMatrix type="matrix" values="0 0 0 0 1 0 0 0 0 1 0 0 0 0 1 0 0 0 0.3 0"/>
<feBlend mode="normal" in2="effect5_innerShadow_1664_1606" result="effect6_innerShadow_1664_1606"/>
</filter>
<filter id="filter7_ddddii_1664_1606" x="1074" y="435" width="305" height="133" filterUnits="userSpaceOnUse" color-interpolation-filters="sRGB">
<feFlood flood-opacity="0" result="BackgroundImageFix"/>
<feColorMatrix in="SourceAlpha" type="matrix" values="0 0 0 0 0 0 0 0 0 0 0 0 0 0 0 0 0 0 127 0" result="hardAlpha"/>
<feOffset dx="5" dy="5"/>
<feGaussianBlur stdDeviation="6.5"/>
<feColorMatrix type="matrix" values="0 0 0 0 0.819608 0 0 0 0 0.85098 0 0 0 0 0.901961 0 0 0 0.9 0"/>
<feBlend mode="normal" in2="BackgroundImageFix" result="effect1_dropShadow_1664_1606"/>
<feColorMatrix in="SourceAlpha" type="matrix" values="0 0 0 0 0 0 0 0 0 0 0 0 0 0 0 0 0 0 127 0" result="hardAlpha"/>
<feOffset dx="-5" dy="-5"/>
<feGaussianBlur stdDeviation="5"/>
<feColorMatrix type="matrix" values="0 0 0 0 1 0 0 0 0 1 0 0 0 0 1 0 0 0 0.9 0"/>
<feBlend mode="normal" in2="effect1_dropShadow_1664_1606" result="effect2_dropShadow_1664_1606"/>
<feColorMatrix in="SourceAlpha" type="matrix" values="0 0 0 0 0 0 0 0 0 0 0 0 0 0 0 0 0 0 127 0" result="hardAlpha"/>
<feOffset dx="5" dy="-5"/>
<feGaussianBlur stdDeviation="5"/>
<feColorMatrix type="matrix" values="0 0 0 0 0.819608 0 0 0 0 0.85098 0 0 0 0 0.901961 0 0 0 0.2 0"/>
<feBlend mode="normal" in2="effect2_dropShadow_1664_1606" result="effect3_dropShadow_1664_1606"/>
<feColorMatrix in="SourceAlpha" type="matrix" values="0 0 0 0 0 0 0 0 0 0 0 0 0 0 0 0 0 0 127 0" result="hardAlpha"/>
<feOffset dx="-5" dy="5"/>
<feGaussianBlur stdDeviation="5"/>
<feColorMatrix type="matrix" values="0 0 0 0 0.819608 0 0 0 0 0.85098 0 0 0 0 0.901961 0 0 0 0.2 0"/>
<feBlend mode="normal" in2="effect3_dropShadow_1664_1606" result="effect4_dropShadow_1664_1606"/>
<feBlend mode="normal" in="SourceGraphic" in2="effect4_dropShadow_1664_1606" result="shape"/>
<feColorMatrix in="SourceAlpha" type="matrix" values="0 0 0 0 0 0 0 0 0 0 0 0 0 0 0 0 0 0 127 0" result="hardAlpha"/>
<feOffset dx="-1" dy="-1"/>
<feGaussianBlur stdDeviation="1"/>
<feComposite in2="hardAlpha" operator="arithmetic" k2="-1" k3="1"/>
<feColorMatrix type="matrix" values="0 0 0 0 0.819608 0 0 0 0 0.85098 0 0 0 0 0.901961 0 0 0 0.5 0"/>
<feBlend mode="normal" in2="shape" result="effect5_innerShadow_1664_1606"/>
<feColorMatrix in="SourceAlpha" type="matrix" values="0 0 0 0 0 0 0 0 0 0 0 0 0 0 0 0 0 0 127 0" result="hardAlpha"/>
<feOffset dx="1" dy="1"/>
<feGaussianBlur stdDeviation="1"/>
<feComposite in2="hardAlpha" operator="arithmetic" k2="-1" k3="1"/>
<feColorMatrix type="matrix" values="0 0 0 0 1 0 0 0 0 1 0 0 0 0 1 0 0 0 0.3 0"/>
<feBlend mode="normal" in2="effect5_innerShadow_1664_1606" result="effect6_innerShadow_1664_1606"/>
</filter>
<linearGradient id="paint0_linear_1664_1606" x1="1341.07" y1="633.911" x2="1384.46" y2="681.778" gradientUnits="userSpaceOnUse">
<stop stop-color="#C86BCC"/>
<stop offset="1" stop-color="#9C7BE3"/>
</linearGradient>
<linearGradient id="paint1_linear_1664_1606" x1="1341.07" y1="633.911" x2="1384.46" y2="681.778" gradientUnits="userSpaceOnUse">
<stop stop-color="#C86BCC"/>
<stop offset="1" stop-color="#9C7BE3"/>
</linearGradient>
<linearGradient id="paint2_linear_1664_1606" x1="1072.93" y1="631.696" x2="1094.77" y2="684.436" gradientUnits="userSpaceOnUse">
<stop stop-color="#C86BCC"/>
<stop offset="1" stop-color="#9C7BE3"/>
</linearGradient>
<linearGradient id="paint3_linear_1664_1606" x1="1101.47" y1="631.696" x2="1123.31" y2="684.436" gradientUnits="userSpaceOnUse">
<stop stop-color="#C86BCC"/>
<stop offset="1" stop-color="#9C7BE3"/>
</linearGradient>
<linearGradient id="paint4_linear_1664_1606" x1="1101.47" y1="631.696" x2="1123.31" y2="684.436" gradientUnits="userSpaceOnUse">
<stop stop-color="#C86BCC"/>
<stop offset="1" stop-color="#9C7BE3"/>
</linearGradient>
<linearGradient id="paint5_linear_1664_1606" x1="1130.01" y1="631.696" x2="1151.85" y2="684.436" gradientUnits="userSpaceOnUse">
<stop stop-color="#C86BCC"/>
<stop offset="1" stop-color="#9C7BE3"/>
</linearGradient>
<linearGradient id="paint6_linear_1664_1606" x1="1130.01" y1="631.696" x2="1151.85" y2="684.436" gradientUnits="userSpaceOnUse">
<stop stop-color="#C86BCC"/>
<stop offset="1" stop-color="#9C7BE3"/>
</linearGradient>
<linearGradient id="paint7_linear_1664_1606" x1="307.871" y1="656.027" x2="436.156" y2="656.027" gradientUnits="userSpaceOnUse">
<stop stop-color="#04D6EE"/>
<stop offset="1" stop-color="#157BD1"/>
</linearGradient>
<linearGradient id="paint8_linear_1664_1606" x1="307.871" y1="656.027" x2="436.156" y2="656.027" gradientUnits="userSpaceOnUse">
<stop stop-color="#04D6EE"/>
<stop offset="1" stop-color="#157BD1"/>
</linearGradient>
<linearGradient id="paint9_linear_1664_1606" x1="307.871" y1="656.027" x2="436.156" y2="656.027" gradientUnits="userSpaceOnUse">
<stop stop-color="#04D6EE"/>
<stop offset="1" stop-color="#157BD1"/>
</linearGradient>
<linearGradient id="paint10_linear_1664_1606" x1="307.871" y1="656.027" x2="436.156" y2="656.027" gradientUnits="userSpaceOnUse">
<stop stop-color="#04D6EE"/>
<stop offset="1" stop-color="#157BD1"/>
</linearGradient>
<linearGradient id="paint11_linear_1664_1606" x1="313.434" y1="656.027" x2="430.49" y2="656.027" gradientUnits="userSpaceOnUse">
<stop stop-color="#04D6EE"/>
<stop offset="1" stop-color="#157BD1"/>
</linearGradient>
</defs>
</svg>
