<svg width="1920" height="985" viewBox="0 0 1920 985" fill="none" xmlns="http://www.w3.org/2000/svg">
<g filter="url(#filter0_ddddii_975_2088)">
<rect x="240" y="100" width="1440" height="835" rx="35" fill="white"/>
</g>
<path d="M859.381 192.2H868.469V237H859.701V207.944L847.093 228.744H846.069L833.461 208.008V237H824.629V192.2H833.717L846.581 213.384L859.381 192.2ZM907.536 224.392H883.408C884.475 228.403 887.483 230.408 892.432 230.408C895.59 230.408 897.979 229.341 899.6 227.208L906.256 231.048C903.099 235.613 898.448 237.896 892.304 237.896C887.014 237.896 882.768 236.296 879.568 233.096C876.368 229.896 874.768 225.864 874.768 221C874.768 216.221 876.347 212.211 879.504 208.968C882.619 205.725 886.672 204.104 891.664 204.104C896.4 204.104 900.262 205.725 903.248 208.968C906.32 212.211 907.856 216.221 907.856 221C907.856 221.896 907.75 223.027 907.536 224.392ZM883.28 217.992H899.6C899.131 215.901 898.171 214.301 896.72 213.192C895.312 212.083 893.627 211.528 891.664 211.528C889.446 211.528 887.611 212.104 886.16 213.256C884.71 214.365 883.75 215.944 883.28 217.992ZM937.626 208.776V192.2H945.882V237H937.626V233.224C935.194 236.339 931.738 237.896 927.258 237.896C922.948 237.896 919.258 236.275 916.186 233.032C913.156 229.747 911.642 225.736 911.642 221C911.642 216.307 913.156 212.317 916.186 209.032C919.258 205.747 922.948 204.104 927.258 204.104C931.738 204.104 935.194 205.661 937.626 208.776ZM922.394 227.528C924.143 229.192 926.276 230.024 928.794 230.024C931.354 230.024 933.466 229.192 935.13 227.528C936.794 225.821 937.626 223.645 937.626 221C937.626 218.355 936.794 216.2 935.13 214.536C933.466 212.829 931.354 211.976 928.794 211.976C926.234 211.976 924.1 212.829 922.394 214.536C920.73 216.2 919.898 218.355 919.898 221C919.898 223.645 920.73 225.821 922.394 227.528ZM953.816 192.2H971.608C977.752 192.2 982.872 194.355 986.968 198.664C991.107 202.931 993.176 208.243 993.176 214.6C993.176 220.957 991.107 226.269 986.968 230.536C982.872 234.845 977.752 237 971.608 237H953.816V192.2ZM962.648 228.552H971.608C975.491 228.552 978.648 227.272 981.08 224.712C983.512 222.067 984.728 218.696 984.728 214.6C984.728 210.461 983.512 207.112 981.08 204.552C978.648 201.949 975.491 200.648 971.608 200.648H962.648V228.552ZM1023.38 208.776V205H1031.63V237H1023.38V233.224C1020.9 236.339 1017.43 237.896 1012.95 237.896C1008.68 237.896 1005.01 236.275 1001.94 233.032C998.908 229.747 997.393 225.736 997.393 221C997.393 216.307 998.908 212.317 1001.94 209.032C1005.01 205.747 1008.68 204.104 1012.95 204.104C1017.43 204.104 1020.9 205.661 1023.38 208.776ZM1008.15 227.528C1009.81 229.192 1011.92 230.024 1014.48 230.024C1017.04 230.024 1019.15 229.192 1020.82 227.528C1022.52 225.821 1023.38 223.645 1023.38 221C1023.38 218.355 1022.52 216.2 1020.82 214.536C1019.15 212.829 1017.04 211.976 1014.48 211.976C1011.92 211.976 1009.81 212.829 1008.15 214.536C1006.48 216.2 1005.65 218.355 1005.65 221C1005.65 223.645 1006.48 225.821 1008.15 227.528ZM1057.42 205V212.936H1050.19V226.248C1050.19 227.357 1050.47 228.168 1051.02 228.68C1051.58 229.192 1052.39 229.491 1053.46 229.576C1054.52 229.619 1055.85 229.597 1057.42 229.512V237C1051.83 237.64 1047.85 237.128 1045.46 235.464C1043.11 233.757 1041.94 230.685 1041.94 226.248V212.936H1036.37V205H1041.94V198.536L1050.19 196.04V205H1057.42ZM1086.56 208.776V205H1094.82V237H1086.56V233.224C1084.09 236.339 1080.61 237.896 1076.13 237.896C1071.87 237.896 1068.2 236.275 1065.12 233.032C1062.1 229.747 1060.58 225.736 1060.58 221C1060.58 216.307 1062.1 212.317 1065.12 209.032C1068.2 205.747 1071.87 204.104 1076.13 204.104C1080.61 204.104 1084.09 205.661 1086.56 208.776ZM1071.33 227.528C1073 229.192 1075.11 230.024 1077.67 230.024C1080.23 230.024 1082.34 229.192 1084 227.528C1085.71 225.821 1086.56 223.645 1086.56 221C1086.56 218.355 1085.71 216.2 1084 214.536C1082.34 212.829 1080.23 211.976 1077.67 211.976C1075.11 211.976 1073 212.829 1071.33 214.536C1069.67 216.2 1068.84 218.355 1068.84 221C1068.84 223.645 1069.67 225.821 1071.33 227.528Z" fill="#239FFB"/>
<path d="M1104.85 747.098C1103.35 751.9 1101.6 756.048 1099.61 759.541C1097.63 763.033 1095.56 765.701 1093.43 767.545C1091.3 769.388 1089.26 770.31 1087.32 770.31C1082.85 770.31 1080.62 765.726 1080.62 756.557C1080.62 750.93 1081.3 745.351 1082.66 739.821C1084.02 734.243 1085.52 729.464 1087.17 725.487C1087.66 724.225 1088.29 723.231 1089.06 722.503C1089.84 721.727 1090.93 721.339 1092.34 721.339C1093.65 721.339 1094.69 721.679 1095.47 722.358C1096.24 722.988 1096.63 723.959 1096.63 725.268L1096.56 726.141C1096.56 726.239 1096.27 727.039 1095.69 728.543C1094.23 732.472 1092.92 736.232 1091.76 739.821C1090.64 743.411 1089.94 746.831 1089.65 750.081C1089.5 751.73 1089.43 753.356 1089.43 754.956C1089.43 756.557 1089.6 757.867 1089.94 758.886C1090.28 759.856 1090.76 760.341 1091.39 760.341C1092.8 760.341 1094.5 758.328 1096.49 754.301C1098.52 750.227 1100.46 745.376 1102.31 739.749C1104.15 734.073 1105.51 729.101 1106.38 724.832C1106.58 723.91 1107.13 723.134 1108.06 722.503C1108.98 721.873 1109.78 721.557 1110.46 721.557C1111.67 721.557 1112.54 721.873 1113.08 722.503C1113.66 723.085 1113.95 724.007 1113.95 725.268L1113.88 726.287C1113.88 726.481 1113.83 726.748 1113.73 727.087C1113.63 727.427 1113.54 727.864 1113.44 728.397C1111.11 739.457 1109.7 747.704 1109.22 753.137C1109.17 753.525 1109.15 754.107 1109.15 754.884C1109.15 756.533 1109.37 757.867 1109.8 758.886C1110.29 759.856 1110.89 760.341 1111.62 760.341C1114 760.341 1116.4 756.654 1118.82 749.281C1121.25 741.859 1123.41 733.636 1125.3 724.613C1125.49 723.74 1125.91 723.11 1126.54 722.722C1127.22 722.285 1128.02 722.067 1128.94 722.067C1130.1 722.067 1131.29 722.309 1132.5 722.794C1133.72 723.279 1134.32 723.813 1134.32 724.395L1133.16 729.489C1131.36 737.444 1129.55 744.236 1127.7 749.863C1125.91 755.49 1123.53 760.317 1120.57 764.343C1117.66 768.321 1114.12 770.31 1109.95 770.31C1105.87 770.31 1103.84 766.575 1103.84 759.104C1103.84 755.66 1104.27 751.658 1105.14 747.098H1104.85ZM1145.27 770.528C1140.52 770.528 1137.05 769.582 1134.87 767.69C1132.69 765.798 1131.59 763.276 1131.59 760.123C1131.59 755.514 1132.73 751.245 1135.01 747.316C1137.34 743.387 1140.42 740.282 1144.25 738.002C1148.14 735.674 1152.31 734.509 1156.77 734.509C1159.49 734.509 1161.77 735.286 1163.61 736.838C1165.45 738.342 1166.38 740.573 1166.38 743.532C1166.38 745.23 1165.82 746.637 1164.7 747.753C1163.63 748.82 1162.08 749.79 1160.04 750.663C1158.01 751.488 1154.71 752.676 1150.15 754.229C1146.03 755.587 1142.68 756.727 1140.11 757.649C1139.91 758.376 1139.82 759.128 1139.82 759.904C1139.82 761.263 1140.37 762.306 1141.49 763.033C1142.65 763.761 1144.28 764.125 1146.37 764.125C1147.67 764.125 1149.18 763.858 1150.88 763.324C1152.57 762.791 1153.64 762.112 1154.08 761.287C1155.73 758.279 1157.23 756.776 1158.59 756.776C1160.58 756.776 1161.91 757.164 1162.59 757.94C1163.32 758.667 1163.71 759.492 1163.76 760.414C1163.17 761.966 1162.03 763.543 1160.34 765.143C1158.64 766.696 1156.48 767.981 1153.86 769C1151.24 770.019 1148.38 770.528 1145.27 770.528ZM1142.14 750.954C1146.95 749.402 1150.9 747.971 1154.01 746.661C1157.11 745.303 1158.66 743.969 1158.66 742.659C1158.66 742.077 1158.35 741.616 1157.72 741.277C1157.09 740.889 1156.41 740.694 1155.68 740.694C1154.22 740.694 1152.55 741.252 1150.66 742.368C1148.81 743.484 1147.09 744.842 1145.49 746.443C1143.89 748.044 1142.78 749.548 1142.14 750.954ZM1184.03 729.416C1178.55 752.458 1175.33 765.629 1174.36 768.927C1174.26 769.218 1173.75 769.582 1172.83 770.019C1171.95 770.504 1171.35 770.746 1171.01 770.746C1169.65 770.746 1168.34 770.407 1167.08 769.728C1165.82 769.049 1165.14 767.957 1165.04 766.453C1165.09 766.356 1165.33 765.847 1165.77 764.925C1166.21 764.003 1166.64 762.694 1167.08 760.996C1168.19 756.824 1169.46 751.876 1170.86 746.152C1172.32 740.428 1173.29 736.595 1173.77 734.655L1177.19 720.757C1177.14 720.369 1177.12 718.356 1177.12 714.717C1177.27 714.087 1177.8 713.577 1178.72 713.189C1179.69 712.801 1180.56 712.607 1181.34 712.607C1182.55 712.607 1183.79 713.02 1185.05 713.844C1186.36 714.669 1187.04 715.663 1187.09 716.828L1184.03 729.416ZM1201.22 732.181C1196.17 753.428 1193.24 765.435 1192.41 768.2C1192.32 768.491 1191.81 768.854 1190.88 769.291C1190.01 769.776 1189.41 770.019 1189.07 770.019C1187.8 770.019 1186.66 769.703 1185.65 769.073C1184.63 768.491 1184.07 767.448 1183.97 765.944C1184.02 765.701 1184.14 765.022 1184.34 763.906C1184.53 762.791 1184.8 761.578 1185.14 760.268C1186.98 753.331 1189.11 744.842 1191.54 734.801L1195.03 720.757C1194.98 720.466 1194.96 720.054 1194.96 719.52C1194.96 717.628 1195.49 716.003 1196.56 714.645C1197.68 713.286 1198.94 712.607 1200.34 712.607C1201.27 712.607 1202.14 712.971 1202.96 713.699C1203.79 714.378 1204.44 715.421 1204.93 716.828L1201.22 732.181Z" fill="#00A3FF"/>
<path d="M989.479 768.831C986.157 768.831 983.069 768.256 980.215 767.106C977.404 765.914 974.933 764.274 972.804 762.187C970.674 760.1 969.034 757.672 967.884 754.903C966.734 752.092 966.159 749.046 966.159 745.767C966.159 742.529 966.755 739.527 967.948 736.758C969.141 733.989 970.781 731.561 972.868 729.474C974.997 727.387 977.489 725.769 980.343 724.619C983.239 723.469 986.349 722.894 989.671 722.894C991.971 722.894 994.207 723.213 996.38 723.852C998.552 724.491 1000.51 725.385 1002.26 726.535C1004.05 727.685 1005.52 728.985 1006.67 730.433L1001.43 735.863C999.638 734.16 997.764 732.861 995.805 731.966C993.845 731.072 991.779 730.624 989.607 730.624C987.477 730.624 985.497 731.008 983.665 731.774C981.876 732.541 980.279 733.606 978.873 734.969C977.51 736.332 976.446 737.929 975.679 739.761C974.955 741.592 974.593 743.594 974.593 745.767C974.593 747.896 974.976 749.898 975.743 751.772C976.552 753.604 977.659 755.222 979.065 756.628C980.513 758.034 982.153 759.141 983.985 759.95C985.859 760.717 987.839 761.1 989.927 761.1C991.503 761.1 992.972 760.888 994.335 760.462C995.698 759.993 996.912 759.354 997.977 758.545C999.042 757.693 999.851 756.713 1000.4 755.606C1001 754.498 1001.3 753.327 1001.3 752.092V750.686L1002.45 751.964H989.224V744.553H1009.48C1009.56 745.021 1009.63 745.554 1009.67 746.15C1009.71 746.704 1009.73 747.236 1009.73 747.747C1009.78 748.258 1009.8 748.706 1009.8 749.089C1009.8 752.028 1009.26 754.711 1008.2 757.139C1007.18 759.524 1005.75 761.59 1003.92 763.337C1002.09 765.083 999.936 766.446 997.466 767.426C995.038 768.363 992.376 768.831 989.479 768.831ZM1032.89 768.831C1029.36 768.831 1026.23 768.107 1023.5 766.659C1020.82 765.168 1018.71 763.145 1017.18 760.589C1015.68 757.991 1014.94 755.01 1014.94 751.645C1014.94 749.004 1015.36 746.597 1016.22 744.425C1017.07 742.253 1018.26 740.378 1019.79 738.802C1021.33 737.184 1023.14 735.949 1025.23 735.097C1027.36 734.202 1029.66 733.755 1032.13 733.755C1034.38 733.755 1036.45 734.181 1038.32 735.033C1040.24 735.885 1041.9 737.056 1043.31 738.547C1044.71 739.995 1045.78 741.741 1046.5 743.786C1047.27 745.788 1047.63 747.982 1047.59 750.367L1047.52 753.178H1020.31L1018.77 747.747H1040.94L1039.98 748.833V747.364C1039.86 746.086 1039.43 744.957 1038.71 743.978C1037.98 742.955 1037.05 742.167 1035.9 741.614C1034.79 741.017 1033.55 740.719 1032.19 740.719C1030.1 740.719 1028.33 741.124 1026.89 741.933C1025.44 742.7 1024.33 743.85 1023.56 745.383C1022.84 746.917 1022.48 748.812 1022.48 751.07C1022.48 753.242 1022.93 755.137 1023.82 756.756C1024.76 758.374 1026.08 759.631 1027.78 760.525C1029.48 761.42 1031.47 761.867 1033.72 761.867C1035.3 761.867 1036.75 761.612 1038.07 761.1C1039.43 760.589 1040.88 759.674 1042.41 758.353L1046.25 763.72C1045.1 764.785 1043.78 765.701 1042.28 766.467C1040.84 767.191 1039.3 767.766 1037.68 768.192C1036.07 768.618 1034.47 768.831 1032.89 768.831ZM1058.25 768.192V725.96H1066.05V768.192H1058.25ZM1051.61 741.805V734.522H1073.4V741.805H1051.61Z" fill="black"/>
<path d="M1466.69 718.278L1466.05 719.941L1449.63 765.706H1436.4L1424.4 732.015L1412.47 765.706H1399.24L1382.69 719.941L1381.88 718.119C1381.88 718.119 1390.84 716.16 1393.07 721.198C1395.31 726.237 1405.89 753.632 1405.89 753.632L1418.47 718.278H1430.33L1442.91 753.56C1442.91 753.56 1454.1 724.748 1455.78 721.198C1457.46 717.649 1466.69 718.278 1466.69 718.278Z" fill="#2F2F2F"/>
<path d="M1508.36 750.668H1476.11C1476.45 752.934 1477.56 754.669 1479.44 755.874C1481.32 757.079 1483.85 757.681 1487.03 757.681C1489.92 757.681 1492.28 757.296 1494.11 756.524C1495.95 755.753 1497.01 754.693 1497.29 753.343H1508.28C1507.75 757.585 1505.63 760.862 1501.92 763.176C1498.26 765.441 1493.29 766.574 1487.03 766.574C1482.59 766.574 1478.74 765.851 1475.46 764.405C1472.18 762.911 1469.68 760.79 1467.94 758.043C1466.21 755.295 1465.34 752.066 1465.34 748.355V746.981C1465.34 743.221 1466.21 739.968 1467.94 737.221C1469.72 734.425 1472.23 732.304 1475.46 730.858C1478.74 729.364 1482.59 728.617 1487.03 728.617C1493.78 728.617 1499.01 730.232 1502.72 733.461C1506.48 736.642 1508.36 741.125 1508.36 746.909V750.668ZM1486.96 737.365C1484.16 737.365 1481.85 737.871 1480.02 738.883C1478.18 739.896 1476.98 741.318 1476.4 743.149H1497.29C1496.72 741.318 1495.54 739.896 1493.75 738.883C1491.97 737.871 1489.7 737.365 1486.96 737.365Z" fill="#2F2F2F"/>
<path d="M1528.38 765.706C1524.52 765.706 1521.53 764.79 1519.41 762.959C1517.29 761.079 1516.23 758.476 1516.23 755.151V715.386H1526.64V753.271C1526.64 754.379 1526.93 755.199 1527.51 755.729C1528.09 756.259 1529.03 756.524 1530.33 756.524H1533.44V765.706H1528.38Z" fill="#2F2F2F"/>
<path d="M1551.46 765.706C1547.61 765.706 1544.62 764.79 1542.5 762.959C1540.38 761.079 1539.32 758.476 1539.32 755.151V715.386H1549.73V753.271C1549.73 754.379 1550.02 755.199 1550.6 755.729C1551.17 756.259 1552.11 756.524 1553.42 756.524H1556.52V765.706H1551.46Z" fill="#2F2F2F"/>
<path d="M1572.82 729.485V765.706H1562.4V729.485H1572.82ZM1567.61 725.291C1565.68 725.291 1564.12 724.737 1562.91 723.628C1561.71 722.472 1561.1 720.977 1561.1 719.146C1561.1 717.314 1561.71 715.844 1562.91 714.736C1564.12 713.579 1565.68 713 1567.61 713C1569.59 713 1571.15 713.579 1572.31 714.736C1573.51 715.844 1574.12 717.314 1574.12 719.146C1574.12 720.977 1573.51 722.472 1572.31 723.628C1571.1 724.737 1569.54 725.291 1567.61 725.291Z" fill="url(#paint0_linear_975_2088)"/>
<path d="M1599.94 738.739V752.476C1599.94 753.777 1600.3 754.789 1601.02 755.512C1601.79 756.187 1602.88 756.524 1604.28 756.524H1612.81V765.706H1602.9C1598.76 765.706 1595.48 764.598 1593.07 762.381C1590.66 760.115 1589.45 757.055 1589.45 753.199V738.739H1577.38V729.485H1587.07C1588.08 729.485 1588.78 729.292 1589.17 728.906C1589.55 728.521 1589.74 727.822 1589.74 726.81V719.869H1599.94V729.485H1614.98V738.739H1599.94Z" fill="url(#paint1_linear_975_2088)"/>
<path d="M1289 720.393C1298.86 716.31 1310.16 720.992 1314.24 730.851L1328.69 765.74C1318.83 769.823 1307.53 765.14 1303.45 755.282L1289 720.393Z" fill="url(#paint2_linear_975_2088)"/>
<path d="M1317.54 720.393C1327.4 716.31 1338.7 720.992 1342.78 730.851L1357.23 765.74C1347.37 769.823 1336.07 765.14 1331.99 755.282L1317.54 720.393Z" fill="url(#paint3_linear_975_2088)"/>
<path d="M1317.54 720.393C1327.4 716.31 1338.7 720.992 1342.78 730.851L1357.23 765.74C1347.37 769.823 1336.07 765.14 1331.99 755.282L1317.54 720.393Z" fill="url(#paint4_linear_975_2088)"/>
<path d="M1346.08 720.393C1355.94 716.31 1367.24 720.992 1371.33 730.851L1385.77 765.74C1375.92 769.823 1364.61 765.14 1360.53 755.282L1346.08 720.393Z" fill="url(#paint5_linear_975_2088)"/>
<path d="M1346.08 720.393C1355.94 716.31 1367.24 720.992 1371.33 730.851L1385.77 765.74C1375.92 769.823 1364.61 765.14 1360.53 755.282L1346.08 720.393Z" fill="url(#paint6_linear_975_2088)"/>
<path d="M536.942 757.752C531.514 752.325 531.514 743.525 536.942 738.098L565.969 709.071C571.396 703.643 580.196 703.643 585.623 709.071L593.485 716.932C598.912 722.359 598.912 731.159 593.485 736.586L564.457 765.614C559.03 771.041 550.231 771.041 544.803 765.614L536.942 757.752Z" fill="url(#paint7_linear_975_2088)"/>
<path d="M656.983 757.752C662.41 752.325 662.41 743.525 656.983 738.098L627.955 709.07C622.528 703.643 613.728 703.643 608.301 709.07L600.439 716.932C595.012 722.359 595.012 731.159 600.439 736.586L629.467 765.614C634.894 771.041 643.694 771.041 649.121 765.614L656.983 757.752Z" fill="url(#paint8_linear_975_2088)"/>
<mask id="mask0_975_2088" style="mask-type:alpha" maskUnits="userSpaceOnUse" x="532" y="705" width="130" height="65">
<path d="M536.942 757.752C531.514 752.325 531.514 743.525 536.942 738.098L565.969 709.071C571.396 703.643 580.196 703.643 585.623 709.071L593.485 716.932C598.912 722.359 598.912 731.159 593.485 736.586L564.457 765.614C559.03 771.041 550.231 771.041 544.803 765.614L536.942 757.752Z" fill="url(#paint9_linear_975_2088)"/>
<path d="M656.983 757.752C662.41 752.325 662.41 743.525 656.983 738.098L627.955 709.07C622.528 703.643 613.728 703.643 608.301 709.07L600.439 716.932C595.012 722.359 595.012 731.159 600.439 736.586L629.467 765.614C634.894 771.041 643.694 771.041 649.121 765.614L656.983 757.752Z" fill="url(#paint10_linear_975_2088)"/>
</mask>
<g mask="url(#mask0_975_2088)">
<g filter="url(#filter1_f_975_2088)">
<path d="M570.875 705.861L595.834 730.82L570.875 755.779L545.916 730.82L570.875 705.861Z" fill="black" fill-opacity="0.22"/>
<path d="M623.096 705.861L648.056 730.82L623.097 755.779L598.137 730.82L623.096 705.861Z" fill="black" fill-opacity="0.22"/>
</g>
</g>
<path d="M606.738 765.618C606.739 765.616 606.741 765.615 606.742 765.614L614.604 757.752C614.612 757.744 614.62 757.736 614.628 757.729L635.77 736.586C641.188 731.168 649.967 731.159 655.397 736.559L627.908 709.07C622.481 703.643 613.682 703.643 608.254 709.07L596.915 720.409L585.576 709.071C580.149 703.643 571.35 703.643 565.922 709.071L538.434 736.559C543.863 731.159 552.642 731.168 558.061 736.586L579.17 757.695C579.189 757.714 579.207 757.733 579.226 757.752L587.088 765.614C587.766 766.292 588.498 766.886 589.269 767.395C594.661 770.955 601.989 770.363 606.738 765.618Z" fill="url(#paint11_linear_975_2088)"/>
<path d="M535.339 790.495H539.382V810.423H535.482V797.499L529.873 806.751H529.418L523.81 797.527V810.423H519.881V790.495H523.924L529.646 799.918L535.339 790.495ZM556.76 804.815H546.027C546.502 806.599 547.84 807.491 550.041 807.491C551.446 807.491 552.509 807.017 553.23 806.068L556.191 807.776C554.786 809.807 552.717 810.822 549.984 810.822C547.631 810.822 545.743 810.11 544.319 808.687C542.896 807.263 542.184 805.47 542.184 803.306C542.184 801.181 542.886 799.397 544.291 797.954C545.676 796.512 547.479 795.791 549.7 795.791C551.806 795.791 553.524 796.512 554.853 797.954C556.219 799.397 556.902 801.181 556.902 803.306C556.902 803.705 556.855 804.208 556.76 804.815ZM545.97 801.968H553.23C553.021 801.038 552.594 800.327 551.949 799.833C551.322 799.34 550.573 799.093 549.7 799.093C548.713 799.093 547.897 799.349 547.251 799.862C546.606 800.355 546.179 801.057 545.97 801.968ZM570.144 797.869V790.495H573.817V810.423H570.144V808.744C569.063 810.129 567.525 810.822 565.532 810.822C563.616 810.822 561.974 810.101 560.607 808.658C559.26 807.197 558.586 805.413 558.586 803.306C558.586 801.219 559.26 799.444 560.607 797.983C561.974 796.521 563.616 795.791 565.532 795.791C567.525 795.791 569.063 796.483 570.144 797.869ZM563.369 806.21C564.147 806.95 565.096 807.32 566.216 807.32C567.354 807.32 568.294 806.95 569.034 806.21C569.774 805.451 570.144 804.483 570.144 803.306C570.144 802.13 569.774 801.171 569.034 800.431C568.294 799.672 567.354 799.292 566.216 799.292C565.077 799.292 564.128 799.672 563.369 800.431C562.629 801.171 562.259 802.13 562.259 803.306C562.259 804.483 562.629 805.451 563.369 806.21ZM577.346 790.495H585.26C587.993 790.495 590.271 791.454 592.093 793.371C593.934 795.269 594.854 797.632 594.854 800.459C594.854 803.287 593.934 805.65 592.093 807.548C590.271 809.465 587.993 810.423 585.26 810.423H577.346V790.495ZM581.275 806.666H585.26C586.988 806.666 588.392 806.096 589.474 804.957C590.556 803.781 591.096 802.281 591.096 800.459C591.096 798.618 590.556 797.129 589.474 795.99C588.392 794.832 586.988 794.253 585.26 794.253H581.275V806.666ZM608.288 797.869V796.189H611.961V810.423H608.288V808.744C607.188 810.129 605.641 810.822 603.648 810.822C601.75 810.822 600.118 810.101 598.751 808.658C597.404 807.197 596.73 805.413 596.73 803.306C596.73 801.219 597.404 799.444 598.751 797.983C600.118 796.521 601.75 795.791 603.648 795.791C605.641 795.791 607.188 796.483 608.288 797.869ZM601.513 806.21C602.253 806.95 603.192 807.32 604.331 807.32C605.47 807.32 606.409 806.95 607.15 806.21C607.909 805.451 608.288 804.483 608.288 803.306C608.288 802.13 607.909 801.171 607.15 800.431C606.409 799.672 605.47 799.292 604.331 799.292C603.192 799.292 602.253 799.672 601.513 800.431C600.773 801.171 600.403 802.13 600.403 803.306C600.403 804.483 600.773 805.451 601.513 806.21ZM623.433 796.189V799.719H620.216V805.641C620.216 806.134 620.339 806.495 620.586 806.722C620.833 806.95 621.193 807.083 621.668 807.121C622.142 807.14 622.731 807.13 623.433 807.093V810.423C620.947 810.708 619.172 810.48 618.109 809.74C617.065 808.981 616.543 807.614 616.543 805.641V799.719H614.067V796.189H616.543V793.314L620.216 792.204V796.189H623.433ZM636.395 797.869V796.189H640.068V810.423H636.395V808.744C635.295 810.129 633.748 810.822 631.755 810.822C629.857 810.822 628.225 810.101 626.858 808.658C625.511 807.197 624.837 805.413 624.837 803.306C624.837 801.219 625.511 799.444 626.858 797.983C628.225 796.521 629.857 795.791 631.755 795.791C633.748 795.791 635.295 796.483 636.395 797.869ZM629.62 806.21C630.36 806.95 631.299 807.32 632.438 807.32C633.577 807.32 634.516 806.95 635.257 806.21C636.016 805.451 636.395 804.483 636.395 803.306C636.395 802.13 636.016 801.171 635.257 800.431C634.516 799.672 633.577 799.292 632.438 799.292C631.299 799.292 630.36 799.672 629.62 800.431C628.88 801.171 628.51 802.13 628.51 803.306C628.51 804.483 628.88 805.451 629.62 806.21ZM647.953 808.374C647.953 809.038 647.716 809.607 647.241 810.082C646.767 810.556 646.197 810.793 645.533 810.793C644.869 810.793 644.299 810.556 643.825 810.082C643.35 809.607 643.113 809.038 643.113 808.374C643.113 807.709 643.35 807.14 643.825 806.666C644.299 806.191 644.869 805.954 645.533 805.954C646.197 805.954 646.767 806.191 647.241 806.666C647.716 807.14 647.953 807.709 647.953 808.374ZM668.267 810.423H663.997L662.801 806.836H654.859L653.663 810.423H649.421L656.396 790.495H661.264L668.267 810.423ZM658.844 795.022L656.111 803.164H661.577L658.844 795.022ZM670.202 810.423V790.495H674.131V810.423H670.202Z" fill="#239FFB"/>
<g filter="url(#filter2_ddddii_975_2088)">
<rect x="324" y="535" width="186" height="70" rx="35" fill="white"/>
<path d="M375.431 560.2V561.784H367.631V567.976H375.071V569.56H367.631V577H365.951V560.2H375.431ZM388.119 575.488C386.887 576.688 385.399 577.288 383.655 577.288C381.879 577.288 380.383 576.688 379.167 575.488C377.951 574.272 377.343 572.776 377.343 571C377.343 569.224 377.951 567.736 379.167 566.536C380.383 565.32 381.879 564.712 383.655 564.712C385.415 564.712 386.903 565.32 388.119 566.536C389.351 567.736 389.967 569.224 389.967 571C389.967 572.76 389.351 574.256 388.119 575.488ZM380.295 574.384C381.207 575.296 382.327 575.752 383.655 575.752C384.983 575.752 386.103 575.296 387.015 574.384C387.927 573.44 388.383 572.312 388.383 571C388.383 569.672 387.927 568.552 387.015 567.64C386.103 566.712 384.983 566.248 383.655 566.248C382.327 566.248 381.207 566.712 380.295 567.64C379.383 568.552 378.927 569.672 378.927 571C378.927 572.312 379.383 573.44 380.295 574.384ZM394.202 565V566.992C394.938 565.536 396.202 564.808 397.993 564.808V566.344C396.842 566.344 395.922 566.68 395.234 567.352C394.546 568.008 394.202 569 394.202 570.328V577H392.618V565H394.202ZM411.756 577.288C409.948 577.288 408.444 576.688 407.244 575.488C406.044 574.256 405.444 572.76 405.444 571C405.444 569.224 406.044 567.736 407.244 566.536C408.444 565.32 409.948 564.712 411.756 564.712C412.94 564.712 414.004 565 414.948 565.576C415.892 566.136 416.58 566.896 417.012 567.856L415.716 568.6C415.396 567.88 414.876 567.312 414.156 566.896C413.452 566.464 412.652 566.248 411.756 566.248C410.428 566.248 409.308 566.712 408.396 567.64C407.484 568.552 407.028 569.672 407.028 571C407.028 572.312 407.484 573.44 408.396 574.384C409.308 575.296 410.428 575.752 411.756 575.752C412.636 575.752 413.428 575.544 414.132 575.128C414.852 574.712 415.412 574.136 415.812 573.4L417.132 574.168C416.636 575.128 415.908 575.888 414.948 576.448C413.988 577.008 412.924 577.288 411.756 577.288ZM420.991 577H419.407V559.48H420.991V577ZM426.296 561.304C426.296 561.624 426.184 561.896 425.96 562.12C425.736 562.344 425.464 562.456 425.144 562.456C424.824 562.456 424.552 562.344 424.328 562.12C424.104 561.896 423.992 561.624 423.992 561.304C423.992 560.984 424.104 560.712 424.328 560.488C424.552 560.264 424.824 560.152 425.144 560.152C425.464 560.152 425.736 560.264 425.96 560.488C426.184 560.712 426.296 560.984 426.296 561.304ZM425.936 577H424.352V565H425.936V577ZM434.913 564.712C436.353 564.712 437.497 565.16 438.345 566.056C439.193 566.936 439.617 568.128 439.617 569.632V577H438.033V569.632C438.033 568.56 437.745 567.728 437.169 567.136C436.609 566.544 435.809 566.248 434.769 566.248C433.569 566.248 432.617 566.624 431.913 567.376C431.225 568.128 430.881 569.24 430.881 570.712V577H429.297V565H430.881V566.872C431.777 565.432 433.121 564.712 434.913 564.712ZM444.624 561.304C444.624 561.624 444.512 561.896 444.288 562.12C444.064 562.344 443.792 562.456 443.472 562.456C443.152 562.456 442.88 562.344 442.656 562.12C442.432 561.896 442.32 561.624 442.32 561.304C442.32 560.984 442.432 560.712 442.656 560.488C442.88 560.264 443.152 560.152 443.472 560.152C443.792 560.152 444.064 560.264 444.288 560.488C444.512 560.712 444.624 560.984 444.624 561.304ZM444.264 577H442.68V565H444.264V577ZM453.217 577.288C451.409 577.288 449.905 576.688 448.705 575.488C447.505 574.256 446.905 572.76 446.905 571C446.905 569.224 447.505 567.736 448.705 566.536C449.905 565.32 451.409 564.712 453.217 564.712C454.401 564.712 455.465 565 456.409 565.576C457.353 566.136 458.041 566.896 458.473 567.856L457.177 568.6C456.857 567.88 456.337 567.312 455.617 566.896C454.913 566.464 454.113 566.248 453.217 566.248C451.889 566.248 450.769 566.712 449.857 567.64C448.945 568.552 448.489 569.672 448.489 571C448.489 572.312 448.945 573.44 449.857 574.384C450.769 575.296 451.889 575.752 453.217 575.752C454.097 575.752 454.889 575.544 455.593 575.128C456.313 574.712 456.873 574.136 457.273 573.4L458.593 574.168C458.097 575.128 457.369 575.888 456.409 576.448C455.449 577.008 454.385 577.288 453.217 577.288ZM461.998 568.144C461.998 569.072 462.822 569.752 464.47 570.184C464.934 570.296 465.238 570.376 465.382 570.424C465.526 570.456 465.806 570.544 466.222 570.688C466.654 570.816 466.95 570.928 467.11 571.024C467.286 571.12 467.526 571.272 467.83 571.48C468.134 571.672 468.35 571.872 468.478 572.08C468.606 572.272 468.726 572.528 468.838 572.848C468.95 573.152 469.006 573.48 469.006 573.832C469.006 574.856 468.598 575.688 467.782 576.328C466.998 576.968 465.958 577.288 464.662 577.288C463.542 577.288 462.574 577.04 461.758 576.544C460.942 576.032 460.366 575.36 460.03 574.528L461.374 573.736C461.598 574.36 461.998 574.856 462.574 575.224C463.166 575.576 463.862 575.752 464.662 575.752C465.478 575.752 466.142 575.592 466.654 575.272C467.166 574.952 467.422 574.472 467.422 573.832C467.422 572.904 466.598 572.224 464.95 571.792C464.486 571.68 464.182 571.608 464.038 571.576C463.894 571.528 463.606 571.44 463.174 571.312C462.758 571.168 462.462 571.048 462.286 570.952C462.126 570.856 461.894 570.712 461.59 570.52C461.286 570.312 461.07 570.112 460.942 569.92C460.814 569.712 460.694 569.456 460.582 569.152C460.47 568.832 460.414 568.496 460.414 568.144C460.414 567.168 460.798 566.352 461.566 565.696C462.366 565.04 463.35 564.712 464.518 564.712C465.478 564.712 466.326 564.928 467.062 565.36C467.814 565.792 468.366 566.392 468.718 567.16L467.398 567.928C466.95 566.808 465.99 566.248 464.518 566.248C463.798 566.248 463.198 566.416 462.718 566.752C462.238 567.088 461.998 567.552 461.998 568.144Z" fill="#323232"/>
</g>
<g filter="url(#filter3_ddddii_975_2088)">
<rect x="492" y="367" width="186" height="70" rx="35" fill="white"/>
<path d="M543.431 392.2V393.784H535.631V399.976H543.071V401.56H535.631V409H533.951V392.2H543.431ZM556.119 407.488C554.887 408.688 553.399 409.288 551.655 409.288C549.879 409.288 548.383 408.688 547.167 407.488C545.951 406.272 545.343 404.776 545.343 403C545.343 401.224 545.951 399.736 547.167 398.536C548.383 397.32 549.879 396.712 551.655 396.712C553.415 396.712 554.903 397.32 556.119 398.536C557.351 399.736 557.967 401.224 557.967 403C557.967 404.76 557.351 406.256 556.119 407.488ZM548.295 406.384C549.207 407.296 550.327 407.752 551.655 407.752C552.983 407.752 554.103 407.296 555.015 406.384C555.927 405.44 556.383 404.312 556.383 403C556.383 401.672 555.927 400.552 555.015 399.64C554.103 398.712 552.983 398.248 551.655 398.248C550.327 398.248 549.207 398.712 548.295 399.64C547.383 400.552 546.927 401.672 546.927 403C546.927 404.312 547.383 405.44 548.295 406.384ZM562.202 397V398.992C562.938 397.536 564.202 396.808 565.993 396.808V398.344C564.842 398.344 563.922 398.68 563.234 399.352C562.546 400.008 562.202 401 562.202 402.328V409H560.618V397H562.202ZM579.756 409.288C577.948 409.288 576.444 408.688 575.244 407.488C574.044 406.256 573.444 404.76 573.444 403C573.444 401.224 574.044 399.736 575.244 398.536C576.444 397.32 577.948 396.712 579.756 396.712C580.94 396.712 582.004 397 582.948 397.576C583.892 398.136 584.58 398.896 585.012 399.856L583.716 400.6C583.396 399.88 582.876 399.312 582.156 398.896C581.452 398.464 580.652 398.248 579.756 398.248C578.428 398.248 577.308 398.712 576.396 399.64C575.484 400.552 575.028 401.672 575.028 403C575.028 404.312 575.484 405.44 576.396 406.384C577.308 407.296 578.428 407.752 579.756 407.752C580.636 407.752 581.428 407.544 582.132 407.128C582.852 406.712 583.412 406.136 583.812 405.4L585.132 406.168C584.636 407.128 583.908 407.888 582.948 408.448C581.988 409.008 580.924 409.288 579.756 409.288ZM588.991 409H587.407V391.48H588.991V409ZM594.296 393.304C594.296 393.624 594.184 393.896 593.96 394.12C593.736 394.344 593.464 394.456 593.144 394.456C592.824 394.456 592.552 394.344 592.328 394.12C592.104 393.896 591.992 393.624 591.992 393.304C591.992 392.984 592.104 392.712 592.328 392.488C592.552 392.264 592.824 392.152 593.144 392.152C593.464 392.152 593.736 392.264 593.96 392.488C594.184 392.712 594.296 392.984 594.296 393.304ZM593.936 409H592.352V397H593.936V409ZM602.913 396.712C604.353 396.712 605.497 397.16 606.345 398.056C607.193 398.936 607.617 400.128 607.617 401.632V409H606.033V401.632C606.033 400.56 605.745 399.728 605.169 399.136C604.609 398.544 603.809 398.248 602.769 398.248C601.569 398.248 600.617 398.624 599.913 399.376C599.225 400.128 598.881 401.24 598.881 402.712V409H597.297V397H598.881V398.872C599.777 397.432 601.121 396.712 602.913 396.712ZM612.624 393.304C612.624 393.624 612.512 393.896 612.288 394.12C612.064 394.344 611.792 394.456 611.472 394.456C611.152 394.456 610.88 394.344 610.656 394.12C610.432 393.896 610.32 393.624 610.32 393.304C610.32 392.984 610.432 392.712 610.656 392.488C610.88 392.264 611.152 392.152 611.472 392.152C611.792 392.152 612.064 392.264 612.288 392.488C612.512 392.712 612.624 392.984 612.624 393.304ZM612.264 409H610.68V397H612.264V409ZM621.217 409.288C619.409 409.288 617.905 408.688 616.705 407.488C615.505 406.256 614.905 404.76 614.905 403C614.905 401.224 615.505 399.736 616.705 398.536C617.905 397.32 619.409 396.712 621.217 396.712C622.401 396.712 623.465 397 624.409 397.576C625.353 398.136 626.041 398.896 626.473 399.856L625.177 400.6C624.857 399.88 624.337 399.312 623.617 398.896C622.913 398.464 622.113 398.248 621.217 398.248C619.889 398.248 618.769 398.712 617.857 399.64C616.945 400.552 616.489 401.672 616.489 403C616.489 404.312 616.945 405.44 617.857 406.384C618.769 407.296 619.889 407.752 621.217 407.752C622.097 407.752 622.889 407.544 623.593 407.128C624.313 406.712 624.873 406.136 625.273 405.4L626.593 406.168C626.097 407.128 625.369 407.888 624.409 408.448C623.449 409.008 622.385 409.288 621.217 409.288ZM629.998 400.144C629.998 401.072 630.822 401.752 632.47 402.184C632.934 402.296 633.238 402.376 633.382 402.424C633.526 402.456 633.806 402.544 634.222 402.688C634.654 402.816 634.95 402.928 635.11 403.024C635.286 403.12 635.526 403.272 635.83 403.48C636.134 403.672 636.35 403.872 636.478 404.08C636.606 404.272 636.726 404.528 636.838 404.848C636.95 405.152 637.006 405.48 637.006 405.832C637.006 406.856 636.598 407.688 635.782 408.328C634.998 408.968 633.958 409.288 632.662 409.288C631.542 409.288 630.574 409.04 629.758 408.544C628.942 408.032 628.366 407.36 628.03 406.528L629.374 405.736C629.598 406.36 629.998 406.856 630.574 407.224C631.166 407.576 631.862 407.752 632.662 407.752C633.478 407.752 634.142 407.592 634.654 407.272C635.166 406.952 635.422 406.472 635.422 405.832C635.422 404.904 634.598 404.224 632.95 403.792C632.486 403.68 632.182 403.608 632.038 403.576C631.894 403.528 631.606 403.44 631.174 403.312C630.758 403.168 630.462 403.048 630.286 402.952C630.126 402.856 629.894 402.712 629.59 402.52C629.286 402.312 629.07 402.112 628.942 401.92C628.814 401.712 628.694 401.456 628.582 401.152C628.47 400.832 628.414 400.496 628.414 400.144C628.414 399.168 628.798 398.352 629.566 397.696C630.366 397.04 631.35 396.712 632.518 396.712C633.478 396.712 634.326 396.928 635.062 397.36C635.814 397.792 636.366 398.392 636.718 399.16L635.398 399.928C634.95 398.808 633.99 398.248 632.518 398.248C631.798 398.248 631.198 398.416 630.718 398.752C630.238 399.088 629.998 399.552 629.998 400.144Z" fill="#239FFB"/>
</g>
<g filter="url(#filter4_ddddii_975_2088)">
<rect x="1128" y="367" width="288" height="70" rx="35" fill="white"/>
<path d="M1179.51 392.2V393.784H1171.71V399.976H1179.15V401.56H1171.71V409H1170.03V392.2H1179.51ZM1192.2 407.488C1190.97 408.688 1189.48 409.288 1187.74 409.288C1185.96 409.288 1184.46 408.688 1183.25 407.488C1182.03 406.272 1181.42 404.776 1181.42 403C1181.42 401.224 1182.03 399.736 1183.25 398.536C1184.46 397.32 1185.96 396.712 1187.74 396.712C1189.5 396.712 1190.98 397.32 1192.2 398.536C1193.43 399.736 1194.05 401.224 1194.05 403C1194.05 404.76 1193.43 406.256 1192.2 407.488ZM1184.38 406.384C1185.29 407.296 1186.41 407.752 1187.74 407.752C1189.06 407.752 1190.18 407.296 1191.1 406.384C1192.01 405.44 1192.46 404.312 1192.46 403C1192.46 401.672 1192.01 400.552 1191.1 399.64C1190.18 398.712 1189.06 398.248 1187.74 398.248C1186.41 398.248 1185.29 398.712 1184.38 399.64C1183.46 400.552 1183.01 401.672 1183.01 403C1183.01 404.312 1183.46 405.44 1184.38 406.384ZM1198.28 397V398.992C1199.02 397.536 1200.28 396.808 1202.08 396.808V398.344C1200.92 398.344 1200 398.68 1199.32 399.352C1198.63 400.008 1198.28 401 1198.28 402.328V409H1196.7V397H1198.28ZM1216.68 396.712C1218.39 396.712 1219.85 397.32 1221.05 398.536C1222.26 399.752 1222.87 401.24 1222.87 403C1222.87 404.76 1222.26 406.248 1221.05 407.464C1219.85 408.68 1218.39 409.288 1216.68 409.288C1214.55 409.288 1212.93 408.408 1211.83 406.648V413.8H1210.25V397H1211.83V399.352C1212.93 397.592 1214.55 396.712 1216.68 396.712ZM1213.2 406.384C1214.11 407.296 1215.23 407.752 1216.56 407.752C1217.89 407.752 1219.01 407.296 1219.92 406.384C1220.83 405.44 1221.29 404.312 1221.29 403C1221.29 401.672 1220.83 400.552 1219.92 399.64C1219.01 398.712 1217.89 398.248 1216.56 398.248C1215.23 398.248 1214.11 398.712 1213.2 399.64C1212.29 400.552 1211.83 401.672 1211.83 403C1211.83 404.312 1212.29 405.44 1213.2 406.384ZM1231.05 396.712C1232.84 396.712 1234.27 397.344 1235.34 398.608C1236.45 399.856 1237 401.336 1237 403.048C1237 403.128 1236.98 403.376 1236.95 403.792H1226.42C1226.58 404.992 1227.09 405.952 1227.95 406.672C1228.82 407.392 1229.9 407.752 1231.19 407.752C1233.02 407.752 1234.3 407.072 1235.06 405.712L1236.45 406.528C1235.92 407.392 1235.19 408.072 1234.26 408.568C1233.35 409.048 1232.32 409.288 1231.17 409.288C1229.28 409.288 1227.74 408.696 1226.56 407.512C1225.38 406.328 1224.78 404.824 1224.78 403C1224.78 401.192 1225.37 399.696 1226.54 398.512C1227.7 397.312 1229.21 396.712 1231.05 396.712ZM1231.05 398.248C1229.8 398.248 1228.75 398.616 1227.9 399.352C1227.07 400.088 1226.58 401.056 1226.42 402.256H1235.37C1235.19 400.976 1234.7 399.992 1233.9 399.304C1233.07 398.6 1232.12 398.248 1231.05 398.248ZM1249.58 407.488C1248.34 408.688 1246.86 409.288 1245.11 409.288C1243.34 409.288 1241.84 408.688 1240.62 407.488C1239.41 406.272 1238.8 404.776 1238.8 403C1238.8 401.224 1239.41 399.736 1240.62 398.536C1241.84 397.32 1243.34 396.712 1245.11 396.712C1246.87 396.712 1248.36 397.32 1249.58 398.536C1250.81 399.736 1251.42 401.224 1251.42 403C1251.42 404.76 1250.81 406.256 1249.58 407.488ZM1241.75 406.384C1242.66 407.296 1243.78 407.752 1245.11 407.752C1246.44 407.752 1247.56 407.296 1248.47 406.384C1249.38 405.44 1249.84 404.312 1249.84 403C1249.84 401.672 1249.38 400.552 1248.47 399.64C1247.56 398.712 1246.44 398.248 1245.11 398.248C1243.78 398.248 1242.66 398.712 1241.75 399.64C1240.84 400.552 1240.38 401.672 1240.38 403C1240.38 404.312 1240.84 405.44 1241.75 406.384ZM1260.51 396.712C1262.22 396.712 1263.67 397.32 1264.87 398.536C1266.09 399.752 1266.7 401.24 1266.7 403C1266.7 404.76 1266.09 406.248 1264.87 407.464C1263.67 408.68 1262.22 409.288 1260.51 409.288C1258.38 409.288 1256.76 408.408 1255.66 406.648V413.8H1254.07V397H1255.66V399.352C1256.76 397.592 1258.38 396.712 1260.51 396.712ZM1257.03 406.384C1257.94 407.296 1259.06 407.752 1260.39 407.752C1261.71 407.752 1262.83 407.296 1263.75 406.384C1264.66 405.44 1265.11 404.312 1265.11 403C1265.11 401.672 1264.66 400.552 1263.75 399.64C1262.83 398.712 1261.71 398.248 1260.39 398.248C1259.06 398.248 1257.94 398.712 1257.03 399.64C1256.11 400.552 1255.66 401.672 1255.66 403C1255.66 404.312 1256.11 405.44 1257.03 406.384ZM1270.92 409H1269.33V391.48H1270.92V409ZM1279.82 396.712C1281.61 396.712 1283.05 397.344 1284.12 398.608C1285.22 399.856 1285.77 401.336 1285.77 403.048C1285.77 403.128 1285.76 403.376 1285.73 403.792H1275.19C1275.35 404.992 1275.86 405.952 1276.73 406.672C1277.59 407.392 1278.67 407.752 1279.97 407.752C1281.79 407.752 1283.08 407.072 1283.83 405.712L1285.22 406.528C1284.69 407.392 1283.97 408.072 1283.04 408.568C1282.13 409.048 1281.09 409.288 1279.94 409.288C1278.05 409.288 1276.52 408.696 1275.33 407.512C1274.15 406.328 1273.56 404.824 1273.56 403C1273.56 401.192 1274.14 399.696 1275.31 398.512C1276.48 397.312 1277.98 396.712 1279.82 396.712ZM1279.82 398.248C1278.57 398.248 1277.53 398.616 1276.68 399.352C1275.85 400.088 1275.35 401.056 1275.19 402.256H1284.14C1283.97 400.976 1283.48 399.992 1282.68 399.304C1281.85 398.6 1280.89 398.248 1279.82 398.248ZM1288.53 397H1287.33L1287.09 392.2H1288.77L1288.53 397ZM1291.93 400.144C1291.93 401.072 1292.76 401.752 1294.4 402.184C1294.87 402.296 1295.17 402.376 1295.32 402.424C1295.46 402.456 1295.74 402.544 1296.16 402.688C1296.59 402.816 1296.88 402.928 1297.04 403.024C1297.22 403.12 1297.46 403.272 1297.76 403.48C1298.07 403.672 1298.28 403.872 1298.41 404.08C1298.54 404.272 1298.66 404.528 1298.77 404.848C1298.88 405.152 1298.94 405.48 1298.94 405.832C1298.94 406.856 1298.53 407.688 1297.72 408.328C1296.93 408.968 1295.89 409.288 1294.6 409.288C1293.48 409.288 1292.51 409.04 1291.69 408.544C1290.88 408.032 1290.3 407.36 1289.96 406.528L1291.31 405.736C1291.53 406.36 1291.93 406.856 1292.51 407.224C1293.1 407.576 1293.8 407.752 1294.6 407.752C1295.41 407.752 1296.08 407.592 1296.59 407.272C1297.1 406.952 1297.36 406.472 1297.36 405.832C1297.36 404.904 1296.53 404.224 1294.88 403.792C1294.42 403.68 1294.12 403.608 1293.97 403.576C1293.83 403.528 1293.54 403.44 1293.11 403.312C1292.69 403.168 1292.4 403.048 1292.22 402.952C1292.06 402.856 1291.83 402.712 1291.52 402.52C1291.22 402.312 1291 402.112 1290.88 401.92C1290.75 401.712 1290.63 401.456 1290.52 401.152C1290.4 400.832 1290.35 400.496 1290.35 400.144C1290.35 399.168 1290.73 398.352 1291.5 397.696C1292.3 397.04 1293.28 396.712 1294.45 396.712C1295.41 396.712 1296.26 396.928 1297 397.36C1297.75 397.792 1298.3 398.392 1298.65 399.16L1297.33 399.928C1296.88 398.808 1295.92 398.248 1294.45 398.248C1293.73 398.248 1293.13 398.416 1292.65 398.752C1292.17 399.088 1291.93 399.552 1291.93 400.144ZM1313.2 396.712C1314.64 396.712 1315.78 397.16 1316.63 398.056C1317.48 398.936 1317.9 400.128 1317.9 401.632V409H1316.32V401.632C1316.32 400.56 1316.03 399.728 1315.45 399.136C1314.89 398.544 1314.09 398.248 1313.05 398.248C1311.85 398.248 1310.9 398.624 1310.2 399.376C1309.51 400.128 1309.17 401.24 1309.17 402.712V409H1307.58V392.2H1309.17V398.872C1310.06 397.432 1311.41 396.712 1313.2 396.712ZM1326.51 396.712C1328.3 396.712 1329.73 397.344 1330.81 398.608C1331.91 399.856 1332.46 401.336 1332.46 403.048C1332.46 403.128 1332.45 403.376 1332.41 403.792H1321.88C1322.04 404.992 1322.55 405.952 1323.41 406.672C1324.28 407.392 1325.36 407.752 1326.65 407.752C1328.48 407.752 1329.77 407.072 1330.52 405.712L1331.91 406.528C1331.38 407.392 1330.65 408.072 1329.73 408.568C1328.81 409.048 1327.78 409.288 1326.63 409.288C1324.74 409.288 1323.21 408.696 1322.02 407.512C1320.84 406.328 1320.25 404.824 1320.25 403C1320.25 401.192 1320.83 399.696 1322 398.512C1323.17 397.312 1324.67 396.712 1326.51 396.712ZM1326.51 398.248C1325.26 398.248 1324.21 398.616 1323.37 399.352C1322.53 400.088 1322.04 401.056 1321.88 402.256H1330.83C1330.65 400.976 1330.17 399.992 1329.37 399.304C1328.53 398.6 1327.58 398.248 1326.51 398.248ZM1345.3 399.352V397H1346.88V409H1345.3V406.648C1344.2 408.408 1342.58 409.288 1340.45 409.288C1338.74 409.288 1337.28 408.68 1336.06 407.464C1334.86 406.248 1334.26 404.76 1334.26 403C1334.26 401.24 1334.86 399.752 1336.06 398.536C1337.28 397.32 1338.74 396.712 1340.45 396.712C1342.58 396.712 1344.2 397.592 1345.3 399.352ZM1337.21 406.384C1338.12 407.296 1339.24 407.752 1340.57 407.752C1341.9 407.752 1343.02 407.296 1343.93 406.384C1344.84 405.44 1345.3 404.312 1345.3 403C1345.3 401.672 1344.84 400.552 1343.93 399.64C1343.02 398.712 1341.9 398.248 1340.57 398.248C1339.24 398.248 1338.12 398.712 1337.21 399.64C1336.3 400.552 1335.84 401.672 1335.84 403C1335.84 404.312 1336.3 405.44 1337.21 406.384ZM1351.82 409H1350.24V391.48H1351.82V409ZM1361.54 397V398.536H1358.09V405.808C1358.09 406.464 1358.22 406.936 1358.47 407.224C1358.73 407.496 1359.11 407.64 1359.62 407.656C1360.14 407.656 1360.78 407.64 1361.54 407.608V409C1359.83 409.256 1358.56 409.136 1357.73 408.64C1356.91 408.128 1356.5 407.184 1356.5 405.808V398.536H1353.98V397H1356.5V394.12L1358.09 393.64V397H1361.54ZM1369.8 396.712C1371.24 396.712 1372.38 397.16 1373.23 398.056C1374.08 398.936 1374.5 400.128 1374.5 401.632V409H1372.92V401.632C1372.92 400.56 1372.63 399.728 1372.06 399.136C1371.5 398.544 1370.7 398.248 1369.66 398.248C1368.46 398.248 1367.5 398.624 1366.8 399.376C1366.11 400.128 1365.77 401.24 1365.77 402.712V409H1364.18V392.2H1365.77V398.872C1366.66 397.432 1368.01 396.712 1369.8 396.712Z" fill="#239FFB"/>
</g>
<g filter="url(#filter5_ddddii_975_2088)">
<rect x="647" y="535" width="234" height="70" rx="35" fill="white"/>
<path d="M698.4 560.2V561.784H690.6V567.976H698.04V569.56H690.6V577H688.92V560.2H698.4ZM711.088 575.488C709.856 576.688 708.368 577.288 706.624 577.288C704.848 577.288 703.352 576.688 702.136 575.488C700.92 574.272 700.312 572.776 700.312 571C700.312 569.224 700.92 567.736 702.136 566.536C703.352 565.32 704.848 564.712 706.624 564.712C708.384 564.712 709.872 565.32 711.088 566.536C712.32 567.736 712.936 569.224 712.936 571C712.936 572.76 712.32 574.256 711.088 575.488ZM703.264 574.384C704.176 575.296 705.296 575.752 706.624 575.752C707.952 575.752 709.072 575.296 709.984 574.384C710.896 573.44 711.352 572.312 711.352 571C711.352 569.672 710.896 568.552 709.984 567.64C709.072 566.712 707.952 566.248 706.624 566.248C705.296 566.248 704.176 566.712 703.264 567.64C702.352 568.552 701.896 569.672 701.896 571C701.896 572.312 702.352 573.44 703.264 574.384ZM717.17 565V566.992C717.906 565.536 719.17 564.808 720.962 564.808V566.344C719.81 566.344 718.89 566.68 718.202 567.352C717.514 568.008 717.17 569 717.17 570.328V577H715.586V565H717.17ZM735.565 564.712C737.277 564.712 738.733 565.32 739.933 566.536C741.149 567.752 741.757 569.24 741.757 571C741.757 572.76 741.149 574.248 739.933 575.464C738.733 576.68 737.277 577.288 735.565 577.288C733.437 577.288 731.821 576.408 730.717 574.648V581.8H729.133V565H730.717V567.352C731.821 565.592 733.437 564.712 735.565 564.712ZM732.085 574.384C732.997 575.296 734.117 575.752 735.445 575.752C736.773 575.752 737.893 575.296 738.805 574.384C739.717 573.44 740.173 572.312 740.173 571C740.173 569.672 739.717 568.552 738.805 567.64C737.893 566.712 736.773 566.248 735.445 566.248C734.117 566.248 732.997 566.712 732.085 567.64C731.173 568.552 730.717 569.672 730.717 571C730.717 572.312 731.173 573.44 732.085 574.384ZM750.007 564.712C751.447 564.712 752.591 565.16 753.439 566.056C754.287 566.936 754.711 568.128 754.711 569.632V577H753.127V569.632C753.127 568.56 752.839 567.728 752.263 567.136C751.703 566.544 750.903 566.248 749.863 566.248C748.663 566.248 747.711 566.624 747.007 567.376C746.319 568.128 745.975 569.24 745.975 570.712V577H744.391V560.2H745.975V566.872C746.871 565.432 748.215 564.712 750.007 564.712ZM762.291 575.056L766.179 565H767.859L762.723 578.104C762.243 579.32 761.571 580.256 760.707 580.912C759.859 581.584 758.915 581.88 757.875 581.8V580.312C759.315 580.488 760.411 579.656 761.163 577.816L761.475 577.072L756.099 565H757.779L762.291 575.056ZM770.295 568.144C770.295 569.072 771.119 569.752 772.767 570.184C773.231 570.296 773.535 570.376 773.679 570.424C773.823 570.456 774.103 570.544 774.519 570.688C774.951 570.816 775.247 570.928 775.407 571.024C775.583 571.12 775.823 571.272 776.127 571.48C776.431 571.672 776.647 571.872 776.775 572.08C776.903 572.272 777.023 572.528 777.135 572.848C777.247 573.152 777.303 573.48 777.303 573.832C777.303 574.856 776.895 575.688 776.079 576.328C775.295 576.968 774.255 577.288 772.959 577.288C771.839 577.288 770.871 577.04 770.055 576.544C769.239 576.032 768.663 575.36 768.327 574.528L769.671 573.736C769.895 574.36 770.295 574.856 770.871 575.224C771.463 575.576 772.159 575.752 772.959 575.752C773.775 575.752 774.439 575.592 774.951 575.272C775.463 574.952 775.719 574.472 775.719 573.832C775.719 572.904 774.895 572.224 773.247 571.792C772.783 571.68 772.479 571.608 772.335 571.576C772.191 571.528 771.903 571.44 771.471 571.312C771.055 571.168 770.759 571.048 770.583 570.952C770.423 570.856 770.191 570.712 769.887 570.52C769.583 570.312 769.367 570.112 769.239 569.92C769.111 569.712 768.991 569.456 768.879 569.152C768.767 568.832 768.711 568.496 768.711 568.144C768.711 567.168 769.095 566.352 769.863 565.696C770.663 565.04 771.647 564.712 772.815 564.712C773.775 564.712 774.623 564.928 775.359 565.36C776.111 565.792 776.663 566.392 777.015 567.16L775.695 567.928C775.247 566.808 774.287 566.248 772.815 566.248C772.095 566.248 771.495 566.416 771.015 566.752C770.535 567.088 770.295 567.552 770.295 568.144ZM781.772 561.304C781.772 561.624 781.66 561.896 781.436 562.12C781.212 562.344 780.94 562.456 780.62 562.456C780.3 562.456 780.028 562.344 779.804 562.12C779.58 561.896 779.468 561.624 779.468 561.304C779.468 560.984 779.58 560.712 779.804 560.488C780.028 560.264 780.3 560.152 780.62 560.152C780.94 560.152 781.212 560.264 781.436 560.488C781.66 560.712 781.772 560.984 781.772 561.304ZM781.412 577H779.828V565H781.412V577ZM790.366 577.288C788.558 577.288 787.054 576.688 785.854 575.488C784.654 574.256 784.054 572.76 784.054 571C784.054 569.224 784.654 567.736 785.854 566.536C787.054 565.32 788.558 564.712 790.366 564.712C791.55 564.712 792.614 565 793.558 565.576C794.502 566.136 795.19 566.896 795.622 567.856L794.326 568.6C794.006 567.88 793.486 567.312 792.766 566.896C792.062 566.464 791.262 566.248 790.366 566.248C789.038 566.248 787.918 566.712 787.006 567.64C786.094 568.552 785.638 569.672 785.638 571C785.638 572.312 786.094 573.44 787.006 574.384C787.918 575.296 789.038 575.752 790.366 575.752C791.246 575.752 792.038 575.544 792.742 575.128C793.462 574.712 794.022 574.136 794.422 573.4L795.742 574.168C795.246 575.128 794.518 575.888 793.558 576.448C792.598 577.008 791.534 577.288 790.366 577.288ZM799.96 561.304C799.96 561.624 799.848 561.896 799.624 562.12C799.4 562.344 799.128 562.456 798.808 562.456C798.488 562.456 798.216 562.344 797.992 562.12C797.768 561.896 797.656 561.624 797.656 561.304C797.656 560.984 797.768 560.712 797.992 560.488C798.216 560.264 798.488 560.152 798.808 560.152C799.128 560.152 799.4 560.264 799.624 560.488C799.848 560.712 799.96 560.984 799.96 561.304ZM799.6 577H798.016V565H799.6V577ZM813.281 567.352V565H814.865V577H813.281V574.648C812.177 576.408 810.561 577.288 808.433 577.288C806.721 577.288 805.257 576.68 804.041 575.464C802.841 574.248 802.241 572.76 802.241 571C802.241 569.24 802.841 567.752 804.041 566.536C805.257 565.32 806.721 564.712 808.433 564.712C810.561 564.712 812.177 565.592 813.281 567.352ZM805.193 574.384C806.105 575.296 807.225 575.752 808.553 575.752C809.881 575.752 811.001 575.296 811.913 574.384C812.825 573.44 813.281 572.312 813.281 571C813.281 569.672 812.825 568.552 811.913 567.64C811.001 566.712 809.881 566.248 808.553 566.248C807.225 566.248 806.105 566.712 805.193 567.64C804.281 568.552 803.825 569.672 803.825 571C803.825 572.312 804.281 573.44 805.193 574.384ZM823.835 564.712C825.275 564.712 826.419 565.16 827.267 566.056C828.115 566.936 828.539 568.128 828.539 569.632V577H826.955V569.632C826.955 568.56 826.667 567.728 826.091 567.136C825.531 566.544 824.731 566.248 823.691 566.248C822.491 566.248 821.539 566.624 820.835 567.376C820.147 568.128 819.803 569.24 819.803 570.712V577H818.219V565H819.803V566.872C820.699 565.432 822.043 564.712 823.835 564.712ZM832.85 568.144C832.85 569.072 833.674 569.752 835.322 570.184C835.786 570.296 836.09 570.376 836.234 570.424C836.378 570.456 836.658 570.544 837.074 570.688C837.506 570.816 837.802 570.928 837.962 571.024C838.138 571.12 838.378 571.272 838.682 571.48C838.986 571.672 839.202 571.872 839.33 572.08C839.458 572.272 839.578 572.528 839.69 572.848C839.802 573.152 839.858 573.48 839.858 573.832C839.858 574.856 839.45 575.688 838.634 576.328C837.85 576.968 836.81 577.288 835.514 577.288C834.394 577.288 833.426 577.04 832.61 576.544C831.794 576.032 831.218 575.36 830.882 574.528L832.226 573.736C832.45 574.36 832.85 574.856 833.426 575.224C834.018 575.576 834.714 575.752 835.514 575.752C836.33 575.752 836.994 575.592 837.506 575.272C838.018 574.952 838.274 574.472 838.274 573.832C838.274 572.904 837.45 572.224 835.802 571.792C835.338 571.68 835.034 571.608 834.89 571.576C834.746 571.528 834.458 571.44 834.026 571.312C833.61 571.168 833.314 571.048 833.138 570.952C832.978 570.856 832.746 570.712 832.442 570.52C832.138 570.312 831.922 570.112 831.794 569.92C831.666 569.712 831.546 569.456 831.434 569.152C831.322 568.832 831.266 568.496 831.266 568.144C831.266 567.168 831.65 566.352 832.418 565.696C833.218 565.04 834.202 564.712 835.37 564.712C836.33 564.712 837.178 564.928 837.914 565.36C838.666 565.792 839.218 566.392 839.57 567.16L838.25 567.928C837.802 566.808 836.842 566.248 835.37 566.248C834.65 566.248 834.05 566.416 833.57 566.752C833.09 567.088 832.85 567.552 832.85 568.144Z" fill="#323232"/>
</g>
<g filter="url(#filter6_ddddii_975_2088)">
<rect x="980" y="535" width="205" height="70" rx="35" fill="white"/>
<path d="M1032.88 567.568V560.2H1034.56V577H1032.88V569.152H1023.76V577H1022.08V560.2H1023.76V567.568H1032.88ZM1043.69 564.712C1045.48 564.712 1046.92 565.344 1047.99 566.608C1049.09 567.856 1049.64 569.336 1049.64 571.048C1049.64 571.128 1049.63 571.376 1049.6 571.792H1039.06C1039.22 572.992 1039.73 573.952 1040.6 574.672C1041.46 575.392 1042.54 575.752 1043.84 575.752C1045.66 575.752 1046.95 575.072 1047.7 573.712L1049.09 574.528C1048.56 575.392 1047.84 576.072 1046.91 576.568C1046 577.048 1044.96 577.288 1043.81 577.288C1041.92 577.288 1040.39 576.696 1039.2 575.512C1038.02 574.328 1037.43 572.824 1037.43 571C1037.43 569.192 1038.01 567.696 1039.18 566.512C1040.35 565.312 1041.85 564.712 1043.69 564.712ZM1043.69 566.248C1042.44 566.248 1041.4 566.616 1040.55 567.352C1039.72 568.088 1039.22 569.056 1039.06 570.256H1048.01C1047.84 568.976 1047.35 567.992 1046.55 567.304C1045.72 566.6 1044.76 566.248 1043.69 566.248ZM1062.48 567.352V565H1064.07V577H1062.48V574.648C1061.38 576.408 1059.76 577.288 1057.64 577.288C1055.92 577.288 1054.46 576.68 1053.24 575.464C1052.04 574.248 1051.44 572.76 1051.44 571C1051.44 569.24 1052.04 567.752 1053.24 566.536C1054.46 565.32 1055.92 564.712 1057.64 564.712C1059.76 564.712 1061.38 565.592 1062.48 567.352ZM1054.4 574.384C1055.31 575.296 1056.43 575.752 1057.76 575.752C1059.08 575.752 1060.2 575.296 1061.12 574.384C1062.03 573.44 1062.48 572.312 1062.48 571C1062.48 569.672 1062.03 568.552 1061.12 567.64C1060.2 566.712 1059.08 566.248 1057.76 566.248C1056.43 566.248 1055.31 566.712 1054.4 567.64C1053.48 568.552 1053.03 569.672 1053.03 571C1053.03 572.312 1053.48 573.44 1054.4 574.384ZM1069.01 577H1067.42V559.48H1069.01V577ZM1078.73 565V566.536H1075.27V573.808C1075.27 574.464 1075.4 574.936 1075.66 575.224C1075.91 575.496 1076.3 575.64 1076.81 575.656C1077.32 575.656 1077.96 575.64 1078.73 575.608V577C1077.02 577.256 1075.74 577.136 1074.91 576.64C1074.1 576.128 1073.69 575.184 1073.69 573.808V566.536H1071.17V565H1073.69V562.12L1075.27 561.64V565H1078.73ZM1086.98 564.712C1088.42 564.712 1089.57 565.16 1090.42 566.056C1091.26 566.936 1091.69 568.128 1091.69 569.632V577H1090.1V569.632C1090.1 568.56 1089.82 567.728 1089.24 567.136C1088.68 566.544 1087.88 566.248 1086.84 566.248C1085.64 566.248 1084.69 566.624 1083.98 567.376C1083.3 568.128 1082.95 569.24 1082.95 570.712V577H1081.37V560.2H1082.95V566.872C1083.85 565.432 1085.19 564.712 1086.98 564.712ZM1111.07 567.352V565H1112.65V577H1111.07V574.648C1109.97 576.408 1108.35 577.288 1106.22 577.288C1104.51 577.288 1103.05 576.68 1101.83 575.464C1100.63 574.248 1100.03 572.76 1100.03 571C1100.03 569.24 1100.63 567.752 1101.83 566.536C1103.05 565.32 1104.51 564.712 1106.22 564.712C1108.35 564.712 1109.97 565.592 1111.07 567.352ZM1102.98 574.384C1103.89 575.296 1105.01 575.752 1106.34 575.752C1107.67 575.752 1108.79 575.296 1109.7 574.384C1110.61 573.44 1111.07 572.312 1111.07 571C1111.07 569.672 1110.61 568.552 1109.7 567.64C1108.79 566.712 1107.67 566.248 1106.34 566.248C1105.01 566.248 1103.89 566.712 1102.98 567.64C1102.07 568.552 1101.61 569.672 1101.61 571C1101.61 572.312 1102.07 573.44 1102.98 574.384ZM1122.44 564.712C1124.15 564.712 1125.61 565.32 1126.81 566.536C1128.02 567.752 1128.63 569.24 1128.63 571C1128.63 572.76 1128.02 574.248 1126.81 575.464C1125.61 576.68 1124.15 577.288 1122.44 577.288C1120.31 577.288 1118.7 576.408 1117.59 574.648V581.8H1116.01V565H1117.59V567.352C1118.7 565.592 1120.31 564.712 1122.44 564.712ZM1118.96 574.384C1119.87 575.296 1120.99 575.752 1122.32 575.752C1123.65 575.752 1124.77 575.296 1125.68 574.384C1126.59 573.44 1127.05 572.312 1127.05 571C1127.05 569.672 1126.59 568.552 1125.68 567.64C1124.77 566.712 1123.65 566.248 1122.32 566.248C1120.99 566.248 1119.87 566.712 1118.96 567.64C1118.05 568.552 1117.59 569.672 1117.59 571C1117.59 572.312 1118.05 573.44 1118.96 574.384ZM1137.7 564.712C1139.41 564.712 1140.87 565.32 1142.07 566.536C1143.28 567.752 1143.89 569.24 1143.89 571C1143.89 572.76 1143.28 574.248 1142.07 575.464C1140.87 576.68 1139.41 577.288 1137.7 577.288C1135.57 577.288 1133.95 576.408 1132.85 574.648V581.8H1131.27V565H1132.85V567.352C1133.95 565.592 1135.57 564.712 1137.7 564.712ZM1134.22 574.384C1135.13 575.296 1136.25 575.752 1137.58 575.752C1138.91 575.752 1140.03 575.296 1140.94 574.384C1141.85 573.44 1142.31 572.312 1142.31 571C1142.31 569.672 1141.85 568.552 1140.94 567.64C1140.03 566.712 1138.91 566.248 1137.58 566.248C1136.25 566.248 1135.13 566.712 1134.22 567.64C1133.31 568.552 1132.85 569.672 1132.85 571C1132.85 572.312 1133.31 573.44 1134.22 574.384Z" fill="#323232"/>
</g>
<g filter="url(#filter7_ddddii_975_2088)">
<rect x="1314" y="535" width="272" height="100" rx="35" fill="white"/>
<path d="M1363.77 577.288C1361.21 577.288 1359.1 576.448 1357.46 574.768C1355.79 573.072 1354.96 571.016 1354.96 568.6C1354.96 566.184 1355.79 564.128 1357.46 562.432C1359.1 560.752 1361.21 559.912 1363.77 559.912C1365.3 559.912 1366.72 560.288 1368.02 561.04C1369.31 561.776 1370.32 562.776 1371.04 564.04L1369.55 564.904C1369.02 563.88 1368.24 563.064 1367.2 562.456C1366.16 561.848 1365.02 561.544 1363.77 561.544C1361.66 561.544 1359.94 562.224 1358.63 563.584C1357.3 564.96 1356.64 566.632 1356.64 568.6C1356.64 570.568 1357.3 572.24 1358.63 573.616C1359.94 574.976 1361.66 575.656 1363.77 575.656C1365.02 575.656 1366.16 575.352 1367.2 574.744C1368.24 574.136 1369.02 573.32 1369.55 572.296L1371.04 573.136C1370.35 574.4 1369.35 575.408 1368.04 576.16C1366.73 576.912 1365.3 577.288 1363.77 577.288ZM1375.15 565V566.992C1375.88 565.536 1377.15 564.808 1378.94 564.808V566.344C1377.79 566.344 1376.87 566.68 1376.18 567.352C1375.49 568.008 1375.15 569 1375.15 570.328V577H1373.56V565H1375.15ZM1386.1 575.056L1389.98 565H1391.66L1386.53 578.104C1386.05 579.32 1385.38 580.256 1384.51 580.912C1383.66 581.584 1382.72 581.88 1381.68 581.8V580.312C1383.12 580.488 1384.22 579.656 1384.97 577.816L1385.28 577.072L1379.9 565H1381.58L1386.1 575.056ZM1400.01 564.712C1401.72 564.712 1403.18 565.32 1404.38 566.536C1405.59 567.752 1406.2 569.24 1406.2 571C1406.2 572.76 1405.59 574.248 1404.38 575.464C1403.18 576.68 1401.72 577.288 1400.01 577.288C1397.88 577.288 1396.27 576.408 1395.16 574.648V581.8H1393.58V565H1395.16V567.352C1396.27 565.592 1397.88 564.712 1400.01 564.712ZM1396.53 574.384C1397.44 575.296 1398.56 575.752 1399.89 575.752C1401.22 575.752 1402.34 575.296 1403.25 574.384C1404.16 573.44 1404.62 572.312 1404.62 571C1404.62 569.672 1404.16 568.552 1403.25 567.64C1402.34 566.712 1401.22 566.248 1399.89 566.248C1398.56 566.248 1397.44 566.712 1396.53 567.64C1395.62 568.552 1395.16 569.672 1395.16 571C1395.16 572.312 1395.62 573.44 1396.53 574.384ZM1414.96 565V566.536H1411.51V573.808C1411.51 574.464 1411.63 574.936 1411.89 575.224C1412.15 575.496 1412.53 575.64 1413.04 575.656C1413.55 575.656 1414.19 575.64 1414.96 575.608V577C1413.25 577.256 1411.98 577.136 1411.15 576.64C1410.33 576.128 1409.92 575.184 1409.92 573.808V566.536H1407.4V565H1409.92V562.12L1411.51 561.64V565H1414.96ZM1426.93 575.488C1425.7 576.688 1424.21 577.288 1422.47 577.288C1420.69 577.288 1419.2 576.688 1417.98 575.488C1416.76 574.272 1416.16 572.776 1416.16 571C1416.16 569.224 1416.76 567.736 1417.98 566.536C1419.2 565.32 1420.69 564.712 1422.47 564.712C1424.23 564.712 1425.72 565.32 1426.93 566.536C1428.16 567.736 1428.78 569.224 1428.78 571C1428.78 572.76 1428.16 574.256 1426.93 575.488ZM1419.11 574.384C1420.02 575.296 1421.14 575.752 1422.47 575.752C1423.8 575.752 1424.92 575.296 1425.83 574.384C1426.74 573.44 1427.2 572.312 1427.2 571C1427.2 569.672 1426.74 568.552 1425.83 567.64C1424.92 566.712 1423.8 566.248 1422.47 566.248C1421.14 566.248 1420.02 566.712 1419.11 567.64C1418.2 568.552 1417.74 569.672 1417.74 571C1417.74 572.312 1418.2 573.44 1419.11 574.384ZM1447.75 567.352V565H1449.33V577H1447.75V574.648C1446.65 576.408 1445.03 577.288 1442.9 577.288C1441.19 577.288 1439.73 576.68 1438.51 575.464C1437.31 574.248 1436.71 572.76 1436.71 571C1436.71 569.24 1437.31 567.752 1438.51 566.536C1439.73 565.32 1441.19 564.712 1442.9 564.712C1445.03 564.712 1446.65 565.592 1447.75 567.352ZM1439.66 574.384C1440.57 575.296 1441.69 575.752 1443.02 575.752C1444.35 575.752 1445.47 575.296 1446.38 574.384C1447.29 573.44 1447.75 572.312 1447.75 571C1447.75 569.672 1447.29 568.552 1446.38 567.64C1445.47 566.712 1444.35 566.248 1443.02 566.248C1441.69 566.248 1440.57 566.712 1439.66 567.64C1438.75 568.552 1438.29 569.672 1438.29 571C1438.29 572.312 1438.75 573.44 1439.66 574.384ZM1459.12 564.712C1460.83 564.712 1462.29 565.32 1463.49 566.536C1464.7 567.752 1465.31 569.24 1465.31 571C1465.31 572.76 1464.7 574.248 1463.49 575.464C1462.29 576.68 1460.83 577.288 1459.12 577.288C1456.99 577.288 1455.38 576.408 1454.27 574.648V581.8H1452.69V565H1454.27V567.352C1455.38 565.592 1456.99 564.712 1459.12 564.712ZM1455.64 574.384C1456.55 575.296 1457.67 575.752 1459 575.752C1460.33 575.752 1461.45 575.296 1462.36 574.384C1463.27 573.44 1463.73 572.312 1463.73 571C1463.73 569.672 1463.27 568.552 1462.36 567.64C1461.45 566.712 1460.33 566.248 1459 566.248C1457.67 566.248 1456.55 566.712 1455.64 567.64C1454.73 568.552 1454.27 569.672 1454.27 571C1454.27 572.312 1454.73 573.44 1455.64 574.384ZM1474.38 564.712C1476.09 564.712 1477.55 565.32 1478.75 566.536C1479.96 567.752 1480.57 569.24 1480.57 571C1480.57 572.76 1479.96 574.248 1478.75 575.464C1477.55 576.68 1476.09 577.288 1474.38 577.288C1472.25 577.288 1470.63 576.408 1469.53 574.648V581.8H1467.95V565H1469.53V567.352C1470.63 565.592 1472.25 564.712 1474.38 564.712ZM1470.9 574.384C1471.81 575.296 1472.93 575.752 1474.26 575.752C1475.59 575.752 1476.71 575.296 1477.62 574.384C1478.53 573.44 1478.99 572.312 1478.99 571C1478.99 569.672 1478.53 568.552 1477.62 567.64C1476.71 566.712 1475.59 566.248 1474.26 566.248C1472.93 566.248 1471.81 566.712 1470.9 567.64C1469.99 568.552 1469.53 569.672 1469.53 571C1469.53 572.312 1469.99 573.44 1470.9 574.384ZM1361.68 589.912V591.448C1360.51 591.352 1359.64 591.552 1359.06 592.048C1358.5 592.544 1358.22 593.368 1358.22 594.52V595H1361.68V596.536H1358.22V607H1356.64V596.536H1354.6V595H1356.64V594.52C1356.64 592.936 1357.07 591.744 1357.94 590.944C1358.82 590.144 1360.06 589.8 1361.68 589.912ZM1372.7 605.488C1371.46 606.688 1369.98 607.288 1368.23 607.288C1366.46 607.288 1364.96 606.688 1363.74 605.488C1362.53 604.272 1361.92 602.776 1361.92 601C1361.92 599.224 1362.53 597.736 1363.74 596.536C1364.96 595.32 1366.46 594.712 1368.23 594.712C1369.99 594.712 1371.48 595.32 1372.7 596.536C1373.93 597.736 1374.54 599.224 1374.54 601C1374.54 602.76 1373.93 604.256 1372.7 605.488ZM1364.87 604.384C1365.78 605.296 1366.9 605.752 1368.23 605.752C1369.56 605.752 1370.68 605.296 1371.59 604.384C1372.5 603.44 1372.96 602.312 1372.96 601C1372.96 599.672 1372.5 598.552 1371.59 597.64C1370.68 596.712 1369.56 596.248 1368.23 596.248C1366.9 596.248 1365.78 596.712 1364.87 597.64C1363.96 598.552 1363.5 599.672 1363.5 601C1363.5 602.312 1363.96 603.44 1364.87 604.384ZM1378.78 595V596.992C1379.52 595.536 1380.78 594.808 1382.57 594.808V596.344C1381.42 596.344 1380.5 596.68 1379.81 597.352C1379.12 598.008 1378.78 599 1378.78 600.328V607H1377.2V595H1378.78ZM1396.36 594.712C1397.8 594.712 1398.94 595.16 1399.79 596.056C1400.64 596.936 1401.06 598.128 1401.06 599.632V607H1399.48V599.632C1399.48 598.56 1399.19 597.728 1398.61 597.136C1398.05 596.544 1397.25 596.248 1396.21 596.248C1395.01 596.248 1394.06 596.624 1393.36 597.376C1392.67 598.128 1392.33 599.24 1392.33 600.712V607H1390.74V590.2H1392.33V596.872C1393.22 595.432 1394.57 594.712 1396.36 594.712ZM1409.67 594.712C1411.46 594.712 1412.89 595.344 1413.97 596.608C1415.07 597.856 1415.62 599.336 1415.62 601.048C1415.62 601.128 1415.61 601.376 1415.57 601.792H1405.04C1405.2 602.992 1405.71 603.952 1406.57 604.672C1407.44 605.392 1408.52 605.752 1409.81 605.752C1411.64 605.752 1412.93 605.072 1413.68 603.712L1415.07 604.528C1414.54 605.392 1413.81 606.072 1412.89 606.568C1411.97 607.048 1410.94 607.288 1409.79 607.288C1407.9 607.288 1406.37 606.696 1405.18 605.512C1404 604.328 1403.41 602.824 1403.41 601C1403.41 599.192 1403.99 597.696 1405.16 596.512C1406.33 595.312 1407.83 594.712 1409.67 594.712ZM1409.67 596.248C1408.42 596.248 1407.37 596.616 1406.53 597.352C1405.69 598.088 1405.2 599.056 1405.04 600.256H1413.99C1413.81 598.976 1413.33 597.992 1412.53 597.304C1411.69 596.6 1410.74 596.248 1409.67 596.248ZM1428.46 597.352V595H1430.04V607H1428.46V604.648C1427.36 606.408 1425.74 607.288 1423.61 607.288C1421.9 607.288 1420.44 606.68 1419.22 605.464C1418.02 604.248 1417.42 602.76 1417.42 601C1417.42 599.24 1418.02 597.752 1419.22 596.536C1420.44 595.32 1421.9 594.712 1423.61 594.712C1425.74 594.712 1427.36 595.592 1428.46 597.352ZM1420.37 604.384C1421.28 605.296 1422.4 605.752 1423.73 605.752C1425.06 605.752 1426.18 605.296 1427.09 604.384C1428 603.44 1428.46 602.312 1428.46 601C1428.46 599.672 1428 598.552 1427.09 597.64C1426.18 596.712 1425.06 596.248 1423.73 596.248C1422.4 596.248 1421.28 596.712 1420.37 597.64C1419.46 598.552 1419 599.672 1419 601C1419 602.312 1419.46 603.44 1420.37 604.384ZM1434.98 607H1433.4V589.48H1434.98V607ZM1444.7 595V596.536H1441.25V603.808C1441.25 604.464 1441.38 604.936 1441.63 605.224C1441.89 605.496 1442.27 605.64 1442.78 605.656C1443.3 605.656 1443.94 605.64 1444.7 605.608V607C1442.99 607.256 1441.72 607.136 1440.89 606.64C1440.07 606.128 1439.66 605.184 1439.66 603.808V596.536H1437.14V595H1439.66V592.12L1441.25 591.64V595H1444.7ZM1452.96 594.712C1454.4 594.712 1455.54 595.16 1456.39 596.056C1457.24 596.936 1457.66 598.128 1457.66 599.632V607H1456.08V599.632C1456.08 598.56 1455.79 597.728 1455.22 597.136C1454.66 596.544 1453.86 596.248 1452.82 596.248C1451.62 596.248 1450.66 596.624 1449.96 597.376C1449.27 598.128 1448.93 599.24 1448.93 600.712V607H1447.34V590.2H1448.93V596.872C1449.82 595.432 1451.17 594.712 1452.96 594.712ZM1465.24 605.056L1469.13 595H1470.81L1465.68 608.104C1465.2 609.32 1464.52 610.256 1463.66 610.912C1462.81 611.584 1461.87 611.88 1460.83 611.8V610.312C1462.27 610.488 1463.36 609.656 1464.12 607.816L1464.43 607.072L1459.05 595H1460.73L1465.24 605.056ZM1484.34 594.712C1485.78 594.712 1486.93 595.16 1487.77 596.056C1488.62 596.936 1489.05 598.128 1489.05 599.632V607H1487.46V599.632C1487.46 598.56 1487.17 597.728 1486.6 597.136C1486.04 596.544 1485.24 596.248 1484.2 596.248C1483 596.248 1482.05 596.624 1481.34 597.376C1480.65 598.128 1480.31 599.24 1480.31 600.712V607H1478.73V590.2H1480.31V596.872C1481.21 595.432 1482.55 594.712 1484.34 594.712ZM1502.43 597.352V595H1504.01V607H1502.43V604.648C1501.33 606.408 1499.71 607.288 1497.58 607.288C1495.87 607.288 1494.41 606.68 1493.19 605.464C1491.99 604.248 1491.39 602.76 1491.39 601C1491.39 599.24 1491.99 597.752 1493.19 596.536C1494.41 595.32 1495.87 594.712 1497.58 594.712C1499.71 594.712 1501.33 595.592 1502.43 597.352ZM1494.34 604.384C1495.25 605.296 1496.37 605.752 1497.7 605.752C1499.03 605.752 1500.15 605.296 1501.06 604.384C1501.97 603.44 1502.43 602.312 1502.43 601C1502.43 599.672 1501.97 598.552 1501.06 597.64C1500.15 596.712 1499.03 596.248 1497.7 596.248C1496.37 596.248 1495.25 596.712 1494.34 597.64C1493.43 598.552 1492.97 599.672 1492.97 601C1492.97 602.312 1493.43 603.44 1494.34 604.384ZM1513.8 594.712C1515.51 594.712 1516.97 595.32 1518.17 596.536C1519.38 597.752 1519.99 599.24 1519.99 601C1519.99 602.76 1519.38 604.248 1518.17 605.464C1516.97 606.68 1515.51 607.288 1513.8 607.288C1511.67 607.288 1510.06 606.408 1508.95 604.648V607H1507.37V590.2H1508.95V597.352C1510.06 595.592 1511.67 594.712 1513.8 594.712ZM1510.32 604.384C1511.23 605.296 1512.35 605.752 1513.68 605.752C1515.01 605.752 1516.13 605.296 1517.04 604.384C1517.95 603.44 1518.41 602.312 1518.41 601C1518.41 599.672 1517.95 598.552 1517.04 597.64C1516.13 596.712 1515.01 596.248 1513.68 596.248C1512.35 596.248 1511.23 596.712 1510.32 597.64C1509.41 598.552 1508.95 599.672 1508.95 601C1508.95 602.312 1509.41 603.44 1510.32 604.384ZM1524.57 591.304C1524.57 591.624 1524.46 591.896 1524.23 592.12C1524.01 592.344 1523.74 592.456 1523.42 592.456C1523.1 592.456 1522.83 592.344 1522.6 592.12C1522.38 591.896 1522.27 591.624 1522.27 591.304C1522.27 590.984 1522.38 590.712 1522.6 590.488C1522.83 590.264 1523.1 590.152 1523.42 590.152C1523.74 590.152 1524.01 590.264 1524.23 590.488C1524.46 590.712 1524.57 590.984 1524.57 591.304ZM1524.21 607H1522.63V595H1524.21V607ZM1533.93 595V596.536H1530.47V603.808C1530.47 604.464 1530.6 604.936 1530.86 605.224C1531.11 605.496 1531.5 605.64 1532.01 605.656C1532.52 605.656 1533.16 605.64 1533.93 605.608V607C1532.22 607.256 1530.95 607.136 1530.11 606.64C1529.3 606.128 1528.89 605.184 1528.89 603.808V596.536H1526.37V595H1528.89V592.12L1530.47 591.64V595H1533.93ZM1537.09 598.144C1537.09 599.072 1537.92 599.752 1539.56 600.184C1540.03 600.296 1540.33 600.376 1540.48 600.424C1540.62 600.456 1540.9 600.544 1541.32 600.688C1541.75 600.816 1542.04 600.928 1542.2 601.024C1542.38 601.12 1542.62 601.272 1542.92 601.48C1543.23 601.672 1543.44 601.872 1543.57 602.08C1543.7 602.272 1543.82 602.528 1543.93 602.848C1544.04 603.152 1544.1 603.48 1544.1 603.832C1544.1 604.856 1543.69 605.688 1542.88 606.328C1542.09 606.968 1541.05 607.288 1539.76 607.288C1538.64 607.288 1537.67 607.04 1536.85 606.544C1536.04 606.032 1535.46 605.36 1535.12 604.528L1536.47 603.736C1536.69 604.36 1537.09 604.856 1537.67 605.224C1538.26 605.576 1538.96 605.752 1539.76 605.752C1540.57 605.752 1541.24 605.592 1541.75 605.272C1542.26 604.952 1542.52 604.472 1542.52 603.832C1542.52 602.904 1541.69 602.224 1540.04 601.792C1539.58 601.68 1539.28 601.608 1539.13 601.576C1538.99 601.528 1538.7 601.44 1538.27 601.312C1537.85 601.168 1537.56 601.048 1537.38 600.952C1537.22 600.856 1536.99 600.712 1536.68 600.52C1536.38 600.312 1536.16 600.112 1536.04 599.92C1535.91 599.712 1535.79 599.456 1535.68 599.152C1535.56 598.832 1535.51 598.496 1535.51 598.144C1535.51 597.168 1535.89 596.352 1536.66 595.696C1537.46 595.04 1538.44 594.712 1539.61 594.712C1540.57 594.712 1541.42 594.928 1542.16 595.36C1542.91 595.792 1543.46 596.392 1543.81 597.16L1542.49 597.928C1542.04 596.808 1541.08 596.248 1539.61 596.248C1538.89 596.248 1538.29 596.416 1537.81 596.752C1537.33 597.088 1537.09 597.552 1537.09 598.144Z" fill="#323232"/>
</g>
<path opacity="0.5" d="M594.5 353L600.274 343H588.726L594.5 353ZM938.5 260V293H940.5V260H938.5ZM931.5 300H602.5V302H931.5V300ZM593.5 309V344H595.5V309H593.5ZM602.5 300C597.529 300 593.5 304.029 593.5 309H595.5C595.5 305.134 598.634 302 602.5 302V300ZM938.5 293C938.5 296.866 935.366 300 931.5 300V302C936.471 302 940.5 297.971 940.5 293H938.5Z" fill="#239FFB"/>
<path opacity="0.5" d="M427 521L432.774 511H421.226L427 521ZM591 456V475H593V456H591ZM584 482H435V484H584V482ZM426 491V512H428V491H426ZM435 482C430.029 482 426 486.029 426 491H428C428 487.134 431.134 484 435 484V482ZM591 475C591 478.866 587.866 482 584 482V484C588.971 484 593 479.971 593 475H591Z" fill="#239FFB"/>
<path opacity="0.5" d="M1083 521L1088.77 511H1077.23L1083 521ZM1267 456V475H1269V456H1267ZM1260 482H1091V484H1260V482ZM1082 491V512H1084V491H1082ZM1091 482C1086.03 482 1082 486.029 1082 491H1084C1084 487.134 1087.13 484 1091 484V482ZM1267 475C1267 478.866 1263.87 482 1260 482V484C1264.97 484 1269 479.971 1269 475H1267Z" fill="#239FFB"/>
<path opacity="0.5" d="M1083 694L1088.77 684L1077.23 684L1083 694ZM1082 627L1082 685L1084 685L1084 627L1082 627Z" fill="#239FFB"/>
<path opacity="0.5" d="M1450 694L1455.77 684L1444.23 684L1450 694ZM1449 659L1449 685L1451 685L1451 659L1449 659Z" fill="#239FFB"/>
<path opacity="0.5" d="M764 624V646C764 650.418 760.418 654 756 654H598" stroke="#239FFB" stroke-width="2"/>
<path opacity="0.5" d="M764 521L758.226 511H769.774L764 521ZM600 456V475H598V456H600ZM607 482H756V484H607V482ZM765 491V512H763V491H765ZM756 482C760.971 482 765 486.029 765 491H763C763 487.134 759.866 484 756 484V482ZM600 475C600 478.866 603.134 482 607 482V484C602.029 484 598 479.971 598 475H600Z" fill="#239FFB"/>
<path opacity="0.5" d="M1450 521L1444.23 511H1455.77L1450 521ZM1276 456V475H1274V456H1276ZM1283 482H1442V484H1283V482ZM1451 491V512H1449V491H1451ZM1442 482C1446.97 482 1451 486.029 1451 491H1449C1449 487.134 1445.87 484 1442 484V482ZM1276 475C1276 478.866 1279.13 482 1283 482V484C1278.03 484 1274 479.971 1274 475H1276Z" fill="#239FFB"/>
<path opacity="0.5" d="M597 654V653H598V654H597ZM597 692L591.226 682H602.774L597 692ZM428 624V646H426V624H428ZM435 653H597V655H435V653ZM598 654V683H596V654H598ZM428 646C428 649.866 431.134 653 435 653V655C430.029 655 426 650.971 426 646H428Z" fill="#239FFB"/>
<path opacity="0.5" d="M1272 353L1266.23 343H1277.77L1272 353ZM950 260V293H948V260H950ZM957 300H1264V302H957V300ZM1273 309V344H1271V309H1273ZM1264 300C1268.97 300 1273 304.029 1273 309H1271C1271 305.134 1267.87 302 1264 302V300ZM950 293C950 296.866 953.134 300 957 300V302C952.029 302 948 297.971 948 293H950Z" fill="#239FFB"/>
<defs>
<filter id="filter0_ddddii_975_2088" x="225" y="85" width="1473" height="868" filterUnits="userSpaceOnUse" color-interpolation-filters="sRGB">
<feFlood flood-opacity="0" result="BackgroundImageFix"/>
<feColorMatrix in="SourceAlpha" type="matrix" values="0 0 0 0 0 0 0 0 0 0 0 0 0 0 0 0 0 0 127 0" result="hardAlpha"/>
<feOffset dx="5" dy="5"/>
<feGaussianBlur stdDeviation="6.5"/>
<feColorMatrix type="matrix" values="0 0 0 0 0.819608 0 0 0 0 0.85098 0 0 0 0 0.901961 0 0 0 0.9 0"/>
<feBlend mode="normal" in2="BackgroundImageFix" result="effect1_dropShadow_975_2088"/>
<feColorMatrix in="SourceAlpha" type="matrix" values="0 0 0 0 0 0 0 0 0 0 0 0 0 0 0 0 0 0 127 0" result="hardAlpha"/>
<feOffset dx="-5" dy="-5"/>
<feGaussianBlur stdDeviation="5"/>
<feColorMatrix type="matrix" values="0 0 0 0 1 0 0 0 0 1 0 0 0 0 1 0 0 0 0.9 0"/>
<feBlend mode="normal" in2="effect1_dropShadow_975_2088" result="effect2_dropShadow_975_2088"/>
<feColorMatrix in="SourceAlpha" type="matrix" values="0 0 0 0 0 0 0 0 0 0 0 0 0 0 0 0 0 0 127 0" result="hardAlpha"/>
<feOffset dx="5" dy="-5"/>
<feGaussianBlur stdDeviation="5"/>
<feColorMatrix type="matrix" values="0 0 0 0 0.819608 0 0 0 0 0.85098 0 0 0 0 0.901961 0 0 0 0.2 0"/>
<feBlend mode="normal" in2="effect2_dropShadow_975_2088" result="effect3_dropShadow_975_2088"/>
<feColorMatrix in="SourceAlpha" type="matrix" values="0 0 0 0 0 0 0 0 0 0 0 0 0 0 0 0 0 0 127 0" result="hardAlpha"/>
<feOffset dx="-5" dy="5"/>
<feGaussianBlur stdDeviation="5"/>
<feColorMatrix type="matrix" values="0 0 0 0 0.819608 0 0 0 0 0.85098 0 0 0 0 0.901961 0 0 0 0.2 0"/>
<feBlend mode="normal" in2="effect3_dropShadow_975_2088" result="effect4_dropShadow_975_2088"/>
<feBlend mode="normal" in="SourceGraphic" in2="effect4_dropShadow_975_2088" result="shape"/>
<feColorMatrix in="SourceAlpha" type="matrix" values="0 0 0 0 0 0 0 0 0 0 0 0 0 0 0 0 0 0 127 0" result="hardAlpha"/>
<feOffset dx="-1" dy="-1"/>
<feGaussianBlur stdDeviation="1"/>
<feComposite in2="hardAlpha" operator="arithmetic" k2="-1" k3="1"/>
<feColorMatrix type="matrix" values="0 0 0 0 0.819608 0 0 0 0 0.85098 0 0 0 0 0.901961 0 0 0 0.5 0"/>
<feBlend mode="normal" in2="shape" result="effect5_innerShadow_975_2088"/>
<feColorMatrix in="SourceAlpha" type="matrix" values="0 0 0 0 0 0 0 0 0 0 0 0 0 0 0 0 0 0 127 0" result="hardAlpha"/>
<feOffset dx="1" dy="1"/>
<feGaussianBlur stdDeviation="1"/>
<feComposite in2="hardAlpha" operator="arithmetic" k2="-1" k3="1"/>
<feColorMatrix type="matrix" values="0 0 0 0 1 0 0 0 0 1 0 0 0 0 1 0 0 0 0.3 0"/>
<feBlend mode="normal" in2="effect5_innerShadow_975_2088" result="effect6_innerShadow_975_2088"/>
</filter>
<filter id="filter1_f_975_2088" x="536.065" y="696.009" width="121.842" height="69.6209" filterUnits="userSpaceOnUse" color-interpolation-filters="sRGB">
<feFlood flood-opacity="0" result="BackgroundImageFix"/>
<feBlend mode="normal" in="SourceGraphic" in2="BackgroundImageFix" result="shape"/>
<feGaussianBlur stdDeviation="4.92568" result="effect1_foregroundBlur_975_2088"/>
</filter>
<filter id="filter2_ddddii_975_2088" x="309" y="520" width="219" height="103" filterUnits="userSpaceOnUse" color-interpolation-filters="sRGB">
<feFlood flood-opacity="0" result="BackgroundImageFix"/>
<feColorMatrix in="SourceAlpha" type="matrix" values="0 0 0 0 0 0 0 0 0 0 0 0 0 0 0 0 0 0 127 0" result="hardAlpha"/>
<feOffset dx="5" dy="5"/>
<feGaussianBlur stdDeviation="6.5"/>
<feColorMatrix type="matrix" values="0 0 0 0 0.819608 0 0 0 0 0.85098 0 0 0 0 0.901961 0 0 0 0.9 0"/>
<feBlend mode="normal" in2="BackgroundImageFix" result="effect1_dropShadow_975_2088"/>
<feColorMatrix in="SourceAlpha" type="matrix" values="0 0 0 0 0 0 0 0 0 0 0 0 0 0 0 0 0 0 127 0" result="hardAlpha"/>
<feOffset dx="-5" dy="-5"/>
<feGaussianBlur stdDeviation="5"/>
<feColorMatrix type="matrix" values="0 0 0 0 1 0 0 0 0 1 0 0 0 0 1 0 0 0 0.9 0"/>
<feBlend mode="normal" in2="effect1_dropShadow_975_2088" result="effect2_dropShadow_975_2088"/>
<feColorMatrix in="SourceAlpha" type="matrix" values="0 0 0 0 0 0 0 0 0 0 0 0 0 0 0 0 0 0 127 0" result="hardAlpha"/>
<feOffset dx="5" dy="-5"/>
<feGaussianBlur stdDeviation="5"/>
<feColorMatrix type="matrix" values="0 0 0 0 0.819608 0 0 0 0 0.85098 0 0 0 0 0.901961 0 0 0 0.2 0"/>
<feBlend mode="normal" in2="effect2_dropShadow_975_2088" result="effect3_dropShadow_975_2088"/>
<feColorMatrix in="SourceAlpha" type="matrix" values="0 0 0 0 0 0 0 0 0 0 0 0 0 0 0 0 0 0 127 0" result="hardAlpha"/>
<feOffset dx="-5" dy="5"/>
<feGaussianBlur stdDeviation="5"/>
<feColorMatrix type="matrix" values="0 0 0 0 0.819608 0 0 0 0 0.85098 0 0 0 0 0.901961 0 0 0 0.2 0"/>
<feBlend mode="normal" in2="effect3_dropShadow_975_2088" result="effect4_dropShadow_975_2088"/>
<feBlend mode="normal" in="SourceGraphic" in2="effect4_dropShadow_975_2088" result="shape"/>
<feColorMatrix in="SourceAlpha" type="matrix" values="0 0 0 0 0 0 0 0 0 0 0 0 0 0 0 0 0 0 127 0" result="hardAlpha"/>
<feOffset dx="-1" dy="-1"/>
<feGaussianBlur stdDeviation="1"/>
<feComposite in2="hardAlpha" operator="arithmetic" k2="-1" k3="1"/>
<feColorMatrix type="matrix" values="0 0 0 0 0.819608 0 0 0 0 0.85098 0 0 0 0 0.901961 0 0 0 0.5 0"/>
<feBlend mode="normal" in2="shape" result="effect5_innerShadow_975_2088"/>
<feColorMatrix in="SourceAlpha" type="matrix" values="0 0 0 0 0 0 0 0 0 0 0 0 0 0 0 0 0 0 127 0" result="hardAlpha"/>
<feOffset dx="1" dy="1"/>
<feGaussianBlur stdDeviation="1"/>
<feComposite in2="hardAlpha" operator="arithmetic" k2="-1" k3="1"/>
<feColorMatrix type="matrix" values="0 0 0 0 1 0 0 0 0 1 0 0 0 0 1 0 0 0 0.3 0"/>
<feBlend mode="normal" in2="effect5_innerShadow_975_2088" result="effect6_innerShadow_975_2088"/>
</filter>
<filter id="filter3_ddddii_975_2088" x="477" y="352" width="219" height="103" filterUnits="userSpaceOnUse" color-interpolation-filters="sRGB">
<feFlood flood-opacity="0" result="BackgroundImageFix"/>
<feColorMatrix in="SourceAlpha" type="matrix" values="0 0 0 0 0 0 0 0 0 0 0 0 0 0 0 0 0 0 127 0" result="hardAlpha"/>
<feOffset dx="5" dy="5"/>
<feGaussianBlur stdDeviation="6.5"/>
<feColorMatrix type="matrix" values="0 0 0 0 0.819608 0 0 0 0 0.85098 0 0 0 0 0.901961 0 0 0 0.9 0"/>
<feBlend mode="normal" in2="BackgroundImageFix" result="effect1_dropShadow_975_2088"/>
<feColorMatrix in="SourceAlpha" type="matrix" values="0 0 0 0 0 0 0 0 0 0 0 0 0 0 0 0 0 0 127 0" result="hardAlpha"/>
<feOffset dx="-5" dy="-5"/>
<feGaussianBlur stdDeviation="5"/>
<feColorMatrix type="matrix" values="0 0 0 0 1 0 0 0 0 1 0 0 0 0 1 0 0 0 0.9 0"/>
<feBlend mode="normal" in2="effect1_dropShadow_975_2088" result="effect2_dropShadow_975_2088"/>
<feColorMatrix in="SourceAlpha" type="matrix" values="0 0 0 0 0 0 0 0 0 0 0 0 0 0 0 0 0 0 127 0" result="hardAlpha"/>
<feOffset dx="5" dy="-5"/>
<feGaussianBlur stdDeviation="5"/>
<feColorMatrix type="matrix" values="0 0 0 0 0.819608 0 0 0 0 0.85098 0 0 0 0 0.901961 0 0 0 0.2 0"/>
<feBlend mode="normal" in2="effect2_dropShadow_975_2088" result="effect3_dropShadow_975_2088"/>
<feColorMatrix in="SourceAlpha" type="matrix" values="0 0 0 0 0 0 0 0 0 0 0 0 0 0 0 0 0 0 127 0" result="hardAlpha"/>
<feOffset dx="-5" dy="5"/>
<feGaussianBlur stdDeviation="5"/>
<feColorMatrix type="matrix" values="0 0 0 0 0.819608 0 0 0 0 0.85098 0 0 0 0 0.901961 0 0 0 0.2 0"/>
<feBlend mode="normal" in2="effect3_dropShadow_975_2088" result="effect4_dropShadow_975_2088"/>
<feBlend mode="normal" in="SourceGraphic" in2="effect4_dropShadow_975_2088" result="shape"/>
<feColorMatrix in="SourceAlpha" type="matrix" values="0 0 0 0 0 0 0 0 0 0 0 0 0 0 0 0 0 0 127 0" result="hardAlpha"/>
<feOffset dx="-1" dy="-1"/>
<feGaussianBlur stdDeviation="1"/>
<feComposite in2="hardAlpha" operator="arithmetic" k2="-1" k3="1"/>
<feColorMatrix type="matrix" values="0 0 0 0 0.819608 0 0 0 0 0.85098 0 0 0 0 0.901961 0 0 0 0.5 0"/>
<feBlend mode="normal" in2="shape" result="effect5_innerShadow_975_2088"/>
<feColorMatrix in="SourceAlpha" type="matrix" values="0 0 0 0 0 0 0 0 0 0 0 0 0 0 0 0 0 0 127 0" result="hardAlpha"/>
<feOffset dx="1" dy="1"/>
<feGaussianBlur stdDeviation="1"/>
<feComposite in2="hardAlpha" operator="arithmetic" k2="-1" k3="1"/>
<feColorMatrix type="matrix" values="0 0 0 0 1 0 0 0 0 1 0 0 0 0 1 0 0 0 0.3 0"/>
<feBlend mode="normal" in2="effect5_innerShadow_975_2088" result="effect6_innerShadow_975_2088"/>
</filter>
<filter id="filter4_ddddii_975_2088" x="1113" y="352" width="321" height="103" filterUnits="userSpaceOnUse" color-interpolation-filters="sRGB">
<feFlood flood-opacity="0" result="BackgroundImageFix"/>
<feColorMatrix in="SourceAlpha" type="matrix" values="0 0 0 0 0 0 0 0 0 0 0 0 0 0 0 0 0 0 127 0" result="hardAlpha"/>
<feOffset dx="5" dy="5"/>
<feGaussianBlur stdDeviation="6.5"/>
<feColorMatrix type="matrix" values="0 0 0 0 0.819608 0 0 0 0 0.85098 0 0 0 0 0.901961 0 0 0 0.9 0"/>
<feBlend mode="normal" in2="BackgroundImageFix" result="effect1_dropShadow_975_2088"/>
<feColorMatrix in="SourceAlpha" type="matrix" values="0 0 0 0 0 0 0 0 0 0 0 0 0 0 0 0 0 0 127 0" result="hardAlpha"/>
<feOffset dx="-5" dy="-5"/>
<feGaussianBlur stdDeviation="5"/>
<feColorMatrix type="matrix" values="0 0 0 0 1 0 0 0 0 1 0 0 0 0 1 0 0 0 0.9 0"/>
<feBlend mode="normal" in2="effect1_dropShadow_975_2088" result="effect2_dropShadow_975_2088"/>
<feColorMatrix in="SourceAlpha" type="matrix" values="0 0 0 0 0 0 0 0 0 0 0 0 0 0 0 0 0 0 127 0" result="hardAlpha"/>
<feOffset dx="5" dy="-5"/>
<feGaussianBlur stdDeviation="5"/>
<feColorMatrix type="matrix" values="0 0 0 0 0.819608 0 0 0 0 0.85098 0 0 0 0 0.901961 0 0 0 0.2 0"/>
<feBlend mode="normal" in2="effect2_dropShadow_975_2088" result="effect3_dropShadow_975_2088"/>
<feColorMatrix in="SourceAlpha" type="matrix" values="0 0 0 0 0 0 0 0 0 0 0 0 0 0 0 0 0 0 127 0" result="hardAlpha"/>
<feOffset dx="-5" dy="5"/>
<feGaussianBlur stdDeviation="5"/>
<feColorMatrix type="matrix" values="0 0 0 0 0.819608 0 0 0 0 0.85098 0 0 0 0 0.901961 0 0 0 0.2 0"/>
<feBlend mode="normal" in2="effect3_dropShadow_975_2088" result="effect4_dropShadow_975_2088"/>
<feBlend mode="normal" in="SourceGraphic" in2="effect4_dropShadow_975_2088" result="shape"/>
<feColorMatrix in="SourceAlpha" type="matrix" values="0 0 0 0 0 0 0 0 0 0 0 0 0 0 0 0 0 0 127 0" result="hardAlpha"/>
<feOffset dx="-1" dy="-1"/>
<feGaussianBlur stdDeviation="1"/>
<feComposite in2="hardAlpha" operator="arithmetic" k2="-1" k3="1"/>
<feColorMatrix type="matrix" values="0 0 0 0 0.819608 0 0 0 0 0.85098 0 0 0 0 0.901961 0 0 0 0.5 0"/>
<feBlend mode="normal" in2="shape" result="effect5_innerShadow_975_2088"/>
<feColorMatrix in="SourceAlpha" type="matrix" values="0 0 0 0 0 0 0 0 0 0 0 0 0 0 0 0 0 0 127 0" result="hardAlpha"/>
<feOffset dx="1" dy="1"/>
<feGaussianBlur stdDeviation="1"/>
<feComposite in2="hardAlpha" operator="arithmetic" k2="-1" k3="1"/>
<feColorMatrix type="matrix" values="0 0 0 0 1 0 0 0 0 1 0 0 0 0 1 0 0 0 0.3 0"/>
<feBlend mode="normal" in2="effect5_innerShadow_975_2088" result="effect6_innerShadow_975_2088"/>
</filter>
<filter id="filter5_ddddii_975_2088" x="632" y="520" width="267" height="103" filterUnits="userSpaceOnUse" color-interpolation-filters="sRGB">
<feFlood flood-opacity="0" result="BackgroundImageFix"/>
<feColorMatrix in="SourceAlpha" type="matrix" values="0 0 0 0 0 0 0 0 0 0 0 0 0 0 0 0 0 0 127 0" result="hardAlpha"/>
<feOffset dx="5" dy="5"/>
<feGaussianBlur stdDeviation="6.5"/>
<feColorMatrix type="matrix" values="0 0 0 0 0.819608 0 0 0 0 0.85098 0 0 0 0 0.901961 0 0 0 0.9 0"/>
<feBlend mode="normal" in2="BackgroundImageFix" result="effect1_dropShadow_975_2088"/>
<feColorMatrix in="SourceAlpha" type="matrix" values="0 0 0 0 0 0 0 0 0 0 0 0 0 0 0 0 0 0 127 0" result="hardAlpha"/>
<feOffset dx="-5" dy="-5"/>
<feGaussianBlur stdDeviation="5"/>
<feColorMatrix type="matrix" values="0 0 0 0 1 0 0 0 0 1 0 0 0 0 1 0 0 0 0.9 0"/>
<feBlend mode="normal" in2="effect1_dropShadow_975_2088" result="effect2_dropShadow_975_2088"/>
<feColorMatrix in="SourceAlpha" type="matrix" values="0 0 0 0 0 0 0 0 0 0 0 0 0 0 0 0 0 0 127 0" result="hardAlpha"/>
<feOffset dx="5" dy="-5"/>
<feGaussianBlur stdDeviation="5"/>
<feColorMatrix type="matrix" values="0 0 0 0 0.819608 0 0 0 0 0.85098 0 0 0 0 0.901961 0 0 0 0.2 0"/>
<feBlend mode="normal" in2="effect2_dropShadow_975_2088" result="effect3_dropShadow_975_2088"/>
<feColorMatrix in="SourceAlpha" type="matrix" values="0 0 0 0 0 0 0 0 0 0 0 0 0 0 0 0 0 0 127 0" result="hardAlpha"/>
<feOffset dx="-5" dy="5"/>
<feGaussianBlur stdDeviation="5"/>
<feColorMatrix type="matrix" values="0 0 0 0 0.819608 0 0 0 0 0.85098 0 0 0 0 0.901961 0 0 0 0.2 0"/>
<feBlend mode="normal" in2="effect3_dropShadow_975_2088" result="effect4_dropShadow_975_2088"/>
<feBlend mode="normal" in="SourceGraphic" in2="effect4_dropShadow_975_2088" result="shape"/>
<feColorMatrix in="SourceAlpha" type="matrix" values="0 0 0 0 0 0 0 0 0 0 0 0 0 0 0 0 0 0 127 0" result="hardAlpha"/>
<feOffset dx="-1" dy="-1"/>
<feGaussianBlur stdDeviation="1"/>
<feComposite in2="hardAlpha" operator="arithmetic" k2="-1" k3="1"/>
<feColorMatrix type="matrix" values="0 0 0 0 0.819608 0 0 0 0 0.85098 0 0 0 0 0.901961 0 0 0 0.5 0"/>
<feBlend mode="normal" in2="shape" result="effect5_innerShadow_975_2088"/>
<feColorMatrix in="SourceAlpha" type="matrix" values="0 0 0 0 0 0 0 0 0 0 0 0 0 0 0 0 0 0 127 0" result="hardAlpha"/>
<feOffset dx="1" dy="1"/>
<feGaussianBlur stdDeviation="1"/>
<feComposite in2="hardAlpha" operator="arithmetic" k2="-1" k3="1"/>
<feColorMatrix type="matrix" values="0 0 0 0 1 0 0 0 0 1 0 0 0 0 1 0 0 0 0.3 0"/>
<feBlend mode="normal" in2="effect5_innerShadow_975_2088" result="effect6_innerShadow_975_2088"/>
</filter>
<filter id="filter6_ddddii_975_2088" x="965" y="520" width="238" height="103" filterUnits="userSpaceOnUse" color-interpolation-filters="sRGB">
<feFlood flood-opacity="0" result="BackgroundImageFix"/>
<feColorMatrix in="SourceAlpha" type="matrix" values="0 0 0 0 0 0 0 0 0 0 0 0 0 0 0 0 0 0 127 0" result="hardAlpha"/>
<feOffset dx="5" dy="5"/>
<feGaussianBlur stdDeviation="6.5"/>
<feColorMatrix type="matrix" values="0 0 0 0 0.819608 0 0 0 0 0.85098 0 0 0 0 0.901961 0 0 0 0.9 0"/>
<feBlend mode="normal" in2="BackgroundImageFix" result="effect1_dropShadow_975_2088"/>
<feColorMatrix in="SourceAlpha" type="matrix" values="0 0 0 0 0 0 0 0 0 0 0 0 0 0 0 0 0 0 127 0" result="hardAlpha"/>
<feOffset dx="-5" dy="-5"/>
<feGaussianBlur stdDeviation="5"/>
<feColorMatrix type="matrix" values="0 0 0 0 1 0 0 0 0 1 0 0 0 0 1 0 0 0 0.9 0"/>
<feBlend mode="normal" in2="effect1_dropShadow_975_2088" result="effect2_dropShadow_975_2088"/>
<feColorMatrix in="SourceAlpha" type="matrix" values="0 0 0 0 0 0 0 0 0 0 0 0 0 0 0 0 0 0 127 0" result="hardAlpha"/>
<feOffset dx="5" dy="-5"/>
<feGaussianBlur stdDeviation="5"/>
<feColorMatrix type="matrix" values="0 0 0 0 0.819608 0 0 0 0 0.85098 0 0 0 0 0.901961 0 0 0 0.2 0"/>
<feBlend mode="normal" in2="effect2_dropShadow_975_2088" result="effect3_dropShadow_975_2088"/>
<feColorMatrix in="SourceAlpha" type="matrix" values="0 0 0 0 0 0 0 0 0 0 0 0 0 0 0 0 0 0 127 0" result="hardAlpha"/>
<feOffset dx="-5" dy="5"/>
<feGaussianBlur stdDeviation="5"/>
<feColorMatrix type="matrix" values="0 0 0 0 0.819608 0 0 0 0 0.85098 0 0 0 0 0.901961 0 0 0 0.2 0"/>
<feBlend mode="normal" in2="effect3_dropShadow_975_2088" result="effect4_dropShadow_975_2088"/>
<feBlend mode="normal" in="SourceGraphic" in2="effect4_dropShadow_975_2088" result="shape"/>
<feColorMatrix in="SourceAlpha" type="matrix" values="0 0 0 0 0 0 0 0 0 0 0 0 0 0 0 0 0 0 127 0" result="hardAlpha"/>
<feOffset dx="-1" dy="-1"/>
<feGaussianBlur stdDeviation="1"/>
<feComposite in2="hardAlpha" operator="arithmetic" k2="-1" k3="1"/>
<feColorMatrix type="matrix" values="0 0 0 0 0.819608 0 0 0 0 0.85098 0 0 0 0 0.901961 0 0 0 0.5 0"/>
<feBlend mode="normal" in2="shape" result="effect5_innerShadow_975_2088"/>
<feColorMatrix in="SourceAlpha" type="matrix" values="0 0 0 0 0 0 0 0 0 0 0 0 0 0 0 0 0 0 127 0" result="hardAlpha"/>
<feOffset dx="1" dy="1"/>
<feGaussianBlur stdDeviation="1"/>
<feComposite in2="hardAlpha" operator="arithmetic" k2="-1" k3="1"/>
<feColorMatrix type="matrix" values="0 0 0 0 1 0 0 0 0 1 0 0 0 0 1 0 0 0 0.3 0"/>
<feBlend mode="normal" in2="effect5_innerShadow_975_2088" result="effect6_innerShadow_975_2088"/>
</filter>
<filter id="filter7_ddddii_975_2088" x="1299" y="520" width="305" height="133" filterUnits="userSpaceOnUse" color-interpolation-filters="sRGB">
<feFlood flood-opacity="0" result="BackgroundImageFix"/>
<feColorMatrix in="SourceAlpha" type="matrix" values="0 0 0 0 0 0 0 0 0 0 0 0 0 0 0 0 0 0 127 0" result="hardAlpha"/>
<feOffset dx="5" dy="5"/>
<feGaussianBlur stdDeviation="6.5"/>
<feColorMatrix type="matrix" values="0 0 0 0 0.819608 0 0 0 0 0.85098 0 0 0 0 0.901961 0 0 0 0.9 0"/>
<feBlend mode="normal" in2="BackgroundImageFix" result="effect1_dropShadow_975_2088"/>
<feColorMatrix in="SourceAlpha" type="matrix" values="0 0 0 0 0 0 0 0 0 0 0 0 0 0 0 0 0 0 127 0" result="hardAlpha"/>
<feOffset dx="-5" dy="-5"/>
<feGaussianBlur stdDeviation="5"/>
<feColorMatrix type="matrix" values="0 0 0 0 1 0 0 0 0 1 0 0 0 0 1 0 0 0 0.9 0"/>
<feBlend mode="normal" in2="effect1_dropShadow_975_2088" result="effect2_dropShadow_975_2088"/>
<feColorMatrix in="SourceAlpha" type="matrix" values="0 0 0 0 0 0 0 0 0 0 0 0 0 0 0 0 0 0 127 0" result="hardAlpha"/>
<feOffset dx="5" dy="-5"/>
<feGaussianBlur stdDeviation="5"/>
<feColorMatrix type="matrix" values="0 0 0 0 0.819608 0 0 0 0 0.85098 0 0 0 0 0.901961 0 0 0 0.2 0"/>
<feBlend mode="normal" in2="effect2_dropShadow_975_2088" result="effect3_dropShadow_975_2088"/>
<feColorMatrix in="SourceAlpha" type="matrix" values="0 0 0 0 0 0 0 0 0 0 0 0 0 0 0 0 0 0 127 0" result="hardAlpha"/>
<feOffset dx="-5" dy="5"/>
<feGaussianBlur stdDeviation="5"/>
<feColorMatrix type="matrix" values="0 0 0 0 0.819608 0 0 0 0 0.85098 0 0 0 0 0.901961 0 0 0 0.2 0"/>
<feBlend mode="normal" in2="effect3_dropShadow_975_2088" result="effect4_dropShadow_975_2088"/>
<feBlend mode="normal" in="SourceGraphic" in2="effect4_dropShadow_975_2088" result="shape"/>
<feColorMatrix in="SourceAlpha" type="matrix" values="0 0 0 0 0 0 0 0 0 0 0 0 0 0 0 0 0 0 127 0" result="hardAlpha"/>
<feOffset dx="-1" dy="-1"/>
<feGaussianBlur stdDeviation="1"/>
<feComposite in2="hardAlpha" operator="arithmetic" k2="-1" k3="1"/>
<feColorMatrix type="matrix" values="0 0 0 0 0.819608 0 0 0 0 0.85098 0 0 0 0 0.901961 0 0 0 0.5 0"/>
<feBlend mode="normal" in2="shape" result="effect5_innerShadow_975_2088"/>
<feColorMatrix in="SourceAlpha" type="matrix" values="0 0 0 0 0 0 0 0 0 0 0 0 0 0 0 0 0 0 127 0" result="hardAlpha"/>
<feOffset dx="1" dy="1"/>
<feGaussianBlur stdDeviation="1"/>
<feComposite in2="hardAlpha" operator="arithmetic" k2="-1" k3="1"/>
<feColorMatrix type="matrix" values="0 0 0 0 1 0 0 0 0 1 0 0 0 0 1 0 0 0 0.3 0"/>
<feBlend mode="normal" in2="effect5_innerShadow_975_2088" result="effect6_innerShadow_975_2088"/>
</filter>
<linearGradient id="paint0_linear_975_2088" x1="1566.07" y1="718.911" x2="1609.46" y2="766.778" gradientUnits="userSpaceOnUse">
<stop stop-color="#C86BCC"/>
<stop offset="1" stop-color="#9C7BE3"/>
</linearGradient>
<linearGradient id="paint1_linear_975_2088" x1="1566.07" y1="718.911" x2="1609.46" y2="766.778" gradientUnits="userSpaceOnUse">
<stop stop-color="#C86BCC"/>
<stop offset="1" stop-color="#9C7BE3"/>
</linearGradient>
<linearGradient id="paint2_linear_975_2088" x1="1297.93" y1="716.697" x2="1319.77" y2="769.436" gradientUnits="userSpaceOnUse">
<stop stop-color="#C86BCC"/>
<stop offset="1" stop-color="#9C7BE3"/>
</linearGradient>
<linearGradient id="paint3_linear_975_2088" x1="1326.47" y1="716.697" x2="1348.31" y2="769.436" gradientUnits="userSpaceOnUse">
<stop stop-color="#C86BCC"/>
<stop offset="1" stop-color="#9C7BE3"/>
</linearGradient>
<linearGradient id="paint4_linear_975_2088" x1="1326.47" y1="716.697" x2="1348.31" y2="769.436" gradientUnits="userSpaceOnUse">
<stop stop-color="#C86BCC"/>
<stop offset="1" stop-color="#9C7BE3"/>
</linearGradient>
<linearGradient id="paint5_linear_975_2088" x1="1355.01" y1="716.697" x2="1376.85" y2="769.436" gradientUnits="userSpaceOnUse">
<stop stop-color="#C86BCC"/>
<stop offset="1" stop-color="#9C7BE3"/>
</linearGradient>
<linearGradient id="paint6_linear_975_2088" x1="1355.01" y1="716.697" x2="1376.85" y2="769.436" gradientUnits="userSpaceOnUse">
<stop stop-color="#C86BCC"/>
<stop offset="1" stop-color="#9C7BE3"/>
</linearGradient>
<linearGradient id="paint7_linear_975_2088" x1="532.871" y1="741.027" x2="661.156" y2="741.027" gradientUnits="userSpaceOnUse">
<stop stop-color="#04D6EE"/>
<stop offset="1" stop-color="#157BD1"/>
</linearGradient>
<linearGradient id="paint8_linear_975_2088" x1="532.871" y1="741.027" x2="661.156" y2="741.027" gradientUnits="userSpaceOnUse">
<stop stop-color="#04D6EE"/>
<stop offset="1" stop-color="#157BD1"/>
</linearGradient>
<linearGradient id="paint9_linear_975_2088" x1="532.871" y1="741.027" x2="661.156" y2="741.027" gradientUnits="userSpaceOnUse">
<stop stop-color="#04D6EE"/>
<stop offset="1" stop-color="#157BD1"/>
</linearGradient>
<linearGradient id="paint10_linear_975_2088" x1="532.871" y1="741.027" x2="661.156" y2="741.027" gradientUnits="userSpaceOnUse">
<stop stop-color="#04D6EE"/>
<stop offset="1" stop-color="#157BD1"/>
</linearGradient>
<linearGradient id="paint11_linear_975_2088" x1="538.434" y1="741.027" x2="655.49" y2="741.027" gradientUnits="userSpaceOnUse">
<stop stop-color="#04D6EE"/>
<stop offset="1" stop-color="#157BD1"/>
</linearGradient>
</defs>
</svg>
