<svg width="81" height="81" viewBox="0 0 81 81" fill="none" xmlns="http://www.w3.org/2000/svg">
<path d="M42.073 30.1782C39.6386 29.0322 37.0292 28.4511 34.3207 28.4511C24.2692 28.4511 16.0925 36.6275 16.0925 46.679C16.0925 56.7306 24.2691 64.9071 34.3206 64.9071C44.3721 64.9071 52.5487 56.7306 52.5487 46.679C52.5487 43.9709 51.9675 41.3617 50.8216 38.9268C50.6416 38.5442 50.8057 38.0883 51.1882 37.9081C51.571 37.7281 52.0271 37.8924 52.2071 38.2748L52.2071 38.2748C53.45 40.9153 54.0801 43.7419 54.0801 46.6792C54.0801 57.5741 45.2156 66.4385 34.3207 66.4385C23.4258 66.4385 14.5614 57.5741 14.5614 46.6792C14.5614 35.7843 23.4258 26.9199 34.3207 26.9199C37.2585 26.9199 40.0851 27.5501 42.7251 28.7928C43.1078 28.973 43.2719 29.4289 43.0918 29.8116L43.0917 29.8116C42.9118 30.1939 42.4555 30.3581 42.073 30.1782ZM42.073 30.1782L41.8601 30.6306L42.0729 30.1782C42.073 30.1782 42.073 30.1782 42.073 30.1782ZM10.4059 70.594L10.0524 70.9476L10.4059 70.594C4.01733 64.2056 0.5 55.714 0.5 46.6792C0.5 37.6444 4.01733 29.1528 10.4059 22.7644C16.7945 16.3759 25.286 12.8585 34.3207 12.8585C40.2753 12.8585 46.1311 14.4287 51.2547 17.3985C51.6205 17.6106 51.7452 18.0791 51.5332 18.4449C51.3209 18.8108 50.8524 18.9353 50.4869 18.7234L50.2361 19.156L50.4869 18.7234C45.5953 15.8879 40.0053 14.3899 34.3209 14.3899C16.5159 14.3897 2.03125 28.8743 2.03125 46.6792C2.03125 64.4841 16.5159 78.9687 34.3207 78.9687C52.1256 78.9687 66.6102 64.4841 66.6102 46.6794C66.6102 40.9952 65.112 35.4052 62.2766 30.5134L62.2765 30.5133C62.0645 30.1477 62.1891 29.6792 62.5551 29.4671L62.5552 29.467C62.9207 29.255 63.3893 29.3795 63.6014 29.7454C66.5712 34.8691 68.1415 40.725 68.1415 46.6792C68.1415 55.714 64.6242 64.2056 58.2356 70.594C51.8469 76.9825 43.3554 80.4998 34.3207 80.4998C25.286 80.4998 16.7944 76.9825 10.4059 70.594ZM69.536 26.5311L69.8895 26.8847L69.536 26.5311C69.3906 26.6765 69.1952 26.7553 68.9946 26.7553C68.9284 26.7553 68.8618 26.7468 68.7963 26.7293L58.4733 23.9632L58.1945 23.8884L57.9903 24.0926L34.8621 47.2206C34.7126 47.3702 34.5176 47.4448 34.3207 47.4448C34.1239 47.4448 33.9289 47.3702 33.7793 47.2206C33.4804 46.9216 33.4804 46.4369 33.7793 46.138L56.9075 23.0098L57.1117 22.8056L57.0369 22.5268L54.2708 12.2036L53.7878 12.333L54.2708 12.2035C54.2 11.9394 54.2755 11.6574 54.469 11.4639L65.2088 0.724164C65.4022 0.530766 65.6842 0.455225 65.9483 0.525958C66.2126 0.59682 66.4188 0.80313 66.4896 1.06736L69.2557 11.3906L69.3304 11.6694L69.6092 11.7441L79.9326 14.5101C80.1969 14.581 80.4032 14.7873 80.474 15.0516C80.5448 15.3158 80.4692 15.5979 80.2758 15.7913L69.536 26.5311ZM77.6429 16.2586L78.2553 15.6462L77.4188 15.4221L68.507 13.0342C68.2428 12.9633 68.0364 12.757 67.9656 12.4927L65.5777 3.58118L65.3535 2.74467L64.7412 3.35704L56.0682 12.0301L55.864 12.2342L55.9388 12.513L58.5157 22.1305L58.5904 22.4093L58.8693 22.4841L68.4868 25.061L68.7656 25.1357L68.9697 24.9316L77.6429 16.2586Z" fill="#323232" stroke="#323232"/>
</svg>
