<svg width="76" height="70" viewBox="0 0 76 70" fill="none" xmlns="http://www.w3.org/2000/svg">
<path fill-rule="evenodd" clip-rule="evenodd" d="M2.06838 0.198025C1.38974 0.49453 0.681222 1.35572 0.560193 2.03133C0.506758 2.33003 0.484669 13.4349 0.511303 26.7088C0.559512 50.7842 0.560544 50.8444 0.907281 51.3087C1.09843 51.5648 1.46418 51.9306 1.72022 52.1217C2.18108 52.4659 2.33313 52.4698 17.2457 52.5141L32.3058 52.5588L30.7465 57.234L29.1873 61.9089L25.1256 61.9932C21.3592 62.0714 21.0301 62.1028 20.5989 62.4251C19.5221 63.2298 19.4389 63.4894 19.4389 66.0387C19.4389 68.5883 19.5223 68.8482 20.5994 69.6524C21.0625 69.9981 21.1564 70 38.2338 70C55.3112 70 55.4052 69.9981 55.8682 69.6524C56.9453 68.8482 57.0287 68.5883 57.0287 66.0387C57.0287 63.4894 56.9455 63.2298 55.8687 62.4251C55.4375 62.1028 55.1085 62.0714 51.3421 61.9932L47.2803 61.9089L45.7211 57.234L44.1619 52.5588L59.222 52.5141C74.1345 52.4698 74.2866 52.4659 74.7474 52.1217C75.0035 51.9306 75.3692 51.5648 75.5604 51.3087C75.9078 50.8435 75.9079 50.826 75.9079 26.2576C75.9079 1.68914 75.9078 1.67161 75.5604 1.20638C75.3692 0.950328 75.0035 0.584543 74.7474 0.393391L74.2818 0.0458118L38.4322 0.00957047C8.88454 -0.0200968 2.49215 0.0129418 2.06838 0.198025ZM73.2952 22.212V41.7655H38.2338H3.17245V22.212V2.65856H38.2338H73.2952V22.212ZM46.5938 9.31685C43.431 12.0253 41.8443 13.2781 41.576 13.2783C41.3602 13.2783 39.2321 13.0001 36.8467 12.66L32.5097 12.0417L28.1112 14.9697C25.692 16.5799 23.6423 18.0289 23.5564 18.1894C23.1075 19.0282 23.771 20.1894 24.699 20.1891C25.0261 20.1891 26.3922 19.3744 29.1723 17.5212L33.1747 14.8535L37.6006 15.4934C40.035 15.8452 42.1966 16.1356 42.4045 16.1385C42.658 16.142 44.3502 14.8063 47.5457 12.0806C50.1655 9.84597 52.4795 7.83163 52.6882 7.60423C53.1942 7.05286 53.1801 6.29567 52.6536 5.76941C51.7926 4.90822 51.6307 5.00312 46.5938 9.31685ZM49.4358 13.8605L49.0219 14.2742V26.2576V38.241L49.4358 38.6546C49.8385 39.0575 49.9172 39.0684 52.3932 39.0684C54.8693 39.0684 54.948 39.0575 55.3507 38.6546L55.7645 38.241V26.2576V14.2742L55.3507 13.8605C54.948 13.4576 54.8693 13.4467 52.3932 13.4467C49.9172 13.4467 49.8385 13.4576 49.4358 13.8605ZM53.0675 26.2576V36.3714H52.3932H51.719V26.2576V16.1437H52.3932H53.0675V26.2576ZM30.5566 19.2546L30.1427 19.6682V28.9546V38.241L30.5566 38.6546C30.9593 39.0575 31.038 39.0684 33.514 39.0684C35.9901 39.0684 36.0688 39.0575 36.4715 38.6546L36.8853 38.241V28.9546V19.6682L36.4715 19.2546C36.0688 18.8517 35.9901 18.8407 33.514 18.8407C31.038 18.8407 30.9593 18.8517 30.5566 19.2546ZM34.1883 28.9546V36.3714H33.514H32.8398V28.9546V21.5378H33.514H34.1883V28.9546ZM39.9962 23.3001L39.5823 23.7138V30.9774V38.241L39.9962 38.6546C40.3989 39.0575 40.4776 39.0684 42.9536 39.0684C45.4297 39.0684 45.5084 39.0575 45.9111 38.6546L46.3249 38.241V30.9774V23.7138L45.9111 23.3001C45.5084 22.8972 45.4297 22.8863 42.9536 22.8863C40.4776 22.8863 40.3989 22.8972 39.9962 23.3001ZM43.6279 30.9774V36.3714H42.9536H42.2794V30.9774V25.5833H42.9536H43.6279V30.9774ZM21.117 27.3456L20.7031 27.7593V33.0001V38.241L21.117 38.6546C21.5197 39.0575 21.5984 39.0684 24.0744 39.0684C26.5505 39.0684 26.6292 39.0575 27.0319 38.6546L27.4457 38.241V33.0001V27.7593L27.0319 27.3456C26.6292 26.9428 26.5505 26.9318 24.0744 26.9318C21.5984 26.9318 21.5197 26.9428 21.117 27.3456ZM24.7487 33.0001V36.3714H24.0744H23.4002V33.0001V29.6288H24.0744H24.7487V33.0001ZM73.2952 47.1595V49.8566H38.2338H3.17245V47.1595V44.4625H38.2338H73.2952V47.1595ZM37.2991 46.2248C36.4629 47.0609 37.0554 48.5081 38.2338 48.5081C38.9268 48.5081 39.5823 47.8525 39.5823 47.1595C39.5823 46.4666 38.9268 45.811 38.2338 45.811C37.9055 45.811 37.5599 45.9639 37.2991 46.2248ZM42.8838 57.3155L44.444 61.9932H38.2335H32.0227L33.5267 57.4841C34.3537 55.0042 35.0668 52.8784 35.1112 52.7604C35.1734 52.5952 35.897 52.5565 38.2579 52.5919L41.3238 52.6379L42.8838 57.3155ZM54.416 66.0387V67.3873H38.2338H22.0516V66.0387V64.6902H38.2338H54.416V66.0387Z" fill="#1B294A"/>
</svg>
