<svg width="92" height="72" viewBox="0 0 92 72" fill="none" xmlns="http://www.w3.org/2000/svg">
<path fill-rule="evenodd" clip-rule="evenodd" d="M3.06676 0.663148C2.15762 0.94971 0.606998 2.55535 0.328216 3.49895C0.00127185 4.60574 0.00127185 67.3675 0.328216 68.4743C0.628856 69.4918 2.16336 71.0263 3.18087 71.3269C4.29007 71.6546 87.7936 71.6546 88.9028 71.3269C89.9203 71.0263 91.4548 69.4918 91.7554 68.4743C92.0779 67.3823 92.0829 4.60259 91.7604 3.52636C91.6393 3.12217 91.1799 2.39067 90.7394 1.90072C89.2801 0.277484 93.6045 0.418634 45.9625 0.439937C15.727 0.453459 3.53078 0.516996 3.06676 0.663148ZM88.5621 3.8396L89.0169 4.29417V11.2491V18.2038H46.0418H3.06676V11.2491V4.29417L3.52152 3.8396L3.97609 3.38484H46.0418H88.1076L88.5621 3.8396ZM6.03056 10.7943V15.24H10.4763H14.922V10.7943V6.34864H10.4763H6.03056V10.7943ZM17.8858 10.7943V15.24H22.3314H26.7771V10.7943V6.34864H22.3314H17.8858V10.7943ZM29.7409 10.7943V15.24H34.1866H38.6323V10.7943V6.34864H34.1866H29.7409V10.7943ZM11.9582 10.7943V12.2762H10.4763H8.99436V10.7943V9.31243H10.4763H11.9582V10.7943ZM23.8133 10.7943V12.2762H22.3314H20.8495V10.7943V9.31243H22.3314H23.8133V10.7943ZM35.6685 10.7943V12.2762H34.1866H32.7047V10.7943V9.31243H34.1866H35.6685V10.7943ZM65.3065 44.878V68.5884H34.6414H3.97609L3.52152 68.1336L3.06676 67.679V44.4232V21.1676H34.1866H65.3065V44.878ZM89.0169 44.4232V67.679L88.5621 68.1336L88.1076 68.5884H78.1888H68.2703V44.878V21.1676H78.6436H89.0169V44.4232ZM20.8495 24.3735C20.493 24.486 19.7798 24.9985 19.2648 25.5124C18.1769 26.5979 17.7739 27.6915 17.9474 29.086L18.0571 29.9664L15.498 31.8645L12.939 33.7627L12.3322 33.46C10.6843 32.6379 8.81338 32.9961 7.41354 34.4019C5.53968 36.2837 5.53968 38.6574 7.41354 40.5312C9.2874 42.4051 11.661 42.4051 13.5429 40.5312C14.6308 39.448 15.034 38.3549 14.8603 36.9597L14.7506 36.0792L17.3097 34.1811L19.8687 32.283L20.4856 32.5907C21.3162 33.005 22.6912 33.1162 23.5362 32.8374L24.2287 32.6088L27.1769 35.5482C29.5316 37.8955 30.1029 38.562 30.014 38.8578C29.4577 40.7081 29.8117 42.1922 31.12 43.495C33.0019 45.3689 35.3755 45.3689 37.2494 43.495C38.202 42.5423 38.6323 41.5974 38.6323 40.4586C38.6323 39.9046 38.727 39.832 40.8122 38.7868L42.9919 37.6941L43.5182 38.1137C45.0362 39.324 47.3283 39.1953 48.9006 37.8112C49.8079 37.0126 50.2841 36.1341 50.4594 34.9361L50.5801 34.1109L52.8421 33.1089L55.104 32.107L56.0837 32.5631C57.8798 33.3992 59.5088 33.0908 60.9597 31.6398C62.7699 29.8297 62.824 27.527 61.1014 25.6111C59.3463 23.6589 56.7302 23.6185 54.8343 25.5144C53.8275 26.5214 53.4513 27.4107 53.4513 28.7844V29.5972L51.46 30.4765C50.3647 30.9602 49.4006 31.3559 49.3174 31.3559C49.2342 31.3557 48.9008 31.1588 48.5764 30.9181C46.7874 29.5907 44.6285 29.7928 42.9791 31.442C42.0264 32.3947 41.5961 33.3396 41.5961 34.4784C41.5961 35.0325 41.5015 35.1051 39.4163 36.1502L37.2366 37.2429L36.7103 36.8233C35.7311 36.0426 34.1064 35.7754 32.8983 36.1967L32.2955 36.4067L29.3442 33.4644C26.987 31.1145 26.4152 30.4475 26.5041 30.1516C27.0276 28.4106 26.7116 26.9187 25.544 25.6202C24.3366 24.2772 22.6099 23.8187 20.8495 24.3735ZM71.2341 25.6133V27.0952H78.6436H86.0531V25.6133V24.1314H78.6436H71.2341V25.6133ZM23.3586 27.55C24.2776 28.4688 23.6264 30.059 22.3314 30.059C21.9706 30.059 21.5909 29.891 21.3043 29.6043C21.0176 29.3177 20.8495 28.938 20.8495 28.5771C20.8495 28.2163 21.0176 27.8365 21.3043 27.55C21.5909 27.2632 21.9706 27.0952 22.3314 27.0952C22.6923 27.0952 23.072 27.2632 23.3586 27.55ZM58.9242 27.55C59.8431 28.4688 59.192 30.059 57.897 30.059C57.1355 30.059 56.4151 29.3386 56.4151 28.5771C56.4151 27.8156 57.1355 27.0952 57.897 27.0952C58.2579 27.0952 58.6376 27.2632 58.9242 27.55ZM71.2341 31.5409V33.0228H78.6436H86.0531V31.5409V30.059H78.6436H71.2341V31.5409ZM47.069 33.4776C47.9879 34.3963 47.3368 35.9866 46.0418 35.9866C45.681 35.9866 45.3012 35.8186 45.0147 35.5319C44.7279 35.2453 44.5599 34.8656 44.5599 34.5047C44.5599 34.1439 44.7279 33.7641 45.0147 33.4776C45.3012 33.1908 45.681 33.0228 46.0418 33.0228C46.4027 33.0228 46.7824 33.1908 47.069 33.4776ZM11.5034 36.4414C12.4224 37.3601 11.7713 38.9504 10.4763 38.9504C9.71475 38.9504 8.99436 38.23 8.99436 37.4685C8.99436 36.707 9.71475 35.9866 10.4763 35.9866C10.8371 35.9866 11.2168 36.1546 11.5034 36.4414ZM17.8858 50.8056V65.6246H22.3314H26.7771V50.8056V35.9866H22.3314H17.8858V50.8056ZM53.4513 50.8056V65.6246H57.897H62.3427V50.8056V35.9866H57.897H53.4513V50.8056ZM71.2341 37.4685V38.9504H72.716H74.1979V37.4685V35.9866H72.716H71.2341V37.4685ZM77.1617 37.4685V38.9504H81.6074H86.0531V37.4685V35.9866H81.6074H77.1617V37.4685ZM23.8133 50.8056V62.6608H22.3314H20.8495V50.8056V38.9504H22.3314H23.8133V50.8056ZM35.2138 39.4052C36.1327 40.3239 35.4816 41.9142 34.1866 41.9142C33.4251 41.9142 32.7047 41.1938 32.7047 40.4323C32.7047 39.6708 33.4251 38.9504 34.1866 38.9504C34.5475 38.9504 34.9272 39.1184 35.2138 39.4052ZM59.3789 50.8056V62.6608H57.897H56.4151V50.8056V38.9504H57.897H59.3789V50.8056ZM41.5961 53.7694V65.6246H46.0418H50.4875V53.7694V41.9142H46.0418H41.5961V53.7694ZM71.2341 43.3961V44.878H72.716H74.1979V43.3961V41.9142H72.716H71.2341V43.3961ZM77.1617 43.3961V44.878H81.6074H86.0531V43.3961V41.9142H81.6074H77.1617V43.3961ZM6.03056 55.2513V65.6246H10.4763H14.922V55.2513V44.878H10.4763H6.03056V55.2513ZM47.5237 53.7694V62.6608H46.0418H44.5599V53.7694V44.878H46.0418H47.5237V53.7694ZM11.9582 55.2513V62.6608H10.4763H8.99436V55.2513V47.8418H10.4763H11.9582V55.2513ZM29.7409 56.7332V65.6246H34.1866H38.6323V56.7332V47.8418H34.1866H29.7409V56.7332ZM35.6685 56.7332V62.6608H34.1866H32.7047V56.7332V50.8056H34.1866H35.6685V56.7332ZM76.9057 50.9997C75.7335 51.2942 74.0653 52.2816 73.2554 53.1601C72.8396 53.6114 72.2353 54.5376 71.913 55.2179C71.3821 56.3384 71.3267 56.6224 71.3267 58.2247C71.3267 59.8946 71.3656 60.0726 72.0186 61.3938C72.8518 63.0798 73.9243 64.1299 75.6465 64.9457C76.7655 65.4758 77.0522 65.532 78.6436 65.532C80.235 65.532 80.5217 65.4758 81.6407 64.9457C83.3629 64.1299 84.4354 63.0798 85.2686 61.3938C85.9223 60.0712 85.9605 59.8961 85.9605 58.2151C85.9605 56.5341 85.9223 56.359 85.2686 55.0364C84.017 52.5037 81.7932 51.0175 79.0602 50.8875C78.2707 50.8499 77.3012 50.9004 76.9057 50.9997ZM80.0114 53.9946C81.6033 54.465 83.0893 56.5026 83.0893 58.2151C83.0893 60.5104 80.9389 62.6608 78.6436 62.6608C77.4785 62.6608 76.5402 62.2371 75.5809 61.2778C73.7068 59.4038 73.7068 57.0285 75.5809 55.1503C76.8803 53.8481 78.28 53.483 80.0114 53.9946Z" fill="#1B294A"/>
</svg>
