<svg width="92" height="93" viewBox="0 0 92 93" fill="none" xmlns="http://www.w3.org/2000/svg">
<path fill-rule="evenodd" clip-rule="evenodd" d="M5.41192 0.230303C2.65744 0.974835 0.726298 3.01915 0.149636 5.8008C0.0238679 6.40715 -0.0212934 17.1126 0.0110932 38.6372L0.0589534 70.574L0.476921 71.609C1.26302 73.5558 2.665 74.9407 4.66901 75.7498C5.55011 76.1057 6.02655 76.1463 9.99985 76.2052L14.363 76.2698V74.8163V73.3629L10.3597 73.3589C6.72214 73.3553 6.2824 73.3215 5.54669 72.9885C4.4594 72.4964 3.78773 71.8351 3.27656 70.754L2.8514 69.8543L2.8496 42.1008L2.8478 14.3473H46.03H89.2121L89.2103 42.1008L89.2085 69.8543L88.7834 70.754C88.5495 71.2488 88.1252 71.8715 87.8404 72.1378C87.2374 72.7019 85.8817 73.3532 85.2987 73.3589C84.9124 73.3627 84.8939 73.43 84.8939 74.8228V76.2825L85.7415 76.1555C88.5649 75.732 90.7629 73.9419 91.6777 71.3206C91.9842 70.4423 92.001 68.7142 92.001 38.0975C92.001 7.48077 91.9842 5.75258 91.6777 4.87436C90.972 2.85218 89.4579 1.26847 87.4582 0.461147L86.4233 0.04318L46.3898 0.0089941C12.3054 -0.0199739 6.21601 0.0127725 5.41192 0.230303ZM86.6032 3.26079C87.6844 3.77196 88.3456 4.44362 88.8377 5.53091C89.1506 6.22219 89.2048 6.71554 89.2082 8.90452L89.2121 11.4685H46.03H2.8478L2.85176 8.90452C2.85518 6.71554 2.90934 6.22219 3.22223 5.53091C3.71432 4.44362 4.37555 3.77196 5.45672 3.26079L6.35635 2.83563H46.03H85.7036L86.6032 3.26079ZM6.43066 5.9415C5.97221 6.29362 5.68757 6.96996 5.80344 7.43183C5.95548 8.03764 6.60969 8.58965 7.17537 8.58965C7.80979 8.58965 8.60542 7.7888 8.60542 7.15024C8.60542 6.13061 7.2011 5.34991 6.43066 5.9415ZM12.1883 5.9415C11.7298 6.29362 11.4452 6.96996 11.5611 7.43183C11.7131 8.03764 12.3673 8.58965 12.933 8.58965C13.5674 8.58965 14.363 7.7888 14.363 7.15024C14.363 6.13061 12.9587 5.34991 12.1883 5.9415ZM17.9459 5.9415C17.4875 6.29362 17.2028 6.96996 17.3187 7.43183C17.4707 8.03764 18.1249 8.58965 18.6906 8.58965C19.325 8.58965 20.1207 7.7888 20.1207 7.15024C20.1207 6.13061 18.7163 5.34991 17.9459 5.9415ZM32.1102 17.7004L31.6359 18.1748V28.0216V37.8684L32.1102 38.3429L32.5847 38.8172H42.4221C52.0555 38.8172 52.2676 38.8096 52.6511 38.4523C53.1903 37.9501 53.2943 37.3936 53.1491 35.7908C52.829 32.2585 51.7154 29.1008 49.7634 26.1896L48.962 24.9947L51.4117 22.5499L53.8614 20.1049H57.1427H60.424V18.6655V17.2261H56.5335H52.643L49.8093 20.0254L46.9755 22.8245L46.0978 22.0632C43.3888 19.713 39.8749 18.1115 36.075 17.4953C33.5433 17.0845 32.6815 17.1291 32.1102 17.7004ZM63.3028 18.6655V20.1049H74.8181H86.3333V18.6655V17.2261H74.8181H63.3028V18.6655ZM37.5735 20.7253C39.2673 21.1582 42.1518 22.6138 43.6701 23.8016L44.9848 24.8305L43.6181 26.2051C42.8665 26.9611 42.2515 27.6562 42.2515 27.7496C42.2515 27.9799 43.9011 29.641 44.1298 29.641C44.2302 29.641 44.8914 29.0657 45.5992 28.3626L46.8862 27.084L47.4239 27.8678C48.7112 29.7444 49.8365 32.6317 50.1369 34.8291L50.2886 35.9384H42.4016H34.5147V28.0517V20.1652L35.4593 20.2958C35.9788 20.3676 36.9302 20.561 37.5735 20.7253ZM25.1586 23.1039C22.1815 23.5753 20.3936 24.1108 18.3214 25.1516C13.7063 27.4696 9.92878 31.7693 8.28372 36.5765C6.88551 40.663 6.88551 45.6077 8.28372 49.6942C9.92878 54.5015 13.7063 58.8011 18.3214 61.1191C21.3051 62.6179 23.8581 63.1998 27.4077 63.1904C30.0689 63.1834 31.1892 63.0132 33.5251 62.2606C37.5776 60.9549 41.2842 58.1979 43.7841 54.6305L44.7786 53.2112H54.0408H63.3028V55.3601V57.5089L56.7805 57.5661C50.4513 57.6216 50.2276 57.6356 49.2233 58.0392C47.2263 58.8418 45.7099 60.4271 45.0038 62.4506C44.71 63.2925 44.6805 64.166 44.6805 72.0135C44.6805 80.6328 44.6814 80.6519 45.0985 81.6848C45.9058 83.6845 47.4895 85.1986 49.5117 85.9043C50.3698 86.2038 51.3864 86.2276 63.3028 86.2276C75.2193 86.2276 76.2359 86.2038 77.094 85.9043C79.1161 85.1986 80.6998 83.6845 81.5072 81.6848C81.9242 80.6519 81.9251 80.6328 81.9251 72.0135C81.9251 64.166 81.8956 63.2925 81.6018 62.4506C80.8952 60.4255 79.3756 58.8379 77.3824 58.042C76.4045 57.6514 76.0673 57.6253 71.2645 57.5665L66.1816 57.5044V54.5364C66.1816 51.5478 66.0906 51.0338 65.4776 50.5631C65.2617 50.3974 62.878 50.3425 55.701 50.3382C50.481 50.3349 46.211 50.2718 46.2122 50.1975C46.2135 50.1232 46.3772 49.5438 46.5759 48.9097C46.9971 47.5657 47.4676 44.8247 47.4687 43.7083C47.4694 42.8844 47.2331 42.2858 46.7653 41.9266C46.55 41.7613 44.3005 41.7061 37.6184 41.7017L28.7571 41.696V32.9577C28.7571 24.0053 28.738 23.7403 28.053 23.2144C27.7837 23.0076 26.1586 22.9456 25.1586 23.1039ZM63.3028 24.4231V25.8625H74.8181H86.3333V24.4231V22.9837H74.8181H63.3028V24.4231ZM22.7015 50.5014C20.9523 54.7132 19.4675 58.2222 19.402 58.2992C19.2335 58.4973 16.8142 56.8763 15.5466 55.716C13.0577 53.4376 11.1643 50.0415 10.3887 46.464C10.26 45.8703 10.1524 44.2914 10.1499 42.9555C10.1459 40.8609 10.2122 40.2846 10.631 38.7704C12.114 33.4097 15.9836 29.0506 21.0203 27.0675C22.1754 26.6126 24.1998 26.1033 25.2485 26.0038L25.7883 25.9525L25.8351 34.398L25.8819 42.8435L22.7015 50.5014ZM63.3028 30.1807V31.6201H74.8181H86.3333V30.1807V28.7413H74.8181H63.3028V30.1807ZM69.5347 37.852L69.0605 38.3265V44.5748V50.8231L69.5347 51.2975L70.0092 51.7718L77.6764 51.7661C85.7543 51.7601 85.6773 51.7677 86.1241 50.929C86.4186 50.3759 86.4186 38.7736 86.1241 38.2205C85.6773 37.3819 85.7543 37.3895 77.6764 37.3835L70.0092 37.3778L69.5347 37.852ZM79.343 41.4261C78.5463 42.0693 77.8056 42.5956 77.6969 42.5956C77.5882 42.5956 76.8475 42.0693 76.0508 41.4261L74.6022 40.2566H77.6969H80.7916L79.343 41.4261ZM73.9685 43.4053C74.7234 43.999 75.3413 44.5253 75.3413 44.5748C75.3413 44.6543 73.1345 46.4377 72.2674 47.059C71.9538 47.2836 71.9393 47.1726 71.9393 44.5748C71.9393 41.977 71.9538 41.866 72.2674 42.0905C72.4479 42.2199 73.2133 42.8115 73.9685 43.4053ZM83.4171 45.9221L83.3645 47.2694L81.7087 45.9671C80.7979 45.2508 80.0527 44.6243 80.0527 44.5748C80.0527 44.5253 80.7979 43.8988 81.7087 43.1825L83.3645 41.8802L83.4171 43.2275C83.4461 43.9686 83.4461 45.181 83.4171 45.9221ZM44.3997 45.5194C44.2246 46.7848 43.7642 48.5126 43.3349 49.5141L42.984 50.3324H40.0307H37.0774L36.8512 49.7865C36.7269 49.4862 36.2766 48.9337 35.8505 48.5587C34.5226 47.3899 32.9191 47.1481 31.366 47.8824C27.9282 49.5076 27.9282 54.036 31.366 55.6613C32.9191 56.3955 34.5226 56.1537 35.8505 54.9849C36.2766 54.61 36.7269 54.0574 36.8512 53.7571L37.0774 53.2112H39.1246C40.2508 53.2112 41.1709 53.2719 41.1694 53.3462C41.168 53.4205 40.7439 53.961 40.2268 54.5477C38.0951 56.9664 34.9071 58.9318 31.7117 59.7974C30.174 60.2139 29.5651 60.2825 27.3177 60.2917C25.341 60.2997 24.4036 60.2226 23.4493 59.973C22.7566 59.792 22.1585 59.6159 22.1204 59.5817C22.082 59.5475 23.4513 56.157 25.1627 52.0471L28.2747 44.5748H36.4025H44.5303L44.3997 45.5194ZM79.343 47.7235L80.7916 48.893H77.6974H74.6034L76.0153 47.7341C76.7917 47.0966 77.5323 46.5703 77.6607 46.5646C77.7894 46.5588 78.5463 47.0802 79.343 47.7235ZM33.9269 50.6861C34.4494 51.173 34.5856 51.7061 34.3393 52.3008C33.9273 53.2952 32.7698 53.461 32.0008 52.6353C30.886 51.4388 32.7309 49.5719 33.9269 50.6861ZM76.4374 60.7827C77.5247 61.2748 78.1964 61.936 78.7075 63.0172L79.1327 63.9168V71.9235V79.9302L78.7075 80.8298C78.1964 81.911 77.5247 82.5722 76.4374 83.0643C75.6483 83.4215 75.315 83.4308 63.3028 83.433L50.9779 83.4351L50.0783 83.01C48.9971 82.4988 48.3359 81.8271 47.8438 80.7398C47.4928 79.9642 47.4773 79.5937 47.4773 71.9235C47.4773 64.2533 47.4928 63.8828 47.8438 63.1071C48.3359 62.0198 48.9971 61.3482 50.0783 60.837L50.9779 60.4118L63.3028 60.414C75.315 60.4162 75.6483 60.4255 76.4374 60.7827ZM60.9983 63.6019C60.7974 63.775 59.8483 65.7589 58.8891 68.0101C57.9297 70.2613 57.1015 72.1034 57.0486 72.1034C56.9955 72.1034 56.2382 71.4152 55.3658 70.574C54.4589 69.7 53.6261 69.0447 53.4217 69.0447C52.7905 69.0447 52.1719 69.4391 51.9013 70.0143C51.0711 71.7779 49.0918 77.0354 49.2139 77.1519C49.3773 77.3076 51.6517 78.2446 51.6987 78.1755C51.7154 78.1511 52.1602 77.0379 52.6872 75.7019C53.2142 74.366 53.6718 73.2402 53.7038 73.2002C53.736 73.1601 54.4892 73.8282 55.3776 74.6846C57.0044 76.2527 57.33 76.4141 58.1312 76.049C58.7059 75.787 58.7611 75.683 60.431 71.7162C61.2371 69.8016 61.9518 68.1764 62.0192 68.1047C62.0867 68.0331 63.7937 70.7299 65.8123 74.0977C67.831 77.4654 69.6252 80.2971 69.7996 80.3904C70.2904 80.6531 70.9615 80.5914 71.3817 80.2451C71.6526 80.0216 72.3903 78.0489 73.9206 73.4557C75.1069 69.8946 76.0776 66.8861 76.0776 66.7699C76.0776 66.5743 74.1255 65.806 73.6286 65.806C73.5007 65.806 72.7533 67.7814 71.8417 70.5291C70.9801 73.1268 70.2174 75.3158 70.147 75.3935C70.0765 75.4714 68.4584 72.921 66.5508 69.7259C64.6435 66.5309 62.9209 63.775 62.7231 63.6019C62.5252 63.4288 62.1384 63.2871 61.8634 63.2871C61.5885 63.2871 61.1991 63.4288 60.9983 63.6019ZM17.9459 67.8359C17.2811 68.3464 17.2419 68.7289 17.2419 74.7005V80.5599L14.1381 80.5657C11.9824 80.5696 10.9472 80.6384 10.7489 80.7906C10.1163 81.2762 10.0448 81.7541 10.0448 85.496V89.1964H6.44632H2.8478V90.6358V92.0752H21.5601H40.2723V90.6358V89.1964H37.3935H34.5147V81.8975C34.5147 76.6937 34.4546 74.486 34.3055 74.2057C33.8886 73.423 33.664 73.3746 30.4214 73.3687L27.3177 73.3629V71.1019C27.3177 68.8385 27.1984 68.2849 26.6136 67.8359C26.4087 67.6785 25.1859 67.6168 22.2798 67.6168C19.3736 67.6168 18.1508 67.6785 17.9459 67.8359ZM24.4389 79.8402V89.1964H22.2798H20.1207V79.8402V70.4841H22.2798H24.4389V79.8402ZM37.3935 74.8023V76.2417H39.5526H41.7117V74.8023V73.3629H39.5526H37.3935V74.8023ZM31.6359 82.719V89.1964H29.4768H27.3177V82.719V76.2417H29.4768H31.6359V82.719ZM17.2419 86.3175V89.1964H15.0827H12.9236V86.3175V83.4387H15.0827H17.2419V86.3175Z" fill="#1B294A"/>
</svg>
