<svg width="71" height="70" viewBox="0 0 71 70" fill="none" xmlns="http://www.w3.org/2000/svg">
<path fill-rule="evenodd" clip-rule="evenodd" d="M38.5445 0.154104C24.4847 1.93116 13.9425 13.8634 13.9425 28.0002C13.9425 34.4413 16.2517 40.9048 20.302 45.8003L21.1697 46.8492L19.2698 48.7455L17.3699 50.6417L16.1518 49.4498C14.9962 48.319 14.903 48.2578 14.3349 48.2578H13.7361L7.35646 54.6567C0.404283 61.6298 0.39826 61.6372 0.0778349 63.5075C-0.55672 67.212 2.78797 70.5567 6.49251 69.9222C8.36661 69.6012 8.3688 69.5993 15.3433 62.6434L21.7422 56.2614V55.6638C21.7422 55.0973 21.6802 55.003 20.5502 53.8482L19.3583 52.6301L21.2526 50.7321L23.147 48.834L24.2848 49.7642C32.7135 56.6539 44.5317 57.9951 54.387 53.1802C59.8948 50.4894 64.6185 45.7394 67.2451 40.2506C71.5084 31.3415 70.8451 20.8282 65.5072 12.7042C64.3499 10.943 63.4735 9.86132 61.9452 8.30805C57.7108 4.00469 52.4778 1.30646 46.3779 0.281672C44.5105 -0.0320469 40.5299 -0.0969258 38.5445 0.154104ZM46.1061 3.01467C51.1065 3.84139 55.7288 6.14378 59.4056 9.63889C69.5995 19.3294 69.9878 35.3584 60.2746 45.5025C50.2638 55.9573 33.7209 55.9262 23.6579 45.4336C15.5754 37.0062 14.3769 23.9476 20.789 14.1758C24.9677 7.80764 31.55 3.76132 39.2623 2.82003C40.6855 2.64633 44.5414 2.75597 46.1061 3.01467ZM39.2938 6.10463C35.4309 6.59191 31.2536 8.33515 28.3807 10.6586C24.1839 14.0526 21.493 18.4452 20.3561 23.7571C20.094 24.9818 20.0484 25.609 20.0484 28.0002C20.0484 30.3895 20.0941 31.0195 20.3555 32.2433C21.0005 35.2613 22.1116 37.9068 23.8073 40.4616C24.921 42.14 27.7775 45.0107 29.4757 46.1587C31.9956 47.8621 35.1541 49.164 38.0988 49.7134C40.0141 50.0707 43.9855 50.0707 45.9007 49.7134C53.2055 48.3507 59.317 43.4774 62.2485 36.6777C63.21 34.447 63.2641 33.922 62.6002 33.2581C62.3587 33.0165 62.1193 32.9277 61.7099 32.9277C60.9974 32.9277 60.5919 33.3127 60.2511 34.3123C59.7584 35.7571 58.3947 38.2941 57.4038 39.6096C54.6334 43.2873 50.7847 45.7802 46.2219 46.8525C44.8222 47.1812 44.4052 47.2177 41.9998 47.2203C39.5798 47.223 39.1873 47.1893 37.7943 46.8592C33.9251 45.942 30.5455 44.0004 27.9015 41.1757C24.699 37.7546 22.9508 33.5649 22.7392 28.8039C22.1637 15.8562 34.3149 6.06877 46.911 9.33435C52.9665 10.9043 57.9336 15.4497 60.1294 21.4302C60.5883 22.6803 60.9703 23.0727 61.7281 23.0727C62.1539 23.0727 62.3689 22.9821 62.6785 22.6726C63.2029 22.1482 63.192 21.7507 62.6119 20.2305C59.8919 13.1031 53.8273 7.94889 46.3114 6.37715C44.7335 6.04714 40.9223 5.89918 39.2938 6.10463ZM47.71 19.7916C46.7183 20.0416 46.2932 20.3847 43.3394 23.3188L40.3674 26.2709L39.0589 25.0049C37.4061 23.4061 36.6467 23.0223 35.1359 23.0223C34.2312 23.0223 33.9641 23.0828 33.1916 23.4632C31.4555 24.3178 30.564 25.8322 30.6706 27.7455C30.7689 29.5065 30.9626 29.7773 34.9785 33.7638C38.9286 37.6848 39.1212 37.8188 40.6097 37.6839C41.0488 37.644 41.6181 37.5058 41.875 37.3767C42.1319 37.2475 44.6303 34.8541 47.427 32.0577C53.3198 26.1661 53.2887 26.2075 53.2908 24.2361C53.2919 23.1656 53.2423 22.9031 52.9129 22.232C52.4713 21.333 51.5444 20.4247 50.6769 20.0409C49.9717 19.7289 48.4617 19.6021 47.71 19.7916ZM49.5978 22.5854C50.2875 22.8735 50.652 23.5292 50.5808 24.3537L50.5234 25.0186L45.5438 29.9998C42.3963 33.1479 40.4657 34.9809 40.2968 34.9809C40.0161 34.9809 34.496 29.6079 33.7718 28.6298C33.0117 27.603 33.3588 26.3225 34.5172 25.88C35.5097 25.501 35.8951 25.7082 37.962 27.7312C38.9406 28.6891 39.8718 29.5127 40.0313 29.5613C40.1907 29.6099 40.4987 29.5836 40.7156 29.5028C40.9326 29.4221 42.6192 27.8524 44.4636 26.0147C46.308 24.1769 47.971 22.6131 48.1592 22.5394C48.6504 22.3474 49.0594 22.3604 49.5978 22.5854ZM61.9987 26.8225C60.8121 27.4802 61.3086 29.369 62.668 29.369C63.3615 29.369 64.0368 28.7003 64.0368 28.0135C64.0368 26.9858 62.9011 26.3222 61.9987 26.8225ZM12.8801 61.1712C9.18238 64.8784 7.11734 66.8505 6.75435 67.0207C4.48591 68.0845 1.96781 65.6657 2.92663 63.3439C3.07021 62.9964 4.9261 61.044 8.77696 57.1894L14.4171 51.5439L16.4377 53.561L18.4583 55.5783L12.8801 61.1712Z" fill="#1B294A"/>
</svg>
