<svg width="92" height="91" viewBox="0 0 92 91" fill="none" xmlns="http://www.w3.org/2000/svg">
<path fill-rule="evenodd" clip-rule="evenodd" d="M7.31348 0.294866C4.08204 1.16518 1.62336 3.64909 0.777033 6.89848C0.377945 8.43086 0.377589 72.1035 0.776678 73.6357C1.10238 74.8858 1.64344 75.7618 2.67865 76.7144C3.71475 77.6679 5.0691 78.1599 7.07395 78.3113L8.68612 78.433V82.9281V87.4233L5.11743 87.4782L1.54873 87.5329L1.03059 88.1133C0.351469 88.8739 0.351469 89.5684 1.03095 90.3287L1.54944 90.909L45.8934 90.9545L90.2371 91L90.8146 90.484C91.2926 90.0568 91.3921 89.8395 91.3921 89.221C91.3921 88.6026 91.2926 88.3851 90.8156 87.959L90.2394 87.4441H86.7773H83.3152V82.9384V78.433L84.9274 78.3113C86.9323 78.1599 88.2866 77.6679 89.3227 76.7144C90.3579 75.7618 90.899 74.8858 91.2247 73.6357C91.6238 72.1035 91.6234 8.43086 91.2243 6.89848C90.368 3.61089 87.8994 1.14226 84.6118 0.285982C83.126 -0.101024 8.75151 -0.0924945 7.31348 0.294866ZM84.7632 4.04587C85.8212 4.53504 86.9781 5.69304 87.4614 6.74709C87.7807 7.44363 87.8502 7.98398 87.9039 10.1941L87.9677 12.815H46.017H4.06622V10.5333C4.06622 9.06574 4.15702 7.95004 4.32049 7.40649C4.823 5.73693 6.04407 4.47037 7.70741 3.89359C8.54273 3.60396 10.903 3.58743 46.2672 3.62457L83.9371 3.66402L84.7632 4.04587ZM11.2626 6.57953C10.1302 7.06426 9.83079 8.53214 10.6892 9.39038C11.7681 10.4695 13.5646 9.72266 13.5646 8.19507C13.5646 7.02499 12.298 6.13602 11.2626 6.57953ZM18.3701 6.57953C17.2377 7.06426 16.9383 8.53214 17.7967 9.39038C18.8757 10.4695 20.6721 9.72266 20.6721 8.19507C20.6721 7.02499 19.4055 6.13602 18.3701 6.57953ZM25.4777 6.57953C24.3453 7.06426 24.0459 8.53214 24.9043 9.39038C25.9832 10.4695 27.7796 9.72266 27.7796 8.19507C27.7796 7.02499 26.5131 6.13602 25.4777 6.57953ZM39.3374 6.5861C38.2062 7.04916 37.9056 8.53197 38.7679 9.39447L39.2565 9.88311L59.948 9.92966L80.6394 9.9764L81.2182 9.45932C81.6976 9.03092 81.7969 8.81396 81.7969 8.19507C81.7969 7.57671 81.6974 7.35922 81.2205 6.93313L80.6442 6.41819L60.1685 6.42938C48.9068 6.4356 39.5328 6.50614 39.3374 6.5861ZM87.9348 44.4879C87.9346 70.904 87.9158 72.6446 87.6238 73.2255C87.0966 74.2751 86.3288 74.6505 84.7104 74.6505H83.3152L83.3145 60.8353C83.314 47.4654 83.3028 47.0017 82.9684 46.4533C82.7363 46.0727 82.4014 45.8252 81.9474 45.6992C81.044 45.4483 70.6606 45.4483 69.7573 45.6992C69.3033 45.8252 68.9683 46.0727 68.7363 46.4533C68.4161 46.9786 68.3907 47.3805 68.3901 51.948L68.3894 56.876L68.8781 57.4181C69.1851 57.7586 69.6053 57.9981 70.0087 58.0621C70.5503 58.1483 70.7445 58.0802 71.2525 57.6266L71.8543 57.0892L71.9084 53.1652L71.9624 49.2411H75.8619H79.7615V68.3426V87.4441H75.8566H71.9519L71.903 77.4975L71.8543 67.5508L71.3819 67.0785C71.021 66.7176 70.7338 66.606 70.1663 66.606C69.5988 66.606 69.3116 66.7176 68.9507 67.0785L68.4783 67.5508L68.4296 77.4975L68.3807 87.4441H65.9012H63.4218L63.3734 75.8798L63.3253 64.3153L62.7379 63.7904L62.1502 63.2655L55.8377 63.3165L49.525 63.3673L49.0066 63.9476L48.4883 64.528V75.986V87.4441H46.0007H43.513V68.6207C43.513 57.088 43.4473 49.6244 43.3433 49.3507C43.2499 49.1052 42.9535 48.7603 42.6848 48.584C42.2376 48.2912 41.672 48.2638 36.0501 48.2638C30.4282 48.2638 29.8627 48.2912 29.4154 48.584C29.1468 48.7603 28.8504 49.1052 28.7569 49.3507C28.653 49.6244 28.5872 57.088 28.5872 68.6207V87.4441H26.1042H23.6212L23.5721 78.1895L23.5231 68.9352L22.9357 68.4103L22.348 67.8854L16.054 67.9364L9.75989 67.9872L9.26752 68.4794C8.77603 68.9705 8.77479 68.9776 8.71828 71.8111L8.6616 74.6505H7.27865C5.67341 74.6505 4.90331 74.2722 4.37753 73.2255C4.08559 72.6446 4.06676 70.904 4.06658 44.4879L4.06622 16.3687H46.0007H87.9351L87.9348 44.4879ZM9.84109 22.574C9.27338 22.813 8.8567 23.3823 8.74494 24.0713C8.65378 24.6328 8.71739 24.7869 9.26769 25.3372L9.8944 25.9639H14.7275H19.5606L20.1874 25.3372C20.7416 24.783 20.8016 24.6353 20.7082 24.0586C20.6499 23.7 20.3983 23.2023 20.1488 22.9528L19.6953 22.499L14.9459 22.4617C12.3337 22.4411 10.0366 22.4915 9.84109 22.574ZM24.9446 22.5781C23.8856 23.0116 23.5492 24.5186 24.327 25.3464C25.4112 26.5005 27.3356 25.759 27.3356 24.187C27.3356 22.9434 26.0937 22.1077 24.9446 22.5781ZM33.5152 24.3803C31.8572 24.7709 30.1061 26.1963 29.3285 27.7881C28.5384 29.4056 28.5099 31.739 29.2617 33.2584L29.5949 33.9318L24.3378 39.1624L19.0809 44.3932L18.2019 44.0531C17.6251 43.8299 16.8788 43.713 16.0321 43.713C12.4517 43.713 9.70801 46.4558 9.71547 50.0277C9.7192 51.8879 10.2505 53.1465 11.6023 54.4985C13.045 55.941 14.2248 56.4041 16.2421 56.3195C19.6712 56.1757 22.1677 53.7123 22.336 50.3063C22.3866 49.28 22.3157 48.7277 22.0282 47.9098L21.6547 46.8471L26.8535 41.638C31.7595 36.7219 32.0822 36.4344 32.5852 36.5285C35.3664 37.0497 35.5643 37.0549 36.9281 36.6407L38.2423 36.2414L44.2823 42.2816L50.3224 48.3216L49.9494 49.1883C48.5706 52.3938 50.0157 56.054 53.2548 57.5601C54.0967 57.9515 54.5125 58.0287 55.7735 58.0274C57.0472 58.026 57.4541 57.948 58.3696 57.5294C61.3199 56.1807 62.8354 52.7817 61.8215 49.7875L61.4349 48.6458L67.4441 42.6249L73.4535 36.6039L74.1643 36.7471C77.3566 37.3898 80.2156 36.0516 81.5828 33.2747C82.0997 32.2248 82.1597 31.9426 82.1548 30.5875C82.1503 29.3149 82.0702 28.9004 81.653 27.9878C81.0321 26.6295 79.8224 25.4236 78.4288 24.7734C77.524 24.3512 77.1342 24.2759 75.8523 24.2759C74.5705 24.2759 74.1806 24.3512 73.2758 24.7734C71.8808 25.4243 70.672 26.6297 70.0529 27.9878C69.6377 28.8983 69.5568 29.318 69.5511 30.5898C69.5451 31.9307 69.6073 32.2329 70.0872 33.2019L70.6301 34.2977L64.7432 40.1825L58.8564 46.0674L57.7148 45.6804C56.4424 45.2491 54.7591 45.2834 53.6089 45.7641L52.9952 46.0205L46.8408 39.8568L40.6864 33.6934L41.0279 32.7161C41.7218 30.7292 41.354 28.3046 40.1203 26.7349C38.5573 24.746 35.9332 23.8107 33.5152 24.3803ZM36.3167 28.0962C37.7264 28.7787 38.2853 30.7464 37.4272 32.0071C36.5109 33.3536 35.2148 33.7422 33.8479 33.0807C32.8045 32.5755 32.2776 31.7379 32.2776 30.5838C32.2776 28.4261 34.3552 27.1466 36.3167 28.0962ZM76.9769 27.9832C78.1847 28.4878 78.8734 29.8457 78.6164 31.2157C78.4588 32.0551 77.3236 33.1903 76.4842 33.3479C75.4477 33.5423 74.6529 33.2936 73.8978 32.5384C71.69 30.3306 74.0918 26.7777 76.9769 27.9832ZM9.84109 31.103C9.27338 31.342 8.8567 31.9113 8.74494 32.6004C8.65378 33.1619 8.71739 33.3159 9.26769 33.8662L9.8944 34.493H14.7275H19.5606L20.1874 33.8662C20.7416 33.312 20.8016 33.1644 20.7082 32.5876C20.6499 32.229 20.3983 31.7313 20.1488 31.4818L19.6953 31.028L14.9459 30.9907C12.3337 30.9701 10.0366 31.0206 9.84109 31.103ZM17.7345 47.776C19.2136 48.8592 19.1378 51.3115 17.5928 52.3615C15.7865 53.5889 13.2468 52.2327 13.2468 50.0407C13.2468 47.7737 15.9019 46.434 17.7345 47.776ZM57.3306 49.3605C58.2361 50.0366 58.5277 50.6136 58.5277 51.7287C58.5277 52.8524 58.2367 53.4203 57.3043 54.1165C56.5868 54.6522 54.9988 54.6274 54.2147 54.0682C53.5252 53.5763 52.9305 52.493 52.9305 51.7287C52.9305 50.6853 53.8229 49.4415 54.8851 49.0044C55.3908 48.7963 56.8617 49.0104 57.3306 49.3605ZM39.9593 69.5864V87.4441H36.0501H32.141V69.5864V51.7287H36.0501H39.9593V69.5864ZM69.0444 61.3976C68.1874 62.1919 68.2338 63.3691 69.149 64.0525C70.4048 64.99 72.2435 63.7886 71.8645 62.2784C71.683 61.5552 70.9224 60.9685 70.1663 60.9685C69.716 60.9685 69.3608 61.1043 69.0444 61.3976ZM59.8604 77.1382V87.4441H55.9512H52.0421V77.1382V66.8322H55.9512H59.8604V77.1382ZM20.0582 79.4481V87.4441H16.149H12.2399V79.4481V71.4521H16.149H20.0582V79.4481Z" fill="#1B294A"/>
</svg>
