<svg width="59" height="70" viewBox="0 0 59 70" fill="none" xmlns="http://www.w3.org/2000/svg">
<path fill-rule="evenodd" clip-rule="evenodd" d="M27.73 0.314189C26.055 0.758721 25.1301 1.25375 23.9922 2.31458C23.2169 3.03738 23.0245 3.14663 22.5264 3.14663C21.7233 3.14663 19.9097 3.63327 18.9903 4.09531C16.0405 5.57781 14.2295 8.68562 14.2424 12.243C14.2512 14.667 14.8322 17.0313 15.9625 19.2414L16.5233 20.3379L16.0299 20.8162C15.2902 21.5332 14.9448 22.3722 14.8559 23.6676C14.704 25.886 15.5506 27.5467 17.2037 28.2726C17.5221 28.4124 17.7973 28.5343 17.8156 28.5432C17.8336 28.5524 18.0152 29.1355 18.2191 29.8389C18.9538 32.3743 20.034 34.2756 21.6501 35.8773L22.6265 36.8452L22.4092 38.1202C22.1468 39.6581 21.6378 41.1833 21.3332 41.3439C21.2109 41.4085 19.6456 41.8963 17.8549 42.4279C14.5855 43.3986 14.0926 43.6349 14.0926 44.2318C14.0926 44.4386 13.8418 44.5047 12.537 44.6422C6.92381 45.2333 2.57067 48.8823 0.899914 54.3971C0.590825 55.4169 0.576653 55.7228 0.525717 62.4304C0.473479 69.3145 0.476655 69.4074 0.770983 69.7018L1.06922 70H29.576H58.0827L58.3809 69.7018C58.6753 69.4074 58.6784 69.3145 58.6262 62.4304C58.5753 55.7228 58.5611 55.4169 58.252 54.3971C56.5448 48.762 51.9034 44.987 46.1808 44.5789C45.001 44.4949 44.9146 44.4671 44.9146 44.171C44.9146 43.9964 44.8007 43.7518 44.6614 43.6276C44.4566 43.445 42.5182 42.8182 37.7956 41.4073C37.5046 41.3203 37.025 40.1045 36.7317 38.7099C36.3752 37.0151 36.3911 36.9592 37.5955 35.6986C39.2127 34.006 40.5231 31.5156 41.0229 29.1851C41.153 28.5785 41.2209 28.4951 41.7025 28.3499C42.4724 28.1178 43.2742 27.3966 43.7169 26.5379C44.0337 25.9235 44.1118 25.548 44.1623 24.3972C44.2014 23.5059 44.1578 22.7998 44.0418 22.4437C43.7658 21.5971 43.0667 20.667 42.5054 20.3994C42.1691 20.239 42.0275 20.0863 42.0768 19.9375C42.1175 19.8153 42.3763 19.0634 42.6523 18.2668C44.227 13.7192 44.0413 9.24693 42.1474 6.09918C40.0944 2.68705 35.4226 0.182798 30.8059 0.0200053C29.2978 -0.0332459 28.8934 0.00539027 27.73 0.314189ZM32.9798 2.28839C37.5377 3.4822 40.4522 5.94261 41.375 9.37543C41.8773 11.2436 41.7834 13.8977 41.1281 16.3573L40.8277 17.4851L40.2611 16.3207C39.5957 14.9532 38.3264 13.5164 37.2806 12.9475C36.1267 12.3194 35.0919 12.1154 33.5673 12.2155C30.4314 12.4216 27.341 11.4754 24.7281 9.50928C24.0915 9.03031 23.4312 8.60213 23.2608 8.5577C22.8186 8.44281 22.1963 8.8092 21.1142 9.8214C19.158 11.6513 17.9856 13.8676 17.5134 16.6283L17.3319 17.6894L17.0142 16.7468C16.2825 14.5765 16.0539 11.8324 16.4734 10.2561C17.2712 7.25869 19.327 5.54539 22.6301 5.12517L24.1495 4.9317L25.0396 4.05682C26.5007 2.62063 28.0942 2.01475 30.4532 1.99855C31.4137 1.99189 32.1863 2.08059 32.9798 2.28839ZM23.8211 11.3965C26.2764 13.2654 30.378 14.4576 33.5804 14.233C34.7308 14.1523 35.019 14.1815 35.7424 14.4521C36.7892 14.8438 37.7821 15.8084 38.4016 17.0355C38.901 18.0248 39.4158 19.8425 39.4158 20.6162C39.4158 21.1257 39.6302 21.6621 39.9078 21.8475C39.9954 21.9059 40.3155 21.9547 40.6192 21.956C41.7496 21.9605 42.1652 22.5445 42.1652 24.1287C42.1652 25.6939 41.7372 26.316 40.4218 26.663C40.0041 26.7731 39.6038 26.9217 39.5323 26.9932C39.4609 27.0647 39.282 27.7029 39.135 28.4116C38.0058 33.8514 34.4788 36.9943 29.4906 37.005C26.9315 37.0105 24.7574 36.1217 22.9792 34.3433C21.318 32.6818 20.28 30.6394 19.8688 28.2227C19.6877 27.1581 19.4284 26.7352 18.9539 26.7302C18.7872 26.7285 18.3718 26.6004 18.0309 26.4458C17.2464 26.0896 16.8498 25.301 16.8452 24.0879C16.8395 22.6111 17.3225 21.9582 18.4207 21.9582C19.1998 21.9582 19.3496 21.5779 19.3183 19.6794C19.2727 16.9095 19.839 14.7548 21.1187 12.8298C21.6459 12.0368 22.7956 10.816 23.0151 10.816C23.0389 10.816 23.4016 11.0771 23.8211 11.3965ZM26.411 38.5974C28.6185 39.2149 31.1311 39.1328 33.3742 38.3698C34.63 37.9428 34.64 37.9425 34.6428 38.3459C34.6465 38.8957 35.2052 40.9298 35.5732 41.7335L35.9215 42.4945L35.4352 45.6985C35.1676 47.4609 34.9079 48.9435 34.8581 48.9933C34.4771 49.3744 24.5437 49.388 24.1637 49.008C24.1221 48.9662 23.8678 47.5025 23.5988 45.7552C23.145 42.8067 23.1256 42.5422 23.3283 42.0721C23.7001 41.2098 24.2064 39.5793 24.3727 38.7092L24.5313 37.8785L24.9378 38.0888C25.1613 38.2044 25.8244 38.4333 26.411 38.5974ZM21.4397 44.7129C21.6357 46.1342 21.9838 48.4537 23.3437 57.3996C23.9053 61.0943 24.3488 64.1327 24.3296 64.1516C24.2799 64.2 17.5023 53.2186 17.4516 53.0078C17.4289 52.9129 17.8033 52.3899 18.2837 51.8457C18.7641 51.3015 19.1572 50.739 19.1572 50.5959C19.1572 50.4526 18.5595 49.1283 17.8287 47.6529C17.0981 46.1773 16.5284 44.95 16.5626 44.9254C16.6504 44.8621 20.9326 43.5572 21.1206 43.5362C21.2076 43.5266 21.347 44.0409 21.4397 44.7129ZM40.3198 44.2604C41.4935 44.6087 42.4539 44.9433 42.4542 45.0039C42.4545 45.0644 41.8638 46.2943 41.1416 47.737C40.2386 49.5407 39.8533 50.4587 39.908 50.6762C39.9515 50.8501 40.3733 51.4297 40.8451 51.9641L41.7027 52.9358L38.2142 58.5681C36.2955 61.6658 34.7129 64.1867 34.6975 64.1699C34.6639 64.1333 37.6454 44.3137 37.7568 43.8344C37.7997 43.6496 37.9138 43.5275 38.0103 43.5628C38.1068 43.5981 39.1461 43.912 40.3198 44.2604ZM15.9403 48.3682C16.4362 49.3639 16.842 50.2492 16.842 50.3357C16.842 50.4221 16.4459 50.9251 15.9619 51.4534C15.22 52.263 15.0905 52.4824 15.1369 52.8502C15.1688 53.102 17.1021 56.371 19.707 60.5773C22.1902 64.5872 24.2219 67.8918 24.2219 67.921C24.2219 67.9503 19.3381 67.9741 13.3691 67.9741H2.51627V62.1368C2.51627 56.751 2.53898 56.2108 2.809 55.1548C3.55885 52.2224 5.38922 49.7359 7.88407 48.2599C8.38416 47.9641 8.81438 47.743 8.83999 47.7688C8.86575 47.7946 8.7452 48.1349 8.57228 48.5252C8.04382 49.718 7.72765 51.1822 7.62983 52.8887C7.5786 53.7841 7.48527 54.5166 7.42233 54.5166C7.35953 54.5166 6.91354 54.8819 6.43139 55.3281C5.82464 55.8899 5.41282 56.4356 5.0936 57.1008C4.21857 58.9235 4.40306 61.4373 5.54319 63.2309C6.08134 64.0775 6.42545 64.1759 7.44474 63.7751C8.46476 63.374 8.73855 63.1142 8.73855 62.5477C8.73855 61.877 8.31646 61.548 7.58208 61.6465C6.89966 61.7381 6.8289 61.6529 6.57971 60.4413C6.24415 58.8097 6.98431 57.1607 8.44278 56.2901C10.3328 55.1622 12.7664 56.0381 13.7401 58.1969C14.2013 59.2194 14.2471 59.7777 13.8755 59.8468C13.397 59.9358 13.0797 60.3203 13.0797 60.8113C13.0797 61.4302 13.4562 61.7372 14.3972 61.886C15.2142 62.0152 15.6502 61.9246 15.9499 61.5636C16.1818 61.2842 16.1943 59.2456 15.9694 58.3996C15.3038 55.8971 13.0714 53.9814 10.6358 53.8224L9.5667 53.7525L9.65627 52.5791C9.82948 50.3079 10.5103 48.5664 11.7132 47.3176L12.4449 46.5579H13.7417H15.0385L15.9403 48.3682ZM46.6681 47.1729C47.6015 48.4399 48.4175 50.9241 48.6145 53.0987L48.7105 54.1569L48.1777 54.3497C47.0026 54.7745 46.0364 56.0871 45.8468 57.5158C45.553 59.7299 47.4895 61.8966 49.7622 61.8966C52.0445 61.8966 53.9582 59.7463 53.6773 57.4977C53.5048 56.1171 52.5414 54.8469 51.2609 54.3119L50.7495 54.0982L50.5752 52.6597C50.3888 51.1225 49.9293 49.2772 49.4252 48.0411C49.2232 47.5459 49.1737 47.2814 49.2832 47.2814C49.6984 47.2814 51.6526 48.4003 52.5414 49.1467C54.4414 50.7423 55.7592 52.8229 56.3471 55.1548C56.6116 56.2043 56.6357 56.7842 56.6357 62.1368V67.9741H45.6986H34.7617L35.0928 67.4315C35.2748 67.1331 37.3314 63.8004 39.6627 60.0255C42.4483 55.5155 43.9017 53.0298 43.9017 52.7757C43.9017 52.5089 43.6327 52.0843 43.0335 51.4055C42.5559 50.8646 42.1652 50.3672 42.1652 50.3003C42.1652 50.2333 42.571 49.3639 43.0669 48.3682L43.9687 46.5579H45.0919H46.2151L46.6681 47.1729ZM34.5607 51.5502C34.5237 51.7094 33.9729 55.3234 33.3368 59.5813C32.7008 63.8392 32.1466 67.4694 32.1054 67.6486C32.0311 67.971 32.0054 67.9741 29.5008 67.9741C28.1095 67.9741 26.9695 67.9578 26.9674 67.938C26.9652 67.9181 26.3949 64.1576 25.7 59.5813L24.4365 51.2608H29.5323C34.5539 51.2608 34.627 51.265 34.5607 51.5502ZM50.7974 56.3268C50.9918 56.4541 51.2775 56.7664 51.4327 57.0206C52.1866 58.257 51.2409 59.8697 49.7622 59.8697C48.2315 59.8697 47.3037 58.2094 48.1372 56.9619C48.7694 56.0153 49.9075 55.7437 50.7974 56.3268Z" fill="#1B294A"/>
</svg>
