<svg width="71" height="70" viewBox="0 0 71 70" fill="none" xmlns="http://www.w3.org/2000/svg">
<path fill-rule="evenodd" clip-rule="evenodd" d="M48.8109 3.97086V7.94172L49.8021 7.90152L50.7934 7.86133L50.8303 4.95605L50.8672 2.05078H53.7355H56.6039V1.02539V0H52.7074H48.8109V3.97086ZM62.0726 1.02539V2.05078H65.0121H67.9516V4.99625V7.94172L68.9428 7.90152L69.934 7.86133L69.9702 3.93066L70.0066 0H66.0395H62.0726V1.02539ZM5.33901 0.492324C2.75147 1.18768 0.54454 3.67391 0.13288 6.35742C-0.579425 11.0008 3.52788 15.1398 8.20927 14.496C10.9538 14.1187 13.4496 11.9062 14.1457 9.2333C14.4077 8.22746 14.4169 6.59121 14.1656 5.64785C13.5129 3.19621 11.4308 1.12205 8.9574 0.459785C8.069 0.221895 6.28551 0.237891 5.33901 0.492324ZM9.33146 2.76227C10.332 3.22848 11.4008 4.29639 11.8711 5.29977C12.1892 5.97844 12.2386 6.25871 12.2386 7.38281C12.2386 8.52482 12.1912 8.78432 11.8457 9.5323C10.9091 11.5601 8.6413 12.7904 6.48675 12.4398C2.36358 11.7688 0.680712 6.78576 3.58503 3.8474C4.65116 2.76855 5.80398 2.31848 7.38513 2.36373C8.31154 2.39012 8.70638 2.47105 9.33146 2.76227ZM5.98158 5.84678L4.37719 7.45541L5.98705 9.06104L7.5969 10.6667L8.31141 9.94328L9.02576 9.2199L8.20544 8.4082C7.75427 7.96168 7.38513 7.53471 7.38513 7.4591C7.38513 7.38363 7.76768 6.93588 8.23512 6.4642L9.08495 5.6067L8.41107 4.92242C8.04043 4.54617 7.70314 4.23828 7.66157 4.23828C7.62001 4.23828 6.86396 4.96207 5.98158 5.84678ZM15.5883 8.13477V9.16016H16.6136H17.639V8.13477V7.10938H16.6136H15.5883V8.13477ZM19.718 8.10059L19.7582 9.0918L20.8177 9.13172L21.8773 9.17164V11.285V13.3984H22.9027H23.9281V10.2539V7.10938H21.803H19.6778L19.718 8.10059ZM58.3812 8.33383V9.57031H57.1508H55.9203V10.5957V11.6211H57.1508H58.3812V12.8576V14.0941L59.3725 14.0539L60.3637 14.0137L60.4032 12.8174L60.4427 11.6211H61.5995H62.7562V10.5957V9.57031H61.5995H60.4427L60.4032 8.37402L60.3637 7.17773L59.3725 7.13754L58.3812 7.09734V8.33383ZM34.1667 13.4214C31.4305 15.9154 29.1714 18.0067 29.1467 18.0685C29.1218 18.1304 29.4057 18.4998 29.7776 18.8897L30.4537 19.5985L35.191 15.2679L39.9283 10.9375H41.2934H42.6586V9.91211V8.88672H40.9001H39.1416L34.1667 13.4214ZM44.7094 9.91211V10.9375H45.6664H46.6234V9.91211V8.88672H45.6664H44.7094V9.91211ZM48.8109 17.2949V21.1914H52.7074H56.6039V20.166V19.1406H53.7328H50.8617V16.2695V13.3984H49.8363H48.8109V17.2949ZM67.9516 16.2695V19.1406H65.0121H62.0726V20.166V21.1914H66.0375H70.0023V17.2949V13.3984H68.9769H67.9516V16.2695ZM15.9623 16.8148C14.621 17.0976 12.8539 17.7293 12.8539 17.926C12.8539 17.9968 13.038 18.4194 13.2631 18.8653L13.6723 19.676L14.5447 19.3476C16.0501 18.7809 17.5075 18.5542 19.2229 18.62C20.9699 18.6869 20.8169 18.7905 20.9959 17.4178L21.0868 16.7203L20.5592 16.6332C19.5465 16.4659 17.1727 16.5596 15.9623 16.8148ZM22.9816 18.0795C22.8255 18.5419 22.6976 18.987 22.6976 19.0684C22.6976 19.1498 23.1116 19.3968 23.6175 19.6172C25.0015 20.2202 26.3914 21.2131 27.474 22.3725L28.4451 23.4124L28.9553 23.0527C29.2357 22.8549 29.6097 22.581 29.7864 22.444L30.1075 22.1952L28.9745 20.9982C27.4489 19.3866 25.7698 18.2172 23.9728 17.5152L23.2654 17.2389L22.9816 18.0795ZM9.70935 19.8784C8.53986 20.8726 7.94923 21.5538 7.04497 22.9518C6.47062 23.8396 5.74451 25.2833 5.74451 25.5373C5.74451 25.6263 7.31882 26.2501 7.54318 26.25C7.5924 26.25 7.81935 25.8513 8.0474 25.3641C8.78951 23.7783 9.85851 22.4182 11.3121 21.2104L12.0297 20.6142L11.4649 19.809C11.1543 19.3662 10.863 19.0046 10.8175 19.0053C10.7719 19.0061 10.2733 19.3989 9.70935 19.8784ZM17.1605 20.7333C16.2399 20.9249 15.725 21.1106 15.725 21.251C15.725 21.3395 15.8494 21.7804 16.0016 22.2307L16.2781 23.0498L17.1767 22.8421L18.0752 22.6346L17.9953 22.1523C17.9514 21.887 17.9148 21.4393 17.914 21.1572C17.9125 20.6247 17.85 20.5896 17.1605 20.7333ZM20.2524 21.7567C20.1638 22.2932 20.1086 22.7456 20.1298 22.7619C20.151 22.7783 20.4527 22.8612 20.8001 22.9461C21.1476 23.0311 21.5219 23.135 21.6316 23.1771C21.7751 23.2322 21.9343 23.0113 22.1966 22.3934C22.3974 21.9204 22.5615 21.4896 22.5613 21.4361C22.5609 21.3358 20.8867 20.7812 20.5841 20.7812C20.4787 20.7812 20.3518 21.1544 20.2524 21.7567ZM12.3781 23.0173L11.5607 23.7489L12.3065 24.4346L13.0523 25.1204L13.7051 24.5701C14.0641 24.2674 14.3578 23.9881 14.3578 23.9494C14.3578 23.8364 13.3391 22.2876 13.264 22.2867C13.2264 22.2861 12.8278 22.6149 12.3781 23.0173ZM24.5331 23.088C24.377 23.2857 24.1042 23.6469 23.9267 23.8909L23.6042 24.3346L24.2456 24.949L24.8869 25.5635L25.6375 24.984C26.0503 24.6652 26.3882 24.3399 26.3885 24.2612C26.389 24.1276 25.7145 23.4447 25.0902 22.9469C24.8343 22.7428 24.7986 22.7518 24.5331 23.088ZM30.2855 24.6092C29.9095 24.8322 29.5553 25.0313 29.4984 25.0515C29.4416 25.0719 29.5754 25.5191 29.7959 26.0452C30.3908 27.4649 30.6532 28.9702 30.6023 30.6713C30.5535 32.298 30.4509 32.1515 31.7704 32.3419C32.2683 32.4138 32.4648 32.3906 32.5544 32.2492C32.775 31.9009 32.6886 28.9842 32.4192 27.6855C32.1211 26.2486 31.3623 24.1981 31.13 24.2015C31.0416 24.2028 30.6615 24.3862 30.2855 24.6092ZM9.73724 26.626C9.5837 26.9832 9.41664 27.4407 9.36592 27.6428C9.28033 27.9843 9.31546 28.0213 9.86767 28.1716C11.0713 28.499 11.1841 28.4592 11.5456 27.5782L11.8702 26.7873L11.0671 26.3819C10.6254 26.1589 10.2084 25.9766 10.1403 25.9766C10.0722 25.9766 9.89077 26.2687 9.73724 26.626ZM56.4672 26.3886C55.336 26.5083 54.4164 26.7639 54.4164 26.959C54.4164 27.0424 54.5497 27.4764 54.7127 27.9233C55.0026 28.7185 55.0181 28.734 55.4304 28.6445C57.1695 28.2673 58.7896 28.3309 60.2161 28.8323C61.1723 29.1684 62.7593 30.2135 63.2886 30.8558L63.69 31.3428L64.4536 30.7464C64.8736 30.4184 65.2172 30.1053 65.2172 30.0505C65.2172 29.8531 64.3364 28.9539 63.5515 28.3499C61.6172 26.8615 58.9581 26.1253 56.4672 26.3886ZM26.8189 26.9438C26.1497 27.252 25.9694 27.3953 26.0352 27.5666C26.0821 27.689 26.1882 28.0581 26.271 28.3868C26.4016 28.9056 26.4689 28.9836 26.7813 28.9784C27.2415 28.9708 28.2905 28.7692 28.3906 28.669C28.484 28.5756 27.8869 26.5193 27.7704 26.5336C27.7251 26.5392 27.2969 26.7237 26.8189 26.9438ZM4.97491 28.54C4.82589 29.6488 4.86678 31.9035 5.05435 32.9242C5.14158 33.3992 5.38426 34.2912 5.59344 34.9066C6.01959 36.1592 5.98637 36.1442 7.14779 35.6124L7.88116 35.2766L7.50571 34.1471C7.02104 32.6893 6.80559 30.7567 6.96828 29.3244C7.03637 28.7238 7.05044 28.195 6.99944 28.1492C6.91632 28.0746 5.44387 27.7539 5.18465 27.7539C5.12736 27.7539 5.03302 28.1077 4.97491 28.54ZM17.9595 28.0316C16.6934 28.2853 15.5807 29.1874 15.0139 30.4199C14.7182 31.0629 14.697 31.3003 14.6547 34.4189L14.6099 37.7344H12.228H9.84607V38.418V39.1016H7.38513H4.92419V40.4656V41.8297L2.49744 41.867L0.0706792 41.9043L0.0352645 49.2938L0 56.6833L1.64171 60.6207L3.28357 64.5579V67.2789V70H4.30896H5.33435V67.0738V64.1478L3.69236 60.21L2.05036 56.2722L2.08591 50.1137L2.12146 43.9551L3.52283 43.9161L4.92419 43.8771V46.1378V48.3984H5.94959H6.97498V44.7706V41.1428L8.37634 41.1817L9.77771 41.2207L9.81421 44.8096L9.85058 48.3984H10.8738H11.8969V44.0918V39.7852H13.264H14.6312V44.0918V48.3984H15.6536H16.676L16.7132 39.8635C16.7497 31.4859 16.7556 31.3214 17.0323 30.9511C17.5474 30.2611 17.99 30.0251 18.7469 30.0364C19.4987 30.0478 19.9359 30.2848 20.4333 30.9509C20.7103 31.3219 20.7159 31.483 20.7532 40.2053L20.7912 49.082H23.385H25.9789V52.7212V56.3604L23.5863 60.1833L21.1937 64.0061V67.0031V70H22.2191H23.2445V67.2943V64.5885L25.6349 60.766L28.0254 56.9434L28.0275 51.9873L28.0297 47.0312H25.4382H22.8467L22.8063 39.0674L22.766 31.1035L22.4504 30.4064C21.6773 28.6985 19.7408 27.6745 17.9595 28.0316ZM51.4482 28.419C49.9519 29.6019 48.66 31.4706 48.0803 33.291C47.7373 34.3684 47.5725 36.1687 47.7174 37.2559C47.7876 37.7822 47.8469 38.2504 47.8494 38.2962C47.8519 38.342 48.2999 38.2755 48.8451 38.1484C49.5607 37.9816 49.8225 37.8634 49.7868 37.7233C49.7596 37.6167 49.7349 36.9756 49.7319 36.2988C49.7255 34.8429 50.0035 33.657 50.6244 32.4918C51.0496 31.6941 52.3572 30.2129 53.0301 29.7667L53.3527 29.5529L52.8398 28.7217C52.5576 28.2645 52.2795 27.8906 52.2218 27.8906C52.164 27.8906 51.8159 28.1284 51.4482 28.419ZM9.12816 30.5825C8.96547 30.625 8.90846 30.7404 8.95016 30.9426C8.98379 31.1064 9.0505 31.5998 9.09836 32.0394C9.17847 32.7745 9.2091 32.8322 9.48158 32.7601C9.64441 32.7171 10.1016 32.6089 10.4975 32.5199L11.2174 32.3579L11.1405 31.8675C11.0983 31.5976 11.0331 31.1769 10.9956 30.9326C10.9275 30.4888 10.9264 30.4883 10.1475 30.5041C9.7185 30.5129 9.25982 30.5482 9.12816 30.5825ZM26.4079 31.9467C26.3223 32.3728 26.2523 32.767 26.2523 32.8228C26.2523 32.9115 27.7998 33.4961 28.0346 33.4961C28.1416 33.4961 28.384 32.6792 28.5054 31.9089L28.594 31.3471L28.0726 31.261C27.7858 31.2137 27.329 31.1742 27.0573 31.1734C26.5662 31.1719 26.5627 31.1761 26.4079 31.9467ZM54.2797 36.2272C54.2797 38.9449 54.3259 41.1428 54.3822 41.1115C54.4385 41.0802 56.392 40.0213 58.723 38.7585C61.0541 37.4957 63.0351 36.3949 63.1254 36.3124C63.248 36.2001 62.1812 35.5567 58.9099 33.7695C56.5011 32.4536 54.474 31.3564 54.4051 31.3314C54.3305 31.3044 54.2797 33.291 54.2797 36.2272ZM65.5219 32.4412C64.8843 32.7629 64.6875 32.9272 64.7544 33.0824C65.0887 33.8584 65.3539 35.2014 65.3539 36.1182C65.3539 37.5163 65.1554 38.4087 64.5686 39.6484C63.9301 40.9976 62.4076 42.5508 61.0946 43.193L60.1848 43.6379L60.4631 44.4801C60.6161 44.9433 60.7838 45.3698 60.8357 45.4278C60.9653 45.5726 62.119 45.0481 63.0297 44.4306C65.1909 42.965 66.7313 40.6416 67.2666 38.0405C67.5378 36.722 67.3828 34.3644 66.9408 33.0859C66.7458 32.522 66.5859 32.0451 66.5853 32.0264C66.5829 31.9371 66.3109 32.0432 65.5219 32.4412ZM34.4554 33.5645V34.5898H37.8734H41.2914V33.5645V32.5391H37.8734H34.4554V33.5645ZM43.3422 33.5645V34.5898H44.3676H45.393V33.5645V32.5391H44.3676H43.3422V33.5645ZM29.8018 34.8291C29.1866 36.3873 28.0844 37.9903 26.8334 39.1463C26.5137 39.4416 26.2523 39.7415 26.2523 39.8129C26.2523 39.8841 26.5099 40.2723 26.8248 40.6755L27.3972 41.4084L28.057 40.8561C29.549 39.6069 31.8104 36.1313 31.8974 34.9538C31.9241 34.5926 31.8693 34.5477 31.1058 34.3063C30.6547 34.1637 30.2466 34.0461 30.1988 34.045C30.1513 34.0439 29.9726 34.3968 29.8018 34.8291ZM11.0868 34.7304C10.6788 34.9552 10.3176 35.1665 10.2841 35.2C10.1894 35.2948 10.8761 36.4008 11.2345 36.7307L11.5551 37.0258L12.288 36.3757L13.0208 35.7256L12.5115 35.0552C12.2315 34.6865 11.9632 34.3705 11.9154 34.3532C11.8676 34.3358 11.4948 34.5056 11.0868 34.7304ZM24.7548 35.4182L24.1818 36.0979L24.5868 36.6085C25.4632 37.7136 25.4455 37.7113 26.2358 36.8246C26.6209 36.3926 26.9359 35.9922 26.9359 35.9349C26.9359 35.8775 26.5742 35.5849 26.132 35.2845L25.328 34.7386L24.7548 35.4182ZM57.8834 35.5372L59.0945 36.2005L58.1569 36.7132C57.641 36.9953 57.0828 37.3097 56.9163 37.4119C56.3739 37.7446 56.3305 37.6571 56.3305 36.2305C56.3305 35.225 56.3757 34.8646 56.5014 34.8685C56.5954 34.8715 57.2172 35.1723 57.8834 35.5372ZM49.5629 40.0816C49.1117 40.3125 48.7197 40.5221 48.6918 40.5472C48.5952 40.6345 49.3713 41.838 50.0504 42.6541C51.7937 44.7487 54.6605 46.0742 57.4477 46.0742H58.658L58.5808 45.4932C58.5383 45.1737 58.4734 44.7122 58.4362 44.4678L58.3688 44.0234L57.3839 44.0218C56.1764 44.0199 55.1919 43.7687 53.9379 43.1428C52.6853 42.5176 51.8427 41.7725 51.0642 40.6016C50.7157 40.0773 50.4198 39.6514 50.4069 39.655C50.3939 39.6587 50.0141 39.8505 49.5629 40.0816ZM29.4811 42.9967C29.1137 43.2507 28.7498 43.5221 28.6722 43.5996C28.5754 43.6964 29.8438 45.7115 32.7227 50.0344L36.9141 56.3281H45.255H53.5961V55.3027V54.2773H45.7978H37.9996L34.0994 48.3984C31.9543 45.165 30.1879 42.5229 30.1741 42.5271C30.1602 42.5312 29.8483 42.7425 29.4811 42.9967ZM63.8021 50.0418C61.6275 50.4195 59.8225 52.415 59.644 54.6388C59.333 58.5141 63.3635 61.3196 66.8578 59.66C68.4411 58.908 69.433 57.6064 69.7322 55.8883C70.3324 52.442 67.2844 49.437 63.8021 50.0418ZM4.78748 52.5V54.5508H5.81287H6.83826V52.5V50.4492H5.81287H4.78748V52.5ZM18.8695 52.1582V53.1836H20.4418H22.014V54.7559V56.3281H23.0394H24.0648V53.7305V51.1328H21.4672H18.8695V52.1582ZM66.2874 52.4543C66.9725 52.8516 67.6166 53.7819 67.7489 54.5654C68.0496 56.3451 66.5554 58.0995 64.7387 58.0995C62.1722 58.0995 60.7346 55.1117 62.3555 53.1465C63.337 51.9567 64.9419 51.6742 66.2874 52.4543ZM55.6469 55.3027V56.3281H56.6039H57.5609V55.3027V54.2773H56.6039H55.6469V55.3027ZM4.78748 57.5586V58.5156H5.81287H6.83826V57.5586V56.6016H5.81287H4.78748V57.5586ZM36.9164 59.4043V60.4297H37.9418H38.9672V59.4043V58.3789H37.9418H36.9164V59.4043ZM41.0179 59.4043V60.4297H48.6742H56.3305V59.4043V58.3789H48.6742H41.0179V59.4043ZM36.9164 63.5059V64.5312H37.9418H38.9672V63.5059V62.4805H37.9418H36.9164V63.5059ZM41.0179 63.5059V64.5312H48.6742H56.3305V63.5059V62.4805H48.6742H41.0179V63.5059ZM17.639 66.4453V68.7695H18.6644H19.6898V66.4453V64.1211H18.6644H17.639V66.4453ZM36.9164 67.6074V68.6328H37.9418H38.9672V67.6074V66.582H37.9418H36.9164V67.6074ZM41.0179 67.6074V68.6328H48.6742H56.3305V67.6074V66.582H48.6742H41.0179V67.6074Z" fill="#1B294A"/>
</svg>
