<svg width="162" height="166" viewBox="0 0 162 166" fill="none" xmlns="http://www.w3.org/2000/svg">
<path d="M95.8747 64.2616C94.1241 67.8104 95.5812 72.1064 99.1299 73.8571C102.679 75.6078 106.975 74.1507 108.725 70.602C110.476 67.0533 109.019 62.7572 105.47 61.0065C103.427 59.9987 101.027 60.0222 99.0051 61.0699L89.3258 51.3905V26.8089L99.0859 17.0487C102.626 18.8248 106.936 17.3941 108.712 13.8536C110.488 10.3131 109.058 6.0032 105.517 4.22716C101.977 2.45113 97.6668 3.88179 95.8908 7.42231C94.8677 9.46174 94.8763 11.8663 95.9135 13.8987L85.5096 24.3026C85.0904 24.7218 84.8546 25.2903 84.8546 25.883V52.3156C84.8546 52.9084 85.0904 53.4769 85.5096 53.8961L95.8747 64.2616ZM102.284 64.7378C103.765 64.7382 104.966 65.9393 104.966 67.4206C104.966 68.902 103.764 70.1028 102.283 70.1028C100.802 70.1024 99.6008 68.9016 99.6008 67.4203C99.6027 65.9393 100.803 64.7393 102.284 64.7378ZM102.284 7.97669C103.765 7.97706 104.966 9.17822 104.966 10.6595C104.966 12.1409 103.764 13.3417 102.283 13.3417C100.802 13.3413 99.6012 12.1409 99.6008 10.6595C99.6027 9.17859 100.803 7.97818 102.284 7.97669Z" fill="#1B294A"/>
<path d="M106.441 151.419V143.499C106.441 142.906 106.205 142.337 105.786 141.918L94.147 130.279V126.635C97.9256 125.461 100.036 121.445 98.8611 117.667C97.686 113.889 93.6709 111.778 89.8927 112.953C86.1141 114.128 84.0035 118.143 85.1786 121.921C85.8548 124.096 87.5242 125.819 89.6762 126.564V131.205C89.6762 131.798 89.912 132.366 90.3312 132.785L101.97 144.424V151.391C98.2073 152.602 96.138 156.634 97.3489 160.397C98.5597 164.16 102.592 166.229 106.355 165.018C110.118 163.808 112.187 159.776 110.976 156.012C110.28 153.848 108.596 152.143 106.441 151.419ZM92.0081 122.492C90.5268 122.491 89.326 121.29 89.326 119.809C89.326 118.327 90.5275 117.127 92.0088 117.127C93.4902 117.127 94.691 118.328 94.691 119.809C94.6895 121.29 93.4891 122.49 92.0081 122.492ZM104.167 160.878C102.686 160.878 101.484 159.677 101.484 158.196C101.484 156.715 102.686 155.513 104.167 155.513C105.648 155.513 106.849 156.715 106.849 158.196C106.847 159.677 105.648 160.877 104.167 160.878Z" fill="#1B294A"/>
<path d="M92.0073 89.6693C93.1608 89.6693 94.2971 89.3888 95.318 88.8512L117.886 111.418C118.305 111.837 118.873 112.073 119.466 112.073H129.068C130.302 115.826 134.346 117.867 138.098 116.632C141.851 115.398 143.892 111.355 142.658 107.602C141.423 103.849 137.38 101.808 133.627 103.043C131.47 103.752 129.778 105.445 129.068 107.602H120.391L98.4315 85.643C100.155 82.0917 98.6733 77.8157 95.122 76.0922C91.5707 74.3687 87.2947 75.8504 85.5712 79.4017C83.8477 82.953 85.3294 87.229 88.8807 88.9525C89.8554 89.4253 90.9243 89.6704 92.0073 89.6693ZM135.859 107.155C137.341 107.156 138.541 108.357 138.541 109.838C138.541 111.32 137.34 112.52 135.859 112.52C134.377 112.52 133.176 111.319 133.176 109.838C133.178 108.357 134.378 107.157 135.859 107.155ZM92.0073 79.8335C93.4887 79.8335 94.6898 81.0347 94.6898 82.516C94.6898 83.9974 93.4887 85.1985 92.0073 85.1985C90.526 85.1985 89.3252 83.9977 89.3248 82.5164C89.3267 81.0354 90.5267 79.8354 92.0073 79.8335Z" fill="#1B294A"/>
<path d="M119.243 137.903V125.822C119.243 125.229 119.007 124.661 118.588 124.242L98.6079 104.262C100.155 100.599 98.4403 96.3755 94.7776 94.8286C91.1148 93.2817 86.8914 94.9962 85.3445 98.6589C83.7976 102.322 85.5122 106.545 89.1749 108.092C91.287 108.984 93.6975 108.817 95.6661 107.642L114.772 126.748V138.171C111.099 139.63 109.304 143.79 110.763 147.463C112.222 151.137 116.382 152.932 120.056 151.473C123.729 150.014 125.524 145.853 124.065 142.18C123.227 140.07 121.437 138.483 119.243 137.903ZM92.0075 104.189C90.5262 104.188 89.3254 102.987 89.3254 101.506C89.3254 100.024 90.5269 98.8236 92.0083 98.8236C93.4896 98.824 94.6904 100.025 94.6904 101.506C94.6889 102.987 93.4885 104.187 92.0075 104.189ZM117.417 147.493C115.936 147.493 114.735 146.292 114.735 144.81C114.735 143.329 115.936 142.128 117.417 142.128C118.899 142.128 120.1 143.329 120.1 144.81C120.098 146.291 118.898 147.491 117.417 147.493Z" fill="#1B294A"/>
<path d="M108.277 35.0209C107.079 31.2524 103.053 29.1686 99.2848 30.3664C95.5163 31.5642 93.4325 35.5902 94.6303 39.3587C95.8281 43.1272 99.8541 45.211 103.623 44.0132C105.791 43.3239 107.502 41.6459 108.233 39.4917H116.493C117.022 39.4917 117.533 39.3047 117.936 38.9634L129.654 29.0587C133.155 30.9439 137.522 29.6336 139.407 26.1322C141.292 22.6308 139.982 18.2643 136.481 16.3791C132.979 14.4939 128.613 15.8042 126.727 19.3056C125.64 21.3257 125.58 23.7433 126.567 25.8147L115.675 35.0209H108.277ZM101.464 39.8792C99.983 39.8788 98.7823 38.6776 98.7823 37.1963C98.7826 35.715 99.9838 34.5142 101.465 34.5142C102.946 34.5146 104.147 35.7154 104.147 37.1967C104.145 38.6773 102.945 39.8773 101.464 39.8792ZM133.021 20.0679C134.503 20.0683 135.703 21.2694 135.703 22.7507C135.703 24.2321 134.502 25.4329 133.02 25.4329C131.539 25.4325 130.338 24.2317 130.338 22.7504C130.34 21.2694 131.54 20.0694 133.021 20.0679Z" fill="#1B294A"/>
<path d="M133.347 39.6541C133.348 40.7212 133.59 41.774 134.054 42.7345L114.023 62.7656C113.604 63.1848 113.368 63.7533 113.368 64.3461V77.2269C109.615 78.4615 107.574 82.5047 108.808 86.2572C110.043 90.01 114.086 92.0513 117.839 90.8166C121.592 89.582 123.633 85.5388 122.398 81.7863C121.689 79.6288 119.996 77.9366 117.839 77.2269V65.2719L137.143 45.9673C140.631 47.8201 144.96 46.4945 146.813 43.0069C148.666 39.5189 147.34 35.1897 143.853 33.3369C140.365 31.4841 136.035 32.8097 134.183 36.2973C133.634 37.3312 133.347 38.4839 133.347 39.6541ZM118.286 84.018C118.285 85.4993 117.084 86.7001 115.603 86.7001C114.122 86.7001 112.921 85.4986 112.921 84.0173C112.921 82.5359 114.122 81.3352 115.603 81.3352C117.084 81.337 118.284 82.5371 118.286 84.018ZM140.5 36.972C141.982 36.972 143.183 38.1732 143.183 39.6545C143.183 41.1358 141.982 42.337 140.5 42.337C139.019 42.337 137.818 41.1358 137.818 39.6545C137.82 38.1739 139.019 36.9739 140.5 36.972Z" fill="#1B294A"/>
<path d="M154.844 71.5372C150.893 71.5379 147.691 74.7409 147.692 78.6916C147.692 81.8197 149.725 84.5849 152.711 85.5182V117.107L136.832 132.986C133.463 130.916 129.054 131.968 126.983 135.337C124.912 138.706 125.965 143.115 129.333 145.186C132.702 147.257 137.112 146.204 139.183 142.836C140.371 140.902 140.572 138.52 139.726 136.415L156.527 119.613C156.947 119.194 157.182 118.626 157.182 118.033V85.4429C160.914 84.1546 162.895 80.0846 161.607 76.353C160.611 73.4693 157.895 71.535 154.844 71.5372ZM133.09 141.754C131.608 141.754 130.407 140.553 130.407 139.071C130.407 137.59 131.608 136.389 133.09 136.389C134.571 136.389 135.772 137.59 135.772 139.071C135.771 140.552 134.571 141.752 133.09 141.754ZM154.844 81.3726C153.363 81.3722 152.162 80.1711 152.162 78.6898C152.162 77.2084 153.364 76.0076 154.845 76.0076C156.326 76.008 157.527 77.2088 157.527 78.6901C157.525 80.1711 156.325 81.3711 154.844 81.3726Z" fill="#1B294A"/>
<path d="M144.568 56.5121H140.603C140.01 56.5121 139.442 56.7479 139.022 57.1671L127.684 68.5058C127.265 68.9249 127.029 69.4935 127.029 70.0862V86.9285C123.276 88.1632 121.235 92.2063 122.469 95.9588C123.704 99.7117 127.747 101.753 131.5 100.518C135.252 99.2836 137.294 95.2405 136.059 91.488C135.349 89.3305 133.657 87.6383 131.5 86.9285V71.0117L141.528 60.9829H144.385C145.466 64.7853 149.426 66.9909 153.228 65.9097C157.03 64.8286 159.236 60.8693 158.155 57.0672C157.073 53.2648 153.114 51.0592 149.312 52.1404C147.127 52.7622 145.366 54.3844 144.568 56.5121ZM131.947 93.7197C131.947 95.201 130.746 96.4018 129.264 96.4018C127.783 96.4018 126.582 95.2003 126.582 93.719C126.583 92.238 127.783 91.0372 129.264 91.0368C130.745 91.0383 131.945 92.2387 131.947 93.7197ZM151.258 56.3385C152.74 56.3385 153.941 57.5396 153.941 59.021C153.941 60.5023 152.74 61.7035 151.258 61.7035C149.777 61.7035 148.576 60.5023 148.576 59.021C148.577 57.54 149.777 56.3403 151.258 56.3385Z" fill="#1B294A"/>
<path d="M44.5811 154.429C48.7468 163.88 59.7849 168.163 69.2355 163.998C76.0154 161.009 80.3916 154.299 80.3927 146.89V19.0238C80.3812 8.70252 72.017 0.338365 61.6958 0.326815C53.0675 0.291794 45.5472 6.19252 43.5286 14.5813C42.8923 14.4285 42.1673 14.2914 41.364 14.2009C40.5146 14.1051 39.7374 14.079 39.053 14.0906C27.7515 14.1033 18.5934 23.2617 18.5808 34.5632C18.5793 35.2893 18.6165 36.1026 18.7212 36.9853C18.8415 37.9975 19.0271 38.904 19.2313 39.6882C11.8935 42.4225 7.01215 49.41 6.9693 57.2407C6.99389 57.9705 7.05201 58.7652 7.16006 59.6135C7.26028 60.4019 7.39067 61.134 7.5356 61.8042C7.87054 63.1578 8.35711 64.4696 8.98638 65.714C-0.162023 71.8163 -2.74243 84.1192 3.18327 93.3831C3.65047 94.2035 4.31587 95.2016 5.24841 96.2239C6.26142 97.3346 7.27928 98.1333 8.10489 98.69C1.53279 106.651 2.65869 118.433 10.6197 125.005C12.7642 126.775 15.2768 128.045 17.9742 128.721C17.8967 129.176 17.8319 129.679 17.7931 130.223C17.7518 130.803 17.7462 131.341 17.7615 131.828C17.7753 144.487 28.0335 154.746 40.6927 154.76C41.3003 154.778 41.9817 154.765 42.722 154.699C43.4023 154.638 44.0249 154.541 44.5811 154.429ZM40.6919 150.289C30.5011 150.278 22.2427 142.019 22.2315 131.828C22.2319 131.363 22.2502 130.867 22.2934 130.344C22.3195 130.027 22.353 129.723 22.3921 129.432C23.6048 120.248 31.4284 113.38 40.6919 113.368C41.9266 113.368 42.9273 112.367 42.9273 111.132C42.9273 109.898 41.9266 108.897 40.6919 108.897C30.912 108.91 22.2129 115.115 19.0167 124.358C11.4111 122.432 6.80611 114.706 8.73192 107.1C9.30903 104.82 10.4427 102.72 12.0318 100.986C22.2394 105.498 34.1716 100.881 38.6834 90.6734C38.7967 90.4175 38.9043 90.1593 39.0068 89.8988C39.4583 88.7499 38.8932 87.4522 37.7442 87.0006C36.5952 86.5491 35.2975 87.1143 34.8459 88.2633C31.6687 96.3491 22.5382 100.329 14.452 97.1513C13.322 96.7161 11.7039 95.9412 10.0642 94.5589C8.69205 93.4025 7.75728 92.2017 7.14888 91.2815C2.30512 84.0857 4.21193 74.3259 11.4077 69.4825C11.4308 69.4669 11.4543 69.4512 11.4777 69.4356C13.1368 71.358 15.1688 72.9243 17.4504 74.0394C18.5591 74.5822 19.8981 74.1236 20.441 73.0148C20.9838 71.9061 20.5252 70.567 19.4164 70.0242C16.1643 68.4453 13.6398 65.6812 12.3611 62.2998C12.107 61.6161 11.8529 60.776 11.6759 59.7998C11.5008 58.833 11.4435 57.9649 11.4401 57.2407C11.4748 51.2628 15.2183 45.9355 20.8307 43.877C22.315 46.7845 24.4718 49.2957 27.1222 51.2017C28.1174 51.9323 29.5164 51.7177 30.247 50.7226C30.9776 49.7275 30.763 48.3285 29.7678 47.5979C29.7556 47.5885 29.7429 47.5796 29.7302 47.571C27.1699 45.7287 25.2091 43.1729 24.0929 40.2225C23.787 39.4938 23.4636 38.5437 23.258 37.4048C23.0594 36.3057 23.0255 35.3352 23.0512 34.5639C23.0613 25.7304 30.2198 18.5722 39.053 18.5622C39.8197 18.5581 40.7351 18.6106 41.753 18.7872C42.6308 18.9396 43.402 19.1523 44.0521 19.3729C50.61 21.536 55.0443 27.658 55.0548 34.5636C55.0548 35.7983 56.0555 36.799 57.2902 36.799C58.5249 36.799 59.5256 35.7983 59.5256 34.5636C59.5178 26.6446 54.949 19.4384 47.7897 16.0537C49.4279 8.37168 56.9836 3.47203 64.6659 5.11059C71.2313 6.5107 75.9238 12.3112 75.9219 19.0241L75.9215 44.6747H57.0927C51.3757 44.6687 46.7424 40.0355 46.7365 34.3184C46.7365 33.0837 45.7357 32.083 44.501 32.083C43.2664 32.083 42.2656 33.0837 42.2656 34.3184C42.275 42.5034 48.9081 49.1362 57.0927 49.1455H75.9223V74.1914H35.372C27.1871 74.2007 20.5546 80.8335 20.5449 89.0185C20.5449 90.2532 21.5456 91.2539 22.7803 91.2539C24.015 91.2539 25.0157 90.2532 25.0157 89.0185C25.0221 83.3014 29.655 78.6685 35.372 78.6622H75.9215V146.89C75.9204 154.748 69.5492 161.117 61.6913 161.116C56.2876 161.115 51.3507 158.053 48.9488 153.213C52.2326 151.947 55.1818 149.943 57.5677 147.355C58.4038 146.447 58.3449 145.033 57.4366 144.197C56.5283 143.361 55.1144 143.42 54.2783 144.328C51.7285 147.091 48.3977 149.012 44.7298 149.835C44.1184 149.955 43.4545 150.062 42.7425 150.143C42.0138 150.225 41.3275 150.27 40.6919 150.289Z" fill="#1B294A"/>
<path d="M58.9293 63.4887H70.1399C71.3746 63.4887 72.3753 62.488 72.3753 61.2533C72.3753 60.0186 71.3746 59.0179 70.1399 59.0179H58.9293C57.6946 59.0179 56.6939 60.0186 56.6939 61.2533C56.6939 62.488 57.6946 63.4887 58.9293 63.4887Z" fill="#1B294A"/>
<path d="M38.3539 46.4272C37.1193 46.4272 36.1185 47.4279 36.1185 48.6626C36.1278 56.8475 42.7607 63.48 50.9456 63.4897C52.1803 63.4897 53.181 62.4889 53.181 61.2543C53.181 60.0196 52.1803 59.0188 50.9456 59.0188C45.2286 59.0125 40.5957 54.3796 40.5894 48.6626C40.5894 47.4279 39.5883 46.4272 38.3539 46.4272Z" fill="#1B294A"/>
<path d="M56.6939 127.025C56.6939 128.26 57.6946 129.261 58.9293 129.261H70.1399C71.3746 129.261 72.3753 128.26 72.3753 127.025C72.3753 125.791 71.3746 124.79 70.1399 124.79H58.9293C57.6946 124.79 56.6939 125.791 56.6939 127.025Z" fill="#1B294A"/>
<path d="M36.1185 139.617C36.1185 140.852 37.1193 141.852 38.3539 141.852C39.5886 141.852 40.5894 140.852 40.5894 139.617C40.5957 133.9 45.2286 129.267 50.9456 129.261C52.1803 129.261 53.181 128.26 53.181 127.025C53.181 125.791 52.1803 124.79 50.9456 124.79C42.7607 124.799 36.1278 131.432 36.1185 139.617Z" fill="#1B294A"/>
<path d="M54.5933 109.417C53.3586 109.417 52.3579 110.418 52.3579 111.653C52.3579 112.888 53.3586 113.888 54.5933 113.888C62.3919 113.883 68.7096 107.557 68.7043 99.7586C68.6991 91.9675 62.3845 85.6528 54.5933 85.6476C53.3586 85.6476 52.3579 86.6484 52.3579 87.883C52.3579 89.1177 53.3586 90.1185 54.5933 90.1185C59.9225 90.1147 64.2458 94.432 64.2495 99.7613C64.2533 105.09 59.936 109.414 54.6067 109.417H54.5933Z" fill="#1B294A"/>
</svg>
