<svg width="1141" height="413" viewBox="0 0 1141 413" fill="none" xmlns="http://www.w3.org/2000/svg">
<path d="M72.3446 198.292C69.3739 204.408 65.3548 209.038 60.2872 212.183C55.3943 215.153 49.5403 216.638 42.7252 216.638C29.0951 216.638 18.523 211.135 11.009 200.127C3.66965 189.119 0 173.307 0 152.689C0 110.93 12.9312 75.1116 38.7935 45.2338C64.8305 15.3559 96.0226 0.416992 132.37 0.416992C157.358 0.416992 176.842 6.61971 190.822 19.0251C204.976 31.4306 212.054 48.6409 212.054 70.6562C212.054 82.7122 209.869 98.4373 205.501 117.832C201.132 137.226 194.142 161.95 184.531 192.002C223.849 121.938 256.876 72.9276 283.612 44.9717C310.348 17.0158 336.734 3.03786 362.771 3.03786C378.324 3.03786 390.381 7.93014 398.944 17.7147C407.681 27.4993 412.05 41.2151 412.05 58.8623C412.05 80.7028 398.332 121.85 370.897 182.305L364.868 195.147C410.477 125.258 448.746 75.3737 479.676 45.4959C510.781 15.4433 539.264 0.416992 565.127 0.416992C579.456 0.416992 591.164 5.30927 600.25 15.0938C609.512 24.7037 614.143 37.1091 614.143 52.3101C614.143 73.9759 599.464 119.579 570.107 189.119L563.03 205.893L558.836 216.114C529.479 286.528 514.8 328.2 514.8 341.129C514.8 353.011 518.819 361.747 526.857 367.338C534.896 372.755 548.002 375.725 566.175 376.249L555.952 411.369H548.089C513.489 411.369 488.239 405.69 472.337 394.333C456.61 382.801 448.746 364.717 448.746 340.081C448.746 318.415 466.133 267.134 500.908 186.236C508.247 169.288 513.926 156.184 517.945 146.923L520.567 140.895C535.944 104.553 543.633 82.188 543.633 73.8012C543.633 69.9573 542.41 66.7249 539.963 64.104C537.517 61.3084 534.634 59.9106 531.313 59.9106C517.858 59.9106 492.869 81.9259 456.348 125.956C420.001 169.812 387.236 221.181 358.053 280.063C348.792 298.235 339.88 316.93 331.317 336.15C322.929 355.195 314.979 374.589 307.465 394.333C304.494 402.196 300.737 407.175 296.193 409.272C291.825 411.369 284.66 412.417 274.7 412.417C259.672 412.417 248.575 411.107 241.411 408.486C234.246 406.04 230.664 402.196 230.664 396.954C230.664 393.984 237.129 378.171 250.061 349.516C260.196 326.627 268.584 307.582 275.224 292.381C299.688 236.12 318.736 189.381 332.366 152.165C346.171 114.949 353.073 91.361 353.073 81.4017C353.073 75.9853 351.5 71.5298 348.355 68.0353C345.21 64.3661 341.278 62.5315 336.56 62.5315C319.784 62.5315 296.543 82.1006 266.836 121.239C237.129 160.202 208.296 210.086 180.337 270.89C169.853 293.779 159.368 319.289 148.883 347.419C138.398 375.55 132.37 391.363 130.797 394.857C127.302 402.894 123.545 407.787 119.526 409.534C115.507 411.456 107.468 412.417 95.411 412.417C83.0041 412.417 73.3931 411.107 66.578 408.486C59.7629 405.865 56.3554 402.196 56.3554 397.478C56.3554 392.586 62.821 374.676 75.7521 343.75C88.6833 312.824 99.3428 286.179 107.731 263.814C121.535 227.995 132.457 194.186 140.495 162.386C148.708 130.587 152.815 107.348 152.815 92.6714C152.815 80.6155 149.844 71.3551 143.903 64.8903C138.136 58.2508 129.836 54.931 119.002 54.931C100.828 54.931 85.1884 64.1914 72.0825 82.7122C58.9766 101.058 52.4236 122.986 52.4236 148.496C52.4236 159.329 54.1711 169.288 57.666 178.374C61.3356 187.285 66.2285 193.924 72.3446 198.292Z" fill="#1A88FE"/>
<path d="M685.439 329.86C703.612 317.978 718.903 301.991 731.309 281.898C743.716 261.63 749.92 243.983 749.92 228.956C749.92 221.443 748.085 215.765 744.415 211.921C740.746 207.902 735.416 205.893 728.426 205.893C713.922 205.893 701.078 214.454 689.895 231.577C678.711 248.526 673.119 268.269 673.119 290.809C673.119 299.37 674.08 306.796 676.003 313.086C677.925 319.202 681.07 324.793 685.439 329.86ZM658.441 385.16C641.49 393.197 624.54 399.4 607.59 403.768C590.465 408.136 573.252 410.67 555.952 411.369L566.437 375.987C578.495 375.113 589.678 373.453 599.988 371.007C610.123 368.561 619.997 365.241 629.608 361.048C622.967 352.312 618.074 342.353 614.929 331.17C611.784 319.988 610.211 306.883 610.211 291.857C610.211 256.912 622.094 226.51 645.859 200.651C669.799 174.792 698.02 161.862 730.523 161.862C748.697 161.862 763.026 167.366 773.51 178.374C784.17 189.207 789.5 204.058 789.5 222.928C789.5 243.546 781.898 266.347 766.695 291.333C751.667 316.144 731.572 338.072 706.408 357.117C713.747 363.931 721.698 368.823 730.261 371.794C738.998 374.589 749.658 375.987 762.239 375.987H765.909L755.686 411.369H748.609C729.038 411.369 711.825 409.272 696.972 405.079C682.119 400.71 669.275 394.071 658.441 385.16Z" fill="#1A88FE"/>
<path d="M755.686 411.369L765.909 375.987C775.52 375.463 784.17 374.24 791.859 372.318C799.373 370.396 806.188 367.688 812.304 364.193C811.43 360.174 810.731 356.068 810.207 351.875C809.857 347.507 809.683 342.702 809.683 337.46C809.683 317.367 813.527 297.361 821.216 277.442C828.905 257.524 839.739 239.353 853.719 222.928C870.844 202.835 889.104 187.634 908.501 177.325C927.898 167.017 947.906 161.862 968.526 161.862C976.739 161.862 984.603 162.911 992.117 165.007C999.631 166.929 1007.49 169.987 1015.71 174.18L1056.6 60.959C1057.82 57.6392 1059.48 52.8343 1061.58 46.5442C1071.36 18.2389 1084.91 4.0862 1102.21 4.0862C1116.19 4.0862 1126.15 5.484 1132.09 8.27959C1138.03 11.0752 1141 15.7927 1141 22.4323C1141 25.5773 1138.47 32.4789 1133.4 43.1371C1130.08 49.9513 1127.54 55.3678 1125.8 59.3865L1078.62 168.414C1061.32 208.077 1047.16 245.555 1036.15 280.85C1025.14 316.144 1019.64 338.945 1019.64 349.254C1019.64 358.514 1022.26 365.067 1027.5 368.911C1032.92 372.755 1043.32 375.201 1058.69 376.249L1048.47 411.369H1043.75C1016.32 411.369 997.01 408.486 985.826 402.72C974.642 396.954 969.05 387.169 969.05 373.366C969.05 367.251 970.099 359.738 972.196 350.827C974.293 341.916 977.788 330.471 982.681 316.493C964.682 348.817 946.421 372.929 927.898 388.829C909.55 404.554 890.328 412.417 870.232 412.417C860.271 412.417 851.272 410.757 843.234 407.437C835.195 403.943 829.342 399.4 825.672 393.809C818.682 398.876 809.508 402.895 798.15 405.865C786.791 408.66 772.637 410.495 755.686 411.369ZM1001.82 211.135C998.67 209.737 995.612 208.688 992.641 207.99C989.67 207.291 986.7 206.941 983.729 206.941C971.147 206.941 958.391 211.135 945.46 219.521C932.704 227.908 919.86 240.401 906.928 257C895.745 271.152 886.658 286.266 879.668 302.341C872.678 318.415 869.184 331.694 869.184 342.178C869.184 350.04 871.106 356.33 874.95 361.048C878.795 365.591 883.862 367.862 890.153 367.862C905.356 367.862 922.568 354.321 941.79 327.239C961.187 300.157 981.195 261.455 1001.82 211.135Z" fill="#1A88FE"/>
</svg>
