<svg width="1179" height="425" viewBox="0 0 1179 425" fill="none" xmlns="http://www.w3.org/2000/svg">
<path d="M171.91 368.669C177.501 369.192 182.392 369.629 186.585 369.977C190.953 370.152 194.622 370.239 197.592 370.239C215.062 370.239 230.873 366.139 245.024 357.938C259.176 349.563 271.667 337.087 282.499 320.511C300.493 292.768 314.819 262.233 325.476 228.906C336.133 195.405 341.462 164.695 341.462 136.777C341.462 119.154 337.968 105.108 330.979 94.6392C323.991 84.1701 313.16 76.9289 298.484 72.9158C283.46 101.357 263.543 149.253 238.735 216.605C214.101 283.782 191.827 334.47 171.91 368.669ZM146.753 399.291C136.969 407.317 125.788 413.512 113.209 417.874C100.805 422.236 87.7894 424.417 74.1623 424.417C58.2641 424.417 46.0348 421.712 37.4742 416.303C29.0884 411.069 24.8955 403.479 24.8955 393.533C24.8955 382.191 30.0492 373.467 40.3569 367.36C50.6645 361.079 65.1651 357.938 83.8586 357.938C89.4491 357.938 95.2144 358.287 101.154 358.985C107.094 359.683 113.821 360.817 121.333 362.387C127.448 349.475 142.647 309.518 166.931 242.516C191.215 175.513 216.984 117.933 244.238 69.775H243.19C227.467 69.775 210.345 74.5734 191.827 84.1701C173.482 93.7668 155.226 107.551 137.056 125.523C109.278 152.394 87.1779 181.969 70.7556 214.249C54.508 246.529 46.3842 276.017 46.3842 302.713C46.3842 305.854 46.6463 311.001 47.1704 318.155C47.1704 319.377 47.2578 320.336 47.4325 321.034C45.1613 322.605 42.8027 323.739 40.3569 324.437C37.911 324.96 35.0284 325.222 31.709 325.222C21.2267 325.222 13.2775 321.907 7.86162 315.276C2.62046 308.471 0 298.438 0 285.177C0 252.898 8.7352 219.222 26.2058 184.15C43.6763 149.079 67.1743 118.195 96.6995 91.4985C122.206 68.8153 147.888 52.4137 173.745 42.2935C199.776 31.9989 228.515 26.8516 259.962 26.8516H269.658L276.995 11.6713C278.917 7.65814 282.237 4.77913 286.954 3.03428C291.845 1.28942 299.445 0.416992 309.753 0.416992C316.217 0.416992 321.109 1.20218 324.428 2.77255C327.922 4.34292 329.669 6.61123 329.669 9.57749C329.669 11.1479 328.883 13.6779 327.311 17.1676C325.913 20.6573 322.768 27.1133 317.877 36.5355C344.432 44.2129 364.698 59.2186 378.674 81.5528C392.825 103.887 399.901 132.066 399.901 166.091C399.901 192.613 395.009 221.49 385.226 252.723C375.442 283.782 362.077 312.31 345.131 338.308C329.407 362.562 310.364 381.232 288.002 394.318C265.814 407.23 241.792 413.686 215.936 413.686C205.104 413.686 193.923 412.465 182.393 410.022C170.862 407.754 158.982 404.177 146.753 399.291Z" fill="#1A88FE"/>
<path d="M629.464 219.745C624.747 216.081 620.03 213.377 615.313 211.632C610.77 209.887 606.141 209.015 601.424 209.015C591.116 209.015 579.236 213.464 565.784 222.363C552.506 231.261 539.753 243.388 527.523 258.743C516.342 272.876 507.432 287.882 500.793 303.76C494.329 319.464 491.097 333.248 491.097 345.113C491.097 353.663 492.582 360.032 495.552 364.219C498.522 368.233 503.064 370.239 509.179 370.239C526.3 370.239 545.081 357.502 565.522 332.027C585.962 306.552 607.276 269.125 629.464 219.745ZM602.734 318.94C584.04 352.093 565.522 376.346 547.177 391.701C528.833 407.056 509.179 414.733 488.214 414.733C478.256 414.733 469.521 413.337 462.009 410.545C454.671 407.754 448.906 403.653 444.713 398.244C435.977 402.955 426.019 406.619 414.838 409.237C403.657 411.68 390.554 413.163 375.529 413.686L386.012 378.353C395.62 377.829 404.268 376.608 411.955 374.689C419.468 372.769 426.281 370.065 432.396 366.575C431.697 362.911 431.173 359.159 430.824 355.321C430.474 351.307 430.3 347.033 430.3 342.496C430.3 328.014 433.444 312.223 439.733 295.123C446.023 277.849 454.846 260.924 466.202 244.348C483.672 219.222 502.977 200.116 524.116 187.029C545.43 173.768 567.443 167.138 590.155 167.138C601.511 167.138 611.294 168.796 619.506 172.111C627.717 175.426 635.491 180.748 642.829 188.076L646.498 176.298C648.769 169.145 651.04 164.608 653.311 162.689C655.582 160.769 658.902 159.81 663.269 159.81C675.324 159.81 685.806 161.903 694.716 166.091C703.801 170.104 708.343 174.903 708.343 180.486C708.343 182.231 704.587 190.432 697.075 205.089C689.562 219.745 682.924 233.704 677.158 246.965C665.628 273.312 656.892 295.908 650.952 314.753C645.187 333.423 642.305 347.818 642.305 357.938C642.305 364.917 644.489 369.803 648.856 372.595C653.224 375.212 663.182 377.219 678.731 378.615L668.51 413.686H663.793C636.365 413.686 617.06 410.807 605.879 405.049C594.697 399.291 589.107 389.52 589.107 375.736C589.107 369.629 590.155 362.126 592.252 353.227C594.348 344.328 597.842 332.899 602.734 318.94Z" fill="#1A88FE"/>
<path d="M668.51 413.686L678.469 378.353C698.036 376.433 713.235 369.89 724.067 358.723C735.073 347.382 744.769 326.792 753.155 296.955L775.168 219.222H749.748C745.905 219.222 743.284 218.786 741.887 217.913C740.489 216.866 739.79 215.122 739.79 212.679C739.79 212.33 739.79 211.894 739.79 211.37C739.965 210.847 740.314 209.8 740.838 208.229L745.031 195.666C746.08 192.351 747.827 190.083 750.272 188.861C752.893 187.64 757.96 187.029 765.472 187.029H784.864L810.546 102.229C811.944 97.6927 813.603 91.4112 815.525 83.3849C820.941 60.7018 831.773 49.3602 848.02 49.3602C859.551 49.3602 868.548 50.8433 875.012 53.8096C881.476 56.6014 884.709 60.6145 884.709 65.8491C884.709 69.3388 882.699 76.0565 878.681 86.0022C876.584 91.2367 875.012 95.4244 873.964 98.5651L843.827 187.029H887.853C891.173 187.029 893.706 187.553 895.453 188.6C897.2 189.472 898.073 190.955 898.073 193.049C898.073 193.922 897.986 194.707 897.811 195.405C897.811 196.103 897.724 196.801 897.549 197.498L893.094 210.061C892.046 213.377 890.124 215.732 887.329 217.128C884.534 218.524 879.642 219.222 872.654 219.222H834.131L808.449 303.76C805.479 313.182 803.296 321.383 801.898 328.363C800.5 335.168 799.802 340.751 799.802 345.113C799.802 355.059 804.519 362.824 813.953 368.407C823.387 373.991 837.451 377.306 856.144 378.353L845.924 413.686H839.634C816.399 413.686 796.919 410.982 781.195 405.573C765.472 399.989 754.116 391.963 747.128 381.494C735.947 391.09 723.63 398.68 710.178 404.264C696.551 409.847 682.662 412.988 668.51 413.686Z" fill="#1A88FE"/>
<path d="M1100.12 219.745C1095.4 216.081 1090.69 213.377 1085.97 211.632C1081.43 209.887 1076.8 209.015 1072.08 209.015C1061.77 209.015 1049.89 213.464 1036.44 222.363C1023.16 231.261 1010.41 243.388 998.18 258.743C986.999 272.876 978.089 287.882 971.45 303.76C964.986 319.464 961.754 333.248 961.754 345.113C961.754 353.663 963.239 360.032 966.209 364.219C969.179 368.233 973.721 370.239 979.836 370.239C996.957 370.239 1015.74 357.502 1036.18 332.027C1056.62 306.552 1077.93 269.125 1100.12 219.745ZM1073.39 318.94C1054.7 352.093 1036.18 376.346 1017.83 391.701C999.49 407.056 979.836 414.733 958.871 414.733C948.913 414.733 940.178 413.337 932.665 410.545C925.328 407.754 919.562 403.653 915.37 398.244C906.634 402.955 896.676 406.619 885.495 409.237C874.314 411.68 861.211 413.163 846.186 413.686L856.668 378.353C866.277 377.829 874.925 376.608 882.612 374.689C890.124 372.769 896.938 370.065 903.053 366.575C902.354 362.911 901.83 359.159 901.48 355.321C901.131 351.307 900.956 347.033 900.956 342.496C900.956 328.014 904.101 312.223 910.39 295.123C916.68 277.849 925.502 260.924 936.858 244.348C954.329 219.222 973.634 200.116 994.773 187.029C1016.09 173.768 1038.1 167.138 1060.81 167.138C1072.17 167.138 1081.95 168.796 1090.16 172.111C1098.37 175.426 1106.15 180.748 1113.49 188.076L1117.15 176.298C1119.43 169.145 1121.7 164.608 1123.97 162.689C1126.24 160.769 1129.56 159.81 1133.93 159.81C1145.98 159.81 1156.46 161.903 1165.37 166.091C1174.46 170.104 1179 174.903 1179 180.486C1179 182.231 1175.24 190.432 1167.73 205.089C1160.22 219.745 1153.58 233.704 1147.82 246.965C1136.28 273.312 1127.55 295.908 1121.61 314.753C1115.84 333.423 1112.96 347.818 1112.96 357.938C1112.96 364.917 1115.15 369.803 1119.51 372.595C1123.88 375.212 1133.84 377.219 1149.39 378.615L1139.17 413.686H1134.45C1107.02 413.686 1087.72 410.807 1076.54 405.049C1065.35 399.291 1059.76 389.52 1059.76 375.736C1059.76 369.629 1060.81 362.126 1062.91 353.227C1065 344.328 1068.5 332.899 1073.39 318.94Z" fill="#1A88FE"/>
</svg>
