<svg width="276" height="235" viewBox="0 0 276 235" fill="none" xmlns="http://www.w3.org/2000/svg">
<path d="M231.193 191.169C222.792 193.437 213.811 194.162 205.646 196.949C219.464 185.058 218.679 166.631 227.911 152.63C230.644 148.513 233.584 144.539 236.72 140.723C231.099 152.031 233.58 166.694 227.095 177.656C224.447 182.176 221.079 186.23 217.124 189.657C218.412 189.657 219.526 188.492 220.657 187.751C231.13 177.262 244.838 174.333 256.16 165.812C260.811 162.286 264.49 157.63 266.853 152.283C264.701 169.608 247.46 185.987 231.193 191.169Z" fill="#239FFB"/>
<path d="M268.955 120.721C263.821 128.044 257.618 134.896 252.876 142.282C253.41 136.408 254.101 129.163 251.824 123.572C247.852 111.57 244.382 99.3802 243.251 86.1978L243.408 81.1579C246.391 94.608 259.566 103.869 258.749 118.957C259.047 122.611 257.917 125.713 257.179 128.942L257.414 129.178L258.011 128.501C259.958 121.099 260.947 113.319 263.993 106.452C268.312 96.5137 273.697 86.4655 271.499 74.4643C278.078 88.6389 276.084 107.539 268.908 120.752L268.955 120.721Z" fill="#239FFB"/>
<path d="M260.853 44.4295C269.505 56.1788 271.389 74.905 265.093 88.3867C262.721 94.2003 261.065 100.283 260.162 106.499C259.738 105.412 259.629 103.947 259.236 102.735C255.797 89.5365 243.345 80.1339 238.242 67.6917C236.551 63.6028 235.288 59.3485 234.474 54.9975C239.938 65.156 253.411 70.3849 257.085 81.5514C258.655 84.3863 258.514 87.8513 259.44 91.0012C259.538 91.0056 259.633 90.972 259.706 90.9074C259.779 90.8428 259.825 90.7521 259.833 90.6546C258.387 79.0454 258.53 67.2925 260.257 55.722C260.162 49.5639 259.566 43.5948 256.158 38.8227C258.341 40.1141 259.299 42.5553 260.869 44.4768L260.853 44.4295Z" fill="#239FFB"/>
<path d="M254.762 42.1932C257.023 52.4934 253.71 62.526 255.798 72.9207L255.719 73.0152C250.145 61.9905 238.274 56.7931 230.125 47.9733C225.414 42.7444 223.342 36.3658 222.148 29.625C226.859 40.9175 239.421 43.4216 246.691 52.9344C249.109 55.1394 249.91 58.1791 251.401 60.6675L251.653 60.4155C247.492 51.5012 246.094 41.5159 243.189 31.9559C241.648 27.5889 238.775 23.8196 234.977 21.1832C244.398 23.1361 252.72 33.0899 254.699 42.1932H254.762Z" fill="#239FFB"/>
<path d="M229.338 18.5845C236.498 25.0104 239.733 33.3262 241.899 41.957L243.077 44.6974C232.557 37.0529 223.579 27.4757 216.619 16.4741L208.501 8.25279C215.63 11.2767 223.308 13.0879 229.4 18.5845H229.338Z" fill="#239FFB"/>
<path d="M65.1585 9.62281C57.9826 15.9227 52.9893 23.9235 47.6663 31.373C42.9556 37.2949 36.7847 41.2166 31.3674 46.3195C34.288 40.2401 34.398 32.9795 38.5433 27.4199C44.4316 17.1039 55.376 13.4657 65.1585 9.65434V9.62281Z" fill="#239FFB"/>
<path d="M25.9023 31.6092C29.1501 27.3898 33.6818 24.3485 38.8094 22.9469C29.1369 29.6248 29.765 41.563 26.7031 51.501C25.7139 55.1707 24.018 58.5568 23.1701 62.3368L23.4213 62.5257C25.2024 58.0772 27.9239 54.0687 31.398 50.7765C38.2755 44.4767 48.4348 40.4448 51.8108 31.0265C51.6694 44.1144 40.8192 54.3989 30.3773 61.7383C25.9787 65.3156 22.3104 69.7115 19.5743 74.6845C19.3387 71.3928 20.0611 68.0696 19.8255 64.5417C18.695 53.1232 17.8628 40.0825 25.918 31.6092H25.9023Z" fill="#239FFB"/>
<path d="M6.35347 70.6685C6.07084 59.0926 10.8443 49.6428 17.5962 41.0277C17.8004 40.9175 17.9417 40.7285 18.1929 40.7757C10.7658 52.0997 16.9054 66.3531 16.6227 79.2363L15.6491 92.4187C15.7904 92.5132 15.7905 92.907 16.136 92.7495C16.5756 91.2848 16.6698 89.7098 16.9681 88.1978C18.7268 77.5668 27.9596 70.0386 35.9677 62.6835C37.6739 60.8987 39.0509 58.8243 40.0345 56.5569C39.3068 61.9265 37.7936 67.1592 35.5438 72.086C29.2629 84.3235 17.7218 94.3717 15.602 108.389C14.5814 94.9544 5.45847 84.9062 6.36919 70.6685H6.35347Z" fill="#239FFB"/>
<path d="M0.778112 87.1269C1.41007 83.4634 2.4313 79.8784 3.82433 76.433C0.840924 91.7416 11.1101 102.766 14.4703 116.028C15.8835 120.989 16.229 126.312 18.2389 130.974C18.4273 131.068 18.5843 130.864 18.7099 130.722C13.6852 116.626 20.9239 103.538 28.1312 92.5134C29.8088 89.4557 31.0409 86.1727 31.7898 82.7644C32.5749 89.0642 30.9576 96.4822 30.0312 103.097C28.2725 111.523 25.6346 119.508 23.3421 127.682C21.7718 132.785 22.2273 138.549 22.9967 143.904L22.2743 143.306C16.9356 133.462 6.3995 125.777 3.25907 114.957C0.683926 106.373 -1.0433 96.435 0.715338 87.0797L0.778112 87.1269Z" fill="#239FFB"/>
<path d="M0.245131 117.004C1.42279 133.226 18.8207 141.794 26.9387 155.213C28.6573 158.138 30.7069 160.854 33.0469 163.308C32.6543 161.575 31.0371 160.158 30.4561 158.362C27.6312 152.397 26.5426 145.753 27.3157 139.195C28.1008 130.911 31.5552 123.225 30.2362 114.515C37.3179 129.84 35.1667 148.96 39.1236 165.544C40.1599 169.182 42.264 172.411 43.6301 175.892C29.0742 165.938 9.24246 156.488 2.80458 138.266C0.0724154 131.966 -0.225921 124.217 0.355057 117.004H0.245131Z" fill="#239FFB"/>
<path d="M8.94285 154.252C17.0609 172.663 37.3793 174.175 50.9931 185.389C53.3777 187.579 56.0641 189.415 58.9698 190.838L59.1112 190.696C55.6892 187.886 52.6812 184.604 50.1766 180.947C42.2 169.828 44.9949 154.252 39.0281 142.282C44.5053 148.511 49.0971 155.47 52.6732 162.961C57.5409 175.01 59.4095 188.649 70.6836 197.752C58.4831 193.72 44.1784 194.854 33.4068 187.31C21.6459 180.065 11.1411 167.765 8.94285 154.236V154.252Z" fill="#239FFB"/>
<path d="M29.7972 188.586C42.7986 203.422 64.0593 198.477 81.3788 202.367C83.8283 202.698 86.0893 203.674 88.6645 203.281C86.6075 201.958 83.7341 202.115 81.4887 200.918C67.8907 196.193 65.8965 181.389 58.5322 171.435C67.9535 177.735 75.8045 186.176 84.5663 194.366C90.8471 199.863 98.3213 202.399 106.251 204.005C104.351 204.698 101.854 204.509 99.813 205.044C85.5712 208.557 69.7592 214.305 54.6694 209.171C44.8556 206.021 34.7277 198.288 29.7972 188.586Z" fill="#239FFB"/>
<path d="M206.351 223.172C191.685 228.669 176.392 222.92 164.945 214.21C160.313 211.265 156.214 207.013 150.216 207.391C148.163 207.288 146.105 207.484 144.108 207.974C155.555 213.36 166.022 220.632 175.073 229.488C173.348 231.341 171.473 233.048 169.467 234.59C160.313 224.747 150.216 215.281 138.958 209.801C136.721 210.316 134.594 211.228 132.677 212.494C123.019 218.417 114.508 226.041 107.553 235L101.681 230.149C110.598 220.926 121.098 213.388 132.677 207.895C121.544 204.351 114.274 213.707 105.811 218.479C95.9496 225.377 81.7862 228.621 69.8683 223.849C63.1429 221.553 57.1706 217.458 52.596 212.006C62.0173 218.479 75.9294 219.156 86.5911 214.951C100.88 208.73 115.75 200.776 132.991 204.603C135.676 204.603 138.298 207.344 140.842 205.044C153.788 201.961 167.409 203.685 179.187 209.895L190.555 214.447C201.138 218.384 214.799 217.297 223.859 210.84C219.226 216.48 213.145 220.744 206.273 223.172H206.351Z" fill="#239FFB"/>
<path d="M222.053 207.974C205.597 214.274 189.079 206.572 173.267 204.005L170.236 203.627V203.501C177.773 201.784 185.09 199.532 191.089 194.051C199.929 185.531 207.811 176.726 217.61 170.033C210.339 179.483 209.57 192.712 197.542 198.744C194.559 200.697 190.822 201.044 187.744 202.509C192.125 202.619 196.129 201.044 200.463 200.603C216.589 198.067 235.008 200.603 246.344 186.885C242.152 196.492 231.631 204.525 222.053 207.895V207.974Z" fill="#239FFB"/>
<path d="M252.012 161.544C245.527 165.812 238.932 169.765 232.683 174.616V174.018C242.245 158.063 237.566 136.219 243.47 118.611L245.668 112.736C244.444 123.666 249.17 132.927 248.809 143.904C248.477 150.267 246.413 156.417 242.842 161.686H243.439C248.149 155.528 251.792 148.96 257.257 143.07C265.767 134.848 274.403 126.422 275.534 115.004C278.407 134.061 267.683 150.756 251.981 161.544H252.012Z" fill="#239FFB"/>
<path d="M225.932 55.9584C217.961 39.2915 205.48 25.2074 189.913 15.3131C174.345 5.41871 156.319 0.112575 137.89 0C122.476 0.174336 107.295 3.79541 93.4528 10.5995C69.3658 22.1124 49.691 47.1386 43.206 72.023C32.4187 113.76 47.0059 156.032 82.7125 180.569C108.401 199.06 149.352 202.619 178.181 188.444C203.744 177.656 225.743 151.149 232.448 124.942C239.027 102.751 236.138 75.6927 225.994 56.0529L225.932 55.9584ZM230.517 90.6076C230.768 92.277 230.36 94.293 231.286 95.6633L217.154 95.8994C216.826 96.1708 216.417 96.3259 215.992 96.3405L216.385 95.7578C215.99 85.2168 213.469 74.8655 208.973 65.3294C208.816 61.1085 204.749 58.2736 203.006 54.6197C199.866 52.4462 198.94 48.6191 195.375 46.7449C194.7 46.0204 194.402 44.7919 193.381 44.5557L194.951 44.2092C198.416 40.9298 201.663 37.4259 204.671 33.72C219.258 50.1783 228.522 68.8416 230.375 90.6391L230.517 90.6076ZM190.775 143.558C189.55 142.392 189.503 140.077 187.352 140.14C186.629 140.03 186.315 140.723 186.315 141.306C186.315 141.888 186.409 142.046 186.174 142.282L181.73 138.376C183.834 137.29 185.389 134.454 187.006 132.391C190.8 126.66 193.662 120.36 195.485 113.728C195.792 113.989 196.175 114.144 196.577 114.17C196.978 114.195 197.378 114.09 197.715 113.87C198.031 113.598 198.241 113.223 198.307 112.81C198.373 112.398 198.292 111.975 198.076 111.618L196.506 109.854C196.71 106.924 197.511 104.026 197.197 101.034L198.28 101.38C202.818 101.38 207.45 101.617 211.847 101.191L211.156 101.963C210.057 119.65 203.902 135.62 191.591 148.661C192.125 146.944 190.492 145.511 190.759 143.605L190.775 143.558ZM179.281 157.732C176.737 155.386 180.851 153.417 181.636 151.244C181.196 148.96 178.652 147.684 176.705 147.039C175.779 146.519 176.093 145.338 176.015 144.566C176.947 143.808 177.699 142.85 178.213 141.762L178.558 142.692L184.494 148.85C184.382 149.494 184.474 150.157 184.755 150.747C185.037 151.337 185.494 151.824 186.064 152.141C186.739 152.425 187.493 151.842 188.074 152.031H187.744C185.045 154.698 182.136 157.142 179.045 159.339L178.354 160.268C178.024 159.292 180.003 158.835 179.171 157.67L179.281 157.732ZM151.99 81.8035C151.205 82.1027 150.42 82.6383 149.509 82.2445C148.695 81.1559 147.539 80.3736 146.228 80.0238C145.301 80.2758 144.657 81.457 143.543 80.827C145.301 78.9056 148.426 78.5591 149.823 75.9132C150.269 74.6614 150.472 73.3355 150.42 72.0073C149.918 71.4088 149.195 70.8733 148.536 71.4088C147.578 72.9837 145.395 73.3617 144.296 75.0942L140.779 73.8973C140.182 70.7473 141.014 66.5579 140.088 63.7702C142.021 64.2802 143.982 64.6747 145.961 64.9514C150.899 66.3207 155.596 68.4456 159.889 71.2513C158.772 71.8428 157.776 72.6388 156.952 73.598C156.952 74.48 157.879 74.2437 158.271 74.7635L159.198 74.4327C157.627 78.2598 152.603 77.6614 152.069 81.7405L151.99 81.8035ZM156.073 122.375C156.073 124.139 153.498 124.075 152.32 125.304C151.661 125.052 152.163 124.375 152.32 123.981C153.498 123.052 154.377 122.123 156.073 122.406V122.375ZM183.724 75.4249C185.295 75.7714 186.315 77.6929 187.948 78.0394C189.219 80.3488 190.13 82.8399 190.649 85.426C189.346 86.9065 189.251 90.1509 186.409 89.6311C185.734 88.0562 187.697 87.1427 187.242 85.6779C187.76 85.2685 188.529 85.0953 188.686 84.3393C188.561 82.8746 186.708 83.1738 186.409 81.646C185.844 80.8271 184.839 80.9058 184.085 80.6223C182.201 79.7403 180.474 84.3864 179.971 80.7168C180.279 80.5327 180.503 80.2361 180.597 79.8894C180.691 79.5427 180.647 79.173 180.474 78.8583C178.904 77.9764 178.715 75.7084 176.941 74.8264C174.554 74.8264 172.356 73.8185 170.016 74.354C168.446 74.0075 166.735 72.9838 165.573 74.5902C165.478 75.8187 164.819 76.8425 164.646 78.0394C164.077 77.7003 163.619 77.2023 163.327 76.6061C167.63 71.8025 172.529 66.9517 177.035 62.2583L177.286 61.6598C179.738 64.3553 181.93 67.2767 183.834 70.3851C184.227 72.2435 180.615 74.1965 183.724 75.4249ZM192.266 101.396C191.45 104.042 191.544 107.082 190.869 109.775C190.793 110.269 190.639 110.747 190.413 111.192C189.581 109.539 188.843 107.318 187.006 106.341C185.436 105.459 186.409 103.192 184.918 102.215L183.347 100.64C185.923 101.774 189.299 101.491 192.219 101.333L192.266 101.396ZM171.854 59.8013C169.294 62.7465 165.965 65.3767 163.767 68.4636L163.406 67.4399C157.066 62.4359 149.446 59.3296 141.423 58.4784L140.167 58.7146L140.261 45.4534L139.774 44.3667C145.1 44.9832 150.356 46.0957 155.476 47.6899C161.892 50.0194 167.846 53.4692 173.063 57.8799L174.24 58.3681L171.775 59.8013H171.854ZM158.475 132.36C162.654 132.723 166.764 133.655 170.692 135.132C171.171 135.194 171.659 135.154 172.122 135.012C172.585 134.871 173.013 134.633 173.377 134.313C173.141 132.738 175.088 131.966 174.947 130.344C175.779 128.989 175.182 127.068 176.344 125.887C176.603 124.15 176.187 122.38 175.182 120.941C174.115 120.248 173.157 121.13 172.042 121.288C170.88 122.17 171.304 124.768 169.278 124.217C169.017 124.505 168.674 124.708 168.296 124.798C167.918 124.888 167.521 124.861 167.159 124.721C167.002 124.453 166.672 124.422 166.766 124.139C168.226 123.383 170.833 123.887 171.021 121.524C172.105 120.595 173.753 120.989 174.79 119.949C175.347 118.769 176.049 117.664 176.878 116.657C177.04 116.148 177.125 115.617 177.129 115.082C177.428 115.76 177.428 116.657 178.291 117.083C179.422 117.429 179.862 116.5 180.411 115.76C180.411 115.366 180.647 114.783 181.086 115.177C182.295 116.153 184.023 115.303 185.436 115.429C186.68 115.022 187.975 114.788 189.283 114.736C187.908 120.205 185.481 125.352 182.138 129.887C180.945 131.383 179.862 133.037 178.495 134.486C178.072 133.352 178.103 131.824 177.129 130.801L176.533 130.942C175.748 132.517 174.193 133.84 174.382 135.667C173.22 137.541 170.283 135.966 168.525 136.943C166.436 137.589 165.306 135.526 163.626 135.085C161.788 134.297 159.653 134.25 157.894 133.321C157.862 133.123 157.901 132.921 158.005 132.751C158.109 132.58 158.27 132.453 158.46 132.391L158.475 132.36ZM149.337 6.06362C168.797 8.45079 186.97 17.0731 201.154 30.6488L199.473 31.326C196.788 34.2239 193.679 36.5864 192.094 39.9095C191.921 38.9803 190.523 38.3346 190.099 37.4683C189.801 34.7751 187.242 32.208 184.933 30.8377C183.018 30.4913 182.578 27.6091 180.223 28.4911C178.26 26.9161 175.81 28.0658 173.942 28.9793V29.2313C164.499 23.8143 153.967 20.5855 143.119 19.7815C142.553 19.7815 142.286 20.2068 141.705 20.1123C142.286 19.7343 141.988 18.5373 141.941 17.8758C141.627 17.3718 141.062 16.7891 140.371 17.1671C140.111 17.5086 139.958 17.9196 139.931 18.3483C140.327 13.8502 140.279 9.3239 139.79 4.8351C142.757 5.76433 146.196 5.46508 149.305 6.01632L149.337 6.06362ZM145.584 25.7034C153.794 26.7123 161.794 29.0082 169.294 32.5072C170.393 34.2239 172.607 35.0586 172.89 37.2321C171.775 40.2088 176.847 40.1773 174.554 43.217C174.397 44.1935 175.229 44.7919 175.575 45.4692C175.92 46.1464 175.434 47.5638 176.423 48.0521C178.166 48.4458 178.904 46.0991 180.662 46.7291C181.652 47.5778 182.422 48.6544 182.906 49.8668C183.39 51.0792 183.574 52.3912 183.442 53.6905C183.646 54.4602 184.041 55.1655 184.59 55.741C185.139 56.3165 185.824 56.7435 186.582 56.9821C189.471 56.1002 188.152 59.3288 190.099 60.1321C192.345 60.3998 193.475 63.282 195.956 63.0772C198.17 64.7309 199.379 67.1721 201.342 69.0463C201.312 69.2514 201.353 69.4606 201.459 69.6386C201.565 69.8166 201.729 69.9524 201.923 70.0228C203.101 70.3221 203.839 69.4873 204.844 69.4401C208.509 77.4265 210.639 86.0344 211.125 94.8127L211.58 95.742C206.869 95.742 202.159 95.7419 197.26 96.0884C197.118 93.285 197.26 90.3556 195.689 88.1034C196.413 86.5232 196.7 84.7773 196.521 83.0478C196.223 82.3233 195.579 83.0478 195.265 83.0478C193.695 84.6227 193.475 86.6702 192.675 88.4657C192.032 89.4904 191.631 90.6481 191.5 91.8514C191.37 93.0547 191.513 94.2719 191.921 95.4112L192.517 95.9939L187.053 95.8837C188.356 95.0489 185.923 93.4425 187.242 92.1038L189.738 91.6313C190.508 89.8201 192.455 88.4814 192.423 86.3394C193.059 85.7363 193.515 84.9674 193.74 84.1189C193.964 83.2705 193.949 82.3759 193.695 81.5358C192.517 78.8426 195.689 76.1021 193.24 73.535C193.302 73.3415 193.32 73.1363 193.292 72.9349C193.263 72.7336 193.19 72.5413 193.076 72.3728C192.962 72.2043 192.812 72.0639 192.636 71.9624C192.461 71.8608 192.264 71.8008 192.062 71.7868C191.293 71.5348 190.398 71.7868 190.398 70.7158C190.853 70.0228 191.968 69.3299 191.732 68.2746C191.136 67.5187 190.162 68.1644 189.471 68.1171C189.283 66.9359 191.497 65.6602 189.581 64.5892C188.246 64.3529 187.524 66.0066 186.205 65.4239C185.876 65.2191 185.642 64.8918 185.554 64.5138C185.465 64.1357 185.53 63.738 185.734 63.408L182.782 59.7856C182.499 59.4391 181.667 59.9746 181.62 59.2973C181.824 56.4151 178.307 54.7929 178.103 51.9108C177.019 50.9185 177.899 49.1073 176.533 48.2726C175.748 47.6741 174.884 47.0126 173.816 47.4379C172.563 45.6064 171.115 43.9166 169.498 42.398C169.299 42.3433 169.087 42.357 168.897 42.4369C168.706 42.5168 168.547 42.6583 168.446 42.839C168.666 44.2092 170.283 44.9809 170.189 46.5086C170.085 46.4744 169.972 46.4742 169.868 46.5082C169.763 46.5421 169.673 46.6085 169.608 46.6976C169.989 48.0726 170.764 49.3049 171.838 50.2413C164.191 44.3037 155.146 41.2168 145.568 39.6575C143.715 39.6575 141.8 38.8228 139.947 39.4528C140.386 35.2004 140.104 30.3338 140.198 25.7821L139.695 24.8529C141.517 25.8294 143.48 25.3884 145.568 25.6876L145.584 25.7034ZM137.387 82.0713L138.204 82.5123C137.183 82.5123 136.021 81.9296 135.142 82.6541C134.545 83.1108 134.938 83.8825 135.142 84.418C136.885 85.111 137.293 88.0089 139.617 86.8749C140.606 87.0797 141.815 87.2687 142.161 88.4499C143.574 88.9696 143.731 91.4739 145.694 90.9384C145.584 91.8518 145.301 93.474 146.416 94.1985C146.118 95.0332 145.066 95.3954 145.097 96.4664C144.937 96.6133 144.833 96.8111 144.801 97.0263C144.77 97.2414 144.813 97.4609 144.924 97.6476C146.714 97.8366 146.62 99.8998 147.452 101.018C147.229 101.689 147.238 102.417 147.477 103.082C147.717 103.748 148.172 104.314 148.771 104.688C148.489 106.297 147.926 107.843 147.107 109.255C145.223 110.184 142.082 107.838 141.391 111.255C140.308 112.437 141.234 115.035 139.13 115.13C135.294 115.538 131.444 114.487 128.343 112.185C130.337 111.161 133.776 112.578 134.435 109.586C134.7 109.366 134.891 109.069 134.981 108.737C135.071 108.404 135.056 108.051 134.938 107.727C135.728 106.759 136.325 105.647 136.696 104.451C135.974 103.711 136.288 103.318 136.461 102.451C134.435 100.388 131.75 101.459 129.175 101.522C127.605 102.388 129.175 104.058 128.092 105.129C126.145 105.381 126.097 107.286 124.716 108.42C124.323 108.202 123.995 107.883 123.766 107.495C123.537 107.108 123.415 106.666 123.412 106.215H123.664C123.64 106.302 123.634 106.393 123.646 106.482C123.658 106.572 123.687 106.658 123.732 106.735C123.778 106.813 123.838 106.881 123.91 106.935C123.982 106.989 124.063 107.028 124.15 107.05C125.988 107.334 125.407 105.223 125.988 104.294C126.302 103.129 129.018 101.522 126.836 100.672C126.726 100.183 127.118 99.5534 126.49 99.2541C125.815 99.5534 124.669 99.5534 124.574 100.577C124.734 101 124.744 101.465 124.604 101.894C124.464 102.324 124.182 102.693 123.805 102.94H123.412C123.454 102.691 123.407 102.435 123.281 102.217C123.155 101.998 122.957 101.831 122.721 101.743C121.607 101.743 120.68 102.625 119.581 102.341C117.962 102.72 116.312 102.952 114.651 103.034C114.462 102.105 115.923 102.388 116.221 101.459C115.954 99.9786 116.943 99.0967 117.571 98.0257C117.98 97.632 118.702 97.7737 119.141 97.9154C119.518 98.3092 119.911 98.6557 120.492 98.5139L120.979 97.6792C122.455 98.5611 121.622 102.766 124.496 100.955C124.951 99.1439 124.496 96.9862 125.328 95.3325C124.684 93.7575 126.364 93.1275 126.898 92.025C128.469 92.1825 128.264 90.4501 128.893 89.6783C131.185 89.0011 133.603 88.4657 135.095 86.0087C134.498 84.7803 134.891 83.032 133.933 82.0398C134.953 81.709 136.649 81.1736 137.45 82.0398L137.387 82.0713ZM135.142 172.962L133.776 172.017C115.593 171.041 100.048 163.591 86.4811 151.7C88.6794 151.464 89.4959 154.394 91.8983 153.653C94.5363 153.354 96.6089 151.259 99.3725 151.7C100.739 151.7 102.513 151.7 103.282 150.362C103.722 148.897 102.152 148.157 101.869 146.975C110.924 154.05 121.909 158.197 133.368 158.866L134.545 158.363V171.293L135.142 172.962ZM84.0001 102.31L83.2621 101.144C84.7381 102.215 86.2456 101.884 87.9728 101.569C85.5704 102.357 86.4025 105.302 85.5232 107.113C85.3661 107.995 86.7009 108.247 86.5438 109.129C85.3662 109.712 85.2092 110.988 84.691 111.901C85.3662 108.625 84.0943 105.601 84.0001 102.31ZM69.2087 119.225C67.8897 119.366 68.2352 120.8 67.6385 121.556C67.7484 118.138 66.2253 114.799 65.77 111.318L64.7178 102.31L64.1213 101.491C68.4236 102.121 73.1656 101.711 77.7035 101.837L78.7713 101.333C78.3787 103.491 78.3002 106.625 79.8547 108.531C79.3208 107.948 78.5358 106.231 77.2639 106.278C74.7673 106.42 74.5788 109.712 72.0821 109.806C70.0252 111.523 69.7426 113.933 69.3029 116.279C70.1823 117.209 68.612 118.138 69.1616 119.225H69.2087ZM79.1795 96.5295L77.9077 96.0412L64.5138 96.2774C65.7386 81.2995 69.8525 67.5344 78.4886 55.6119L83.7645 48.9026L83.8587 47.9733C87.0283 51.6722 90.4716 55.126 94.1593 58.3051C84.8674 68.3901 79.3609 81.4021 78.5828 95.112C78.787 95.6002 78.5829 96.183 79.1795 96.5295ZM134.608 39.4055C132.08 38.8701 129.473 39.7363 126.898 39.9883C115.908 42.0449 105.736 47.2151 97.5825 54.8875L97.237 53.9582C93.9709 50.9185 90.9561 47.0914 87.3917 44.7762C90.5321 42.9335 93.2801 40.193 96.3106 38.0826C107.641 30.4076 120.844 25.9804 134.498 25.2781C134.195 29.9995 134.232 34.7367 134.608 39.4528V39.4055ZM112.719 113.334C112.733 113.465 112.779 113.591 112.853 113.699C112.928 113.808 113.028 113.896 113.145 113.956C113.263 114.015 113.393 114.044 113.524 114.04C113.655 114.036 113.784 113.999 113.897 113.933C114.431 113.177 112.719 111.901 113.991 111.476C114.776 112.358 114.384 113.823 114.823 114.846C115.214 115.405 115.377 116.092 115.279 116.768C113.761 118.208 112.384 119.79 111.165 121.493C110.285 119.303 108.323 117.539 107.443 115.287C106.046 112.72 105.308 109.838 103.926 107.302C105.104 108.767 108.228 107.097 108.228 109.901C108.417 110.043 108.731 109.901 108.951 109.901C109.343 109.476 109.406 109.413 109.909 109.665C110.144 110.153 111.306 110.405 110.38 110.988C110.547 111.526 110.851 112.012 111.261 112.398C111.671 112.785 112.173 113.058 112.719 113.192V113.334ZM127.197 151.527L129.536 152.614C121.057 150.503 111.918 147.558 104.586 141.432C103.314 140.707 102.497 139.038 100.958 138.943C104.525 135.94 107.786 132.59 110.694 128.942C111.966 131.289 114.698 132.565 116.802 134.14C120.492 135.856 124.339 138.99 128.657 138.093C127.267 138.598 126.018 139.43 125.014 140.518C124.402 141.825 124.606 143.794 122.847 144.377C122.957 147.18 125.438 149.527 127.197 151.527ZM96.0436 134.203L95.5568 131.163C92.7776 128.659 93.6412 124.343 93.2015 121.178C91.2545 119.603 92.809 117.067 91.4586 115.303C91.4586 112.452 87.0463 111.476 88.4124 108.342C87.8785 107.554 87.2033 106.53 87.8314 105.538C88.7107 104.514 90.6107 105.648 91.2074 104.136L91.5843 101.522C92.6206 100.939 94.0809 102.262 94.6148 100.829C95.604 98.3879 91.0189 95.3954 94.9602 94.1197C96.2791 93.978 98.1006 93.6945 98.6188 95.3167C99.1525 97.2022 99.185 99.1949 98.713 101.097C100.001 101.569 98.8229 102.672 98.8229 103.538C98.0535 103.869 97.2527 104.656 96.3891 104.373C95.9965 103.727 95.3056 102.609 94.3635 102.719C93.6412 103.727 94.6776 104.814 94.5205 105.979C94.285 106.672 94.5205 107.46 94.0338 107.995C93.8707 107.861 93.6825 107.761 93.4801 107.702C93.2778 107.642 93.0656 107.624 92.8561 107.649C92.0239 108.09 92.5735 108.972 92.8561 109.507C93.7197 110.058 94.4263 110.893 95.3841 110.94L95.8866 110.342C96.0307 108.877 96.2508 107.421 96.5461 105.979L97.975 106.719C99.3934 112.75 101.946 118.454 105.496 123.524L107.349 125.383C102.869 129.363 98.6716 133.652 94.7875 138.219V138.329C94.7875 138.124 94.5833 137.337 94.0023 137.636C93.6098 135.777 96.6875 136.297 96.1065 134.203H96.0436ZM102.827 76.2439C101.487 77.1187 100.369 78.2942 99.5609 79.6773C98.3832 80.4176 96.8759 80.3703 95.8866 81.6933C95.8866 82.2287 96.5304 82.906 95.8081 83.2682C94.6776 84.3392 92.3223 82.9848 91.7884 85.0323C91.5843 86.8435 89.4487 87.8671 89.5901 89.8831C88.4124 90.6706 88.6166 92.1825 88.7579 93.411C89.4017 94.1985 88.4752 95.616 89.5901 96.1987C87.5653 95.7662 85.4644 95.8529 83.4819 96.4507C84.4083 94.2458 84.1257 91.5053 84.6596 89.1587C86.5682 79.104 91.0975 69.7357 97.7866 62.0063C101.176 65.5919 104.784 68.9635 108.59 72.1018C105.81 72.212 105.763 76.3227 102.827 76.2124V76.2439ZM132.975 129.068C132.268 130.186 132.818 131.856 132.473 133.179C126.005 132.068 119.944 129.265 114.902 125.052C117.822 121.902 121.827 118.752 123.931 115.303C124.229 116.878 126.082 117.602 127.354 118.327C129.944 119.492 133.116 121.304 136.068 120.059C135.817 120.248 135.629 120.516 135.393 120.674C136.241 121.508 134.765 122.406 135.754 123.178C135.958 123.824 135.111 123.713 135.063 124.217C135.566 125.099 134.922 126.659 136.32 126.958C136.394 127.074 136.439 127.207 136.45 127.346C136.46 127.484 136.436 127.622 136.38 127.749C136.324 127.875 136.238 127.986 136.128 128.07C136.019 128.155 135.891 128.211 135.754 128.233C134.765 128.044 133.462 127.997 132.975 129.068ZM117.273 114.358C118.214 113.51 118.909 112.421 119.283 111.208L120.947 112.043C119.377 112.137 118.608 113.618 117.43 114.5L117.273 114.389V114.358ZM130.918 74.48C130.62 73.787 131.468 73.0625 130.667 72.6215C128.421 73.661 129.254 76.1494 127.73 77.7716C127.479 79.0473 125.831 78.4016 125.061 79.0946C124.915 78.8977 124.73 78.7323 124.519 78.6079C124.308 78.4836 124.074 78.4029 123.831 78.3706C123.588 78.3383 123.341 78.3551 123.105 78.4199C122.868 78.4847 122.647 78.5963 122.455 78.7481C121.293 78.7481 121.104 76.3541 119.864 77.5826C119.534 77.9764 119.722 78.8426 118.796 78.4961C118.608 78.1654 118.262 78.1024 118.027 77.9292C118.027 77.1732 119.251 77.2677 118.796 76.3542C117.917 74.7792 116.001 75.0154 114.839 73.85H113.771C119.534 67.7234 126.757 65.0302 134.624 64.0065C134.514 67.5344 134.247 71.5033 135.362 74.669C134.137 73.094 132.425 75.0784 130.918 74.4327V74.48ZM134.734 58.6043C132.19 58.0216 129.787 59.2028 127.354 59.4391C121.947 61.0653 116.893 63.6936 112.452 67.1879C112.217 67.5816 111.966 67.9124 111.714 68.2589C108.338 65.2664 105.041 61.1085 101.304 58.5098C110.725 50.7295 121.481 45.5322 133.902 44.6502L134.734 44.1619C134.2 48.9612 134.2 53.8051 134.734 58.6043ZM81.8332 23.9552C97.1018 12.6123 115.405 6.11232 134.388 5.29185L133.98 6.66206L134.121 18.4113L134.577 19.5925C115.954 20.3719 98.2332 27.8526 84.6596 40.6655L84.4084 41.3428C81.1363 37.5454 77.5256 34.0555 73.621 30.9165H73.1813C76.2118 29.1526 78.8498 26.0184 81.8332 23.9552ZM45.4827 87.4577C47.9794 67.2194 56.5685 49.4853 70.4963 33.9089L70.826 35.2319C74.1548 38.5078 77.4837 41.9885 80.6555 44.9809C77.9234 46.8394 76.3061 49.9736 74.1235 52.462C65.3521 64.7749 60.2594 79.3396 59.442 94.4505L59.8032 96.3719C54.7809 95.9782 49.7356 95.9782 44.7134 96.3719C45.2943 93.3795 44.9489 90.3398 45.4827 87.4104V87.4577ZM56.7726 144.723C49.5813 131.479 45.4695 116.775 44.7448 101.711L58.3272 101.837L59.6461 101.333C59.5196 102.241 59.4724 103.158 59.5048 104.074L59.3949 103.916C59.0181 104.231 59.6932 104.357 59.6461 104.656C59.9483 109.693 60.7371 114.688 62.0014 119.571L62.6923 120.626C61.8594 119.692 61.1181 118.679 60.4784 117.602C59.3431 117.699 58.2563 118.107 57.3379 118.784C57.8718 120.185 56.4586 119.744 55.7677 120.138C55.5343 119.754 55.2038 119.439 54.8098 119.225C53.7735 119.225 52.69 119.366 52.2661 120.39C52.4074 121.115 51.5752 121.461 51.2768 122.06C50.9785 124.264 50.2562 127.131 51.8735 128.958C51.9033 129.744 52.0959 130.516 52.4393 131.224C52.7826 131.931 53.2691 132.56 53.8677 133.069C54.3702 133.179 54.6057 132.785 54.9512 132.628C56.2544 133.604 56.9454 136.014 58.9081 135.573C59.4891 135.289 59.3007 134.691 59.4891 134.25C60.5254 135.289 61.0593 137.4 62.9122 137.179C63.3832 137.683 63.6345 138.549 64.4824 138.612C66.5394 138.061 65.7856 140.959 67.3245 141.762C68.4864 142.503 69.1302 144.267 70.826 143.432L71.4227 142.692C71.9723 143.085 71.5326 144.078 72.0037 144.613C72.9011 146.165 74.3745 147.297 76.1019 147.763C77.4354 149.507 78.9632 151.092 80.6555 152.488L79.4622 152.992L69.7583 163.072C65.3146 157.04 60.2427 151.196 56.7726 144.755V144.723ZM125.579 191.153C105.952 188.476 88.7579 179.955 73.5268 166.726L83.5918 156.583L83.7332 155.984C97.661 169.466 114.509 176.223 133.556 177.546L135.126 177.152L134.639 177.892V191.153L135.377 192.35C132.331 191.421 128.767 191.689 125.642 191.153H125.579ZM137.387 135.683C136.426 135.839 135.441 135.719 134.545 135.336C134.09 135.336 134.247 134.801 134.09 134.502C135.535 134.502 136.21 132.832 137.733 133.084C138.596 132.297 138.753 130.974 139.962 130.517C139.57 129.257 141.14 130.076 141.533 129.352C141.972 128.958 142.569 128.517 143.213 128.863C144.186 130.281 146.18 129.698 147.17 131.305C147.672 131.509 147.798 130.974 147.751 130.627V130.029C149.321 129.887 150.09 132.139 151.755 130.627C151.927 130.432 152.022 130.18 152.022 129.919C152.022 129.658 151.927 129.406 151.755 129.21C151.582 129.115 151.315 129.005 151.284 128.769C152.399 128.233 153.074 130.47 154.424 129.698C155.539 128.769 156.34 127.588 157.847 127.588L158.193 128.044C158.428 130.974 155.947 132.769 153.749 134.061C152.32 134.643 149.745 134.455 149.839 136.754C148.269 138.219 146.699 135.872 144.704 136.518C143.778 136.014 144.705 134.644 143.386 134.407C141.344 135.289 138.895 133.321 137.434 135.683H137.387ZM140.999 160.52C142.773 161.245 145.709 159.78 146.761 161.78C146.228 162.914 145.333 164.001 145.694 165.308C146.416 167.135 147.484 169.529 149.792 169.671C150.362 170.306 151.113 170.751 151.943 170.946C148.018 171.592 143.809 171.387 140.214 172.521C140.457 168.498 140.457 164.464 140.214 160.441L139.476 159.355C140.167 159.449 140.496 160.048 141.046 160.441L140.999 160.52ZM141.14 191.862L140.214 192.445C140.559 187.327 140.559 182.191 140.214 177.073C142.663 177.908 145.254 176.963 147.845 176.963L155.319 175.64C159.009 176.38 161.6 182.412 165.761 178.79C167.174 177.073 169.671 177.215 170.472 174.852C172.858 173.986 173.455 171.529 175.182 169.97C176.753 165.355 181.981 164.678 185.153 161.497C187.461 159.433 190.476 157.717 191.858 155.023L192.078 156.189L202.394 166.048C184.949 181.924 164.709 190.885 141.156 191.909L141.14 191.862ZM230.831 102.089C229.904 125.005 221.409 144.802 206.461 161.938L206.053 162.662C202.695 158.822 199.058 155.237 195.171 151.937C197.417 150.362 199.128 147.779 200.934 145.637C210.295 133.005 215.685 117.859 216.416 102.136L215.929 100.798L216.762 101.396L230.689 101.302L231.396 100.939L230.831 102.136V102.089Z" fill="#239FFB"/>
<path d="M181.133 25.1521C181.064 25.6465 181.188 26.1486 181.478 26.5538C183.535 27.3098 183.771 30.2864 186.393 29.7037C187.178 28.7902 185.922 27.861 186.158 26.7428C185.969 26.2868 185.669 25.886 185.284 25.5776C184.9 25.2692 184.444 25.0632 183.959 24.9788C182.939 25.971 182.059 24.0968 181.133 25.2308V25.1521Z" fill="#239FFB"/>
<path d="M142.097 16.8203C144.672 20.1593 149.179 18.2851 152.397 17.6551C154.737 18.6316 156.998 17.4661 158.678 15.9856V15.6391C157.03 13.2924 153.889 12.9459 151.063 12.7097L144.028 15.7494C143.447 15.4974 142.332 15.1824 141.924 15.9856C141.61 16.2376 141.924 16.5841 142.034 16.8203H142.097Z" fill="#239FFB"/>
</svg>
