<svg width="90" height="90" viewBox="0 0 90 90" fill="none" xmlns="http://www.w3.org/2000/svg">
<g clip-path="url(#clip0_1507_665)">
<path d="M65.4531 17.7271H55.6276V15.2504H65.4531C69.6999 15.2504 73.6888 16.9013 76.6866 19.8991C79.6843 22.8968 81.3353 26.8861 81.3353 31.1326C81.3353 39.8907 74.2102 47.0159 65.4531 47.0159H44.8379V44.5394H65.4531C72.8457 44.5394 78.8588 38.5254 78.8588 31.1328C78.8588 27.5489 77.465 24.1802 74.9357 21.6503L74.9356 21.6503C72.4057 19.1209 69.037 17.7271 65.4531 17.7271Z" fill="#323232" stroke="white" stroke-width="0.5"/>
<path d="M34.4199 73.8127H71.1854V76.2893H34.4199V73.8127Z" fill="#323232" stroke="white" stroke-width="0.5"/>
<path d="M19.2131 44.5391H33.6668V47.0156H19.2131C15.6195 47.0156 12.2506 48.4031 9.73054 50.9235L9.73006 50.9239C7.20134 53.4668 5.80658 56.8357 5.80658 60.406C5.80658 67.7986 11.8205 73.8125 19.2131 73.8125H23.2492V76.2893H19.2131C10.4552 76.2893 3.33008 69.1642 3.33008 60.4063C3.33008 56.1768 4.97997 52.189 7.97681 49.1753C10.967 46.1844 14.9558 44.5391 19.2131 44.5391Z" fill="#323232" stroke="white" stroke-width="0.5"/>
<path d="M12.4688 15.2504H44.4572V17.7269H12.4688V15.2504Z" fill="#323232" stroke="white" stroke-width="0.5"/>
<path d="M6.88298 22.3479C3.22576 22.3479 0.25 19.3721 0.25 15.7149C0.25 12.0577 3.22576 9.08191 6.88298 9.08191C10.5402 9.08191 13.516 12.0577 13.516 15.7149C13.516 19.3721 10.5405 22.3479 6.88298 22.3479ZM6.88298 11.5581C4.59108 11.5581 2.72623 13.4227 2.72623 15.7149C2.72623 18.0071 4.59079 19.8716 6.88298 19.8716C9.17517 19.8716 11.0397 18.0071 11.0397 15.7149C11.0397 13.4227 9.17517 11.5581 6.88298 11.5581Z" fill="#323232" stroke="white" stroke-width="0.5"/>
<path d="M43.4815 16.6641L43.4817 16.6641L43.48 16.6547C43.4312 16.3866 43.4092 16.0647 43.4092 15.7149C43.4092 12.0618 46.3819 9.08911 50.035 9.08911C53.6966 9.08911 56.6754 12.0623 56.6754 15.7149C56.6754 16.0634 56.6536 16.3858 56.5964 16.7056L56.5963 16.7056L56.595 16.7144C56.1412 19.8977 53.3182 22.3407 50.035 22.3407C46.7619 22.3407 43.9433 19.8993 43.4815 16.6641ZM54.1989 15.7146V15.7146C54.1986 13.4257 52.3302 11.5653 50.035 11.5653C47.7466 11.5653 45.8857 13.4263 45.8857 15.7146C45.8857 15.8957 45.8923 16.0794 45.9251 16.267C46.224 18.3385 47.9847 19.8639 50.035 19.8639C52.0914 19.8639 53.8604 18.3409 54.1515 16.3167C54.1919 16.0817 54.1989 15.8993 54.1989 15.7146Z" fill="#323232" stroke="white" stroke-width="0.5"/>
<path d="M32.6915 45.9532L32.6917 45.9532L32.69 45.9439C32.6411 45.6743 32.6191 45.3523 32.6191 45.0039C32.6191 41.3418 35.5924 38.3629 39.2449 38.3629C42.906 38.3629 45.8854 41.3423 45.8854 45.0039C45.8854 45.3508 45.8636 45.6735 45.8064 45.9939L45.8062 45.9939L45.805 46.0026C45.3512 49.1859 42.5284 51.6289 39.2449 51.6289C35.9711 51.6289 33.1533 49.1875 32.6915 45.9532ZM39.2449 40.8391C36.9557 40.8391 35.0956 42.7085 35.0956 45.0037C35.0956 45.1849 35.1023 45.3685 35.1351 45.5568C35.4339 47.6276 37.1947 49.1524 39.2449 49.1524C41.3013 49.1524 43.0704 47.6303 43.3615 45.6058C43.4019 45.3707 43.4089 45.1883 43.4089 45.0037C43.4089 42.7074 41.5413 40.8391 39.2449 40.8391Z" fill="#323232" stroke="white" stroke-width="0.5"/>
<path d="M22.2724 75.218L22.2726 75.218L22.2705 75.2063C22.2227 74.9477 22.2012 74.624 22.2012 74.2926C22.2012 70.6315 25.1806 67.6516 28.8416 67.6516C32.4942 67.6516 35.4674 70.6313 35.4674 74.2926C35.4674 74.6223 35.4462 74.9469 35.3884 75.2689L35.3882 75.2688L35.3868 75.2794C34.9542 78.4651 32.1371 80.9184 28.8416 80.9184C25.5383 80.9184 22.7145 78.4661 22.2724 75.218ZM28.8416 70.1273C26.5452 70.1273 24.6777 71.9964 24.6777 74.2926C24.6777 74.4635 24.6849 74.6437 24.7169 74.8283C25.0048 76.916 26.7727 78.4422 28.8416 78.4422C30.901 78.4422 32.6642 76.9174 32.9423 74.8886C32.9832 74.6466 32.9909 74.4675 32.9909 74.2926C32.9909 71.9973 31.131 70.1273 28.8416 70.1273Z" fill="#323232" stroke="white" stroke-width="0.5"/>
<path d="M74.705 79.4303C72.2198 79.4303 70.1973 77.4073 70.1973 74.9221C70.1973 72.4368 72.2195 70.4138 74.705 70.4138C77.191 70.4138 79.2132 72.4369 79.2132 74.9221C79.2132 77.4073 77.191 79.4303 74.705 79.4303ZM74.705 72.89C73.585 72.89 72.6738 73.8014 72.6738 74.9218C72.6738 76.0422 73.585 76.9535 74.705 76.9535C75.8254 76.9535 76.7367 76.0422 76.7367 74.9218C76.7367 73.8013 75.8254 72.89 74.705 72.89Z" fill="#323232" stroke="white" stroke-width="0.5"/>
<path d="M75.943 52.3957V52.3958C75.9433 53.0792 75.3887 53.6338 74.7049 53.6338C74.0211 53.6338 73.4668 53.0795 73.4668 52.3957V50.5782C73.4668 49.8944 74.0211 49.3401 74.7049 49.3401C75.3887 49.3401 75.943 49.8944 75.943 50.5782V52.3957Z" fill="#323232" stroke="white" stroke-width="0.5"/>
<path d="M75.943 71.6518V71.6518C75.9433 72.336 75.3888 72.8899 74.7049 72.8899C74.0211 72.8899 73.4668 72.336 73.4668 71.6518V61.8416C73.4668 61.1579 74.0211 60.6035 74.7049 60.6035C75.3887 60.6035 75.943 61.1579 75.943 61.8416V71.6518Z" fill="#323232" stroke="white" stroke-width="0.5"/>
<path d="M86.1433 60.6034H85.6649H76.4436H76.1936H76.1933V60.3534H75.9436V53.8835V53.6335H76.1936H85.6643H86.1427L85.8696 54.0263L84.2112 56.4106L84.2111 56.4107C83.9155 56.8349 83.9154 57.3992 84.2104 57.8242L86.1433 60.6034ZM86.1433 60.6034L85.8701 60.2106L84.2105 57.8243L86.1433 60.6034ZM89.6093 51.8227L89.6093 51.8228C89.8227 52.2309 89.792 52.7242 89.5285 53.1023L89.5283 53.1025L86.8352 56.9749L86.7359 57.1176L86.8352 57.2603L89.5288 61.1349C89.5288 61.1349 89.5288 61.1349 89.5288 61.1349C89.7917 61.5134 89.8227 62.0066 89.6093 62.4155C89.3957 62.8236 88.9725 63.0799 88.5119 63.0799H74.7049C74.0211 63.0799 73.4668 62.5255 73.4668 61.8418V52.3957C73.4668 51.7119 74.0211 51.1576 74.7049 51.1576H88.5119C88.9733 51.1576 89.3959 51.4138 89.6093 51.8227Z" fill="#323232" stroke="white" stroke-width="0.5"/>
</g>
<defs>
<clipPath id="clip0_1507_665">
<rect width="90" height="90" fill="white"/>
</clipPath>
</defs>
</svg>
