<svg width="390" height="687" viewBox="0 0 390 687" fill="none" xmlns="http://www.w3.org/2000/svg">
<g filter="url(#filter0_dddii_964_2409)">
<rect width="390" height="653.243" transform="translate(0 15)" fill="white"/>
<g filter="url(#filter1_ddddii_964_2409)">
<rect x="128.5" y="90" width="133" height="38" rx="19" fill="white"/>
<path d="M166.62 103.2V112.076H167.67V114.876H166.69V113H159.69V114.876H158.71V112.076H159.508C160.152 111.32 160.474 110.153 160.474 108.576V103.2H166.62ZM160.67 112.076H165.64V104.124H161.454V108.604C161.454 110.144 161.193 111.301 160.67 112.076ZM169.874 106H174.886V113H173.962V106.896H170.798V110.018C170.798 111.185 170.574 111.987 170.126 112.426C169.687 112.865 169.081 113.056 168.306 113V112.132C168.847 112.188 169.244 112.057 169.496 111.74C169.748 111.423 169.874 110.849 169.874 110.018V106ZM179.041 106H181.883V113H180.959V110.312H179.755L177.599 113H176.423L178.635 110.284C178.066 110.2 177.599 109.967 177.235 109.584C176.881 109.192 176.703 108.721 176.703 108.17C176.703 107.545 176.927 107.027 177.375 106.616C177.842 106.205 178.397 106 179.041 106ZM179.041 109.444H180.959V106.896H179.041C178.64 106.896 178.304 107.017 178.033 107.26C177.763 107.493 177.627 107.797 177.627 108.17C177.627 108.543 177.763 108.851 178.033 109.094C178.304 109.327 178.64 109.444 179.041 109.444ZM189.247 109.36L192.999 113H191.767L188.267 109.626V113H187.343V106H188.267V109.094L191.599 106H192.859L189.247 109.36ZM194.989 106H200.001V113H199.077V106.896H195.913V110.018C195.913 111.185 195.689 111.987 195.241 112.426C194.803 112.865 194.196 113.056 193.421 113V112.132C193.963 112.188 194.359 112.057 194.611 111.74C194.863 111.423 194.989 110.849 194.989 110.018V106ZM202.883 111.39L207.055 106H207.839V113H206.915V107.61L202.743 113H201.959V106H202.883V111.39ZM214.749 109.052V106H215.673V113H214.749V109.948H210.717V113H209.793V106H210.717V109.052H214.749ZM218.55 111.39L222.722 106H223.506V113H222.582V107.61L218.41 113H217.626V106H218.55V111.39ZM227.364 109.36L231.116 113H229.884L226.384 109.626V113H225.46V106H226.384V109.094L229.716 106H230.976L227.364 109.36Z" fill="#239FFB"/>
</g>
<g filter="url(#filter2_ddddii_964_2409)">
<rect x="30.5" y="203" width="133" height="38" rx="19" fill="white"/>
<path d="M68.62 216.2V225.076H69.67V227.876H68.69V226H61.69V227.876H60.71V225.076H61.508C62.152 224.32 62.474 223.153 62.474 221.576V216.2H68.62ZM62.67 225.076H67.64V217.124H63.454V221.604C63.454 223.144 63.1927 224.301 62.67 225.076ZM71.874 219H76.886V226H75.962V219.896H72.798V223.018C72.798 224.185 72.574 224.987 72.126 225.426C71.6873 225.865 71.0807 226.056 70.306 226V225.132C70.8473 225.188 71.244 225.057 71.496 224.74C71.748 224.423 71.874 223.849 71.874 223.018V219ZM81.0413 219H83.8833V226H82.9593V223.312H81.7553L79.5993 226H78.4233L80.6353 223.284C80.0659 223.2 79.5993 222.967 79.2353 222.584C78.8806 222.192 78.7033 221.721 78.7033 221.17C78.7033 220.545 78.9273 220.027 79.3753 219.616C79.8419 219.205 80.3973 219 81.0413 219ZM81.0413 222.444H82.9593V219.896H81.0413C80.6399 219.896 80.3039 220.017 80.0333 220.26C79.7626 220.493 79.6273 220.797 79.6273 221.17C79.6273 221.543 79.7626 221.851 80.0333 222.094C80.3039 222.327 80.6399 222.444 81.0413 222.444ZM91.2473 222.36L94.9993 226H93.7673L90.2673 222.626V226H89.3433V219H90.2673V222.094L93.5993 219H94.8593L91.2473 222.36ZM96.9893 219H102.001V226H101.077V219.896H97.9133V223.018C97.9133 224.185 97.6893 224.987 97.2413 225.426C96.8026 225.865 96.1959 226.056 95.4213 226V225.132C95.9626 225.188 96.3593 225.057 96.6113 224.74C96.8633 224.423 96.9893 223.849 96.9893 223.018V219ZM104.883 224.39L109.055 219H109.839V226H108.915V220.61L104.743 226H103.959V219H104.883V224.39ZM116.749 222.052V219H117.673V226H116.749V222.948H112.717V226H111.793V219H112.717V222.052H116.749ZM120.55 224.39L124.722 219H125.506V226H124.582V220.61L120.41 226H119.626V219H120.55V224.39ZM129.364 222.36L133.116 226H131.884L128.384 222.626V226H127.46V219H128.384V222.094L131.716 219H132.976L129.364 222.36Z" fill="#323232"/>
</g>
<g filter="url(#filter3_ddddii_964_2409)">
<rect x="221.5" y="203" width="137" height="38" rx="19" fill="white"/>
<path d="M259.62 216.2V225.076H260.67V227.876H259.69V226H252.69V227.876H251.71V225.076H252.508C253.152 224.32 253.474 223.153 253.474 221.576V216.2H259.62ZM253.67 225.076H258.64V217.124H254.454V221.604C254.454 223.144 254.193 224.301 253.67 225.076ZM262.874 219H267.886V226H266.962V219.896H263.798V223.018C263.798 224.185 263.574 224.987 263.126 225.426C262.687 225.865 262.081 226.056 261.306 226V225.132C261.847 225.188 262.244 225.057 262.496 224.74C262.748 224.423 262.874 223.849 262.874 223.018V219ZM272.041 219H274.883V226H273.959V223.312H272.755L270.599 226H269.423L271.635 223.284C271.066 223.2 270.599 222.967 270.235 222.584C269.881 222.192 269.703 221.721 269.703 221.17C269.703 220.545 269.927 220.027 270.375 219.616C270.842 219.205 271.397 219 272.041 219ZM272.041 222.444H273.959V219.896H272.041C271.64 219.896 271.304 220.017 271.033 220.26C270.763 220.493 270.627 220.797 270.627 221.17C270.627 221.543 270.763 221.851 271.033 222.094C271.304 222.327 271.64 222.444 272.041 222.444ZM284.795 222.402C285.561 222.682 285.943 223.228 285.943 224.04C285.943 224.619 285.747 225.09 285.355 225.454C284.973 225.818 284.436 226 283.745 226H280.343V219H283.465C284.137 219 284.66 219.173 285.033 219.518C285.416 219.863 285.607 220.316 285.607 220.876C285.607 221.576 285.337 222.085 284.795 222.402ZM283.465 219.896H281.267V222.024H283.465C284.277 222.024 284.683 221.66 284.683 220.932C284.683 220.605 284.576 220.353 284.361 220.176C284.156 219.989 283.857 219.896 283.465 219.896ZM281.267 225.104H283.745C284.156 225.104 284.469 225.006 284.683 224.81C284.907 224.614 285.019 224.339 285.019 223.984C285.019 223.648 284.907 223.387 284.683 223.2C284.469 223.013 284.156 222.92 283.745 222.92H281.267V225.104ZM291.095 218.832C292.094 218.832 292.943 219.187 293.643 219.896C294.353 220.605 294.707 221.473 294.707 222.5C294.707 223.527 294.353 224.395 293.643 225.104C292.943 225.813 292.094 226.168 291.095 226.168C289.854 226.168 288.911 225.655 288.267 224.628V228.8H287.343V219H288.267V220.372C288.911 219.345 289.854 218.832 291.095 218.832ZM289.065 224.474C289.597 225.006 290.251 225.272 291.025 225.272C291.8 225.272 292.453 225.006 292.985 224.474C293.517 223.923 293.783 223.265 293.783 222.5C293.783 221.725 293.517 221.072 292.985 220.54C292.453 219.999 291.8 219.728 291.025 219.728C290.251 219.728 289.597 219.999 289.065 220.54C288.533 221.072 288.267 221.725 288.267 222.5C288.267 223.265 288.533 223.923 289.065 224.474ZM302.264 220.372V219H303.188V226H302.264V224.628C301.62 225.655 300.677 226.168 299.436 226.168C298.437 226.168 297.583 225.813 296.874 225.104C296.174 224.395 295.824 223.527 295.824 222.5C295.824 221.473 296.174 220.605 296.874 219.896C297.583 219.187 298.437 218.832 299.436 218.832C300.677 218.832 301.62 219.345 302.264 220.372ZM297.546 224.474C298.078 225.006 298.731 225.272 299.506 225.272C300.28 225.272 300.934 225.006 301.466 224.474C301.998 223.923 302.264 223.265 302.264 222.5C302.264 221.725 301.998 221.072 301.466 220.54C300.934 219.999 300.28 219.728 299.506 219.728C298.731 219.728 298.078 219.999 297.546 220.54C297.014 221.072 296.748 221.725 296.748 222.5C296.748 223.265 297.014 223.923 297.546 224.474ZM309.68 222.486V219H310.604V226H309.68V223.34C309.139 223.62 308.471 223.76 307.678 223.76C306.754 223.76 306.054 223.55 305.578 223.13C305.102 222.701 304.864 222.071 304.864 221.24V219H305.788V221.24C305.788 221.819 305.937 222.239 306.236 222.5C306.544 222.761 307.015 222.892 307.65 222.892C308.359 222.892 309.036 222.757 309.68 222.486ZM315.802 218.832C316.847 218.832 317.683 219.201 318.308 219.938C318.952 220.666 319.274 221.529 319.274 222.528C319.274 222.575 319.265 222.719 319.246 222.962H313.1C313.193 223.662 313.492 224.222 313.996 224.642C314.5 225.062 315.13 225.272 315.886 225.272C316.95 225.272 317.701 224.875 318.14 224.082L318.952 224.558C318.644 225.062 318.219 225.459 317.678 225.748C317.146 226.028 316.544 226.168 315.872 226.168C314.771 226.168 313.875 225.823 313.184 225.132C312.493 224.441 312.148 223.564 312.148 222.5C312.148 221.445 312.489 220.573 313.17 219.882C313.851 219.182 314.729 218.832 315.802 218.832ZM315.802 219.728C315.074 219.728 314.463 219.943 313.968 220.372C313.483 220.801 313.193 221.366 313.1 222.066H318.322C318.219 221.319 317.935 220.745 317.468 220.344C316.983 219.933 316.427 219.728 315.802 219.728ZM325.504 217.88H321.864V217.068H325.504V217.88ZM321.668 224.39L325.84 219H326.624V226H325.7V220.61L321.528 226H320.744V219H321.668V224.39Z" fill="#323232"/>
</g>
<path opacity="0.5" d="M302.5 246V268C302.5 272.418 298.918 276 294.5 276H195.5" stroke="#239FFB" stroke-width="2"/>
<path opacity="0.5" d="M195.5 276V275H196.5V276H195.5ZM195.5 314L189.726 304H201.274L195.5 314ZM87.5 246V268H85.5V246H87.5ZM94.5 275H195.5V277H94.5V275ZM196.5 276V305H194.5V276H196.5ZM87.5 268C87.5 271.866 90.634 275 94.5 275V277C89.5294 277 85.5 272.971 85.5 268H87.5Z" fill="#239FFB"/>
<path opacity="0.5" d="M86.5 198L92.2735 188H80.7265L86.5 198ZM192.5 133V152H194.5V133H192.5ZM185.5 159H94.5V161H185.5V159ZM85.5 168V189H87.5V168H85.5ZM94.5 159C89.5294 159 85.5 163.029 85.5 168H87.5C87.5 164.134 90.634 161 94.5 161V159ZM192.5 152C192.5 155.866 189.366 159 185.5 159V161C190.471 161 194.5 156.971 194.5 152H192.5Z" fill="#239FFB"/>
<path opacity="0.5" d="M302.5 198L296.726 188H308.274L302.5 198ZM197.5 133V152H195.5V133H197.5ZM204.5 159H294.5V161H204.5V159ZM303.5 168V189H301.5V168H303.5ZM294.5 159C299.471 159 303.5 163.029 303.5 168H301.5C301.5 164.134 298.366 161 294.5 161V159ZM197.5 152C197.5 155.866 200.634 159 204.5 159V161C199.529 161 195.5 156.971 195.5 152H197.5Z" fill="#239FFB"/>
<path d="M166.272 343.428C163.758 340.915 163.758 336.84 166.272 334.327L179.714 320.885C182.227 318.372 186.302 318.372 188.815 320.885L192.456 324.526C194.969 327.039 194.969 331.114 192.456 333.627L179.014 347.069C176.5 349.582 172.426 349.582 169.912 347.069L166.272 343.428Z" fill="url(#paint0_linear_964_2409)"/>
<path d="M221.86 343.428C224.374 340.915 224.374 336.84 221.86 334.327L208.418 320.885C205.905 318.372 201.83 318.372 199.317 320.885L195.676 324.526C193.163 327.039 193.163 331.114 195.676 333.627L209.118 347.069C211.632 349.582 215.706 349.582 218.22 347.069L221.86 343.428Z" fill="url(#paint1_linear_964_2409)"/>
<mask id="mask0_964_2409" style="mask-type:alpha" maskUnits="userSpaceOnUse" x="164" y="319" width="60" height="30">
<path d="M166.272 343.428C163.758 340.915 163.758 336.84 166.272 334.327L179.714 320.885C182.227 318.372 186.302 318.372 188.815 320.885L192.456 324.526C194.969 327.039 194.969 331.114 192.456 333.627L179.014 347.069C176.5 349.582 172.426 349.582 169.912 347.069L166.272 343.428Z" fill="url(#paint2_linear_964_2409)"/>
<path d="M221.86 343.428C224.374 340.915 224.374 336.84 221.86 334.327L208.418 320.885C205.905 318.372 201.83 318.372 199.317 320.885L195.676 324.526C193.163 327.039 193.163 331.114 195.676 333.627L209.118 347.069C211.632 349.582 215.706 349.582 218.22 347.069L221.86 343.428Z" fill="url(#paint3_linear_964_2409)"/>
</mask>
<g mask="url(#mask0_964_2409)">
<g filter="url(#filter4_f_964_2409)">
<path d="M181.986 319.398L193.544 330.957L181.986 342.515L170.428 330.956L181.986 319.398Z" fill="black" fill-opacity="0.22"/>
<path d="M206.168 319.398L217.727 330.957L206.168 342.515L194.61 330.956L206.168 319.398Z" fill="black" fill-opacity="0.22"/>
</g>
</g>
<path d="M198.593 347.071C198.594 347.07 198.595 347.07 198.595 347.069L202.236 343.428C202.24 343.425 202.243 343.421 202.247 343.417L212.037 333.627C214.546 331.118 218.612 331.114 221.126 333.614L208.397 320.885C205.883 318.372 201.809 318.372 199.295 320.885L194.044 326.136L188.794 320.885C186.281 318.372 182.206 318.372 179.692 320.885L166.963 333.614C169.477 331.114 173.543 331.118 176.052 333.627L185.827 343.402C185.836 343.411 185.844 343.42 185.853 343.428L189.494 347.069C189.808 347.383 190.147 347.658 190.504 347.894C193.001 349.543 196.394 349.268 198.593 347.071Z" fill="url(#paint4_linear_964_2409)"/>
<path d="M164.946 359.014H166.818V368.242H165.012V362.257L162.415 366.542H162.204L159.607 362.27V368.242H157.788V359.014H159.66L162.31 363.378L164.946 359.014ZM174.866 365.645H169.896C170.115 366.471 170.735 366.884 171.754 366.884C172.405 366.884 172.897 366.665 173.231 366.225L174.602 367.016C173.952 367.957 172.994 368.427 171.728 368.427C170.638 368.427 169.764 368.097 169.105 367.438C168.445 366.779 168.116 365.948 168.116 364.946C168.116 363.962 168.441 363.136 169.091 362.468C169.733 361.8 170.568 361.466 171.596 361.466C172.572 361.466 173.367 361.8 173.982 362.468C174.615 363.136 174.932 363.962 174.932 364.946C174.932 365.131 174.91 365.364 174.866 365.645ZM169.869 364.327H173.231C173.134 363.896 172.937 363.567 172.638 363.338C172.348 363.11 172.001 362.995 171.596 362.995C171.139 362.995 170.761 363.114 170.462 363.351C170.164 363.58 169.966 363.905 169.869 364.327ZM181.064 362.428V359.014H182.764V368.242H181.064V367.464C180.563 368.106 179.851 368.427 178.928 368.427C178.04 368.427 177.28 368.093 176.647 367.425C176.023 366.748 175.711 365.922 175.711 364.946C175.711 363.98 176.023 363.158 176.647 362.481C177.28 361.804 178.04 361.466 178.928 361.466C179.851 361.466 180.563 361.787 181.064 362.428ZM177.926 366.291C178.286 366.634 178.726 366.805 179.244 366.805C179.772 366.805 180.207 366.634 180.55 366.291C180.892 365.94 181.064 365.491 181.064 364.946C181.064 364.401 180.892 363.958 180.55 363.615C180.207 363.263 179.772 363.088 179.244 363.088C178.717 363.088 178.278 363.263 177.926 363.615C177.583 363.958 177.412 364.401 177.412 364.946C177.412 365.491 177.583 365.94 177.926 366.291ZM184.399 359.014H188.064C189.329 359.014 190.384 359.458 191.228 360.345C192.08 361.224 192.506 362.319 192.506 363.628C192.506 364.938 192.08 366.032 191.228 366.911C190.384 367.798 189.329 368.242 188.064 368.242H184.399V359.014ZM186.218 366.502H188.064C188.863 366.502 189.514 366.238 190.015 365.711C190.516 365.166 190.766 364.472 190.766 363.628C190.766 362.776 190.516 362.086 190.015 361.558C189.514 361.022 188.863 360.754 188.064 360.754H186.218V366.502ZM198.727 362.428V361.651H200.428V368.242H198.727V367.464C198.218 368.106 197.501 368.427 196.579 368.427C195.7 368.427 194.944 368.093 194.311 367.425C193.687 366.748 193.375 365.922 193.375 364.946C193.375 363.98 193.687 363.158 194.311 362.481C194.944 361.804 195.7 361.466 196.579 361.466C197.501 361.466 198.218 361.787 198.727 362.428ZM195.59 366.291C195.933 366.634 196.368 366.805 196.895 366.805C197.422 366.805 197.857 366.634 198.2 366.291C198.552 365.94 198.727 365.491 198.727 364.946C198.727 364.401 198.552 363.958 198.2 363.615C197.857 363.263 197.422 363.088 196.895 363.088C196.368 363.088 195.933 363.263 195.59 363.615C195.247 363.958 195.076 364.401 195.076 364.946C195.076 365.491 195.247 365.94 195.59 366.291ZM205.741 361.651V363.285H204.251V366.027C204.251 366.256 204.308 366.423 204.422 366.528C204.536 366.634 204.703 366.695 204.923 366.713C205.143 366.722 205.415 366.717 205.741 366.7V368.242C204.589 368.374 203.767 368.269 203.275 367.926C202.792 367.574 202.55 366.941 202.55 366.027V363.285H201.403V361.651H202.55V360.319L204.251 359.805V361.651H205.741ZM211.743 362.428V361.651H213.444V368.242H211.743V367.464C211.233 368.106 210.517 368.427 209.594 368.427C208.715 368.427 207.96 368.093 207.327 367.425C206.703 366.748 206.391 365.922 206.391 364.946C206.391 363.98 206.703 363.158 207.327 362.481C207.96 361.804 208.715 361.466 209.594 361.466C210.517 361.466 211.233 361.787 211.743 362.428ZM208.606 366.291C208.948 366.634 209.383 366.805 209.911 366.805C210.438 366.805 210.873 366.634 211.216 366.291C211.567 365.94 211.743 365.491 211.743 364.946C211.743 364.401 211.567 363.958 211.216 363.615C210.873 363.263 210.438 363.088 209.911 363.088C209.383 363.088 208.948 363.263 208.606 363.615C208.263 363.958 208.091 364.401 208.091 364.946C208.091 365.491 208.263 365.94 208.606 366.291ZM217.095 367.293C217.095 367.601 216.985 367.864 216.766 368.084C216.546 368.304 216.282 368.414 215.975 368.414C215.667 368.414 215.403 368.304 215.184 368.084C214.964 367.864 214.854 367.601 214.854 367.293C214.854 366.985 214.964 366.722 215.184 366.502C215.403 366.282 215.667 366.172 215.975 366.172C216.282 366.172 216.546 366.282 216.766 366.502C216.985 366.722 217.095 366.985 217.095 367.293ZM226.502 368.242H224.525L223.971 366.581H220.293L219.739 368.242H217.775L221.005 359.014H223.259L226.502 368.242ZM222.139 361.11L220.873 364.88H223.404L222.139 361.11ZM227.399 368.242V359.014H229.218V368.242H227.399Z" fill="#239FFB"/>
<path opacity="0.5" d="M86.5 505.242L92.2735 495.242H80.7265L86.5 505.242ZM192.5 440.242V459.242H194.5V440.242H192.5ZM185.5 466.242H94.5V468.242H185.5V466.242ZM85.5 475.242V496.242H87.5V475.242H85.5ZM94.5 466.242C89.5294 466.242 85.5 470.272 85.5 475.242H87.5C87.5 471.376 90.634 468.242 94.5 468.242V466.242ZM192.5 459.242C192.5 463.108 189.366 466.242 185.5 466.242V468.242C190.471 468.242 194.5 464.213 194.5 459.242H192.5Z" fill="#239FFB"/>
<path opacity="0.5" d="M302.5 505.242L296.726 495.242H308.274L302.5 505.242ZM197.5 440.242V459.242H195.5V440.242H197.5ZM204.5 466.242H294.5V468.242H204.5V466.242ZM303.5 475.242V496.242H301.5V475.242H303.5ZM294.5 466.242C299.471 466.242 303.5 470.272 303.5 475.242H301.5C301.5 471.376 298.366 468.242 294.5 468.242V466.242ZM197.5 459.242C197.5 463.108 200.634 466.242 204.5 466.242V468.242C199.529 468.242 195.5 464.213 195.5 459.242H197.5Z" fill="#239FFB"/>
<g filter="url(#filter5_ddddii_964_2409)">
<rect x="97.5" y="397.242" width="195" height="38" rx="19" fill="white"/>
<path d="M135.62 410.442V419.318H136.67V422.118H135.69V420.242H128.69V422.118H127.71V419.318H128.508C129.152 418.562 129.474 417.396 129.474 415.818V410.442H135.62ZM129.67 419.318H134.64V411.366H130.454V415.846C130.454 417.386 130.193 418.544 129.67 419.318ZM138.874 413.242H143.886V420.242H142.962V414.138H139.798V417.26C139.798 418.427 139.574 419.23 139.126 419.668C138.687 420.107 138.081 420.298 137.306 420.242V419.374C137.847 419.43 138.244 419.3 138.496 418.982C138.748 418.665 138.874 418.091 138.874 417.26V413.242ZM148.041 413.242H150.883V420.242H149.959V417.554H148.755L146.599 420.242H145.423L147.635 417.526C147.066 417.442 146.599 417.209 146.235 416.826C145.881 416.434 145.703 415.963 145.703 415.412C145.703 414.787 145.927 414.269 146.375 413.858C146.842 413.448 147.397 413.242 148.041 413.242ZM148.041 416.686H149.959V414.138H148.041C147.64 414.138 147.304 414.26 147.033 414.502C146.763 414.736 146.627 415.039 146.627 415.412C146.627 415.786 146.763 416.094 147.033 416.336C147.304 416.57 147.64 416.686 148.041 416.686ZM159.955 416.644C160.767 416.952 161.173 417.512 161.173 418.324C161.173 418.912 160.945 419.407 160.487 419.808C160.049 420.21 159.405 420.41 158.555 420.41C157.137 420.41 156.213 419.85 155.783 418.73L156.567 418.268C156.866 419.099 157.529 419.514 158.555 419.514C159.087 419.514 159.503 419.402 159.801 419.178C160.1 418.945 160.249 418.642 160.249 418.268C160.249 417.932 160.128 417.666 159.885 417.47C159.643 417.265 159.316 417.162 158.905 417.162H157.883V416.266H158.625C159.027 416.266 159.339 416.168 159.563 415.972C159.797 415.767 159.913 415.487 159.913 415.132C159.913 414.796 159.773 414.521 159.493 414.306C159.223 414.082 158.863 413.97 158.415 413.97C157.547 413.97 156.964 414.32 156.665 415.02L155.895 414.572C156.362 413.574 157.202 413.074 158.415 413.074C159.162 413.074 159.75 413.27 160.179 413.662C160.618 414.045 160.837 414.516 160.837 415.076C160.837 415.795 160.543 416.318 159.955 416.644ZM168.321 413.242V419.346H169.301V422.118H168.377V420.242H162.665V422.118H161.741V419.346H162.595C163.071 418.712 163.309 417.83 163.309 416.7V413.242H168.321ZM163.715 419.346H167.397V414.138H164.233V416.7C164.233 417.783 164.06 418.665 163.715 419.346ZM176.291 419.36C175.573 420.06 174.705 420.41 173.687 420.41C172.651 420.41 171.779 420.06 171.069 419.36C170.36 418.651 170.005 417.778 170.005 416.742C170.005 415.706 170.36 414.838 171.069 414.138C171.779 413.429 172.651 413.074 173.687 413.074C174.714 413.074 175.582 413.429 176.291 414.138C177.01 414.838 177.369 415.706 177.369 416.742C177.369 417.769 177.01 418.642 176.291 419.36ZM171.727 418.716C172.259 419.248 172.913 419.514 173.687 419.514C174.462 419.514 175.115 419.248 175.647 418.716C176.179 418.166 176.445 417.508 176.445 416.742C176.445 415.968 176.179 415.314 175.647 414.782C175.115 414.241 174.462 413.97 173.687 413.97C172.913 413.97 172.259 414.241 171.727 414.782C171.195 415.314 170.929 415.968 170.929 416.742C170.929 417.508 171.195 418.166 171.727 418.716ZM182.668 413.074C183.666 413.074 184.516 413.429 185.216 414.138C185.925 414.848 186.28 415.716 186.28 416.742C186.28 417.769 185.925 418.637 185.216 419.346C184.516 420.056 183.666 420.41 182.668 420.41C181.426 420.41 180.484 419.897 179.84 418.87V423.042H178.916V413.242H179.84V414.614C180.484 413.588 181.426 413.074 182.668 413.074ZM180.638 418.716C181.17 419.248 181.823 419.514 182.598 419.514C183.372 419.514 184.026 419.248 184.558 418.716C185.09 418.166 185.356 417.508 185.356 416.742C185.356 415.968 185.09 415.314 184.558 414.782C184.026 414.241 183.372 413.97 182.598 413.97C181.823 413.97 181.17 414.241 180.638 414.782C180.106 415.314 179.84 415.968 179.84 416.742C179.84 417.508 180.106 418.166 180.638 418.716ZM193.682 419.36C192.963 420.06 192.095 420.41 191.078 420.41C190.042 420.41 189.169 420.06 188.46 419.36C187.751 418.651 187.396 417.778 187.396 416.742C187.396 415.706 187.751 414.838 188.46 414.138C189.169 413.429 190.042 413.074 191.078 413.074C192.105 413.074 192.973 413.429 193.682 414.138C194.401 414.838 194.76 415.706 194.76 416.742C194.76 417.769 194.401 418.642 193.682 419.36ZM189.118 418.716C189.65 419.248 190.303 419.514 191.078 419.514C191.853 419.514 192.506 419.248 193.038 418.716C193.57 418.166 193.836 417.508 193.836 416.742C193.836 415.968 193.57 415.314 193.038 414.782C192.506 414.241 191.853 413.97 191.078 413.97C190.303 413.97 189.65 414.241 189.118 414.782C188.586 415.314 188.32 415.968 188.32 416.742C188.32 417.508 188.586 418.166 189.118 418.716ZM200.758 416.644C201.524 416.924 201.906 417.47 201.906 418.282C201.906 418.861 201.71 419.332 201.318 419.696C200.936 420.06 200.399 420.242 199.708 420.242H196.306V413.242H199.428C200.1 413.242 200.623 413.415 200.996 413.76C201.379 414.106 201.57 414.558 201.57 415.118C201.57 415.818 201.3 416.327 200.758 416.644ZM199.428 414.138H197.23V416.266H199.428C200.24 416.266 200.646 415.902 200.646 415.174C200.646 414.848 200.539 414.596 200.324 414.418C200.119 414.232 199.82 414.138 199.428 414.138ZM197.23 419.346H199.708C200.119 419.346 200.432 419.248 200.646 419.052C200.87 418.856 200.982 418.581 200.982 418.226C200.982 417.89 200.87 417.629 200.646 417.442C200.432 417.256 200.119 417.162 199.708 417.162H197.23V419.346ZM204.23 415.902H206.148C206.792 415.902 207.343 416.108 207.8 416.518C208.258 416.92 208.486 417.438 208.486 418.072C208.486 418.716 208.258 419.239 207.8 419.64C207.362 420.042 206.811 420.242 206.148 420.242H203.306V413.242H204.23V415.902ZM204.23 419.346H206.148C206.55 419.346 206.886 419.23 207.156 418.996C207.427 418.754 207.562 418.446 207.562 418.072C207.562 417.699 207.427 417.396 207.156 417.162C206.886 416.92 206.55 416.798 206.148 416.798H204.23V419.346ZM211.657 413.242H214.499V420.242H213.575V417.554H212.371L210.215 420.242H209.039L211.251 417.526C210.681 417.442 210.215 417.209 209.851 416.826C209.496 416.434 209.319 415.963 209.319 415.412C209.319 414.787 209.543 414.269 209.991 413.858C210.457 413.448 211.013 413.242 211.657 413.242ZM211.657 416.686H213.575V414.138H211.657C211.255 414.138 210.919 414.26 210.649 414.502C210.378 414.736 210.243 415.039 210.243 415.412C210.243 415.786 210.378 416.094 210.649 416.336C210.919 416.57 211.255 416.686 211.657 416.686ZM220.687 413.242H225.699V420.242H224.775V414.138H221.611V417.26C221.611 418.427 221.387 419.23 220.939 419.668C220.5 420.107 219.893 420.298 219.119 420.242V419.374C219.66 419.43 220.057 419.3 220.309 418.982C220.561 418.665 220.687 418.091 220.687 417.26V413.242ZM233.634 413.074C234.66 413.074 235.528 413.429 236.238 414.138C236.956 414.838 237.316 415.706 237.316 416.742C237.316 417.769 236.956 418.642 236.238 419.36C235.519 420.06 234.651 420.41 233.634 420.41C232.7 420.41 231.888 420.107 231.198 419.5C230.516 418.875 230.129 418.105 230.036 417.19H228.58V420.242H227.656V413.242H228.58V416.294H230.036C230.138 415.37 230.526 414.605 231.198 413.998C231.879 413.382 232.691 413.074 233.634 413.074ZM231.674 418.716C232.206 419.248 232.859 419.514 233.634 419.514C234.408 419.514 235.062 419.248 235.594 418.716C236.126 418.166 236.392 417.508 236.392 416.742C236.392 415.968 236.126 415.314 235.594 414.782C235.062 414.241 234.408 413.97 233.634 413.97C232.859 413.97 232.206 414.241 231.674 414.782C231.142 415.314 230.876 415.968 230.876 416.742C230.876 417.508 231.142 418.166 231.674 418.716ZM244.46 413.242V419.346H245.44V422.118H244.516V420.242H238.804V422.118H237.88V419.346H238.734C239.21 418.712 239.448 417.83 239.448 416.7V413.242H244.46ZM239.854 419.346H243.536V414.138H240.372V416.7C240.372 417.783 240.199 418.665 239.854 419.346ZM249.798 413.074C250.843 413.074 251.679 413.443 252.304 414.18C252.948 414.908 253.27 415.772 253.27 416.77C253.27 416.817 253.261 416.962 253.242 417.204H247.096C247.189 417.904 247.488 418.464 247.992 418.884C248.496 419.304 249.126 419.514 249.882 419.514C250.946 419.514 251.697 419.118 252.136 418.324L252.948 418.8C252.64 419.304 252.215 419.701 251.674 419.99C251.142 420.27 250.54 420.41 249.868 420.41C248.767 420.41 247.871 420.065 247.18 419.374C246.489 418.684 246.144 417.806 246.144 416.742C246.144 415.688 246.485 414.815 247.166 414.124C247.847 413.424 248.725 413.074 249.798 413.074ZM249.798 413.97C249.07 413.97 248.459 414.185 247.964 414.614C247.479 415.044 247.189 415.608 247.096 416.308H252.318C252.215 415.562 251.931 414.988 251.464 414.586C250.979 414.176 250.423 413.97 249.798 413.97ZM259.5 412.122H255.86V411.31H259.5V412.122ZM255.664 418.632L259.836 413.242H260.62V420.242H259.696V414.852L255.524 420.242H254.74V413.242H255.664V418.632Z" fill="#239FFB"/>
</g>
<g filter="url(#filter6_ddddii_964_2409)">
<rect x="6.5" y="510.242" width="153" height="56" rx="28" fill="white"/>
<path d="M42.872 523.442H49.872V533.242H48.892V524.366H43.852V533.242H42.872V523.442ZM55.7261 526.074C56.7248 526.074 57.5741 526.429 58.2741 527.138C58.9835 527.848 59.3381 528.716 59.3381 529.742C59.3381 530.769 58.9835 531.637 58.2741 532.346C57.5741 533.056 56.7248 533.41 55.7261 533.41C54.4848 533.41 53.5421 532.897 52.8981 531.87V536.042H51.9741V526.242H52.8981V527.614C53.5421 526.588 54.4848 526.074 55.7261 526.074ZM53.6961 531.716C54.2281 532.248 54.8815 532.514 55.6561 532.514C56.4308 532.514 57.0841 532.248 57.6161 531.716C58.1481 531.166 58.4141 530.508 58.4141 529.742C58.4141 528.968 58.1481 528.314 57.6161 527.782C57.0841 527.241 56.4308 526.97 55.6561 526.97C54.8815 526.97 54.2281 527.241 53.6961 527.782C53.1641 528.314 52.8981 528.968 52.8981 529.742C52.8981 530.508 53.1641 531.166 53.6961 531.716ZM61.7985 531.632L65.9705 526.242H66.7545V533.242H65.8305V527.852L61.6585 533.242H60.8745V526.242H61.7985V531.632ZM69.4365 526.242H74.4485V533.242H73.5245V527.138H70.3605V530.26C70.3605 531.427 70.1365 532.23 69.6885 532.668C69.2498 533.107 68.6432 533.298 67.8685 533.242V532.374C68.4098 532.43 68.8065 532.3 69.0585 531.982C69.3105 531.665 69.4365 531.091 69.4365 530.26V526.242ZM82.2718 532.36C81.5531 533.06 80.6851 533.41 79.6678 533.41C78.6318 533.41 77.7591 533.06 77.0498 532.36C76.3404 531.651 75.9858 530.778 75.9858 529.742C75.9858 528.706 76.3404 527.838 77.0498 527.138C77.7591 526.429 78.6318 526.074 79.6678 526.074C80.6944 526.074 81.5624 526.429 82.2718 527.138C82.9904 527.838 83.3498 528.706 83.3498 529.742C83.3498 530.769 82.9904 531.642 82.2718 532.36ZM77.7078 531.716C78.2398 532.248 78.8931 532.514 79.6678 532.514C80.4424 532.514 81.0958 532.248 81.6278 531.716C82.1598 531.166 82.4258 530.508 82.4258 529.742C82.4258 528.968 82.1598 528.314 81.6278 527.782C81.0958 527.241 80.4424 526.97 79.6678 526.97C78.8931 526.97 78.2398 527.241 77.7078 527.782C77.1758 528.314 76.9098 528.968 76.9098 529.742C76.9098 530.508 77.1758 531.166 77.7078 531.716ZM89.3755 529.602L92.5115 533.242H91.3915L88.5355 529.868V533.242H87.6115V529.868L84.7555 533.242H83.6355L86.7715 529.602L83.7755 526.242H84.8955L87.6115 529.35V526.242H88.5355V529.35L91.2515 526.242H92.3715L89.3755 529.602ZM96.4425 526.074C97.4878 526.074 98.3232 526.443 98.9485 527.18C99.5925 527.908 99.9145 528.772 99.9145 529.77C99.9145 529.817 99.9052 529.962 99.8865 530.204H93.7405C93.8338 530.904 94.1325 531.464 94.6365 531.884C95.1405 532.304 95.7705 532.514 96.5265 532.514C97.5905 532.514 98.3418 532.118 98.7805 531.324L99.5925 531.8C99.2845 532.304 98.8598 532.701 98.3185 532.99C97.7865 533.27 97.1845 533.41 96.5125 533.41C95.4112 533.41 94.5152 533.065 93.8245 532.374C93.1338 531.684 92.7885 530.806 92.7885 529.742C92.7885 528.688 93.1292 527.815 93.8105 527.124C94.4918 526.424 95.3692 526.074 96.4425 526.074ZM96.4425 526.97C95.7145 526.97 95.1032 527.185 94.6085 527.614C94.1232 528.044 93.8338 528.608 93.7405 529.308H98.9625C98.8598 528.562 98.5752 527.988 98.1085 527.586C97.6232 527.176 97.0678 526.97 96.4425 526.97ZM106.34 529.294V526.242H107.264V533.242H106.34V530.19H102.308V533.242H101.384V526.242H102.308V529.294H106.34ZM110.142 531.632L114.314 526.242H115.098V533.242H114.174V527.852L110.002 533.242H109.218V526.242H110.142V531.632ZM120.286 526.074C121.332 526.074 122.167 526.443 122.792 527.18C123.436 527.908 123.758 528.772 123.758 529.77C123.758 529.817 123.749 529.962 123.73 530.204H117.584C117.678 530.904 117.976 531.464 118.48 531.884C118.984 532.304 119.614 532.514 120.37 532.514C121.434 532.514 122.186 532.118 122.624 531.324L123.436 531.8C123.128 532.304 122.704 532.701 122.162 532.99C121.63 533.27 121.028 533.41 120.356 533.41C119.255 533.41 118.359 533.065 117.668 532.374C116.978 531.684 116.632 530.806 116.632 529.742C116.632 528.688 116.973 527.815 117.654 527.124C118.336 526.424 119.213 526.074 120.286 526.074ZM120.286 526.97C119.558 526.97 118.947 527.185 118.452 527.614C117.967 528.044 117.678 528.608 117.584 529.308H122.806C122.704 528.562 122.419 527.988 121.952 527.586C121.467 527.176 120.912 526.97 120.286 526.97ZM46.5748 544.242V550.346H47.5548V553.118H46.6308V551.242H40.9188V553.118H39.9948V550.346H40.8488C41.3248 549.712 41.5628 548.83 41.5628 547.7V544.242H46.5748ZM41.9688 550.346H45.6508V545.138H42.4868V547.7C42.4868 548.783 42.3142 549.665 41.9688 550.346ZM49.6807 544.242H54.6927V551.242H53.7687V545.138H50.6047V548.26C50.6047 549.427 50.3807 550.23 49.9327 550.668C49.494 551.107 48.8873 551.298 48.1127 551.242V550.374C48.654 550.43 49.0507 550.3 49.3027 549.982C49.5547 549.665 49.6807 549.091 49.6807 548.26V544.242ZM58.8479 544.242H61.6899V551.242H60.7659V548.554H59.5619L57.4059 551.242H56.2299L58.4419 548.526C57.8726 548.442 57.4059 548.209 57.0419 547.826C56.6873 547.434 56.5099 546.963 56.5099 546.412C56.5099 545.787 56.7339 545.269 57.1819 544.858C57.6486 544.448 58.2039 544.242 58.8479 544.242ZM58.8479 547.686H60.7659V545.138H58.8479C58.4466 545.138 58.1106 545.26 57.8399 545.502C57.5693 545.736 57.4339 546.039 57.4339 546.412C57.4339 546.786 57.5693 547.094 57.8399 547.336C58.1106 547.57 58.4466 547.686 58.8479 547.686ZM70.7619 547.644C71.5739 547.952 71.9799 548.512 71.9799 549.324C71.9799 549.912 71.7513 550.407 71.2939 550.808C70.8553 551.21 70.2113 551.41 69.3619 551.41C67.9433 551.41 67.0193 550.85 66.5899 549.73L67.3739 549.268C67.6726 550.099 68.3353 550.514 69.3619 550.514C69.8939 550.514 70.3093 550.402 70.6079 550.178C70.9066 549.945 71.0559 549.642 71.0559 549.268C71.0559 548.932 70.9346 548.666 70.6919 548.47C70.4493 548.265 70.1226 548.162 69.7119 548.162H68.6899V547.266H69.4319C69.8333 547.266 70.1459 547.168 70.3699 546.972C70.6033 546.767 70.7199 546.487 70.7199 546.132C70.7199 545.796 70.5799 545.521 70.2999 545.306C70.0293 545.082 69.6699 544.97 69.2219 544.97C68.3539 544.97 67.7706 545.32 67.4719 546.02L66.7019 545.572C67.1686 544.574 68.0086 544.074 69.2219 544.074C69.9686 544.074 70.5566 544.27 70.9859 544.662C71.4246 545.045 71.6439 545.516 71.6439 546.076C71.6439 546.795 71.3499 547.318 70.7619 547.644ZM79.1276 544.242V550.346H80.1076V553.118H79.1836V551.242H73.4716V553.118H72.5476V550.346H73.4016C73.8776 549.712 74.1156 548.83 74.1156 547.7V544.242H79.1276ZM74.5216 550.346H78.2036V545.138H75.0396V547.7C75.0396 548.783 74.8669 549.665 74.5216 550.346ZM87.098 550.36C86.3793 551.06 85.5113 551.41 84.494 551.41C83.458 551.41 82.5853 551.06 81.876 550.36C81.1666 549.651 80.812 548.778 80.812 547.742C80.812 546.706 81.1666 545.838 81.876 545.138C82.5853 544.429 83.458 544.074 84.494 544.074C85.5206 544.074 86.3886 544.429 87.098 545.138C87.8166 545.838 88.176 546.706 88.176 547.742C88.176 548.769 87.8166 549.642 87.098 550.36ZM82.534 549.716C83.066 550.248 83.7193 550.514 84.494 550.514C85.2686 550.514 85.922 550.248 86.454 549.716C86.986 549.166 87.252 548.508 87.252 547.742C87.252 546.968 86.986 546.314 86.454 545.782C85.922 545.241 85.2686 544.97 84.494 544.97C83.7193 544.97 83.066 545.241 82.534 545.782C82.002 546.314 81.736 546.968 81.736 547.742C81.736 548.508 82.002 549.166 82.534 549.716ZM93.4742 544.074C94.4729 544.074 95.3222 544.429 96.0222 545.138C96.7315 545.848 97.0862 546.716 97.0862 547.742C97.0862 548.769 96.7315 549.637 96.0222 550.346C95.3222 551.056 94.4729 551.41 93.4742 551.41C92.2329 551.41 91.2902 550.897 90.6462 549.87V554.042H89.7222V544.242H90.6462V545.614C91.2902 544.588 92.2329 544.074 93.4742 544.074ZM91.4442 549.716C91.9762 550.248 92.6295 550.514 93.4042 550.514C94.1789 550.514 94.8322 550.248 95.3642 549.716C95.8962 549.166 96.1622 548.508 96.1622 547.742C96.1622 546.968 95.8962 546.314 95.3642 545.782C94.8322 545.241 94.1789 544.97 93.4042 544.97C92.6295 544.97 91.9762 545.241 91.4442 545.782C90.9122 546.314 90.6462 546.968 90.6462 547.742C90.6462 548.508 90.9122 549.166 91.4442 549.716ZM104.489 550.36C103.77 551.06 102.902 551.41 101.885 551.41C100.849 551.41 99.9759 551.06 99.2666 550.36C98.5572 549.651 98.2026 548.778 98.2026 547.742C98.2026 546.706 98.5572 545.838 99.2666 545.138C99.9759 544.429 100.849 544.074 101.885 544.074C102.911 544.074 103.779 544.429 104.489 545.138C105.207 545.838 105.567 546.706 105.567 547.742C105.567 548.769 105.207 549.642 104.489 550.36ZM99.9246 549.716C100.457 550.248 101.11 550.514 101.885 550.514C102.659 550.514 103.313 550.248 103.845 549.716C104.377 549.166 104.643 548.508 104.643 547.742C104.643 546.968 104.377 546.314 103.845 545.782C103.313 545.241 102.659 544.97 101.885 544.97C101.11 544.97 100.457 545.241 99.9246 545.782C99.3926 546.314 99.1266 546.968 99.1266 547.742C99.1266 548.508 99.3926 549.166 99.9246 549.716ZM111.565 547.644C112.33 547.924 112.713 548.47 112.713 549.282C112.713 549.861 112.517 550.332 112.125 550.696C111.742 551.06 111.205 551.242 110.515 551.242H107.113V544.242H110.235C110.907 544.242 111.429 544.415 111.803 544.76C112.185 545.106 112.377 545.558 112.377 546.118C112.377 546.818 112.106 547.327 111.565 547.644ZM110.235 545.138H108.037V547.266H110.235C111.047 547.266 111.453 546.902 111.453 546.174C111.453 545.848 111.345 545.596 111.131 545.418C110.925 545.232 110.627 545.138 110.235 545.138ZM108.037 550.346H110.515C110.925 550.346 111.238 550.248 111.453 550.052C111.677 549.856 111.789 549.581 111.789 549.226C111.789 548.89 111.677 548.629 111.453 548.442C111.238 548.256 110.925 548.162 110.515 548.162H108.037V550.346ZM115.037 546.902H116.955C117.599 546.902 118.149 547.108 118.607 547.518C119.064 547.92 119.293 548.438 119.293 549.072C119.293 549.716 119.064 550.239 118.607 550.64C118.168 551.042 117.617 551.242 116.955 551.242H114.113V544.242H115.037V546.902ZM115.037 550.346H116.955C117.356 550.346 117.692 550.23 117.963 549.996C118.233 549.754 118.369 549.446 118.369 549.072C118.369 548.699 118.233 548.396 117.963 548.162C117.692 547.92 117.356 547.798 116.955 547.798H115.037V550.346ZM122.463 544.242H125.305V551.242H124.381V548.554H123.177L121.021 551.242H119.845L122.057 548.526C121.488 548.442 121.021 548.209 120.657 547.826C120.302 547.434 120.125 546.963 120.125 546.412C120.125 545.787 120.349 545.269 120.797 544.858C121.264 544.448 121.819 544.242 122.463 544.242ZM122.463 547.686H124.381V545.138H122.463C122.062 545.138 121.726 545.26 121.455 545.502C121.184 545.736 121.049 546.039 121.049 546.412C121.049 546.786 121.184 547.094 121.455 547.336C121.726 547.57 122.062 547.686 122.463 547.686Z" fill="#323232"/>
</g>
<g filter="url(#filter7_ddddii_964_2409)">
<rect x="169.5" y="510.242" width="214" height="56" rx="28" fill="white"/>
<path d="M211.919 528.202L216.763 533.242H215.475L210.883 528.496V533.242H209.903V523.442H210.883V527.922L215.335 523.442H216.623L211.919 528.202ZM221.636 526.074C222.635 526.074 223.484 526.429 224.184 527.138C224.894 527.848 225.248 528.716 225.248 529.742C225.248 530.769 224.894 531.637 224.184 532.346C223.484 533.056 222.635 533.41 221.636 533.41C220.395 533.41 219.452 532.897 218.808 531.87V536.042H217.884V526.242H218.808V527.614C219.452 526.588 220.395 526.074 221.636 526.074ZM219.606 531.716C220.138 532.248 220.792 532.514 221.566 532.514C222.341 532.514 222.994 532.248 223.526 531.716C224.058 531.166 224.324 530.508 224.324 529.742C224.324 528.968 224.058 528.314 223.526 527.782C222.994 527.241 222.341 526.97 221.566 526.97C220.792 526.97 220.138 527.241 219.606 527.782C219.074 528.314 218.808 528.968 218.808 529.742C218.808 530.508 219.074 531.166 219.606 531.716ZM227.709 531.632L231.881 526.242H232.665V533.242H231.741V527.852L227.569 533.242H226.785V526.242H227.709V531.632ZM234.619 526.242H240.499V533.242H239.575V527.138H235.543V533.242H234.619V526.242ZM241.613 526.242H247.493V527.138H245.015V533.242H244.091V527.138H241.613V526.242ZM254.211 532.36C253.493 533.06 252.625 533.41 251.607 533.41C250.571 533.41 249.699 533.06 248.989 532.36C248.28 531.651 247.925 530.778 247.925 529.742C247.925 528.706 248.28 527.838 248.989 527.138C249.699 526.429 250.571 526.074 251.607 526.074C252.634 526.074 253.502 526.429 254.211 527.138C254.93 527.838 255.289 528.706 255.289 529.742C255.289 530.769 254.93 531.642 254.211 532.36ZM249.647 531.716C250.179 532.248 250.833 532.514 251.607 532.514C252.382 532.514 253.035 532.248 253.567 531.716C254.099 531.166 254.365 530.508 254.365 529.742C254.365 528.968 254.099 528.314 253.567 527.782C253.035 527.241 252.382 526.97 251.607 526.97C250.833 526.97 250.179 527.241 249.647 527.782C249.115 528.314 248.849 528.968 248.849 529.742C248.849 530.508 249.115 531.166 249.647 531.716ZM262.015 529.364H256.975V528.468H262.015V529.364ZM264.109 526.242H269.989V533.242H269.065V527.138H265.033V533.242H264.109V526.242ZM275.695 526.074C276.694 526.074 277.543 526.429 278.243 527.138C278.952 527.848 279.307 528.716 279.307 529.742C279.307 530.769 278.952 531.637 278.243 532.346C277.543 533.056 276.694 533.41 275.695 533.41C274.454 533.41 273.511 532.897 272.867 531.87V536.042H271.943V526.242H272.867V527.614C273.511 526.588 274.454 526.074 275.695 526.074ZM273.665 531.716C274.197 532.248 274.85 532.514 275.625 532.514C276.4 532.514 277.053 532.248 277.585 531.716C278.117 531.166 278.383 530.508 278.383 529.742C278.383 528.968 278.117 528.314 277.585 527.782C277.053 527.241 276.4 526.97 275.625 526.97C274.85 526.97 274.197 527.241 273.665 527.782C273.133 528.314 272.867 528.968 272.867 529.742C272.867 530.508 273.133 531.166 273.665 531.716ZM281.767 531.632L285.939 526.242H286.723V533.242H285.799V527.852L281.627 533.242H280.843V526.242H281.767V531.632ZM289.405 526.242H294.417V533.242H293.493V527.138H290.329V530.26C290.329 531.427 290.105 532.23 289.657 532.668C289.219 533.107 288.612 533.298 287.837 533.242V532.374C288.379 532.43 288.775 532.3 289.027 531.982C289.279 531.665 289.405 531.091 289.405 530.26V526.242ZM302.241 532.36C301.522 533.06 300.654 533.41 299.637 533.41C298.601 533.41 297.728 533.06 297.019 532.36C296.309 531.651 295.955 530.778 295.955 529.742C295.955 528.706 296.309 527.838 297.019 527.138C297.728 526.429 298.601 526.074 299.637 526.074C300.663 526.074 301.531 526.429 302.241 527.138C302.959 527.838 303.319 528.706 303.319 529.742C303.319 530.769 302.959 531.642 302.241 532.36ZM297.677 531.716C298.209 532.248 298.862 532.514 299.637 532.514C300.411 532.514 301.065 532.248 301.597 531.716C302.129 531.166 302.395 530.508 302.395 529.742C302.395 528.968 302.129 528.314 301.597 527.782C301.065 527.241 300.411 526.97 299.637 526.97C298.862 526.97 298.209 527.241 297.677 527.782C297.145 528.314 296.879 528.968 296.879 529.742C296.879 530.508 297.145 531.166 297.677 531.716ZM309.344 529.602L312.48 533.242H311.36L308.504 529.868V533.242H307.58V529.868L304.724 533.242H303.604L306.74 529.602L303.744 526.242H304.864L307.58 529.35V526.242H308.504V529.35L311.22 526.242H312.34L309.344 529.602ZM316.411 526.074C317.457 526.074 318.292 526.443 318.917 527.18C319.561 527.908 319.883 528.772 319.883 529.77C319.883 529.817 319.874 529.962 319.855 530.204H313.709C313.803 530.904 314.101 531.464 314.605 531.884C315.109 532.304 315.739 532.514 316.495 532.514C317.559 532.514 318.311 532.118 318.749 531.324L319.561 531.8C319.253 532.304 318.829 532.701 318.287 532.99C317.755 533.27 317.153 533.41 316.481 533.41C315.38 533.41 314.484 533.065 313.793 532.374C313.103 531.684 312.757 530.806 312.757 529.742C312.757 528.688 313.098 527.815 313.779 527.124C314.461 526.424 315.338 526.074 316.411 526.074ZM316.411 526.97C315.683 526.97 315.072 527.185 314.577 527.614C314.092 528.044 313.803 528.608 313.709 529.308H318.931C318.829 528.562 318.544 527.988 318.077 527.586C317.592 527.176 317.037 526.97 316.411 526.97ZM326.309 529.294V526.242H327.233V533.242H326.309V530.19H322.277V533.242H321.353V526.242H322.277V529.294H326.309ZM330.111 531.632L334.283 526.242H335.067V533.242H334.143V527.852L329.971 533.242H329.187V526.242H330.111V531.632ZM340.255 526.074C341.3 526.074 342.136 526.443 342.761 527.18C343.405 527.908 343.727 528.772 343.727 529.77C343.727 529.817 343.718 529.962 343.699 530.204H337.553C337.646 530.904 337.945 531.464 338.449 531.884C338.953 532.304 339.583 532.514 340.339 532.514C341.403 532.514 342.154 532.118 342.593 531.324L343.405 531.8C343.097 532.304 342.672 532.701 342.131 532.99C341.599 533.27 340.997 533.41 340.325 533.41C339.224 533.41 338.328 533.065 337.637 532.374C336.946 531.684 336.601 530.806 336.601 529.742C336.601 528.688 336.942 527.815 337.623 527.124C338.304 526.424 339.182 526.074 340.255 526.074ZM340.255 526.97C339.527 526.97 338.916 527.185 338.421 527.614C337.936 528.044 337.646 528.608 337.553 529.308H342.775C342.672 528.562 342.388 527.988 341.921 527.586C341.436 527.176 340.88 526.97 340.255 526.97ZM216.198 547.644C217.01 547.952 217.416 548.512 217.416 549.324C217.416 549.912 217.188 550.407 216.73 550.808C216.292 551.21 215.648 551.41 214.798 551.41C213.38 551.41 212.456 550.85 212.026 549.73L212.81 549.268C213.109 550.099 213.772 550.514 214.798 550.514C215.33 550.514 215.746 550.402 216.044 550.178C216.343 549.945 216.492 549.642 216.492 549.268C216.492 548.932 216.371 548.666 216.128 548.47C215.886 548.265 215.559 548.162 215.148 548.162H214.126V547.266H214.868C215.27 547.266 215.582 547.168 215.806 546.972C216.04 546.767 216.156 546.487 216.156 546.132C216.156 545.796 216.016 545.521 215.736 545.306C215.466 545.082 215.106 544.97 214.658 544.97C213.79 544.97 213.207 545.32 212.908 546.02L212.138 545.572C212.605 544.574 213.445 544.074 214.658 544.074C215.405 544.074 215.993 544.27 216.422 544.662C216.861 545.045 217.08 545.516 217.08 546.076C217.08 546.795 216.786 547.318 216.198 547.644ZM224.564 544.242V550.346H225.544V553.118H224.62V551.242H218.908V553.118H217.984V550.346H218.838C219.314 549.712 219.552 548.83 219.552 547.7V544.242H224.564ZM219.958 550.346H223.64V545.138H220.476V547.7C220.476 548.783 220.303 549.665 219.958 550.346ZM232.534 550.36C231.816 551.06 230.948 551.41 229.93 551.41C228.894 551.41 228.022 551.06 227.312 550.36C226.603 549.651 226.248 548.778 226.248 547.742C226.248 546.706 226.603 545.838 227.312 545.138C228.022 544.429 228.894 544.074 229.93 544.074C230.957 544.074 231.825 544.429 232.534 545.138C233.253 545.838 233.612 546.706 233.612 547.742C233.612 548.769 233.253 549.642 232.534 550.36ZM227.97 549.716C228.502 550.248 229.156 550.514 229.93 550.514C230.705 550.514 231.358 550.248 231.89 549.716C232.422 549.166 232.688 548.508 232.688 547.742C232.688 546.968 232.422 546.314 231.89 545.782C231.358 545.241 230.705 544.97 229.93 544.97C229.156 544.97 228.502 545.241 227.97 545.782C227.438 546.314 227.172 546.968 227.172 547.742C227.172 548.508 227.438 549.166 227.97 549.716ZM238.911 544.074C239.909 544.074 240.759 544.429 241.459 545.138C242.168 545.848 242.523 546.716 242.523 547.742C242.523 548.769 242.168 549.637 241.459 550.346C240.759 551.056 239.909 551.41 238.911 551.41C237.669 551.41 236.727 550.897 236.083 549.87V554.042H235.159V544.242H236.083V545.614C236.727 544.588 237.669 544.074 238.911 544.074ZM236.881 549.716C237.413 550.248 238.066 550.514 238.841 550.514C239.615 550.514 240.269 550.248 240.801 549.716C241.333 549.166 241.599 548.508 241.599 547.742C241.599 546.968 241.333 546.314 240.801 545.782C240.269 545.241 239.615 544.97 238.841 544.97C238.066 544.97 237.413 545.241 236.881 545.782C236.349 546.314 236.083 546.968 236.083 547.742C236.083 548.508 236.349 549.166 236.881 549.716ZM249.925 550.36C249.206 551.06 248.338 551.41 247.321 551.41C246.285 551.41 245.412 551.06 244.703 550.36C243.994 549.651 243.639 548.778 243.639 547.742C243.639 546.706 243.994 545.838 244.703 545.138C245.412 544.429 246.285 544.074 247.321 544.074C248.348 544.074 249.216 544.429 249.925 545.138C250.644 545.838 251.003 546.706 251.003 547.742C251.003 548.769 250.644 549.642 249.925 550.36ZM245.361 549.716C245.893 550.248 246.546 550.514 247.321 550.514C248.096 550.514 248.749 550.248 249.281 549.716C249.813 549.166 250.079 548.508 250.079 547.742C250.079 546.968 249.813 546.314 249.281 545.782C248.749 545.241 248.096 544.97 247.321 544.97C246.546 544.97 245.893 545.241 245.361 545.782C244.829 546.314 244.563 546.968 244.563 547.742C244.563 548.508 244.829 549.166 245.361 549.716ZM257.001 547.644C257.767 547.924 258.149 548.47 258.149 549.282C258.149 549.861 257.953 550.332 257.561 550.696C257.179 551.06 256.642 551.242 255.951 551.242H252.549V544.242H255.671C256.343 544.242 256.866 544.415 257.239 544.76C257.622 545.106 257.813 545.558 257.813 546.118C257.813 546.818 257.543 547.327 257.001 547.644ZM255.671 545.138H253.473V547.266H255.671C256.483 547.266 256.889 546.902 256.889 546.174C256.889 545.848 256.782 545.596 256.567 545.418C256.362 545.232 256.063 545.138 255.671 545.138ZM253.473 550.346H255.951C256.362 550.346 256.675 550.248 256.889 550.052C257.113 549.856 257.225 549.581 257.225 549.226C257.225 548.89 257.113 548.629 256.889 548.442C256.675 548.256 256.362 548.162 255.951 548.162H253.473V550.346ZM260.473 546.902H262.391C263.035 546.902 263.586 547.108 264.043 547.518C264.501 547.92 264.729 548.438 264.729 549.072C264.729 549.716 264.501 550.239 264.043 550.64C263.605 551.042 263.054 551.242 262.391 551.242H259.549V544.242H260.473V546.902ZM265.709 551.242V544.242H266.633V551.242H265.709ZM260.473 550.346H262.391C262.793 550.346 263.129 550.23 263.399 549.996C263.67 549.754 263.805 549.446 263.805 549.072C263.805 548.699 263.67 548.396 263.399 548.162C263.129 547.92 262.793 547.798 262.391 547.798H260.473V550.346ZM271.75 547.616L274.48 551.242H273.374L271.19 548.358L269.006 551.242H267.9L270.644 547.616L268.082 544.242H269.188L271.19 546.888L273.192 544.242H274.298L271.75 547.616ZM279.237 544.242H285.117V551.242H284.193V545.138H280.161V551.242H279.237V544.242ZM290.823 544.074C291.821 544.074 292.671 544.429 293.371 545.138C294.08 545.848 294.435 546.716 294.435 547.742C294.435 548.769 294.08 549.637 293.371 550.346C292.671 551.056 291.821 551.41 290.823 551.41C289.581 551.41 288.639 550.897 287.995 549.87V554.042H287.071V544.242H287.995V545.614C288.639 544.588 289.581 544.074 290.823 544.074ZM288.793 549.716C289.325 550.248 289.978 550.514 290.753 550.514C291.527 550.514 292.181 550.248 292.713 549.716C293.245 549.166 293.511 548.508 293.511 547.742C293.511 546.968 293.245 546.314 292.713 545.782C292.181 545.241 291.527 544.97 290.753 544.97C289.978 544.97 289.325 545.241 288.793 545.782C288.261 546.314 287.995 546.968 287.995 547.742C287.995 548.508 288.261 549.166 288.793 549.716ZM296.895 549.632L301.067 544.242H301.851V551.242H300.927V545.852L296.755 551.242H295.971V544.242H296.895V549.632ZM308.257 547.644C309.023 547.924 309.405 548.47 309.405 549.282C309.405 549.861 309.209 550.332 308.817 550.696C308.435 551.06 307.898 551.242 307.207 551.242H303.805V544.242H306.927C307.599 544.242 308.122 544.415 308.495 544.76C308.878 545.106 309.069 545.558 309.069 546.118C309.069 546.818 308.799 547.327 308.257 547.644ZM306.927 545.138H304.729V547.266H306.927C307.739 547.266 308.145 546.902 308.145 546.174C308.145 545.848 308.038 545.596 307.823 545.418C307.618 545.232 307.319 545.138 306.927 545.138ZM304.729 550.346H307.207C307.618 550.346 307.931 550.248 308.145 550.052C308.369 549.856 308.481 549.581 308.481 549.226C308.481 548.89 308.369 548.629 308.145 548.442C307.931 548.256 307.618 548.162 307.207 548.162H304.729V550.346ZM311.729 546.902H313.647C314.291 546.902 314.842 547.108 315.299 547.518C315.757 547.92 315.985 548.438 315.985 549.072C315.985 549.716 315.757 550.239 315.299 550.64C314.861 551.042 314.31 551.242 313.647 551.242H310.805V544.242H311.729V546.902ZM316.965 551.242V544.242H317.889V551.242H316.965ZM311.729 550.346H313.647C314.049 550.346 314.385 550.23 314.655 549.996C314.926 549.754 315.061 549.446 315.061 549.072C315.061 548.699 314.926 548.396 314.655 548.162C314.385 547.92 314.049 547.798 313.647 547.798H311.729V550.346ZM324.392 547.728V544.242H325.316V551.242H324.392V548.582C323.851 548.862 323.183 549.002 322.39 549.002C321.466 549.002 320.766 548.792 320.29 548.372C319.814 547.943 319.576 547.313 319.576 546.482V544.242H320.5V546.482C320.5 547.061 320.649 547.481 320.948 547.742C321.256 548.004 321.727 548.134 322.362 548.134C323.071 548.134 323.748 547.999 324.392 547.728ZM330.514 544.074C331.559 544.074 332.394 544.443 333.02 545.18C333.664 545.908 333.986 546.772 333.986 547.77C333.986 547.817 333.976 547.962 333.958 548.204H327.812C327.905 548.904 328.204 549.464 328.708 549.884C329.212 550.304 329.842 550.514 330.598 550.514C331.662 550.514 332.413 550.118 332.852 549.324L333.664 549.8C333.356 550.304 332.931 550.701 332.39 550.99C331.858 551.27 331.256 551.41 330.584 551.41C329.482 551.41 328.586 551.065 327.896 550.374C327.205 549.684 326.86 548.806 326.86 547.742C326.86 546.688 327.2 545.815 327.882 545.124C328.563 544.424 329.44 544.074 330.514 544.074ZM330.514 544.97C329.786 544.97 329.174 545.185 328.68 545.614C328.194 546.044 327.905 546.608 327.812 547.308H333.034C332.931 546.562 332.646 545.988 332.18 545.586C331.694 545.176 331.139 544.97 330.514 544.97ZM337.36 547.602L341.112 551.242H339.88L336.38 547.868V551.242H335.456V544.242H336.38V547.336L339.712 544.242H340.972L337.36 547.602Z" fill="#323232"/>
</g>
<path opacity="0.5" d="M78.5 606.242L84.2735 596.242L72.7265 596.242L78.5 606.242ZM77.5 571.242L77.5 597.242L79.5 597.242L79.5 571.242L77.5 571.242Z" fill="#239FFB"/>
<path opacity="0.5" d="M311.5 606.242L317.274 596.242L305.726 596.242L311.5 606.242ZM310.5 571.242L310.5 597.242L312.5 597.242L312.5 571.242L310.5 571.242Z" fill="#239FFB"/>
<path d="M108.285 631.1C107.589 633.324 106.78 635.244 105.859 636.862C104.938 638.479 103.983 639.715 102.995 640.568C102.006 641.422 101.063 641.849 100.164 641.849C98.0977 641.849 97.0643 639.726 97.0643 635.48C97.0643 632.874 97.3788 630.291 98.0078 627.73C98.6368 625.147 99.3332 622.934 100.097 621.092C100.322 620.508 100.614 620.047 100.973 619.71C101.332 619.351 101.838 619.171 102.489 619.171C103.096 619.171 103.579 619.329 103.938 619.643C104.298 619.935 104.477 620.384 104.477 620.991L104.444 621.395C104.444 621.44 104.309 621.811 104.039 622.507C103.365 624.327 102.759 626.068 102.22 627.73C101.703 629.392 101.377 630.976 101.243 632.481C101.175 633.245 101.142 633.998 101.142 634.739C101.142 635.48 101.22 636.087 101.377 636.558C101.535 637.008 101.759 637.232 102.051 637.232C102.703 637.232 103.489 636.3 104.41 634.436C105.354 632.549 106.252 630.302 107.106 627.696C107.959 625.068 108.588 622.766 108.993 620.789C109.083 620.362 109.341 620.003 109.768 619.71C110.194 619.418 110.565 619.272 110.88 619.272C111.441 619.272 111.846 619.418 112.093 619.71C112.362 619.98 112.497 620.407 112.497 620.991L112.463 621.463C112.463 621.553 112.441 621.676 112.396 621.833C112.351 621.991 112.306 622.193 112.261 622.44C111.183 627.562 110.531 631.381 110.307 633.896C110.284 634.076 110.273 634.346 110.273 634.705C110.273 635.469 110.374 636.087 110.576 636.558C110.801 637.008 111.082 637.232 111.419 637.232C112.52 637.232 113.631 635.525 114.755 632.111C115.878 628.674 116.878 624.866 117.754 620.688C117.843 620.283 118.034 619.991 118.326 619.812C118.641 619.609 119.012 619.508 119.438 619.508C119.978 619.508 120.528 619.621 121.09 619.845C121.651 620.07 121.932 620.317 121.932 620.587L121.393 622.945C120.562 626.629 119.719 629.774 118.866 632.38C118.034 634.986 116.934 637.221 115.563 639.086C114.216 640.928 112.576 641.849 110.644 641.849C108.757 641.849 107.813 640.119 107.813 636.66C107.813 635.065 108.015 633.211 108.42 631.1H108.285ZM127.003 641.95C124.801 641.95 123.195 641.512 122.184 640.636C121.173 639.76 120.668 638.591 120.668 637.131C120.668 634.997 121.196 633.02 122.251 631.201C123.33 629.381 124.756 627.944 126.531 626.888C128.328 625.809 130.26 625.27 132.327 625.27C133.585 625.27 134.64 625.63 135.494 626.349C136.348 627.045 136.774 628.078 136.774 629.449C136.774 630.235 136.516 630.886 135.999 631.403C135.505 631.897 134.786 632.346 133.843 632.751C132.899 633.133 131.372 633.683 129.26 634.402C127.351 635.031 125.801 635.559 124.61 635.986C124.52 636.323 124.475 636.671 124.475 637.03C124.475 637.659 124.734 638.142 125.25 638.479C125.79 638.816 126.542 638.985 127.508 638.985C128.115 638.985 128.811 638.861 129.597 638.614C130.383 638.367 130.878 638.052 131.08 637.67C131.844 636.278 132.54 635.581 133.169 635.581C134.09 635.581 134.708 635.761 135.022 636.12C135.359 636.457 135.539 636.839 135.561 637.266C135.292 637.985 134.764 638.715 133.978 639.456C133.191 640.175 132.192 640.77 130.979 641.242C129.766 641.714 128.44 641.95 127.003 641.95ZM125.554 632.886C127.778 632.167 129.608 631.504 131.046 630.898C132.484 630.269 133.203 629.651 133.203 629.044C133.203 628.775 133.057 628.561 132.765 628.404C132.473 628.224 132.158 628.134 131.821 628.134C131.147 628.134 130.372 628.393 129.496 628.909C128.642 629.426 127.845 630.055 127.104 630.796C126.362 631.538 125.846 632.234 125.554 632.886ZM144.951 622.912C142.413 633.582 140.919 639.681 140.47 641.208C140.425 641.343 140.189 641.512 139.762 641.714C139.358 641.939 139.077 642.051 138.92 642.051C138.291 642.051 137.684 641.894 137.1 641.579C136.516 641.265 136.202 640.759 136.157 640.063C136.179 640.018 136.292 639.782 136.494 639.355C136.696 638.928 136.898 638.322 137.1 637.536C137.617 635.604 138.201 633.312 138.853 630.662C139.526 628.011 139.976 626.236 140.2 625.338L141.784 618.902C141.762 618.722 141.75 617.79 141.75 616.105C141.818 615.813 142.065 615.577 142.492 615.397C142.941 615.218 143.345 615.128 143.705 615.128C144.266 615.128 144.839 615.319 145.423 615.701C146.03 616.083 146.344 616.543 146.367 617.082L144.951 622.912ZM152.909 624.192C150.573 634.031 149.214 639.591 148.832 640.872C148.787 641.006 148.551 641.175 148.124 641.377C147.72 641.602 147.439 641.714 147.282 641.714C146.698 641.714 146.17 641.568 145.698 641.276C145.226 641.006 144.968 640.523 144.923 639.827C144.946 639.715 145.002 639.4 145.092 638.883C145.181 638.367 145.305 637.805 145.462 637.199C146.316 633.986 147.304 630.055 148.427 625.405L150.045 618.902C150.022 618.767 150.011 618.576 150.011 618.329C150.011 617.453 150.258 616.7 150.752 616.071C151.269 615.442 151.853 615.128 152.505 615.128C152.931 615.128 153.336 615.296 153.718 615.633C154.1 615.948 154.403 616.431 154.627 617.082L152.909 624.192Z" fill="#00A3FF"/>
<path d="M53.8296 641.942C52.2911 641.942 50.8611 641.676 49.5395 641.144C48.2377 640.591 47.0937 639.832 46.1075 638.865C45.1212 637.899 44.3618 636.775 43.8293 635.492C43.2967 634.191 43.0305 632.78 43.0305 631.262C43.0305 629.763 43.3066 628.372 43.8589 627.09C44.4112 625.808 45.1706 624.683 46.137 623.717C47.1233 622.75 48.2772 622.001 49.5987 621.468C50.9399 620.936 52.3798 620.67 53.9183 620.67C54.9835 620.67 56.019 620.817 57.0249 621.113C58.0309 621.409 58.9382 621.823 59.7469 622.356C60.5753 622.889 61.2558 623.49 61.7884 624.161L59.3623 626.676C58.5339 625.887 57.666 625.285 56.7587 624.871C55.8513 624.457 54.8947 624.25 53.8888 624.25C52.9025 624.25 51.9853 624.427 51.1372 624.782C50.3088 625.137 49.5691 625.63 48.9182 626.261C48.287 626.893 47.7939 627.632 47.4389 628.48C47.1035 629.329 46.9359 630.256 46.9359 631.262C46.9359 632.248 47.1134 633.175 47.4684 634.043C47.8432 634.891 48.356 635.64 49.007 636.291C49.6776 636.942 50.437 637.455 51.2851 637.83C52.153 638.185 53.0702 638.362 54.0367 638.362C54.7665 638.362 55.447 638.264 56.0782 638.066C56.7093 637.85 57.2715 637.554 57.7646 637.179C58.2577 636.784 58.6325 636.331 58.8889 635.818C59.165 635.305 59.3031 634.763 59.3031 634.191V633.54L59.8357 634.131H53.7112V630.699H63.0902C63.1297 630.916 63.1592 631.163 63.179 631.439C63.1987 631.696 63.2086 631.942 63.2086 632.179C63.2283 632.415 63.2381 632.623 63.2381 632.8C63.2381 634.161 62.9916 635.404 62.4985 636.528C62.0251 637.633 61.3643 638.589 60.5162 639.398C59.668 640.207 58.6719 640.838 57.5279 641.291C56.4036 641.725 55.1708 641.942 53.8296 641.942ZM73.9332 641.942C72.2961 641.942 70.8464 641.607 69.584 640.936C68.3414 640.246 67.365 639.309 66.6549 638.126C65.9646 636.922 65.6194 635.542 65.6194 633.984C65.6194 632.761 65.8166 631.646 66.2111 630.64C66.6056 629.634 67.1579 628.766 67.868 628.037C68.5781 627.287 69.4164 626.715 70.3829 626.321C71.3691 625.906 72.4342 625.699 73.5782 625.699C74.6236 625.699 75.5802 625.897 76.4481 626.291C77.3357 626.685 78.105 627.228 78.7559 627.918C79.4068 628.589 79.8999 629.398 80.2352 630.344C80.5902 631.271 80.7579 632.287 80.7382 633.392L80.7086 634.694H68.1047L67.3946 632.179H77.6612L77.2174 632.682V632.001C77.1582 631.41 76.961 630.887 76.6256 630.433C76.2903 629.96 75.8564 629.595 75.3238 629.338C74.811 629.062 74.239 628.924 73.6078 628.924C72.6413 628.924 71.8227 629.112 71.1521 629.486C70.4815 629.841 69.9686 630.374 69.6136 631.084C69.2783 631.794 69.1106 632.672 69.1106 633.717C69.1106 634.723 69.3177 635.601 69.7319 636.35C70.1659 637.1 70.7773 637.682 71.5663 638.096C72.3553 638.51 73.2725 638.717 74.3179 638.717C75.0477 638.717 75.7183 638.599 76.3298 638.362C76.9609 638.126 77.6316 637.702 78.3417 637.09L80.1169 639.575C79.5843 640.069 78.9728 640.493 78.2825 640.848C77.6119 641.183 76.9018 641.449 76.1522 641.646C75.4027 641.844 74.6631 641.942 73.9332 641.942ZM85.6773 641.646V622.09H89.2869V641.646H85.6773ZM82.6003 629.427V626.054H92.6893V629.427H82.6003Z" fill="black"/>
<path d="M279.457 618.686L279.156 619.456L271.556 640.649H265.43L259.872 625.047L254.348 640.649H248.221L240.554 619.456L240.18 618.613C240.18 618.613 244.328 617.705 245.365 620.038C246.402 622.372 251.301 635.058 251.301 635.058L257.127 618.686H262.617L268.443 635.025C268.443 635.025 273.623 621.682 274.401 620.038C275.179 618.395 279.457 618.686 279.457 618.686Z" fill="#2F2F2F"/>
<path d="M298.749 633.685H283.817C283.973 634.734 284.487 635.538 285.357 636.096C286.228 636.654 287.4 636.933 288.873 636.933C290.212 636.933 291.306 636.754 292.154 636.397C293.002 636.04 293.493 635.549 293.627 634.924H298.716C298.47 636.888 297.488 638.406 295.77 639.477C294.073 640.526 291.774 641.051 288.873 641.051C286.819 641.051 285.034 640.716 283.516 640.047C281.998 639.355 280.837 638.373 280.034 637.1C279.23 635.828 278.829 634.333 278.829 632.614V631.978C278.829 630.237 279.23 628.73 280.034 627.458C280.86 626.163 282.02 625.181 283.516 624.512C285.034 623.82 286.819 623.474 288.873 623.474C291.998 623.474 294.419 624.222 296.138 625.717C297.879 627.19 298.749 629.266 298.749 631.944V633.685ZM288.839 627.525C287.545 627.525 286.473 627.759 285.625 628.228C284.777 628.697 284.219 629.355 283.951 630.203H293.627C293.359 629.355 292.812 628.697 291.986 628.228C291.161 627.759 290.111 627.525 288.839 627.525Z" fill="#2F2F2F"/>
<path d="M308.02 640.649C306.234 640.649 304.85 640.225 303.868 639.377C302.886 638.506 302.395 637.301 302.395 635.761V617.347H307.216V634.891C307.216 635.404 307.35 635.783 307.618 636.029C307.886 636.274 308.321 636.397 308.924 636.397H310.364V640.649H308.02Z" fill="#2F2F2F"/>
<path d="M318.711 640.649C316.926 640.649 315.542 640.225 314.56 639.377C313.578 638.506 313.087 637.301 313.087 635.761V617.347H317.908V634.891C317.908 635.404 318.042 635.783 318.31 636.029C318.577 636.274 319.013 636.397 319.615 636.397H321.055V640.649H318.711Z" fill="#2F2F2F"/>
<path d="M328.599 623.876V640.649H323.778V623.876H328.599ZM326.189 621.934C325.296 621.934 324.57 621.677 324.012 621.164C323.454 620.628 323.175 619.936 323.175 619.088C323.175 618.24 323.454 617.559 324.012 617.046C324.57 616.51 325.296 616.242 326.189 616.242C327.104 616.242 327.829 616.51 328.365 617.046C328.923 617.559 329.202 618.24 329.202 619.088C329.202 619.936 328.923 620.628 328.365 621.164C327.807 621.677 327.081 621.934 326.189 621.934Z" fill="url(#paint5_linear_964_2409)"/>
<path d="M341.159 628.161V634.522C341.159 635.125 341.326 635.594 341.661 635.928C342.018 636.241 342.52 636.397 343.167 636.397H347.118V640.649H342.531C340.612 640.649 339.094 640.136 337.978 639.109C336.862 638.06 336.304 636.643 336.304 634.857V628.161H330.713V623.876H335.199C335.668 623.876 335.992 623.786 336.17 623.608C336.349 623.429 336.438 623.106 336.438 622.637V619.423H341.159V623.876H348.123V628.161H341.159Z" fill="url(#paint6_linear_964_2409)"/>
<path d="M197.17 619.666C201.735 617.775 206.969 619.944 208.859 624.509L215.55 640.665C210.985 642.556 205.752 640.388 203.861 635.822L197.17 619.666Z" fill="url(#paint7_linear_964_2409)"/>
<path d="M210.387 619.666C214.952 617.775 220.185 619.944 222.076 624.509L228.767 640.665C224.202 642.556 218.968 640.388 217.078 635.822L210.387 619.666Z" fill="url(#paint8_linear_964_2409)"/>
<path d="M210.387 619.666C214.952 617.775 220.185 619.944 222.076 624.509L228.767 640.665C224.202 642.556 218.968 640.388 217.078 635.822L210.387 619.666Z" fill="url(#paint9_linear_964_2409)"/>
<path d="M223.604 619.666C228.169 617.775 233.402 619.944 235.293 624.509L241.984 640.665C237.419 642.556 232.185 640.388 230.295 635.822L223.604 619.666Z" fill="url(#paint10_linear_964_2409)"/>
<path d="M223.604 619.666C228.169 617.775 233.402 619.944 235.293 624.509L241.984 640.665C237.419 642.556 232.185 640.388 230.295 635.822L223.604 619.666Z" fill="url(#paint11_linear_964_2409)"/>
<path d="M37.4553 40.2H40.8633V57H37.5753V46.104L32.8473 53.904H32.4633L27.7353 46.128V57H24.4233V40.2H27.8313L32.6553 48.144L37.4553 40.2ZM55.5136 52.272H46.4656C46.8656 53.776 47.9936 54.528 49.8496 54.528C51.0336 54.528 51.9296 54.128 52.5376 53.328L55.0336 54.768C53.8496 56.48 52.1056 57.336 49.8016 57.336C47.8176 57.336 46.2256 56.736 45.0256 55.536C43.8256 54.336 43.2256 52.824 43.2256 51C43.2256 49.208 43.8176 47.704 45.0016 46.488C46.1696 45.272 47.6896 44.664 49.5616 44.664C51.3376 44.664 52.7856 45.272 53.9056 46.488C55.0576 47.704 55.6336 49.208 55.6336 51C55.6336 51.336 55.5936 51.76 55.5136 52.272ZM46.4176 49.872H52.5376C52.3616 49.088 52.0016 48.488 51.4576 48.072C50.9296 47.656 50.2976 47.448 49.5616 47.448C48.7296 47.448 48.0416 47.664 47.4976 48.096C46.9536 48.512 46.5936 49.104 46.4176 49.872ZM66.7972 46.416V40.2H69.8932V57H66.7972V55.584C65.8852 56.752 64.5892 57.336 62.9092 57.336C61.2932 57.336 59.9092 56.728 58.7572 55.512C57.6212 54.28 57.0532 52.776 57.0532 51C57.0532 49.24 57.6212 47.744 58.7572 46.512C59.9092 45.28 61.2932 44.664 62.9092 44.664C64.5892 44.664 65.8852 45.248 66.7972 46.416ZM61.0852 53.448C61.7412 54.072 62.5412 54.384 63.4852 54.384C64.4452 54.384 65.2372 54.072 65.8612 53.448C66.4852 52.808 66.7972 51.992 66.7972 51C66.7972 50.008 66.4852 49.2 65.8612 48.576C65.2372 47.936 64.4452 47.616 63.4852 47.616C62.5252 47.616 61.7252 47.936 61.0852 48.576C60.4612 49.2 60.1492 50.008 60.1492 51C60.1492 51.992 60.4612 52.808 61.0852 53.448ZM72.8686 40.2H79.5406C81.8446 40.2 83.7646 41.008 85.3006 42.624C86.8526 44.224 87.6286 46.216 87.6286 48.6C87.6286 50.984 86.8526 52.976 85.3006 54.576C83.7646 56.192 81.8446 57 79.5406 57H72.8686V40.2ZM76.1806 53.832H79.5406C80.9966 53.832 82.1806 53.352 83.0926 52.392C84.0046 51.4 84.4606 50.136 84.4606 48.6C84.4606 47.048 84.0046 45.792 83.0926 44.832C82.1806 43.856 80.9966 43.368 79.5406 43.368H76.1806V53.832ZM98.954 46.416V45H102.05V57H98.954V55.584C98.026 56.752 96.722 57.336 95.042 57.336C93.442 57.336 92.066 56.728 90.914 55.512C89.778 54.28 89.21 52.776 89.21 51C89.21 49.24 89.778 47.744 90.914 46.512C92.066 45.28 93.442 44.664 95.042 44.664C96.722 44.664 98.026 45.248 98.954 46.416ZM93.242 53.448C93.866 54.072 94.658 54.384 95.618 54.384C96.578 54.384 97.37 54.072 97.994 53.448C98.634 52.808 98.954 51.992 98.954 51C98.954 50.008 98.634 49.2 97.994 48.576C97.37 47.936 96.578 47.616 95.618 47.616C94.658 47.616 93.866 47.936 93.242 48.576C92.618 49.2 92.306 50.008 92.306 51C92.306 51.992 92.618 52.808 93.242 53.448ZM111.721 45V47.976H109.009V52.968C109.009 53.384 109.113 53.688 109.321 53.88C109.529 54.072 109.833 54.184 110.233 54.216C110.633 54.232 111.129 54.224 111.721 54.192V57C109.625 57.24 108.129 57.048 107.233 56.424C106.353 55.784 105.913 54.632 105.913 52.968V47.976H103.825V45H105.913V42.576L109.009 41.64V45H111.721ZM122.649 46.416V45H125.745V57H122.649V55.584C121.721 56.752 120.417 57.336 118.737 57.336C117.137 57.336 115.761 56.728 114.609 55.512C113.473 54.28 112.905 52.776 112.905 51C112.905 49.24 113.473 47.744 114.609 46.512C115.761 45.28 117.137 44.664 118.737 44.664C120.417 44.664 121.721 45.248 122.649 46.416ZM116.937 53.448C117.561 54.072 118.353 54.384 119.313 54.384C120.273 54.384 121.065 54.072 121.689 53.448C122.329 52.808 122.649 51.992 122.649 51C122.649 50.008 122.329 49.2 121.689 48.576C121.065 47.936 120.273 47.616 119.313 47.616C118.353 47.616 117.561 47.936 116.937 48.576C116.313 49.2 116.001 50.008 116.001 51C116.001 51.992 116.313 52.808 116.937 53.448Z" fill="#239FFB"/>
<path d="M111.5 106L101.5 100.226V111.774L111.5 106ZM21.5 65V98H23.5V65H21.5ZM30.5 107H102.5V105H30.5V107ZM21.5 98C21.5 102.971 25.5294 107 30.5 107V105C26.634 105 23.5 101.866 23.5 98H21.5Z" fill="#239FFB"/>
<path d="M78.5 420L68.5 414.227V425.773L78.5 420ZM21.5 65V412H23.5V65H21.5ZM30.5 421H69.5V419H30.5V421ZM21.5 412C21.5 416.971 25.5294 421 30.5 421V419C26.634 419 23.5 415.866 23.5 412H21.5Z" fill="#239FFB"/>
</g>
<defs>
<filter id="filter0_dddii_964_2409" x="-15" y="0" width="423" height="686.242" filterUnits="userSpaceOnUse" color-interpolation-filters="sRGB">
<feFlood flood-opacity="0" result="BackgroundImageFix"/>
<feColorMatrix in="SourceAlpha" type="matrix" values="0 0 0 0 0 0 0 0 0 0 0 0 0 0 0 0 0 0 127 0" result="hardAlpha"/>
<feOffset dx="5" dy="5"/>
<feGaussianBlur stdDeviation="6.5"/>
<feColorMatrix type="matrix" values="0 0 0 0 0.819608 0 0 0 0 0.85098 0 0 0 0 0.901961 0 0 0 0.9 0"/>
<feBlend mode="normal" in2="BackgroundImageFix" result="effect1_dropShadow_964_2409"/>
<feColorMatrix in="SourceAlpha" type="matrix" values="0 0 0 0 0 0 0 0 0 0 0 0 0 0 0 0 0 0 127 0" result="hardAlpha"/>
<feOffset dx="5" dy="-5"/>
<feGaussianBlur stdDeviation="5"/>
<feColorMatrix type="matrix" values="0 0 0 0 0.819608 0 0 0 0 0.85098 0 0 0 0 0.901961 0 0 0 0.2 0"/>
<feBlend mode="normal" in2="effect1_dropShadow_964_2409" result="effect2_dropShadow_964_2409"/>
<feColorMatrix in="SourceAlpha" type="matrix" values="0 0 0 0 0 0 0 0 0 0 0 0 0 0 0 0 0 0 127 0" result="hardAlpha"/>
<feOffset dx="-5" dy="5"/>
<feGaussianBlur stdDeviation="5"/>
<feColorMatrix type="matrix" values="0 0 0 0 0.819608 0 0 0 0 0.85098 0 0 0 0 0.901961 0 0 0 0.2 0"/>
<feBlend mode="normal" in2="effect2_dropShadow_964_2409" result="effect3_dropShadow_964_2409"/>
<feBlend mode="normal" in="SourceGraphic" in2="effect3_dropShadow_964_2409" result="shape"/>
<feColorMatrix in="SourceAlpha" type="matrix" values="0 0 0 0 0 0 0 0 0 0 0 0 0 0 0 0 0 0 127 0" result="hardAlpha"/>
<feOffset dx="-1" dy="-1"/>
<feGaussianBlur stdDeviation="1"/>
<feComposite in2="hardAlpha" operator="arithmetic" k2="-1" k3="1"/>
<feColorMatrix type="matrix" values="0 0 0 0 0.819608 0 0 0 0 0.85098 0 0 0 0 0.901961 0 0 0 0.5 0"/>
<feBlend mode="normal" in2="shape" result="effect4_innerShadow_964_2409"/>
<feColorMatrix in="SourceAlpha" type="matrix" values="0 0 0 0 0 0 0 0 0 0 0 0 0 0 0 0 0 0 127 0" result="hardAlpha"/>
<feOffset dx="1" dy="1"/>
<feGaussianBlur stdDeviation="1"/>
<feComposite in2="hardAlpha" operator="arithmetic" k2="-1" k3="1"/>
<feColorMatrix type="matrix" values="0 0 0 0 1 0 0 0 0 1 0 0 0 0 1 0 0 0 0.3 0"/>
<feBlend mode="normal" in2="effect4_innerShadow_964_2409" result="effect5_innerShadow_964_2409"/>
</filter>
<filter id="filter1_ddddii_964_2409" x="113.5" y="75" width="166" height="71" filterUnits="userSpaceOnUse" color-interpolation-filters="sRGB">
<feFlood flood-opacity="0" result="BackgroundImageFix"/>
<feColorMatrix in="SourceAlpha" type="matrix" values="0 0 0 0 0 0 0 0 0 0 0 0 0 0 0 0 0 0 127 0" result="hardAlpha"/>
<feOffset dx="5" dy="5"/>
<feGaussianBlur stdDeviation="6.5"/>
<feColorMatrix type="matrix" values="0 0 0 0 0.819608 0 0 0 0 0.85098 0 0 0 0 0.901961 0 0 0 0.9 0"/>
<feBlend mode="normal" in2="BackgroundImageFix" result="effect1_dropShadow_964_2409"/>
<feColorMatrix in="SourceAlpha" type="matrix" values="0 0 0 0 0 0 0 0 0 0 0 0 0 0 0 0 0 0 127 0" result="hardAlpha"/>
<feOffset dx="-5" dy="-5"/>
<feGaussianBlur stdDeviation="5"/>
<feColorMatrix type="matrix" values="0 0 0 0 1 0 0 0 0 1 0 0 0 0 1 0 0 0 0.9 0"/>
<feBlend mode="normal" in2="effect1_dropShadow_964_2409" result="effect2_dropShadow_964_2409"/>
<feColorMatrix in="SourceAlpha" type="matrix" values="0 0 0 0 0 0 0 0 0 0 0 0 0 0 0 0 0 0 127 0" result="hardAlpha"/>
<feOffset dx="5" dy="-5"/>
<feGaussianBlur stdDeviation="5"/>
<feColorMatrix type="matrix" values="0 0 0 0 0.819608 0 0 0 0 0.85098 0 0 0 0 0.901961 0 0 0 0.2 0"/>
<feBlend mode="normal" in2="effect2_dropShadow_964_2409" result="effect3_dropShadow_964_2409"/>
<feColorMatrix in="SourceAlpha" type="matrix" values="0 0 0 0 0 0 0 0 0 0 0 0 0 0 0 0 0 0 127 0" result="hardAlpha"/>
<feOffset dx="-5" dy="5"/>
<feGaussianBlur stdDeviation="5"/>
<feColorMatrix type="matrix" values="0 0 0 0 0.819608 0 0 0 0 0.85098 0 0 0 0 0.901961 0 0 0 0.2 0"/>
<feBlend mode="normal" in2="effect3_dropShadow_964_2409" result="effect4_dropShadow_964_2409"/>
<feBlend mode="normal" in="SourceGraphic" in2="effect4_dropShadow_964_2409" result="shape"/>
<feColorMatrix in="SourceAlpha" type="matrix" values="0 0 0 0 0 0 0 0 0 0 0 0 0 0 0 0 0 0 127 0" result="hardAlpha"/>
<feOffset dx="-1" dy="-1"/>
<feGaussianBlur stdDeviation="1"/>
<feComposite in2="hardAlpha" operator="arithmetic" k2="-1" k3="1"/>
<feColorMatrix type="matrix" values="0 0 0 0 0.819608 0 0 0 0 0.85098 0 0 0 0 0.901961 0 0 0 0.5 0"/>
<feBlend mode="normal" in2="shape" result="effect5_innerShadow_964_2409"/>
<feColorMatrix in="SourceAlpha" type="matrix" values="0 0 0 0 0 0 0 0 0 0 0 0 0 0 0 0 0 0 127 0" result="hardAlpha"/>
<feOffset dx="1" dy="1"/>
<feGaussianBlur stdDeviation="1"/>
<feComposite in2="hardAlpha" operator="arithmetic" k2="-1" k3="1"/>
<feColorMatrix type="matrix" values="0 0 0 0 1 0 0 0 0 1 0 0 0 0 1 0 0 0 0.3 0"/>
<feBlend mode="normal" in2="effect5_innerShadow_964_2409" result="effect6_innerShadow_964_2409"/>
</filter>
<filter id="filter2_ddddii_964_2409" x="15.5" y="188" width="166" height="71" filterUnits="userSpaceOnUse" color-interpolation-filters="sRGB">
<feFlood flood-opacity="0" result="BackgroundImageFix"/>
<feColorMatrix in="SourceAlpha" type="matrix" values="0 0 0 0 0 0 0 0 0 0 0 0 0 0 0 0 0 0 127 0" result="hardAlpha"/>
<feOffset dx="5" dy="5"/>
<feGaussianBlur stdDeviation="6.5"/>
<feColorMatrix type="matrix" values="0 0 0 0 0.819608 0 0 0 0 0.85098 0 0 0 0 0.901961 0 0 0 0.9 0"/>
<feBlend mode="normal" in2="BackgroundImageFix" result="effect1_dropShadow_964_2409"/>
<feColorMatrix in="SourceAlpha" type="matrix" values="0 0 0 0 0 0 0 0 0 0 0 0 0 0 0 0 0 0 127 0" result="hardAlpha"/>
<feOffset dx="-5" dy="-5"/>
<feGaussianBlur stdDeviation="5"/>
<feColorMatrix type="matrix" values="0 0 0 0 1 0 0 0 0 1 0 0 0 0 1 0 0 0 0.9 0"/>
<feBlend mode="normal" in2="effect1_dropShadow_964_2409" result="effect2_dropShadow_964_2409"/>
<feColorMatrix in="SourceAlpha" type="matrix" values="0 0 0 0 0 0 0 0 0 0 0 0 0 0 0 0 0 0 127 0" result="hardAlpha"/>
<feOffset dx="5" dy="-5"/>
<feGaussianBlur stdDeviation="5"/>
<feColorMatrix type="matrix" values="0 0 0 0 0.819608 0 0 0 0 0.85098 0 0 0 0 0.901961 0 0 0 0.2 0"/>
<feBlend mode="normal" in2="effect2_dropShadow_964_2409" result="effect3_dropShadow_964_2409"/>
<feColorMatrix in="SourceAlpha" type="matrix" values="0 0 0 0 0 0 0 0 0 0 0 0 0 0 0 0 0 0 127 0" result="hardAlpha"/>
<feOffset dx="-5" dy="5"/>
<feGaussianBlur stdDeviation="5"/>
<feColorMatrix type="matrix" values="0 0 0 0 0.819608 0 0 0 0 0.85098 0 0 0 0 0.901961 0 0 0 0.2 0"/>
<feBlend mode="normal" in2="effect3_dropShadow_964_2409" result="effect4_dropShadow_964_2409"/>
<feBlend mode="normal" in="SourceGraphic" in2="effect4_dropShadow_964_2409" result="shape"/>
<feColorMatrix in="SourceAlpha" type="matrix" values="0 0 0 0 0 0 0 0 0 0 0 0 0 0 0 0 0 0 127 0" result="hardAlpha"/>
<feOffset dx="-1" dy="-1"/>
<feGaussianBlur stdDeviation="1"/>
<feComposite in2="hardAlpha" operator="arithmetic" k2="-1" k3="1"/>
<feColorMatrix type="matrix" values="0 0 0 0 0.819608 0 0 0 0 0.85098 0 0 0 0 0.901961 0 0 0 0.5 0"/>
<feBlend mode="normal" in2="shape" result="effect5_innerShadow_964_2409"/>
<feColorMatrix in="SourceAlpha" type="matrix" values="0 0 0 0 0 0 0 0 0 0 0 0 0 0 0 0 0 0 127 0" result="hardAlpha"/>
<feOffset dx="1" dy="1"/>
<feGaussianBlur stdDeviation="1"/>
<feComposite in2="hardAlpha" operator="arithmetic" k2="-1" k3="1"/>
<feColorMatrix type="matrix" values="0 0 0 0 1 0 0 0 0 1 0 0 0 0 1 0 0 0 0.3 0"/>
<feBlend mode="normal" in2="effect5_innerShadow_964_2409" result="effect6_innerShadow_964_2409"/>
</filter>
<filter id="filter3_ddddii_964_2409" x="206.5" y="188" width="170" height="71" filterUnits="userSpaceOnUse" color-interpolation-filters="sRGB">
<feFlood flood-opacity="0" result="BackgroundImageFix"/>
<feColorMatrix in="SourceAlpha" type="matrix" values="0 0 0 0 0 0 0 0 0 0 0 0 0 0 0 0 0 0 127 0" result="hardAlpha"/>
<feOffset dx="5" dy="5"/>
<feGaussianBlur stdDeviation="6.5"/>
<feColorMatrix type="matrix" values="0 0 0 0 0.819608 0 0 0 0 0.85098 0 0 0 0 0.901961 0 0 0 0.9 0"/>
<feBlend mode="normal" in2="BackgroundImageFix" result="effect1_dropShadow_964_2409"/>
<feColorMatrix in="SourceAlpha" type="matrix" values="0 0 0 0 0 0 0 0 0 0 0 0 0 0 0 0 0 0 127 0" result="hardAlpha"/>
<feOffset dx="-5" dy="-5"/>
<feGaussianBlur stdDeviation="5"/>
<feColorMatrix type="matrix" values="0 0 0 0 1 0 0 0 0 1 0 0 0 0 1 0 0 0 0.9 0"/>
<feBlend mode="normal" in2="effect1_dropShadow_964_2409" result="effect2_dropShadow_964_2409"/>
<feColorMatrix in="SourceAlpha" type="matrix" values="0 0 0 0 0 0 0 0 0 0 0 0 0 0 0 0 0 0 127 0" result="hardAlpha"/>
<feOffset dx="5" dy="-5"/>
<feGaussianBlur stdDeviation="5"/>
<feColorMatrix type="matrix" values="0 0 0 0 0.819608 0 0 0 0 0.85098 0 0 0 0 0.901961 0 0 0 0.2 0"/>
<feBlend mode="normal" in2="effect2_dropShadow_964_2409" result="effect3_dropShadow_964_2409"/>
<feColorMatrix in="SourceAlpha" type="matrix" values="0 0 0 0 0 0 0 0 0 0 0 0 0 0 0 0 0 0 127 0" result="hardAlpha"/>
<feOffset dx="-5" dy="5"/>
<feGaussianBlur stdDeviation="5"/>
<feColorMatrix type="matrix" values="0 0 0 0 0.819608 0 0 0 0 0.85098 0 0 0 0 0.901961 0 0 0 0.2 0"/>
<feBlend mode="normal" in2="effect3_dropShadow_964_2409" result="effect4_dropShadow_964_2409"/>
<feBlend mode="normal" in="SourceGraphic" in2="effect4_dropShadow_964_2409" result="shape"/>
<feColorMatrix in="SourceAlpha" type="matrix" values="0 0 0 0 0 0 0 0 0 0 0 0 0 0 0 0 0 0 127 0" result="hardAlpha"/>
<feOffset dx="-1" dy="-1"/>
<feGaussianBlur stdDeviation="1"/>
<feComposite in2="hardAlpha" operator="arithmetic" k2="-1" k3="1"/>
<feColorMatrix type="matrix" values="0 0 0 0 0.819608 0 0 0 0 0.85098 0 0 0 0 0.901961 0 0 0 0.5 0"/>
<feBlend mode="normal" in2="shape" result="effect5_innerShadow_964_2409"/>
<feColorMatrix in="SourceAlpha" type="matrix" values="0 0 0 0 0 0 0 0 0 0 0 0 0 0 0 0 0 0 127 0" result="hardAlpha"/>
<feOffset dx="1" dy="1"/>
<feGaussianBlur stdDeviation="1"/>
<feComposite in2="hardAlpha" operator="arithmetic" k2="-1" k3="1"/>
<feColorMatrix type="matrix" values="0 0 0 0 1 0 0 0 0 1 0 0 0 0 1 0 0 0 0.3 0"/>
<feBlend mode="normal" in2="effect5_innerShadow_964_2409" result="effect6_innerShadow_964_2409"/>
</filter>
<filter id="filter4_f_964_2409" x="165.866" y="314.836" width="56.4227" height="32.2401" filterUnits="userSpaceOnUse" color-interpolation-filters="sRGB">
<feFlood flood-opacity="0" result="BackgroundImageFix"/>
<feBlend mode="normal" in="SourceGraphic" in2="BackgroundImageFix" result="shape"/>
<feGaussianBlur stdDeviation="2.28098" result="effect1_foregroundBlur_964_2409"/>
</filter>
<filter id="filter5_ddddii_964_2409" x="82.5" y="382.242" width="228" height="71" filterUnits="userSpaceOnUse" color-interpolation-filters="sRGB">
<feFlood flood-opacity="0" result="BackgroundImageFix"/>
<feColorMatrix in="SourceAlpha" type="matrix" values="0 0 0 0 0 0 0 0 0 0 0 0 0 0 0 0 0 0 127 0" result="hardAlpha"/>
<feOffset dx="5" dy="5"/>
<feGaussianBlur stdDeviation="6.5"/>
<feColorMatrix type="matrix" values="0 0 0 0 0.819608 0 0 0 0 0.85098 0 0 0 0 0.901961 0 0 0 0.9 0"/>
<feBlend mode="normal" in2="BackgroundImageFix" result="effect1_dropShadow_964_2409"/>
<feColorMatrix in="SourceAlpha" type="matrix" values="0 0 0 0 0 0 0 0 0 0 0 0 0 0 0 0 0 0 127 0" result="hardAlpha"/>
<feOffset dx="-5" dy="-5"/>
<feGaussianBlur stdDeviation="5"/>
<feColorMatrix type="matrix" values="0 0 0 0 1 0 0 0 0 1 0 0 0 0 1 0 0 0 0.9 0"/>
<feBlend mode="normal" in2="effect1_dropShadow_964_2409" result="effect2_dropShadow_964_2409"/>
<feColorMatrix in="SourceAlpha" type="matrix" values="0 0 0 0 0 0 0 0 0 0 0 0 0 0 0 0 0 0 127 0" result="hardAlpha"/>
<feOffset dx="5" dy="-5"/>
<feGaussianBlur stdDeviation="5"/>
<feColorMatrix type="matrix" values="0 0 0 0 0.819608 0 0 0 0 0.85098 0 0 0 0 0.901961 0 0 0 0.2 0"/>
<feBlend mode="normal" in2="effect2_dropShadow_964_2409" result="effect3_dropShadow_964_2409"/>
<feColorMatrix in="SourceAlpha" type="matrix" values="0 0 0 0 0 0 0 0 0 0 0 0 0 0 0 0 0 0 127 0" result="hardAlpha"/>
<feOffset dx="-5" dy="5"/>
<feGaussianBlur stdDeviation="5"/>
<feColorMatrix type="matrix" values="0 0 0 0 0.819608 0 0 0 0 0.85098 0 0 0 0 0.901961 0 0 0 0.2 0"/>
<feBlend mode="normal" in2="effect3_dropShadow_964_2409" result="effect4_dropShadow_964_2409"/>
<feBlend mode="normal" in="SourceGraphic" in2="effect4_dropShadow_964_2409" result="shape"/>
<feColorMatrix in="SourceAlpha" type="matrix" values="0 0 0 0 0 0 0 0 0 0 0 0 0 0 0 0 0 0 127 0" result="hardAlpha"/>
<feOffset dx="-1" dy="-1"/>
<feGaussianBlur stdDeviation="1"/>
<feComposite in2="hardAlpha" operator="arithmetic" k2="-1" k3="1"/>
<feColorMatrix type="matrix" values="0 0 0 0 0.819608 0 0 0 0 0.85098 0 0 0 0 0.901961 0 0 0 0.5 0"/>
<feBlend mode="normal" in2="shape" result="effect5_innerShadow_964_2409"/>
<feColorMatrix in="SourceAlpha" type="matrix" values="0 0 0 0 0 0 0 0 0 0 0 0 0 0 0 0 0 0 127 0" result="hardAlpha"/>
<feOffset dx="1" dy="1"/>
<feGaussianBlur stdDeviation="1"/>
<feComposite in2="hardAlpha" operator="arithmetic" k2="-1" k3="1"/>
<feColorMatrix type="matrix" values="0 0 0 0 1 0 0 0 0 1 0 0 0 0 1 0 0 0 0.3 0"/>
<feBlend mode="normal" in2="effect5_innerShadow_964_2409" result="effect6_innerShadow_964_2409"/>
</filter>
<filter id="filter6_ddddii_964_2409" x="-8.5" y="495.242" width="186" height="89" filterUnits="userSpaceOnUse" color-interpolation-filters="sRGB">
<feFlood flood-opacity="0" result="BackgroundImageFix"/>
<feColorMatrix in="SourceAlpha" type="matrix" values="0 0 0 0 0 0 0 0 0 0 0 0 0 0 0 0 0 0 127 0" result="hardAlpha"/>
<feOffset dx="5" dy="5"/>
<feGaussianBlur stdDeviation="6.5"/>
<feColorMatrix type="matrix" values="0 0 0 0 0.819608 0 0 0 0 0.85098 0 0 0 0 0.901961 0 0 0 0.9 0"/>
<feBlend mode="normal" in2="BackgroundImageFix" result="effect1_dropShadow_964_2409"/>
<feColorMatrix in="SourceAlpha" type="matrix" values="0 0 0 0 0 0 0 0 0 0 0 0 0 0 0 0 0 0 127 0" result="hardAlpha"/>
<feOffset dx="-5" dy="-5"/>
<feGaussianBlur stdDeviation="5"/>
<feColorMatrix type="matrix" values="0 0 0 0 1 0 0 0 0 1 0 0 0 0 1 0 0 0 0.9 0"/>
<feBlend mode="normal" in2="effect1_dropShadow_964_2409" result="effect2_dropShadow_964_2409"/>
<feColorMatrix in="SourceAlpha" type="matrix" values="0 0 0 0 0 0 0 0 0 0 0 0 0 0 0 0 0 0 127 0" result="hardAlpha"/>
<feOffset dx="5" dy="-5"/>
<feGaussianBlur stdDeviation="5"/>
<feColorMatrix type="matrix" values="0 0 0 0 0.819608 0 0 0 0 0.85098 0 0 0 0 0.901961 0 0 0 0.2 0"/>
<feBlend mode="normal" in2="effect2_dropShadow_964_2409" result="effect3_dropShadow_964_2409"/>
<feColorMatrix in="SourceAlpha" type="matrix" values="0 0 0 0 0 0 0 0 0 0 0 0 0 0 0 0 0 0 127 0" result="hardAlpha"/>
<feOffset dx="-5" dy="5"/>
<feGaussianBlur stdDeviation="5"/>
<feColorMatrix type="matrix" values="0 0 0 0 0.819608 0 0 0 0 0.85098 0 0 0 0 0.901961 0 0 0 0.2 0"/>
<feBlend mode="normal" in2="effect3_dropShadow_964_2409" result="effect4_dropShadow_964_2409"/>
<feBlend mode="normal" in="SourceGraphic" in2="effect4_dropShadow_964_2409" result="shape"/>
<feColorMatrix in="SourceAlpha" type="matrix" values="0 0 0 0 0 0 0 0 0 0 0 0 0 0 0 0 0 0 127 0" result="hardAlpha"/>
<feOffset dx="-1" dy="-1"/>
<feGaussianBlur stdDeviation="1"/>
<feComposite in2="hardAlpha" operator="arithmetic" k2="-1" k3="1"/>
<feColorMatrix type="matrix" values="0 0 0 0 0.819608 0 0 0 0 0.85098 0 0 0 0 0.901961 0 0 0 0.5 0"/>
<feBlend mode="normal" in2="shape" result="effect5_innerShadow_964_2409"/>
<feColorMatrix in="SourceAlpha" type="matrix" values="0 0 0 0 0 0 0 0 0 0 0 0 0 0 0 0 0 0 127 0" result="hardAlpha"/>
<feOffset dx="1" dy="1"/>
<feGaussianBlur stdDeviation="1"/>
<feComposite in2="hardAlpha" operator="arithmetic" k2="-1" k3="1"/>
<feColorMatrix type="matrix" values="0 0 0 0 1 0 0 0 0 1 0 0 0 0 1 0 0 0 0.3 0"/>
<feBlend mode="normal" in2="effect5_innerShadow_964_2409" result="effect6_innerShadow_964_2409"/>
</filter>
<filter id="filter7_ddddii_964_2409" x="154.5" y="495.242" width="247" height="89" filterUnits="userSpaceOnUse" color-interpolation-filters="sRGB">
<feFlood flood-opacity="0" result="BackgroundImageFix"/>
<feColorMatrix in="SourceAlpha" type="matrix" values="0 0 0 0 0 0 0 0 0 0 0 0 0 0 0 0 0 0 127 0" result="hardAlpha"/>
<feOffset dx="5" dy="5"/>
<feGaussianBlur stdDeviation="6.5"/>
<feColorMatrix type="matrix" values="0 0 0 0 0.819608 0 0 0 0 0.85098 0 0 0 0 0.901961 0 0 0 0.9 0"/>
<feBlend mode="normal" in2="BackgroundImageFix" result="effect1_dropShadow_964_2409"/>
<feColorMatrix in="SourceAlpha" type="matrix" values="0 0 0 0 0 0 0 0 0 0 0 0 0 0 0 0 0 0 127 0" result="hardAlpha"/>
<feOffset dx="-5" dy="-5"/>
<feGaussianBlur stdDeviation="5"/>
<feColorMatrix type="matrix" values="0 0 0 0 1 0 0 0 0 1 0 0 0 0 1 0 0 0 0.9 0"/>
<feBlend mode="normal" in2="effect1_dropShadow_964_2409" result="effect2_dropShadow_964_2409"/>
<feColorMatrix in="SourceAlpha" type="matrix" values="0 0 0 0 0 0 0 0 0 0 0 0 0 0 0 0 0 0 127 0" result="hardAlpha"/>
<feOffset dx="5" dy="-5"/>
<feGaussianBlur stdDeviation="5"/>
<feColorMatrix type="matrix" values="0 0 0 0 0.819608 0 0 0 0 0.85098 0 0 0 0 0.901961 0 0 0 0.2 0"/>
<feBlend mode="normal" in2="effect2_dropShadow_964_2409" result="effect3_dropShadow_964_2409"/>
<feColorMatrix in="SourceAlpha" type="matrix" values="0 0 0 0 0 0 0 0 0 0 0 0 0 0 0 0 0 0 127 0" result="hardAlpha"/>
<feOffset dx="-5" dy="5"/>
<feGaussianBlur stdDeviation="5"/>
<feColorMatrix type="matrix" values="0 0 0 0 0.819608 0 0 0 0 0.85098 0 0 0 0 0.901961 0 0 0 0.2 0"/>
<feBlend mode="normal" in2="effect3_dropShadow_964_2409" result="effect4_dropShadow_964_2409"/>
<feBlend mode="normal" in="SourceGraphic" in2="effect4_dropShadow_964_2409" result="shape"/>
<feColorMatrix in="SourceAlpha" type="matrix" values="0 0 0 0 0 0 0 0 0 0 0 0 0 0 0 0 0 0 127 0" result="hardAlpha"/>
<feOffset dx="-1" dy="-1"/>
<feGaussianBlur stdDeviation="1"/>
<feComposite in2="hardAlpha" operator="arithmetic" k2="-1" k3="1"/>
<feColorMatrix type="matrix" values="0 0 0 0 0.819608 0 0 0 0 0.85098 0 0 0 0 0.901961 0 0 0 0.5 0"/>
<feBlend mode="normal" in2="shape" result="effect5_innerShadow_964_2409"/>
<feColorMatrix in="SourceAlpha" type="matrix" values="0 0 0 0 0 0 0 0 0 0 0 0 0 0 0 0 0 0 127 0" result="hardAlpha"/>
<feOffset dx="1" dy="1"/>
<feGaussianBlur stdDeviation="1"/>
<feComposite in2="hardAlpha" operator="arithmetic" k2="-1" k3="1"/>
<feColorMatrix type="matrix" values="0 0 0 0 1 0 0 0 0 1 0 0 0 0 1 0 0 0 0.3 0"/>
<feBlend mode="normal" in2="effect5_innerShadow_964_2409" result="effect6_innerShadow_964_2409"/>
</filter>
<linearGradient id="paint0_linear_964_2409" x1="164.387" y1="335.683" x2="223.793" y2="335.683" gradientUnits="userSpaceOnUse">
<stop stop-color="#04D6EE"/>
<stop offset="1" stop-color="#157BD1"/>
</linearGradient>
<linearGradient id="paint1_linear_964_2409" x1="164.387" y1="335.683" x2="223.793" y2="335.683" gradientUnits="userSpaceOnUse">
<stop stop-color="#04D6EE"/>
<stop offset="1" stop-color="#157BD1"/>
</linearGradient>
<linearGradient id="paint2_linear_964_2409" x1="164.387" y1="335.683" x2="223.793" y2="335.683" gradientUnits="userSpaceOnUse">
<stop stop-color="#04D6EE"/>
<stop offset="1" stop-color="#157BD1"/>
</linearGradient>
<linearGradient id="paint3_linear_964_2409" x1="164.387" y1="335.683" x2="223.793" y2="335.683" gradientUnits="userSpaceOnUse">
<stop stop-color="#04D6EE"/>
<stop offset="1" stop-color="#157BD1"/>
</linearGradient>
<linearGradient id="paint4_linear_964_2409" x1="166.963" y1="335.683" x2="221.17" y2="335.683" gradientUnits="userSpaceOnUse">
<stop stop-color="#04D6EE"/>
<stop offset="1" stop-color="#157BD1"/>
</linearGradient>
<linearGradient id="paint5_linear_964_2409" x1="325.474" y1="618.979" x2="345.566" y2="641.145" gradientUnits="userSpaceOnUse">
<stop stop-color="#C86BCC"/>
<stop offset="1" stop-color="#9C7BE3"/>
</linearGradient>
<linearGradient id="paint6_linear_964_2409" x1="325.474" y1="618.979" x2="345.566" y2="641.145" gradientUnits="userSpaceOnUse">
<stop stop-color="#C86BCC"/>
<stop offset="1" stop-color="#9C7BE3"/>
</linearGradient>
<linearGradient id="paint7_linear_964_2409" x1="201.303" y1="617.954" x2="211.417" y2="642.377" gradientUnits="userSpaceOnUse">
<stop stop-color="#C86BCC"/>
<stop offset="1" stop-color="#9C7BE3"/>
</linearGradient>
<linearGradient id="paint8_linear_964_2409" x1="214.52" y1="617.954" x2="224.634" y2="642.377" gradientUnits="userSpaceOnUse">
<stop stop-color="#C86BCC"/>
<stop offset="1" stop-color="#9C7BE3"/>
</linearGradient>
<linearGradient id="paint9_linear_964_2409" x1="214.52" y1="617.954" x2="224.634" y2="642.377" gradientUnits="userSpaceOnUse">
<stop stop-color="#C86BCC"/>
<stop offset="1" stop-color="#9C7BE3"/>
</linearGradient>
<linearGradient id="paint10_linear_964_2409" x1="227.737" y1="617.954" x2="237.851" y2="642.377" gradientUnits="userSpaceOnUse">
<stop stop-color="#C86BCC"/>
<stop offset="1" stop-color="#9C7BE3"/>
</linearGradient>
<linearGradient id="paint11_linear_964_2409" x1="227.737" y1="617.954" x2="237.851" y2="642.377" gradientUnits="userSpaceOnUse">
<stop stop-color="#C86BCC"/>
<stop offset="1" stop-color="#9C7BE3"/>
</linearGradient>
</defs>
</svg>
