<svg width="390" height="687" viewBox="0 0 390 687" fill="none" xmlns="http://www.w3.org/2000/svg">
<g filter="url(#filter0_dddii_964_5099)">
<rect width="390" height="653.243" transform="translate(0 15)" fill="white"/>
<g filter="url(#filter1_ddddii_964_5099)">
<rect x="147" y="90" width="92" height="38" rx="19" fill="white"/>
<path d="M181.287 113.168C180.232 113.168 179.355 112.818 178.655 112.118C177.955 111.399 177.605 110.527 177.605 109.5C177.605 108.464 177.955 107.596 178.655 106.896C179.355 106.187 180.232 105.832 181.287 105.832C181.978 105.832 182.598 106 183.149 106.336C183.7 106.663 184.101 107.106 184.353 107.666L183.597 108.1C183.41 107.68 183.107 107.349 182.687 107.106C182.276 106.854 181.81 106.728 181.287 106.728C180.512 106.728 179.859 106.999 179.327 107.54C178.795 108.072 178.529 108.725 178.529 109.5C178.529 110.265 178.795 110.923 179.327 111.474C179.859 112.006 180.512 112.272 181.287 112.272C181.8 112.272 182.262 112.151 182.673 111.908C183.093 111.665 183.42 111.329 183.653 110.9L184.423 111.348C184.134 111.908 183.709 112.351 183.149 112.678C182.589 113.005 181.968 113.168 181.287 113.168ZM186.674 113H185.75V102.78H186.674V113ZM189.768 103.844C189.768 104.031 189.703 104.189 189.572 104.32C189.442 104.451 189.283 104.516 189.096 104.516C188.91 104.516 188.751 104.451 188.62 104.32C188.49 104.189 188.424 104.031 188.424 103.844C188.424 103.657 188.49 103.499 188.62 103.368C188.751 103.237 188.91 103.172 189.096 103.172C189.283 103.172 189.442 103.237 189.572 103.368C189.703 103.499 189.768 103.657 189.768 103.844ZM189.558 113H188.634V106H189.558V113ZM194.795 105.832C195.635 105.832 196.302 106.093 196.797 106.616C197.292 107.129 197.539 107.825 197.539 108.702V113H196.615V108.702C196.615 108.077 196.447 107.591 196.111 107.246C195.784 106.901 195.318 106.728 194.711 106.728C194.011 106.728 193.456 106.947 193.045 107.386C192.644 107.825 192.443 108.473 192.443 109.332V113H191.519V106H192.443V107.092C192.966 106.252 193.75 105.832 194.795 105.832ZM200.46 103.844C200.46 104.031 200.394 104.189 200.264 104.32C200.133 104.451 199.974 104.516 199.788 104.516C199.601 104.516 199.442 104.451 199.312 104.32C199.181 104.189 199.116 104.031 199.116 103.844C199.116 103.657 199.181 103.499 199.312 103.368C199.442 103.237 199.601 103.172 199.788 103.172C199.974 103.172 200.133 103.237 200.264 103.368C200.394 103.499 200.46 103.657 200.46 103.844ZM200.25 113H199.326V106H200.25V113ZM205.472 113.168C204.418 113.168 203.54 112.818 202.84 112.118C202.14 111.399 201.79 110.527 201.79 109.5C201.79 108.464 202.14 107.596 202.84 106.896C203.54 106.187 204.418 105.832 205.472 105.832C206.163 105.832 206.784 106 207.334 106.336C207.885 106.663 208.286 107.106 208.538 107.666L207.782 108.1C207.596 107.68 207.292 107.349 206.872 107.106C206.462 106.854 205.995 106.728 205.472 106.728C204.698 106.728 204.044 106.999 203.512 107.54C202.98 108.072 202.714 108.725 202.714 109.5C202.714 110.265 202.98 110.923 203.512 111.474C204.044 112.006 204.698 112.272 205.472 112.272C205.986 112.272 206.448 112.151 206.858 111.908C207.278 111.665 207.605 111.329 207.838 110.9L208.608 111.348C208.319 111.908 207.894 112.351 207.334 112.678C206.774 113.005 206.154 113.168 205.472 113.168Z" fill="#239FFB"/>
</g>
<g filter="url(#filter2_ddddii_964_5099)">
<rect x="31" y="203" width="122" height="38" rx="19" fill="white"/>
<path d="M67.7516 216.2V217.124H63.2016V220.736H67.5416V221.66H63.2016V226H62.2216V216.2H67.7516ZM75.1526 225.118C74.434 225.818 73.566 226.168 72.5486 226.168C71.5126 226.168 70.64 225.818 69.9306 225.118C69.2213 224.409 68.8666 223.536 68.8666 222.5C68.8666 221.464 69.2213 220.596 69.9306 219.896C70.64 219.187 71.5126 218.832 72.5486 218.832C73.5753 218.832 74.4433 219.187 75.1526 219.896C75.8713 220.596 76.2306 221.464 76.2306 222.5C76.2306 223.527 75.8713 224.399 75.1526 225.118ZM70.5886 224.474C71.1206 225.006 71.774 225.272 72.5486 225.272C73.3233 225.272 73.9766 225.006 74.5086 224.474C75.0406 223.923 75.3066 223.265 75.3066 222.5C75.3066 221.725 75.0406 221.072 74.5086 220.54C73.9766 219.999 73.3233 219.728 72.5486 219.728C71.774 219.728 71.1206 219.999 70.5886 220.54C70.0566 221.072 69.7906 221.725 69.7906 222.5C69.7906 223.265 70.0566 223.923 70.5886 224.474ZM78.7009 219V220.162C79.1302 219.313 79.8675 218.888 80.9129 218.888V219.784C80.2409 219.784 79.7042 219.98 79.3029 220.372C78.9015 220.755 78.7009 221.333 78.7009 222.108V226H77.7769V219H78.7009ZM88.9412 226.168C87.8866 226.168 87.0092 225.818 86.3092 225.118C85.6092 224.399 85.2592 223.527 85.2592 222.5C85.2592 221.464 85.6092 220.596 86.3092 219.896C87.0092 219.187 87.8866 218.832 88.9412 218.832C89.6319 218.832 90.2526 219 90.8032 219.336C91.3539 219.663 91.7552 220.106 92.0072 220.666L91.2512 221.1C91.0646 220.68 90.7612 220.349 90.3412 220.106C89.9306 219.854 89.4639 219.728 88.9412 219.728C88.1666 219.728 87.5132 219.999 86.9812 220.54C86.4492 221.072 86.1832 221.725 86.1832 222.5C86.1832 223.265 86.4492 223.923 86.9812 224.474C87.5132 225.006 88.1666 225.272 88.9412 225.272C89.4546 225.272 89.9166 225.151 90.3272 224.908C90.7472 224.665 91.0739 224.329 91.3072 223.9L92.0772 224.348C91.7879 224.908 91.3632 225.351 90.8032 225.678C90.2432 226.005 89.6226 226.168 88.9412 226.168ZM94.3278 226H93.4038V215.78H94.3278V226ZM97.4226 216.844C97.4226 217.031 97.3573 217.189 97.2266 217.32C97.0959 217.451 96.9373 217.516 96.7506 217.516C96.5639 217.516 96.4053 217.451 96.2746 217.32C96.1439 217.189 96.0786 217.031 96.0786 216.844C96.0786 216.657 96.1439 216.499 96.2746 216.368C96.4053 216.237 96.5639 216.172 96.7506 216.172C96.9373 216.172 97.0959 216.237 97.2266 216.368C97.3573 216.499 97.4226 216.657 97.4226 216.844ZM97.2126 226H96.2886V219H97.2126V226ZM102.449 218.832C103.289 218.832 103.957 219.093 104.451 219.616C104.946 220.129 105.193 220.825 105.193 221.702V226H104.269V221.702C104.269 221.077 104.101 220.591 103.765 220.246C103.439 219.901 102.972 219.728 102.365 219.728C101.665 219.728 101.11 219.947 100.699 220.386C100.298 220.825 100.097 221.473 100.097 222.332V226H99.1734V219H100.097V220.092C100.62 219.252 101.404 218.832 102.449 218.832ZM108.114 216.844C108.114 217.031 108.049 217.189 107.918 217.32C107.787 217.451 107.629 217.516 107.442 217.516C107.255 217.516 107.097 217.451 106.966 217.32C106.835 217.189 106.77 217.031 106.77 216.844C106.77 216.657 106.835 216.499 106.966 216.368C107.097 216.237 107.255 216.172 107.442 216.172C107.629 216.172 107.787 216.237 107.918 216.368C108.049 216.499 108.114 216.657 108.114 216.844ZM107.904 226H106.98V219H107.904V226ZM113.127 226.168C112.072 226.168 111.195 225.818 110.495 225.118C109.795 224.399 109.445 223.527 109.445 222.5C109.445 221.464 109.795 220.596 110.495 219.896C111.195 219.187 112.072 218.832 113.127 218.832C113.817 218.832 114.438 219 114.989 219.336C115.539 219.663 115.941 220.106 116.193 220.666L115.437 221.1C115.25 220.68 114.947 220.349 114.527 220.106C114.116 219.854 113.649 219.728 113.127 219.728C112.352 219.728 111.699 219.999 111.167 220.54C110.635 221.072 110.369 221.725 110.369 222.5C110.369 223.265 110.635 223.923 111.167 224.474C111.699 225.006 112.352 225.272 113.127 225.272C113.64 225.272 114.102 225.151 114.513 224.908C114.933 224.665 115.259 224.329 115.493 223.9L116.263 224.348C115.973 224.908 115.549 225.351 114.989 225.678C114.429 226.005 113.808 226.168 113.127 226.168ZM118.249 220.834C118.249 221.375 118.73 221.772 119.691 222.024C119.962 222.089 120.139 222.136 120.223 222.164C120.307 222.183 120.47 222.234 120.713 222.318C120.965 222.393 121.138 222.458 121.231 222.514C121.334 222.57 121.474 222.659 121.651 222.78C121.828 222.892 121.954 223.009 122.029 223.13C122.104 223.242 122.174 223.391 122.239 223.578C122.304 223.755 122.337 223.947 122.337 224.152C122.337 224.749 122.099 225.235 121.623 225.608C121.166 225.981 120.559 226.168 119.803 226.168C119.15 226.168 118.585 226.023 118.109 225.734C117.633 225.435 117.297 225.043 117.101 224.558L117.885 224.096C118.016 224.46 118.249 224.749 118.585 224.964C118.93 225.169 119.336 225.272 119.803 225.272C120.279 225.272 120.666 225.179 120.965 224.992C121.264 224.805 121.413 224.525 121.413 224.152C121.413 223.611 120.932 223.214 119.971 222.962C119.7 222.897 119.523 222.855 119.439 222.836C119.355 222.808 119.187 222.757 118.935 222.682C118.692 222.598 118.52 222.528 118.417 222.472C118.324 222.416 118.188 222.332 118.011 222.22C117.834 222.099 117.708 221.982 117.633 221.87C117.558 221.749 117.488 221.599 117.423 221.422C117.358 221.235 117.325 221.039 117.325 220.834C117.325 220.265 117.549 219.789 117.997 219.406C118.464 219.023 119.038 218.832 119.719 218.832C120.279 218.832 120.774 218.958 121.203 219.21C121.642 219.462 121.964 219.812 122.169 220.26L121.399 220.708C121.138 220.055 120.578 219.728 119.719 219.728C119.299 219.728 118.949 219.826 118.669 220.022C118.389 220.218 118.249 220.489 118.249 220.834Z" fill="#323232"/>
</g>
<g filter="url(#filter3_ddddii_964_5099)">
<rect x="222" y="203" width="133" height="38" rx="19" fill="white"/>
<path d="M258.892 216.2V217.124H254.342V220.736H258.682V221.66H254.342V226H253.362V216.2H258.892ZM266.293 225.118C265.575 225.818 264.707 226.168 263.689 226.168C262.653 226.168 261.781 225.818 261.071 225.118C260.362 224.409 260.007 223.536 260.007 222.5C260.007 221.464 260.362 220.596 261.071 219.896C261.781 219.187 262.653 218.832 263.689 218.832C264.716 218.832 265.584 219.187 266.293 219.896C267.012 220.596 267.371 221.464 267.371 222.5C267.371 223.527 267.012 224.399 266.293 225.118ZM261.729 224.474C262.261 225.006 262.915 225.272 263.689 225.272C264.464 225.272 265.117 225.006 265.649 224.474C266.181 223.923 266.447 223.265 266.447 222.5C266.447 221.725 266.181 221.072 265.649 220.54C265.117 219.999 264.464 219.728 263.689 219.728C262.915 219.728 262.261 219.999 261.729 220.54C261.197 221.072 260.931 221.725 260.931 222.5C260.931 223.265 261.197 223.923 261.729 224.474ZM269.842 219V220.162C270.271 219.313 271.008 218.888 272.053 218.888V219.784C271.382 219.784 270.845 219.98 270.444 220.372C270.042 220.755 269.842 221.333 269.842 222.108V226H268.918V219H269.842ZM282.84 220.372V216.2H283.764V226H282.84V224.628C282.196 225.655 281.253 226.168 280.012 226.168C279.013 226.168 278.159 225.813 277.45 225.104C276.75 224.395 276.4 223.527 276.4 222.5C276.4 221.473 276.75 220.605 277.45 219.896C278.159 219.187 279.013 218.832 280.012 218.832C281.253 218.832 282.196 219.345 282.84 220.372ZM278.122 224.474C278.654 225.006 279.307 225.272 280.082 225.272C280.857 225.272 281.51 225.006 282.042 224.474C282.574 223.923 282.84 223.265 282.84 222.5C282.84 221.725 282.574 221.072 282.042 220.54C281.51 219.999 280.857 219.728 280.082 219.728C279.307 219.728 278.654 219.999 278.122 220.54C277.59 221.072 277.324 221.725 277.324 222.5C277.324 223.265 277.59 223.923 278.122 224.474ZM291.586 225.118C290.868 225.818 290 226.168 288.982 226.168C287.946 226.168 287.074 225.818 286.364 225.118C285.655 224.409 285.3 223.536 285.3 222.5C285.3 221.464 285.655 220.596 286.364 219.896C287.074 219.187 287.946 218.832 288.982 218.832C290.009 218.832 290.877 219.187 291.586 219.896C292.305 220.596 292.664 221.464 292.664 222.5C292.664 223.527 292.305 224.399 291.586 225.118ZM287.022 224.474C287.554 225.006 288.208 225.272 288.982 225.272C289.757 225.272 290.41 225.006 290.942 224.474C291.474 223.923 291.74 223.265 291.74 222.5C291.74 221.725 291.474 221.072 290.942 220.54C290.41 219.999 289.757 219.728 288.982 219.728C288.208 219.728 287.554 219.999 287.022 220.54C286.49 221.072 286.224 221.725 286.224 222.5C286.224 223.265 286.49 223.923 287.022 224.474ZM297.472 226.168C296.418 226.168 295.54 225.818 294.84 225.118C294.14 224.399 293.79 223.527 293.79 222.5C293.79 221.464 294.14 220.596 294.84 219.896C295.54 219.187 296.418 218.832 297.472 218.832C298.163 218.832 298.784 219 299.334 219.336C299.885 219.663 300.286 220.106 300.538 220.666L299.782 221.1C299.596 220.68 299.292 220.349 298.872 220.106C298.462 219.854 297.995 219.728 297.472 219.728C296.698 219.728 296.044 219.999 295.512 220.54C294.98 221.072 294.714 221.725 294.714 222.5C294.714 223.265 294.98 223.923 295.512 224.474C296.044 225.006 296.698 225.272 297.472 225.272C297.986 225.272 298.448 225.151 298.858 224.908C299.278 224.665 299.605 224.329 299.838 223.9L300.608 224.348C300.319 224.908 299.894 225.351 299.334 225.678C298.774 226.005 298.154 226.168 297.472 226.168ZM305.645 219V219.896H303.629V224.138C303.629 224.521 303.704 224.796 303.853 224.964C304.002 225.123 304.226 225.207 304.525 225.216C304.824 225.216 305.197 225.207 305.645 225.188V226C304.646 226.149 303.904 226.079 303.419 225.79C302.943 225.491 302.705 224.941 302.705 224.138V219.896H301.235V219H302.705V217.32L303.629 217.04V219H305.645ZM312.627 225.118C311.909 225.818 311.041 226.168 310.023 226.168C308.987 226.168 308.115 225.818 307.405 225.118C306.696 224.409 306.341 223.536 306.341 222.5C306.341 221.464 306.696 220.596 307.405 219.896C308.115 219.187 308.987 218.832 310.023 218.832C311.05 218.832 311.918 219.187 312.627 219.896C313.346 220.596 313.705 221.464 313.705 222.5C313.705 223.527 313.346 224.399 312.627 225.118ZM308.063 224.474C308.595 225.006 309.249 225.272 310.023 225.272C310.798 225.272 311.451 225.006 311.983 224.474C312.515 223.923 312.781 223.265 312.781 222.5C312.781 221.725 312.515 221.072 311.983 220.54C311.451 219.999 310.798 219.728 310.023 219.728C309.249 219.728 308.595 219.999 308.063 220.54C307.531 221.072 307.265 221.725 307.265 222.5C307.265 223.265 307.531 223.923 308.063 224.474ZM316.175 219V220.162C316.605 219.313 317.342 218.888 318.387 218.888V219.784C317.715 219.784 317.179 219.98 316.777 220.372C316.376 220.755 316.175 221.333 316.175 222.108V226H315.251V219H316.175ZM320.108 220.834C320.108 221.375 320.589 221.772 321.55 222.024C321.821 222.089 321.998 222.136 322.082 222.164C322.166 222.183 322.33 222.234 322.572 222.318C322.824 222.393 322.997 222.458 323.09 222.514C323.193 222.57 323.333 222.659 323.51 222.78C323.688 222.892 323.814 223.009 323.888 223.13C323.963 223.242 324.033 223.391 324.098 223.578C324.164 223.755 324.196 223.947 324.196 224.152C324.196 224.749 323.958 225.235 323.482 225.608C323.025 225.981 322.418 226.168 321.662 226.168C321.009 226.168 320.444 226.023 319.968 225.734C319.492 225.435 319.156 225.043 318.96 224.558L319.744 224.096C319.875 224.46 320.108 224.749 320.444 224.964C320.79 225.169 321.196 225.272 321.662 225.272C322.138 225.272 322.526 225.179 322.824 224.992C323.123 224.805 323.272 224.525 323.272 224.152C323.272 223.611 322.792 223.214 321.83 222.962C321.56 222.897 321.382 222.855 321.298 222.836C321.214 222.808 321.046 222.757 320.794 222.682C320.552 222.598 320.379 222.528 320.276 222.472C320.183 222.416 320.048 222.332 319.87 222.22C319.693 222.099 319.567 221.982 319.492 221.87C319.418 221.749 319.348 221.599 319.282 221.422C319.217 221.235 319.184 221.039 319.184 220.834C319.184 220.265 319.408 219.789 319.856 219.406C320.323 219.023 320.897 218.832 321.578 218.832C322.138 218.832 322.633 218.958 323.062 219.21C323.501 219.462 323.823 219.812 324.028 220.26L323.258 220.708C322.997 220.055 322.437 219.728 321.578 219.728C321.158 219.728 320.808 219.826 320.528 220.022C320.248 220.218 320.108 220.489 320.108 220.834Z" fill="#323232"/>
</g>
<path opacity="0.5" d="M302.5 246V268C302.5 272.418 298.918 276 294.5 276H195.5" stroke="#239FFB" stroke-width="2"/>
<path opacity="0.5" d="M195.5 276V275H196.5V276H195.5ZM195.5 314L189.726 304H201.274L195.5 314ZM87.5 246V268H85.5V246H87.5ZM94.5 275H195.5V277H94.5V275ZM196.5 276V305H194.5V276H196.5ZM87.5 268C87.5 271.866 90.634 275 94.5 275V277C89.5294 277 85.5 272.971 85.5 268H87.5Z" fill="#239FFB"/>
<path opacity="0.5" d="M86.5 198L92.2735 188H80.7265L86.5 198ZM192.5 133V152H194.5V133H192.5ZM185.5 159H94.5V161H185.5V159ZM85.5 168V189H87.5V168H85.5ZM94.5 159C89.5294 159 85.5 163.029 85.5 168H87.5C87.5 164.134 90.634 161 94.5 161V159ZM192.5 152C192.5 155.866 189.366 159 185.5 159V161C190.471 161 194.5 156.971 194.5 152H192.5Z" fill="#239FFB"/>
<path opacity="0.5" d="M302.5 198L296.726 188H308.274L302.5 198ZM197.5 133V152H195.5V133H197.5ZM204.5 159H294.5V161H204.5V159ZM303.5 168V189H301.5V168H303.5ZM294.5 159C299.471 159 303.5 163.029 303.5 168H301.5C301.5 164.134 298.366 161 294.5 161V159ZM197.5 152C197.5 155.866 200.634 159 204.5 159V161C199.529 161 195.5 156.971 195.5 152H197.5Z" fill="#239FFB"/>
<path d="M166.272 343.428C163.758 340.915 163.758 336.84 166.272 334.327L179.714 320.885C182.227 318.372 186.302 318.372 188.815 320.885L192.456 324.526C194.969 327.039 194.969 331.114 192.456 333.627L179.014 347.069C176.5 349.582 172.426 349.582 169.912 347.069L166.272 343.428Z" fill="url(#paint0_linear_964_5099)"/>
<path d="M221.86 343.428C224.374 340.915 224.374 336.84 221.86 334.327L208.418 320.885C205.905 318.372 201.83 318.372 199.317 320.885L195.676 324.526C193.163 327.039 193.163 331.114 195.676 333.627L209.118 347.069C211.632 349.582 215.706 349.582 218.22 347.069L221.86 343.428Z" fill="url(#paint1_linear_964_5099)"/>
<mask id="mask0_964_5099" style="mask-type:alpha" maskUnits="userSpaceOnUse" x="164" y="319" width="60" height="30">
<path d="M166.272 343.428C163.758 340.915 163.758 336.84 166.272 334.327L179.714 320.885C182.227 318.372 186.302 318.372 188.815 320.885L192.456 324.526C194.969 327.039 194.969 331.114 192.456 333.627L179.014 347.069C176.5 349.582 172.426 349.582 169.912 347.069L166.272 343.428Z" fill="url(#paint2_linear_964_5099)"/>
<path d="M221.86 343.428C224.374 340.915 224.374 336.84 221.86 334.327L208.418 320.885C205.905 318.372 201.83 318.372 199.317 320.885L195.676 324.526C193.163 327.039 193.163 331.114 195.676 333.627L209.118 347.069C211.632 349.582 215.706 349.582 218.22 347.069L221.86 343.428Z" fill="url(#paint3_linear_964_5099)"/>
</mask>
<g mask="url(#mask0_964_5099)">
<g filter="url(#filter4_f_964_5099)">
<path d="M181.986 319.398L193.544 330.957L181.986 342.515L170.428 330.956L181.986 319.398Z" fill="black" fill-opacity="0.22"/>
<path d="M206.168 319.398L217.727 330.957L206.168 342.515L194.61 330.956L206.168 319.398Z" fill="black" fill-opacity="0.22"/>
</g>
</g>
<path d="M198.593 347.071C198.594 347.07 198.595 347.07 198.595 347.069L202.236 343.428C202.24 343.425 202.243 343.421 202.247 343.417L212.037 333.627C214.546 331.118 218.612 331.114 221.126 333.614L208.397 320.885C205.883 318.372 201.809 318.372 199.295 320.885L194.044 326.136L188.794 320.885C186.281 318.372 182.206 318.372 179.692 320.885L166.963 333.614C169.477 331.114 173.543 331.118 176.052 333.627L185.827 343.402C185.836 343.411 185.844 343.42 185.853 343.428L189.494 347.069C189.808 347.383 190.147 347.658 190.504 347.894C193.001 349.543 196.394 349.268 198.593 347.071Z" fill="url(#paint4_linear_964_5099)"/>
<path d="M164.946 359.014H166.818V368.242H165.012V362.257L162.415 366.542H162.204L159.607 362.27V368.242H157.788V359.014H159.66L162.31 363.378L164.946 359.014ZM174.866 365.645H169.896C170.115 366.471 170.735 366.884 171.754 366.884C172.405 366.884 172.897 366.665 173.231 366.225L174.602 367.016C173.952 367.957 172.994 368.427 171.728 368.427C170.638 368.427 169.764 368.097 169.105 367.438C168.445 366.779 168.116 365.948 168.116 364.946C168.116 363.962 168.441 363.136 169.091 362.468C169.733 361.8 170.568 361.466 171.596 361.466C172.572 361.466 173.367 361.8 173.982 362.468C174.615 363.136 174.932 363.962 174.932 364.946C174.932 365.131 174.91 365.364 174.866 365.645ZM169.869 364.327H173.231C173.134 363.896 172.937 363.567 172.638 363.338C172.348 363.11 172.001 362.995 171.596 362.995C171.139 362.995 170.761 363.114 170.462 363.351C170.164 363.58 169.966 363.905 169.869 364.327ZM181.064 362.428V359.014H182.764V368.242H181.064V367.464C180.563 368.106 179.851 368.427 178.928 368.427C178.04 368.427 177.28 368.093 176.647 367.425C176.023 366.748 175.711 365.922 175.711 364.946C175.711 363.98 176.023 363.158 176.647 362.481C177.28 361.804 178.04 361.466 178.928 361.466C179.851 361.466 180.563 361.787 181.064 362.428ZM177.926 366.291C178.286 366.634 178.726 366.805 179.244 366.805C179.772 366.805 180.207 366.634 180.55 366.291C180.892 365.94 181.064 365.491 181.064 364.946C181.064 364.401 180.892 363.958 180.55 363.615C180.207 363.263 179.772 363.088 179.244 363.088C178.717 363.088 178.278 363.263 177.926 363.615C177.583 363.958 177.412 364.401 177.412 364.946C177.412 365.491 177.583 365.94 177.926 366.291ZM184.399 359.014H188.064C189.329 359.014 190.384 359.458 191.228 360.345C192.08 361.224 192.506 362.319 192.506 363.628C192.506 364.938 192.08 366.032 191.228 366.911C190.384 367.798 189.329 368.242 188.064 368.242H184.399V359.014ZM186.218 366.502H188.064C188.863 366.502 189.514 366.238 190.015 365.711C190.516 365.166 190.766 364.472 190.766 363.628C190.766 362.776 190.516 362.086 190.015 361.558C189.514 361.022 188.863 360.754 188.064 360.754H186.218V366.502ZM198.727 362.428V361.651H200.428V368.242H198.727V367.464C198.218 368.106 197.501 368.427 196.579 368.427C195.7 368.427 194.944 368.093 194.311 367.425C193.687 366.748 193.375 365.922 193.375 364.946C193.375 363.98 193.687 363.158 194.311 362.481C194.944 361.804 195.7 361.466 196.579 361.466C197.501 361.466 198.218 361.787 198.727 362.428ZM195.59 366.291C195.933 366.634 196.368 366.805 196.895 366.805C197.422 366.805 197.857 366.634 198.2 366.291C198.552 365.94 198.727 365.491 198.727 364.946C198.727 364.401 198.552 363.958 198.2 363.615C197.857 363.263 197.422 363.088 196.895 363.088C196.368 363.088 195.933 363.263 195.59 363.615C195.247 363.958 195.076 364.401 195.076 364.946C195.076 365.491 195.247 365.94 195.59 366.291ZM205.741 361.651V363.285H204.251V366.027C204.251 366.256 204.308 366.423 204.422 366.528C204.536 366.634 204.703 366.695 204.923 366.713C205.143 366.722 205.415 366.717 205.741 366.7V368.242C204.589 368.374 203.767 368.269 203.275 367.926C202.792 367.574 202.55 366.941 202.55 366.027V363.285H201.403V361.651H202.55V360.319L204.251 359.805V361.651H205.741ZM211.743 362.428V361.651H213.444V368.242H211.743V367.464C211.233 368.106 210.517 368.427 209.594 368.427C208.715 368.427 207.96 368.093 207.327 367.425C206.703 366.748 206.391 365.922 206.391 364.946C206.391 363.98 206.703 363.158 207.327 362.481C207.96 361.804 208.715 361.466 209.594 361.466C210.517 361.466 211.233 361.787 211.743 362.428ZM208.606 366.291C208.948 366.634 209.383 366.805 209.911 366.805C210.438 366.805 210.873 366.634 211.216 366.291C211.567 365.94 211.743 365.491 211.743 364.946C211.743 364.401 211.567 363.958 211.216 363.615C210.873 363.263 210.438 363.088 209.911 363.088C209.383 363.088 208.948 363.263 208.606 363.615C208.263 363.958 208.091 364.401 208.091 364.946C208.091 365.491 208.263 365.94 208.606 366.291ZM217.095 367.293C217.095 367.601 216.985 367.864 216.766 368.084C216.546 368.304 216.282 368.414 215.975 368.414C215.667 368.414 215.403 368.304 215.184 368.084C214.964 367.864 214.854 367.601 214.854 367.293C214.854 366.985 214.964 366.722 215.184 366.502C215.403 366.282 215.667 366.172 215.975 366.172C216.282 366.172 216.546 366.282 216.766 366.502C216.985 366.722 217.095 366.985 217.095 367.293ZM226.502 368.242H224.525L223.971 366.581H220.293L219.739 368.242H217.775L221.005 359.014H223.259L226.502 368.242ZM222.139 361.11L220.873 364.88H223.404L222.139 361.11ZM227.399 368.242V359.014H229.218V368.242H227.399Z" fill="#239FFB"/>
<path opacity="0.5" d="M86.5 505.242L92.2735 495.242H80.7265L86.5 505.242ZM192.5 440.242V459.242H194.5V440.242H192.5ZM185.5 466.242H94.5V468.242H185.5V466.242ZM85.5 475.242V496.242H87.5V475.242H85.5ZM94.5 466.242C89.5294 466.242 85.5 470.272 85.5 475.242H87.5C87.5 471.376 90.634 468.242 94.5 468.242V466.242ZM192.5 459.242C192.5 463.108 189.366 466.242 185.5 466.242V468.242C190.471 468.242 194.5 464.213 194.5 459.242H192.5Z" fill="#239FFB"/>
<path opacity="0.5" d="M302.5 505.242L296.726 495.242H308.274L302.5 505.242ZM197.5 440.242V459.242H195.5V440.242H197.5ZM204.5 466.242H294.5V468.242H204.5V466.242ZM303.5 475.242V496.242H301.5V475.242H303.5ZM294.5 466.242C299.471 466.242 303.5 470.272 303.5 475.242H301.5C301.5 471.376 298.366 468.242 294.5 468.242V466.242ZM197.5 459.242C197.5 463.108 200.634 466.242 204.5 466.242V468.242C199.529 468.242 195.5 464.213 195.5 459.242H197.5Z" fill="#239FFB"/>
<g filter="url(#filter5_ddddii_964_5099)">
<rect x="104" y="397.242" width="182" height="38" rx="19" fill="white"/>
<path d="M140.65 410.442V411.366H136.1V414.978H140.44V415.902H136.1V420.242H135.12V410.442H140.65ZM148.051 419.36C147.332 420.06 146.464 420.41 145.447 420.41C144.411 420.41 143.538 420.06 142.829 419.36C142.12 418.651 141.765 417.778 141.765 416.742C141.765 415.706 142.12 414.838 142.829 414.138C143.538 413.429 144.411 413.074 145.447 413.074C146.474 413.074 147.342 413.429 148.051 414.138C148.77 414.838 149.129 415.706 149.129 416.742C149.129 417.769 148.77 418.642 148.051 419.36ZM143.487 418.716C144.019 419.248 144.672 419.514 145.447 419.514C146.222 419.514 146.875 419.248 147.407 418.716C147.939 418.166 148.205 417.508 148.205 416.742C148.205 415.968 147.939 415.314 147.407 414.782C146.875 414.241 146.222 413.97 145.447 413.97C144.672 413.97 144.019 414.241 143.487 414.782C142.955 415.314 142.689 415.968 142.689 416.742C142.689 417.508 142.955 418.166 143.487 418.716ZM151.599 413.242V414.404C152.029 413.555 152.766 413.13 153.811 413.13V414.026C153.139 414.026 152.603 414.222 152.201 414.614C151.8 414.997 151.599 415.576 151.599 416.35V420.242H150.675V413.242H151.599ZM162.33 413.074C163.328 413.074 164.178 413.429 164.878 414.138C165.587 414.848 165.942 415.716 165.942 416.742C165.942 417.769 165.587 418.637 164.878 419.346C164.178 420.056 163.328 420.41 162.33 420.41C161.088 420.41 160.146 419.897 159.502 418.87V423.042H158.578V413.242H159.502V414.614C160.146 413.588 161.088 413.074 162.33 413.074ZM160.3 418.716C160.832 419.248 161.485 419.514 162.26 419.514C163.034 419.514 163.688 419.248 164.22 418.716C164.752 418.166 165.018 417.508 165.018 416.742C165.018 415.968 164.752 415.314 164.22 414.782C163.688 414.241 163.034 413.97 162.26 413.97C161.485 413.97 160.832 414.241 160.3 414.782C159.768 415.314 159.502 415.968 159.502 416.742C159.502 417.508 159.768 418.166 160.3 418.716ZM170.712 413.074C171.757 413.074 172.593 413.443 173.218 414.18C173.862 414.908 174.184 415.772 174.184 416.77C174.184 416.817 174.175 416.962 174.156 417.204H168.01C168.103 417.904 168.402 418.464 168.906 418.884C169.41 419.304 170.04 419.514 170.796 419.514C171.86 419.514 172.611 419.118 173.05 418.324L173.862 418.8C173.554 419.304 173.129 419.701 172.588 419.99C172.056 420.27 171.454 420.41 170.782 420.41C169.681 420.41 168.785 420.065 168.094 419.374C167.403 418.684 167.058 417.806 167.058 416.742C167.058 415.688 167.399 414.815 168.08 414.124C168.761 413.424 169.639 413.074 170.712 413.074ZM170.712 413.97C169.984 413.97 169.373 414.185 168.878 414.614C168.393 415.044 168.103 415.608 168.01 416.308H173.232C173.129 415.562 172.845 414.988 172.378 414.586C171.893 414.176 171.337 413.97 170.712 413.97ZM181.52 419.36C180.801 420.06 179.933 420.41 178.916 420.41C177.88 420.41 177.007 420.06 176.298 419.36C175.588 418.651 175.234 417.778 175.234 416.742C175.234 415.706 175.588 414.838 176.298 414.138C177.007 413.429 177.88 413.074 178.916 413.074C179.942 413.074 180.81 413.429 181.52 414.138C182.238 414.838 182.598 415.706 182.598 416.742C182.598 417.769 182.238 418.642 181.52 419.36ZM176.956 418.716C177.488 419.248 178.141 419.514 178.916 419.514C179.69 419.514 180.344 419.248 180.876 418.716C181.408 418.166 181.674 417.508 181.674 416.742C181.674 415.968 181.408 415.314 180.876 414.782C180.344 414.241 179.69 413.97 178.916 413.97C178.141 413.97 177.488 414.241 176.956 414.782C176.424 415.314 176.158 415.968 176.158 416.742C176.158 417.508 176.424 418.166 176.956 418.716ZM187.896 413.074C188.895 413.074 189.744 413.429 190.444 414.138C191.153 414.848 191.508 415.716 191.508 416.742C191.508 417.769 191.153 418.637 190.444 419.346C189.744 420.056 188.895 420.41 187.896 420.41C186.655 420.41 185.712 419.897 185.068 418.87V423.042H184.144V413.242H185.068V414.614C185.712 413.588 186.655 413.074 187.896 413.074ZM185.866 418.716C186.398 419.248 187.051 419.514 187.826 419.514C188.601 419.514 189.254 419.248 189.786 418.716C190.318 418.166 190.584 417.508 190.584 416.742C190.584 415.968 190.318 415.314 189.786 414.782C189.254 414.241 188.601 413.97 187.826 413.97C187.051 413.97 186.398 414.241 185.866 414.782C185.334 415.314 185.068 415.968 185.068 416.742C185.068 417.508 185.334 418.166 185.866 418.716ZM193.968 420.242H193.044V410.022H193.968V420.242ZM199.163 413.074C200.209 413.074 201.044 413.443 201.669 414.18C202.313 414.908 202.635 415.772 202.635 416.77C202.635 416.817 202.626 416.962 202.607 417.204H196.461C196.555 417.904 196.853 418.464 197.357 418.884C197.861 419.304 198.491 419.514 199.247 419.514C200.311 419.514 201.063 419.118 201.501 418.324L202.313 418.8C202.005 419.304 201.581 419.701 201.039 419.99C200.507 420.27 199.905 420.41 199.233 420.41C198.132 420.41 197.236 420.065 196.545 419.374C195.855 418.684 195.509 417.806 195.509 416.742C195.509 415.688 195.85 414.815 196.531 414.124C197.213 413.424 198.09 413.074 199.163 413.074ZM199.163 413.97C198.435 413.97 197.824 414.185 197.329 414.614C196.844 415.044 196.555 415.608 196.461 416.308H201.683C201.581 415.562 201.296 414.988 200.829 414.586C200.344 414.176 199.789 413.97 199.163 413.97ZM204.241 413.242H203.541L203.401 410.442H204.381L204.241 413.242ZM206.228 415.076C206.228 415.618 206.708 416.014 207.67 416.266C207.94 416.332 208.118 416.378 208.202 416.406C208.286 416.425 208.449 416.476 208.692 416.56C208.944 416.635 209.116 416.7 209.21 416.756C209.312 416.812 209.452 416.901 209.63 417.022C209.807 417.134 209.933 417.251 210.008 417.372C210.082 417.484 210.152 417.634 210.218 417.82C210.283 417.998 210.316 418.189 210.316 418.394C210.316 418.992 210.078 419.477 209.602 419.85C209.144 420.224 208.538 420.41 207.782 420.41C207.128 420.41 206.564 420.266 206.088 419.976C205.612 419.678 205.276 419.286 205.08 418.8L205.864 418.338C205.994 418.702 206.228 418.992 206.564 419.206C206.909 419.412 207.315 419.514 207.782 419.514C208.258 419.514 208.645 419.421 208.944 419.234C209.242 419.048 209.392 418.768 209.392 418.394C209.392 417.853 208.911 417.456 207.95 417.204C207.679 417.139 207.502 417.097 207.418 417.078C207.334 417.05 207.166 416.999 206.914 416.924C206.671 416.84 206.498 416.77 206.396 416.714C206.302 416.658 206.167 416.574 205.99 416.462C205.812 416.341 205.686 416.224 205.612 416.112C205.537 415.991 205.467 415.842 205.402 415.664C205.336 415.478 205.304 415.282 205.304 415.076C205.304 414.507 205.528 414.031 205.976 413.648C206.442 413.266 207.016 413.074 207.698 413.074C208.258 413.074 208.752 413.2 209.182 413.452C209.62 413.704 209.942 414.054 210.148 414.502L209.378 414.95C209.116 414.297 208.556 413.97 207.698 413.97C207.278 413.97 206.928 414.068 206.648 414.264C206.368 414.46 206.228 414.731 206.228 415.076ZM218.633 413.074C219.473 413.074 220.14 413.336 220.635 413.858C221.13 414.372 221.377 415.067 221.377 415.944V420.242H220.453V415.944C220.453 415.319 220.285 414.834 219.949 414.488C219.622 414.143 219.156 413.97 218.549 413.97C217.849 413.97 217.294 414.19 216.883 414.628C216.482 415.067 216.281 415.716 216.281 416.574V420.242H215.357V410.442H216.281V414.334C216.804 413.494 217.588 413.074 218.633 413.074ZM226.398 413.074C227.443 413.074 228.278 413.443 228.904 414.18C229.548 414.908 229.87 415.772 229.87 416.77C229.87 416.817 229.86 416.962 229.842 417.204H223.696C223.789 417.904 224.088 418.464 224.592 418.884C225.096 419.304 225.726 419.514 226.482 419.514C227.546 419.514 228.297 419.118 228.736 418.324L229.548 418.8C229.24 419.304 228.815 419.701 228.274 419.99C227.742 420.27 227.14 420.41 226.468 420.41C225.366 420.41 224.47 420.065 223.78 419.374C223.089 418.684 222.744 417.806 222.744 416.742C222.744 415.688 223.084 414.815 223.766 414.124C224.447 413.424 225.324 413.074 226.398 413.074ZM226.398 413.97C225.67 413.97 225.058 414.185 224.564 414.614C224.078 415.044 223.789 415.608 223.696 416.308H228.918C228.815 415.562 228.53 414.988 228.064 414.586C227.578 414.176 227.023 413.97 226.398 413.97ZM237.359 414.614V413.242H238.283V420.242H237.359V418.87C236.715 419.897 235.773 420.41 234.531 420.41C233.533 420.41 232.679 420.056 231.969 419.346C231.269 418.637 230.919 417.769 230.919 416.742C230.919 415.716 231.269 414.848 231.969 414.138C232.679 413.429 233.533 413.074 234.531 413.074C235.773 413.074 236.715 413.588 237.359 414.614ZM232.641 418.716C233.173 419.248 233.827 419.514 234.601 419.514C235.376 419.514 236.029 419.248 236.561 418.716C237.093 418.166 237.359 417.508 237.359 416.742C237.359 415.968 237.093 415.314 236.561 414.782C236.029 414.241 235.376 413.97 234.601 413.97C233.827 413.97 233.173 414.241 232.641 414.782C232.109 415.314 231.843 415.968 231.843 416.742C231.843 417.508 232.109 418.166 232.641 418.716ZM241.164 420.242H240.24V410.022H241.164V420.242ZM246.835 413.242V414.138H244.819V418.38C244.819 418.763 244.893 419.038 245.043 419.206C245.192 419.365 245.416 419.449 245.715 419.458C246.013 419.458 246.387 419.449 246.835 419.43V420.242C245.836 420.392 245.094 420.322 244.609 420.032C244.133 419.734 243.895 419.183 243.895 418.38V414.138H242.425V413.242H243.895V411.562L244.819 411.282V413.242H246.835ZM251.651 413.074C252.491 413.074 253.158 413.336 253.653 413.858C254.147 414.372 254.395 415.067 254.395 415.944V420.242H253.471V415.944C253.471 415.319 253.303 414.834 252.967 414.488C252.64 414.143 252.173 413.97 251.567 413.97C250.867 413.97 250.311 414.19 249.901 414.628C249.499 415.067 249.299 415.716 249.299 416.574V420.242H248.375V410.442H249.299V414.334C249.821 413.494 250.605 413.074 251.651 413.074Z" fill="#239FFB"/>
</g>
<g filter="url(#filter6_ddddii_964_5099)">
<rect x="6.5" y="510.242" width="153" height="56" rx="28" fill="white"/>
<path d="M69.1534 527.74V523.442H70.1334V533.242H69.1534V528.664H63.8334V533.242H62.8534V523.442H63.8334V527.74H69.1534ZM75.463 526.074C76.5084 526.074 77.3437 526.443 77.969 527.18C78.613 527.908 78.935 528.772 78.935 529.77C78.935 529.817 78.9257 529.962 78.907 530.204H72.761C72.8544 530.904 73.153 531.464 73.657 531.884C74.161 532.304 74.791 532.514 75.547 532.514C76.611 532.514 77.3624 532.118 77.801 531.324L78.613 531.8C78.305 532.304 77.8804 532.701 77.339 532.99C76.807 533.27 76.205 533.41 75.533 533.41C74.4317 533.41 73.5357 533.065 72.845 532.374C72.1544 531.684 71.809 530.806 71.809 529.742C71.809 528.688 72.1497 527.815 72.831 527.124C73.5124 526.424 74.3897 526.074 75.463 526.074ZM75.463 526.97C74.735 526.97 74.1237 527.185 73.629 527.614C73.1437 528.044 72.8544 528.608 72.761 529.308H77.983C77.8804 528.562 77.5957 527.988 77.129 527.586C76.6437 527.176 76.0884 526.97 75.463 526.97ZM86.4248 527.614V526.242H87.3488V533.242H86.4248V531.87C85.7808 532.897 84.8381 533.41 83.5968 533.41C82.5981 533.41 81.7441 533.056 81.0348 532.346C80.3348 531.637 79.9848 530.769 79.9848 529.742C79.9848 528.716 80.3348 527.848 81.0348 527.138C81.7441 526.429 82.5981 526.074 83.5968 526.074C84.8381 526.074 85.7808 526.588 86.4248 527.614ZM81.7068 531.716C82.2388 532.248 82.8921 532.514 83.6668 532.514C84.4415 532.514 85.0948 532.248 85.6268 531.716C86.1588 531.166 86.4248 530.508 86.4248 529.742C86.4248 528.968 86.1588 528.314 85.6268 527.782C85.0948 527.241 84.4415 526.97 83.6668 526.97C82.8921 526.97 82.2388 527.241 81.7068 527.782C81.1748 528.314 80.9088 528.968 80.9088 529.742C80.9088 530.508 81.1748 531.166 81.7068 531.716ZM90.2292 533.242H89.3052V523.022H90.2292V533.242ZM95.9 526.242V527.138H93.884V531.38C93.884 531.763 93.9586 532.038 94.108 532.206C94.2573 532.365 94.4813 532.449 94.78 532.458C95.0786 532.458 95.452 532.449 95.9 532.43V533.242C94.9013 533.392 94.1593 533.322 93.674 533.032C93.198 532.734 92.96 532.183 92.96 531.38V527.138H91.49V526.242H92.96V524.562L93.884 524.282V526.242H95.9ZM100.716 526.074C101.556 526.074 102.223 526.336 102.718 526.858C103.213 527.372 103.46 528.067 103.46 528.944V533.242H102.536V528.944C102.536 528.319 102.368 527.834 102.032 527.488C101.705 527.143 101.239 526.97 100.632 526.97C99.932 526.97 99.3766 527.19 98.966 527.628C98.5646 528.067 98.364 528.716 98.364 529.574V533.242H97.44V523.442H98.364V527.334C98.8866 526.494 99.6706 526.074 100.716 526.074ZM50.0918 545.614V544.242H51.0158V551.242H50.0918V549.87C49.4478 550.897 48.5051 551.41 47.2638 551.41C46.2651 551.41 45.4111 551.056 44.7018 550.346C44.0018 549.637 43.6518 548.769 43.6518 547.742C43.6518 546.716 44.0018 545.848 44.7018 545.138C45.4111 544.429 46.2651 544.074 47.2638 544.074C48.5051 544.074 49.4478 544.588 50.0918 545.614ZM45.3738 549.716C45.9058 550.248 46.5591 550.514 47.3338 550.514C48.1085 550.514 48.7618 550.248 49.2938 549.716C49.8258 549.166 50.0918 548.508 50.0918 547.742C50.0918 546.968 49.8258 546.314 49.2938 545.782C48.7618 545.241 48.1085 544.97 47.3338 544.97C46.5591 544.97 45.9058 545.241 45.3738 545.782C44.8418 546.314 44.5758 546.968 44.5758 547.742C44.5758 548.508 44.8418 549.166 45.3738 549.716ZM56.7242 544.074C57.7229 544.074 58.5722 544.429 59.2722 545.138C59.9815 545.848 60.3362 546.716 60.3362 547.742C60.3362 548.769 59.9815 549.637 59.2722 550.346C58.5722 551.056 57.7229 551.41 56.7242 551.41C55.4829 551.41 54.5402 550.897 53.8962 549.87V554.042H52.9722V544.242H53.8962V545.614C54.5402 544.588 55.4829 544.074 56.7242 544.074ZM54.6942 549.716C55.2262 550.248 55.8795 550.514 56.6542 550.514C57.4289 550.514 58.0822 550.248 58.6142 549.716C59.1462 549.166 59.4122 548.508 59.4122 547.742C59.4122 546.968 59.1462 546.314 58.6142 545.782C58.0822 545.241 57.4289 544.97 56.6542 544.97C55.8795 544.97 55.2262 545.241 54.6942 545.782C54.1622 546.314 53.8962 546.968 53.8962 547.742C53.8962 548.508 54.1622 549.166 54.6942 549.716ZM65.6246 544.074C66.6232 544.074 67.4726 544.429 68.1726 545.138C68.8819 545.848 69.2366 546.716 69.2366 547.742C69.2366 548.769 68.8819 549.637 68.1726 550.346C67.4726 551.056 66.6232 551.41 65.6246 551.41C64.3832 551.41 63.4406 550.897 62.7966 549.87V554.042H61.8726V544.242H62.7966V545.614C63.4406 544.588 64.3832 544.074 65.6246 544.074ZM63.5946 549.716C64.1266 550.248 64.7799 550.514 65.5546 550.514C66.3292 550.514 66.9826 550.248 67.5146 549.716C68.0466 549.166 68.3126 548.508 68.3126 547.742C68.3126 546.968 68.0466 546.314 67.5146 545.782C66.9826 545.241 66.3292 544.97 65.5546 544.97C64.7799 544.97 64.1266 545.241 63.5946 545.782C63.0626 546.314 62.7966 546.968 62.7966 547.742C62.7966 548.508 63.0626 549.166 63.5946 549.716ZM71.697 551.242H70.773V541.022H71.697V551.242ZM74.7917 542.086C74.7917 542.273 74.7264 542.432 74.5957 542.562C74.4651 542.693 74.3064 542.758 74.1197 542.758C73.9331 542.758 73.7744 542.693 73.6437 542.562C73.5131 542.432 73.4477 542.273 73.4477 542.086C73.4477 541.9 73.5131 541.741 73.6437 541.61C73.7744 541.48 73.9331 541.414 74.1197 541.414C74.3064 541.414 74.4651 541.48 74.5957 541.61C74.7264 541.741 74.7917 541.9 74.7917 542.086ZM74.5817 551.242H73.6577V544.242H74.5817V551.242ZM79.8045 551.41C78.7498 551.41 77.8725 551.06 77.1725 550.36C76.4725 549.642 76.1225 548.769 76.1225 547.742C76.1225 546.706 76.4725 545.838 77.1725 545.138C77.8725 544.429 78.7498 544.074 79.8045 544.074C80.4952 544.074 81.1158 544.242 81.6665 544.578C82.2172 544.905 82.6185 545.348 82.8705 545.908L82.1145 546.342C81.9278 545.922 81.6245 545.591 81.2045 545.348C80.7938 545.096 80.3272 544.97 79.8045 544.97C79.0298 544.97 78.3765 545.241 77.8445 545.782C77.3125 546.314 77.0465 546.968 77.0465 547.742C77.0465 548.508 77.3125 549.166 77.8445 549.716C78.3765 550.248 79.0298 550.514 79.8045 550.514C80.3178 550.514 80.7798 550.393 81.1905 550.15C81.6105 549.908 81.9372 549.572 82.1705 549.142L82.9405 549.59C82.6512 550.15 82.2265 550.594 81.6665 550.92C81.1065 551.247 80.4858 551.41 79.8045 551.41ZM90.2188 545.614V544.242H91.1428V551.242H90.2188V549.87C89.5748 550.897 88.6321 551.41 87.3908 551.41C86.3921 551.41 85.5381 551.056 84.8288 550.346C84.1288 549.637 83.7788 548.769 83.7788 547.742C83.7788 546.716 84.1288 545.848 84.8288 545.138C85.5381 544.429 86.3921 544.074 87.3908 544.074C88.6321 544.074 89.5748 544.588 90.2188 545.614ZM85.5008 549.716C86.0328 550.248 86.6861 550.514 87.4608 550.514C88.2354 550.514 88.8888 550.248 89.4208 549.716C89.9528 549.166 90.2188 548.508 90.2188 547.742C90.2188 546.968 89.9528 546.314 89.4208 545.782C88.8888 545.241 88.2354 544.97 87.4608 544.97C86.6861 544.97 86.0328 545.241 85.5008 545.782C84.9688 546.314 84.7028 546.968 84.7028 547.742C84.7028 548.508 84.9688 549.166 85.5008 549.716ZM96.8091 544.242V545.138H94.7931V549.38C94.7931 549.763 94.8678 550.038 95.0171 550.206C95.1665 550.365 95.3905 550.449 95.6891 550.458C95.9878 550.458 96.3611 550.449 96.8091 550.43V551.242C95.8105 551.392 95.0685 551.322 94.5831 551.032C94.1071 550.734 93.8691 550.183 93.8691 549.38V545.138H92.3991V544.242H93.8691V542.562L94.7931 542.282V544.242H96.8091ZM99.4831 542.086C99.4831 542.273 99.4178 542.432 99.2871 542.562C99.1565 542.693 98.9978 542.758 98.8111 542.758C98.6245 542.758 98.4658 542.693 98.3351 542.562C98.2045 542.432 98.1391 542.273 98.1391 542.086C98.1391 541.9 98.2045 541.741 98.3351 541.61C98.4658 541.48 98.6245 541.414 98.8111 541.414C98.9978 541.414 99.1565 541.48 99.2871 541.61C99.4178 541.741 99.4831 541.9 99.4831 542.086ZM99.2731 551.242H98.3491V544.242H99.2731V551.242ZM107.1 550.36C106.381 551.06 105.513 551.41 104.496 551.41C103.46 551.41 102.587 551.06 101.878 550.36C101.169 549.651 100.814 548.778 100.814 547.742C100.814 546.706 101.169 545.838 101.878 545.138C102.587 544.429 103.46 544.074 104.496 544.074C105.523 544.074 106.391 544.429 107.1 545.138C107.819 545.838 108.178 546.706 108.178 547.742C108.178 548.769 107.819 549.642 107.1 550.36ZM102.536 549.716C103.068 550.248 103.721 550.514 104.496 550.514C105.271 550.514 105.924 550.248 106.456 549.716C106.988 549.166 107.254 548.508 107.254 547.742C107.254 546.968 106.988 546.314 106.456 545.782C105.924 545.241 105.271 544.97 104.496 544.97C103.721 544.97 103.068 545.241 102.536 545.782C102.004 546.314 101.738 546.968 101.738 547.742C101.738 548.508 102.004 549.166 102.536 549.716ZM113 544.074C113.84 544.074 114.507 544.336 115.002 544.858C115.497 545.372 115.744 546.067 115.744 546.944V551.242H114.82V546.944C114.82 546.319 114.652 545.834 114.316 545.488C113.989 545.143 113.523 544.97 112.916 544.97C112.216 544.97 111.661 545.19 111.25 545.628C110.849 546.067 110.648 546.716 110.648 547.574V551.242H109.724V544.242H110.648V545.334C111.171 544.494 111.955 544.074 113 544.074ZM118.259 546.076C118.259 546.618 118.739 547.014 119.701 547.266C119.971 547.332 120.149 547.378 120.233 547.406C120.317 547.425 120.48 547.476 120.723 547.56C120.975 547.635 121.147 547.7 121.241 547.756C121.343 547.812 121.483 547.901 121.661 548.022C121.838 548.134 121.964 548.251 122.039 548.372C122.113 548.484 122.183 548.634 122.249 548.82C122.314 548.998 122.347 549.189 122.347 549.394C122.347 549.992 122.109 550.477 121.633 550.85C121.175 551.224 120.569 551.41 119.813 551.41C119.159 551.41 118.595 551.266 118.119 550.976C117.643 550.678 117.307 550.286 117.111 549.8L117.895 549.338C118.025 549.702 118.259 549.992 118.595 550.206C118.94 550.412 119.346 550.514 119.813 550.514C120.289 550.514 120.676 550.421 120.975 550.234C121.273 550.048 121.423 549.768 121.423 549.394C121.423 548.853 120.942 548.456 119.981 548.204C119.71 548.139 119.533 548.097 119.449 548.078C119.365 548.05 119.197 547.999 118.945 547.924C118.702 547.84 118.529 547.77 118.427 547.714C118.333 547.658 118.198 547.574 118.021 547.462C117.843 547.341 117.717 547.224 117.643 547.112C117.568 546.991 117.498 546.842 117.433 546.664C117.367 546.478 117.335 546.282 117.335 546.076C117.335 545.507 117.559 545.031 118.007 544.648C118.473 544.266 119.047 544.074 119.729 544.074C120.289 544.074 120.783 544.2 121.213 544.452C121.651 544.704 121.973 545.054 122.179 545.502L121.409 545.95C121.147 545.297 120.587 544.97 119.729 544.97C119.309 544.97 118.959 545.068 118.679 545.264C118.399 545.46 118.259 545.731 118.259 546.076Z" fill="#323232"/>
</g>
<g filter="url(#filter7_ddddii_964_5099)">
<rect x="169.5" y="510.242" width="214" height="56" rx="28" fill="white"/>
<path d="M211.637 533.41C210.144 533.41 208.917 532.92 207.955 531.94C206.985 530.951 206.499 529.752 206.499 528.342C206.499 526.933 206.985 525.734 207.955 524.744C208.917 523.764 210.144 523.274 211.637 523.274C212.533 523.274 213.359 523.494 214.115 523.932C214.871 524.362 215.459 524.945 215.879 525.682L215.011 526.186C214.703 525.589 214.246 525.113 213.639 524.758C213.033 524.404 212.365 524.226 211.637 524.226C210.405 524.226 209.407 524.623 208.641 525.416C207.867 526.219 207.479 527.194 207.479 528.342C207.479 529.49 207.867 530.466 208.641 531.268C209.407 532.062 210.405 532.458 211.637 532.458C212.365 532.458 213.033 532.281 213.639 531.926C214.246 531.572 214.703 531.096 215.011 530.498L215.879 530.988C215.478 531.726 214.895 532.314 214.129 532.752C213.364 533.191 212.533 533.41 211.637 533.41ZM218.275 526.242V527.404C218.704 526.555 219.442 526.13 220.487 526.13V527.026C219.815 527.026 219.278 527.222 218.877 527.614C218.476 527.997 218.275 528.576 218.275 529.35V533.242H217.351V526.242H218.275ZM224.662 532.108L226.93 526.242H227.91L224.914 533.886C224.634 534.596 224.242 535.142 223.738 535.524C223.243 535.916 222.693 536.089 222.086 536.042V535.174C222.926 535.277 223.565 534.792 224.004 533.718L224.186 533.284L221.05 526.242H222.03L224.662 532.108ZM232.779 526.074C233.778 526.074 234.627 526.429 235.327 527.138C236.036 527.848 236.391 528.716 236.391 529.742C236.391 530.769 236.036 531.637 235.327 532.346C234.627 533.056 233.778 533.41 232.779 533.41C231.538 533.41 230.595 532.897 229.951 531.87V536.042H229.027V526.242H229.951V527.614C230.595 526.588 231.538 526.074 232.779 526.074ZM230.749 531.716C231.281 532.248 231.934 532.514 232.709 532.514C233.484 532.514 234.137 532.248 234.669 531.716C235.201 531.166 235.467 530.508 235.467 529.742C235.467 528.968 235.201 528.314 234.669 527.782C234.137 527.241 233.484 526.97 232.709 526.97C231.934 526.97 231.281 527.241 230.749 527.782C230.217 528.314 229.951 528.968 229.951 529.742C229.951 530.508 230.217 531.166 230.749 531.716ZM241.501 526.242V527.138H239.485V531.38C239.485 531.763 239.559 532.038 239.709 532.206C239.858 532.365 240.082 532.449 240.381 532.458C240.679 532.458 241.053 532.449 241.501 532.43V533.242C240.502 533.392 239.76 533.322 239.275 533.032C238.799 532.734 238.561 532.183 238.561 531.38V527.138H237.091V526.242H238.561V524.562L239.485 524.282V526.242H241.501ZM248.483 532.36C247.764 533.06 246.896 533.41 245.879 533.41C244.843 533.41 243.97 533.06 243.261 532.36C242.551 531.651 242.197 530.778 242.197 529.742C242.197 528.706 242.551 527.838 243.261 527.138C243.97 526.429 244.843 526.074 245.879 526.074C246.905 526.074 247.773 526.429 248.483 527.138C249.201 527.838 249.561 528.706 249.561 529.742C249.561 530.769 249.201 531.642 248.483 532.36ZM243.919 531.716C244.451 532.248 245.104 532.514 245.879 532.514C246.653 532.514 247.307 532.248 247.839 531.716C248.371 531.166 248.637 530.508 248.637 529.742C248.637 528.968 248.371 528.314 247.839 527.782C247.307 527.241 246.653 526.97 245.879 526.97C245.104 526.97 244.451 527.241 243.919 527.782C243.387 528.314 243.121 528.968 243.121 529.742C243.121 530.508 243.387 531.166 243.919 531.716ZM256.287 529.364H251.247V528.468H256.287V529.364ZM264.4 527.614V526.242H265.324V533.242H264.4V531.87C263.756 532.897 262.814 533.41 261.572 533.41C260.574 533.41 259.72 533.056 259.01 532.346C258.31 531.637 257.96 530.769 257.96 529.742C257.96 528.716 258.31 527.848 259.01 527.138C259.72 526.429 260.574 526.074 261.572 526.074C262.814 526.074 263.756 526.588 264.4 527.614ZM259.682 531.716C260.214 532.248 260.868 532.514 261.642 532.514C262.417 532.514 263.07 532.248 263.602 531.716C264.134 531.166 264.4 530.508 264.4 529.742C264.4 528.968 264.134 528.314 263.602 527.782C263.07 527.241 262.417 526.97 261.642 526.97C260.868 526.97 260.214 527.241 259.682 527.782C259.15 528.314 258.884 528.968 258.884 529.742C258.884 530.508 259.15 531.166 259.682 531.716ZM271.033 526.074C272.031 526.074 272.881 526.429 273.581 527.138C274.29 527.848 274.645 528.716 274.645 529.742C274.645 530.769 274.29 531.637 273.581 532.346C272.881 533.056 272.031 533.41 271.033 533.41C269.791 533.41 268.849 532.897 268.205 531.87V536.042H267.281V526.242H268.205V527.614C268.849 526.588 269.791 526.074 271.033 526.074ZM269.003 531.716C269.535 532.248 270.188 532.514 270.963 532.514C271.737 532.514 272.391 532.248 272.923 531.716C273.455 531.166 273.721 530.508 273.721 529.742C273.721 528.968 273.455 528.314 272.923 527.782C272.391 527.241 271.737 526.97 270.963 526.97C270.188 526.97 269.535 527.241 269.003 527.782C268.471 528.314 268.205 528.968 268.205 529.742C268.205 530.508 268.471 531.166 269.003 531.716ZM279.933 526.074C280.932 526.074 281.781 526.429 282.481 527.138C283.191 527.848 283.545 528.716 283.545 529.742C283.545 530.769 283.191 531.637 282.481 532.346C281.781 533.056 280.932 533.41 279.933 533.41C278.692 533.41 277.749 532.897 277.105 531.87V536.042H276.181V526.242H277.105V527.614C277.749 526.588 278.692 526.074 279.933 526.074ZM277.903 531.716C278.435 532.248 279.089 532.514 279.863 532.514C280.638 532.514 281.291 532.248 281.823 531.716C282.355 531.166 282.621 530.508 282.621 529.742C282.621 528.968 282.355 528.314 281.823 527.782C281.291 527.241 280.638 526.97 279.863 526.97C279.089 526.97 278.435 527.241 277.903 527.782C277.371 528.314 277.105 528.968 277.105 529.742C277.105 530.508 277.371 531.166 277.903 531.716ZM286.006 533.242H285.082V523.022H286.006V533.242ZM289.1 524.086C289.1 524.273 289.035 524.432 288.904 524.562C288.774 524.693 288.615 524.758 288.428 524.758C288.242 524.758 288.083 524.693 287.952 524.562C287.822 524.432 287.756 524.273 287.756 524.086C287.756 523.9 287.822 523.741 287.952 523.61C288.083 523.48 288.242 523.414 288.428 523.414C288.615 523.414 288.774 523.48 288.904 523.61C289.035 523.741 289.1 523.9 289.1 524.086ZM288.89 533.242H287.966V526.242H288.89V533.242ZM294.113 533.41C293.058 533.41 292.181 533.06 291.481 532.36C290.781 531.642 290.431 530.769 290.431 529.742C290.431 528.706 290.781 527.838 291.481 527.138C292.181 526.429 293.058 526.074 294.113 526.074C294.804 526.074 295.424 526.242 295.975 526.578C296.526 526.905 296.927 527.348 297.179 527.908L296.423 528.342C296.236 527.922 295.933 527.591 295.513 527.348C295.102 527.096 294.636 526.97 294.113 526.97C293.338 526.97 292.685 527.241 292.153 527.782C291.621 528.314 291.355 528.968 291.355 529.742C291.355 530.508 291.621 531.166 292.153 531.716C292.685 532.248 293.338 532.514 294.113 532.514C294.626 532.514 295.088 532.393 295.499 532.15C295.919 531.908 296.246 531.572 296.479 531.142L297.249 531.59C296.96 532.15 296.535 532.594 295.975 532.92C295.415 533.247 294.794 533.41 294.113 533.41ZM304.527 527.614V526.242H305.451V533.242H304.527V531.87C303.883 532.897 302.941 533.41 301.699 533.41C300.701 533.41 299.847 533.056 299.137 532.346C298.437 531.637 298.087 530.769 298.087 529.742C298.087 528.716 298.437 527.848 299.137 527.138C299.847 526.429 300.701 526.074 301.699 526.074C302.941 526.074 303.883 526.588 304.527 527.614ZM299.809 531.716C300.341 532.248 300.995 532.514 301.769 532.514C302.544 532.514 303.197 532.248 303.729 531.716C304.261 531.166 304.527 530.508 304.527 529.742C304.527 528.968 304.261 528.314 303.729 527.782C303.197 527.241 302.544 526.97 301.769 526.97C300.995 526.97 300.341 527.241 299.809 527.782C299.277 528.314 299.011 528.968 299.011 529.742C299.011 530.508 299.277 531.166 299.809 531.716ZM311.118 526.242V527.138H309.102V531.38C309.102 531.763 309.176 532.038 309.326 532.206C309.475 532.365 309.699 532.449 309.998 532.458C310.296 532.458 310.67 532.449 311.118 532.43V533.242C310.119 533.392 309.377 533.322 308.892 533.032C308.416 532.734 308.178 532.183 308.178 531.38V527.138H306.708V526.242H308.178V524.562L309.102 524.282V526.242H311.118ZM313.792 524.086C313.792 524.273 313.726 524.432 313.596 524.562C313.465 524.693 313.306 524.758 313.12 524.758C312.933 524.758 312.774 524.693 312.644 524.562C312.513 524.432 312.448 524.273 312.448 524.086C312.448 523.9 312.513 523.741 312.644 523.61C312.774 523.48 312.933 523.414 313.12 523.414C313.306 523.414 313.465 523.48 313.596 523.61C313.726 523.741 313.792 523.9 313.792 524.086ZM313.582 533.242H312.658V526.242H313.582V533.242ZM321.409 532.36C320.69 533.06 319.822 533.41 318.805 533.41C317.769 533.41 316.896 533.06 316.187 532.36C315.477 531.651 315.123 530.778 315.123 529.742C315.123 528.706 315.477 527.838 316.187 527.138C316.896 526.429 317.769 526.074 318.805 526.074C319.831 526.074 320.699 526.429 321.409 527.138C322.127 527.838 322.487 528.706 322.487 529.742C322.487 530.769 322.127 531.642 321.409 532.36ZM316.845 531.716C317.377 532.248 318.03 532.514 318.805 532.514C319.579 532.514 320.233 532.248 320.765 531.716C321.297 531.166 321.562 530.508 321.562 529.742C321.562 528.968 321.297 528.314 320.765 527.782C320.233 527.241 319.579 526.97 318.805 526.97C318.03 526.97 317.377 527.241 316.845 527.782C316.313 528.314 316.047 528.968 316.047 529.742C316.047 530.508 316.313 531.166 316.845 531.716ZM327.309 526.074C328.149 526.074 328.816 526.336 329.311 526.858C329.805 527.372 330.053 528.067 330.053 528.944V533.242H329.129V528.944C329.129 528.319 328.961 527.834 328.625 527.488C328.298 527.143 327.831 526.97 327.225 526.97C326.525 526.97 325.969 527.19 325.559 527.628C325.157 528.067 324.957 528.716 324.957 529.574V533.242H324.033V526.242H324.957V527.334C325.479 526.494 326.263 526.074 327.309 526.074ZM341.205 532.36C340.487 533.06 339.619 533.41 338.601 533.41C337.565 533.41 336.693 533.06 335.983 532.36C335.274 531.651 334.919 530.778 334.919 529.742C334.919 528.706 335.274 527.838 335.983 527.138C336.693 526.429 337.565 526.074 338.601 526.074C339.628 526.074 340.496 526.429 341.205 527.138C341.924 527.838 342.283 528.706 342.283 529.742C342.283 530.769 341.924 531.642 341.205 532.36ZM336.641 531.716C337.173 532.248 337.827 532.514 338.601 532.514C339.376 532.514 340.029 532.248 340.561 531.716C341.093 531.166 341.359 530.508 341.359 529.742C341.359 528.968 341.093 528.314 340.561 527.782C340.029 527.241 339.376 526.97 338.601 526.97C337.827 526.97 337.173 527.241 336.641 527.782C336.109 528.314 335.843 528.968 335.843 529.742C335.843 530.508 336.109 531.166 336.641 531.716ZM347.056 523.274V524.17C346.375 524.114 345.866 524.231 345.53 524.52C345.204 524.81 345.04 525.29 345.04 525.962V526.242H347.056V527.138H345.04V533.242H344.116V527.138H342.926V526.242H344.116V525.962C344.116 525.038 344.368 524.343 344.872 523.876C345.386 523.41 346.114 523.209 347.056 523.274ZM236.711 545.74V541.442H237.691V551.242H236.711V546.664H231.391V551.242H230.411V541.442H231.391V545.74H236.711ZM243.021 544.074C244.066 544.074 244.901 544.443 245.527 545.18C246.171 545.908 246.493 546.772 246.493 547.77C246.493 547.817 246.483 547.962 246.465 548.204H240.319C240.412 548.904 240.711 549.464 241.215 549.884C241.719 550.304 242.349 550.514 243.105 550.514C244.169 550.514 244.92 550.118 245.359 549.324L246.171 549.8C245.863 550.304 245.438 550.701 244.897 550.99C244.365 551.27 243.763 551.41 243.091 551.41C241.989 551.41 241.093 551.065 240.403 550.374C239.712 549.684 239.367 548.806 239.367 547.742C239.367 546.688 239.707 545.815 240.389 545.124C241.07 544.424 241.947 544.074 243.021 544.074ZM243.021 544.97C242.293 544.97 241.681 545.185 241.187 545.614C240.701 546.044 240.412 546.608 240.319 547.308H245.541C245.438 546.562 245.153 545.988 244.687 545.586C244.201 545.176 243.646 544.97 243.021 544.97ZM253.982 545.614V544.242H254.906V551.242H253.982V549.87C253.338 550.897 252.396 551.41 251.154 551.41C250.156 551.41 249.302 551.056 248.592 550.346C247.892 549.637 247.542 548.769 247.542 547.742C247.542 546.716 247.892 545.848 248.592 545.138C249.302 544.429 250.156 544.074 251.154 544.074C252.396 544.074 253.338 544.588 253.982 545.614ZM249.264 549.716C249.796 550.248 250.45 550.514 251.224 550.514C251.999 550.514 252.652 550.248 253.184 549.716C253.716 549.166 253.982 548.508 253.982 547.742C253.982 546.968 253.716 546.314 253.184 545.782C252.652 545.241 251.999 544.97 251.224 544.97C250.45 544.97 249.796 545.241 249.264 545.782C248.732 546.314 248.466 546.968 248.466 547.742C248.466 548.508 248.732 549.166 249.264 549.716ZM257.787 551.242H256.863V541.022H257.787V551.242ZM263.458 544.242V545.138H261.442V549.38C261.442 549.763 261.516 550.038 261.666 550.206C261.815 550.365 262.039 550.449 262.338 550.458C262.636 550.458 263.01 550.449 263.458 550.43V551.242C262.459 551.392 261.717 551.322 261.232 551.032C260.756 550.734 260.518 550.183 260.518 549.38V545.138H259.048V544.242H260.518V542.562L261.442 542.282V544.242H263.458ZM268.274 544.074C269.114 544.074 269.781 544.336 270.276 544.858C270.77 545.372 271.018 546.067 271.018 546.944V551.242H270.094V546.944C270.094 546.319 269.926 545.834 269.59 545.488C269.263 545.143 268.796 544.97 268.19 544.97C267.49 544.97 266.934 545.19 266.524 545.628C266.122 546.067 265.922 546.716 265.922 547.574V551.242H264.998V541.442H265.922V545.334C266.444 544.494 267.228 544.074 268.274 544.074ZM275.44 550.108L277.708 544.242H278.688L275.692 551.886C275.412 552.596 275.02 553.142 274.516 553.524C274.021 553.916 273.47 554.089 272.864 554.042V553.174C273.704 553.277 274.343 552.792 274.782 551.718L274.964 551.284L271.828 544.242H272.808L275.44 550.108ZM289.744 545.74V541.442H290.724V551.242H289.744V546.664H284.424V551.242H283.444V541.442H284.424V545.74H289.744ZM298.84 545.614V544.242H299.764V551.242H298.84V549.87C298.196 550.897 297.253 551.41 296.012 551.41C295.013 551.41 294.159 551.056 293.45 550.346C292.75 549.637 292.4 548.769 292.4 547.742C292.4 546.716 292.75 545.848 293.45 545.138C294.159 544.429 295.013 544.074 296.012 544.074C297.253 544.074 298.196 544.588 298.84 545.614ZM294.122 549.716C294.654 550.248 295.307 550.514 296.082 550.514C296.857 550.514 297.51 550.248 298.042 549.716C298.574 549.166 298.84 548.508 298.84 547.742C298.84 546.968 298.574 546.314 298.042 545.782C297.51 545.241 296.857 544.97 296.082 544.97C295.307 544.97 294.654 545.241 294.122 545.782C293.59 546.314 293.324 546.968 293.324 547.742C293.324 548.508 293.59 549.166 294.122 549.716ZM305.472 544.074C306.471 544.074 307.32 544.429 308.02 545.138C308.73 545.848 309.084 546.716 309.084 547.742C309.084 548.769 308.73 549.637 308.02 550.346C307.32 551.056 306.471 551.41 305.472 551.41C304.231 551.41 303.288 550.897 302.644 549.87V551.242H301.72V541.442H302.644V545.614C303.288 544.588 304.231 544.074 305.472 544.074ZM303.442 549.716C303.974 550.248 304.628 550.514 305.402 550.514C306.177 550.514 306.83 550.248 307.362 549.716C307.894 549.166 308.16 548.508 308.16 547.742C308.16 546.968 307.894 546.314 307.362 545.782C306.83 545.241 306.177 544.97 305.402 544.97C304.628 544.97 303.974 545.241 303.442 545.782C302.91 546.314 302.644 546.968 302.644 547.742C302.644 548.508 302.91 549.166 303.442 549.716ZM311.755 542.086C311.755 542.273 311.689 542.432 311.559 542.562C311.428 542.693 311.269 542.758 311.083 542.758C310.896 542.758 310.737 542.693 310.607 542.562C310.476 542.432 310.411 542.273 310.411 542.086C310.411 541.9 310.476 541.741 310.607 541.61C310.737 541.48 310.896 541.414 311.083 541.414C311.269 541.414 311.428 541.48 311.559 541.61C311.689 541.741 311.755 541.9 311.755 542.086ZM311.545 551.242H310.621V544.242H311.545V551.242ZM317.215 544.242V545.138H315.199V549.38C315.199 549.763 315.274 550.038 315.423 550.206C315.573 550.365 315.797 550.449 316.095 550.458C316.394 550.458 316.767 550.449 317.215 550.43V551.242C316.217 551.392 315.475 551.322 314.989 551.032C314.513 550.734 314.275 550.183 314.275 549.38V545.138H312.805V544.242H314.275V542.562L315.199 542.282V544.242H317.215ZM319.06 546.076C319.06 546.618 319.54 547.014 320.502 547.266C320.772 547.332 320.95 547.378 321.034 547.406C321.118 547.425 321.281 547.476 321.524 547.56C321.776 547.635 321.948 547.7 322.042 547.756C322.144 547.812 322.284 547.901 322.462 548.022C322.639 548.134 322.765 548.251 322.84 548.372C322.914 548.484 322.984 548.634 323.05 548.82C323.115 548.998 323.148 549.189 323.148 549.394C323.148 549.992 322.91 550.477 322.434 550.85C321.976 551.224 321.37 551.41 320.614 551.41C319.96 551.41 319.396 551.266 318.92 550.976C318.444 550.678 318.108 550.286 317.912 549.8L318.696 549.338C318.826 549.702 319.06 549.992 319.396 550.206C319.741 550.412 320.147 550.514 320.614 550.514C321.09 550.514 321.477 550.421 321.776 550.234C322.074 550.048 322.224 549.768 322.224 549.394C322.224 548.853 321.743 548.456 320.782 548.204C320.511 548.139 320.334 548.097 320.25 548.078C320.166 548.05 319.998 547.999 319.746 547.924C319.503 547.84 319.33 547.77 319.228 547.714C319.134 547.658 318.999 547.574 318.822 547.462C318.644 547.341 318.518 547.224 318.444 547.112C318.369 546.991 318.299 546.842 318.234 546.664C318.168 546.478 318.136 546.282 318.136 546.076C318.136 545.507 318.36 545.031 318.808 544.648C319.274 544.266 319.848 544.074 320.53 544.074C321.09 544.074 321.584 544.2 322.014 544.452C322.452 544.704 322.774 545.054 322.98 545.502L322.21 545.95C321.948 545.297 321.388 544.97 320.53 544.97C320.11 544.97 319.76 545.068 319.48 545.264C319.2 545.46 319.06 545.731 319.06 546.076Z" fill="#323232"/>
</g>
<path opacity="0.5" d="M78.5 606.242L84.2735 596.242L72.7265 596.242L78.5 606.242ZM77.5 571.242L77.5 597.242L79.5 597.242L79.5 571.242L77.5 571.242Z" fill="#239FFB"/>
<path opacity="0.5" d="M311.5 606.242L317.274 596.242L305.726 596.242L311.5 606.242ZM310.5 571.242L310.5 597.242L312.5 597.242L312.5 571.242L310.5 571.242Z" fill="#239FFB"/>
<path d="M108.285 631.1C107.589 633.324 106.78 635.244 105.859 636.862C104.938 638.479 103.983 639.715 102.995 640.568C102.006 641.422 101.063 641.849 100.164 641.849C98.0977 641.849 97.0643 639.726 97.0643 635.48C97.0643 632.874 97.3788 630.291 98.0078 627.73C98.6368 625.147 99.3332 622.934 100.097 621.092C100.322 620.508 100.614 620.047 100.973 619.71C101.332 619.351 101.838 619.171 102.489 619.171C103.096 619.171 103.579 619.329 103.938 619.643C104.298 619.935 104.477 620.384 104.477 620.991L104.444 621.395C104.444 621.44 104.309 621.811 104.039 622.507C103.365 624.327 102.759 626.068 102.22 627.73C101.703 629.392 101.377 630.976 101.243 632.481C101.175 633.245 101.142 633.998 101.142 634.739C101.142 635.48 101.22 636.087 101.377 636.558C101.535 637.008 101.759 637.232 102.051 637.232C102.703 637.232 103.489 636.3 104.41 634.436C105.354 632.549 106.252 630.302 107.106 627.696C107.959 625.068 108.588 622.766 108.993 620.789C109.083 620.362 109.341 620.003 109.768 619.71C110.194 619.418 110.565 619.272 110.88 619.272C111.441 619.272 111.846 619.418 112.093 619.71C112.362 619.98 112.497 620.407 112.497 620.991L112.463 621.463C112.463 621.553 112.441 621.676 112.396 621.833C112.351 621.991 112.306 622.193 112.261 622.44C111.183 627.562 110.531 631.381 110.307 633.896C110.284 634.076 110.273 634.346 110.273 634.705C110.273 635.469 110.374 636.087 110.576 636.558C110.801 637.008 111.082 637.232 111.419 637.232C112.52 637.232 113.631 635.525 114.755 632.111C115.878 628.674 116.878 624.866 117.754 620.688C117.843 620.283 118.034 619.991 118.326 619.812C118.641 619.609 119.012 619.508 119.438 619.508C119.978 619.508 120.528 619.621 121.09 619.845C121.651 620.07 121.932 620.317 121.932 620.587L121.393 622.945C120.562 626.629 119.719 629.774 118.866 632.38C118.034 634.986 116.934 637.221 115.563 639.086C114.216 640.928 112.576 641.849 110.644 641.849C108.757 641.849 107.813 640.119 107.813 636.66C107.813 635.065 108.015 633.211 108.42 631.1H108.285ZM127.003 641.95C124.801 641.95 123.195 641.512 122.184 640.636C121.173 639.76 120.668 638.591 120.668 637.131C120.668 634.997 121.196 633.02 122.251 631.201C123.33 629.381 124.756 627.944 126.531 626.888C128.328 625.809 130.26 625.27 132.327 625.27C133.585 625.27 134.64 625.63 135.494 626.349C136.348 627.045 136.774 628.078 136.774 629.449C136.774 630.235 136.516 630.886 135.999 631.403C135.505 631.897 134.786 632.346 133.843 632.751C132.899 633.133 131.372 633.683 129.26 634.402C127.351 635.031 125.801 635.559 124.61 635.986C124.52 636.323 124.475 636.671 124.475 637.03C124.475 637.659 124.734 638.142 125.25 638.479C125.79 638.816 126.542 638.985 127.508 638.985C128.115 638.985 128.811 638.861 129.597 638.614C130.383 638.367 130.878 638.052 131.08 637.67C131.844 636.278 132.54 635.581 133.169 635.581C134.09 635.581 134.708 635.761 135.022 636.12C135.359 636.457 135.539 636.839 135.561 637.266C135.292 637.985 134.764 638.715 133.978 639.456C133.191 640.175 132.192 640.77 130.979 641.242C129.766 641.714 128.44 641.95 127.003 641.95ZM125.554 632.886C127.778 632.167 129.608 631.504 131.046 630.898C132.484 630.269 133.203 629.651 133.203 629.044C133.203 628.775 133.057 628.561 132.765 628.404C132.473 628.224 132.158 628.134 131.821 628.134C131.147 628.134 130.372 628.393 129.496 628.909C128.642 629.426 127.845 630.055 127.104 630.796C126.362 631.538 125.846 632.234 125.554 632.886ZM144.951 622.912C142.413 633.582 140.919 639.681 140.47 641.208C140.425 641.343 140.189 641.512 139.762 641.714C139.358 641.939 139.077 642.051 138.92 642.051C138.291 642.051 137.684 641.894 137.1 641.579C136.516 641.265 136.202 640.759 136.157 640.063C136.179 640.018 136.292 639.782 136.494 639.355C136.696 638.928 136.898 638.322 137.1 637.536C137.617 635.604 138.201 633.312 138.853 630.662C139.526 628.011 139.976 626.236 140.2 625.338L141.784 618.902C141.762 618.722 141.75 617.79 141.75 616.105C141.818 615.813 142.065 615.577 142.492 615.397C142.941 615.218 143.345 615.128 143.705 615.128C144.266 615.128 144.839 615.319 145.423 615.701C146.03 616.083 146.344 616.543 146.367 617.082L144.951 622.912ZM152.909 624.192C150.573 634.031 149.214 639.591 148.832 640.872C148.787 641.006 148.551 641.175 148.124 641.377C147.72 641.602 147.439 641.714 147.282 641.714C146.698 641.714 146.17 641.568 145.698 641.276C145.226 641.006 144.968 640.523 144.923 639.827C144.946 639.715 145.002 639.4 145.092 638.883C145.181 638.367 145.305 637.805 145.462 637.199C146.316 633.986 147.304 630.055 148.427 625.405L150.045 618.902C150.022 618.767 150.011 618.576 150.011 618.329C150.011 617.453 150.258 616.7 150.752 616.071C151.269 615.442 151.853 615.128 152.505 615.128C152.931 615.128 153.336 615.296 153.718 615.633C154.1 615.948 154.403 616.431 154.627 617.082L152.909 624.192Z" fill="#00A3FF"/>
<path d="M53.8296 641.942C52.2911 641.942 50.8611 641.676 49.5395 641.144C48.2377 640.591 47.0937 639.832 46.1075 638.865C45.1212 637.899 44.3618 636.775 43.8293 635.492C43.2967 634.191 43.0305 632.78 43.0305 631.262C43.0305 629.763 43.3066 628.372 43.8589 627.09C44.4112 625.808 45.1706 624.683 46.137 623.717C47.1233 622.75 48.2772 622.001 49.5987 621.468C50.9399 620.936 52.3798 620.67 53.9183 620.67C54.9835 620.67 56.019 620.817 57.0249 621.113C58.0309 621.409 58.9382 621.823 59.7469 622.356C60.5753 622.889 61.2558 623.49 61.7884 624.161L59.3623 626.676C58.5339 625.887 57.666 625.285 56.7587 624.871C55.8513 624.457 54.8947 624.25 53.8888 624.25C52.9025 624.25 51.9853 624.427 51.1372 624.782C50.3088 625.137 49.5691 625.63 48.9182 626.261C48.287 626.893 47.7939 627.632 47.4389 628.48C47.1035 629.329 46.9359 630.256 46.9359 631.262C46.9359 632.248 47.1134 633.175 47.4684 634.043C47.8432 634.891 48.356 635.64 49.007 636.291C49.6776 636.942 50.437 637.455 51.2851 637.83C52.153 638.185 53.0702 638.362 54.0367 638.362C54.7665 638.362 55.447 638.264 56.0782 638.066C56.7093 637.85 57.2715 637.554 57.7646 637.179C58.2577 636.784 58.6325 636.331 58.8889 635.818C59.165 635.305 59.3031 634.763 59.3031 634.191V633.54L59.8357 634.131H53.7112V630.699H63.0902C63.1297 630.916 63.1592 631.163 63.179 631.439C63.1987 631.696 63.2086 631.942 63.2086 632.179C63.2283 632.415 63.2381 632.623 63.2381 632.8C63.2381 634.161 62.9916 635.404 62.4985 636.528C62.0251 637.633 61.3643 638.589 60.5162 639.398C59.668 640.207 58.6719 640.838 57.5279 641.291C56.4036 641.725 55.1708 641.942 53.8296 641.942ZM73.9332 641.942C72.2961 641.942 70.8464 641.607 69.584 640.936C68.3414 640.246 67.365 639.309 66.6549 638.126C65.9646 636.922 65.6194 635.542 65.6194 633.984C65.6194 632.761 65.8166 631.646 66.2111 630.64C66.6056 629.634 67.1579 628.766 67.868 628.037C68.5781 627.287 69.4164 626.715 70.3829 626.321C71.3691 625.906 72.4342 625.699 73.5782 625.699C74.6236 625.699 75.5802 625.897 76.4481 626.291C77.3357 626.685 78.105 627.228 78.7559 627.918C79.4068 628.589 79.8999 629.398 80.2352 630.344C80.5902 631.271 80.7579 632.287 80.7382 633.392L80.7086 634.694H68.1047L67.3946 632.179H77.6612L77.2174 632.682V632.001C77.1582 631.41 76.961 630.887 76.6256 630.433C76.2903 629.96 75.8564 629.595 75.3238 629.338C74.811 629.062 74.239 628.924 73.6078 628.924C72.6413 628.924 71.8227 629.112 71.1521 629.486C70.4815 629.841 69.9686 630.374 69.6136 631.084C69.2783 631.794 69.1106 632.672 69.1106 633.717C69.1106 634.723 69.3177 635.601 69.7319 636.35C70.1659 637.1 70.7773 637.682 71.5663 638.096C72.3553 638.51 73.2725 638.717 74.3179 638.717C75.0477 638.717 75.7183 638.599 76.3298 638.362C76.9609 638.126 77.6316 637.702 78.3417 637.09L80.1169 639.575C79.5843 640.069 78.9728 640.493 78.2825 640.848C77.6119 641.183 76.9018 641.449 76.1522 641.646C75.4027 641.844 74.6631 641.942 73.9332 641.942ZM85.6773 641.646V622.09H89.2869V641.646H85.6773ZM82.6003 629.427V626.054H92.6893V629.427H82.6003Z" fill="black"/>
<path d="M279.457 618.686L279.156 619.456L271.556 640.649H265.43L259.872 625.047L254.348 640.649H248.221L240.554 619.456L240.18 618.613C240.18 618.613 244.328 617.705 245.365 620.038C246.402 622.372 251.301 635.058 251.301 635.058L257.127 618.686H262.617L268.443 635.025C268.443 635.025 273.623 621.682 274.401 620.038C275.179 618.395 279.457 618.686 279.457 618.686Z" fill="#2F2F2F"/>
<path d="M298.749 633.685H283.817C283.973 634.734 284.487 635.538 285.357 636.096C286.228 636.654 287.4 636.933 288.873 636.933C290.212 636.933 291.306 636.754 292.154 636.397C293.002 636.04 293.493 635.549 293.627 634.924H298.716C298.47 636.888 297.488 638.406 295.77 639.477C294.073 640.526 291.774 641.051 288.873 641.051C286.819 641.051 285.034 640.716 283.516 640.047C281.998 639.355 280.837 638.373 280.034 637.1C279.23 635.828 278.829 634.333 278.829 632.614V631.978C278.829 630.237 279.23 628.73 280.034 627.458C280.86 626.163 282.02 625.181 283.516 624.512C285.034 623.82 286.819 623.474 288.873 623.474C291.998 623.474 294.419 624.222 296.138 625.717C297.879 627.19 298.749 629.266 298.749 631.944V633.685ZM288.839 627.525C287.545 627.525 286.473 627.759 285.625 628.228C284.777 628.697 284.219 629.355 283.951 630.203H293.627C293.359 629.355 292.812 628.697 291.986 628.228C291.161 627.759 290.111 627.525 288.839 627.525Z" fill="#2F2F2F"/>
<path d="M308.02 640.649C306.234 640.649 304.85 640.225 303.868 639.377C302.886 638.506 302.395 637.301 302.395 635.761V617.347H307.216V634.891C307.216 635.404 307.35 635.783 307.618 636.029C307.886 636.274 308.321 636.397 308.924 636.397H310.364V640.649H308.02Z" fill="#2F2F2F"/>
<path d="M318.711 640.649C316.926 640.649 315.542 640.225 314.56 639.377C313.578 638.506 313.087 637.301 313.087 635.761V617.347H317.908V634.891C317.908 635.404 318.042 635.783 318.31 636.029C318.577 636.274 319.013 636.397 319.615 636.397H321.055V640.649H318.711Z" fill="#2F2F2F"/>
<path d="M328.599 623.876V640.649H323.778V623.876H328.599ZM326.189 621.934C325.296 621.934 324.57 621.677 324.012 621.164C323.454 620.628 323.175 619.936 323.175 619.088C323.175 618.24 323.454 617.559 324.012 617.046C324.57 616.51 325.296 616.242 326.189 616.242C327.104 616.242 327.829 616.51 328.365 617.046C328.923 617.559 329.202 618.24 329.202 619.088C329.202 619.936 328.923 620.628 328.365 621.164C327.807 621.677 327.081 621.934 326.189 621.934Z" fill="url(#paint5_linear_964_5099)"/>
<path d="M341.159 628.161V634.522C341.159 635.125 341.326 635.594 341.661 635.928C342.018 636.241 342.52 636.397 343.167 636.397H347.118V640.649H342.531C340.612 640.649 339.094 640.136 337.978 639.109C336.862 638.06 336.304 636.643 336.304 634.857V628.161H330.713V623.876H335.199C335.668 623.876 335.992 623.786 336.17 623.608C336.349 623.429 336.438 623.106 336.438 622.637V619.423H341.159V623.876H348.123V628.161H341.159Z" fill="url(#paint6_linear_964_5099)"/>
<path d="M197.17 619.666C201.735 617.775 206.969 619.944 208.859 624.509L215.55 640.665C210.985 642.556 205.752 640.388 203.861 635.822L197.17 619.666Z" fill="url(#paint7_linear_964_5099)"/>
<path d="M210.387 619.666C214.952 617.775 220.185 619.944 222.076 624.509L228.767 640.665C224.202 642.556 218.968 640.388 217.078 635.822L210.387 619.666Z" fill="url(#paint8_linear_964_5099)"/>
<path d="M210.387 619.666C214.952 617.775 220.185 619.944 222.076 624.509L228.767 640.665C224.202 642.556 218.968 640.388 217.078 635.822L210.387 619.666Z" fill="url(#paint9_linear_964_5099)"/>
<path d="M223.604 619.666C228.169 617.775 233.402 619.944 235.293 624.509L241.984 640.665C237.419 642.556 232.185 640.388 230.295 635.822L223.604 619.666Z" fill="url(#paint10_linear_964_5099)"/>
<path d="M223.604 619.666C228.169 617.775 233.402 619.944 235.293 624.509L241.984 640.665C237.419 642.556 232.185 640.388 230.295 635.822L223.604 619.666Z" fill="url(#paint11_linear_964_5099)"/>
<path d="M37.4553 40.2H40.8633V57H37.5753V46.104L32.8473 53.904H32.4633L27.7353 46.128V57H24.4233V40.2H27.8313L32.6553 48.144L37.4553 40.2ZM55.5136 52.272H46.4656C46.8656 53.776 47.9936 54.528 49.8496 54.528C51.0336 54.528 51.9296 54.128 52.5376 53.328L55.0336 54.768C53.8496 56.48 52.1056 57.336 49.8016 57.336C47.8176 57.336 46.2256 56.736 45.0256 55.536C43.8256 54.336 43.2256 52.824 43.2256 51C43.2256 49.208 43.8176 47.704 45.0016 46.488C46.1696 45.272 47.6896 44.664 49.5616 44.664C51.3376 44.664 52.7856 45.272 53.9056 46.488C55.0576 47.704 55.6336 49.208 55.6336 51C55.6336 51.336 55.5936 51.76 55.5136 52.272ZM46.4176 49.872H52.5376C52.3616 49.088 52.0016 48.488 51.4576 48.072C50.9296 47.656 50.2976 47.448 49.5616 47.448C48.7296 47.448 48.0416 47.664 47.4976 48.096C46.9536 48.512 46.5936 49.104 46.4176 49.872ZM66.7972 46.416V40.2H69.8932V57H66.7972V55.584C65.8852 56.752 64.5892 57.336 62.9092 57.336C61.2932 57.336 59.9092 56.728 58.7572 55.512C57.6212 54.28 57.0532 52.776 57.0532 51C57.0532 49.24 57.6212 47.744 58.7572 46.512C59.9092 45.28 61.2932 44.664 62.9092 44.664C64.5892 44.664 65.8852 45.248 66.7972 46.416ZM61.0852 53.448C61.7412 54.072 62.5412 54.384 63.4852 54.384C64.4452 54.384 65.2372 54.072 65.8612 53.448C66.4852 52.808 66.7972 51.992 66.7972 51C66.7972 50.008 66.4852 49.2 65.8612 48.576C65.2372 47.936 64.4452 47.616 63.4852 47.616C62.5252 47.616 61.7252 47.936 61.0852 48.576C60.4612 49.2 60.1492 50.008 60.1492 51C60.1492 51.992 60.4612 52.808 61.0852 53.448ZM72.8686 40.2H79.5406C81.8446 40.2 83.7646 41.008 85.3006 42.624C86.8526 44.224 87.6286 46.216 87.6286 48.6C87.6286 50.984 86.8526 52.976 85.3006 54.576C83.7646 56.192 81.8446 57 79.5406 57H72.8686V40.2ZM76.1806 53.832H79.5406C80.9966 53.832 82.1806 53.352 83.0926 52.392C84.0046 51.4 84.4606 50.136 84.4606 48.6C84.4606 47.048 84.0046 45.792 83.0926 44.832C82.1806 43.856 80.9966 43.368 79.5406 43.368H76.1806V53.832ZM98.954 46.416V45H102.05V57H98.954V55.584C98.026 56.752 96.722 57.336 95.042 57.336C93.442 57.336 92.066 56.728 90.914 55.512C89.778 54.28 89.21 52.776 89.21 51C89.21 49.24 89.778 47.744 90.914 46.512C92.066 45.28 93.442 44.664 95.042 44.664C96.722 44.664 98.026 45.248 98.954 46.416ZM93.242 53.448C93.866 54.072 94.658 54.384 95.618 54.384C96.578 54.384 97.37 54.072 97.994 53.448C98.634 52.808 98.954 51.992 98.954 51C98.954 50.008 98.634 49.2 97.994 48.576C97.37 47.936 96.578 47.616 95.618 47.616C94.658 47.616 93.866 47.936 93.242 48.576C92.618 49.2 92.306 50.008 92.306 51C92.306 51.992 92.618 52.808 93.242 53.448ZM111.721 45V47.976H109.009V52.968C109.009 53.384 109.113 53.688 109.321 53.88C109.529 54.072 109.833 54.184 110.233 54.216C110.633 54.232 111.129 54.224 111.721 54.192V57C109.625 57.24 108.129 57.048 107.233 56.424C106.353 55.784 105.913 54.632 105.913 52.968V47.976H103.825V45H105.913V42.576L109.009 41.64V45H111.721ZM122.649 46.416V45H125.745V57H122.649V55.584C121.721 56.752 120.417 57.336 118.737 57.336C117.137 57.336 115.761 56.728 114.609 55.512C113.473 54.28 112.905 52.776 112.905 51C112.905 49.24 113.473 47.744 114.609 46.512C115.761 45.28 117.137 44.664 118.737 44.664C120.417 44.664 121.721 45.248 122.649 46.416ZM116.937 53.448C117.561 54.072 118.353 54.384 119.313 54.384C120.273 54.384 121.065 54.072 121.689 53.448C122.329 52.808 122.649 51.992 122.649 51C122.649 50.008 122.329 49.2 121.689 48.576C121.065 47.936 120.273 47.616 119.313 47.616C118.353 47.616 117.561 47.936 116.937 48.576C116.313 49.2 116.001 50.008 116.001 51C116.001 51.992 116.313 52.808 116.937 53.448Z" fill="#239FFB"/>
<path d="M111.5 106L101.5 100.226V111.774L111.5 106ZM21.5 65V98H23.5V65H21.5ZM30.5 107H102.5V105H30.5V107ZM21.5 98C21.5 102.971 25.5294 107 30.5 107V105C26.634 105 23.5 101.866 23.5 98H21.5Z" fill="#239FFB"/>
<path d="M78.5 420L68.5 414.227V425.773L78.5 420ZM21.5 65V412H23.5V65H21.5ZM30.5 421H69.5V419H30.5V421ZM21.5 412C21.5 416.971 25.5294 421 30.5 421V419C26.634 419 23.5 415.866 23.5 412H21.5Z" fill="#239FFB"/>
</g>
<defs>
<filter id="filter0_dddii_964_5099" x="-15" y="0" width="423" height="686.242" filterUnits="userSpaceOnUse" color-interpolation-filters="sRGB">
<feFlood flood-opacity="0" result="BackgroundImageFix"/>
<feColorMatrix in="SourceAlpha" type="matrix" values="0 0 0 0 0 0 0 0 0 0 0 0 0 0 0 0 0 0 127 0" result="hardAlpha"/>
<feOffset dx="5" dy="5"/>
<feGaussianBlur stdDeviation="6.5"/>
<feColorMatrix type="matrix" values="0 0 0 0 0.819608 0 0 0 0 0.85098 0 0 0 0 0.901961 0 0 0 0.9 0"/>
<feBlend mode="normal" in2="BackgroundImageFix" result="effect1_dropShadow_964_5099"/>
<feColorMatrix in="SourceAlpha" type="matrix" values="0 0 0 0 0 0 0 0 0 0 0 0 0 0 0 0 0 0 127 0" result="hardAlpha"/>
<feOffset dx="5" dy="-5"/>
<feGaussianBlur stdDeviation="5"/>
<feColorMatrix type="matrix" values="0 0 0 0 0.819608 0 0 0 0 0.85098 0 0 0 0 0.901961 0 0 0 0.2 0"/>
<feBlend mode="normal" in2="effect1_dropShadow_964_5099" result="effect2_dropShadow_964_5099"/>
<feColorMatrix in="SourceAlpha" type="matrix" values="0 0 0 0 0 0 0 0 0 0 0 0 0 0 0 0 0 0 127 0" result="hardAlpha"/>
<feOffset dx="-5" dy="5"/>
<feGaussianBlur stdDeviation="5"/>
<feColorMatrix type="matrix" values="0 0 0 0 0.819608 0 0 0 0 0.85098 0 0 0 0 0.901961 0 0 0 0.2 0"/>
<feBlend mode="normal" in2="effect2_dropShadow_964_5099" result="effect3_dropShadow_964_5099"/>
<feBlend mode="normal" in="SourceGraphic" in2="effect3_dropShadow_964_5099" result="shape"/>
<feColorMatrix in="SourceAlpha" type="matrix" values="0 0 0 0 0 0 0 0 0 0 0 0 0 0 0 0 0 0 127 0" result="hardAlpha"/>
<feOffset dx="-1" dy="-1"/>
<feGaussianBlur stdDeviation="1"/>
<feComposite in2="hardAlpha" operator="arithmetic" k2="-1" k3="1"/>
<feColorMatrix type="matrix" values="0 0 0 0 0.819608 0 0 0 0 0.85098 0 0 0 0 0.901961 0 0 0 0.5 0"/>
<feBlend mode="normal" in2="shape" result="effect4_innerShadow_964_5099"/>
<feColorMatrix in="SourceAlpha" type="matrix" values="0 0 0 0 0 0 0 0 0 0 0 0 0 0 0 0 0 0 127 0" result="hardAlpha"/>
<feOffset dx="1" dy="1"/>
<feGaussianBlur stdDeviation="1"/>
<feComposite in2="hardAlpha" operator="arithmetic" k2="-1" k3="1"/>
<feColorMatrix type="matrix" values="0 0 0 0 1 0 0 0 0 1 0 0 0 0 1 0 0 0 0.3 0"/>
<feBlend mode="normal" in2="effect4_innerShadow_964_5099" result="effect5_innerShadow_964_5099"/>
</filter>
<filter id="filter1_ddddii_964_5099" x="132" y="75" width="125" height="71" filterUnits="userSpaceOnUse" color-interpolation-filters="sRGB">
<feFlood flood-opacity="0" result="BackgroundImageFix"/>
<feColorMatrix in="SourceAlpha" type="matrix" values="0 0 0 0 0 0 0 0 0 0 0 0 0 0 0 0 0 0 127 0" result="hardAlpha"/>
<feOffset dx="5" dy="5"/>
<feGaussianBlur stdDeviation="6.5"/>
<feColorMatrix type="matrix" values="0 0 0 0 0.819608 0 0 0 0 0.85098 0 0 0 0 0.901961 0 0 0 0.9 0"/>
<feBlend mode="normal" in2="BackgroundImageFix" result="effect1_dropShadow_964_5099"/>
<feColorMatrix in="SourceAlpha" type="matrix" values="0 0 0 0 0 0 0 0 0 0 0 0 0 0 0 0 0 0 127 0" result="hardAlpha"/>
<feOffset dx="-5" dy="-5"/>
<feGaussianBlur stdDeviation="5"/>
<feColorMatrix type="matrix" values="0 0 0 0 1 0 0 0 0 1 0 0 0 0 1 0 0 0 0.9 0"/>
<feBlend mode="normal" in2="effect1_dropShadow_964_5099" result="effect2_dropShadow_964_5099"/>
<feColorMatrix in="SourceAlpha" type="matrix" values="0 0 0 0 0 0 0 0 0 0 0 0 0 0 0 0 0 0 127 0" result="hardAlpha"/>
<feOffset dx="5" dy="-5"/>
<feGaussianBlur stdDeviation="5"/>
<feColorMatrix type="matrix" values="0 0 0 0 0.819608 0 0 0 0 0.85098 0 0 0 0 0.901961 0 0 0 0.2 0"/>
<feBlend mode="normal" in2="effect2_dropShadow_964_5099" result="effect3_dropShadow_964_5099"/>
<feColorMatrix in="SourceAlpha" type="matrix" values="0 0 0 0 0 0 0 0 0 0 0 0 0 0 0 0 0 0 127 0" result="hardAlpha"/>
<feOffset dx="-5" dy="5"/>
<feGaussianBlur stdDeviation="5"/>
<feColorMatrix type="matrix" values="0 0 0 0 0.819608 0 0 0 0 0.85098 0 0 0 0 0.901961 0 0 0 0.2 0"/>
<feBlend mode="normal" in2="effect3_dropShadow_964_5099" result="effect4_dropShadow_964_5099"/>
<feBlend mode="normal" in="SourceGraphic" in2="effect4_dropShadow_964_5099" result="shape"/>
<feColorMatrix in="SourceAlpha" type="matrix" values="0 0 0 0 0 0 0 0 0 0 0 0 0 0 0 0 0 0 127 0" result="hardAlpha"/>
<feOffset dx="-1" dy="-1"/>
<feGaussianBlur stdDeviation="1"/>
<feComposite in2="hardAlpha" operator="arithmetic" k2="-1" k3="1"/>
<feColorMatrix type="matrix" values="0 0 0 0 0.819608 0 0 0 0 0.85098 0 0 0 0 0.901961 0 0 0 0.5 0"/>
<feBlend mode="normal" in2="shape" result="effect5_innerShadow_964_5099"/>
<feColorMatrix in="SourceAlpha" type="matrix" values="0 0 0 0 0 0 0 0 0 0 0 0 0 0 0 0 0 0 127 0" result="hardAlpha"/>
<feOffset dx="1" dy="1"/>
<feGaussianBlur stdDeviation="1"/>
<feComposite in2="hardAlpha" operator="arithmetic" k2="-1" k3="1"/>
<feColorMatrix type="matrix" values="0 0 0 0 1 0 0 0 0 1 0 0 0 0 1 0 0 0 0.3 0"/>
<feBlend mode="normal" in2="effect5_innerShadow_964_5099" result="effect6_innerShadow_964_5099"/>
</filter>
<filter id="filter2_ddddii_964_5099" x="16" y="188" width="155" height="71" filterUnits="userSpaceOnUse" color-interpolation-filters="sRGB">
<feFlood flood-opacity="0" result="BackgroundImageFix"/>
<feColorMatrix in="SourceAlpha" type="matrix" values="0 0 0 0 0 0 0 0 0 0 0 0 0 0 0 0 0 0 127 0" result="hardAlpha"/>
<feOffset dx="5" dy="5"/>
<feGaussianBlur stdDeviation="6.5"/>
<feColorMatrix type="matrix" values="0 0 0 0 0.819608 0 0 0 0 0.85098 0 0 0 0 0.901961 0 0 0 0.9 0"/>
<feBlend mode="normal" in2="BackgroundImageFix" result="effect1_dropShadow_964_5099"/>
<feColorMatrix in="SourceAlpha" type="matrix" values="0 0 0 0 0 0 0 0 0 0 0 0 0 0 0 0 0 0 127 0" result="hardAlpha"/>
<feOffset dx="-5" dy="-5"/>
<feGaussianBlur stdDeviation="5"/>
<feColorMatrix type="matrix" values="0 0 0 0 1 0 0 0 0 1 0 0 0 0 1 0 0 0 0.9 0"/>
<feBlend mode="normal" in2="effect1_dropShadow_964_5099" result="effect2_dropShadow_964_5099"/>
<feColorMatrix in="SourceAlpha" type="matrix" values="0 0 0 0 0 0 0 0 0 0 0 0 0 0 0 0 0 0 127 0" result="hardAlpha"/>
<feOffset dx="5" dy="-5"/>
<feGaussianBlur stdDeviation="5"/>
<feColorMatrix type="matrix" values="0 0 0 0 0.819608 0 0 0 0 0.85098 0 0 0 0 0.901961 0 0 0 0.2 0"/>
<feBlend mode="normal" in2="effect2_dropShadow_964_5099" result="effect3_dropShadow_964_5099"/>
<feColorMatrix in="SourceAlpha" type="matrix" values="0 0 0 0 0 0 0 0 0 0 0 0 0 0 0 0 0 0 127 0" result="hardAlpha"/>
<feOffset dx="-5" dy="5"/>
<feGaussianBlur stdDeviation="5"/>
<feColorMatrix type="matrix" values="0 0 0 0 0.819608 0 0 0 0 0.85098 0 0 0 0 0.901961 0 0 0 0.2 0"/>
<feBlend mode="normal" in2="effect3_dropShadow_964_5099" result="effect4_dropShadow_964_5099"/>
<feBlend mode="normal" in="SourceGraphic" in2="effect4_dropShadow_964_5099" result="shape"/>
<feColorMatrix in="SourceAlpha" type="matrix" values="0 0 0 0 0 0 0 0 0 0 0 0 0 0 0 0 0 0 127 0" result="hardAlpha"/>
<feOffset dx="-1" dy="-1"/>
<feGaussianBlur stdDeviation="1"/>
<feComposite in2="hardAlpha" operator="arithmetic" k2="-1" k3="1"/>
<feColorMatrix type="matrix" values="0 0 0 0 0.819608 0 0 0 0 0.85098 0 0 0 0 0.901961 0 0 0 0.5 0"/>
<feBlend mode="normal" in2="shape" result="effect5_innerShadow_964_5099"/>
<feColorMatrix in="SourceAlpha" type="matrix" values="0 0 0 0 0 0 0 0 0 0 0 0 0 0 0 0 0 0 127 0" result="hardAlpha"/>
<feOffset dx="1" dy="1"/>
<feGaussianBlur stdDeviation="1"/>
<feComposite in2="hardAlpha" operator="arithmetic" k2="-1" k3="1"/>
<feColorMatrix type="matrix" values="0 0 0 0 1 0 0 0 0 1 0 0 0 0 1 0 0 0 0.3 0"/>
<feBlend mode="normal" in2="effect5_innerShadow_964_5099" result="effect6_innerShadow_964_5099"/>
</filter>
<filter id="filter3_ddddii_964_5099" x="207" y="188" width="166" height="71" filterUnits="userSpaceOnUse" color-interpolation-filters="sRGB">
<feFlood flood-opacity="0" result="BackgroundImageFix"/>
<feColorMatrix in="SourceAlpha" type="matrix" values="0 0 0 0 0 0 0 0 0 0 0 0 0 0 0 0 0 0 127 0" result="hardAlpha"/>
<feOffset dx="5" dy="5"/>
<feGaussianBlur stdDeviation="6.5"/>
<feColorMatrix type="matrix" values="0 0 0 0 0.819608 0 0 0 0 0.85098 0 0 0 0 0.901961 0 0 0 0.9 0"/>
<feBlend mode="normal" in2="BackgroundImageFix" result="effect1_dropShadow_964_5099"/>
<feColorMatrix in="SourceAlpha" type="matrix" values="0 0 0 0 0 0 0 0 0 0 0 0 0 0 0 0 0 0 127 0" result="hardAlpha"/>
<feOffset dx="-5" dy="-5"/>
<feGaussianBlur stdDeviation="5"/>
<feColorMatrix type="matrix" values="0 0 0 0 1 0 0 0 0 1 0 0 0 0 1 0 0 0 0.9 0"/>
<feBlend mode="normal" in2="effect1_dropShadow_964_5099" result="effect2_dropShadow_964_5099"/>
<feColorMatrix in="SourceAlpha" type="matrix" values="0 0 0 0 0 0 0 0 0 0 0 0 0 0 0 0 0 0 127 0" result="hardAlpha"/>
<feOffset dx="5" dy="-5"/>
<feGaussianBlur stdDeviation="5"/>
<feColorMatrix type="matrix" values="0 0 0 0 0.819608 0 0 0 0 0.85098 0 0 0 0 0.901961 0 0 0 0.2 0"/>
<feBlend mode="normal" in2="effect2_dropShadow_964_5099" result="effect3_dropShadow_964_5099"/>
<feColorMatrix in="SourceAlpha" type="matrix" values="0 0 0 0 0 0 0 0 0 0 0 0 0 0 0 0 0 0 127 0" result="hardAlpha"/>
<feOffset dx="-5" dy="5"/>
<feGaussianBlur stdDeviation="5"/>
<feColorMatrix type="matrix" values="0 0 0 0 0.819608 0 0 0 0 0.85098 0 0 0 0 0.901961 0 0 0 0.2 0"/>
<feBlend mode="normal" in2="effect3_dropShadow_964_5099" result="effect4_dropShadow_964_5099"/>
<feBlend mode="normal" in="SourceGraphic" in2="effect4_dropShadow_964_5099" result="shape"/>
<feColorMatrix in="SourceAlpha" type="matrix" values="0 0 0 0 0 0 0 0 0 0 0 0 0 0 0 0 0 0 127 0" result="hardAlpha"/>
<feOffset dx="-1" dy="-1"/>
<feGaussianBlur stdDeviation="1"/>
<feComposite in2="hardAlpha" operator="arithmetic" k2="-1" k3="1"/>
<feColorMatrix type="matrix" values="0 0 0 0 0.819608 0 0 0 0 0.85098 0 0 0 0 0.901961 0 0 0 0.5 0"/>
<feBlend mode="normal" in2="shape" result="effect5_innerShadow_964_5099"/>
<feColorMatrix in="SourceAlpha" type="matrix" values="0 0 0 0 0 0 0 0 0 0 0 0 0 0 0 0 0 0 127 0" result="hardAlpha"/>
<feOffset dx="1" dy="1"/>
<feGaussianBlur stdDeviation="1"/>
<feComposite in2="hardAlpha" operator="arithmetic" k2="-1" k3="1"/>
<feColorMatrix type="matrix" values="0 0 0 0 1 0 0 0 0 1 0 0 0 0 1 0 0 0 0.3 0"/>
<feBlend mode="normal" in2="effect5_innerShadow_964_5099" result="effect6_innerShadow_964_5099"/>
</filter>
<filter id="filter4_f_964_5099" x="165.866" y="314.836" width="56.4227" height="32.2401" filterUnits="userSpaceOnUse" color-interpolation-filters="sRGB">
<feFlood flood-opacity="0" result="BackgroundImageFix"/>
<feBlend mode="normal" in="SourceGraphic" in2="BackgroundImageFix" result="shape"/>
<feGaussianBlur stdDeviation="2.28098" result="effect1_foregroundBlur_964_5099"/>
</filter>
<filter id="filter5_ddddii_964_5099" x="89" y="382.242" width="215" height="71" filterUnits="userSpaceOnUse" color-interpolation-filters="sRGB">
<feFlood flood-opacity="0" result="BackgroundImageFix"/>
<feColorMatrix in="SourceAlpha" type="matrix" values="0 0 0 0 0 0 0 0 0 0 0 0 0 0 0 0 0 0 127 0" result="hardAlpha"/>
<feOffset dx="5" dy="5"/>
<feGaussianBlur stdDeviation="6.5"/>
<feColorMatrix type="matrix" values="0 0 0 0 0.819608 0 0 0 0 0.85098 0 0 0 0 0.901961 0 0 0 0.9 0"/>
<feBlend mode="normal" in2="BackgroundImageFix" result="effect1_dropShadow_964_5099"/>
<feColorMatrix in="SourceAlpha" type="matrix" values="0 0 0 0 0 0 0 0 0 0 0 0 0 0 0 0 0 0 127 0" result="hardAlpha"/>
<feOffset dx="-5" dy="-5"/>
<feGaussianBlur stdDeviation="5"/>
<feColorMatrix type="matrix" values="0 0 0 0 1 0 0 0 0 1 0 0 0 0 1 0 0 0 0.9 0"/>
<feBlend mode="normal" in2="effect1_dropShadow_964_5099" result="effect2_dropShadow_964_5099"/>
<feColorMatrix in="SourceAlpha" type="matrix" values="0 0 0 0 0 0 0 0 0 0 0 0 0 0 0 0 0 0 127 0" result="hardAlpha"/>
<feOffset dx="5" dy="-5"/>
<feGaussianBlur stdDeviation="5"/>
<feColorMatrix type="matrix" values="0 0 0 0 0.819608 0 0 0 0 0.85098 0 0 0 0 0.901961 0 0 0 0.2 0"/>
<feBlend mode="normal" in2="effect2_dropShadow_964_5099" result="effect3_dropShadow_964_5099"/>
<feColorMatrix in="SourceAlpha" type="matrix" values="0 0 0 0 0 0 0 0 0 0 0 0 0 0 0 0 0 0 127 0" result="hardAlpha"/>
<feOffset dx="-5" dy="5"/>
<feGaussianBlur stdDeviation="5"/>
<feColorMatrix type="matrix" values="0 0 0 0 0.819608 0 0 0 0 0.85098 0 0 0 0 0.901961 0 0 0 0.2 0"/>
<feBlend mode="normal" in2="effect3_dropShadow_964_5099" result="effect4_dropShadow_964_5099"/>
<feBlend mode="normal" in="SourceGraphic" in2="effect4_dropShadow_964_5099" result="shape"/>
<feColorMatrix in="SourceAlpha" type="matrix" values="0 0 0 0 0 0 0 0 0 0 0 0 0 0 0 0 0 0 127 0" result="hardAlpha"/>
<feOffset dx="-1" dy="-1"/>
<feGaussianBlur stdDeviation="1"/>
<feComposite in2="hardAlpha" operator="arithmetic" k2="-1" k3="1"/>
<feColorMatrix type="matrix" values="0 0 0 0 0.819608 0 0 0 0 0.85098 0 0 0 0 0.901961 0 0 0 0.5 0"/>
<feBlend mode="normal" in2="shape" result="effect5_innerShadow_964_5099"/>
<feColorMatrix in="SourceAlpha" type="matrix" values="0 0 0 0 0 0 0 0 0 0 0 0 0 0 0 0 0 0 127 0" result="hardAlpha"/>
<feOffset dx="1" dy="1"/>
<feGaussianBlur stdDeviation="1"/>
<feComposite in2="hardAlpha" operator="arithmetic" k2="-1" k3="1"/>
<feColorMatrix type="matrix" values="0 0 0 0 1 0 0 0 0 1 0 0 0 0 1 0 0 0 0.3 0"/>
<feBlend mode="normal" in2="effect5_innerShadow_964_5099" result="effect6_innerShadow_964_5099"/>
</filter>
<filter id="filter6_ddddii_964_5099" x="-8.5" y="495.242" width="186" height="89" filterUnits="userSpaceOnUse" color-interpolation-filters="sRGB">
<feFlood flood-opacity="0" result="BackgroundImageFix"/>
<feColorMatrix in="SourceAlpha" type="matrix" values="0 0 0 0 0 0 0 0 0 0 0 0 0 0 0 0 0 0 127 0" result="hardAlpha"/>
<feOffset dx="5" dy="5"/>
<feGaussianBlur stdDeviation="6.5"/>
<feColorMatrix type="matrix" values="0 0 0 0 0.819608 0 0 0 0 0.85098 0 0 0 0 0.901961 0 0 0 0.9 0"/>
<feBlend mode="normal" in2="BackgroundImageFix" result="effect1_dropShadow_964_5099"/>
<feColorMatrix in="SourceAlpha" type="matrix" values="0 0 0 0 0 0 0 0 0 0 0 0 0 0 0 0 0 0 127 0" result="hardAlpha"/>
<feOffset dx="-5" dy="-5"/>
<feGaussianBlur stdDeviation="5"/>
<feColorMatrix type="matrix" values="0 0 0 0 1 0 0 0 0 1 0 0 0 0 1 0 0 0 0.9 0"/>
<feBlend mode="normal" in2="effect1_dropShadow_964_5099" result="effect2_dropShadow_964_5099"/>
<feColorMatrix in="SourceAlpha" type="matrix" values="0 0 0 0 0 0 0 0 0 0 0 0 0 0 0 0 0 0 127 0" result="hardAlpha"/>
<feOffset dx="5" dy="-5"/>
<feGaussianBlur stdDeviation="5"/>
<feColorMatrix type="matrix" values="0 0 0 0 0.819608 0 0 0 0 0.85098 0 0 0 0 0.901961 0 0 0 0.2 0"/>
<feBlend mode="normal" in2="effect2_dropShadow_964_5099" result="effect3_dropShadow_964_5099"/>
<feColorMatrix in="SourceAlpha" type="matrix" values="0 0 0 0 0 0 0 0 0 0 0 0 0 0 0 0 0 0 127 0" result="hardAlpha"/>
<feOffset dx="-5" dy="5"/>
<feGaussianBlur stdDeviation="5"/>
<feColorMatrix type="matrix" values="0 0 0 0 0.819608 0 0 0 0 0.85098 0 0 0 0 0.901961 0 0 0 0.2 0"/>
<feBlend mode="normal" in2="effect3_dropShadow_964_5099" result="effect4_dropShadow_964_5099"/>
<feBlend mode="normal" in="SourceGraphic" in2="effect4_dropShadow_964_5099" result="shape"/>
<feColorMatrix in="SourceAlpha" type="matrix" values="0 0 0 0 0 0 0 0 0 0 0 0 0 0 0 0 0 0 127 0" result="hardAlpha"/>
<feOffset dx="-1" dy="-1"/>
<feGaussianBlur stdDeviation="1"/>
<feComposite in2="hardAlpha" operator="arithmetic" k2="-1" k3="1"/>
<feColorMatrix type="matrix" values="0 0 0 0 0.819608 0 0 0 0 0.85098 0 0 0 0 0.901961 0 0 0 0.5 0"/>
<feBlend mode="normal" in2="shape" result="effect5_innerShadow_964_5099"/>
<feColorMatrix in="SourceAlpha" type="matrix" values="0 0 0 0 0 0 0 0 0 0 0 0 0 0 0 0 0 0 127 0" result="hardAlpha"/>
<feOffset dx="1" dy="1"/>
<feGaussianBlur stdDeviation="1"/>
<feComposite in2="hardAlpha" operator="arithmetic" k2="-1" k3="1"/>
<feColorMatrix type="matrix" values="0 0 0 0 1 0 0 0 0 1 0 0 0 0 1 0 0 0 0.3 0"/>
<feBlend mode="normal" in2="effect5_innerShadow_964_5099" result="effect6_innerShadow_964_5099"/>
</filter>
<filter id="filter7_ddddii_964_5099" x="154.5" y="495.242" width="247" height="89" filterUnits="userSpaceOnUse" color-interpolation-filters="sRGB">
<feFlood flood-opacity="0" result="BackgroundImageFix"/>
<feColorMatrix in="SourceAlpha" type="matrix" values="0 0 0 0 0 0 0 0 0 0 0 0 0 0 0 0 0 0 127 0" result="hardAlpha"/>
<feOffset dx="5" dy="5"/>
<feGaussianBlur stdDeviation="6.5"/>
<feColorMatrix type="matrix" values="0 0 0 0 0.819608 0 0 0 0 0.85098 0 0 0 0 0.901961 0 0 0 0.9 0"/>
<feBlend mode="normal" in2="BackgroundImageFix" result="effect1_dropShadow_964_5099"/>
<feColorMatrix in="SourceAlpha" type="matrix" values="0 0 0 0 0 0 0 0 0 0 0 0 0 0 0 0 0 0 127 0" result="hardAlpha"/>
<feOffset dx="-5" dy="-5"/>
<feGaussianBlur stdDeviation="5"/>
<feColorMatrix type="matrix" values="0 0 0 0 1 0 0 0 0 1 0 0 0 0 1 0 0 0 0.9 0"/>
<feBlend mode="normal" in2="effect1_dropShadow_964_5099" result="effect2_dropShadow_964_5099"/>
<feColorMatrix in="SourceAlpha" type="matrix" values="0 0 0 0 0 0 0 0 0 0 0 0 0 0 0 0 0 0 127 0" result="hardAlpha"/>
<feOffset dx="5" dy="-5"/>
<feGaussianBlur stdDeviation="5"/>
<feColorMatrix type="matrix" values="0 0 0 0 0.819608 0 0 0 0 0.85098 0 0 0 0 0.901961 0 0 0 0.2 0"/>
<feBlend mode="normal" in2="effect2_dropShadow_964_5099" result="effect3_dropShadow_964_5099"/>
<feColorMatrix in="SourceAlpha" type="matrix" values="0 0 0 0 0 0 0 0 0 0 0 0 0 0 0 0 0 0 127 0" result="hardAlpha"/>
<feOffset dx="-5" dy="5"/>
<feGaussianBlur stdDeviation="5"/>
<feColorMatrix type="matrix" values="0 0 0 0 0.819608 0 0 0 0 0.85098 0 0 0 0 0.901961 0 0 0 0.2 0"/>
<feBlend mode="normal" in2="effect3_dropShadow_964_5099" result="effect4_dropShadow_964_5099"/>
<feBlend mode="normal" in="SourceGraphic" in2="effect4_dropShadow_964_5099" result="shape"/>
<feColorMatrix in="SourceAlpha" type="matrix" values="0 0 0 0 0 0 0 0 0 0 0 0 0 0 0 0 0 0 127 0" result="hardAlpha"/>
<feOffset dx="-1" dy="-1"/>
<feGaussianBlur stdDeviation="1"/>
<feComposite in2="hardAlpha" operator="arithmetic" k2="-1" k3="1"/>
<feColorMatrix type="matrix" values="0 0 0 0 0.819608 0 0 0 0 0.85098 0 0 0 0 0.901961 0 0 0 0.5 0"/>
<feBlend mode="normal" in2="shape" result="effect5_innerShadow_964_5099"/>
<feColorMatrix in="SourceAlpha" type="matrix" values="0 0 0 0 0 0 0 0 0 0 0 0 0 0 0 0 0 0 127 0" result="hardAlpha"/>
<feOffset dx="1" dy="1"/>
<feGaussianBlur stdDeviation="1"/>
<feComposite in2="hardAlpha" operator="arithmetic" k2="-1" k3="1"/>
<feColorMatrix type="matrix" values="0 0 0 0 1 0 0 0 0 1 0 0 0 0 1 0 0 0 0.3 0"/>
<feBlend mode="normal" in2="effect5_innerShadow_964_5099" result="effect6_innerShadow_964_5099"/>
</filter>
<linearGradient id="paint0_linear_964_5099" x1="164.387" y1="335.683" x2="223.793" y2="335.683" gradientUnits="userSpaceOnUse">
<stop stop-color="#04D6EE"/>
<stop offset="1" stop-color="#157BD1"/>
</linearGradient>
<linearGradient id="paint1_linear_964_5099" x1="164.387" y1="335.683" x2="223.793" y2="335.683" gradientUnits="userSpaceOnUse">
<stop stop-color="#04D6EE"/>
<stop offset="1" stop-color="#157BD1"/>
</linearGradient>
<linearGradient id="paint2_linear_964_5099" x1="164.387" y1="335.683" x2="223.793" y2="335.683" gradientUnits="userSpaceOnUse">
<stop stop-color="#04D6EE"/>
<stop offset="1" stop-color="#157BD1"/>
</linearGradient>
<linearGradient id="paint3_linear_964_5099" x1="164.387" y1="335.683" x2="223.793" y2="335.683" gradientUnits="userSpaceOnUse">
<stop stop-color="#04D6EE"/>
<stop offset="1" stop-color="#157BD1"/>
</linearGradient>
<linearGradient id="paint4_linear_964_5099" x1="166.963" y1="335.683" x2="221.17" y2="335.683" gradientUnits="userSpaceOnUse">
<stop stop-color="#04D6EE"/>
<stop offset="1" stop-color="#157BD1"/>
</linearGradient>
<linearGradient id="paint5_linear_964_5099" x1="325.474" y1="618.979" x2="345.566" y2="641.145" gradientUnits="userSpaceOnUse">
<stop stop-color="#C86BCC"/>
<stop offset="1" stop-color="#9C7BE3"/>
</linearGradient>
<linearGradient id="paint6_linear_964_5099" x1="325.474" y1="618.979" x2="345.566" y2="641.145" gradientUnits="userSpaceOnUse">
<stop stop-color="#C86BCC"/>
<stop offset="1" stop-color="#9C7BE3"/>
</linearGradient>
<linearGradient id="paint7_linear_964_5099" x1="201.303" y1="617.954" x2="211.417" y2="642.377" gradientUnits="userSpaceOnUse">
<stop stop-color="#C86BCC"/>
<stop offset="1" stop-color="#9C7BE3"/>
</linearGradient>
<linearGradient id="paint8_linear_964_5099" x1="214.52" y1="617.954" x2="224.634" y2="642.377" gradientUnits="userSpaceOnUse">
<stop stop-color="#C86BCC"/>
<stop offset="1" stop-color="#9C7BE3"/>
</linearGradient>
<linearGradient id="paint9_linear_964_5099" x1="214.52" y1="617.954" x2="224.634" y2="642.377" gradientUnits="userSpaceOnUse">
<stop stop-color="#C86BCC"/>
<stop offset="1" stop-color="#9C7BE3"/>
</linearGradient>
<linearGradient id="paint10_linear_964_5099" x1="227.737" y1="617.954" x2="237.851" y2="642.377" gradientUnits="userSpaceOnUse">
<stop stop-color="#C86BCC"/>
<stop offset="1" stop-color="#9C7BE3"/>
</linearGradient>
<linearGradient id="paint11_linear_964_5099" x1="227.737" y1="617.954" x2="237.851" y2="642.377" gradientUnits="userSpaceOnUse">
<stop stop-color="#C86BCC"/>
<stop offset="1" stop-color="#9C7BE3"/>
</linearGradient>
</defs>
</svg>
