<svg width="1473" height="868" viewBox="0 0 1473 868" fill="none" xmlns="http://www.w3.org/2000/svg">
<g filter="url(#filter0_ddddii_1032_2701)">
<rect x="15" y="15" width="1440" height="835" rx="35" fill="white"/>
</g>
<path d="M634.381 107.2H643.469V152H634.701V122.944L622.093 143.744H621.069L608.461 123.008V152H599.629V107.2H608.717L621.581 128.384L634.381 107.2ZM682.536 139.392H658.408C659.475 143.403 662.483 145.408 667.432 145.408C670.59 145.408 672.979 144.341 674.6 142.208L681.256 146.048C678.099 150.613 673.448 152.896 667.304 152.896C662.014 152.896 657.768 151.296 654.568 148.096C651.368 144.896 649.768 140.864 649.768 136C649.768 131.221 651.347 127.211 654.504 123.968C657.619 120.725 661.672 119.104 666.664 119.104C671.4 119.104 675.262 120.725 678.248 123.968C681.32 127.211 682.856 131.221 682.856 136C682.856 136.896 682.75 138.027 682.536 139.392ZM658.28 132.992H674.6C674.131 130.901 673.171 129.301 671.72 128.192C670.312 127.083 668.627 126.528 666.664 126.528C664.446 126.528 662.611 127.104 661.16 128.256C659.71 129.365 658.75 130.944 658.28 132.992ZM712.626 123.776V107.2H720.882V152H712.626V148.224C710.194 151.339 706.738 152.896 702.258 152.896C697.948 152.896 694.258 151.275 691.186 148.032C688.156 144.747 686.642 140.736 686.642 136C686.642 131.307 688.156 127.317 691.186 124.032C694.258 120.747 697.948 119.104 702.258 119.104C706.738 119.104 710.194 120.661 712.626 123.776ZM697.394 142.528C699.143 144.192 701.276 145.024 703.794 145.024C706.354 145.024 708.466 144.192 710.13 142.528C711.794 140.821 712.626 138.645 712.626 136C712.626 133.355 711.794 131.2 710.13 129.536C708.466 127.829 706.354 126.976 703.794 126.976C701.234 126.976 699.1 127.829 697.394 129.536C695.73 131.2 694.898 133.355 694.898 136C694.898 138.645 695.73 140.821 697.394 142.528ZM728.816 107.2H746.608C752.752 107.2 757.872 109.355 761.968 113.664C766.107 117.931 768.176 123.243 768.176 129.6C768.176 135.957 766.107 141.269 761.968 145.536C757.872 149.845 752.752 152 746.608 152H728.816V107.2ZM737.648 143.552H746.608C750.491 143.552 753.648 142.272 756.08 139.712C758.512 137.067 759.728 133.696 759.728 129.6C759.728 125.461 758.512 122.112 756.08 119.552C753.648 116.949 750.491 115.648 746.608 115.648H737.648V143.552ZM798.377 123.776V120H806.633V152H798.377V148.224C795.903 151.339 792.425 152.896 787.945 152.896C783.679 152.896 780.009 151.275 776.937 148.032C773.908 144.747 772.393 140.736 772.393 136C772.393 131.307 773.908 127.317 776.937 124.032C780.009 120.747 783.679 119.104 787.945 119.104C792.425 119.104 795.903 120.661 798.377 123.776ZM783.145 142.528C784.809 144.192 786.921 145.024 789.481 145.024C792.041 145.024 794.153 144.192 795.817 142.528C797.524 140.821 798.377 138.645 798.377 136C798.377 133.355 797.524 131.2 795.817 129.536C794.153 127.829 792.041 126.976 789.481 126.976C786.921 126.976 784.809 127.829 783.145 129.536C781.481 131.2 780.649 133.355 780.649 136C780.649 138.645 781.481 140.821 783.145 142.528ZM832.424 120V127.936H825.192V141.248C825.192 142.357 825.469 143.168 826.024 143.68C826.578 144.192 827.389 144.491 828.456 144.576C829.522 144.619 830.845 144.597 832.424 144.512V152C826.834 152.64 822.845 152.128 820.456 150.464C818.109 148.757 816.936 145.685 816.936 141.248V127.936H811.368V120H816.936V113.536L825.192 111.04V120H832.424ZM861.565 123.776V120H869.821V152H861.565V148.224C859.09 151.339 855.613 152.896 851.133 152.896C846.866 152.896 843.197 151.275 840.125 148.032C837.095 144.747 835.581 140.736 835.581 136C835.581 131.307 837.095 127.317 840.125 124.032C843.197 120.747 846.866 119.104 851.133 119.104C855.613 119.104 859.09 120.661 861.565 123.776ZM846.333 142.528C847.997 144.192 850.109 145.024 852.669 145.024C855.229 145.024 857.341 144.192 859.005 142.528C860.711 140.821 861.565 138.645 861.565 136C861.565 133.355 860.711 131.2 859.005 129.536C857.341 127.829 855.229 126.976 852.669 126.976C850.109 126.976 847.997 127.829 846.333 129.536C844.669 131.2 843.837 133.355 843.837 136C843.837 138.645 844.669 140.821 846.333 142.528Z" fill="#239FFB"/>
<path d="M879.854 662.098C878.35 666.9 876.604 671.048 874.615 674.541C872.626 678.033 870.564 680.701 868.43 682.545C866.295 684.388 864.258 685.31 862.317 685.31C857.855 685.31 855.623 680.726 855.623 671.557C855.623 665.93 856.302 660.351 857.661 654.821C859.019 649.243 860.523 644.464 862.172 640.487C862.657 639.225 863.288 638.231 864.064 637.503C864.84 636.727 865.931 636.339 867.338 636.339C868.648 636.339 869.691 636.679 870.467 637.358C871.243 637.988 871.631 638.959 871.631 640.268L871.559 641.141C871.559 641.239 871.268 642.039 870.685 643.543C869.23 647.472 867.92 651.232 866.756 654.821C865.64 658.411 864.937 661.831 864.646 665.081C864.5 666.73 864.428 668.356 864.428 669.956C864.428 671.557 864.597 672.867 864.937 673.886C865.277 674.856 865.762 675.341 866.392 675.341C867.799 675.341 869.497 673.328 871.486 669.301C873.523 665.227 875.464 660.376 877.307 654.749C879.15 649.073 880.509 644.101 881.382 639.832C881.576 638.91 882.134 638.134 883.055 637.503C883.977 636.873 884.778 636.557 885.457 636.557C886.669 636.557 887.543 636.873 888.076 637.503C888.658 638.085 888.949 639.007 888.949 640.268L888.877 641.287C888.877 641.481 888.828 641.748 888.731 642.087C888.634 642.427 888.537 642.864 888.44 643.397C886.112 654.457 884.705 662.704 884.22 668.137C884.171 668.525 884.147 669.107 884.147 669.884C884.147 671.533 884.365 672.867 884.802 673.886C885.287 674.856 885.893 675.341 886.621 675.341C888.998 675.341 891.399 671.654 893.825 664.281C896.25 656.859 898.409 648.636 900.301 639.613C900.495 638.74 900.907 638.11 901.538 637.722C902.217 637.285 903.017 637.067 903.939 637.067C905.103 637.067 906.292 637.309 907.504 637.794C908.717 638.279 909.324 638.813 909.324 639.395L908.159 644.489C906.364 652.444 904.545 659.236 902.702 664.863C900.907 670.49 898.53 675.317 895.571 679.343C892.66 683.321 889.119 685.31 884.947 685.31C880.873 685.31 878.835 681.575 878.835 674.104C878.835 670.66 879.272 666.658 880.145 662.098H879.854ZM920.274 685.528C915.52 685.528 912.051 684.582 909.868 682.69C907.685 680.798 906.594 678.276 906.594 675.123C906.594 670.514 907.734 666.245 910.014 662.316C912.342 658.387 915.423 655.282 919.255 653.002C923.136 650.674 927.307 649.509 931.77 649.509C934.487 649.509 936.767 650.286 938.61 651.838C940.454 653.342 941.375 655.573 941.375 658.532C941.375 660.23 940.817 661.637 939.702 662.753C938.635 663.82 937.082 664.79 935.045 665.663C933.007 666.488 929.709 667.676 925.149 669.229C921.025 670.587 917.678 671.727 915.107 672.649C914.913 673.376 914.816 674.128 914.816 674.904C914.816 676.263 915.374 677.306 916.49 678.033C917.654 678.761 919.279 679.125 921.365 679.125C922.675 679.125 924.179 678.858 925.876 678.324C927.574 677.791 928.642 677.112 929.078 676.287C930.727 673.279 932.231 671.776 933.59 671.776C935.578 671.776 936.912 672.164 937.592 672.94C938.319 673.667 938.707 674.492 938.756 675.414C938.174 676.966 937.034 678.543 935.336 680.143C933.638 681.696 931.479 682.981 928.86 684C926.24 685.019 923.378 685.528 920.274 685.528ZM917.145 665.954C921.947 664.402 925.901 662.971 929.005 661.661C932.11 660.303 933.662 658.969 933.662 657.659C933.662 657.077 933.347 656.616 932.716 656.277C932.086 655.889 931.407 655.694 930.679 655.694C929.224 655.694 927.55 656.252 925.658 657.368C923.815 658.484 922.093 659.842 920.492 661.443C918.891 663.044 917.775 664.548 917.145 665.954ZM959.033 644.416C953.552 667.458 950.326 680.629 949.356 683.927C949.259 684.218 948.749 684.582 947.828 685.019C946.954 685.504 946.348 685.746 946.008 685.746C944.65 685.746 943.34 685.407 942.079 684.728C940.818 684.049 940.139 682.957 940.042 681.453C940.09 681.356 940.333 680.847 940.769 679.925C941.206 679.003 941.643 677.694 942.079 675.996C943.195 671.824 944.456 666.876 945.863 661.152C947.318 655.428 948.288 651.595 948.773 649.655L952.193 635.757C952.145 635.369 952.121 633.356 952.121 629.717C952.266 629.087 952.8 628.577 953.722 628.189C954.692 627.801 955.565 627.607 956.341 627.607C957.554 627.607 958.791 628.02 960.052 628.844C961.362 629.669 962.041 630.663 962.089 631.828L959.033 644.416ZM976.217 647.181C971.172 668.428 968.237 680.435 967.413 683.2C967.316 683.491 966.806 683.854 965.885 684.291C965.011 684.776 964.405 685.019 964.065 685.019C962.804 685.019 961.664 684.703 960.646 684.073C959.627 683.491 959.069 682.448 958.972 680.944C959.02 680.701 959.142 680.022 959.336 678.906C959.53 677.791 959.797 676.578 960.136 675.268C961.98 668.331 964.114 659.842 966.539 649.801L970.032 635.757C969.984 635.466 969.959 635.054 969.959 634.52C969.959 632.628 970.493 631.003 971.56 629.645C972.676 628.286 973.937 627.607 975.344 627.607C976.266 627.607 977.139 627.971 977.964 628.699C978.788 629.378 979.443 630.421 979.928 631.828L976.217 647.181Z" fill="#00A3FF"/>
<path d="M764.479 683.831C761.157 683.831 758.069 683.256 755.215 682.106C752.404 680.914 749.933 679.274 747.804 677.187C745.674 675.1 744.034 672.672 742.884 669.903C741.734 667.092 741.159 664.046 741.159 660.767C741.159 657.529 741.755 654.527 742.948 651.758C744.141 648.989 745.781 646.561 747.868 644.474C749.997 642.387 752.489 640.769 755.343 639.619C758.239 638.469 761.349 637.894 764.671 637.894C766.971 637.894 769.207 638.213 771.38 638.852C773.552 639.491 775.511 640.385 777.258 641.535C779.046 642.685 780.516 643.985 781.666 645.433L776.427 650.863C774.638 649.16 772.764 647.861 770.805 646.966C768.845 646.072 766.779 645.624 764.607 645.624C762.477 645.624 760.497 646.008 758.665 646.774C756.876 647.541 755.279 648.606 753.873 649.969C752.51 651.332 751.446 652.929 750.679 654.761C749.955 656.592 749.593 658.594 749.593 660.767C749.593 662.896 749.976 664.898 750.743 666.772C751.552 668.604 752.659 670.222 754.065 671.628C755.513 673.034 757.153 674.141 758.985 674.95C760.859 675.717 762.839 676.1 764.927 676.1C766.503 676.1 767.972 675.888 769.335 675.462C770.698 674.993 771.912 674.354 772.977 673.545C774.042 672.693 774.851 671.713 775.405 670.606C776.001 669.498 776.299 668.327 776.299 667.092V665.686L777.449 666.964H764.224V659.553H784.477C784.562 660.021 784.626 660.554 784.669 661.15C784.712 661.704 784.733 662.236 784.733 662.747C784.775 663.258 784.797 663.706 784.797 664.089C784.797 667.028 784.264 669.711 783.199 672.139C782.177 674.524 780.75 676.59 778.919 678.337C777.087 680.083 774.936 681.446 772.466 682.426C770.038 683.363 767.376 683.831 764.479 683.831ZM807.892 683.831C804.357 683.831 801.226 683.107 798.5 681.659C795.817 680.168 793.708 678.145 792.175 675.589C790.684 672.991 789.939 670.01 789.939 666.645C789.939 664.004 790.365 661.597 791.217 659.425C792.069 657.253 793.261 655.378 794.795 653.802C796.328 652.184 798.138 650.949 800.225 650.097C802.355 649.202 804.655 648.755 807.126 648.755C809.383 648.755 811.449 649.181 813.323 650.033C815.24 650.885 816.901 652.056 818.307 653.547C819.712 654.995 820.777 656.741 821.501 658.786C822.268 660.788 822.63 662.982 822.587 665.367L822.523 668.178H795.306L793.772 662.747H815.943L814.984 663.833V662.364C814.856 661.086 814.431 659.957 813.706 658.978C812.982 657.955 812.045 657.167 810.895 656.614C809.788 656.017 808.553 655.719 807.19 655.719C805.102 655.719 803.335 656.124 801.887 656.933C800.438 657.7 799.331 658.85 798.564 660.383C797.84 661.917 797.478 663.812 797.478 666.07C797.478 668.242 797.925 670.137 798.82 671.756C799.757 673.374 801.077 674.631 802.781 675.525C804.485 676.42 806.465 676.867 808.723 676.867C810.299 676.867 811.747 676.612 813.067 676.1C814.431 675.589 815.879 674.674 817.412 673.353L821.246 678.72C820.096 679.785 818.775 680.701 817.284 681.467C815.836 682.191 814.303 682.766 812.684 683.192C811.066 683.618 809.468 683.831 807.892 683.831ZM833.253 683.192V640.96H841.048V683.192H833.253ZM826.608 656.805V649.522H848.395V656.805H826.608Z" fill="black"/>
<path d="M1241.69 633.278L1241.05 634.941L1224.63 680.706H1211.4L1199.4 647.015L1187.47 680.706H1174.24L1157.69 634.941L1156.88 633.119C1156.88 633.119 1165.84 631.16 1168.07 636.198C1170.31 641.237 1180.89 668.632 1180.89 668.632L1193.47 633.278H1205.33L1217.91 668.56C1217.91 668.56 1229.1 639.748 1230.78 636.198C1232.46 632.649 1241.69 633.278 1241.69 633.278Z" fill="#2F2F2F"/>
<path d="M1283.36 665.668H1251.11C1251.45 667.934 1252.56 669.669 1254.44 670.874C1256.32 672.079 1258.85 672.681 1262.03 672.681C1264.92 672.681 1267.28 672.296 1269.11 671.524C1270.95 670.753 1272.01 669.693 1272.29 668.343H1283.28C1282.75 672.585 1280.63 675.862 1276.92 678.176C1273.26 680.441 1268.29 681.574 1262.03 681.574C1257.59 681.574 1253.74 680.851 1250.46 679.405C1247.18 677.911 1244.68 675.79 1242.94 673.043C1241.21 670.295 1240.34 667.066 1240.34 663.355V661.981C1240.34 658.221 1241.21 654.968 1242.94 652.221C1244.72 649.425 1247.23 647.304 1250.46 645.858C1253.74 644.364 1257.59 643.617 1262.03 643.617C1268.78 643.617 1274.01 645.232 1277.72 648.461C1281.48 651.642 1283.36 656.125 1283.36 661.909V665.668ZM1261.96 652.365C1259.16 652.365 1256.85 652.871 1255.02 653.883C1253.18 654.896 1251.98 656.318 1251.4 658.149H1272.29C1271.72 656.318 1270.54 654.896 1268.75 653.883C1266.97 652.871 1264.7 652.365 1261.96 652.365Z" fill="#2F2F2F"/>
<path d="M1303.38 680.706C1299.52 680.706 1296.53 679.79 1294.41 677.959C1292.29 676.079 1291.23 673.476 1291.23 670.151V630.386H1301.64V668.271C1301.64 669.379 1301.93 670.199 1302.51 670.729C1303.09 671.259 1304.03 671.524 1305.33 671.524H1308.44V680.706H1303.38Z" fill="#2F2F2F"/>
<path d="M1326.46 680.706C1322.61 680.706 1319.62 679.79 1317.5 677.959C1315.38 676.079 1314.32 673.476 1314.32 670.151V630.386H1324.73V668.271C1324.73 669.379 1325.02 670.199 1325.6 670.729C1326.17 671.259 1327.11 671.524 1328.42 671.524H1331.52V680.706H1326.46Z" fill="#2F2F2F"/>
<path d="M1347.82 644.485V680.706H1337.4V644.485H1347.82ZM1342.61 640.291C1340.68 640.291 1339.12 639.737 1337.91 638.628C1336.71 637.472 1336.1 635.977 1336.1 634.146C1336.1 632.314 1336.71 630.844 1337.91 629.736C1339.12 628.579 1340.68 628 1342.61 628C1344.59 628 1346.15 628.579 1347.31 629.736C1348.51 630.844 1349.12 632.314 1349.12 634.146C1349.12 635.977 1348.51 637.472 1347.31 638.628C1346.1 639.737 1344.54 640.291 1342.61 640.291Z" fill="url(#paint0_linear_1032_2701)"/>
<path d="M1374.94 653.739V667.476C1374.94 668.777 1375.3 669.789 1376.02 670.512C1376.79 671.187 1377.88 671.524 1379.28 671.524H1387.81V680.706H1377.9C1373.76 680.706 1370.48 679.598 1368.07 677.381C1365.66 675.115 1364.45 672.055 1364.45 668.199V653.739H1352.38V644.485H1362.07C1363.08 644.485 1363.78 644.292 1364.17 643.906C1364.55 643.521 1364.74 642.822 1364.74 641.81V634.869H1374.94V644.485H1389.98V653.739H1374.94Z" fill="url(#paint1_linear_1032_2701)"/>
<path d="M1064 635.393C1073.86 631.31 1085.16 635.992 1089.24 645.851L1103.69 680.74C1093.83 684.823 1082.53 680.14 1078.45 670.282L1064 635.393Z" fill="url(#paint2_linear_1032_2701)"/>
<path d="M1092.54 635.393C1102.4 631.31 1113.7 635.992 1117.78 645.851L1132.23 680.74C1122.37 684.823 1111.07 680.14 1106.99 670.282L1092.54 635.393Z" fill="url(#paint3_linear_1032_2701)"/>
<path d="M1092.54 635.393C1102.4 631.31 1113.7 635.992 1117.78 645.851L1132.23 680.74C1122.37 684.823 1111.07 680.14 1106.99 670.282L1092.54 635.393Z" fill="url(#paint4_linear_1032_2701)"/>
<path d="M1121.08 635.393C1130.94 631.31 1142.24 635.992 1146.33 645.851L1160.77 680.74C1150.92 684.823 1139.61 680.14 1135.53 670.282L1121.08 635.393Z" fill="url(#paint5_linear_1032_2701)"/>
<path d="M1121.08 635.393C1130.94 631.31 1142.24 635.992 1146.33 645.851L1160.77 680.74C1150.92 684.823 1139.61 680.14 1135.53 670.282L1121.08 635.393Z" fill="url(#paint6_linear_1032_2701)"/>
<path d="M311.942 672.752C306.514 667.325 306.514 658.525 311.942 653.098L340.969 624.071C346.396 618.643 355.196 618.643 360.623 624.071L368.485 631.932C373.912 637.359 373.912 646.159 368.485 651.586L339.457 680.614C334.03 686.041 325.231 686.041 319.803 680.614L311.942 672.752Z" fill="url(#paint7_linear_1032_2701)"/>
<path d="M431.983 672.752C437.41 667.325 437.41 658.525 431.983 653.098L402.955 624.07C397.528 618.643 388.728 618.643 383.301 624.07L375.439 631.932C370.012 637.359 370.012 646.159 375.439 651.586L404.467 680.614C409.894 686.041 418.694 686.041 424.121 680.614L431.983 672.752Z" fill="url(#paint8_linear_1032_2701)"/>
<mask id="mask0_1032_2701" style="mask-type:alpha" maskUnits="userSpaceOnUse" x="307" y="620" width="130" height="65">
<path d="M311.942 672.752C306.514 667.325 306.514 658.525 311.942 653.098L340.969 624.071C346.396 618.643 355.196 618.643 360.623 624.071L368.485 631.932C373.912 637.359 373.912 646.159 368.485 651.586L339.457 680.614C334.03 686.041 325.231 686.041 319.803 680.614L311.942 672.752Z" fill="url(#paint9_linear_1032_2701)"/>
<path d="M431.983 672.752C437.41 667.325 437.41 658.525 431.983 653.098L402.955 624.07C397.528 618.643 388.728 618.643 383.301 624.07L375.439 631.932C370.012 637.359 370.012 646.159 375.439 651.586L404.467 680.614C409.894 686.041 418.694 686.041 424.121 680.614L431.983 672.752Z" fill="url(#paint10_linear_1032_2701)"/>
</mask>
<g mask="url(#mask0_1032_2701)">
<g filter="url(#filter1_f_1032_2701)">
<path d="M345.875 620.861L370.834 645.82L345.875 670.779L320.916 645.82L345.875 620.861Z" fill="black" fill-opacity="0.22"/>
<path d="M398.096 620.861L423.056 645.82L398.097 670.779L373.137 645.82L398.096 620.861Z" fill="black" fill-opacity="0.22"/>
</g>
</g>
<path d="M381.738 680.618C381.739 680.616 381.741 680.615 381.742 680.614L389.604 672.752C389.612 672.744 389.62 672.736 389.628 672.729L410.77 651.586C416.188 646.168 424.967 646.159 430.397 651.559L402.908 624.07C397.481 618.643 388.682 618.643 383.254 624.07L371.915 635.409L360.576 624.071C355.149 618.643 346.35 618.643 340.922 624.071L313.434 651.559C318.863 646.159 327.642 646.168 333.061 651.586L354.17 672.695C354.189 672.714 354.207 672.733 354.226 672.752L362.088 680.614C362.766 681.292 363.498 681.886 364.269 682.395C369.661 685.955 376.989 685.363 381.738 680.618Z" fill="url(#paint11_linear_1032_2701)"/>
<path d="M310.339 705.495H314.382V725.423H310.482V712.499L304.873 721.751H304.418L298.81 712.527V725.423H294.881V705.495H298.924L304.646 714.918L310.339 705.495ZM331.76 719.815H321.027C321.502 721.599 322.84 722.491 325.041 722.491C326.446 722.491 327.509 722.017 328.23 721.068L331.191 722.776C329.786 724.807 327.717 725.822 324.984 725.822C322.631 725.822 320.743 725.11 319.319 723.687C317.896 722.263 317.184 720.47 317.184 718.306C317.184 716.181 317.886 714.397 319.291 712.954C320.676 711.512 322.479 710.791 324.7 710.791C326.806 710.791 328.524 711.512 329.853 712.954C331.219 714.397 331.902 716.181 331.902 718.306C331.902 718.705 331.855 719.208 331.76 719.815ZM320.97 716.968H328.23C328.021 716.038 327.594 715.327 326.949 714.833C326.322 714.34 325.573 714.093 324.7 714.093C323.713 714.093 322.897 714.349 322.251 714.862C321.606 715.355 321.179 716.057 320.97 716.968ZM345.144 712.869V705.495H348.817V725.423H345.144V723.744C344.063 725.129 342.525 725.822 340.532 725.822C338.616 725.822 336.974 725.101 335.607 723.658C334.26 722.197 333.586 720.413 333.586 718.306C333.586 716.219 334.26 714.444 335.607 712.983C336.974 711.521 338.616 710.791 340.532 710.791C342.525 710.791 344.063 711.483 345.144 712.869ZM338.369 721.21C339.147 721.95 340.096 722.32 341.216 722.32C342.354 722.32 343.294 721.95 344.034 721.21C344.774 720.451 345.144 719.483 345.144 718.306C345.144 717.13 344.774 716.171 344.034 715.431C343.294 714.672 342.354 714.292 341.216 714.292C340.077 714.292 339.128 714.672 338.369 715.431C337.629 716.171 337.259 717.13 337.259 718.306C337.259 719.483 337.629 720.451 338.369 721.21ZM352.346 705.495H360.26C362.993 705.495 365.271 706.454 367.093 708.371C368.934 710.269 369.854 712.632 369.854 715.459C369.854 718.287 368.934 720.65 367.093 722.548C365.271 724.465 362.993 725.423 360.26 725.423H352.346V705.495ZM356.275 721.666H360.26C361.988 721.666 363.392 721.096 364.474 719.957C365.556 718.781 366.096 717.281 366.096 715.459C366.096 713.618 365.556 712.129 364.474 710.99C363.392 709.832 361.988 709.253 360.26 709.253H356.275V721.666ZM383.288 712.869V711.189H386.961V725.423H383.288V723.744C382.188 725.129 380.641 725.822 378.648 725.822C376.75 725.822 375.118 725.101 373.751 723.658C372.404 722.197 371.73 720.413 371.73 718.306C371.73 716.219 372.404 714.444 373.751 712.983C375.118 711.521 376.75 710.791 378.648 710.791C380.641 710.791 382.188 711.483 383.288 712.869ZM376.513 721.21C377.253 721.95 378.192 722.32 379.331 722.32C380.47 722.32 381.409 721.95 382.15 721.21C382.909 720.451 383.288 719.483 383.288 718.306C383.288 717.13 382.909 716.171 382.15 715.431C381.409 714.672 380.47 714.292 379.331 714.292C378.192 714.292 377.253 714.672 376.513 715.431C375.773 716.171 375.403 717.13 375.403 718.306C375.403 719.483 375.773 720.451 376.513 721.21ZM398.433 711.189V714.719H395.216V720.641C395.216 721.134 395.339 721.495 395.586 721.722C395.833 721.95 396.193 722.083 396.668 722.121C397.142 722.14 397.731 722.13 398.433 722.093V725.423C395.947 725.708 394.172 725.48 393.109 724.74C392.065 723.981 391.543 722.614 391.543 720.641V714.719H389.067V711.189H391.543V708.314L395.216 707.204V711.189H398.433ZM411.395 712.869V711.189H415.068V725.423H411.395V723.744C410.295 725.129 408.748 725.822 406.755 725.822C404.857 725.822 403.225 725.101 401.858 723.658C400.511 722.197 399.837 720.413 399.837 718.306C399.837 716.219 400.511 714.444 401.858 712.983C403.225 711.521 404.857 710.791 406.755 710.791C408.748 710.791 410.295 711.483 411.395 712.869ZM404.62 721.21C405.36 721.95 406.299 722.32 407.438 722.32C408.577 722.32 409.516 721.95 410.257 721.21C411.016 720.451 411.395 719.483 411.395 718.306C411.395 717.13 411.016 716.171 410.257 715.431C409.516 714.672 408.577 714.292 407.438 714.292C406.299 714.292 405.36 714.672 404.62 715.431C403.88 716.171 403.51 717.13 403.51 718.306C403.51 719.483 403.88 720.451 404.62 721.21ZM422.953 723.374C422.953 724.038 422.716 724.607 422.241 725.082C421.767 725.556 421.197 725.793 420.533 725.793C419.869 725.793 419.299 725.556 418.825 725.082C418.35 724.607 418.113 724.038 418.113 723.374C418.113 722.709 418.35 722.14 418.825 721.666C419.299 721.191 419.869 720.954 420.533 720.954C421.197 720.954 421.767 721.191 422.241 721.666C422.716 722.14 422.953 722.709 422.953 723.374ZM443.267 725.423H438.997L437.801 721.836H429.859L428.663 725.423H424.421L431.396 705.495H436.264L443.267 725.423ZM433.844 710.022L431.111 718.164H436.577L433.844 710.022ZM445.202 725.423V705.495H449.131V725.423H445.202Z" fill="#239FFB"/>
<g filter="url(#filter2_ddddii_1032_2701)">
<rect x="99" y="450" width="205" height="70" rx="35" fill="white"/>
<path d="M152.92 475.2V490.416H154.72V495.216H153.04V492H141.04V495.216H139.36V490.416H140.728C141.832 489.12 142.384 487.12 142.384 484.416V475.2H152.92ZM142.72 490.416H151.24V476.784H144.064V484.464C144.064 487.104 143.616 489.088 142.72 490.416ZM158.498 480H167.09V492H165.506V481.536H160.082V486.888C160.082 488.888 159.698 490.264 158.93 491.016C158.178 491.768 157.138 492.096 155.81 492V490.512C156.738 490.608 157.418 490.384 157.85 489.84C158.282 489.296 158.498 488.312 158.498 486.888V480ZM174.214 480H179.086V492H177.502V487.392H175.438L171.742 492H169.726L173.518 487.344C172.542 487.2 171.742 486.8 171.118 486.144C170.51 485.472 170.206 484.664 170.206 483.72C170.206 482.648 170.59 481.76 171.358 481.056C172.158 480.352 173.11 480 174.214 480ZM174.214 485.904H177.502V481.536H174.214C173.526 481.536 172.95 481.744 172.486 482.16C172.022 482.56 171.79 483.08 171.79 483.72C171.79 484.36 172.022 484.888 172.486 485.304C172.95 485.704 173.526 485.904 174.214 485.904ZM191.71 485.76L198.142 492H196.03L190.03 486.216V492H188.446V480H190.03V485.304L195.742 480H197.902L191.71 485.76ZM201.553 480H210.145V492H208.561V481.536H203.137V486.888C203.137 488.888 202.753 490.264 201.985 491.016C201.233 491.768 200.193 492.096 198.865 492V490.512C199.793 490.608 200.473 490.384 200.905 489.84C201.337 489.296 201.553 488.312 201.553 486.888V480ZM215.084 489.24L222.236 480H223.58V492H221.996V482.76L214.844 492H213.5V480H215.084V489.24ZM235.426 485.232V480H237.01V492H235.426V486.768H228.514V492H226.93V480H228.514V485.232H235.426ZM241.944 489.24L249.096 480H250.44V492H248.856V482.76L241.704 492H240.36V480H241.944V489.24ZM257.053 485.76L263.485 492H261.373L255.373 486.216V492H253.789V480H255.373V485.304L261.085 480H263.245L257.053 485.76Z" fill="#323232"/>
</g>
<g filter="url(#filter3_ddddii_1032_2701)">
<rect x="267" y="282" width="205" height="70" rx="35" fill="white"/>
<path d="M320.92 307.2V322.416H322.72V327.216H321.04V324H309.04V327.216H307.36V322.416H308.728C309.832 321.12 310.384 319.12 310.384 316.416V307.2H320.92ZM310.72 322.416H319.24V308.784H312.064V316.464C312.064 319.104 311.616 321.088 310.72 322.416ZM326.498 312H335.09V324H333.506V313.536H328.082V318.888C328.082 320.888 327.698 322.264 326.93 323.016C326.178 323.768 325.138 324.096 323.81 324V322.512C324.738 322.608 325.418 322.384 325.85 321.84C326.282 321.296 326.498 320.312 326.498 318.888V312ZM342.214 312H347.086V324H345.502V319.392H343.438L339.742 324H337.726L341.518 319.344C340.542 319.2 339.742 318.8 339.118 318.144C338.51 317.472 338.206 316.664 338.206 315.72C338.206 314.648 338.59 313.76 339.358 313.056C340.158 312.352 341.11 312 342.214 312ZM342.214 317.904H345.502V313.536H342.214C341.526 313.536 340.95 313.744 340.486 314.16C340.022 314.56 339.79 315.08 339.79 315.72C339.79 316.36 340.022 316.888 340.486 317.304C340.95 317.704 341.526 317.904 342.214 317.904ZM359.71 317.76L366.142 324H364.03L358.03 318.216V324H356.446V312H358.03V317.304L363.742 312H365.902L359.71 317.76ZM369.553 312H378.145V324H376.561V313.536H371.137V318.888C371.137 320.888 370.753 322.264 369.985 323.016C369.233 323.768 368.193 324.096 366.865 324V322.512C367.793 322.608 368.473 322.384 368.905 321.84C369.337 321.296 369.553 320.312 369.553 318.888V312ZM383.084 321.24L390.236 312H391.58V324H389.996V314.76L382.844 324H381.5V312H383.084V321.24ZM403.426 317.232V312H405.01V324H403.426V318.768H396.514V324H394.93V312H396.514V317.232H403.426ZM409.944 321.24L417.096 312H418.44V324H416.856V314.76L409.704 324H408.36V312H409.944V321.24ZM425.053 317.76L431.485 324H429.373L423.373 318.216V324H421.789V312H423.373V317.304L429.085 312H431.245L425.053 317.76Z" fill="#239FFB"/>
</g>
<g filter="url(#filter4_ddddii_1032_2701)">
<rect x="871" y="282" width="310" height="70" rx="35" fill="white"/>
<path d="M924.92 307.2V322.416H926.72V327.216H925.04V324H913.04V327.216H911.36V322.416H912.728C913.832 321.12 914.384 319.12 914.384 316.416V307.2H924.92ZM914.72 322.416H923.24V308.784H916.064V316.464C916.064 319.104 915.616 321.088 914.72 322.416ZM930.498 312H939.09V324H937.506V313.536H932.082V318.888C932.082 320.888 931.698 322.264 930.93 323.016C930.178 323.768 929.138 324.096 927.81 324V322.512C928.738 322.608 929.418 322.384 929.85 321.84C930.282 321.296 930.498 320.312 930.498 318.888V312ZM946.214 312H951.086V324H949.502V319.392H947.438L943.742 324H941.726L945.518 319.344C944.542 319.2 943.742 318.8 943.118 318.144C942.51 317.472 942.206 316.664 942.206 315.72C942.206 314.648 942.59 313.76 943.358 313.056C944.158 312.352 945.11 312 946.214 312ZM946.214 317.904H949.502V313.536H946.214C945.526 313.536 944.95 313.744 944.486 314.16C944.022 314.56 943.79 315.08 943.79 315.72C943.79 316.36 944.022 316.888 944.486 317.304C944.95 317.704 945.526 317.904 946.214 317.904ZM966.638 317.832C968.03 318.36 968.726 319.32 968.726 320.712C968.726 321.72 968.334 322.568 967.55 323.256C966.798 323.944 965.694 324.288 964.238 324.288C961.806 324.288 960.222 323.328 959.486 321.408L960.83 320.616C961.342 322.04 962.478 322.752 964.238 322.752C965.15 322.752 965.862 322.56 966.374 322.176C966.886 321.776 967.142 321.256 967.142 320.616C967.142 320.04 966.934 319.584 966.518 319.248C966.102 318.896 965.542 318.72 964.838 318.72H963.086V317.184H964.358C965.046 317.184 965.582 317.016 965.966 316.68C966.366 316.328 966.566 315.848 966.566 315.24C966.566 314.664 966.326 314.192 965.846 313.824C965.382 313.44 964.766 313.248 963.998 313.248C962.51 313.248 961.51 313.848 960.998 315.048L959.678 314.28C960.478 312.568 961.918 311.712 963.998 311.712C965.278 311.712 966.286 312.048 967.022 312.72C967.774 313.376 968.15 314.184 968.15 315.144C968.15 316.376 967.646 317.272 966.638 317.832ZM980.979 312V322.464H982.659V327.216H981.075V324H971.283V327.216H969.699V322.464H971.163C971.979 321.376 972.387 319.864 972.387 317.928V312H980.979ZM973.083 322.464H979.395V313.536H973.971V317.928C973.971 319.784 973.675 321.296 973.083 322.464ZM994.642 322.488C993.41 323.688 991.922 324.288 990.178 324.288C988.402 324.288 986.906 323.688 985.69 322.488C984.474 321.272 983.866 319.776 983.866 318C983.866 316.224 984.474 314.736 985.69 313.536C986.906 312.32 988.402 311.712 990.178 311.712C991.938 311.712 993.426 312.32 994.642 313.536C995.874 314.736 996.49 316.224 996.49 318C996.49 319.76 995.874 321.256 994.642 322.488ZM986.818 321.384C987.73 322.296 988.85 322.752 990.178 322.752C991.506 322.752 992.626 322.296 993.538 321.384C994.45 320.44 994.906 319.312 994.906 318C994.906 316.672 994.45 315.552 993.538 314.64C992.626 313.712 991.506 313.248 990.178 313.248C988.85 313.248 987.73 313.712 986.818 314.64C985.906 315.552 985.45 316.672 985.45 318C985.45 319.312 985.906 320.44 986.818 321.384ZM1005.57 311.712C1007.28 311.712 1008.74 312.32 1009.94 313.536C1011.16 314.752 1011.76 316.24 1011.76 318C1011.76 319.76 1011.16 321.248 1009.94 322.464C1008.74 323.68 1007.28 324.288 1005.57 324.288C1003.44 324.288 1001.83 323.408 1000.72 321.648V328.8H999.141V312H1000.72V314.352C1001.83 312.592 1003.44 311.712 1005.57 311.712ZM1002.09 321.384C1003 322.296 1004.12 322.752 1005.45 322.752C1006.78 322.752 1007.9 322.296 1008.81 321.384C1009.72 320.44 1010.18 319.312 1010.18 318C1010.18 316.672 1009.72 315.552 1008.81 314.64C1007.9 313.712 1006.78 313.248 1005.45 313.248C1004.12 313.248 1003 313.712 1002.09 314.64C1001.18 315.552 1000.72 316.672 1000.72 318C1000.72 319.312 1001.18 320.44 1002.09 321.384ZM1024.45 322.488C1023.22 323.688 1021.73 324.288 1019.99 324.288C1018.21 324.288 1016.72 323.688 1015.5 322.488C1014.29 321.272 1013.68 319.776 1013.68 318C1013.68 316.224 1014.29 314.736 1015.5 313.536C1016.72 312.32 1018.21 311.712 1019.99 311.712C1021.75 311.712 1023.24 312.32 1024.45 313.536C1025.69 314.736 1026.3 316.224 1026.3 318C1026.3 319.76 1025.69 321.256 1024.45 322.488ZM1016.63 321.384C1017.54 322.296 1018.66 322.752 1019.99 322.752C1021.32 322.752 1022.44 322.296 1023.35 321.384C1024.26 320.44 1024.72 319.312 1024.72 318C1024.72 316.672 1024.26 315.552 1023.35 314.64C1022.44 313.712 1021.32 313.248 1019.99 313.248C1018.66 313.248 1017.54 313.712 1016.63 314.64C1015.72 315.552 1015.26 316.672 1015.26 318C1015.26 319.312 1015.72 320.44 1016.63 321.384ZM1036.59 317.832C1037.9 318.312 1038.55 319.248 1038.55 320.64C1038.55 321.632 1038.22 322.44 1037.55 323.064C1036.89 323.688 1035.97 324 1034.79 324H1028.95V312H1034.31C1035.46 312 1036.35 312.296 1036.99 312.888C1037.65 313.48 1037.98 314.256 1037.98 315.216C1037.98 316.416 1037.51 317.288 1036.59 317.832ZM1034.31 313.536H1030.54V317.184H1034.31C1035.7 317.184 1036.39 316.56 1036.39 315.312C1036.39 314.752 1036.21 314.32 1035.84 314.016C1035.49 313.696 1034.98 313.536 1034.31 313.536ZM1030.54 322.464H1034.79C1035.49 322.464 1036.03 322.296 1036.39 321.96C1036.78 321.624 1036.97 321.152 1036.97 320.544C1036.97 319.968 1036.78 319.52 1036.39 319.2C1036.03 318.88 1035.49 318.72 1034.79 318.72H1030.54V322.464ZM1042.54 316.56H1045.83C1046.93 316.56 1047.87 316.912 1048.66 317.616C1049.44 318.304 1049.83 319.192 1049.83 320.28C1049.83 321.384 1049.44 322.28 1048.66 322.968C1047.91 323.656 1046.96 324 1045.83 324H1040.95V312H1042.54V316.56ZM1042.54 322.464H1045.83C1046.51 322.464 1047.09 322.264 1047.55 321.864C1048.02 321.448 1048.25 320.92 1048.25 320.28C1048.25 319.64 1048.02 319.12 1047.55 318.72C1047.09 318.304 1046.51 318.096 1045.83 318.096H1042.54V322.464ZM1055.27 312H1060.14V324H1058.56V319.392H1056.49L1052.8 324H1050.78L1054.57 319.344C1053.6 319.2 1052.8 318.8 1052.17 318.144C1051.56 317.472 1051.26 316.664 1051.26 315.72C1051.26 314.648 1051.64 313.76 1052.41 313.056C1053.21 312.352 1054.16 312 1055.27 312ZM1055.27 317.904H1058.56V313.536H1055.27C1054.58 313.536 1054 313.744 1053.54 314.16C1053.08 314.56 1052.84 315.08 1052.84 315.72C1052.84 316.36 1053.08 316.888 1053.54 317.304C1054 317.704 1054.58 317.904 1055.27 317.904ZM1070.75 312H1079.34V324H1077.76V313.536H1072.33V318.888C1072.33 320.888 1071.95 322.264 1071.18 323.016C1070.43 323.768 1069.39 324.096 1068.06 324V322.512C1068.99 322.608 1069.67 322.384 1070.1 321.84C1070.53 321.296 1070.75 320.312 1070.75 318.888V312ZM1092.94 311.712C1094.7 311.712 1096.19 312.32 1097.41 313.536C1098.64 314.736 1099.26 316.224 1099.26 318C1099.26 319.76 1098.64 321.256 1097.41 322.488C1096.18 323.688 1094.69 324.288 1092.94 324.288C1091.34 324.288 1089.95 323.768 1088.77 322.728C1087.6 321.656 1086.94 320.336 1086.78 318.768H1084.28V324H1082.7V312H1084.28V317.232H1086.78C1086.95 315.648 1087.62 314.336 1088.77 313.296C1089.94 312.24 1091.33 311.712 1092.94 311.712ZM1089.58 321.384C1090.5 322.296 1091.62 322.752 1092.94 322.752C1094.27 322.752 1095.39 322.296 1096.3 321.384C1097.22 320.44 1097.67 319.312 1097.67 318C1097.67 316.672 1097.22 315.552 1096.3 314.64C1095.39 313.712 1094.27 313.248 1092.94 313.248C1091.62 313.248 1090.5 313.712 1089.58 314.64C1088.67 315.552 1088.22 316.672 1088.22 318C1088.22 319.312 1088.67 320.44 1089.58 321.384ZM1111.5 312V322.464H1113.18V327.216H1111.6V324H1101.81V327.216H1100.22V322.464H1101.69C1102.5 321.376 1102.91 319.864 1102.91 317.928V312H1111.5ZM1103.61 322.464H1109.92V313.536H1104.49V317.928C1104.49 319.784 1104.2 321.296 1103.61 322.464ZM1120.65 311.712C1122.45 311.712 1123.88 312.344 1124.95 313.608C1126.05 314.856 1126.61 316.336 1126.61 318.048C1126.61 318.128 1126.59 318.376 1126.56 318.792H1116.02C1116.18 319.992 1116.69 320.952 1117.56 321.672C1118.42 322.392 1119.5 322.752 1120.8 322.752C1122.62 322.752 1123.91 322.072 1124.66 320.712L1126.05 321.528C1125.53 322.392 1124.8 323.072 1123.87 323.568C1122.96 324.048 1121.93 324.288 1120.77 324.288C1118.89 324.288 1117.35 323.696 1116.17 322.512C1114.98 321.328 1114.39 319.824 1114.39 318C1114.39 316.192 1114.97 314.696 1116.14 313.512C1117.31 312.312 1118.81 311.712 1120.65 311.712ZM1120.65 313.248C1119.41 313.248 1118.36 313.616 1117.51 314.352C1116.68 315.088 1116.18 316.056 1116.02 317.256H1124.97C1124.8 315.976 1124.31 314.992 1123.51 314.304C1122.68 313.6 1121.73 313.248 1120.65 313.248ZM1137.29 310.08H1131.05V308.688H1137.29V310.08ZM1130.71 321.24L1137.86 312H1139.21V324H1137.62V314.76L1130.47 324H1129.13V312H1130.71V321.24Z" fill="#239FFB"/>
</g>
<g filter="url(#filter5_ddddii_1032_2701)">
<rect x="433" y="450" width="211" height="70" rx="35" fill="white"/>
<path d="M486.92 475.2V490.416H488.72V495.216H487.04V492H475.04V495.216H473.36V490.416H474.728C475.832 489.12 476.384 487.12 476.384 484.416V475.2H486.92ZM476.72 490.416H485.24V476.784H478.064V484.464C478.064 487.104 477.616 489.088 476.72 490.416ZM492.498 480H501.09V492H499.506V481.536H494.082V486.888C494.082 488.888 493.698 490.264 492.93 491.016C492.178 491.768 491.138 492.096 489.81 492V490.512C490.738 490.608 491.418 490.384 491.85 489.84C492.282 489.296 492.498 488.312 492.498 486.888V480ZM508.214 480H513.086V492H511.502V487.392H509.438L505.742 492H503.726L507.518 487.344C506.542 487.2 505.742 486.8 505.118 486.144C504.51 485.472 504.206 484.664 504.206 483.72C504.206 482.648 504.59 481.76 505.358 481.056C506.158 480.352 507.11 480 508.214 480ZM508.214 485.904H511.502V481.536H508.214C507.526 481.536 506.95 481.744 506.486 482.16C506.022 482.56 505.79 483.08 505.79 483.72C505.79 484.36 506.022 484.888 506.486 485.304C506.95 485.704 507.526 485.904 508.214 485.904ZM530.078 485.832C531.39 486.312 532.046 487.248 532.046 488.64C532.046 489.632 531.71 490.44 531.038 491.064C530.382 491.688 529.462 492 528.278 492H522.446V480H527.798C528.95 480 529.846 480.296 530.486 480.888C531.142 481.48 531.47 482.256 531.47 483.216C531.47 484.416 531.006 485.288 530.078 485.832ZM527.798 481.536H524.03V485.184H527.798C529.19 485.184 529.886 484.56 529.886 483.312C529.886 482.752 529.702 482.32 529.334 482.016C528.982 481.696 528.47 481.536 527.798 481.536ZM524.03 490.464H528.278C528.982 490.464 529.518 490.296 529.886 489.96C530.27 489.624 530.462 489.152 530.462 488.544C530.462 487.968 530.27 487.52 529.886 487.2C529.518 486.88 528.982 486.72 528.278 486.72H524.03V490.464ZM540.878 479.712C542.59 479.712 544.046 480.32 545.246 481.536C546.462 482.752 547.07 484.24 547.07 486C547.07 487.76 546.462 489.248 545.246 490.464C544.046 491.68 542.59 492.288 540.878 492.288C538.75 492.288 537.134 491.408 536.03 489.648V496.8H534.446V480H536.03V482.352C537.134 480.592 538.75 479.712 540.878 479.712ZM537.398 489.384C538.31 490.296 539.43 490.752 540.758 490.752C542.086 490.752 543.206 490.296 544.118 489.384C545.03 488.44 545.486 487.312 545.486 486C545.486 484.672 545.03 483.552 544.118 482.64C543.206 481.712 542.086 481.248 540.758 481.248C539.43 481.248 538.31 481.712 537.398 482.64C536.486 483.552 536.03 484.672 536.03 486C536.03 487.312 536.486 488.44 537.398 489.384ZM560.023 482.352V480H561.607V492H560.023V489.648C558.919 491.408 557.303 492.288 555.175 492.288C553.463 492.288 551.999 491.68 550.783 490.464C549.583 489.248 548.983 487.76 548.983 486C548.983 484.24 549.583 482.752 550.783 481.536C551.999 480.32 553.463 479.712 555.175 479.712C557.303 479.712 558.919 480.592 560.023 482.352ZM551.935 489.384C552.847 490.296 553.967 490.752 555.295 490.752C556.623 490.752 557.743 490.296 558.655 489.384C559.567 488.44 560.023 487.312 560.023 486C560.023 484.672 559.567 483.552 558.655 482.64C557.743 481.712 556.623 481.248 555.295 481.248C553.967 481.248 552.847 481.712 551.935 482.64C551.023 483.552 550.567 484.672 550.567 486C550.567 487.312 551.023 488.44 551.935 489.384ZM572.737 485.976V480H574.321V492H572.737V487.44C571.809 487.92 570.665 488.16 569.305 488.16C567.721 488.16 566.521 487.8 565.705 487.08C564.889 486.344 564.481 485.264 564.481 483.84V480H566.065V483.84C566.065 484.832 566.321 485.552 566.833 486C567.361 486.448 568.169 486.672 569.257 486.672C570.473 486.672 571.633 486.44 572.737 485.976ZM583.232 479.712C585.024 479.712 586.456 480.344 587.528 481.608C588.632 482.856 589.184 484.336 589.184 486.048C589.184 486.128 589.168 486.376 589.136 486.792H578.6C578.76 487.992 579.272 488.952 580.136 489.672C581 490.392 582.08 490.752 583.376 490.752C585.2 490.752 586.488 490.072 587.24 488.712L588.632 489.528C588.104 490.392 587.376 491.072 586.448 491.568C585.536 492.048 584.504 492.288 583.352 492.288C581.464 492.288 579.928 491.696 578.744 490.512C577.56 489.328 576.968 487.824 576.968 486C576.968 484.192 577.552 482.696 578.72 481.512C579.888 480.312 581.392 479.712 583.232 479.712ZM583.232 481.248C581.984 481.248 580.936 481.616 580.088 482.352C579.256 483.088 578.76 484.056 578.6 485.256H587.552C587.376 483.976 586.888 482.992 586.088 482.304C585.256 481.6 584.304 481.248 583.232 481.248ZM599.863 478.08H593.623V476.688H599.863V478.08ZM593.287 489.24L600.439 480H601.783V492H600.199V482.76L593.047 492H591.703V480H593.287V489.24Z" fill="#323232"/>
</g>
<g filter="url(#filter6_ddddii_1032_2701)">
<rect x="740" y="450" width="233" height="100" rx="35" fill="white"/>
<path d="M781.92 475.2H793.92V492H792.24V476.784H783.6V492H781.92V475.2ZM803.956 479.712C805.668 479.712 807.124 480.32 808.324 481.536C809.54 482.752 810.148 484.24 810.148 486C810.148 487.76 809.54 489.248 808.324 490.464C807.124 491.68 805.668 492.288 803.956 492.288C801.828 492.288 800.212 491.408 799.108 489.648V496.8H797.524V480H799.108V482.352C800.212 480.592 801.828 479.712 803.956 479.712ZM800.476 489.384C801.388 490.296 802.508 490.752 803.836 490.752C805.164 490.752 806.284 490.296 807.196 489.384C808.108 488.44 808.564 487.312 808.564 486C808.564 484.672 808.108 483.552 807.196 482.64C806.284 481.712 805.164 481.248 803.836 481.248C802.508 481.248 801.388 481.712 800.476 482.64C799.564 483.552 799.108 484.672 799.108 486C799.108 487.312 799.564 488.44 800.476 489.384ZM814.366 489.24L821.518 480H822.862V492H821.278V482.76L814.126 492H812.782V480H814.366V489.24ZM827.459 480H836.051V492H834.467V481.536H829.043V486.888C829.043 488.888 828.659 490.264 827.891 491.016C827.139 491.768 826.099 492.096 824.771 492V490.512C825.699 490.608 826.379 490.384 826.811 489.84C827.243 489.296 827.459 488.312 827.459 486.888V480ZM849.463 490.488C848.231 491.688 846.743 492.288 844.999 492.288C843.223 492.288 841.727 491.688 840.511 490.488C839.295 489.272 838.687 487.776 838.687 486C838.687 484.224 839.295 482.736 840.511 481.536C841.727 480.32 843.223 479.712 844.999 479.712C846.759 479.712 848.247 480.32 849.463 481.536C850.695 482.736 851.311 484.224 851.311 486C851.311 487.76 850.695 489.256 849.463 490.488ZM841.639 489.384C842.551 490.296 843.671 490.752 844.999 490.752C846.327 490.752 847.447 490.296 848.359 489.384C849.271 488.44 849.727 487.312 849.727 486C849.727 484.672 849.271 483.552 848.359 482.64C847.447 481.712 846.327 481.248 844.999 481.248C843.671 481.248 842.551 481.712 841.639 482.64C840.727 483.552 840.271 484.672 840.271 486C840.271 487.312 840.727 488.44 841.639 489.384ZM861.64 485.76L867.016 492H865.096L860.2 486.216V492H858.616V486.216L853.72 492H851.8L857.176 485.76L852.04 480H853.96L858.616 485.328V480H860.2V485.328L864.856 480H866.776L861.64 485.76ZM873.755 479.712C875.547 479.712 876.979 480.344 878.051 481.608C879.155 482.856 879.707 484.336 879.707 486.048C879.707 486.128 879.691 486.376 879.659 486.792H869.123C869.283 487.992 869.795 488.952 870.659 489.672C871.523 490.392 872.603 490.752 873.899 490.752C875.723 490.752 877.011 490.072 877.763 488.712L879.155 489.528C878.627 490.392 877.899 491.072 876.971 491.568C876.059 492.048 875.027 492.288 873.875 492.288C871.987 492.288 870.451 491.696 869.267 490.512C868.083 489.328 867.491 487.824 867.491 486C867.491 484.192 868.075 482.696 869.243 481.512C870.411 480.312 871.915 479.712 873.755 479.712ZM873.755 481.248C872.507 481.248 871.459 481.616 870.611 482.352C869.779 483.088 869.283 484.056 869.123 485.256H878.075C877.899 483.976 877.411 482.992 876.611 482.304C875.779 481.6 874.827 481.248 873.755 481.248ZM890.723 485.232V480H892.307V492H890.723V486.768H883.811V492H882.227V480H883.811V485.232H890.723ZM897.241 489.24L904.393 480H905.737V492H904.153V482.76L897.001 492H895.657V480H897.241V489.24ZM914.63 479.712C916.422 479.712 917.854 480.344 918.926 481.608C920.03 482.856 920.582 484.336 920.582 486.048C920.582 486.128 920.566 486.376 920.534 486.792H909.998C910.158 487.992 910.67 488.952 911.534 489.672C912.398 490.392 913.478 490.752 914.774 490.752C916.598 490.752 917.886 490.072 918.638 488.712L920.03 489.528C919.502 490.392 918.774 491.072 917.846 491.568C916.934 492.048 915.902 492.288 914.75 492.288C912.862 492.288 911.326 491.696 910.142 490.512C908.958 489.328 908.366 487.824 908.366 486C908.366 484.192 908.95 482.696 910.118 481.512C911.286 480.312 912.79 479.712 914.63 479.712ZM914.63 481.248C913.382 481.248 912.334 481.616 911.486 482.352C910.654 483.088 910.158 484.056 909.998 485.256H918.95C918.774 483.976 918.286 482.992 917.486 482.304C916.654 481.6 915.702 481.248 914.63 481.248ZM791.76 510V520.464H793.44V525.216H791.856V522H782.064V525.216H780.48V520.464H781.944C782.76 519.376 783.168 517.864 783.168 515.928V510H791.76ZM783.864 520.464H790.176V511.536H784.752V515.928C784.752 517.784 784.456 519.296 783.864 520.464ZM797.084 510H805.676V522H804.092V511.536H798.668V516.888C798.668 518.888 798.284 520.264 797.516 521.016C796.764 521.768 795.724 522.096 794.396 522V520.512C795.324 520.608 796.004 520.384 796.436 519.84C796.868 519.296 797.084 518.312 797.084 516.888V510ZM812.8 510H817.672V522H816.088V517.392H814.024L810.328 522H808.312L812.104 517.344C811.128 517.2 810.328 516.8 809.704 516.144C809.096 515.472 808.792 514.664 808.792 513.72C808.792 512.648 809.176 511.76 809.944 511.056C810.744 510.352 811.696 510 812.8 510ZM812.8 515.904H816.088V511.536H812.8C812.112 511.536 811.536 511.744 811.072 512.16C810.608 512.56 810.376 513.08 810.376 513.72C810.376 514.36 810.608 514.888 811.072 515.304C811.536 515.704 812.112 515.904 812.8 515.904ZM833.224 515.832C834.616 516.36 835.312 517.32 835.312 518.712C835.312 519.72 834.92 520.568 834.136 521.256C833.384 521.944 832.28 522.288 830.824 522.288C828.392 522.288 826.808 521.328 826.072 519.408L827.416 518.616C827.928 520.04 829.064 520.752 830.824 520.752C831.736 520.752 832.448 520.56 832.96 520.176C833.472 519.776 833.728 519.256 833.728 518.616C833.728 518.04 833.52 517.584 833.104 517.248C832.688 516.896 832.128 516.72 831.424 516.72H829.672V515.184H830.944C831.632 515.184 832.168 515.016 832.552 514.68C832.952 514.328 833.152 513.848 833.152 513.24C833.152 512.664 832.912 512.192 832.432 511.824C831.968 511.44 831.352 511.248 830.584 511.248C829.096 511.248 828.096 511.848 827.584 513.048L826.264 512.28C827.064 510.568 828.504 509.712 830.584 509.712C831.864 509.712 832.872 510.048 833.608 510.72C834.36 511.376 834.736 512.184 834.736 513.144C834.736 514.376 834.232 515.272 833.224 515.832ZM847.565 510V520.464H849.245V525.216H847.661V522H837.869V525.216H836.285V520.464H837.749C838.565 519.376 838.973 517.864 838.973 515.928V510H847.565ZM839.669 520.464H845.981V511.536H840.557V515.928C840.557 517.784 840.261 519.296 839.669 520.464ZM861.228 520.488C859.996 521.688 858.508 522.288 856.764 522.288C854.988 522.288 853.492 521.688 852.276 520.488C851.06 519.272 850.452 517.776 850.452 516C850.452 514.224 851.06 512.736 852.276 511.536C853.492 510.32 854.988 509.712 856.764 509.712C858.524 509.712 860.012 510.32 861.228 511.536C862.46 512.736 863.076 514.224 863.076 516C863.076 517.76 862.46 519.256 861.228 520.488ZM853.404 519.384C854.316 520.296 855.436 520.752 856.764 520.752C858.092 520.752 859.212 520.296 860.124 519.384C861.036 518.44 861.492 517.312 861.492 516C861.492 514.672 861.036 513.552 860.124 512.64C859.212 511.712 858.092 511.248 856.764 511.248C855.436 511.248 854.316 511.712 853.404 512.64C852.492 513.552 852.036 514.672 852.036 516C852.036 517.312 852.492 518.44 853.404 519.384ZM872.159 509.712C873.871 509.712 875.327 510.32 876.527 511.536C877.743 512.752 878.351 514.24 878.351 516C878.351 517.76 877.743 519.248 876.527 520.464C875.327 521.68 873.871 522.288 872.159 522.288C870.031 522.288 868.415 521.408 867.311 519.648V526.8H865.727V510H867.311V512.352C868.415 510.592 870.031 509.712 872.159 509.712ZM868.679 519.384C869.591 520.296 870.711 520.752 872.039 520.752C873.367 520.752 874.487 520.296 875.399 519.384C876.311 518.44 876.767 517.312 876.767 516C876.767 514.672 876.311 513.552 875.399 512.64C874.487 511.712 873.367 511.248 872.039 511.248C870.711 511.248 869.591 511.712 868.679 512.64C867.767 513.552 867.311 514.672 867.311 516C867.311 517.312 867.767 518.44 868.679 519.384ZM891.041 520.488C889.809 521.688 888.321 522.288 886.577 522.288C884.801 522.288 883.305 521.688 882.089 520.488C880.873 519.272 880.265 517.776 880.265 516C880.265 514.224 880.873 512.736 882.089 511.536C883.305 510.32 884.801 509.712 886.577 509.712C888.337 509.712 889.825 510.32 891.041 511.536C892.273 512.736 892.889 514.224 892.889 516C892.889 517.76 892.273 519.256 891.041 520.488ZM883.217 519.384C884.129 520.296 885.249 520.752 886.577 520.752C887.905 520.752 889.025 520.296 889.937 519.384C890.849 518.44 891.305 517.312 891.305 516C891.305 514.672 890.849 513.552 889.937 512.64C889.025 511.712 887.905 511.248 886.577 511.248C885.249 511.248 884.129 511.712 883.217 512.64C882.305 513.552 881.849 514.672 881.849 516C881.849 517.312 882.305 518.44 883.217 519.384ZM903.171 515.832C904.483 516.312 905.139 517.248 905.139 518.64C905.139 519.632 904.803 520.44 904.131 521.064C903.475 521.688 902.555 522 901.371 522H895.539V510H900.891C902.043 510 902.939 510.296 903.579 510.888C904.235 511.48 904.563 512.256 904.563 513.216C904.563 514.416 904.099 515.288 903.171 515.832ZM900.891 511.536H897.123V515.184H900.891C902.283 515.184 902.979 514.56 902.979 513.312C902.979 512.752 902.795 512.32 902.427 512.016C902.075 511.696 901.563 511.536 900.891 511.536ZM897.123 520.464H901.371C902.075 520.464 902.611 520.296 902.979 519.96C903.363 519.624 903.555 519.152 903.555 518.544C903.555 517.968 903.363 517.52 902.979 517.2C902.611 516.88 902.075 516.72 901.371 516.72H897.123V520.464ZM909.123 514.56H912.411C913.515 514.56 914.459 514.912 915.243 515.616C916.027 516.304 916.419 517.192 916.419 518.28C916.419 519.384 916.027 520.28 915.243 520.968C914.491 521.656 913.547 522 912.411 522H907.539V510H909.123V514.56ZM909.123 520.464H912.411C913.099 520.464 913.675 520.264 914.139 519.864C914.603 519.448 914.835 518.92 914.835 518.28C914.835 517.64 914.603 517.12 914.139 516.72C913.675 516.304 913.099 516.096 912.411 516.096H909.123V520.464ZM921.854 510H926.726V522H925.142V517.392H923.078L919.382 522H917.366L921.158 517.344C920.182 517.2 919.382 516.8 918.758 516.144C918.15 515.472 917.846 514.664 917.846 513.72C917.846 512.648 918.23 511.76 918.998 511.056C919.798 510.352 920.75 510 921.854 510ZM921.854 515.904H925.142V511.536H921.854C921.166 511.536 920.59 511.744 920.126 512.16C919.662 512.56 919.43 513.08 919.43 513.72C919.43 514.36 919.662 514.888 920.126 515.304C920.59 515.704 921.166 515.904 921.854 515.904Z" fill="#323232"/>
</g>
<g filter="url(#filter7_ddddii_1032_2701)">
<rect x="1064" y="450" width="314" height="100" rx="35" fill="white"/>
<path d="M1109.38 483.36L1117.68 492H1115.47L1107.6 483.864V492H1105.92V475.2H1107.6V482.88L1115.23 475.2H1117.44L1109.38 483.36ZM1126.03 479.712C1127.75 479.712 1129.2 480.32 1130.4 481.536C1131.62 482.752 1132.23 484.24 1132.23 486C1132.23 487.76 1131.62 489.248 1130.4 490.464C1129.2 491.68 1127.75 492.288 1126.03 492.288C1123.91 492.288 1122.29 491.408 1121.19 489.648V496.8H1119.6V480H1121.19V482.352C1122.29 480.592 1123.91 479.712 1126.03 479.712ZM1122.55 489.384C1123.47 490.296 1124.59 490.752 1125.91 490.752C1127.24 490.752 1128.36 490.296 1129.27 489.384C1130.19 488.44 1130.64 487.312 1130.64 486C1130.64 484.672 1130.19 483.552 1129.27 482.64C1128.36 481.712 1127.24 481.248 1125.91 481.248C1124.59 481.248 1123.47 481.712 1122.55 482.64C1121.64 483.552 1121.19 484.672 1121.19 486C1121.19 487.312 1121.64 488.44 1122.55 489.384ZM1136.44 489.24L1143.6 480H1144.94V492H1143.36V482.76L1136.2 492H1134.86V480H1136.44V489.24ZM1148.29 480H1158.37V492H1156.79V481.536H1149.87V492H1148.29V480ZM1160.28 480H1170.36V481.536H1166.11V492H1164.53V481.536H1160.28V480ZM1181.88 490.488C1180.64 491.688 1179.16 492.288 1177.41 492.288C1175.64 492.288 1174.14 491.688 1172.92 490.488C1171.71 489.272 1171.1 487.776 1171.1 486C1171.1 484.224 1171.71 482.736 1172.92 481.536C1174.14 480.32 1175.64 479.712 1177.41 479.712C1179.17 479.712 1180.66 480.32 1181.88 481.536C1183.11 482.736 1183.72 484.224 1183.72 486C1183.72 487.76 1183.11 489.256 1181.88 490.488ZM1174.05 489.384C1174.96 490.296 1176.08 490.752 1177.41 490.752C1178.74 490.752 1179.86 490.296 1180.77 489.384C1181.68 488.44 1182.14 487.312 1182.14 486C1182.14 484.672 1181.68 483.552 1180.77 482.64C1179.86 481.712 1178.74 481.248 1177.41 481.248C1176.08 481.248 1174.96 481.712 1174.05 482.64C1173.14 483.552 1172.68 484.672 1172.68 486C1172.68 487.312 1173.14 488.44 1174.05 489.384ZM1195.26 485.352H1186.62V483.816H1195.26V485.352ZM1198.84 480H1208.92V492H1207.34V481.536H1200.43V492H1198.84V480ZM1218.71 479.712C1220.42 479.712 1221.87 480.32 1223.07 481.536C1224.29 482.752 1224.9 484.24 1224.9 486C1224.9 487.76 1224.29 489.248 1223.07 490.464C1221.87 491.68 1220.42 492.288 1218.71 492.288C1216.58 492.288 1214.96 491.408 1213.86 489.648V496.8H1212.27V480H1213.86V482.352C1214.96 480.592 1216.58 479.712 1218.71 479.712ZM1215.23 489.384C1216.14 490.296 1217.26 490.752 1218.59 490.752C1219.91 490.752 1221.03 490.296 1221.95 489.384C1222.86 488.44 1223.31 487.312 1223.31 486C1223.31 484.672 1222.86 483.552 1221.95 482.64C1221.03 481.712 1219.91 481.248 1218.59 481.248C1217.26 481.248 1216.14 481.712 1215.23 482.64C1214.31 483.552 1213.86 484.672 1213.86 486C1213.86 487.312 1214.31 488.44 1215.23 489.384ZM1229.12 489.24L1236.27 480H1237.61V492H1236.03V482.76L1228.88 492H1227.53V480H1229.12V489.24ZM1242.21 480H1250.8V492H1249.22V481.536H1243.79V486.888C1243.79 488.888 1243.41 490.264 1242.64 491.016C1241.89 491.768 1240.85 492.096 1239.52 492V490.512C1240.45 490.608 1241.13 490.384 1241.56 489.84C1241.99 489.296 1242.21 488.312 1242.21 486.888V480ZM1264.21 490.488C1262.98 491.688 1261.49 492.288 1259.75 492.288C1257.97 492.288 1256.48 491.688 1255.26 490.488C1254.04 489.272 1253.44 487.776 1253.44 486C1253.44 484.224 1254.04 482.736 1255.26 481.536C1256.48 480.32 1257.97 479.712 1259.75 479.712C1261.51 479.712 1263 480.32 1264.21 481.536C1265.44 482.736 1266.06 484.224 1266.06 486C1266.06 487.76 1265.44 489.256 1264.21 490.488ZM1256.39 489.384C1257.3 490.296 1258.42 490.752 1259.75 490.752C1261.08 490.752 1262.2 490.296 1263.11 489.384C1264.02 488.44 1264.48 487.312 1264.48 486C1264.48 484.672 1264.02 483.552 1263.11 482.64C1262.2 481.712 1261.08 481.248 1259.75 481.248C1258.42 481.248 1257.3 481.712 1256.39 482.64C1255.48 483.552 1255.02 484.672 1255.02 486C1255.02 487.312 1255.48 488.44 1256.39 489.384ZM1276.39 485.76L1281.77 492H1279.85L1274.95 486.216V492H1273.37V486.216L1268.47 492H1266.55L1271.93 485.76L1266.79 480H1268.71L1273.37 485.328V480H1274.95V485.328L1279.61 480H1281.53L1276.39 485.76ZM1288.51 479.712C1290.3 479.712 1291.73 480.344 1292.8 481.608C1293.91 482.856 1294.46 484.336 1294.46 486.048C1294.46 486.128 1294.44 486.376 1294.41 486.792H1283.87C1284.03 487.992 1284.55 488.952 1285.41 489.672C1286.27 490.392 1287.35 490.752 1288.65 490.752C1290.47 490.752 1291.76 490.072 1292.51 488.712L1293.91 489.528C1293.38 490.392 1292.65 491.072 1291.72 491.568C1290.81 492.048 1289.78 492.288 1288.63 492.288C1286.74 492.288 1285.2 491.696 1284.02 490.512C1282.83 489.328 1282.24 487.824 1282.24 486C1282.24 484.192 1282.83 482.696 1283.99 481.512C1285.16 480.312 1286.67 479.712 1288.51 479.712ZM1288.51 481.248C1287.26 481.248 1286.21 481.616 1285.36 482.352C1284.53 483.088 1284.03 484.056 1283.87 485.256H1292.83C1292.65 483.976 1292.16 482.992 1291.36 482.304C1290.53 481.6 1289.58 481.248 1288.51 481.248ZM1305.47 485.232V480H1307.06V492H1305.47V486.768H1298.56V492H1296.98V480H1298.56V485.232H1305.47ZM1311.99 489.24L1319.14 480H1320.49V492H1318.9V482.76L1311.75 492H1310.41V480H1311.99V489.24ZM1329.38 479.712C1331.17 479.712 1332.6 480.344 1333.68 481.608C1334.78 482.856 1335.33 484.336 1335.33 486.048C1335.33 486.128 1335.32 486.376 1335.28 486.792H1324.75C1324.91 487.992 1325.42 488.952 1326.28 489.672C1327.15 490.392 1328.23 490.752 1329.52 490.752C1331.35 490.752 1332.64 490.072 1333.39 488.712L1334.78 489.528C1334.25 490.392 1333.52 491.072 1332.6 491.568C1331.68 492.048 1330.65 492.288 1329.5 492.288C1327.61 492.288 1326.08 491.696 1324.89 490.512C1323.71 489.328 1323.12 487.824 1323.12 486C1323.12 484.192 1323.7 482.696 1324.87 481.512C1326.04 480.312 1327.54 479.712 1329.38 479.712ZM1329.38 481.248C1328.13 481.248 1327.08 481.616 1326.24 482.352C1325.4 483.088 1324.91 484.056 1324.75 485.256H1333.7C1333.52 483.976 1333.04 482.992 1332.24 482.304C1331.4 481.6 1330.45 481.248 1329.38 481.248ZM1111.87 515.832C1113.26 516.36 1113.96 517.32 1113.96 518.712C1113.96 519.72 1113.57 520.568 1112.78 521.256C1112.03 521.944 1110.93 522.288 1109.47 522.288C1107.04 522.288 1105.46 521.328 1104.72 519.408L1106.06 518.616C1106.58 520.04 1107.71 520.752 1109.47 520.752C1110.38 520.752 1111.1 520.56 1111.61 520.176C1112.12 519.776 1112.38 519.256 1112.38 518.616C1112.38 518.04 1112.17 517.584 1111.75 517.248C1111.34 516.896 1110.78 516.72 1110.07 516.72H1108.32V515.184H1109.59C1110.28 515.184 1110.82 515.016 1111.2 514.68C1111.6 514.328 1111.8 513.848 1111.8 513.24C1111.8 512.664 1111.56 512.192 1111.08 511.824C1110.62 511.44 1110 511.248 1109.23 511.248C1107.74 511.248 1106.74 511.848 1106.23 513.048L1104.91 512.28C1105.71 510.568 1107.15 509.712 1109.23 509.712C1110.51 509.712 1111.52 510.048 1112.26 510.72C1113.01 511.376 1113.38 512.184 1113.38 513.144C1113.38 514.376 1112.88 515.272 1111.87 515.832ZM1126.21 510V520.464H1127.89V525.216H1126.31V522H1116.52V525.216H1114.93V520.464H1116.4C1117.21 519.376 1117.62 517.864 1117.62 515.928V510H1126.21ZM1118.32 520.464H1124.63V511.536H1119.21V515.928C1119.21 517.784 1118.91 519.296 1118.32 520.464ZM1139.88 520.488C1138.64 521.688 1137.16 522.288 1135.41 522.288C1133.64 522.288 1132.14 521.688 1130.92 520.488C1129.71 519.272 1129.1 517.776 1129.1 516C1129.1 514.224 1129.71 512.736 1130.92 511.536C1132.14 510.32 1133.64 509.712 1135.41 509.712C1137.17 509.712 1138.66 510.32 1139.88 511.536C1141.11 512.736 1141.72 514.224 1141.72 516C1141.72 517.76 1141.11 519.256 1139.88 520.488ZM1132.05 519.384C1132.96 520.296 1134.08 520.752 1135.41 520.752C1136.74 520.752 1137.86 520.296 1138.77 519.384C1139.68 518.44 1140.14 517.312 1140.14 516C1140.14 514.672 1139.68 513.552 1138.77 512.64C1137.86 511.712 1136.74 511.248 1135.41 511.248C1134.08 511.248 1132.96 511.712 1132.05 512.64C1131.14 513.552 1130.68 514.672 1130.68 516C1130.68 517.312 1131.14 518.44 1132.05 519.384ZM1150.81 509.712C1152.52 509.712 1153.98 510.32 1155.18 511.536C1156.39 512.752 1157 514.24 1157 516C1157 517.76 1156.39 519.248 1155.18 520.464C1153.98 521.68 1152.52 522.288 1150.81 522.288C1148.68 522.288 1147.06 521.408 1145.96 519.648V526.8H1144.38V510H1145.96V512.352C1147.06 510.592 1148.68 509.712 1150.81 509.712ZM1147.33 519.384C1148.24 520.296 1149.36 520.752 1150.69 520.752C1152.02 520.752 1153.14 520.296 1154.05 519.384C1154.96 518.44 1155.42 517.312 1155.42 516C1155.42 514.672 1154.96 513.552 1154.05 512.64C1153.14 511.712 1152.02 511.248 1150.69 511.248C1149.36 511.248 1148.24 511.712 1147.33 512.64C1146.42 513.552 1145.96 514.672 1145.96 516C1145.96 517.312 1146.42 518.44 1147.33 519.384ZM1169.69 520.488C1168.46 521.688 1166.97 522.288 1165.23 522.288C1163.45 522.288 1161.95 521.688 1160.74 520.488C1159.52 519.272 1158.91 517.776 1158.91 516C1158.91 514.224 1159.52 512.736 1160.74 511.536C1161.95 510.32 1163.45 509.712 1165.23 509.712C1166.99 509.712 1168.47 510.32 1169.69 511.536C1170.92 512.736 1171.54 514.224 1171.54 516C1171.54 517.76 1170.92 519.256 1169.69 520.488ZM1161.87 519.384C1162.78 520.296 1163.9 520.752 1165.23 520.752C1166.55 520.752 1167.67 520.296 1168.59 519.384C1169.5 518.44 1169.95 517.312 1169.95 516C1169.95 514.672 1169.5 513.552 1168.59 512.64C1167.67 511.712 1166.55 511.248 1165.23 511.248C1163.9 511.248 1162.78 511.712 1161.87 512.64C1160.95 513.552 1160.5 514.672 1160.5 516C1160.5 517.312 1160.95 518.44 1161.87 519.384ZM1181.82 515.832C1183.13 516.312 1183.79 517.248 1183.79 518.64C1183.79 519.632 1183.45 520.44 1182.78 521.064C1182.12 521.688 1181.2 522 1180.02 522H1174.19V510H1179.54C1180.69 510 1181.59 510.296 1182.23 510.888C1182.88 511.48 1183.21 512.256 1183.21 513.216C1183.21 514.416 1182.75 515.288 1181.82 515.832ZM1179.54 511.536H1175.77V515.184H1179.54C1180.93 515.184 1181.63 514.56 1181.63 513.312C1181.63 512.752 1181.44 512.32 1181.08 512.016C1180.72 511.696 1180.21 511.536 1179.54 511.536ZM1175.77 520.464H1180.02C1180.72 520.464 1181.26 520.296 1181.63 519.96C1182.01 519.624 1182.2 519.152 1182.2 518.544C1182.2 517.968 1182.01 517.52 1181.63 517.2C1181.26 516.88 1180.72 516.72 1180.02 516.72H1175.77V520.464ZM1187.77 514.56H1191.06C1192.16 514.56 1193.11 514.912 1193.89 515.616C1194.68 516.304 1195.07 517.192 1195.07 518.28C1195.07 519.384 1194.68 520.28 1193.89 520.968C1193.14 521.656 1192.2 522 1191.06 522H1186.19V510H1187.77V514.56ZM1196.75 522V510H1198.33V522H1196.75ZM1187.77 520.464H1191.06C1191.75 520.464 1192.32 520.264 1192.79 519.864C1193.25 519.448 1193.48 518.92 1193.48 518.28C1193.48 517.64 1193.25 517.12 1192.79 516.72C1192.32 516.304 1191.75 516.096 1191.06 516.096H1187.77V520.464ZM1207.1 515.784L1211.78 522H1209.89L1206.14 517.056L1202.4 522H1200.5L1205.21 515.784L1200.82 510H1202.71L1206.14 514.536L1209.58 510H1211.47L1207.1 515.784ZM1219.94 510H1230.02V522H1228.43V511.536H1221.52V522H1219.94V510ZM1239.8 509.712C1241.51 509.712 1242.97 510.32 1244.17 511.536C1245.38 512.752 1245.99 514.24 1245.99 516C1245.99 517.76 1245.38 519.248 1244.17 520.464C1242.97 521.68 1241.51 522.288 1239.8 522.288C1237.67 522.288 1236.06 521.408 1234.95 519.648V526.8H1233.37V510H1234.95V512.352C1236.06 510.592 1237.67 509.712 1239.8 509.712ZM1236.32 519.384C1237.23 520.296 1238.35 520.752 1239.68 520.752C1241.01 520.752 1242.13 520.296 1243.04 519.384C1243.95 518.44 1244.41 517.312 1244.41 516C1244.41 514.672 1243.95 513.552 1243.04 512.64C1242.13 511.712 1241.01 511.248 1239.68 511.248C1238.35 511.248 1237.23 511.712 1236.32 512.64C1235.41 513.552 1234.95 514.672 1234.95 516C1234.95 517.312 1235.41 518.44 1236.32 519.384ZM1250.21 519.24L1257.36 510H1258.71V522H1257.12V512.76L1249.97 522H1248.63V510H1250.21V519.24ZM1269.69 515.832C1271 516.312 1271.66 517.248 1271.66 518.64C1271.66 519.632 1271.32 520.44 1270.65 521.064C1269.99 521.688 1269.07 522 1267.89 522H1262.06V510H1267.41C1268.56 510 1269.46 510.296 1270.1 510.888C1270.75 511.48 1271.08 512.256 1271.08 513.216C1271.08 514.416 1270.62 515.288 1269.69 515.832ZM1267.41 511.536H1263.64V515.184H1267.41C1268.8 515.184 1269.5 514.56 1269.5 513.312C1269.5 512.752 1269.31 512.32 1268.94 512.016C1268.59 511.696 1268.08 511.536 1267.41 511.536ZM1263.64 520.464H1267.89C1268.59 520.464 1269.13 520.296 1269.5 519.96C1269.88 519.624 1270.07 519.152 1270.07 518.544C1270.07 517.968 1269.88 517.52 1269.5 517.2C1269.13 516.88 1268.59 516.72 1267.89 516.72H1263.64V520.464ZM1275.64 514.56H1278.93C1280.03 514.56 1280.98 514.912 1281.76 515.616C1282.54 516.304 1282.94 517.192 1282.94 518.28C1282.94 519.384 1282.54 520.28 1281.76 520.968C1281.01 521.656 1280.06 522 1278.93 522H1274.06V510H1275.64V514.56ZM1284.62 522V510H1286.2V522H1284.62ZM1275.64 520.464H1278.93C1279.62 520.464 1280.19 520.264 1280.66 519.864C1281.12 519.448 1281.35 518.92 1281.35 518.28C1281.35 517.64 1281.12 517.12 1280.66 516.72C1280.19 516.304 1279.62 516.096 1278.93 516.096H1275.64V520.464ZM1297.35 515.976V510H1298.93V522H1297.35V517.44C1296.42 517.92 1295.27 518.16 1293.91 518.16C1292.33 518.16 1291.13 517.8 1290.31 517.08C1289.5 516.344 1289.09 515.264 1289.09 513.84V510H1290.67V513.84C1290.67 514.832 1290.93 515.552 1291.44 516C1291.97 516.448 1292.78 516.672 1293.87 516.672C1295.08 516.672 1296.24 516.44 1297.35 515.976ZM1307.84 509.712C1309.63 509.712 1311.07 510.344 1312.14 511.608C1313.24 512.856 1313.79 514.336 1313.79 516.048C1313.79 516.128 1313.78 516.376 1313.75 516.792H1303.21C1303.37 517.992 1303.88 518.952 1304.75 519.672C1305.61 520.392 1306.69 520.752 1307.99 520.752C1309.81 520.752 1311.1 520.072 1311.85 518.712L1313.24 519.528C1312.71 520.392 1311.99 521.072 1311.06 521.568C1310.15 522.048 1309.11 522.288 1307.96 522.288C1306.07 522.288 1304.54 521.696 1303.35 520.512C1302.17 519.328 1301.58 517.824 1301.58 516C1301.58 514.192 1302.16 512.696 1303.33 511.512C1304.5 510.312 1306 509.712 1307.84 509.712ZM1307.84 511.248C1306.59 511.248 1305.55 511.616 1304.7 512.352C1303.87 513.088 1303.37 514.056 1303.21 515.256H1312.16C1311.99 513.976 1311.5 512.992 1310.7 512.304C1309.87 511.6 1308.91 511.248 1307.84 511.248ZM1319.58 515.76L1326.01 522H1323.9L1317.9 516.216V522H1316.31V510H1317.9V515.304L1323.61 510H1325.77L1319.58 515.76Z" fill="#323232"/>
</g>
<path opacity="0.5" d="M369.5 268L375.274 258H363.726L369.5 268ZM713.5 175V208H715.5V175H713.5ZM706.5 215H377.5V217H706.5V215ZM368.5 224V259H370.5V224H368.5ZM377.5 215C372.529 215 368.5 219.029 368.5 224H370.5C370.5 220.134 373.634 217 377.5 217V215ZM713.5 208C713.5 211.866 710.366 215 706.5 215V217C711.471 217 715.5 212.971 715.5 208H713.5Z" fill="#239FFB"/>
<path opacity="0.5" d="M202 436L207.774 426H196.226L202 436ZM366 371V390H368V371H366ZM359 397H210V399H359V397ZM201 406V427H203V406H201ZM210 397C205.029 397 201 401.029 201 406H203C203 402.134 206.134 399 210 399V397ZM366 390C366 393.866 362.866 397 359 397V399C363.971 399 368 394.971 368 390H366Z" fill="#239FFB"/>
<path opacity="0.5" d="M858 436L863.774 426H852.226L858 436ZM1042 371V390H1044V371H1042ZM1035 397H866V399H1035V397ZM857 406V427H859V406H857ZM866 397C861.029 397 857 401.029 857 406H859C859 402.134 862.134 399 866 399V397ZM1042 390C1042 393.866 1038.87 397 1035 397V399C1039.97 399 1044 394.971 1044 390H1042Z" fill="#239FFB"/>
<path opacity="0.5" d="M858 609L863.774 599L852.226 599L858 609ZM857 574L857 600L859 600L859 574L857 574Z" fill="#239FFB"/>
<path opacity="0.5" d="M1225 609L1230.77 599L1219.23 599L1225 609ZM1224 574L1224 600L1226 600L1226 574L1224 574Z" fill="#239FFB"/>
<path opacity="0.5" d="M539 539V561C539 565.418 535.418 569 531 569H373" stroke="#239FFB" stroke-width="2"/>
<path opacity="0.5" d="M539 436L533.226 426H544.774L539 436ZM375 371V390H373V371H375ZM382 397H531V399H382V397ZM540 406V427H538V406H540ZM531 397C535.971 397 540 401.029 540 406H538C538 402.134 534.866 399 531 399V397ZM375 390C375 393.866 378.134 397 382 397V399C377.029 399 373 394.971 373 390H375Z" fill="#239FFB"/>
<path opacity="0.5" d="M1225 436L1219.23 426H1230.77L1225 436ZM1051 371V390H1049V371H1051ZM1058 397H1217V399H1058V397ZM1226 406V427H1224V406H1226ZM1217 397C1221.97 397 1226 401.029 1226 406H1224C1224 402.134 1220.87 399 1217 399V397ZM1051 390C1051 393.866 1054.13 397 1058 397V399C1053.03 399 1049 394.971 1049 390H1051Z" fill="#239FFB"/>
<path opacity="0.5" d="M372 569V568H373V569H372ZM372 607L366.226 597H377.774L372 607ZM203 539V561H201V539H203ZM210 568H372V570H210V568ZM373 569V598H371V569H373ZM203 561C203 564.866 206.134 568 210 568V570C205.029 570 201 565.971 201 561H203Z" fill="#239FFB"/>
<path opacity="0.5" d="M1047 268L1041.23 258H1052.77L1047 268ZM725 175V208H723V175H725ZM732 215H1039V217H732V215ZM1048 224V259H1046V224H1048ZM1039 215C1043.97 215 1048 219.029 1048 224H1046C1046 220.134 1042.87 217 1039 217V215ZM725 208C725 211.866 728.134 215 732 215V217C727.029 217 723 212.971 723 208H725Z" fill="#239FFB"/>
<defs>
<filter id="filter0_ddddii_1032_2701" x="0" y="0" width="1473" height="868" filterUnits="userSpaceOnUse" color-interpolation-filters="sRGB">
<feFlood flood-opacity="0" result="BackgroundImageFix"/>
<feColorMatrix in="SourceAlpha" type="matrix" values="0 0 0 0 0 0 0 0 0 0 0 0 0 0 0 0 0 0 127 0" result="hardAlpha"/>
<feOffset dx="5" dy="5"/>
<feGaussianBlur stdDeviation="6.5"/>
<feColorMatrix type="matrix" values="0 0 0 0 0.819608 0 0 0 0 0.85098 0 0 0 0 0.901961 0 0 0 0.9 0"/>
<feBlend mode="normal" in2="BackgroundImageFix" result="effect1_dropShadow_1032_2701"/>
<feColorMatrix in="SourceAlpha" type="matrix" values="0 0 0 0 0 0 0 0 0 0 0 0 0 0 0 0 0 0 127 0" result="hardAlpha"/>
<feOffset dx="-5" dy="-5"/>
<feGaussianBlur stdDeviation="5"/>
<feColorMatrix type="matrix" values="0 0 0 0 1 0 0 0 0 1 0 0 0 0 1 0 0 0 0.9 0"/>
<feBlend mode="normal" in2="effect1_dropShadow_1032_2701" result="effect2_dropShadow_1032_2701"/>
<feColorMatrix in="SourceAlpha" type="matrix" values="0 0 0 0 0 0 0 0 0 0 0 0 0 0 0 0 0 0 127 0" result="hardAlpha"/>
<feOffset dx="5" dy="-5"/>
<feGaussianBlur stdDeviation="5"/>
<feColorMatrix type="matrix" values="0 0 0 0 0.819608 0 0 0 0 0.85098 0 0 0 0 0.901961 0 0 0 0.2 0"/>
<feBlend mode="normal" in2="effect2_dropShadow_1032_2701" result="effect3_dropShadow_1032_2701"/>
<feColorMatrix in="SourceAlpha" type="matrix" values="0 0 0 0 0 0 0 0 0 0 0 0 0 0 0 0 0 0 127 0" result="hardAlpha"/>
<feOffset dx="-5" dy="5"/>
<feGaussianBlur stdDeviation="5"/>
<feColorMatrix type="matrix" values="0 0 0 0 0.819608 0 0 0 0 0.85098 0 0 0 0 0.901961 0 0 0 0.2 0"/>
<feBlend mode="normal" in2="effect3_dropShadow_1032_2701" result="effect4_dropShadow_1032_2701"/>
<feBlend mode="normal" in="SourceGraphic" in2="effect4_dropShadow_1032_2701" result="shape"/>
<feColorMatrix in="SourceAlpha" type="matrix" values="0 0 0 0 0 0 0 0 0 0 0 0 0 0 0 0 0 0 127 0" result="hardAlpha"/>
<feOffset dx="-1" dy="-1"/>
<feGaussianBlur stdDeviation="1"/>
<feComposite in2="hardAlpha" operator="arithmetic" k2="-1" k3="1"/>
<feColorMatrix type="matrix" values="0 0 0 0 0.819608 0 0 0 0 0.85098 0 0 0 0 0.901961 0 0 0 0.5 0"/>
<feBlend mode="normal" in2="shape" result="effect5_innerShadow_1032_2701"/>
<feColorMatrix in="SourceAlpha" type="matrix" values="0 0 0 0 0 0 0 0 0 0 0 0 0 0 0 0 0 0 127 0" result="hardAlpha"/>
<feOffset dx="1" dy="1"/>
<feGaussianBlur stdDeviation="1"/>
<feComposite in2="hardAlpha" operator="arithmetic" k2="-1" k3="1"/>
<feColorMatrix type="matrix" values="0 0 0 0 1 0 0 0 0 1 0 0 0 0 1 0 0 0 0.3 0"/>
<feBlend mode="normal" in2="effect5_innerShadow_1032_2701" result="effect6_innerShadow_1032_2701"/>
</filter>
<filter id="filter1_f_1032_2701" x="311.065" y="611.009" width="121.842" height="69.6209" filterUnits="userSpaceOnUse" color-interpolation-filters="sRGB">
<feFlood flood-opacity="0" result="BackgroundImageFix"/>
<feBlend mode="normal" in="SourceGraphic" in2="BackgroundImageFix" result="shape"/>
<feGaussianBlur stdDeviation="4.92568" result="effect1_foregroundBlur_1032_2701"/>
</filter>
<filter id="filter2_ddddii_1032_2701" x="84" y="435" width="238" height="103" filterUnits="userSpaceOnUse" color-interpolation-filters="sRGB">
<feFlood flood-opacity="0" result="BackgroundImageFix"/>
<feColorMatrix in="SourceAlpha" type="matrix" values="0 0 0 0 0 0 0 0 0 0 0 0 0 0 0 0 0 0 127 0" result="hardAlpha"/>
<feOffset dx="5" dy="5"/>
<feGaussianBlur stdDeviation="6.5"/>
<feColorMatrix type="matrix" values="0 0 0 0 0.819608 0 0 0 0 0.85098 0 0 0 0 0.901961 0 0 0 0.9 0"/>
<feBlend mode="normal" in2="BackgroundImageFix" result="effect1_dropShadow_1032_2701"/>
<feColorMatrix in="SourceAlpha" type="matrix" values="0 0 0 0 0 0 0 0 0 0 0 0 0 0 0 0 0 0 127 0" result="hardAlpha"/>
<feOffset dx="-5" dy="-5"/>
<feGaussianBlur stdDeviation="5"/>
<feColorMatrix type="matrix" values="0 0 0 0 1 0 0 0 0 1 0 0 0 0 1 0 0 0 0.9 0"/>
<feBlend mode="normal" in2="effect1_dropShadow_1032_2701" result="effect2_dropShadow_1032_2701"/>
<feColorMatrix in="SourceAlpha" type="matrix" values="0 0 0 0 0 0 0 0 0 0 0 0 0 0 0 0 0 0 127 0" result="hardAlpha"/>
<feOffset dx="5" dy="-5"/>
<feGaussianBlur stdDeviation="5"/>
<feColorMatrix type="matrix" values="0 0 0 0 0.819608 0 0 0 0 0.85098 0 0 0 0 0.901961 0 0 0 0.2 0"/>
<feBlend mode="normal" in2="effect2_dropShadow_1032_2701" result="effect3_dropShadow_1032_2701"/>
<feColorMatrix in="SourceAlpha" type="matrix" values="0 0 0 0 0 0 0 0 0 0 0 0 0 0 0 0 0 0 127 0" result="hardAlpha"/>
<feOffset dx="-5" dy="5"/>
<feGaussianBlur stdDeviation="5"/>
<feColorMatrix type="matrix" values="0 0 0 0 0.819608 0 0 0 0 0.85098 0 0 0 0 0.901961 0 0 0 0.2 0"/>
<feBlend mode="normal" in2="effect3_dropShadow_1032_2701" result="effect4_dropShadow_1032_2701"/>
<feBlend mode="normal" in="SourceGraphic" in2="effect4_dropShadow_1032_2701" result="shape"/>
<feColorMatrix in="SourceAlpha" type="matrix" values="0 0 0 0 0 0 0 0 0 0 0 0 0 0 0 0 0 0 127 0" result="hardAlpha"/>
<feOffset dx="-1" dy="-1"/>
<feGaussianBlur stdDeviation="1"/>
<feComposite in2="hardAlpha" operator="arithmetic" k2="-1" k3="1"/>
<feColorMatrix type="matrix" values="0 0 0 0 0.819608 0 0 0 0 0.85098 0 0 0 0 0.901961 0 0 0 0.5 0"/>
<feBlend mode="normal" in2="shape" result="effect5_innerShadow_1032_2701"/>
<feColorMatrix in="SourceAlpha" type="matrix" values="0 0 0 0 0 0 0 0 0 0 0 0 0 0 0 0 0 0 127 0" result="hardAlpha"/>
<feOffset dx="1" dy="1"/>
<feGaussianBlur stdDeviation="1"/>
<feComposite in2="hardAlpha" operator="arithmetic" k2="-1" k3="1"/>
<feColorMatrix type="matrix" values="0 0 0 0 1 0 0 0 0 1 0 0 0 0 1 0 0 0 0.3 0"/>
<feBlend mode="normal" in2="effect5_innerShadow_1032_2701" result="effect6_innerShadow_1032_2701"/>
</filter>
<filter id="filter3_ddddii_1032_2701" x="252" y="267" width="238" height="103" filterUnits="userSpaceOnUse" color-interpolation-filters="sRGB">
<feFlood flood-opacity="0" result="BackgroundImageFix"/>
<feColorMatrix in="SourceAlpha" type="matrix" values="0 0 0 0 0 0 0 0 0 0 0 0 0 0 0 0 0 0 127 0" result="hardAlpha"/>
<feOffset dx="5" dy="5"/>
<feGaussianBlur stdDeviation="6.5"/>
<feColorMatrix type="matrix" values="0 0 0 0 0.819608 0 0 0 0 0.85098 0 0 0 0 0.901961 0 0 0 0.9 0"/>
<feBlend mode="normal" in2="BackgroundImageFix" result="effect1_dropShadow_1032_2701"/>
<feColorMatrix in="SourceAlpha" type="matrix" values="0 0 0 0 0 0 0 0 0 0 0 0 0 0 0 0 0 0 127 0" result="hardAlpha"/>
<feOffset dx="-5" dy="-5"/>
<feGaussianBlur stdDeviation="5"/>
<feColorMatrix type="matrix" values="0 0 0 0 1 0 0 0 0 1 0 0 0 0 1 0 0 0 0.9 0"/>
<feBlend mode="normal" in2="effect1_dropShadow_1032_2701" result="effect2_dropShadow_1032_2701"/>
<feColorMatrix in="SourceAlpha" type="matrix" values="0 0 0 0 0 0 0 0 0 0 0 0 0 0 0 0 0 0 127 0" result="hardAlpha"/>
<feOffset dx="5" dy="-5"/>
<feGaussianBlur stdDeviation="5"/>
<feColorMatrix type="matrix" values="0 0 0 0 0.819608 0 0 0 0 0.85098 0 0 0 0 0.901961 0 0 0 0.2 0"/>
<feBlend mode="normal" in2="effect2_dropShadow_1032_2701" result="effect3_dropShadow_1032_2701"/>
<feColorMatrix in="SourceAlpha" type="matrix" values="0 0 0 0 0 0 0 0 0 0 0 0 0 0 0 0 0 0 127 0" result="hardAlpha"/>
<feOffset dx="-5" dy="5"/>
<feGaussianBlur stdDeviation="5"/>
<feColorMatrix type="matrix" values="0 0 0 0 0.819608 0 0 0 0 0.85098 0 0 0 0 0.901961 0 0 0 0.2 0"/>
<feBlend mode="normal" in2="effect3_dropShadow_1032_2701" result="effect4_dropShadow_1032_2701"/>
<feBlend mode="normal" in="SourceGraphic" in2="effect4_dropShadow_1032_2701" result="shape"/>
<feColorMatrix in="SourceAlpha" type="matrix" values="0 0 0 0 0 0 0 0 0 0 0 0 0 0 0 0 0 0 127 0" result="hardAlpha"/>
<feOffset dx="-1" dy="-1"/>
<feGaussianBlur stdDeviation="1"/>
<feComposite in2="hardAlpha" operator="arithmetic" k2="-1" k3="1"/>
<feColorMatrix type="matrix" values="0 0 0 0 0.819608 0 0 0 0 0.85098 0 0 0 0 0.901961 0 0 0 0.5 0"/>
<feBlend mode="normal" in2="shape" result="effect5_innerShadow_1032_2701"/>
<feColorMatrix in="SourceAlpha" type="matrix" values="0 0 0 0 0 0 0 0 0 0 0 0 0 0 0 0 0 0 127 0" result="hardAlpha"/>
<feOffset dx="1" dy="1"/>
<feGaussianBlur stdDeviation="1"/>
<feComposite in2="hardAlpha" operator="arithmetic" k2="-1" k3="1"/>
<feColorMatrix type="matrix" values="0 0 0 0 1 0 0 0 0 1 0 0 0 0 1 0 0 0 0.3 0"/>
<feBlend mode="normal" in2="effect5_innerShadow_1032_2701" result="effect6_innerShadow_1032_2701"/>
</filter>
<filter id="filter4_ddddii_1032_2701" x="856" y="267" width="343" height="103" filterUnits="userSpaceOnUse" color-interpolation-filters="sRGB">
<feFlood flood-opacity="0" result="BackgroundImageFix"/>
<feColorMatrix in="SourceAlpha" type="matrix" values="0 0 0 0 0 0 0 0 0 0 0 0 0 0 0 0 0 0 127 0" result="hardAlpha"/>
<feOffset dx="5" dy="5"/>
<feGaussianBlur stdDeviation="6.5"/>
<feColorMatrix type="matrix" values="0 0 0 0 0.819608 0 0 0 0 0.85098 0 0 0 0 0.901961 0 0 0 0.9 0"/>
<feBlend mode="normal" in2="BackgroundImageFix" result="effect1_dropShadow_1032_2701"/>
<feColorMatrix in="SourceAlpha" type="matrix" values="0 0 0 0 0 0 0 0 0 0 0 0 0 0 0 0 0 0 127 0" result="hardAlpha"/>
<feOffset dx="-5" dy="-5"/>
<feGaussianBlur stdDeviation="5"/>
<feColorMatrix type="matrix" values="0 0 0 0 1 0 0 0 0 1 0 0 0 0 1 0 0 0 0.9 0"/>
<feBlend mode="normal" in2="effect1_dropShadow_1032_2701" result="effect2_dropShadow_1032_2701"/>
<feColorMatrix in="SourceAlpha" type="matrix" values="0 0 0 0 0 0 0 0 0 0 0 0 0 0 0 0 0 0 127 0" result="hardAlpha"/>
<feOffset dx="5" dy="-5"/>
<feGaussianBlur stdDeviation="5"/>
<feColorMatrix type="matrix" values="0 0 0 0 0.819608 0 0 0 0 0.85098 0 0 0 0 0.901961 0 0 0 0.2 0"/>
<feBlend mode="normal" in2="effect2_dropShadow_1032_2701" result="effect3_dropShadow_1032_2701"/>
<feColorMatrix in="SourceAlpha" type="matrix" values="0 0 0 0 0 0 0 0 0 0 0 0 0 0 0 0 0 0 127 0" result="hardAlpha"/>
<feOffset dx="-5" dy="5"/>
<feGaussianBlur stdDeviation="5"/>
<feColorMatrix type="matrix" values="0 0 0 0 0.819608 0 0 0 0 0.85098 0 0 0 0 0.901961 0 0 0 0.2 0"/>
<feBlend mode="normal" in2="effect3_dropShadow_1032_2701" result="effect4_dropShadow_1032_2701"/>
<feBlend mode="normal" in="SourceGraphic" in2="effect4_dropShadow_1032_2701" result="shape"/>
<feColorMatrix in="SourceAlpha" type="matrix" values="0 0 0 0 0 0 0 0 0 0 0 0 0 0 0 0 0 0 127 0" result="hardAlpha"/>
<feOffset dx="-1" dy="-1"/>
<feGaussianBlur stdDeviation="1"/>
<feComposite in2="hardAlpha" operator="arithmetic" k2="-1" k3="1"/>
<feColorMatrix type="matrix" values="0 0 0 0 0.819608 0 0 0 0 0.85098 0 0 0 0 0.901961 0 0 0 0.5 0"/>
<feBlend mode="normal" in2="shape" result="effect5_innerShadow_1032_2701"/>
<feColorMatrix in="SourceAlpha" type="matrix" values="0 0 0 0 0 0 0 0 0 0 0 0 0 0 0 0 0 0 127 0" result="hardAlpha"/>
<feOffset dx="1" dy="1"/>
<feGaussianBlur stdDeviation="1"/>
<feComposite in2="hardAlpha" operator="arithmetic" k2="-1" k3="1"/>
<feColorMatrix type="matrix" values="0 0 0 0 1 0 0 0 0 1 0 0 0 0 1 0 0 0 0.3 0"/>
<feBlend mode="normal" in2="effect5_innerShadow_1032_2701" result="effect6_innerShadow_1032_2701"/>
</filter>
<filter id="filter5_ddddii_1032_2701" x="418" y="435" width="244" height="103" filterUnits="userSpaceOnUse" color-interpolation-filters="sRGB">
<feFlood flood-opacity="0" result="BackgroundImageFix"/>
<feColorMatrix in="SourceAlpha" type="matrix" values="0 0 0 0 0 0 0 0 0 0 0 0 0 0 0 0 0 0 127 0" result="hardAlpha"/>
<feOffset dx="5" dy="5"/>
<feGaussianBlur stdDeviation="6.5"/>
<feColorMatrix type="matrix" values="0 0 0 0 0.819608 0 0 0 0 0.85098 0 0 0 0 0.901961 0 0 0 0.9 0"/>
<feBlend mode="normal" in2="BackgroundImageFix" result="effect1_dropShadow_1032_2701"/>
<feColorMatrix in="SourceAlpha" type="matrix" values="0 0 0 0 0 0 0 0 0 0 0 0 0 0 0 0 0 0 127 0" result="hardAlpha"/>
<feOffset dx="-5" dy="-5"/>
<feGaussianBlur stdDeviation="5"/>
<feColorMatrix type="matrix" values="0 0 0 0 1 0 0 0 0 1 0 0 0 0 1 0 0 0 0.9 0"/>
<feBlend mode="normal" in2="effect1_dropShadow_1032_2701" result="effect2_dropShadow_1032_2701"/>
<feColorMatrix in="SourceAlpha" type="matrix" values="0 0 0 0 0 0 0 0 0 0 0 0 0 0 0 0 0 0 127 0" result="hardAlpha"/>
<feOffset dx="5" dy="-5"/>
<feGaussianBlur stdDeviation="5"/>
<feColorMatrix type="matrix" values="0 0 0 0 0.819608 0 0 0 0 0.85098 0 0 0 0 0.901961 0 0 0 0.2 0"/>
<feBlend mode="normal" in2="effect2_dropShadow_1032_2701" result="effect3_dropShadow_1032_2701"/>
<feColorMatrix in="SourceAlpha" type="matrix" values="0 0 0 0 0 0 0 0 0 0 0 0 0 0 0 0 0 0 127 0" result="hardAlpha"/>
<feOffset dx="-5" dy="5"/>
<feGaussianBlur stdDeviation="5"/>
<feColorMatrix type="matrix" values="0 0 0 0 0.819608 0 0 0 0 0.85098 0 0 0 0 0.901961 0 0 0 0.2 0"/>
<feBlend mode="normal" in2="effect3_dropShadow_1032_2701" result="effect4_dropShadow_1032_2701"/>
<feBlend mode="normal" in="SourceGraphic" in2="effect4_dropShadow_1032_2701" result="shape"/>
<feColorMatrix in="SourceAlpha" type="matrix" values="0 0 0 0 0 0 0 0 0 0 0 0 0 0 0 0 0 0 127 0" result="hardAlpha"/>
<feOffset dx="-1" dy="-1"/>
<feGaussianBlur stdDeviation="1"/>
<feComposite in2="hardAlpha" operator="arithmetic" k2="-1" k3="1"/>
<feColorMatrix type="matrix" values="0 0 0 0 0.819608 0 0 0 0 0.85098 0 0 0 0 0.901961 0 0 0 0.5 0"/>
<feBlend mode="normal" in2="shape" result="effect5_innerShadow_1032_2701"/>
<feColorMatrix in="SourceAlpha" type="matrix" values="0 0 0 0 0 0 0 0 0 0 0 0 0 0 0 0 0 0 127 0" result="hardAlpha"/>
<feOffset dx="1" dy="1"/>
<feGaussianBlur stdDeviation="1"/>
<feComposite in2="hardAlpha" operator="arithmetic" k2="-1" k3="1"/>
<feColorMatrix type="matrix" values="0 0 0 0 1 0 0 0 0 1 0 0 0 0 1 0 0 0 0.3 0"/>
<feBlend mode="normal" in2="effect5_innerShadow_1032_2701" result="effect6_innerShadow_1032_2701"/>
</filter>
<filter id="filter6_ddddii_1032_2701" x="725" y="435" width="266" height="133" filterUnits="userSpaceOnUse" color-interpolation-filters="sRGB">
<feFlood flood-opacity="0" result="BackgroundImageFix"/>
<feColorMatrix in="SourceAlpha" type="matrix" values="0 0 0 0 0 0 0 0 0 0 0 0 0 0 0 0 0 0 127 0" result="hardAlpha"/>
<feOffset dx="5" dy="5"/>
<feGaussianBlur stdDeviation="6.5"/>
<feColorMatrix type="matrix" values="0 0 0 0 0.819608 0 0 0 0 0.85098 0 0 0 0 0.901961 0 0 0 0.9 0"/>
<feBlend mode="normal" in2="BackgroundImageFix" result="effect1_dropShadow_1032_2701"/>
<feColorMatrix in="SourceAlpha" type="matrix" values="0 0 0 0 0 0 0 0 0 0 0 0 0 0 0 0 0 0 127 0" result="hardAlpha"/>
<feOffset dx="-5" dy="-5"/>
<feGaussianBlur stdDeviation="5"/>
<feColorMatrix type="matrix" values="0 0 0 0 1 0 0 0 0 1 0 0 0 0 1 0 0 0 0.9 0"/>
<feBlend mode="normal" in2="effect1_dropShadow_1032_2701" result="effect2_dropShadow_1032_2701"/>
<feColorMatrix in="SourceAlpha" type="matrix" values="0 0 0 0 0 0 0 0 0 0 0 0 0 0 0 0 0 0 127 0" result="hardAlpha"/>
<feOffset dx="5" dy="-5"/>
<feGaussianBlur stdDeviation="5"/>
<feColorMatrix type="matrix" values="0 0 0 0 0.819608 0 0 0 0 0.85098 0 0 0 0 0.901961 0 0 0 0.2 0"/>
<feBlend mode="normal" in2="effect2_dropShadow_1032_2701" result="effect3_dropShadow_1032_2701"/>
<feColorMatrix in="SourceAlpha" type="matrix" values="0 0 0 0 0 0 0 0 0 0 0 0 0 0 0 0 0 0 127 0" result="hardAlpha"/>
<feOffset dx="-5" dy="5"/>
<feGaussianBlur stdDeviation="5"/>
<feColorMatrix type="matrix" values="0 0 0 0 0.819608 0 0 0 0 0.85098 0 0 0 0 0.901961 0 0 0 0.2 0"/>
<feBlend mode="normal" in2="effect3_dropShadow_1032_2701" result="effect4_dropShadow_1032_2701"/>
<feBlend mode="normal" in="SourceGraphic" in2="effect4_dropShadow_1032_2701" result="shape"/>
<feColorMatrix in="SourceAlpha" type="matrix" values="0 0 0 0 0 0 0 0 0 0 0 0 0 0 0 0 0 0 127 0" result="hardAlpha"/>
<feOffset dx="-1" dy="-1"/>
<feGaussianBlur stdDeviation="1"/>
<feComposite in2="hardAlpha" operator="arithmetic" k2="-1" k3="1"/>
<feColorMatrix type="matrix" values="0 0 0 0 0.819608 0 0 0 0 0.85098 0 0 0 0 0.901961 0 0 0 0.5 0"/>
<feBlend mode="normal" in2="shape" result="effect5_innerShadow_1032_2701"/>
<feColorMatrix in="SourceAlpha" type="matrix" values="0 0 0 0 0 0 0 0 0 0 0 0 0 0 0 0 0 0 127 0" result="hardAlpha"/>
<feOffset dx="1" dy="1"/>
<feGaussianBlur stdDeviation="1"/>
<feComposite in2="hardAlpha" operator="arithmetic" k2="-1" k3="1"/>
<feColorMatrix type="matrix" values="0 0 0 0 1 0 0 0 0 1 0 0 0 0 1 0 0 0 0.3 0"/>
<feBlend mode="normal" in2="effect5_innerShadow_1032_2701" result="effect6_innerShadow_1032_2701"/>
</filter>
<filter id="filter7_ddddii_1032_2701" x="1049" y="435" width="347" height="133" filterUnits="userSpaceOnUse" color-interpolation-filters="sRGB">
<feFlood flood-opacity="0" result="BackgroundImageFix"/>
<feColorMatrix in="SourceAlpha" type="matrix" values="0 0 0 0 0 0 0 0 0 0 0 0 0 0 0 0 0 0 127 0" result="hardAlpha"/>
<feOffset dx="5" dy="5"/>
<feGaussianBlur stdDeviation="6.5"/>
<feColorMatrix type="matrix" values="0 0 0 0 0.819608 0 0 0 0 0.85098 0 0 0 0 0.901961 0 0 0 0.9 0"/>
<feBlend mode="normal" in2="BackgroundImageFix" result="effect1_dropShadow_1032_2701"/>
<feColorMatrix in="SourceAlpha" type="matrix" values="0 0 0 0 0 0 0 0 0 0 0 0 0 0 0 0 0 0 127 0" result="hardAlpha"/>
<feOffset dx="-5" dy="-5"/>
<feGaussianBlur stdDeviation="5"/>
<feColorMatrix type="matrix" values="0 0 0 0 1 0 0 0 0 1 0 0 0 0 1 0 0 0 0.9 0"/>
<feBlend mode="normal" in2="effect1_dropShadow_1032_2701" result="effect2_dropShadow_1032_2701"/>
<feColorMatrix in="SourceAlpha" type="matrix" values="0 0 0 0 0 0 0 0 0 0 0 0 0 0 0 0 0 0 127 0" result="hardAlpha"/>
<feOffset dx="5" dy="-5"/>
<feGaussianBlur stdDeviation="5"/>
<feColorMatrix type="matrix" values="0 0 0 0 0.819608 0 0 0 0 0.85098 0 0 0 0 0.901961 0 0 0 0.2 0"/>
<feBlend mode="normal" in2="effect2_dropShadow_1032_2701" result="effect3_dropShadow_1032_2701"/>
<feColorMatrix in="SourceAlpha" type="matrix" values="0 0 0 0 0 0 0 0 0 0 0 0 0 0 0 0 0 0 127 0" result="hardAlpha"/>
<feOffset dx="-5" dy="5"/>
<feGaussianBlur stdDeviation="5"/>
<feColorMatrix type="matrix" values="0 0 0 0 0.819608 0 0 0 0 0.85098 0 0 0 0 0.901961 0 0 0 0.2 0"/>
<feBlend mode="normal" in2="effect3_dropShadow_1032_2701" result="effect4_dropShadow_1032_2701"/>
<feBlend mode="normal" in="SourceGraphic" in2="effect4_dropShadow_1032_2701" result="shape"/>
<feColorMatrix in="SourceAlpha" type="matrix" values="0 0 0 0 0 0 0 0 0 0 0 0 0 0 0 0 0 0 127 0" result="hardAlpha"/>
<feOffset dx="-1" dy="-1"/>
<feGaussianBlur stdDeviation="1"/>
<feComposite in2="hardAlpha" operator="arithmetic" k2="-1" k3="1"/>
<feColorMatrix type="matrix" values="0 0 0 0 0.819608 0 0 0 0 0.85098 0 0 0 0 0.901961 0 0 0 0.5 0"/>
<feBlend mode="normal" in2="shape" result="effect5_innerShadow_1032_2701"/>
<feColorMatrix in="SourceAlpha" type="matrix" values="0 0 0 0 0 0 0 0 0 0 0 0 0 0 0 0 0 0 127 0" result="hardAlpha"/>
<feOffset dx="1" dy="1"/>
<feGaussianBlur stdDeviation="1"/>
<feComposite in2="hardAlpha" operator="arithmetic" k2="-1" k3="1"/>
<feColorMatrix type="matrix" values="0 0 0 0 1 0 0 0 0 1 0 0 0 0 1 0 0 0 0.3 0"/>
<feBlend mode="normal" in2="effect5_innerShadow_1032_2701" result="effect6_innerShadow_1032_2701"/>
</filter>
<linearGradient id="paint0_linear_1032_2701" x1="1341.07" y1="633.911" x2="1384.46" y2="681.778" gradientUnits="userSpaceOnUse">
<stop stop-color="#C86BCC"/>
<stop offset="1" stop-color="#9C7BE3"/>
</linearGradient>
<linearGradient id="paint1_linear_1032_2701" x1="1341.07" y1="633.911" x2="1384.46" y2="681.778" gradientUnits="userSpaceOnUse">
<stop stop-color="#C86BCC"/>
<stop offset="1" stop-color="#9C7BE3"/>
</linearGradient>
<linearGradient id="paint2_linear_1032_2701" x1="1072.93" y1="631.697" x2="1094.77" y2="684.436" gradientUnits="userSpaceOnUse">
<stop stop-color="#C86BCC"/>
<stop offset="1" stop-color="#9C7BE3"/>
</linearGradient>
<linearGradient id="paint3_linear_1032_2701" x1="1101.47" y1="631.697" x2="1123.31" y2="684.436" gradientUnits="userSpaceOnUse">
<stop stop-color="#C86BCC"/>
<stop offset="1" stop-color="#9C7BE3"/>
</linearGradient>
<linearGradient id="paint4_linear_1032_2701" x1="1101.47" y1="631.697" x2="1123.31" y2="684.436" gradientUnits="userSpaceOnUse">
<stop stop-color="#C86BCC"/>
<stop offset="1" stop-color="#9C7BE3"/>
</linearGradient>
<linearGradient id="paint5_linear_1032_2701" x1="1130.01" y1="631.697" x2="1151.85" y2="684.436" gradientUnits="userSpaceOnUse">
<stop stop-color="#C86BCC"/>
<stop offset="1" stop-color="#9C7BE3"/>
</linearGradient>
<linearGradient id="paint6_linear_1032_2701" x1="1130.01" y1="631.697" x2="1151.85" y2="684.436" gradientUnits="userSpaceOnUse">
<stop stop-color="#C86BCC"/>
<stop offset="1" stop-color="#9C7BE3"/>
</linearGradient>
<linearGradient id="paint7_linear_1032_2701" x1="307.871" y1="656.027" x2="436.156" y2="656.027" gradientUnits="userSpaceOnUse">
<stop stop-color="#04D6EE"/>
<stop offset="1" stop-color="#157BD1"/>
</linearGradient>
<linearGradient id="paint8_linear_1032_2701" x1="307.871" y1="656.027" x2="436.156" y2="656.027" gradientUnits="userSpaceOnUse">
<stop stop-color="#04D6EE"/>
<stop offset="1" stop-color="#157BD1"/>
</linearGradient>
<linearGradient id="paint9_linear_1032_2701" x1="307.871" y1="656.027" x2="436.156" y2="656.027" gradientUnits="userSpaceOnUse">
<stop stop-color="#04D6EE"/>
<stop offset="1" stop-color="#157BD1"/>
</linearGradient>
<linearGradient id="paint10_linear_1032_2701" x1="307.871" y1="656.027" x2="436.156" y2="656.027" gradientUnits="userSpaceOnUse">
<stop stop-color="#04D6EE"/>
<stop offset="1" stop-color="#157BD1"/>
</linearGradient>
<linearGradient id="paint11_linear_1032_2701" x1="313.434" y1="656.027" x2="430.49" y2="656.027" gradientUnits="userSpaceOnUse">
<stop stop-color="#04D6EE"/>
<stop offset="1" stop-color="#157BD1"/>
</linearGradient>
</defs>
</svg>
